<?xml version="1.0" encoding="utf-8"?>
<!-- Generator: Adobe Illustrator 17.0.0, SVG Export Plug-In . SVG Version: 6.00 Build 0)  -->
<!DOCTYPE svg PUBLIC "-//W3C//DTD SVG 1.1//EN" "http://www.w3.org/Graphics/SVG/1.1/DTD/svg11.dtd">
<svg version="1.1" id="Livello_1" xmlns="http://www.w3.org/2000/svg" xmlns:xlink="http://www.w3.org/1999/xlink" x="0px" y="0px"
	 width="268.511px" height="90.658px" viewBox="0 0 268.511 90.658" enable-background="new 0 0 268.511 90.658"
	 xml:space="preserve">
<g id="XMLID_116_">
	<g id="XMLID_138_">
		<path id="XMLID_162_" fill="#808081" d="M37.792,40.435c0.175,0.059,0.336,0.139,0.482,0.241c0.146,0.103,0.219,0.256,0.219,0.46
			l-0.088,3.332c0,0.205-0.073,0.358-0.219,0.46c-0.147,0.103-0.307,0.183-0.482,0.241c-0.175,0.059-0.497,0.11-0.964,0.154
			c-0.468,0.044-0.892,0.066-1.271,0.066c-0.38,0-0.804-0.022-1.271-0.066c-0.468-0.044-0.789-0.095-0.965-0.154
			c-0.468-0.116-0.701-0.351-0.701-0.701v-3.332c0-0.351,0.234-0.584,0.701-0.702c0.176-0.058,0.504-0.116,0.987-0.175
			c0.482-0.058,0.913-0.088,1.293-0.088c0.379,0,0.803,0.029,1.271,0.088C37.251,40.318,37.587,40.376,37.792,40.435z"/>
		<path id="XMLID_159_" fill="#808081" d="M14.906,48.721c1.87,0,3.595,0.263,5.174,0.789c1.578,0.526,2.93,1.323,4.055,2.389
			c1.125,1.067,2.002,2.404,2.631,4.011c0.628,1.608,0.942,3.493,0.942,5.656c0,2.163-0.314,4.048-0.942,5.656
			c-0.629,1.608-1.506,2.945-2.631,4.011c-1.126,1.068-2.477,1.863-4.055,2.39c-1.578,0.526-3.303,0.789-5.174,0.789
			c-1.315,0-2.624-0.081-3.924-0.241c-1.301-0.16-2.529-0.365-3.683-0.614c-1.155-0.248-2.207-0.504-3.157-0.767
			c-0.95-0.263-1.732-0.496-2.345-0.701l-1.754-0.658H0V41.794c0-0.175,0.066-0.314,0.197-0.416c0.132-0.102,0.285-0.182,0.46-0.241
			c0.175-0.058,0.482-0.11,0.921-0.153c0.438-0.044,0.818-0.066,1.14-0.066c0.351,0,0.745,0.022,1.184,0.066
			c0.438,0.044,0.745,0.095,0.921,0.153c0.146,0.059,0.285,0.139,0.416,0.241c0.132,0.103,0.197,0.241,0.197,0.416v8.593
			c1.286-0.409,2.769-0.789,4.45-1.14C11.567,48.896,13.24,48.721,14.906,48.721z M5.392,67.003c0,0.234,0.036,0.395,0.11,0.482
			c0.073,0.088,0.182,0.147,0.329,0.175c0.439,0.117,0.987,0.248,1.644,0.395c0.658,0.147,1.388,0.285,2.192,0.416
			c0.803,0.132,1.651,0.249,2.543,0.351c0.891,0.103,1.79,0.153,2.696,0.153c1.754,0,3.113-0.321,4.077-0.964
			c0.964-0.642,1.673-1.388,2.126-2.236c0.453-0.847,0.73-1.673,0.833-2.477c0.102-0.804,0.153-1.381,0.153-1.732
			c0-0.351-0.051-0.935-0.153-1.754c-0.103-0.818-0.38-1.651-0.833-2.499c-0.453-0.847-1.162-1.593-2.126-2.236
			c-0.965-0.642-2.324-0.965-4.077-0.965c-0.964,0-1.915,0.037-2.85,0.11c-0.936,0.073-1.827,0.168-2.674,0.285
			c-0.848,0.117-1.615,0.249-2.302,0.395c-0.687,0.147-1.25,0.278-1.688,0.395V67.003z"/>
		<path id="XMLID_158_" fill="#808081" d="M37.572,49.291c0.175,0.059,0.329,0.139,0.46,0.241c0.132,0.103,0.197,0.241,0.197,0.417
			v23.236c0,0.176-0.066,0.315-0.197,0.417c-0.132,0.103-0.285,0.169-0.46,0.197c-0.175,0.059-0.475,0.109-0.899,0.153
			c-0.424,0.044-0.811,0.066-1.162,0.066c-0.351,0-0.745-0.022-1.184-0.066c-0.438-0.044-0.731-0.094-0.877-0.153
			c-0.176-0.029-0.329-0.095-0.46-0.197c-0.132-0.102-0.197-0.241-0.197-0.417V49.949c0-0.176,0.066-0.314,0.197-0.417
			c0.132-0.102,0.285-0.182,0.46-0.241c0.146-0.058,0.438-0.11,0.877-0.153c0.438-0.044,0.833-0.066,1.184-0.066
			c0.351,0,0.738,0.022,1.162,0.066C37.097,49.181,37.397,49.233,37.572,49.291z"/>
		<path id="XMLID_155_" fill="#808081" d="M56.994,48.677c1.87,0,3.639,0.234,5.305,0.701c1.666,0.468,3.127,1.221,4.384,2.258
			c1.256,1.038,2.243,2.367,2.959,3.99c0.716,1.622,1.074,3.588,1.074,5.897c0,2.309-0.358,4.275-1.074,5.897
			c-0.717,1.622-1.703,2.952-2.959,3.99c-1.257,1.038-2.718,1.791-4.384,2.258s-3.435,0.701-5.305,0.701
			c-1.9,0-3.676-0.234-5.327-0.701c-1.652-0.467-3.098-1.22-4.34-2.258c-1.243-1.037-2.222-2.367-2.937-3.99
			c-0.717-1.622-1.074-3.587-1.074-5.897c0-2.308,0.358-4.275,1.074-5.897c0.716-1.622,1.695-2.952,2.937-3.99
			c1.242-1.037,2.689-1.79,4.34-2.258C53.318,48.911,55.094,48.677,56.994,48.677z M56.994,68.932c1.754,0,3.157-0.285,4.209-0.855
			c1.052-0.57,1.87-1.25,2.455-2.039c0.584-0.789,0.971-1.607,1.162-2.455c0.19-0.847,0.285-1.534,0.285-2.06
			s-0.095-1.213-0.285-2.061c-0.19-0.847-0.577-1.673-1.162-2.477c-0.585-0.803-1.403-1.491-2.455-2.061
			c-1.052-0.57-2.455-0.855-4.209-0.855c-1.754,0-3.157,0.285-4.209,0.855c-1.052,0.57-1.871,1.257-2.455,2.061
			c-0.585,0.804-0.972,1.63-1.162,2.477c-0.19,0.848-0.285,1.534-0.285,2.061s0.095,1.213,0.285,2.06
			c0.19,0.848,0.577,1.666,1.162,2.455c0.584,0.789,1.403,1.469,2.455,2.039C53.837,68.647,55.24,68.932,56.994,68.932z"/>
		<path id="XMLID_153_" fill="#808081" d="M86.937,74.368c-1.462,0-2.887-0.051-4.274-0.154c-1.389-0.103-2.624-0.219-3.705-0.351
			c-1.082-0.132-1.951-0.248-2.609-0.351c-0.658-0.102-1.001-0.153-1.03-0.153l-0.044-4.472c1.754,0.088,3.405,0.175,4.954,0.263
			c0.642,0.03,1.308,0.059,1.995,0.088c0.687,0.03,1.33,0.051,1.929,0.066c0.599,0.015,1.14,0.029,1.622,0.044
			c0.482,0.015,0.869,0.022,1.162,0.022c2.192,0,3.96-0.212,5.305-0.635c1.344-0.424,2.017-1.191,2.017-2.302
			c0-0.555-0.322-1.008-0.965-1.359c-0.643-0.351-1.491-0.642-2.543-0.877c-1.052-0.234-2.251-0.431-3.595-0.592
			c-1.345-0.16-2.704-0.358-4.077-0.592c-1.169-0.175-2.287-0.416-3.354-0.724c-1.067-0.307-2.01-0.723-2.828-1.249
			c-0.819-0.526-1.469-1.176-1.951-1.951c-0.482-0.774-0.724-1.732-0.724-2.871c0-1.111,0.219-2.126,0.658-3.047
			c0.438-0.921,1.154-1.717,2.148-2.389c0.993-0.672,2.302-1.191,3.924-1.556c1.622-0.365,3.617-0.548,5.984-0.548
			c1.491,0,2.879,0.051,4.165,0.153c1.286,0.103,2.411,0.212,3.376,0.329c0.965,0.117,2.017,0.278,3.157,0.482l0.088,4.516
			c-1.608-0.088-3.113-0.175-4.516-0.263c-1.227-0.058-2.433-0.116-3.617-0.175c-1.184-0.058-2.068-0.088-2.653-0.088
			c-0.585,0-1.271,0.029-2.061,0.088c-0.789,0.059-1.542,0.175-2.258,0.351c-0.717,0.175-1.323,0.438-1.82,0.789
			c-0.497,0.351-0.716,0.804-0.658,1.359c0.029,0.41,0.307,0.731,0.833,0.964c0.526,0.234,1.234,0.446,2.126,0.636
			c0.891,0.19,1.951,0.366,3.179,0.526c1.228,0.161,2.557,0.358,3.99,0.592c1.782,0.293,3.273,0.651,4.472,1.074
			c1.198,0.424,2.163,0.936,2.894,1.534c0.73,0.6,1.256,1.301,1.578,2.105c0.321,0.804,0.482,1.732,0.482,2.784
			c0,1.257-0.234,2.331-0.701,3.223c-0.468,0.892-1.082,1.629-1.841,2.214c-0.76,0.585-1.608,1.045-2.543,1.381
			c-0.936,0.337-1.878,0.585-2.828,0.745c-0.95,0.16-1.849,0.263-2.696,0.307C88.238,74.346,87.522,74.368,86.937,74.368z"/>
		<path id="XMLID_150_" fill="#808081" d="M131.744,61.523c0,2.163-0.314,4.048-0.943,5.656c-0.629,1.608-1.505,2.945-2.631,4.011
			c-1.126,1.068-2.477,1.863-4.055,2.39c-1.578,0.526-3.303,0.789-5.174,0.789v-0.044c-1.666,0-3.34-0.175-5.02-0.526
			c-1.681-0.351-3.15-0.731-4.406-1.14v9.426c0,0.175-0.066,0.314-0.197,0.417c-0.132,0.102-0.285,0.182-0.46,0.241
			c-0.175,0.058-0.482,0.109-0.921,0.153s-0.818,0.066-1.14,0.066c-0.351,0-0.745-0.022-1.184-0.066
			c-0.439-0.044-0.745-0.095-0.921-0.153c-0.147-0.059-0.285-0.139-0.416-0.241c-0.132-0.103-0.197-0.241-0.197-0.417v-30.47
			l1.754-0.614c0.614-0.204,1.395-0.445,2.345-0.723c0.95-0.277,2.002-0.533,3.157-0.767c1.154-0.234,2.382-0.431,3.683-0.592
			c1.3-0.16,2.608-0.241,3.924-0.241c1.87,0,3.595,0.263,5.174,0.789c1.578,0.526,2.93,1.323,4.055,2.39
			c1.125,1.067,2.002,2.404,2.631,4.011C131.43,57.475,131.744,59.36,131.744,61.523z M109.428,67.748
			c0.438,0.117,1.001,0.248,1.688,0.395c0.687,0.147,1.454,0.278,2.302,0.395c0.847,0.117,1.739,0.213,2.674,0.285
			c0.935,0.073,1.885,0.109,2.85,0.109c1.754,0,3.113-0.321,4.077-0.964c0.964-0.642,1.673-1.388,2.126-2.236
			c0.453-0.847,0.73-1.673,0.833-2.477c0.102-0.804,0.153-1.381,0.153-1.732c0-0.351-0.051-0.935-0.153-1.754
			c-0.103-0.818-0.38-1.651-0.833-2.499c-0.453-0.847-1.162-1.593-2.126-2.236c-0.965-0.643-2.324-0.965-4.077-0.965
			c-0.906,0-1.805,0.051-2.696,0.153c-0.892,0.103-1.739,0.219-2.543,0.351c-0.804,0.132-1.534,0.271-2.192,0.416
			c-0.658,0.147-1.205,0.278-1.644,0.395c-0.147,0.059-0.256,0.125-0.329,0.197c-0.073,0.073-0.11,0.227-0.11,0.46V67.748z"/>
		<path id="XMLID_148_" fill="#808081" d="M155.774,61.567c0-0.351-0.051-0.935-0.154-1.754c-0.103-0.818-0.388-1.651-0.855-2.499
			c-0.468-0.847-1.184-1.593-2.148-2.236c-0.964-0.642-2.324-0.965-4.077-0.965c-1.9,0-3.595,0.139-5.086,0.416
			c-1.491,0.278-2.689,0.534-3.595,0.767v17.887c0,0.176-0.066,0.315-0.197,0.417c-0.132,0.103-0.285,0.169-0.46,0.197
			c-0.147,0.059-0.439,0.109-0.877,0.153c-0.438,0.044-0.818,0.066-1.14,0.066c-0.351,0-0.739-0.022-1.162-0.066
			c-0.424-0.044-0.724-0.094-0.899-0.153c-0.147-0.029-0.285-0.095-0.416-0.197c-0.132-0.102-0.197-0.241-0.197-0.417V41.794
			c0-0.175,0.066-0.314,0.197-0.416c0.132-0.102,0.285-0.182,0.46-0.241c0.146-0.058,0.438-0.11,0.877-0.153
			c0.438-0.044,0.833-0.066,1.184-0.066c0.351,0,0.738,0.022,1.162,0.066c0.423,0.044,0.724,0.095,0.899,0.153
			c0.175,0.059,0.329,0.139,0.46,0.241c0.132,0.103,0.197,0.241,0.197,0.416v8.593c1.256-0.409,2.587-0.789,3.99-1.14
			c1.403-0.351,2.937-0.526,4.603-0.526c1.9,0,3.624,0.263,5.174,0.789c1.549,0.526,2.878,1.323,3.99,2.389
			c1.111,1.067,1.973,2.404,2.587,4.011c0.614,1.608,0.92,3.493,0.92,5.656v11.618c0,0.176-0.066,0.315-0.197,0.417
			c-0.132,0.103-0.285,0.183-0.461,0.241c-0.175,0.029-0.476,0.066-0.899,0.109c-0.424,0.044-0.811,0.066-1.162,0.066
			c-0.351,0-0.739-0.022-1.162-0.066c-0.424-0.044-0.724-0.094-0.899-0.153c-0.175-0.029-0.329-0.095-0.46-0.197
			c-0.131-0.102-0.197-0.241-0.197-0.417V61.567z"/>
		<path id="XMLID_144_" fill="#808081" d="M216.35,58.585c-0.029-1.461-0.402-2.813-1.118-4.055c-0.716-1.242-1.681-2.308-2.894-3.2
			c-1.213-0.891-2.646-1.571-4.296-2.039c-1.652-0.467-3.442-0.658-5.371-0.57c-1.842,0.088-3.545,0.424-5.108,1.008
			c-1.564,0.585-2.916,1.418-4.055,2.499c-0.506,0.48-0.954,1.013-1.362,1.585c-0.395-0.706-0.871-1.322-1.429-1.848
			c-0.745-0.702-1.586-1.271-2.521-1.71c-0.936-0.439-1.885-0.767-2.85-0.987c-0.964-0.219-1.893-0.365-2.784-0.438
			c-0.892-0.073-1.659-0.11-2.302-0.11c-1.403,0-2.843,0.066-4.318,0.197c-1.476,0.132-2.828,0.271-4.055,0.416
			c-1.432,0.175-2.821,0.366-4.165,0.57l0.483,4.735c0.379-0.029,1.015-0.08,1.907-0.154c0.891-0.073,1.907-0.132,3.047-0.175
			c1.14-0.044,2.33-0.088,3.573-0.132c1.242-0.044,2.418-0.066,3.529-0.066c1.87,0,3.317,0.168,4.341,0.504
			c1.023,0.336,1.768,0.731,2.236,1.184c0.467,0.454,0.738,0.906,0.811,1.359c0.073,0.454,0.11,0.811,0.11,1.074v1.71
			c-1.169-0.496-2.477-0.877-3.924-1.14c-1.447-0.263-2.923-0.453-4.428-0.57c-1.506-0.116-2.981-0.168-4.428-0.153
			c-1.447,0.015-2.762,0.059-3.946,0.132c-1.184,0.073-2.185,0.153-3.003,0.241c-0.818,0.088-1.33,0.161-1.534,0.219
			c-0.438,0.059-0.658,0.263-0.658,0.614v5.524c0,3.128,1.169,5.524,3.507,7.19c2.133,1.55,5.13,2.324,8.988,2.324
			c1.695,0,3.398-0.139,5.108-0.417c1.71-0.277,3.258-0.577,4.647-0.899c1.388-0.321,2.974-0.759,4.757-1.315l0.351-0.132v-0.594
			c0.085,0.086,0.161,0.182,0.248,0.265c1.125,1.068,2.469,1.863,4.034,2.39c1.563,0.526,3.295,0.789,5.195,0.789h0.044
			c1.169,0,2.258-0.044,3.266-0.132c1.009-0.088,1.973-0.213,2.894-0.373c0.921-0.16,1.827-0.357,2.718-0.592
			c0.891-0.234,1.804-0.497,2.74-0.789l-0.614-4.603c-0.673,0.147-1.41,0.307-2.214,0.482c-0.804,0.175-1.666,0.322-2.587,0.438
			c-0.921,0.117-1.9,0.197-2.937,0.241c-1.038,0.044-2.126,0.008-3.266-0.11c-1.491-0.116-2.697-0.401-3.617-0.855
			c-0.921-0.453-1.637-0.971-2.148-1.556c-0.511-0.584-0.87-1.198-1.074-1.841c-0.205-0.642-0.322-1.228-0.351-1.754
			c1.929,0.789,3.939,1.293,6.029,1.513c2.089,0.219,4.07,0.285,5.94,0.197c1.87-0.088,3.544-0.255,5.02-0.504
			c1.476-0.248,2.579-0.46,3.31-0.636c0.116-0.467,0.219-0.964,0.307-1.49c0.058-0.467,0.116-0.993,0.175-1.579
			C216.365,59.886,216.379,59.258,216.35,58.585z M187.67,67.047c0,0.234-0.044,0.387-0.132,0.46
			c-0.088,0.074-0.205,0.139-0.351,0.197c-3.04,0.789-5.875,1.184-8.505,1.184c-1.666,0-3.025-0.132-4.077-0.395
			c-1.053-0.263-1.784-0.555-2.192-0.877c-0.322-0.204-0.614-0.511-0.877-0.921c-0.263-0.409-0.395-1.037-0.395-1.885v-1.14
			c0.526-0.175,1.447-0.329,2.762-0.46c1.316-0.132,2.784-0.19,4.406-0.175c1.622,0.015,3.273,0.117,4.954,0.307
			c1.68,0.19,3.149,0.504,4.406,0.943V67.047z M211.067,58.695c-0.015,0.044-0.022,0.095-0.022,0.153v0.132
			c-0.877,0.38-1.936,0.658-3.178,0.833c-1.243,0.175-2.558,0.249-3.946,0.219c-1.389-0.029-2.784-0.146-4.187-0.351
			c-1.403-0.204-2.674-0.511-3.814-0.921c0.175-0.497,0.423-1.001,0.745-1.513c0.321-0.511,0.745-0.979,1.271-1.403
			c0.526-0.423,1.176-0.789,1.951-1.096c0.774-0.307,1.703-0.504,2.784-0.592c2.718-0.234,4.771,0.073,6.16,0.921
			c1.388,0.848,2.141,1.973,2.258,3.376C211.089,58.571,211.081,58.651,211.067,58.695z"/>
		<path id="XMLID_142_" fill="#808081" d="M226.472,50.299c0.774-0.263,1.644-0.519,2.608-0.767
			c0.964-0.248,2.009-0.453,3.134-0.614c1.125-0.16,2.331-0.241,3.617-0.241v5.436c-0.906,0-1.761,0.037-2.565,0.11
			c-0.805,0.073-1.528,0.161-2.17,0.263c-0.643,0.103-1.192,0.205-1.644,0.307c-0.454,0.103-0.767,0.197-0.943,0.285
			c-0.147,0.059-0.263,0.125-0.351,0.197c-0.088,0.073-0.132,0.227-0.132,0.46v17.405c0,0.176-0.066,0.315-0.197,0.417
			c-0.132,0.103-0.271,0.183-0.417,0.241c-0.175,0.059-0.482,0.109-0.921,0.153c-0.438,0.044-0.833,0.066-1.184,0.066
			c-0.322,0-0.702-0.022-1.14-0.066c-0.438-0.044-0.745-0.094-0.921-0.153c-0.175-0.058-0.329-0.139-0.46-0.241
			c-0.132-0.102-0.197-0.241-0.197-0.417V51.658l1.797-0.658C225.003,50.796,225.697,50.562,226.472,50.299z"/>
		<path id="XMLID_139_" fill="#808081" d="M253.529,48.721c0.643,0,1.41,0.037,2.302,0.11c0.891,0.073,1.819,0.219,2.784,0.438
			c0.964,0.219,1.914,0.548,2.85,0.987c0.935,0.438,1.776,1.008,2.521,1.71c0.745,0.701,1.344,1.564,1.798,2.587
			c0.453,1.023,0.68,2.251,0.68,3.683v13.328l-0.351,0.132c-1.783,0.556-3.369,0.994-4.757,1.315
			c-1.389,0.322-2.937,0.622-4.647,0.899c-1.71,0.278-3.413,0.417-5.108,0.417c-3.858,0-6.854-0.774-8.988-2.324
			c-2.339-1.666-3.507-4.062-3.507-7.19v-5.524c0-0.351,0.219-0.555,0.658-0.614c0.204-0.058,0.716-0.132,1.534-0.219
			c0.818-0.088,1.82-0.168,3.003-0.241c1.184-0.073,2.499-0.116,3.946-0.132c1.447-0.014,2.922,0.037,4.428,0.153
			c1.505,0.117,2.981,0.307,4.428,0.57c1.447,0.263,2.755,0.643,3.924,1.14v-1.71c0-0.263-0.037-0.621-0.11-1.074
			c-0.073-0.453-0.344-0.905-0.811-1.359c-0.468-0.453-1.213-0.847-2.236-1.184c-1.024-0.336-2.47-0.504-4.341-0.504
			c-1.111,0-2.287,0.022-3.529,0.066c-1.243,0.044-2.434,0.088-3.573,0.132c-1.14,0.044-2.156,0.103-3.047,0.175
			c-0.892,0.074-1.528,0.125-1.907,0.154l-0.483-4.735c1.344-0.204,2.733-0.395,4.165-0.57c1.227-0.146,2.579-0.285,4.055-0.416
			C250.686,48.787,252.126,48.721,253.529,48.721z M260.457,67.705c0.146-0.058,0.263-0.124,0.351-0.197
			c0.088-0.073,0.132-0.226,0.132-0.46v-2.762c-1.257-0.439-2.726-0.752-4.406-0.943c-1.681-0.19-3.332-0.292-4.954-0.307
			c-1.622-0.015-3.091,0.044-4.406,0.175c-1.315,0.132-2.236,0.285-2.762,0.46v1.14c0,0.848,0.132,1.476,0.395,1.885
			c0.263,0.41,0.555,0.717,0.877,0.921c0.409,0.322,1.14,0.614,2.192,0.877c1.052,0.263,2.411,0.395,4.077,0.395
			C254.582,68.888,257.416,68.494,260.457,67.705z"/>
	</g>
	<g id="XMLID_121_">
		<path id="XMLID_135_" fill="#808081" d="M222.41,90.658c-0.062,0-0.103-0.043-0.103-0.106v-7c0-0.063,0.041-0.106,0.103-0.106
			h2.345c1.343,0,2.159,0.785,2.159,2.047c0,1.262-0.816,2.036-2.159,2.036h-1.797c-0.042,0-0.062,0.021-0.062,0.064v2.959
			c0,0.064-0.042,0.106-0.103,0.106H222.41z M226.325,85.493c0-0.923-0.558-1.474-1.591-1.474h-1.776
			c-0.042,0-0.062,0.021-0.062,0.064v2.811c0,0.042,0.02,0.063,0.062,0.063h1.776C225.767,86.957,226.325,86.416,226.325,85.493z"/>
		<path id="XMLID_133_" fill="#808081" d="M230.003,83.552c0-0.063,0.041-0.106,0.103-0.106h0.382c0.062,0,0.103,0.043,0.103,0.106
			v3.097c0,0.043,0.021,0.063,0.062,0.063h3.471c0.041,0,0.062-0.021,0.062-0.063v-3.097c0-0.063,0.042-0.106,0.104-0.106h0.382
			c0.062,0,0.103,0.043,0.103,0.106v7c0,0.064-0.041,0.106-0.103,0.106h-0.382c-0.062,0-0.104-0.043-0.104-0.106v-3.203
			c0-0.043-0.02-0.064-0.062-0.064h-3.471c-0.041,0-0.062,0.021-0.062,0.064v3.203c0,0.064-0.041,0.106-0.103,0.106h-0.382
			c-0.062,0-0.103-0.043-0.103-0.106V83.552z"/>
		<path id="XMLID_130_" fill="#808081" d="M240.178,83.552c0.021-0.063,0.062-0.106,0.124-0.106h0.372
			c0.072,0,0.103,0.043,0.124,0.106l2.438,7c0.021,0.064-0.01,0.106-0.072,0.106h-0.403c-0.072,0-0.114-0.021-0.134-0.106
			l-0.62-1.771h-3.057l-0.62,1.771c-0.031,0.085-0.072,0.106-0.134,0.106h-0.403c-0.062,0-0.093-0.043-0.072-0.106L240.178,83.552z
			 M241.81,88.198l-1.312-3.776h-0.031l-1.322,3.776H241.81z"/>
		<path id="XMLID_127_" fill="#808081" d="M250.343,90.658c-0.062,0-0.093-0.021-0.124-0.096l-1.477-3.129h-0.103h-1.808
			c-0.041,0-0.062,0.021-0.062,0.064v3.054c0,0.064-0.041,0.106-0.103,0.106h-0.382c-0.062,0-0.103-0.043-0.103-0.106v-7
			c0-0.063,0.041-0.106,0.103-0.106h2.355c1.322,0,2.138,0.763,2.138,1.994c0,0.997-0.537,1.687-1.436,1.909l1.529,3.192
			c0.041,0.063,0.01,0.116-0.052,0.116H250.343z M250.188,85.44c0-0.902-0.558-1.421-1.56-1.421h-1.797
			c-0.041,0-0.062,0.021-0.062,0.064v2.715c0,0.043,0.021,0.064,0.062,0.064h1.797C249.631,86.861,250.188,86.352,250.188,85.44z"/>
		<path id="XMLID_125_" fill="#808081" d="M254.187,83.552c0-0.063,0.041-0.106,0.103-0.106h0.393c0.072,0,0.124,0.032,0.155,0.106
			l2.283,5.166h0.042l2.231-5.166c0.031-0.074,0.083-0.106,0.145-0.106h0.403c0.062,0,0.103,0.043,0.103,0.106v7
			c0,0.064-0.041,0.106-0.103,0.106h-0.382c-0.062,0-0.104-0.043-0.104-0.106V84.91h-0.031l-2.024,4.571
			c-0.041,0.085-0.082,0.117-0.186,0.117h-0.206c-0.093,0-0.135-0.032-0.176-0.117l-2.024-4.571h-0.031v5.642
			c0,0.064-0.042,0.106-0.103,0.106h-0.383c-0.062,0-0.103-0.043-0.103-0.106V83.552z"/>
		<path id="XMLID_122_" fill="#808081" d="M265.447,83.552c0.021-0.063,0.062-0.106,0.124-0.106h0.372
			c0.072,0,0.103,0.043,0.124,0.106l2.438,7c0.021,0.064-0.01,0.106-0.072,0.106h-0.403c-0.072,0-0.113-0.021-0.134-0.106
			l-0.62-1.771h-3.057l-0.619,1.771c-0.031,0.085-0.073,0.106-0.135,0.106h-0.403c-0.062,0-0.093-0.043-0.072-0.106L265.447,83.552z
			 M267.079,88.198l-1.312-3.776h-0.031l-1.322,3.776H267.079z"/>
	</g>
	<circle id="XMLID_120_" fill="#FFD635" cx="92.776" cy="21.334" r="3.821"/>
	<circle id="XMLID_119_" fill="#FFE900" cx="107.179" cy="7.796" r="7.796"/>
	<circle id="XMLID_118_" fill="#8AE872" cx="104.041" cy="36.544" r="6.125"/>
	<circle id="XMLID_117_" fill="#A1ECDD" cx="120.858" cy="14.371" r="11.808"/>
</g>
</svg>
