<svg xmlns="http://www.w3.org/2000/svg" width="35.659" height="35.659">
  <path fill="#7C7C7B" d="M33.932 8.994L30.4 4.56c-.335-.418-.84-.662-1.376-.662H10.762c-.535 0-1.042.244-1.375.663L5.854 9c-.37.463-.67 1.326-.67 1.978v3.247c.28-.44.69-.773 1.182-.942.027-.37.14-.73.332-1.06.333-.566.868-.97 1.505-1.135.228-.06.438-.085.647-.085.843 0 1.606.43 2.053 1.1.133-.023.267-.035.402-.035.414 0 .805.115 1.145.31l1.957-.508c.245-.064.497-.096.75-.096 1.354 0 2.537.917 2.878 2.228l3.835 14.74c.2.77.09 1.57-.313 2.256-.402.685-1.048 1.173-1.817 1.373l-1.712.45h14.376c1.214 0 2.2-.98 2.2-2.2v-19.7c0-.59-.303-1.45-.672-1.91zM7.008 8.956l1.17-1.468h7.983l.79-1.295H9.21l.865-1.084c.168-.22.42-.34.688-.34h18.26c.27 0 .52.12.69.33l.863 1.08H22.7l.44 1.29h8.47l1.17 1.47H7.007zm.357 5.416l-.494.128c-.52.137-.84.674-.7 1.2l.01.018c.14.526.68.84 1.2.704l4.19-1.09c.53-.136.84-.673.71-1.198l-.002-.02c-.14-.525-.676-.84-1.2-.703l-.494.13c-.263.07-.532-.09-.6-.35l-.004-.01c-.16-.61-.78-.98-1.394-.82l-.027.01c-.617.16-.98.79-.82 1.4v.02c.07.27-.09.54-.35.608zm1.35-1.377c.265-.07.536.09.605.356.07.27-.09.54-.356.61-.266.07-.537-.09-.606-.35-.068-.26.09-.53.356-.6zm6.167 15.16c.046.177-.06.358-.237.404l-6.09 1.58c-.176.04-.357-.06-.403-.24l-.083-.32c-.05-.18.06-.36.23-.41l6.09-1.59c.17-.05.35.06.4.232l.08.32zm.743-6.352l.083.32c.046.178-.06.36-.237.405l-8.33 2.167c-.17.046-.36-.06-.4-.237l-.08-.32c-.04-.178.06-.36.24-.405l8.33-2.168c.18-.045.36.062.41.238zm-.904-2.16L6.39 21.81c-.177.048-.36-.06-.404-.235l-.083-.32c-.046-.177.06-.358.237-.404l8.33-2.16c.178-.04.36.06.405.24l.083.32c.046.18-.06.36-.237.41zm-.18 5.865l-6.73 1.75c-.17.047-.36-.06-.4-.236l-.08-.32c-.04-.178.06-.36.24-.405l6.73-1.75c.18-.047.36.06.41.236l.086.32c.047.18-.06.36-.236.405zm6.06 3.557l-3.83-14.74c-.23-.886-1.13-1.417-2.02-1.187l-1.95.508c.05.095.09.196.11.303.24.89-.29 1.79-1.17 2.02L7.6 17.05c-.842.22-1.748-.214-2.03-1.037-.054-.15-.083-.31-.09-.46l-1.957.51c-.885.23-1.416 1.134-1.186 2.02l3.835 14.74c.23.885 1.134 1.416 2.02 1.186l11.215-2.92c.886-.23 1.416-1.14 1.186-2.02zM7.78 32.4L4.44 19.58l11.216-2.917L18.99 29.48 7.776 32.4zm0 0"/>
</svg>
