<?xml version="1.0" encoding="utf-8"?>
<!-- Generator: Adobe Illustrator 19.0.0, SVG Export Plug-In . SVG Version: 6.00 Build 0)  -->
<svg version="1.1" id="Livello_1" xmlns="http://www.w3.org/2000/svg" xmlns:xlink="http://www.w3.org/1999/xlink" x="0px" y="0px" viewBox="0 0 122 16" style="enable-background:new 0 0 122 16;" xml:space="preserve">
    <style type="text/css">
    .st0 {
        fill: #fff;
    }
    </style>
    <g id="XMLID_30_">
        <path class="st0" d="M112.4,8.9c-0.1,0-0.1,0-0.1-0.1l1.6-4.9c0.1-0.3,0.2-0.3,0.3,0l1.7,4.9c0,0.1,0,0.1-0.1,0.1H112.4z
     M109.9,12.9c-0.3,0.9-0.7,1.6-1.5,1.7c-0.1,0-0.4,0-0.5,0c-0.1,0-0.2,0-0.2,0.1c0,0.1,0.1,0.1,0.3,0.1c0.9,0,1.8-0.1,2-0.1
    c0.2,0,1,0.1,1.4,0.1c0.2,0,0.3,0,0.3-0.1c0-0.1-0.1-0.1-0.2-0.1h-0.2c-0.3,0-0.7-0.2-0.7-0.5c0-0.3,0.1-0.8,0.3-1.2l1.1-3.2
    c0-0.1,0.1-0.1,0.2-0.1h3.9c0.1,0,0.1,0,0.2,0.1l1.7,4.5c0.1,0.3,0,0.5-0.1,0.5c-0.1,0-0.1,0.1-0.1,0.1c0,0.1,0.2,0.1,0.5,0.1
    c1.2,0,2.6,0,2.8,0c0.2,0,0.4,0,0.4-0.1c0-0.1-0.1-0.1-0.2-0.1c-0.2,0-0.5,0-0.7-0.1c-0.4-0.1-0.9-0.4-1.6-2
    c-1.1-2.8-4-10.2-4.2-10.9c-0.2-0.6-0.3-0.7-0.4-0.7c-0.1,0-0.2,0.1-0.4,0.7L109.9,12.9z M105,6.4c0-2.8,0-3.3,0-3.9
    c0-0.6,0.2-0.9,0.7-1c0.2,0,0.3-0.1,0.5-0.1c0.1,0,0.1,0,0.1-0.1c0-0.1-0.1-0.1-0.3-0.1c-0.5,0-1.7,0.1-1.8,0.1
    c-0.1,0-1.2-0.1-1.8-0.1c-0.2,0-0.3,0-0.3,0.1c0,0.1,0.1,0.1,0.1,0.1c0.1,0,0.4,0,0.6,0.1c0.4,0.1,0.6,0.4,0.6,1c0,0.6,0,1.1,0,3.9
    v3.2c0,1.7,0,3.2-0.1,3.9c-0.1,0.5-0.2,0.9-0.5,1c-0.2,0-0.4,0.1-0.5,0.1c-0.1,0-0.1,0.1-0.1,0.1c0,0.1,0.1,0.1,0.3,0.1
    c0.5,0,1.7-0.1,1.8-0.1c0.1,0,1.2,0.1,2.2,0.1c0.2,0,0.3-0.1,0.3-0.1c0-0.1,0-0.1-0.1-0.1c-0.2,0-0.6,0-0.8-0.1
    c-0.5-0.1-0.7-0.5-0.7-1c-0.1-0.8-0.1-2.2-0.1-3.9V6.4z M94.2,6.4c0-2.8,0-3.3,0-3.9c0-0.6,0.2-0.9,0.7-1c0.2,0,0.5-0.1,0.6-0.1
    c0.1,0,0.1,0,0.1-0.1c0-0.1-0.1-0.1-0.3-0.1c-0.5,0-1.9,0.1-2,0.1c-0.1,0-1.2-0.1-2-0.1c-0.2,0-0.3,0-0.3,0.1
    c0,0.1,0.1,0.1,0.1,0.1c0.2,0,0.5,0,0.6,0.1c0.6,0.1,0.7,0.4,0.8,1c0,0.6,0,1.1,0,3.9v3.2c0,1.7,0,3.2-0.1,3.9
    c-0.1,0.5-0.2,0.9-0.5,1c-0.2,0-0.4,0.1-0.5,0.1c-0.1,0-0.1,0.1-0.1,0.1c0,0.1,0.1,0.1,0.3,0.1c0.5,0,1.6-0.1,1.8-0.1
    c1.1,0,2.2,0.1,4.9,0.1c1,0,1-0.1,1.1-0.5c0.1-0.5,0.3-1.6,0.3-1.8c0-0.2,0-0.3-0.1-0.3c-0.1,0-0.1,0.1-0.2,0.2
    c-0.1,0.3-0.2,0.8-0.5,1.1c-0.4,0.5-1.2,0.5-2.2,0.5c-1.4,0-1.9-0.1-2.2-0.4c-0.3-0.3-0.4-1.5-0.4-4.2V6.4z M81,8.9
    c-0.1,0-0.1,0-0.1-0.1l1.6-4.9c0.1-0.3,0.2-0.3,0.3,0l1.7,4.9c0,0.1,0,0.1-0.1,0.1H81z M78.5,12.9c-0.3,0.9-0.7,1.6-1.5,1.7
    c-0.1,0-0.4,0-0.5,0c-0.1,0-0.2,0-0.2,0.1c0,0.1,0.1,0.1,0.3,0.1c0.9,0,1.8-0.1,2-0.1c0.2,0,1,0.1,1.4,0.1c0.2,0,0.3,0,0.3-0.1
    c0-0.1-0.1-0.1-0.2-0.1H80c-0.3,0-0.7-0.2-0.7-0.5c0-0.3,0.1-0.8,0.3-1.2l1.1-3.2c0-0.1,0.1-0.1,0.2-0.1h3.9c0.1,0,0.1,0,0.2,0.1
    l1.7,4.5c0.1,0.3,0,0.5-0.1,0.5c-0.1,0-0.1,0.1-0.1,0.1c0,0.1,0.2,0.1,0.5,0.1c1.3,0,2.6,0,2.8,0c0.2,0,0.4,0,0.4-0.1
    c0-0.1-0.1-0.1-0.2-0.1c-0.2,0-0.5,0-0.7-0.1c-0.4-0.1-0.9-0.4-1.6-2c-1.1-2.8-4-10.2-4.2-10.9C83.2,1,83.1,0.9,83,0.9
    c-0.1,0-0.2,0.1-0.4,0.7L78.5,12.9z M73.6,6.4c0-2.8,0-3.3,0-3.9c0-0.6,0.2-0.9,0.7-1c0.2,0,0.3-0.1,0.5-0.1c0.1,0,0.1,0,0.1-0.1
    c0-0.1-0.1-0.1-0.3-0.1c-0.5,0-1.7,0.1-1.8,0.1c-0.1,0-1.2-0.1-2-0.1c-0.2,0-0.3,0-0.3,0.1c0,0.1,0.1,0.1,0.1,0.1
    c0.2,0,0.5,0,0.6,0.1c0.6,0.1,0.7,0.4,0.8,1c0,0.6,0,1.1,0,3.9v0.4c0,0.1-0.1,0.1-0.1,0.1h-7.7c-0.1,0-0.1,0-0.1-0.1V6.4
    c0-2.8,0-3.3,0-3.9c0-0.6,0.2-0.9,0.7-1c0.2,0,0.3-0.1,0.5-0.1c0.1,0,0.1,0,0.1-0.1c0-0.1-0.1-0.1-0.3-0.1c-0.5,0-1.7,0.1-1.8,0.1
    c-0.1,0-1.2-0.1-2-0.1c-0.2,0-0.3,0-0.3,0.1c0,0.1,0.1,0.1,0.1,0.1c0.2,0,0.5,0,0.6,0.1c0.6,0.1,0.7,0.4,0.8,1c0,0.6,0,1.1,0,3.9
    v3.2c0,1.7,0,3.2-0.1,3.9c-0.1,0.5-0.2,0.9-0.5,1c-0.2,0-0.4,0.1-0.5,0.1c-0.1,0-0.1,0.1-0.1,0.1c0,0.1,0.1,0.1,0.3,0.1
    c0.5,0,1.7-0.1,1.8-0.1c0.1,0,1.2,0.1,2.2,0.1c0.2,0,0.3-0.1,0.3-0.1c0-0.1,0-0.1-0.1-0.1c-0.2,0-0.6,0-0.8-0.1
    c-0.5-0.1-0.7-0.5-0.7-1c-0.1-0.8-0.1-2.2-0.1-3.9V7.7c0-0.1,0.1-0.1,0.1-0.1h7.7c0.1,0,0.1,0,0.1,0.1v1.9c0,1.7,0,3.2-0.1,3.9
    c-0.1,0.5-0.2,0.9-0.5,1c-0.2,0-0.4,0.1-0.5,0.1c-0.1,0-0.1,0.1-0.1,0.1c0,0.1,0.1,0.1,0.3,0.1c0.5,0,1.7-0.1,1.8-0.1
    c0.1,0,1.2,0.1,2.2,0.1c0.2,0,0.3-0.1,0.3-0.1c0-0.1,0-0.1-0.1-0.1c-0.2,0-0.6,0-0.8-0.1c-0.5-0.1-0.7-0.5-0.7-1
    c-0.1-0.8-0.1-2.2-0.1-3.9V6.4z M53.9,2l2.3,0c1.7,0,2.2,0.5,2.2,1l0,0.2c0,0.3,0.1,0.3,0.1,0.3c0.1,0,0.1-0.1,0.1-0.2
    c0-0.2,0.1-1.5,0.1-2c0-0.1,0-0.2-0.1-0.2c-0.1,0-0.6,0.2-1.8,0.2h-6.8c-0.2,0-0.9,0-1.4-0.1c-0.5,0-0.7-0.2-0.8-0.2
    c-0.1,0-0.1,0.2-0.2,0.3c0,0.1-0.4,1.7-0.4,1.9c0,0.1,0,0.2,0.1,0.2c0.1,0,0.1,0,0.2-0.2c0.1-0.1,0.1-0.3,0.3-0.6
    C48.2,2.1,48.6,2,49.7,2l2.7,0v7.7c0,1.7,0,3.2-0.1,3.9c-0.1,0.5-0.2,0.9-0.5,1c-0.2,0-0.4,0.1-0.5,0.1c-0.1,0-0.1,0.1-0.1,0.1
    c0,0.1,0.1,0.1,0.3,0.1c0.5,0,1.7-0.1,1.8-0.1c0.1,0,1.2,0.1,2.2,0.1c0.2,0,0.3-0.1,0.3-0.1c0-0.1,0-0.1-0.1-0.1
    c-0.2,0-0.6,0-0.8-0.1c-0.5-0.1-0.7-0.5-0.7-1c-0.1-0.8-0.1-2.2-0.1-3.9V2z M33.2,3.7c0.6,0.7,2.6,2.9,4.7,5.2
    c1.9,2.1,4.5,4.7,4.7,4.9c1,1,1.2,1.2,1.3,1.2c0.1,0,0.2-0.1,0.2-1.3l0-10.6c0-1.1,0.1-1.5,0.7-1.6c0.2-0.1,0.3-0.1,0.4-0.1
    c0.1,0,0.2-0.1,0.2-0.1c0-0.1-0.1-0.1-0.3-0.1c-0.7,0-1.3,0.1-1.5,0.1c-0.2,0-1.1-0.1-1.9-0.1c-0.2,0-0.4,0-0.4,0.1
    c0,0.1,0,0.1,0.1,0.1c0.1,0,0.6,0,0.9,0.1c0.6,0.1,0.7,0.5,0.7,1.7l0.2,9.2c-0.6-0.6-2.6-2.8-4.4-4.7c-2.8-3-5.5-5.9-5.8-6.2
    c-0.2-0.2-0.5-0.6-0.6-0.6c-0.1,0-0.2,0.2-0.2,0.9l0,10.4c0,1.7-0.1,2.2-0.5,2.3c-0.3,0.1-0.6,0.1-0.7,0.1c-0.1,0-0.1,0-0.1,0.1
    c0,0.1,0.1,0.1,0.3,0.1c0.8,0,1.6-0.1,1.7-0.1c0.2,0,0.9,0.1,1.9,0.1c0.2,0,0.3,0,0.3-0.1c0-0.1-0.1-0.1-0.1-0.1
    c-0.2,0-0.6,0-0.9-0.1c-0.5-0.1-0.7-0.6-0.7-2.1L33.2,3.7z M21.9,9.6c0,1.7,0,3.2-0.1,3.9c-0.1,0.5-0.2,0.9-0.5,1
    c-0.2,0-0.4,0.1-0.5,0.1c-0.1,0-0.1,0.1-0.1,0.1c0,0.1,0.1,0.1,0.3,0.1c0.5,0,1.7-0.1,1.8-0.1c0.5,0,1.7,0.1,4.5,0.1
    c0.7,0,0.9,0,1-0.5c0.1-0.4,0.2-1.6,0.2-1.8c0-0.1,0-0.3-0.1-0.3c-0.1,0-0.1,0.1-0.2,0.3c-0.1,0.7-0.3,1.1-0.8,1.3
    c-0.5,0.2-1.3,0.2-1.7,0.2c-1.8,0-2-0.2-2.1-1.5c0-0.4,0-2.5,0-3.1V8c0-0.1,0-0.1,0.1-0.1c0.3,0,2.1,0,2.6,0.1
    C26.8,8.1,27,8.4,27,8.6c0.1,0.2,0.1,0.4,0.1,0.6c0,0.1,0,0.2,0.1,0.2c0.1,0,0.1-0.2,0.1-0.3c0-0.1,0-0.8,0.1-1.2
    c0.1-0.6,0.1-0.9,0.1-1c0-0.1,0-0.1-0.1-0.1c-0.1,0-0.1,0.1-0.3,0.2c-0.2,0.2-0.4,0.2-0.9,0.3c-0.4,0-2.6,0-2.9,0
    c-0.1,0-0.1-0.1-0.1-0.2v-5c0-0.1,0-0.2,0.1-0.2c0.2,0,2.2,0,2.5,0.1c1,0.1,1.2,0.3,1.3,0.6c0.1,0.2,0.1,0.5,0.1,0.7
    c0,0.1,0,0.2,0.1,0.2c0.1,0,0.1-0.1,0.1-0.2c0-0.2,0.1-1,0.1-1.2c0.1-0.5,0.1-0.7,0.1-0.9c0-0.1,0-0.2-0.1-0.2
    c-0.1,0-0.2,0.1-0.3,0.1c-0.1,0-0.4,0.1-0.8,0.1c-0.4,0-4,0-4.2,0c-0.1,0-1.2-0.1-2-0.1c-0.2,0-0.3,0-0.3,0.1
    c0,0.1,0.1,0.1,0.1,0.1c0.2,0,0.5,0,0.6,0.1c0.6,0.1,0.7,0.4,0.8,1c0,0.6,0,1.1,0,3.9V9.6z M15.1,1.4c0-0.3-0.1-0.5-0.2-0.5
    c-0.1,0-0.2,0.1-0.3,0.3L9.3,12.6L3.7,1.2C3.6,1,3.6,0.9,3.5,0.9c-0.1,0-0.2,0.1-0.2,0.3L1.9,13.1c-0.1,0.7-0.1,1.4-0.7,1.5
    c-0.3,0.1-0.4,0.1-0.5,0.1c-0.1,0-0.2,0-0.2,0.1c0,0.1,0.1,0.2,0.3,0.2c0.5,0,1.4-0.1,1.5-0.1c0.1,0,1,0.1,1.7,0.1
    c0.2,0,0.3,0,0.3-0.2c0-0.1-0.1-0.1-0.1-0.1c-0.1,0-0.4,0-0.7-0.1C3.2,14.5,3,14.2,3,14c0-0.3,0-0.6,0-0.9l0.7-8.4h0.1
    c0.2,0.5,2.2,4.8,2.4,5.2C6.3,10,7.9,13.1,8.4,14c0.3,0.7,0.4,0.8,0.6,0.8c0.2,0,0.2-0.2,0.6-1L14,4.5H14l0.9,9.4
    c0,0.3,0,0.6-0.1,0.7c-0.1,0-0.1,0.1-0.1,0.1c0,0.1,0.1,0.1,0.5,0.2c0.7,0.1,2.6,0.1,3,0.1c0.2,0,0.4-0.1,0.4-0.2
    c0-0.1-0.1-0.1-0.1-0.1c-0.2,0-0.7,0-1.2-0.2c-0.8-0.3-0.9-1.3-1-1.9L15.1,1.4z" />
        <path id="XMLID_5_" class="st0" d="M9.2,5.3c1.2,0,2.2-1,2.2-2.2c0-1.2-1-2.2-2.2-2.2S7,1.9,7,3.1C7,4.3,8,5.3,9.2,5.3" />
        <g>
            <path class="st0" d="M120.8,4c-0.4,0.4-0.8,0.5-1.3,0.5c-0.5,0-0.9-0.2-1.3-0.5c-0.4-0.4-0.5-0.8-0.5-1.3c0-0.5,0.2-0.9,0.5-1.3
      c0.4-0.4,0.8-0.5,1.3-0.5c0.5,0,0.9,0.2,1.3,0.5c0.4,0.4,0.5,0.8,0.5,1.3C121.3,3.2,121.2,3.7,120.8,4z M118.4,1.6
      c-0.3,0.3-0.5,0.7-0.5,1.1c0,0.4,0.2,0.8,0.5,1.1c0.3,0.3,0.7,0.5,1.1,0.5c0.4,0,0.8-0.2,1.1-0.5c0.3-0.3,0.5-0.7,0.5-1.1
      c0-0.4-0.2-0.8-0.5-1.1c-0.3-0.3-0.7-0.5-1.1-0.5C119.1,1.1,118.7,1.3,118.4,1.6z M119.5,1.7c0.3,0,0.4,0,0.6,0.1
      c0.2,0.1,0.3,0.3,0.3,0.5c0,0.2-0.1,0.3-0.2,0.4c-0.1,0-0.2,0.1-0.3,0.1c0.2,0,0.3,0.1,0.3,0.2c0.1,0.1,0.1,0.2,0.1,0.3v0.1
      c0,0,0,0.1,0,0.2c0,0.1,0,0.1,0,0.1l0,0H120c0,0,0,0,0,0c0,0,0,0,0,0l0-0.1V3.5c0-0.2-0.1-0.4-0.2-0.5c-0.1,0-0.2-0.1-0.4-0.1
      h-0.3v0.8h-0.4v-2H119.5z M119.9,2c-0.1-0.1-0.2-0.1-0.4-0.1h-0.3v0.7h0.3c0.2,0,0.3,0,0.3,0c0.1-0.1,0.2-0.2,0.2-0.3
      C120,2.2,119.9,2.1,119.9,2z" />
        </g>
    </g>
</svg>
