<?xml version="1.0" encoding="UTF-8" standalone="no"?>
<!DOCTYPE svg  PUBLIC '-//W3C//DTD SVG 1.1//EN'  'http://www.w3.org/Graphics/SVG/1.1/DTD/svg11.dtd'>
<svg xmlns="http://www.w3.org/2000/svg" version="1.1">
<defs>
<font id="DINNextLTPro-UltraLight" horiz-adv-x="522">
<font-face cap-height="680" underline-position="-150" ascent="800" unicode-range="U+0020-FB04" panose-1="2 11 2 3 2 2 3 5 2 3" units-per-em="1000" bbox="-139.562 -216 987 912" descent="-200" font-family="DIN Next LT Pro UltraLight" x-height="474" underline-thickness="50" font-weight="250"/>
<missing-glyph horiz-adv-x="464" d="M205 123v28q0 10 10 10h19q10 0 10 -10v-28q0 -10 -10 -10h-19q-10 0 -10 10zM221 217q-10 0 -10 10v25q0 43 24 72l31 37q27 32 35 50.5t8 43.5q0 37 -23 58.5t-59 21.5q-70 0 -87 -77q-2 -9 -12 -8l-7 1q-10 2 -8 11q8 44 39 71.5t75 27.5q50 0 80 -30t30 -76 q0 -31 -10 -53t-34 -51l-31 -37q-15 -19 -19 -30t-4 -32v-25q0 -10 -10 -10h-8zM30 34q0 -6 6 -6h392q6 0 6 6v612q0 6 -6 6h-392q-6 0 -6 -6v-612zM0 10v660q0 10 10 10h444q10 0 10 -10v-660q0 -10 -10 -10h-444q-10 0 -10 10z"/>
<glyph glyph-name="IJ" unicode="IJ" horiz-adv-x="695" d="M282 34q-8 5 -3 14l8 9q6 6 15 1q53 -39 114 -39q153 0 153 173v478q0 10 10 10h11q10 0 10 -10v-479q0 -102 -48.5 -151.5t-135.5 -49.5q-76 0 -134 44zM102 10v660q0 10 10 10h11q10 0 10 -10v-660q0 -10 -10 -10h-11q-10 0 -10 10z"/>
<glyph glyph-name="ij" unicode="ij" horiz-adv-x="460" d="M253 -180h-4q-10 0 -10 10v8q0 10 10 10h4q46 0 61.5 16t15.5 65v535q0 10 10 10h10q10 0 10 -10v-535q0 -63 -23 -86t-84 -23zM357 620h-24q-10 0 -10 10v40q0 10 10 10h24q10 0 10 -10v-40q0 -10 -10 -10zM120 0h-10q-10 0 -10 10v454q0 10 10 10h10q10 0 10 -10v-454 q0 -10 -10 -10zM127 620h-24q-10 0 -10 10v40q0 10 10 10h24q10 0 10 -10v-40q0 -10 -10 -10z"/>
<glyph glyph-name="napostrophe" unicode='&quot;n' horiz-adv-x="538" d="M63 552q-7 0 -7 9v109q0 10 9 10h11q9 0 9 -10v-64q0 -16 -5 -28l-7 -19q-3 -7 -10 -7zM434 0h-10q-10 0 -10 10v284q0 83 -34.5 122.5t-104.5 39.5q-62 0 -103.5 -39.5t-41.5 -107.5v-299q0 -10 -10 -10h-10q-10 0 -10 10v454q0 10 10 10h10q10 0 10 -10v-67h1 q18 41 56.5 64t89.5 23q81 0 124 -46t43 -137v-291q0 -10 -10 -10z"/>
<glyph glyph-name="f_f" unicode="ff" horiz-adv-x="598" d="M435 0h-10q-10 0 -10 10v430q0 6 -6 6h-58q-10 0 -10 10v8q0 10 10 10h58q6 0 6 6v61q0 85 25 112t97 27h21q10 0 10 -10v-8q0 -10 -10 -10h-17q-61 0 -78.5 -18.5t-17.5 -82.5v-71q0 -6 6 -6h107q10 0 10 -10v-8q0 -10 -10 -10h-107q-6 0 -6 -6v-430q0 -10 -10 -10z M136 0h-10q-10 0 -10 10v430q0 6 -6 6h-58q-10 0 -10 10v8q0 10 10 10h58q6 0 6 6v61q0 85 25 112t97 27h21q10 0 10 -10v-8q0 -10 -10 -10h-17q-61 0 -78.5 -18.5t-17.5 -82.5v-71q0 -6 6 -6h107q10 0 10 -10v-8q0 -10 -10 -10h-107q-6 0 -6 -6v-430q0 -10 -10 -10z"/>
<glyph glyph-name="fi" unicode="fi" horiz-adv-x="529" d="M419 0h-10q-10 0 -10 10v454q0 10 10 10h10q10 0 10 -10v-454q0 -10 -10 -10zM426 620h-24q-10 0 -10 10v40q0 10 10 10h24q10 0 10 -10v-40q0 -10 -10 -10zM136 0h-10q-10 0 -10 10v430q0 6 -6 6h-58q-10 0 -10 10v8q0 10 10 10h58q6 0 6 6v61q0 85 25 112t97 27h21 q10 0 10 -10v-8q0 -10 -10 -10h-17q-61 0 -78.5 -18.5t-17.5 -82.5v-71q0 -6 6 -6h107q10 0 10 -10v-8q0 -10 -10 -10h-107q-6 0 -6 -6v-430q0 -10 -10 -10z"/>
<glyph glyph-name="fl" unicode="fl" horiz-adv-x="548" d="M498 -2h-15q-46 0 -65.5 23t-19.5 76v573q0 10 10 10h10q10 0 10 -10v-573q0 -40 12.5 -55.5t42.5 -15.5h15q10 0 10 -10v-8q0 -10 -10 -10zM136 0h-10q-10 0 -10 10v430q0 6 -6 6h-58q-10 0 -10 10v8q0 10 10 10h58q6 0 6 6v61q0 85 25 112t97 27h21q10 0 10 -10v-8 q0 -10 -10 -10h-17q-61 0 -78.5 -18.5t-17.5 -82.5v-71q0 -6 6 -6h107q10 0 10 -10v-8q0 -10 -10 -10h-107q-6 0 -6 -6v-430q0 -10 -10 -10z"/>
<glyph glyph-name="f_f_i" unicode="ffi" horiz-adv-x="828" d="M718 0h-10q-10 0 -10 10v454q0 10 10 10h10q10 0 10 -10v-454q0 -10 -10 -10zM725 620h-24q-10 0 -10 10v40q0 10 10 10h24q10 0 10 -10v-40q0 -10 -10 -10zM435 0h-10q-10 0 -10 10v430q0 6 -6 6h-58q-10 0 -10 10v8q0 10 10 10h58q6 0 6 6v61q0 85 25 112t97 27h21 q10 0 10 -10v-8q0 -10 -10 -10h-17q-61 0 -78.5 -18.5t-17.5 -82.5v-71q0 -6 6 -6h107q10 0 10 -10v-8q0 -10 -10 -10h-107q-6 0 -6 -6v-430q0 -10 -10 -10zM136 0h-10q-10 0 -10 10v430q0 6 -6 6h-58q-10 0 -10 10v8q0 10 10 10h58q6 0 6 6v61q0 85 25 112t97 27h21 q10 0 10 -10v-8q0 -10 -10 -10h-17q-61 0 -78.5 -18.5t-17.5 -82.5v-71q0 -6 6 -6h107q10 0 10 -10v-8q0 -10 -10 -10h-107q-6 0 -6 -6v-430q0 -10 -10 -10z"/>
<glyph glyph-name="f_f_l" unicode="ffl" horiz-adv-x="847" d="M797 -2h-15q-46 0 -65.5 23t-19.5 76v573q0 10 10 10h10q10 0 10 -10v-573q0 -40 12.5 -55.5t42.5 -15.5h15q10 0 10 -10v-8q0 -10 -10 -10zM435 0h-10q-10 0 -10 10v430q0 6 -6 6h-58q-10 0 -10 10v8q0 10 10 10h58q6 0 6 6v61q0 85 25 112t97 27h21q10 0 10 -10v-8 q0 -10 -10 -10h-17q-61 0 -78.5 -18.5t-17.5 -82.5v-71q0 -6 6 -6h107q10 0 10 -10v-8q0 -10 -10 -10h-107q-6 0 -6 -6v-430q0 -10 -10 -10zM136 0h-10q-10 0 -10 10v430q0 6 -6 6h-58q-10 0 -10 10v8q0 10 10 10h58q6 0 6 6v61q0 85 25 112t97 27h21q10 0 10 -10v-8 q0 -10 -10 -10h-17q-61 0 -78.5 -18.5t-17.5 -82.5v-71q0 -6 6 -6h107q10 0 10 -10v-8q0 -10 -10 -10h-107q-6 0 -6 -6v-430q0 -10 -10 -10z"/>
<glyph glyph-name=".notdef" horiz-adv-x="464" d="M205 123v28q0 10 10 10h19q10 0 10 -10v-28q0 -10 -10 -10h-19q-10 0 -10 10zM221 217q-10 0 -10 10v25q0 43 24 72l31 37q27 32 35 50.5t8 43.5q0 37 -23 58.5t-59 21.5q-70 0 -87 -77q-2 -9 -12 -8l-7 1q-10 2 -8 11q8 44 39 71.5t75 27.5q50 0 80 -30t30 -76 q0 -31 -10 -53t-34 -51l-31 -37q-15 -19 -19 -30t-4 -32v-25q0 -10 -10 -10h-8zM30 34q0 -6 6 -6h392q6 0 6 6v612q0 6 -6 6h-392q-6 0 -6 -6v-612zM0 10v660q0 10 10 10h444q10 0 10 -10v-660q0 -10 -10 -10h-444q-10 0 -10 10z"/>
<glyph glyph-name=".null" horiz-adv-x="500"/>
<glyph glyph-name="nonmarkingreturn" horiz-adv-x="333"/>
<glyph glyph-name="space" unicode=" " horiz-adv-x="250"/>
<glyph glyph-name="exclam" unicode="!" horiz-adv-x="248" d="M100 10v50q0 10 10 10h28q10 0 10 -10v-50q0 -10 -10 -10h-28q-10 0 -10 10zM121 170q-10 0 -10 10l-2 490q0 10 10 10h12q10 0 10 -10l-2 -490q0 -10 -10 -10h-8z"/>
<glyph glyph-name="quotedbl" unicode='&quot;' horiz-adv-x="300" d="M90 536q-10 0 -10 10v124q0 10 10 10h10q10 0 10 -10v-124q0 -10 -10 -10h-10zM200 536q-10 0 -10 10v124q0 10 10 10h10q10 0 10 -10v-124q0 -10 -10 -10h-10z"/>
<glyph glyph-name="numbersign" unicode="#" d="M161 250h167l27 197h-167zM99 10l29 213h-87q-10 0 -10 10v7q0 10 10 10h90l27 197h-93q-10 0 -10 10v7q0 10 10 10h97l27 196q2 10 11 10h10q11 0 9 -10l-27 -196h167l27 196q2 10 11 10h10q11 0 9 -10l-27 -196h92q10 0 10 -10v-7q0 -10 -10 -10h-96l-27 -197h99 q10 0 10 -10v-7q0 -10 -10 -10h-102l-29 -213q-2 -10 -11 -10h-10q-11 0 -9 10l29 213h-167l-29 -213q-2 -10 -11 -10h-10q-11 0 -9 10z"/>
<glyph glyph-name="dollar" unicode="$" d="M275 18q69 5 109 47t40 113q0 65 -34 101t-115 48v-309zM247 360v301q-65 -4 -103 -45t-38 -106q0 -128 141 -150zM62 44q-9 6 -1 14l7 8q5 6 14 1q75 -46 165 -49v313q-171 25 -171 176q0 81 46.5 129t124.5 53v52q0 10 10 10h8q10 0 10 -10v-51q78 -4 143 -42 q9 -5 3 -14l-5 -7q-6 -7 -14 -2q-69 34 -127 37v-306q94 -14 136.5 -58t42.5 -117q0 -81 -46.5 -132t-132.5 -58v-52q0 -10 -10 -10h-8q-10 0 -10 10v51q-103 1 -185 54z"/>
<glyph glyph-name="percent" unicode="%" horiz-adv-x="786" d="M502 68q16 -50 74 -50t74 50q8 24 8 103t-8 103q-16 50 -74 50t-74 -50q-8 -24 -8 -103t8 -103zM474 63q-8 26 -8 108t8 108q22 71 102 71t102 -71q8 -26 8 -108t-8 -108q-22 -71 -102 -71t-102 71zM210 356q58 0 74 50q8 24 8 103t-8 103q-16 50 -74 50t-74 -50 q-8 -24 -8 -103t8 -103q16 -50 74 -50zM210 330q-80 0 -102 71q-8 26 -8 108t8 108q22 71 102 71t102 -71q8 -26 8 -108t-8 -108q-22 -71 -102 -71zM180 0l393 680q6 10 14 10h10q11 0 6 -10l-393 -680q-6 -10 -14 -10h-10q-11 0 -6 10z"/>
<glyph glyph-name="ampersand" unicode="&amp;" horiz-adv-x="606" d="M113 157q0 -63 36 -101t99 -38q48 0 87 24.5t86 80.5l-176 234q-66 -54 -99 -100.5t-33 -99.5zM251 398q71 59 93 93t22 71q0 44 -29 72t-75 28t-75 -28t-29 -72q0 -26 17 -55.5t76 -108.5zM83 157q0 58 36.5 111t108.5 112q-60 78 -80 113.5t-20 68.5q0 56 37.5 92 t96.5 36t96.5 -36t37.5 -92q0 -45 -27 -85.5t-101 -101.5l172 -227l73 94q6 8 14 2l6 -4q9 -6 2 -14l-78 -101l57 -75q17 -22 37 -22h16q10 0 10 -10v-8q0 -10 -10 -10h-17q-21 0 -33.5 7t-27.5 26l-51 67q-48 -57 -92.5 -83.5t-97.5 -26.5q-75 0 -120 46t-45 121z"/>
<glyph glyph-name="quotesingle" unicode="&apos;" horiz-adv-x="190" d="M90 536q-10 0 -10 10v124q0 10 10 10h10q10 0 10 -10v-124q0 -10 -10 -10h-10z"/>
<glyph glyph-name="parenleft" unicode="(" horiz-adv-x="269" d="M188 -74q-103 190 -103 402t103 402q5 10 13 10h9q12 0 7 -10q-102 -194 -102 -402t102 -402q5 -10 -7 -10h-9q-8 0 -13 10z"/>
<glyph glyph-name="parenright" unicode=")" horiz-adv-x="269" d="M52 -74q102 194 102 402t-102 402q-5 10 7 10h9q8 0 13 -10q103 -190 103 -402t-103 -402q-5 -10 -13 -10h-9q-12 0 -7 10z"/>
<glyph glyph-name="asterisk" unicode="*" horiz-adv-x="356" d="M175 406q-10 0 -10 10v104l-90 -51q-9 -6 -14 3l-3 5q-6 9 4 14l89 52l-89 52q-10 5 -4 14l3 5q5 9 14 3l90 -52v105q0 10 10 10h6q10 0 10 -10v-105l90 52q9 6 14 -3l3 -5q6 -9 -4 -14l-90 -52l90 -52q10 -5 4 -14l-3 -5q-5 -9 -14 -3l-90 51v-104q0 -10 -10 -10h-6z "/>
<glyph glyph-name="plus" unicode="+" d="M246 94v162q0 6 -6 6h-161q-10 0 -10 10v8q0 10 10 10h161q6 0 6 6v162q0 10 10 10h10q10 0 10 -10v-162q0 -6 6 -6h161q10 0 10 -10v-8q0 -10 -10 -10h-161q-6 0 -6 -6v-162q0 -10 -10 -10h-10q-10 0 -10 10z"/>
<glyph glyph-name="comma" unicode="," horiz-adv-x="198" d="M78 60q0 10 10 10h22q10 0 10 -10v-58q0 -11 -4 -23l-21 -73q-3 -8 -10 -8t-7 8v154z"/>
<glyph glyph-name="hyphen" unicode="-" horiz-adv-x="368" d="M60 253q-10 0 -10 10v8q0 10 10 10h248q10 0 10 -10v-8q0 -10 -10 -10h-248z"/>
<glyph glyph-name="period" unicode="." horiz-adv-x="204" d="M78 10v50q0 10 10 10h28q10 0 10 -10v-50q0 -10 -10 -10h-28q-10 0 -10 10z"/>
<glyph glyph-name="slash" unicode="/" horiz-adv-x="399" d="M74 0l221 680q3 10 13 10h10q10 0 7 -10l-221 -680q-3 -10 -13 -10h-10q-10 0 -7 10z"/>
<glyph glyph-name="zero" unicode="0" d="M124 114q32 -96 137 -96t137 96q16 50 16 226t-16 226q-32 96 -137 96t-137 -96q-16 -50 -16 -226t16 -226zM95 107q-17 53 -17 233t17 233q38 117 166 117t166 -117q17 -53 17 -233t-17 -233q-38 -117 -166 -117t-166 117z"/>
<glyph glyph-name="one" unicode="1" d="M272 10v629h-2l-131 -95q-4 -3 -7.5 -1.5t-3.5 7.5v12q0 9 7 15l133 97q7 6 14 6h10q10 0 10 -10v-660q0 -10 -10 -10h-10q-10 0 -10 10z"/>
<glyph glyph-name="two" unicode="2" d="M87 10v2q0 7 4 12l256 344q59 80 59 148q0 65 -40.5 105.5t-104.5 40.5q-61 0 -98.5 -35.5t-47.5 -98.5q-2 -10 -13 -7l-7 2q-9 3 -8 11q10 67 56 111.5t118 44.5q77 0 126 -48.5t49 -125.5q0 -75 -70 -170l-236 -317v-1h296q10 0 10 -10v-8q0 -10 -10 -10h-329 q-10 0 -10 10z"/>
<glyph glyph-name="three" unicode="3" d="M75 128q-3 9 7 12l9 2q10 3 13 -7q13 -48 50.5 -82.5t105.5 -34.5q70 0 112 45t42 117q0 70 -43 116t-112 46h-31q-10 0 -10 10v8q0 10 10 10h31q63 0 102.5 41t39.5 106t-39 105t-106 40q-62 0 -98 -32.5t-45 -79.5q-2 -10 -11 -8l-10 2q-10 2 -8 12q9 54 54 94t118 40 q78 0 126.5 -48.5t48.5 -124.5q0 -111 -98 -159v-2q44 -18 77.5 -62.5t33.5 -113.5q0 -83 -51 -136.5t-133 -53.5q-80 0 -125.5 41.5t-59.5 96.5z"/>
<glyph glyph-name="four" unicode="4" d="M71 152q-10 0 -10 10v6q0 4 2 10l222 494q4 8 13 8h12q10 0 6 -9l-219 -490v-1h233q6 0 6 6v194q0 10 10 10h10q10 0 10 -10v-194q0 -6 6 -6h85q10 0 10 -10v-8q0 -10 -10 -10h-85q-6 0 -6 -6v-136q0 -10 -10 -10h-10q-10 0 -10 10v136q0 6 -6 6h-259z"/>
<glyph glyph-name="five" unicode="5" d="M101 136q-2 11 7 12l9 2q11 3 13 -8q7 -56 45 -90t102 -34q47 0 81.5 23t49.5 66q12 36 12 110q0 68 -14 112q-27 87 -126 87q-52 0 -88.5 -28.5t-47.5 -70.5q-3 -10 -10 -10h-10q-10 0 -10 10v353q0 10 10 10h303q10 0 10 -10v-8q0 -10 -10 -10h-277q-6 0 -6 -6v-276h1 q15 30 51 52t84 22q120 0 154 -105q16 -50 16 -122q0 -75 -14 -117q-17 -53 -58.5 -81.5t-100.5 -28.5q-76 0 -122 41t-54 105z"/>
<glyph glyph-name="six" unicode="6" d="M100 193q0 -77 45 -126t116 -49t116 49t45 126t-45 126t-116 49t-116 -49t-45 -126zM70 193q0 66 44 152l165 327q4 8 13 8h12q10 0 6 -9l-154 -306l2 -1q34 32 103 32q85 0 138 -56t53 -147t-53 -147t-138 -56t-138 56t-53 147z"/>
<glyph glyph-name="seven" unicode="7" d="M165 11l252 638v3h-281q-6 0 -6 -6v-101q0 -10 -10 -10h-10q-10 0 -10 10v125q0 10 10 10h329q10 0 10 -10v-14q0 -4 -2 -10l-252 -637q-4 -9 -13 -9h-12q-10 0 -5 11z"/>
<glyph glyph-name="eight" unicode="8" d="M99 181q0 -70 45.5 -116.5t116.5 -46.5t116.5 46.5t45.5 116.5t-45 116.5t-117 46.5t-117 -46.5t-45 -116.5zM261 372q64 0 103.5 41t39.5 104q0 64 -39.5 104.5t-103.5 40.5t-103.5 -40.5t-39.5 -104.5q0 -63 39.5 -104t103.5 -41zM69 181q0 63 32 109.5t86 67.5v2 q-46 21 -72.5 61.5t-26.5 95.5q0 76 48.5 124.5t124.5 48.5t124.5 -48.5t48.5 -124.5q0 -55 -26.5 -95.5t-72.5 -61.5v-2q54 -21 86 -67.5t32 -109.5q0 -84 -54 -137.5t-138 -53.5t-138 53.5t-54 137.5z"/>
<glyph glyph-name="nine" unicode="9" d="M261 312q71 0 116 49t45 126t-45 126t-116 49t-116 -49t-45 -126t45 -126t116 -49zM212 9l154 306l-2 1q-34 -32 -103 -32q-85 0 -138 56t-53 147t53 147t138 56t138 -56t53 -147q0 -66 -44 -152l-165 -327q-4 -8 -13 -8h-12q-10 0 -6 9z"/>
<glyph glyph-name="colon" unicode=":" horiz-adv-x="212" d="M82 10v50q0 10 10 10h28q10 0 10 -10v-50q0 -10 -10 -10h-28q-10 0 -10 10zM92 404q-10 0 -10 10v50q0 10 10 10h28q10 0 10 -10v-50q0 -10 -10 -10h-28z"/>
<glyph glyph-name="semicolon" unicode=";" horiz-adv-x="212" d="M85 60q0 10 10 10h22q10 0 10 -10v-58q0 -11 -4 -23l-21 -73q-3 -8 -10 -8t-7 8v154zM92 404q-10 0 -10 10v50q0 10 10 10h28q10 0 10 -10v-50q0 -10 -10 -10h-28z"/>
<glyph glyph-name="less" unicode="&lt;" d="M79 261q-10 4 -10 12v6q0 8 10 12l364 147q10 3 10 -7v-8q0 -9 -10 -13l-329 -133v-2l329 -133q10 -4 10 -13v-8q0 -10 -10 -7z"/>
<glyph glyph-name="equal" unicode="=" d="M79 166q-10 0 -10 10v8q0 10 10 10h364q10 0 10 -10v-8q0 -10 -10 -10h-364zM79 358q-10 0 -10 10v8q0 10 10 10h364q10 0 10 -10v-8q0 -10 -10 -10h-364z"/>
<glyph glyph-name="greater" unicode="&gt;" d="M79 114q-10 -3 -10 7v8q0 9 10 13l329 133v2l-329 133q-10 4 -10 13v8q0 10 10 7l364 -147q10 -4 10 -12v-6q0 -8 -10 -12z"/>
<glyph glyph-name="question" unicode="?" horiz-adv-x="439" d="M194 10v50q0 10 10 10h28q10 0 10 -10v-50q0 -10 -10 -10h-28q-10 0 -10 10zM203 176v38q0 60 35 104l45 56q44 54 58 85.5t14 69.5q0 63 -38 98t-97 35q-56 0 -92.5 -33.5t-47.5 -94.5q-2 -9 -12 -8l-9 2q-10 2 -8 11q10 67 55 109t114 42q74 0 119.5 -45t45.5 -116 q0 -43 -15 -76.5t-54 -81.5l-45 -56q-24 -30 -31 -49t-7 -52v-38q0 -10 -10 -10h-10q-10 0 -10 10z"/>
<glyph glyph-name="at" unicode="@" horiz-adv-x="881" d="M320 164q26 -79 114 -79t114 79q12 36 12 97t-12 97q-26 79 -114 79t-114 -79q-12 -36 -12 -97t12 -97zM51 267q0 174 109.5 283.5t282.5 109.5t282.5 -109.5t109.5 -283.5q0 -107 -40.5 -158.5t-107.5 -51.5q-41 0 -72.5 23t-43.5 62h-1q-37 -85 -140 -85 q-107 0 -139 100q-13 42 -13 104t13 104q32 100 139 100q91 0 128 -62h2v43q0 10 10 10h10q10 0 10 -10v-244q0 -57 29 -87t70 -30q51 0 83.5 43t32.5 139q0 163 -100.5 264t-261.5 101t-261.5 -101t-100.5 -264q0 -165 100 -266t262 -101q133 0 220 49q8 5 13 -4l4 -7 q5 -8 -4 -13q-93 -53 -233 -53q-173 0 -282.5 109.5t-109.5 285.5z"/>
<glyph glyph-name="A" unicode="A" horiz-adv-x="587" d="M147 224h292l-144 403h-2zM37 10l240 660q3 10 11 10h13q8 0 11 -10l238 -660q3 -10 -7 -10h-14q-9 0 -13 10l-66 185h-313l-67 -185q-4 -10 -13 -10h-13q-10 0 -7 10z"/>
<glyph glyph-name="B" unicode="B" horiz-adv-x="599" d="M133 35q0 -6 6 -6h195q82 0 124.5 40t42.5 111t-43 111.5t-124 40.5h-195q-6 0 -6 -6v-291zM139 361h191q77 0 118.5 39.5t41.5 105.5q0 68 -41 106.5t-119 38.5h-191q-6 0 -6 -6v-278q0 -6 6 -6zM102 10v660q0 10 10 10h218q91 0 141 -46.5t50 -127.5q0 -63 -31 -103.5 t-85 -53.5v-2q48 -6 87.5 -49.5t39.5 -117.5q0 -82 -52 -131t-146 -49h-222q-10 0 -10 10z"/>
<glyph glyph-name="C" unicode="C" horiz-adv-x="548" d="M88 135q-18 54 -18 205t18 205q47 145 205 145q137 0 194 -116q5 -9 -2 -13l-10 -5q-8 -5 -13 4q-55 101 -169 101q-134 0 -175 -124q-17 -51 -17 -197t17 -197q41 -124 175 -124q114 0 169 101q5 9 13 4l10 -5q7 -4 2 -13q-57 -116 -194 -116q-158 0 -205 145z"/>
<glyph glyph-name="D" unicode="D" horiz-adv-x="622" d="M133 35q0 -6 6 -6h173q147 0 183 110q18 55 18 201t-18 201q-36 110 -183 110h-173q-6 0 -6 -6v-610zM102 10v660q0 10 10 10h200q170 0 213 -132q19 -58 19 -208t-19 -208q-43 -132 -213 -132h-200q-10 0 -10 10z"/>
<glyph glyph-name="E" unicode="E" horiz-adv-x="550" d="M102 10v660q0 10 10 10h374q10 0 10 -10v-9q0 -10 -10 -10h-347q-6 0 -6 -6v-279q0 -6 6 -6h300q10 0 10 -10v-9q0 -10 -10 -10h-300q-6 0 -6 -6v-290q0 -6 6 -6h347q10 0 10 -10v-9q0 -10 -10 -10h-374q-10 0 -10 10z"/>
<glyph glyph-name="F" unicode="F" horiz-adv-x="546" d="M102 10v660q0 10 10 10h374q10 0 10 -10v-9q0 -10 -10 -10h-347q-6 0 -6 -6v-286q0 -6 6 -6h300q10 0 10 -10v-9q0 -10 -10 -10h-300q-6 0 -6 -6v-308q0 -10 -10 -10h-11q-10 0 -10 10z"/>
<glyph glyph-name="G" unicode="G" horiz-adv-x="602" d="M89 138q-19 57 -19 202t19 202q48 148 212 148q145 0 202 -115q6 -11 -2 -15l-9 -5q-9 -4 -13 3q-56 103 -178 103q-140 0 -182 -127q-18 -54 -18 -194t18 -194q42 -127 182 -127t182 127q18 54 18 151q0 6 -6 6h-173q-10 0 -10 10v9q0 10 10 10h200q10 0 10 -10v-32 q0 -95 -19 -152q-48 -148 -212 -148t-212 148z"/>
<glyph glyph-name="H" unicode="H" horiz-adv-x="647" d="M102 10v660q0 10 10 10h11q10 0 10 -10v-304q0 -6 6 -6h369q6 0 6 6v304q0 10 10 10h11q10 0 10 -10v-660q0 -10 -10 -10h-11q-10 0 -10 10v315q0 6 -6 6h-369q-6 0 -6 -6v-315q0 -10 -10 -10h-11q-10 0 -10 10z"/>
<glyph glyph-name="I" unicode="I" horiz-adv-x="235" d="M102 10v660q0 10 10 10h11q10 0 10 -10v-660q0 -10 -10 -10h-11q-10 0 -10 10z"/>
<glyph glyph-name="J" unicode="J" horiz-adv-x="460" d="M47 34q-8 5 -3 14l8 9q6 6 15 1q53 -39 114 -39q153 0 153 173v478q0 10 10 10h11q10 0 10 -10v-479q0 -102 -48.5 -151.5t-135.5 -49.5q-76 0 -134 44z"/>
<glyph glyph-name="K" unicode="K" horiz-adv-x="582" d="M102 10v660q0 10 10 10h11q10 0 10 -10v-421l353 421q9 10 17 10h18q5 0 6.5 -3t-1.5 -7l-217 -258l231 -402q6 -10 -5 -10h-17q-8 0 -14 10l-217 377l-154 -184v-193q0 -10 -10 -10h-11q-10 0 -10 10z"/>
<glyph glyph-name="L" unicode="L" horiz-adv-x="524" d="M102 10v660q0 10 10 10h11q10 0 10 -10v-635q0 -6 6 -6h347q10 0 10 -10v-9q0 -10 -10 -10h-374q-10 0 -10 10z"/>
<glyph glyph-name="M" unicode="M" horiz-adv-x="754" d="M102 10v660q0 10 10 10h14q9 0 13 -10l237 -522h3l236 522q4 10 13 10h14q10 0 10 -10v-660q0 -10 -10 -10h-11q-10 0 -10 10v590h-3l-222 -486q-5 -10 -17 -10h-4q-12 0 -17 10l-222 486h-3v-590q0 -10 -10 -10h-11q-10 0 -10 10z"/>
<glyph glyph-name="N" unicode="N" horiz-adv-x="648" d="M102 10v660q0 10 10 10h9q11 0 17 -10l374 -603h3v603q0 10 10 10h11q10 0 10 -10v-660q0 -10 -10 -10h-9q-11 0 -17 10l-374 603h-3v-603q0 -10 -10 -10h-11q-10 0 -10 10z"/>
<glyph glyph-name="O" unicode="O" horiz-adv-x="602" d="M301 19q139 0 181 127q19 57 19 194t-19 194q-42 127 -181 127t-181 -127q-19 -57 -19 -194t19 -194q42 -127 181 -127zM301 -10q-163 0 -211 148q-20 60 -20 202t20 202q48 148 211 148t211 -148q20 -60 20 -202t-20 -202q-48 -148 -211 -148z"/>
<glyph glyph-name="P" unicode="P" horiz-adv-x="579" d="M327 341q84 0 128 40t44 115t-44 115t-128 40h-188q-6 0 -6 -6v-298q0 -6 6 -6h188zM123 0h-11q-10 0 -10 10v660q0 10 10 10h215q96 0 149.5 -48.5t53.5 -135.5t-53.5 -135.5t-149.5 -48.5h-188q-6 0 -6 -6v-296q0 -10 -10 -10z"/>
<glyph glyph-name="Q" unicode="Q" horiz-adv-x="602" d="M301 19q86 0 134 49l-84 94q-6 8 0 14l7 6q7 6 14 -1l82 -92q18 27 28 57q19 57 19 194t-19 194q-42 127 -181 127t-181 -127q-19 -57 -19 -194t19 -194q42 -127 181 -127zM542 -23l-7 -6q-8 -6 -14 1l-65 73q-56 -55 -155 -55q-163 0 -211 148q-20 60 -20 202t20 202 q48 148 211 148t211 -148q20 -60 20 -202t-20 -202q-13 -40 -37 -72l67 -75q6 -8 0 -14z"/>
<glyph glyph-name="R" unicode="R" horiz-adv-x="613" d="M325 347q85 0 128.5 39t43.5 113t-43.5 113t-128.5 39h-186q-6 0 -6 -6v-292q0 -6 6 -6h186zM530 0h-17q-8 0 -12 9l-149 310q-9 -1 -27 -1h-186q-6 0 -6 -6v-302q0 -10 -10 -10h-11q-10 0 -10 10v660q0 10 10 10h213q97 0 150 -47.5t53 -133.5q0 -72 -37.5 -117 t-107.5 -59l152 -313q6 -10 -5 -10z"/>
<glyph glyph-name="S" unicode="S" horiz-adv-x="600" d="M291 -10q-60 0 -119.5 22t-94.5 52q-7 8 -1 14l8 9q6 7 14 1q88 -69 199 -69q90 0 142.5 43t52.5 116q0 62 -39.5 99.5t-137.5 50.5l-30 4q-192 26 -192 173q0 86 55.5 135.5t150.5 49.5q107 0 183 -52q9 -5 2 -14l-7 -9q-6 -7 -14 -2q-81 48 -166 48q-81 0 -127 -42 t-46 -111q0 -63 41.5 -100t136.5 -49l30 -4q191 -25 191 -174q0 -87 -60 -139t-172 -52z"/>
<glyph glyph-name="T" unicode="T" horiz-adv-x="513" d="M262 0h-11q-10 0 -10 10v635q0 6 -6 6h-203q-10 0 -10 10v9q0 10 10 10h449q10 0 10 -10v-9q0 -10 -10 -10h-203q-6 0 -6 -6v-635q0 -10 -10 -10z"/>
<glyph glyph-name="U" unicode="U" horiz-adv-x="632" d="M316 -10q-222 0 -222 243v437q0 10 10 10h11q10 0 10 -10v-438q0 -106 49 -159.5t142 -53.5q191 0 191 213v438q0 10 10 10h11q10 0 10 -10v-437q0 -121 -57 -182t-165 -61z"/>
<glyph glyph-name="V" unicode="V" horiz-adv-x="557" d="M286 0h-13q-8 0 -11 10l-230 654q-6 16 7 16h9q11 0 15 -10l217 -622h1l212 622q4 10 15 10h10q13 0 7 -16l-228 -654q-3 -10 -11 -10z"/>
<glyph glyph-name="W" unicode="W" horiz-adv-x="813" d="M604 0h-14q-8 0 -11 10l-171 604h-2l-172 -604q-3 -10 -11 -10h-14q-9 0 -11 10l-159 659q-3 11 8 11h11q12 0 14 -10l145 -611h2l169 611q3 10 12 10h13q9 0 12 -10l171 -611h2l143 611q3 10 14 10h11q11 0 8 -11l-159 -659q-2 -10 -11 -10z"/>
<glyph glyph-name="X" unicode="X" horiz-adv-x="533" d="M488 0h-18q-7 0 -12 8l-191 322h-1l-192 -322q-5 -8 -12 -8h-17q-11 0 -5 10l209 349l-186 311q-6 10 5 10h18q7 0 12 -8l168 -284h1l169 284q5 8 12 8h17q11 0 5 -10l-186 -311l209 -349q6 -10 -5 -10z"/>
<glyph glyph-name="Y" unicode="Y" horiz-adv-x="506" d="M259 0h-11q-10 0 -10 10v269l-207 389q-2 4 0 8t7 4h12q10 0 15 -10l189 -352h2l185 352q5 10 15 10h12q5 0 7 -4t0 -8l-206 -389v-269q0 -10 -10 -10z"/>
<glyph glyph-name="Z" unicode="Z" horiz-adv-x="543" d="M475 0h-408q-10 0 -10 10v9q0 6 6 15l383 616v1h-365q-10 0 -10 10v9q0 10 10 10h394q10 0 10 -10v-9q0 -7 -5 -14l-384 -617v-1h379q10 0 10 -10v-9q0 -10 -10 -10z"/>
<glyph glyph-name="bracketleft" unicode="[" horiz-adv-x="284" d="M224 -84h-98q-10 0 -10 10v804q0 10 10 10h98q10 0 10 -10v-8q0 -10 -10 -10h-72q-6 0 -6 -6v-756q0 -6 6 -6h72q10 0 10 -10v-8q0 -10 -10 -10z"/>
<glyph glyph-name="backslash" unicode="\" horiz-adv-x="399" d="M318 -10h-10q-10 0 -13 10l-221 680q-3 10 7 10h10q10 0 13 -10l221 -680q3 -10 -7 -10z"/>
<glyph glyph-name="bracketright" unicode="]" horiz-adv-x="284" d="M158 -84h-98q-10 0 -10 10v8q0 10 10 10h72q6 0 6 6v756q0 6 -6 6h-72q-10 0 -10 10v8q0 10 10 10h98q10 0 10 -10v-804q0 -10 -10 -10z"/>
<glyph glyph-name="asciicircum" unicode="^" d="M444 292h-9q-9 0 -13 10l-160 342h-2l-160 -342q-4 -10 -13 -10h-9q-12 0 -7 10l172 368q5 10 14 10h8q9 0 14 -10l172 -368q5 -10 -7 -10z"/>
<glyph glyph-name="underscore" unicode="_" horiz-adv-x="445" d="M445 -116h-445v28h445v-28z"/>
<glyph glyph-name="grave" unicode="`" horiz-adv-x="420" d="M262 560h-7q-9 0 -17 10l-85 120q-3 4 -1.5 7t6.5 3h15q10 0 16 -10l78 -120q7 -10 -5 -10z"/>
<glyph glyph-name="a" unicode="a" horiz-adv-x="509" d="M235 18q66 0 108 34.5t42 87.5v90q0 6 -6 6h-129q-77 0 -112.5 -26.5t-35.5 -81.5q0 -53 34.5 -81.5t98.5 -28.5zM405 0h-10q-10 0 -10 10v57h-1q-13 -34 -53 -55.5t-100 -21.5q-75 0 -117 36t-42 102q0 136 176 136h131q6 0 6 6v61q0 69 -28 97t-104 28q-84 0 -124 -38 q-7 -7 -14 -2l-7 6q-8 7 -1 14q46 48 146 48q87 0 124.5 -33.5t37.5 -119.5v-321q0 -10 -10 -10z"/>
<glyph glyph-name="b" unicode="b" horiz-adv-x="525" d="M280 18q104 0 135 95q15 46 15 124t-15 124q-31 95 -135 95q-106 0 -137 -95q-13 -40 -13 -124t13 -124q31 -95 137 -95zM282 -10q-111 0 -151 89h-1v-69q0 -10 -10 -10h-10q-10 0 -10 10v660q0 10 10 10h10q10 0 10 -10v-275h1q40 89 151 89q125 0 161 -113 q17 -52 17 -134t-17 -134q-36 -113 -161 -113z"/>
<glyph glyph-name="c" unicode="c" horiz-adv-x="468" d="M249 -10q-62 0 -106 31.5t-62 88.5q-16 52 -16 127t16 127q18 57 62 88.5t106 31.5q111 0 157 -96q5 -9 -5 -14l-7 -3q-9 -3 -13 4q-41 81 -132 81q-107 0 -139 -103q-15 -45 -15 -116t15 -116q32 -103 139 -103q91 0 132 81q4 7 13 4l7 -3q10 -5 5 -14q-46 -96 -157 -96 z"/>
<glyph glyph-name="d" unicode="d" horiz-adv-x="525" d="M245 18q106 0 137 95q13 40 13 124t-13 124q-31 95 -137 95q-104 0 -135 -95q-15 -46 -15 -124t15 -124q31 -95 135 -95zM415 0h-10q-10 0 -10 10v69h-1q-40 -89 -151 -89q-125 0 -161 113q-17 52 -17 134t17 134q36 113 161 113q111 0 151 -89h1v275q0 10 10 10h10 q10 0 10 -10v-660q0 -10 -10 -10z"/>
<glyph glyph-name="e" unicode="e" horiz-adv-x="494" d="M101 264h292q6 0 6 6q0 47 -11 83q-33 103 -141 103t-141 -103q-11 -36 -11 -83q0 -6 6 -6zM253 -10q-135 0 -174 122q-14 44 -14 126q0 84 14 126q19 59 63 89.5t105 30.5q129 0 168 -120q14 -42 14 -118q0 -10 -11 -10h-317q-6 0 -6 -7q0 -68 12 -107q35 -104 146 -104 q93 0 143 69q6 8 14 2l6 -5q7 -6 1 -14q-56 -80 -164 -80z"/>
<glyph glyph-name="f" unicode="f" horiz-adv-x="299" d="M136 0h-10q-10 0 -10 10v430q0 6 -6 6h-58q-10 0 -10 10v8q0 10 10 10h58q6 0 6 6v61q0 85 25 112t97 27h21q10 0 10 -10v-8q0 -10 -10 -10h-17q-61 0 -78.5 -18.5t-17.5 -82.5v-71q0 -6 6 -6h107q10 0 10 -10v-8q0 -10 -10 -10h-107q-6 0 -6 -6v-430q0 -10 -10 -10z"/>
<glyph glyph-name="g" unicode="g" horiz-adv-x="517" d="M241 18q102 0 133 95q13 38 13 124t-13 124q-31 95 -133 95q-99 0 -131 -94q-15 -45 -15 -125t15 -125q32 -94 131 -94zM239 -190q-50 0 -91 19.5t-59 48.5q-6 9 2 14l8 5q8 5 14 -3q43 -56 126 -56q148 0 148 161v80h-1q-39 -89 -148 -89q-120 0 -157 113 q-16 48 -16 134t16 134q37 113 157 113q109 0 148 -89h1v69q0 10 10 10h10q10 0 10 -10v-465q0 -95 -47.5 -142t-130.5 -47z"/>
<glyph glyph-name="h" unicode="h" horiz-adv-x="538" d="M434 0h-10q-10 0 -10 10v284q0 83 -34.5 122.5t-104.5 39.5q-62 0 -103.5 -39.5t-41.5 -107.5v-299q0 -10 -10 -10h-10q-10 0 -10 10v660q0 10 10 10h10q10 0 10 -10v-273h1q18 41 56.5 64t89.5 23q81 0 124 -46t43 -137v-291q0 -10 -10 -10z"/>
<glyph glyph-name="i" unicode="i" horiz-adv-x="230" d="M120 0h-10q-10 0 -10 10v454q0 10 10 10h10q10 0 10 -10v-454q0 -10 -10 -10zM127 620h-24q-10 0 -10 10v40q0 10 10 10h24q10 0 10 -10v-40q0 -10 -10 -10z"/>
<glyph glyph-name="j" unicode="j" horiz-adv-x="230" d="M23 -180h-4q-10 0 -10 10v8q0 10 10 10h4q46 0 61.5 16t15.5 65v535q0 10 10 10h10q10 0 10 -10v-535q0 -63 -23 -86t-84 -23zM127 620h-24q-10 0 -10 10v40q0 10 10 10h24q10 0 10 -10v-40q0 -10 -10 -10z"/>
<glyph glyph-name="k" unicode="k" horiz-adv-x="490" d="M440 0h-13q-9 0 -15 10l-165 269l-117 -140v-129q0 -10 -10 -10h-10q-10 0 -10 10v660q0 10 10 10h10q10 0 10 -10v-488l237 283q8 9 16 9h15q5 0 6.5 -3t-1.5 -7l-136 -162l179 -292q2 -4 0 -7t-6 -3z"/>
<glyph glyph-name="l" unicode="l" horiz-adv-x="249" d="M199 -2h-15q-46 0 -65.5 23t-19.5 76v573q0 10 10 10h10q10 0 10 -10v-573q0 -40 12.5 -55.5t42.5 -15.5h15q10 0 10 -10v-8q0 -10 -10 -10z"/>
<glyph glyph-name="m" unicode="m" horiz-adv-x="852" d="M748 0h-10q-10 0 -10 10v284q0 83 -34.5 122.5t-104.5 39.5q-62 0 -103.5 -39.5t-41.5 -107.5v-299q0 -10 -10 -10h-10q-10 0 -10 10v284q0 83 -34.5 122.5t-104.5 39.5q-62 0 -103.5 -39.5t-41.5 -107.5v-299q0 -10 -10 -10h-10q-10 0 -10 10v454q0 10 10 10h10 q10 0 10 -10v-67h1q18 41 56.5 64t89.5 23q123 0 156 -102h1q39 102 157 102q81 0 124 -46t43 -137v-291q0 -10 -10 -10z"/>
<glyph glyph-name="n" unicode="n" horiz-adv-x="538" d="M434 0h-10q-10 0 -10 10v284q0 83 -34.5 122.5t-104.5 39.5q-62 0 -103.5 -39.5t-41.5 -107.5v-299q0 -10 -10 -10h-10q-10 0 -10 10v454q0 10 10 10h10q10 0 10 -10v-67h1q18 41 56.5 64t89.5 23q81 0 124 -46t43 -137v-291q0 -10 -10 -10z"/>
<glyph glyph-name="o" unicode="o" horiz-adv-x="502" d="M251 18q52 0 89 26.5t53 75.5q14 44 14 117t-14 117q-16 49 -53 75.5t-89 26.5t-89 -26.5t-53 -75.5q-14 -44 -14 -117t14 -117q16 -49 53 -75.5t89 -26.5zM251 -10q-63 0 -107 31.5t-63 88.5q-16 50 -16 127t16 127q19 57 63 88.5t107 31.5t107 -31.5t63 -88.5 q16 -50 16 -127t-16 -127q-19 -57 -63 -88.5t-107 -31.5z"/>
<glyph glyph-name="p" unicode="p" horiz-adv-x="525" d="M280 18q104 0 135 95q15 46 15 124t-15 124q-31 95 -135 95q-106 0 -137 -95q-13 -40 -13 -124t13 -124q31 -95 137 -95zM120 -180h-10q-10 0 -10 10v634q0 10 10 10h10q10 0 10 -10v-69h1q40 89 151 89q125 0 161 -113q17 -52 17 -134t-17 -134q-36 -113 -161 -113 q-111 0 -151 89h-1v-249q0 -10 -10 -10z"/>
<glyph glyph-name="q" unicode="q" horiz-adv-x="525" d="M245 18q106 0 137 95q13 40 13 124t-13 124q-31 95 -137 95q-104 0 -135 -95q-15 -46 -15 -124t15 -124q31 -95 135 -95zM415 -180h-10q-10 0 -10 10v249h-1q-40 -89 -151 -89q-125 0 -161 113q-17 52 -17 134t17 134q36 113 161 113q111 0 151 -89h1v69q0 10 10 10h10 q10 0 10 -10v-634q0 -10 -10 -10z"/>
<glyph glyph-name="r" unicode="r" horiz-adv-x="384" d="M120 0h-10q-10 0 -10 10v454q0 10 10 10h10q10 0 10 -10v-71h1q12 41 45 66t84 25q55 0 94 -29q7 -5 2 -13l-6 -8q-6 -7 -15 -2q-39 24 -79 24q-65 0 -95.5 -51.5t-30.5 -129.5v-265q0 -10 -10 -10z"/>
<glyph glyph-name="s" unicode="s" horiz-adv-x="475" d="M239 -10q-99 0 -178 63q-7 7 0 14l7 7q6 6 14 0q73 -56 162 -56q68 0 103.5 29.5t35.5 79.5q0 46 -25.5 69t-96.5 31l-47 5q-134 14 -134 119q0 63 42.5 98t117.5 35q79 0 148 -40q9 -5 2 -14l-4 -6q-5 -8 -14 -3q-70 35 -135 35q-62 0 -94.5 -27t-32.5 -75 q0 -43 28.5 -65.5t94.5 -29.5l47 -5q133 -13 133 -122q0 -67 -45 -104.5t-129 -37.5z"/>
<glyph glyph-name="t" unicode="t" horiz-adv-x="306" d="M252 -2h-17q-66 0 -92.5 27t-26.5 97v318q0 6 -6 6h-58q-10 0 -10 10v8q0 10 10 10h58q6 0 6 6v140q0 10 10 10h10q10 0 10 -10v-140q0 -6 6 -6h100q10 0 10 -10v-8q0 -10 -10 -10h-100q-6 0 -6 -6v-316q0 -58 19.5 -78t70.5 -20h16q10 0 10 -10v-8q0 -10 -10 -10z"/>
<glyph glyph-name="u" unicode="u" horiz-adv-x="531" d="M421 0h-10q-10 0 -10 10v67h-1q-17 -41 -55.5 -64t-88.5 -23q-165 0 -165 183v291q0 10 10 10h10q10 0 10 -10v-284q0 -84 33.5 -123t103.5 -39q61 0 102 39.5t41 107.5v299q0 10 10 10h10q10 0 10 -10v-454q0 -10 -10 -10z"/>
<glyph glyph-name="v" unicode="v" horiz-adv-x="460" d="M236 0h-12q-8 0 -11 10l-174 454q-3 10 7 10h12q9 0 13 -10l160 -416h1l157 416q4 10 13 10h12q10 0 7 -10l-174 -454q-3 -10 -11 -10z"/>
<glyph glyph-name="w" unicode="w" horiz-adv-x="728" d="M523 0h-8q-9 0 -12 10l-138 417h-1l-139 -417q-3 -10 -12 -10h-8q-9 0 -12 10l-148 454q-3 10 7 10h10q9 0 13 -10l135 -412h1l136 412q3 10 12 10h10q9 0 12 -10l139 -412h1l132 412q4 10 13 10h10q10 0 7 -10l-148 -454q-3 -10 -12 -10z"/>
<glyph glyph-name="x" unicode="x" horiz-adv-x="449" d="M400 0h-15q-8 0 -13 7l-147 218h-1l-148 -218q-5 -7 -13 -7h-14q-11 0 -5 10l164 240l-146 214q-6 10 5 10h14q8 0 13 -7l130 -192h1l131 192q5 7 13 7h13q11 0 5 -10l-146 -214l164 -240q6 -10 -5 -10z"/>
<glyph glyph-name="y" unicode="y" horiz-adv-x="460" d="M95 -180h-16q-10 0 -10 10v8q0 10 10 10h18q33 0 53.5 20.5t44.5 84.5l20 53l-176 458q-3 10 7 10h12q9 0 13 -10l160 -416h1l157 416q4 10 13 10h12q10 0 7 -10l-199 -519q-29 -76 -56.5 -100.5t-70.5 -24.5z"/>
<glyph glyph-name="z" unicode="z" horiz-adv-x="460" d="M392 0h-322q-10 0 -10 10v8q0 6 6 15l299 412v1h-282q-10 0 -10 10v8q0 10 10 10h309q10 0 10 -10v-8q0 -6 -6 -15l-299 -412v-1h295q10 0 10 -10v-8q0 -10 -10 -10z"/>
<glyph glyph-name="braceleft" unicode="{" horiz-adv-x="306" d="M246 -84h-23q-44 0 -63 22t-19 75v216q0 82 -51 87q-10 2 -10 10v8q0 8 10 10q51 5 51 87v212q0 53 19 75t63 22h23q10 0 10 -10v-8q0 -10 -10 -10h-24q-27 0 -39 -14.5t-12 -48.5v-207q0 -55 -9.5 -78t-33.5 -33v-2q24 -10 33.5 -33t9.5 -78v-211q0 -34 12 -48.5 t39 -14.5h24q10 0 10 -10v-8q0 -10 -10 -10z"/>
<glyph glyph-name="bar" unicode="|" horiz-adv-x="210" d="M110 -84h-10q-10 0 -10 10v804q0 10 10 10h10q10 0 10 -10v-804q0 -10 -10 -10z"/>
<glyph glyph-name="braceright" unicode="}" horiz-adv-x="306" d="M83 -84h-23q-10 0 -10 10v8q0 10 10 10h24q27 0 39 14.5t12 48.5v211q0 55 9.5 78t33.5 33v2q-24 10 -33.5 33t-9.5 78v207q0 34 -12 48.5t-39 14.5h-24q-10 0 -10 10v8q0 10 10 10h23q44 0 63 -22t19 -75v-212q0 -82 51 -87q10 -2 10 -10v-8q0 -8 -10 -10 q-51 -5 -51 -87v-216q0 -53 -19 -75t-63 -22z"/>
<glyph glyph-name="asciitilde" unicode="~" d="M347 224q-42 0 -95 41q-46 34 -78 34q-49 0 -86 -59q-5 -8 -14 -2l-5 3q-8 5 -3 14q39 71 109 71q42 0 95 -41q46 -34 78 -34q49 0 86 59q5 8 14 2l5 -3q8 -5 3 -14q-39 -71 -109 -71z"/>
<glyph glyph-name="uni00A0" unicode=" " horiz-adv-x="250"/>
<glyph glyph-name="exclamdown" unicode="¡" horiz-adv-x="248" d="M148 464v-50q0 -10 -10 -10h-28q-10 0 -10 10v50q0 10 10 10h28q10 0 10 -10zM127 304q10 0 10 -10l2 -490q0 -10 -10 -10h-12q-10 0 -10 10l2 490q0 10 10 10h8z"/>
<glyph glyph-name="cent" unicode="¢" d="M119 237q0 -71 15 -116q29 -93 119 -102v436q-90 -11 -119 -102q-15 -45 -15 -116zM281 567v-83q107 -3 153 -96q5 -9 -5 -14l-7 -3q-9 -3 -13 4q-39 78 -128 81v-438q88 1 128 81q4 7 13 4l7 -3q10 -5 5 -14q-45 -93 -153 -96v-83q0 -10 -10 -10h-8q-10 0 -10 10v84 q-113 11 -148 119q-16 52 -16 127t16 127q35 107 148 118v85q0 10 10 10h8q10 0 10 -10z"/>
<glyph glyph-name="sterling" unicode="£" d="M424 0h-314q-10 0 -10 10v8q0 5 5 10q26 27 34 48t8 59v167q0 6 -6 6h-51q-10 0 -10 10v8q0 10 10 10h51q6 0 6 6v185q0 78 38.5 120.5t102.5 42.5q54 0 89.5 -31.5t48.5 -86.5q2 -9 -7 -12l-9 -3q-10 -3 -12 7q-11 47 -40 72.5t-70 25.5q-51 0 -81 -33t-30 -101v-186 q0 -6 6 -6h143q10 0 10 -10v-8q0 -10 -10 -10h-143q-6 0 -6 -6v-167q0 -69 -37 -106v-1h284q10 0 10 -10v-8q0 -10 -10 -10z"/>
<glyph glyph-name="currency" unicode="¤" d="M261 168q66 0 109.5 44.5t43.5 110.5t-43.5 110.5t-109.5 44.5t-109.5 -44.5t-43.5 -110.5t43.5 -110.5t109.5 -44.5zM468 120l-6 -6q-7 -7 -14 0l-68 67q-50 -41 -119 -41q-70 0 -119 41l-68 -67q-7 -7 -14 0l-6 6q-7 7 0 14l68 67q-44 50 -44 122t44 122l-68 67 q-7 7 0 14l6 6q7 7 14 0l68 -67q49 41 119 41q69 0 119 -41l68 67q7 7 14 0l6 -6q7 -7 0 -14l-68 -67q44 -50 44 -122t-44 -122l68 -67q7 -7 0 -14z"/>
<glyph glyph-name="yen" unicode="¥" d="M266 0h-10q-10 0 -10 10v157q0 6 -6 6h-137q-10 0 -10 10v7q0 10 10 10h137q6 0 6 6v70q0 6 -6 6h-137q-10 0 -10 10v7q0 10 10 10h128v1l-164 356q-7 14 8 14h8q11 0 16 -10l162 -352h2l160 352q5 10 16 10h8q15 0 8 -14l-164 -356v-1h128q10 0 10 -10v-7q0 -10 -10 -10 h-137q-6 0 -6 -6v-70q0 -6 6 -6h137q10 0 10 -10v-7q0 -10 -10 -10h-137q-6 0 -6 -6v-157q0 -10 -10 -10z"/>
<glyph glyph-name="brokenbar" unicode="¦" horiz-adv-x="210" d="M110 -84h-10q-10 0 -10 10v336q0 10 10 10h10q10 0 10 -10v-336q0 -10 -10 -10zM110 388h-10q-10 0 -10 10v332q0 10 10 10h10q10 0 10 -10v-332q0 -10 -10 -10z"/>
<glyph glyph-name="section" unicode="§" d="M261 108q60 0 96.5 38t36.5 107t-36.5 107t-96.5 38t-96.5 -38t-36.5 -107t36.5 -107t96.5 -38zM259 -192q-69 0 -110 38.5t-41 111.5q0 11 8 12l11 2q11 3 11 -7q-1 -69 33 -99t88 -30q55 0 88 29.5t33 87.5q0 53 -34 82.5t-112 43.5q-136 25 -136 174q0 62 29 107.5 t88 58.5v1q-50 22 -72.5 53.5t-22.5 84.5q0 60 40.5 97t102.5 37q65 0 102.5 -38t37.5 -95q0 -11 -8 -12l-10 -2q-11 -3 -11 7q-1 52 -29.5 82t-81.5 30q-52 0 -82.5 -28t-30.5 -78q0 -54 30.5 -84.5t107.5 -46.5q136 -28 136 -174q0 -63 -27.5 -106.5t-83.5 -58.5v-1 q97 -32 97 -134q0 -70 -43 -107.5t-108 -37.5z"/>
<glyph glyph-name="dieresis" unicode="¨" horiz-adv-x="420" d="M122 620h-24q-10 0 -10 10v40q0 10 10 10h24q10 0 10 -10v-40q0 -10 -10 -10zM322 620h-24q-10 0 -10 10v40q0 10 10 10h24q10 0 10 -10v-40q0 -10 -10 -10z"/>
<glyph glyph-name="copyright" unicode="©" horiz-adv-x="832" d="M421 144q-105 0 -137 99q-11 35 -11 97t11 97q32 99 137 99q91 0 131 -78q5 -8 -4 -12l-6 -3q-9 -3 -13 4q-37 63 -108 63q-84 0 -111 -81q-10 -30 -10 -89t10 -89q27 -81 111 -81q71 0 108 63q4 7 13 4l6 -3q9 -4 4 -12q-40 -78 -131 -78zM416 16q138 0 230 92.5 t92 231.5t-92 231.5t-230 92.5t-230 -92.5t-92 -231.5t92 -231.5t230 -92.5zM416 -10q-149 0 -249.5 100.5t-100.5 249.5t100.5 249.5t249.5 100.5t249.5 -100.5t100.5 -249.5t-100.5 -249.5t-249.5 -100.5z"/>
<glyph glyph-name="ordfeminine" unicode="ª" horiz-adv-x="337" d="M157 412q38 0 65 18t27 42v55q0 6 -6 6h-73q-92 0 -92 -60q0 -29 21 -45t58 -16zM267 392h-8q-10 0 -10 10v24h-1q-25 -40 -97 -40q-46 0 -73.5 22.5t-27.5 63.5q0 87 117 87h76q6 0 6 6v27q0 38 -17 53.5t-65 15.5q-49 0 -79 -22q-8 -7 -14 1l-4 5q-6 8 2 14 q33 28 96 28q59 0 84 -21t25 -74v-190q0 -10 -10 -10z"/>
<glyph glyph-name="guillemotleft" unicode="«" horiz-adv-x="498" d="M217 96l-158 161q-7 7 0 14l158 161q3 3 6.5 1.5t3.5 -5.5v-19q0 -10 -6 -16l-122 -125q-4 -4 0 -8l122 -125q6 -6 6 -16v-19q0 -4 -3.5 -5.5t-6.5 1.5zM408 96l-158 161q-7 7 0 14l158 161q3 3 6.5 1.5t3.5 -5.5v-19q0 -10 -6 -16l-122 -125q-4 -4 0 -8l122 -125 q6 -6 6 -16v-19q0 -4 -3.5 -5.5t-6.5 1.5z"/>
<glyph glyph-name="logicalnot" unicode="¬" d="M443 129h-10q-10 0 -10 10v117q0 6 -6 6h-338q-10 0 -10 10v8q0 10 10 10h364q10 0 10 -10v-141q0 -10 -10 -10z"/>
<glyph glyph-name="uni00AD" unicode="­" horiz-adv-x="368" d="M308 253h-248q-10 0 -10 10v8q0 10 10 10h248q10 0 10 -10v-8q0 -10 -10 -10z"/>
<glyph glyph-name="registered" unicode="®" horiz-adv-x="465" d="M249 502q42 0 42 40q0 39 -42 39h-59q-3 0 -3 -2v-75q0 -2 3 -2h59zM178 386h-4q-9 0 -9 9v198q0 9 9 9h75q30 0 47 -17t17 -43q0 -49 -44 -60l43 -86q4 -10 -5 -10h-9q-6 0 -10 7l-44 88h-54q-3 0 -3 -2v-84q0 -9 -9 -9zM232 322q73 0 121.5 49t48.5 122t-48.5 121.5 t-121.5 48.5t-121 -48.5t-48 -121.5q0 -74 48 -122.5t121 -48.5zM232 300q-83 0 -137.5 55t-54.5 138t55 137.5t137 54.5q83 0 138 -54.5t55 -137.5t-55 -138t-138 -55z"/>
<glyph glyph-name="macron" unicode="¯" horiz-adv-x="420" d="M326 634h-232q-10 0 -10 10v8q0 10 10 10h232q10 0 10 -10v-8q0 -10 -10 -10z"/>
<glyph glyph-name="degree" unicode="°" horiz-adv-x="442" d="M221 430q48 0 80 32.5t32 81.5t-31.5 81.5t-80.5 32.5t-80.5 -32.5t-31.5 -81.5t32 -81.5t80 -32.5zM221 403q-61 0 -101 40t-40 101t40 101t101 40t101 -40t40 -101t-40 -101t-101 -40z"/>
<glyph glyph-name="plusminus" unicode="±" d="M443 0h-364q-10 0 -10 10v8q0 10 10 10h364q10 0 10 -10v-8q0 -10 -10 -10zM266 84h-10q-10 0 -10 10v162q0 6 -6 6h-161q-10 0 -10 10v8q0 10 10 10h161q6 0 6 6v162q0 10 10 10h10q10 0 10 -10v-162q0 -6 6 -6h161q10 0 10 -10v-8q0 -10 -10 -10h-161q-6 0 -6 -6v-162 q0 -10 -10 -10z"/>
<glyph glyph-name="twosuperior" unicode="²" horiz-adv-x="324" d="M270 430h-217q-10 0 -10 10v6q0 7 7 14l161 192q37 45 37 84q0 35 -23 57.5t-59 22.5q-34 0 -56 -18.5t-30 -50.5q-2 -10 -12 -8l-6 1q-10 2 -9 12q8 39 38 64.5t75 25.5q51 0 80.5 -30.5t29.5 -75.5q0 -47 -45 -101l-149 -177v-2h188q10 0 10 -10v-6q0 -10 -10 -10z"/>
<glyph glyph-name="threesuperior" unicode="³" horiz-adv-x="324" d="M162 424q-48 0 -78 22.5t-41 56.5q-3 8 6 11l8 3q8 3 12 -6q25 -61 93 -61q40 0 65 25t25 64t-25.5 64.5t-66.5 25.5h-16q-10 0 -10 10v6q0 10 10 10h15q38 0 61 22.5t23 59.5q0 35 -23 57t-61 22q-65 0 -84 -56q-3 -9 -11 -8l-7 1q-10 2 -8 11q8 33 36 55.5t74 22.5 q50 0 81 -29.5t31 -75.5q0 -63 -57 -93v-1q26 -11 46 -37.5t20 -66.5q0 -50 -33 -82.5t-85 -32.5z"/>
<glyph glyph-name="acute" unicode="´" horiz-adv-x="420" d="M165 560h-7q-12 0 -5 10l78 120q6 10 16 10h15q5 0 6.5 -3t-1.5 -7l-85 -120q-8 -10 -17 -10z"/>
<glyph glyph-name="mu" unicode="µ" horiz-adv-x="541" d="M431 0h-10q-10 0 -10 10v67h-1q-17 -41 -55.5 -64t-89.5 -23q-95 0 -134 65h-1v-225q0 -10 -10 -10h-10q-10 0 -10 10v634q0 10 10 10h10q10 0 10 -10v-299q0 -147 137 -147q61 0 102.5 39.5t41.5 107.5v299q0 10 10 10h10q10 0 10 -10v-454q0 -10 -10 -10z"/>
<glyph glyph-name="mu" unicode="μ" horiz-adv-x="541" d="M431 0h-10q-10 0 -10 10v67h-1q-17 -41 -55.5 -64t-89.5 -23q-95 0 -134 65h-1v-225q0 -10 -10 -10h-10q-10 0 -10 10v634q0 10 10 10h10q10 0 10 -10v-299q0 -147 137 -147q61 0 102.5 39.5t41.5 107.5v299q0 10 10 10h10q10 0 10 -10v-454q0 -10 -10 -10z"/>
<glyph glyph-name="paragraph" unicode="¶" horiz-adv-x="542" d="M442 -180h-10q-10 0 -10 10v816q0 6 -6 6h-108q-6 0 -6 -6v-816q0 -10 -10 -10h-10q-10 0 -10 10v440q-89 5 -140.5 61.5t-51.5 143.5q0 91 57 148t162 57h143q10 0 10 -10v-840q0 -10 -10 -10z"/>
<glyph glyph-name="periodcentered" unicode="·" horiz-adv-x="204" d="M116 231h-28q-10 0 -10 10v50q0 10 10 10h28q10 0 10 -10v-50q0 -10 -10 -10z"/>
<glyph glyph-name="cedilla" unicode="¸" horiz-adv-x="420" d="M190 -145h-11q-10 0 -7 10l52 135q4 10 13 10h8q10 0 7 -10l-46 -135q-4 -10 -16 -10z"/>
<glyph glyph-name="onesuperior" unicode="¹" horiz-adv-x="324" d="M194 430h-8q-10 0 -10 10v361h-1l-71 -50q-10 -6 -10 5v11q0 10 7 14l70 49q9 6 15 6h8q10 0 10 -10v-386q0 -10 -10 -10z"/>
<glyph glyph-name="ordmasculine" unicode="º" horiz-adv-x="342" d="M171 411q65 0 84 60q9 25 9 65t-9 65q-19 60 -84 60t-84 -60q-9 -25 -9 -65t9 -65q19 -60 84 -60zM171 385q-86 0 -111 77q-10 32 -10 74t10 74q25 77 111 77t111 -77q10 -32 10 -74t-10 -74q-25 -77 -111 -77z"/>
<glyph glyph-name="guillemotright" unicode="»" horiz-adv-x="498" d="M90 96q-3 -3 -6.5 -1.5t-3.5 5.5v19q0 10 6 16l122 125q4 4 0 8l-122 125q-6 6 -6 16v19q0 4 3.5 5.5t6.5 -1.5l158 -161q7 -7 0 -14zM281 96q-3 -3 -6.5 -1.5t-3.5 5.5v19q0 10 6 16l122 125q4 4 0 8l-122 125q-6 6 -6 16v19q0 4 3.5 5.5t6.5 -1.5l158 -161q7 -7 0 -14z "/>
<glyph glyph-name="onequarter" unicode="¼" horiz-adv-x="823" d="M652 0h-8q-10 0 -10 10v68q0 6 -6 6h-161q-10 0 -10 10v6q0 8 4 15l137 281q4 10 13 10h11q4 0 6 -3t0 -7l-138 -285v-1h138q6 0 6 6v107q0 10 10 10h8q10 0 10 -10v-107q0 -6 6 -6h45q10 0 10 -10v-6q0 -10 -10 -10h-45q-6 0 -6 -6v-68q0 -10 -10 -10zM180 274h-8 q-10 0 -10 10v361h-1l-71 -50q-10 -6 -10 5v11q0 10 7 14l70 49q9 6 15 6h8q10 0 10 -10v-386q0 -10 -10 -10zM200 -10h-10q-11 0 -6 10l393 680q6 10 14 10h10q11 0 6 -10l-393 -680q-6 -10 -14 -10z"/>
<glyph glyph-name="onehalf" unicode="½" horiz-adv-x="849" d="M739 0h-217q-10 0 -10 10v6q0 7 7 14l161 192q37 45 37 84q0 35 -23 57.5t-59 22.5q-34 0 -56 -18.5t-30 -50.5q-2 -10 -12 -8l-6 1q-10 2 -9 12q8 39 38 64.5t75 25.5q51 0 80.5 -30.5t29.5 -75.5q0 -47 -45 -101l-149 -177v-2h188q10 0 10 -10v-6q0 -10 -10 -10z M180 274h-8q-10 0 -10 10v361h-1l-71 -50q-10 -6 -10 5v11q0 10 7 14l70 49q9 6 15 6h8q10 0 10 -10v-386q0 -10 -10 -10zM200 -10h-10q-11 0 -6 10l393 680q6 10 14 10h10q11 0 6 -10l-393 -680q-6 -10 -14 -10z"/>
<glyph glyph-name="threequarters" unicode="¾" horiz-adv-x="890" d="M719 0h-8q-10 0 -10 10v68q0 6 -6 6h-161q-10 0 -10 10v6q0 8 4 15l137 281q4 10 13 10h11q5 0 6.5 -3t-0.5 -7l-138 -285v-1h138q6 0 6 6v107q0 10 10 10h8q10 0 10 -10v-107q0 -6 6 -6h45q10 0 10 -10v-6q0 -10 -10 -10h-45q-6 0 -6 -6v-68q0 -10 -10 -10zM220 268 q-48 0 -78 22.5t-41 56.5q-3 8 6 11l8 3q8 3 12 -6q25 -61 93 -61q40 0 65 25t25 64t-25.5 64.5t-66.5 25.5h-16q-10 0 -10 10v6q0 10 10 10h15q38 0 61 22.5t23 59.5q0 35 -23 57t-61 22q-65 0 -84 -56q-3 -9 -11 -8l-7 1q-10 2 -8 11q8 33 36 55.5t74 22.5q50 0 81 -29.5 t31 -75.5q0 -63 -57 -93v-1q26 -11 46 -37.5t20 -66.5q0 -50 -33 -82.5t-85 -32.5zM267 -10h-10q-11 0 -6 10l393 680q6 10 14 10h10q11 0 6 -10l-393 -680q-6 -10 -14 -10z"/>
<glyph glyph-name="questiondown" unicode="¿" horiz-adv-x="439" d="M245 464v-50q0 -10 -10 -10h-28q-10 0 -10 10v50q0 10 10 10h28q10 0 10 -10zM236 298v-38q0 -60 -35 -104l-45 -56q-44 -54 -58 -85.5t-14 -69.5q0 -63 38 -98t97 -35q56 0 92.5 33.5t47.5 94.5q2 9 12 8l9 -2q10 -2 8 -11q-10 -67 -55 -109t-114 -42q-74 0 -119.5 45 t-45.5 116q0 43 15 76.5t54 81.5l45 56q24 30 31 49t7 52v38q0 10 10 10h10q10 0 10 -10z"/>
<glyph glyph-name="Agrave" unicode="À" horiz-adv-x="587" d="M302 765h-7q-9 0 -18 10l-87 103q-3 4 -1.5 7t5.5 3h15q8 0 17 -10l80 -103q8 -10 -4 -10zM147 224h292l-144 403h-2zM37 10l240 660q3 10 11 10h13q8 0 11 -10l238 -660q3 -10 -7 -10h-14q-9 0 -13 10l-66 185h-313l-67 -185q-4 -10 -13 -10h-13q-10 0 -7 10z"/>
<glyph glyph-name="Aacute" unicode="Á" horiz-adv-x="587" d="M291 765h-7q-12 0 -4 10l80 103q9 10 17 10h15q4 0 5.5 -3t-1.5 -7l-87 -103q-9 -10 -18 -10zM147 224h292l-144 403h-2zM37 10l240 660q3 10 11 10h13q8 0 11 -10l238 -660q3 -10 -7 -10h-14q-9 0 -13 10l-66 185h-313l-67 -185q-4 -10 -13 -10h-13q-10 0 -7 10z"/>
<glyph glyph-name="Acircumflex" unicode="Â" horiz-adv-x="587" d="M394 755h-8q-8 0 -16 10l-76 98h-2l-76 -98q-8 -10 -16 -10h-8q-4 0 -5.5 3t1.5 7l87 121q6 9 14 9h8q8 0 14 -9l87 -121q3 -4 1.5 -7t-5.5 -3zM147 224h292l-144 403h-2zM37 10l240 660q3 10 11 10h13q8 0 11 -10l238 -660q3 -10 -7 -10h-14q-9 0 -13 10l-66 185h-313 l-67 -185q-4 -10 -13 -10h-13q-10 0 -7 10z"/>
<glyph glyph-name="Atilde" unicode="Ã" horiz-adv-x="587" d="M344 794q-23 0 -57 21q-28 18 -46 18q-24 0 -55 -34q-3 -3 -5.5 -2t-2.5 5v15q0 7 7 14q26 28 57 28q26 0 57 -21q27 -18 46 -18q24 0 55 34q3 3 5.5 2t2.5 -5v-15q0 -7 -7 -14q-26 -28 -57 -28zM147 224h292l-144 403h-2zM37 10l240 660q3 10 11 10h13q8 0 11 -10 l238 -660q3 -10 -7 -10h-14q-9 0 -13 10l-66 185h-313l-67 -185q-4 -10 -13 -10h-13q-10 0 -7 10z"/>
<glyph glyph-name="Adieresis" unicode="Ä" horiz-adv-x="587" d="M205 795h-24q-10 0 -10 10v40q0 10 10 10h24q10 0 10 -10v-40q0 -10 -10 -10zM405 795h-24q-10 0 -10 10v40q0 10 10 10h24q10 0 10 -10v-40q0 -10 -10 -10zM147 224h292l-144 403h-2zM37 10l240 660q3 10 11 10h13q8 0 11 -10l238 -660q3 -10 -7 -10h-14q-9 0 -13 10 l-66 185h-313l-67 -185q-4 -10 -13 -10h-13q-10 0 -7 10z"/>
<glyph glyph-name="Aring" unicode="Å" horiz-adv-x="587" d="M293 772q25 0 40.5 16t15.5 41t-15.5 41t-40.5 16t-40.5 -16t-15.5 -41t15.5 -41t40.5 -16zM293 746q-36 0 -59.5 23.5t-23.5 59.5t23.5 59.5t59.5 23.5t59.5 -23.5t23.5 -59.5t-23.5 -59.5t-59.5 -23.5zM147 224h292l-144 403h-2zM37 10l240 660q3 10 11 10h13 q8 0 11 -10l238 -660q3 -10 -7 -10h-14q-9 0 -13 10l-66 185h-313l-67 -185q-4 -10 -13 -10h-13q-10 0 -7 10z"/>
<glyph glyph-name="AE" unicode="Æ" horiz-adv-x="948" d="M497 648l-282 -424h279q6 0 6 6v418h-3zM884 0h-374q-10 0 -10 10v179q0 6 -6 6h-298l-123 -185q-6 -10 -15 -10h-15q-11 0 -5 10l438 662q5 8 15 8h393q10 0 10 -10v-9q0 -10 -10 -10h-347q-6 0 -6 -6v-279q0 -6 6 -6h300q10 0 10 -10v-9q0 -10 -10 -10h-300q-6 0 -6 -6 v-290q0 -6 6 -6h347q10 0 10 -10v-9q0 -10 -10 -10z"/>
<glyph glyph-name="Ccedilla" unicode="Ç" horiz-adv-x="548" d="M252 -145h-11q-10 0 -7 10l48 125q-149 6 -194 145q-18 54 -18 205t18 205q47 145 205 145q137 0 194 -116q5 -9 -2 -13l-10 -5q-8 -5 -13 4q-55 101 -169 101q-134 0 -175 -124q-17 -51 -17 -197t17 -197q41 -124 175 -124q114 0 169 101q5 9 13 4l10 -5q7 -4 2 -13 q-54 -107 -177 -115l-42 -126q-4 -10 -16 -10z"/>
<glyph glyph-name="Egrave" unicode="È" horiz-adv-x="550" d="M318 765h-7q-9 0 -18 10l-87 103q-3 4 -1.5 7t5.5 3h15q8 0 17 -10l80 -103q8 -10 -4 -10zM102 10v660q0 10 10 10h374q10 0 10 -10v-9q0 -10 -10 -10h-347q-6 0 -6 -6v-279q0 -6 6 -6h300q10 0 10 -10v-9q0 -10 -10 -10h-300q-6 0 -6 -6v-290q0 -6 6 -6h347q10 0 10 -10 v-9q0 -10 -10 -10h-374q-10 0 -10 10z"/>
<glyph glyph-name="Eacute" unicode="É" horiz-adv-x="550" d="M274 765h-7q-12 0 -4 10l80 103q9 10 17 10h15q5 0 6 -3t-2 -7l-87 -103q-9 -10 -18 -10zM102 10v660q0 10 10 10h374q10 0 10 -10v-9q0 -10 -10 -10h-347q-6 0 -6 -6v-279q0 -6 6 -6h300q10 0 10 -10v-9q0 -10 -10 -10h-300q-6 0 -6 -6v-290q0 -6 6 -6h347q10 0 10 -10 v-9q0 -10 -10 -10h-374q-10 0 -10 10z"/>
<glyph glyph-name="Ecircumflex" unicode="Ê" horiz-adv-x="550" d="M399 755h-8q-9 0 -16 10l-76 98h-2l-76 -98q-8 -10 -16 -10h-8q-5 0 -6 3t2 7l87 121q6 9 14 9h8q8 0 14 -9l87 -121q3 -4 2 -7t-6 -3zM102 10v660q0 10 10 10h374q10 0 10 -10v-9q0 -10 -10 -10h-347q-6 0 -6 -6v-279q0 -6 6 -6h300q10 0 10 -10v-9q0 -10 -10 -10h-300 q-6 0 -6 -6v-290q0 -6 6 -6h347q10 0 10 -10v-9q0 -10 -10 -10h-374q-10 0 -10 10z"/>
<glyph glyph-name="Edieresis" unicode="Ë" horiz-adv-x="550" d="M205 795h-24q-10 0 -10 10v40q0 10 10 10h24q10 0 10 -10v-40q0 -10 -10 -10zM405 795h-24q-10 0 -10 10v40q0 10 10 10h24q10 0 10 -10v-40q0 -10 -10 -10zM102 10v660q0 10 10 10h374q10 0 10 -10v-9q0 -10 -10 -10h-347q-6 0 -6 -6v-279q0 -6 6 -6h300q10 0 10 -10v-9 q0 -10 -10 -10h-300q-6 0 -6 -6v-290q0 -6 6 -6h347q10 0 10 -10v-9q0 -10 -10 -10h-374q-10 0 -10 10z"/>
<glyph glyph-name="Igrave" unicode="Ì" horiz-adv-x="235" d="M130 765h-7q-9 0 -18 10l-87 103q-3 4 -1.5 7t5.5 3h15q8 0 17 -10l80 -103q8 -10 -4 -10zM102 10v660q0 10 10 10h11q10 0 10 -10v-660q0 -10 -10 -10h-11q-10 0 -10 10z"/>
<glyph glyph-name="Iacute" unicode="Í" horiz-adv-x="235" d="M113 765h-7q-12 0 -4 10l80 103q9 10 17 10h15q4 0 5.5 -3t-1.5 -7l-87 -103q-9 -10 -18 -10zM102 10v660q0 10 10 10h11q10 0 10 -10v-660q0 -10 -10 -10h-11q-10 0 -10 10z"/>
<glyph glyph-name="Icircumflex" unicode="Î" horiz-adv-x="235" d="M218 755h-8q-9 0 -16 10l-76 98h-2l-76 -98q-7 -10 -16 -10h-8q-4 0 -5.5 3t1.5 7l87 121q6 9 14 9h8q8 0 14 -9l87 -121q3 -4 1.5 -7t-5.5 -3zM102 10v660q0 10 10 10h11q10 0 10 -10v-660q0 -10 -10 -10h-11q-10 0 -10 10z"/>
<glyph glyph-name="Idieresis" unicode="Ï" horiz-adv-x="235" d="M29 795h-24q-10 0 -10 10v40q0 10 10 10h24q10 0 10 -10v-40q0 -10 -10 -10zM229 795h-24q-10 0 -10 10v40q0 10 10 10h24q10 0 10 -10v-40q0 -10 -10 -10zM102 10v660q0 10 10 10h11q10 0 10 -10v-660q0 -10 -10 -10h-11q-10 0 -10 10z"/>
<glyph glyph-name="Eth" unicode="Ð" horiz-adv-x="622" d="M312 29q147 0 183 110q18 55 18 201t-18 201q-36 110 -183 110h-173q-6 0 -6 -6v-280q0 -6 6 -6h145q10 0 10 -10v-8q0 -10 -10 -10h-145q-6 0 -6 -6v-290q0 -6 6 -6h173zM312 0h-200q-10 0 -10 10v315q0 6 -6 6h-46q-10 0 -10 10v8q0 10 10 10h46q6 0 6 6v305 q0 10 10 10h200q170 0 213 -132q19 -58 19 -208t-19 -208q-43 -132 -213 -132z"/>
<glyph glyph-name="Ntilde" unicode="Ñ" horiz-adv-x="648" d="M375 794q-23 0 -57 21q-28 18 -46 18q-24 0 -55 -34q-3 -3 -5.5 -2t-2.5 5v15q0 7 7 14q26 28 57 28q25 0 57 -21q27 -18 46 -18q24 0 55 34q3 3 5.5 2t2.5 -5v-15q0 -7 -7 -14q-26 -28 -57 -28zM102 10v660q0 10 10 10h9q11 0 17 -10l374 -603h3v603q0 10 10 10h11 q10 0 10 -10v-660q0 -10 -10 -10h-9q-11 0 -17 10l-374 603h-3v-603q0 -10 -10 -10h-11q-10 0 -10 10z"/>
<glyph glyph-name="Ograve" unicode="Ò" horiz-adv-x="602" d="M322 765h-7q-9 0 -18 10l-87 103q-3 4 -1.5 7t5.5 3h15q8 0 17 -10l80 -103q8 -10 -4 -10zM301 19q139 0 181 127q19 57 19 194t-19 194q-42 127 -181 127t-181 -127q-19 -57 -19 -194t19 -194q42 -127 181 -127zM301 -10q-163 0 -211 148q-20 60 -20 202t20 202 q48 148 211 148t211 -148q20 -60 20 -202t-20 -202q-48 -148 -211 -148z"/>
<glyph glyph-name="Oacute" unicode="Ó" horiz-adv-x="602" d="M287 765h-7q-12 0 -4 10l80 103q9 10 17 10h15q4 0 5.5 -3t-1.5 -7l-87 -103q-9 -10 -18 -10zM301 19q139 0 181 127q19 57 19 194t-19 194q-42 127 -181 127t-181 -127q-19 -57 -19 -194t19 -194q42 -127 181 -127zM301 -10q-163 0 -211 148q-20 60 -20 202t20 202 q48 148 211 148t211 -148q20 -60 20 -202t-20 -202q-48 -148 -211 -148z"/>
<glyph glyph-name="Ocircumflex" unicode="Ô" horiz-adv-x="602" d="M402 755h-8q-8 0 -16 10l-76 98h-2l-76 -98q-8 -10 -16 -10h-8q-4 0 -5.5 3t1.5 7l87 121q6 9 14 9h8q8 0 14 -9l87 -121q3 -4 1.5 -7t-5.5 -3zM301 19q139 0 181 127q19 57 19 194t-19 194q-42 127 -181 127t-181 -127q-19 -57 -19 -194t19 -194q42 -127 181 -127z M301 -10q-163 0 -211 148q-20 60 -20 202t20 202q48 148 211 148t211 -148q20 -60 20 -202t-20 -202q-48 -148 -211 -148z"/>
<glyph glyph-name="Otilde" unicode="Õ" horiz-adv-x="602" d="M352 794q-23 0 -57 21q-28 18 -46 18q-24 0 -55 -34q-3 -3 -5.5 -2t-2.5 5v15q0 7 7 14q26 28 57 28q26 0 57 -21q27 -18 46 -18q24 0 55 34q3 3 5.5 2t2.5 -5v-15q0 -7 -7 -14q-26 -28 -57 -28zM301 19q139 0 181 127q19 57 19 194t-19 194q-42 127 -181 127t-181 -127 q-19 -57 -19 -194t19 -194q42 -127 181 -127zM301 -10q-163 0 -211 148q-20 60 -20 202t20 202q48 148 211 148t211 -148q20 -60 20 -202t-20 -202q-48 -148 -211 -148z"/>
<glyph glyph-name="Odieresis" unicode="Ö" horiz-adv-x="602" d="M213 795h-24q-10 0 -10 10v40q0 10 10 10h24q10 0 10 -10v-40q0 -10 -10 -10zM413 795h-24q-10 0 -10 10v40q0 10 10 10h24q10 0 10 -10v-40q0 -10 -10 -10zM301 19q139 0 181 127q19 57 19 194t-19 194q-42 127 -181 127t-181 -127q-19 -57 -19 -194t19 -194 q42 -127 181 -127zM301 -10q-163 0 -211 148q-20 60 -20 202t20 202q48 148 211 148t211 -148q20 -60 20 -202t-20 -202q-48 -148 -211 -148z"/>
<glyph glyph-name="multiply" unicode="×" d="M417 126l-6 -6q-7 -7 -14 0l-132 132q-4 4 -8 0l-132 -132q-7 -7 -14 0l-6 6q-7 7 0 14l132 132q4 4 0 8l-132 132q-7 7 0 14l6 6q7 7 14 0l132 -132q4 -4 8 0l132 132q7 7 14 0l6 -6q7 -7 0 -14l-132 -132q-4 -4 0 -8l132 -132q7 -7 0 -14z"/>
<glyph glyph-name="Oslash" unicode="Ø" horiz-adv-x="602" d="M301 19q139 0 181 127q19 57 19 194t-19 194q-12 33 -27 54l-291 -518q50 -51 137 -51zM120 146q12 -36 26 -55l291 519q-49 51 -136 51q-139 0 -181 -127q-19 -57 -19 -194t19 -194zM100 -30h-10q-11 0 -6 10l46 82q-27 34 -40 76q-20 60 -20 202t20 202q48 148 211 148 q94 0 152 -52l35 62q5 10 14 10h10q11 0 6 -10l-46 -82q24 -30 40 -76q20 -60 20 -202t-20 -202q-48 -148 -211 -148q-96 0 -152 52l-35 -62q-5 -10 -14 -10z"/>
<glyph glyph-name="Ugrave" unicode="Ù" horiz-adv-x="632" d="M336 765h-7q-9 0 -18 10l-87 103q-3 4 -1.5 7t5.5 3h15q8 0 17 -10l80 -103q8 -10 -4 -10zM316 -10q-222 0 -222 243v437q0 10 10 10h11q10 0 10 -10v-438q0 -106 49 -159.5t142 -53.5q191 0 191 213v438q0 10 10 10h11q10 0 10 -10v-437q0 -121 -57 -182t-165 -61z"/>
<glyph glyph-name="Uacute" unicode="Ú" horiz-adv-x="632" d="M300 765h-7q-12 0 -4 10l80 103q9 10 17 10h15q5 0 6 -3t-2 -7l-87 -103q-9 -10 -18 -10zM316 -10q-222 0 -222 243v437q0 10 10 10h11q10 0 10 -10v-438q0 -106 49 -159.5t142 -53.5q191 0 191 213v438q0 10 10 10h11q10 0 10 -10v-437q0 -121 -57 -182t-165 -61z"/>
<glyph glyph-name="Ucircumflex" unicode="Û" horiz-adv-x="632" d="M417 755h-8q-9 0 -16 10l-76 98h-2l-76 -98q-8 -10 -16 -10h-8q-5 0 -6 3t2 7l87 121q6 9 14 9h8q8 0 14 -9l87 -121q3 -4 2 -7t-6 -3zM316 -10q-222 0 -222 243v437q0 10 10 10h11q10 0 10 -10v-438q0 -106 49 -159.5t142 -53.5q191 0 191 213v438q0 10 10 10h11 q10 0 10 -10v-437q0 -121 -57 -182t-165 -61z"/>
<glyph glyph-name="Udieresis" unicode="Ü" horiz-adv-x="632" d="M228 795h-24q-10 0 -10 10v40q0 10 10 10h24q10 0 10 -10v-40q0 -10 -10 -10zM428 795h-24q-10 0 -10 10v40q0 10 10 10h24q10 0 10 -10v-40q0 -10 -10 -10zM316 -10q-222 0 -222 243v437q0 10 10 10h11q10 0 10 -10v-438q0 -106 49 -159.5t142 -53.5q191 0 191 213v438 q0 10 10 10h11q10 0 10 -10v-437q0 -121 -57 -182t-165 -61z"/>
<glyph glyph-name="Yacute" unicode="Ý" horiz-adv-x="506" d="M246 765h-7q-12 0 -4 10l80 103q9 10 17 10h15q5 0 6 -3t-2 -7l-87 -103q-9 -10 -18 -10zM259 0h-11q-10 0 -10 10v269l-207 389q-2 4 0 8t7 4h12q10 0 15 -10l189 -352h2l185 352q5 10 15 10h12q5 0 7 -4t0 -8l-206 -389v-269q0 -10 -10 -10z"/>
<glyph glyph-name="Thorn" unicode="Þ" horiz-adv-x="579" d="M327 188q84 0 128 40t44 115t-44 115t-128 40h-188q-6 0 -6 -6v-298q0 -6 6 -6h188zM123 0h-11q-10 0 -10 10v660q0 10 10 10h11q10 0 10 -10v-137q0 -6 6 -6h188q96 0 149.5 -48.5t53.5 -135.5t-53.5 -135.5t-149.5 -48.5h-188q-6 0 -6 -6v-143q0 -10 -10 -10z"/>
<glyph glyph-name="germandbls" unicode="ß" horiz-adv-x="536" d="M290 -6h-9q-10 0 -10 10v8q0 10 10 10h9q106 0 131 76q10 30 10 121q0 92 -10 123q-13 40 -44.5 56.5t-83.5 17.5h-12q-10 0 -10 10v8q0 10 10 10h12q67 0 97.5 25.5t30.5 81.5q0 53 -35.5 82t-103.5 29q-83 0 -117.5 -38t-34.5 -127v-487q0 -10 -10 -10h-10 q-10 0 -10 10v489q0 97 42 144t140 47q83 0 126 -37.5t43 -101.5q0 -96 -79 -120v-2q59 -20 78 -79q11 -33 11 -131q0 -96 -11 -131q-31 -94 -160 -94z"/>
<glyph glyph-name="agrave" unicode="à" horiz-adv-x="509" d="M299 560h-7q-10 0 -17 10l-85 120q-3 4 -1.5 7t6.5 3h15q10 0 16 -10l78 -120q7 -10 -5 -10zM235 18q66 0 108 34.5t42 87.5v90q0 6 -6 6h-129q-77 0 -112.5 -26.5t-35.5 -81.5q0 -53 34.5 -81.5t98.5 -28.5zM405 0h-10q-10 0 -10 10v57h-1q-13 -34 -53 -55.5t-100 -21.5 q-75 0 -117 36t-42 102q0 136 176 136h131q6 0 6 6v61q0 69 -28 97t-104 28q-84 0 -124 -38q-7 -7 -14 -2l-7 6q-8 7 -1 14q46 48 146 48q87 0 124.5 -33.5t37.5 -119.5v-321q0 -10 -10 -10z"/>
<glyph glyph-name="aacute" unicode="á" horiz-adv-x="509" d="M252 560h-7q-12 0 -5 10l78 120q6 10 16 10h15q5 0 6.5 -3t-1.5 -7l-85 -120q-7 -10 -17 -10zM235 18q66 0 108 34.5t42 87.5v90q0 6 -6 6h-129q-77 0 -112.5 -26.5t-35.5 -81.5q0 -53 34.5 -81.5t98.5 -28.5zM405 0h-10q-10 0 -10 10v57h-1q-13 -34 -53 -55.5 t-100 -21.5q-75 0 -117 36t-42 102q0 136 176 136h131q6 0 6 6v61q0 69 -28 97t-104 28q-84 0 -124 -38q-7 -7 -14 -2l-7 6q-8 7 -1 14q46 48 146 48q87 0 124.5 -33.5t37.5 -119.5v-321q0 -10 -10 -10z"/>
<glyph glyph-name="acircumflex" unicode="â" horiz-adv-x="509" d="M355 560h-8q-9 0 -16 10l-76 98h-2l-76 -98q-7 -10 -16 -10h-8q-5 0 -6 3t2 7l87 121q6 9 14 9h8q8 0 14 -9l87 -121q3 -4 2 -7t-6 -3zM235 18q66 0 108 34.5t42 87.5v90q0 6 -6 6h-129q-77 0 -112.5 -26.5t-35.5 -81.5q0 -53 34.5 -81.5t98.5 -28.5zM405 0h-10 q-10 0 -10 10v57h-1q-13 -34 -53 -55.5t-100 -21.5q-75 0 -117 36t-42 102q0 136 176 136h131q6 0 6 6v61q0 69 -28 97t-104 28q-84 0 -124 -38q-7 -7 -14 -2l-7 6q-8 7 -1 14q46 48 146 48q87 0 124.5 -33.5t37.5 -119.5v-321q0 -10 -10 -10z"/>
<glyph glyph-name="atilde" unicode="ã" horiz-adv-x="509" d="M305 613q-23 0 -57 21q-28 18 -46 18q-24 0 -55 -34q-3 -3 -5.5 -2t-2.5 5v15q0 7 7 14q26 28 57 28q25 0 57 -21q27 -18 46 -18q24 0 55 34q3 3 5.5 2t2.5 -5v-15q0 -7 -7 -14q-26 -28 -57 -28zM235 18q66 0 108 34.5t42 87.5v90q0 6 -6 6h-129q-77 0 -112.5 -26.5 t-35.5 -81.5q0 -53 34.5 -81.5t98.5 -28.5zM405 0h-10q-10 0 -10 10v57h-1q-13 -34 -53 -55.5t-100 -21.5q-75 0 -117 36t-42 102q0 136 176 136h131q6 0 6 6v61q0 69 -28 97t-104 28q-84 0 -124 -38q-7 -7 -14 -2l-7 6q-8 7 -1 14q46 48 146 48q87 0 124.5 -33.5 t37.5 -119.5v-321q0 -10 -10 -10z"/>
<glyph glyph-name="adieresis" unicode="ä" horiz-adv-x="509" d="M166 620h-24q-10 0 -10 10v40q0 10 10 10h24q10 0 10 -10v-40q0 -10 -10 -10zM366 620h-24q-10 0 -10 10v40q0 10 10 10h24q10 0 10 -10v-40q0 -10 -10 -10zM235 18q66 0 108 34.5t42 87.5v90q0 6 -6 6h-129q-77 0 -112.5 -26.5t-35.5 -81.5q0 -53 34.5 -81.5t98.5 -28.5 zM405 0h-10q-10 0 -10 10v57h-1q-13 -34 -53 -55.5t-100 -21.5q-75 0 -117 36t-42 102q0 136 176 136h131q6 0 6 6v61q0 69 -28 97t-104 28q-84 0 -124 -38q-7 -7 -14 -2l-7 6q-8 7 -1 14q46 48 146 48q87 0 124.5 -33.5t37.5 -119.5v-321q0 -10 -10 -10z"/>
<glyph glyph-name="aring" unicode="å" horiz-adv-x="509" d="M256 572q25 0 40.5 16t15.5 41t-15.5 41t-40.5 16t-40.5 -16t-15.5 -41t15.5 -41t40.5 -16zM256 546q-36 0 -59.5 23.5t-23.5 59.5t23.5 59.5t59.5 23.5t59.5 -23.5t23.5 -59.5t-23.5 -59.5t-59.5 -23.5zM235 18q66 0 108 34.5t42 87.5v90q0 6 -6 6h-129 q-77 0 -112.5 -26.5t-35.5 -81.5q0 -53 34.5 -81.5t98.5 -28.5zM405 0h-10q-10 0 -10 10v57h-1q-13 -34 -53 -55.5t-100 -21.5q-75 0 -117 36t-42 102q0 136 176 136h131q6 0 6 6v61q0 69 -28 97t-104 28q-84 0 -124 -38q-7 -7 -14 -2l-7 6q-8 7 -1 14q46 48 146 48 q87 0 124.5 -33.5t37.5 -119.5v-321q0 -10 -10 -10z"/>
<glyph glyph-name="ae" unicode="æ" horiz-adv-x="814" d="M235 18q66 0 108 34.5t42 87.5v90q0 6 -6 6h-129q-77 0 -112.5 -26.5t-35.5 -81.5q0 -53 34.5 -81.5t98.5 -28.5zM713 264q6 0 6 6q0 47 -11 83q-33 103 -141 103t-141 -103q-11 -36 -11 -83q0 -6 6 -6h292zM573 -10q-122 0 -167 103h-1q-38 -103 -174 -103 q-75 0 -117 36t-42 102q0 136 176 136h131q6 0 6 6v61q0 69 -28 97t-104 28q-84 0 -124 -38q-7 -7 -14 -2l-7 6q-8 7 -1 14q46 48 146 48q71 0 108.5 -22t47.5 -73h1q46 95 157 95q129 0 168 -120q14 -42 14 -118q0 -10 -11 -10h-317q-6 0 -6 -7q0 -68 12 -107 q35 -104 146 -104q93 0 143 69q6 8 14 2l6 -5q7 -6 1 -14q-56 -80 -164 -80z"/>
<glyph glyph-name="ccedilla" unicode="ç" horiz-adv-x="468" d="M212 -145h-11q-10 0 -7 10l48 125q-60 2 -102 33.5t-59 86.5q-16 52 -16 127t16 127q18 57 62 88.5t106 31.5q111 0 157 -96q5 -9 -5 -14l-7 -3q-9 -3 -13 4q-41 81 -132 81q-107 0 -139 -103q-15 -45 -15 -116t15 -116q32 -103 139 -103q91 0 132 81q4 7 13 4l7 -3 q10 -5 5 -14q-41 -86 -135 -95l-43 -126q-4 -10 -16 -10z"/>
<glyph glyph-name="egrave" unicode="è" horiz-adv-x="494" d="M266 560h-7q-10 0 -17 10l-85 120q-3 4 -1.5 7t6.5 3h15q10 0 16 -10l78 -120q7 -10 -5 -10zM101 264h292q6 0 6 6q0 47 -11 83q-33 103 -141 103t-141 -103q-11 -36 -11 -83q0 -6 6 -6zM253 -10q-135 0 -174 122q-14 44 -14 126q0 84 14 126q19 59 63 89.5t105 30.5 q129 0 168 -120q14 -42 14 -118q0 -10 -11 -10h-317q-6 0 -6 -7q0 -68 12 -107q35 -104 146 -104q93 0 143 69q6 8 14 2l6 -5q7 -6 1 -14q-56 -80 -164 -80z"/>
<glyph glyph-name="eacute" unicode="é" horiz-adv-x="494" d="M238 560h-7q-12 0 -5 10l78 120q6 10 16 10h15q5 0 6.5 -3t-1.5 -7l-85 -120q-7 -10 -17 -10zM101 264h292q6 0 6 6q0 47 -11 83q-33 103 -141 103t-141 -103q-11 -36 -11 -83q0 -6 6 -6zM253 -10q-135 0 -174 122q-14 44 -14 126q0 84 14 126q19 59 63 89.5t105 30.5 q129 0 168 -120q14 -42 14 -118q0 -10 -11 -10h-317q-6 0 -6 -7q0 -68 12 -107q35 -104 146 -104q93 0 143 69q6 8 14 2l6 -5q7 -6 1 -14q-56 -80 -164 -80z"/>
<glyph glyph-name="ecircumflex" unicode="ê" horiz-adv-x="494" d="M348 560h-8q-8 0 -16 10l-76 98h-2l-76 -98q-8 -10 -16 -10h-8q-4 0 -5.5 3t1.5 7l87 121q6 9 14 9h8q8 0 14 -9l87 -121q3 -4 1.5 -7t-5.5 -3zM101 264h292q6 0 6 6q0 47 -11 83q-33 103 -141 103t-141 -103q-11 -36 -11 -83q0 -6 6 -6zM253 -10q-135 0 -174 122 q-14 44 -14 126q0 84 14 126q19 59 63 89.5t105 30.5q129 0 168 -120q14 -42 14 -118q0 -10 -11 -10h-317q-6 0 -6 -7q0 -68 12 -107q35 -104 146 -104q93 0 143 69q6 8 14 2l6 -5q7 -6 1 -14q-56 -80 -164 -80z"/>
<glyph glyph-name="edieresis" unicode="ë" horiz-adv-x="494" d="M159 620h-24q-10 0 -10 10v40q0 10 10 10h24q10 0 10 -10v-40q0 -10 -10 -10zM359 620h-24q-10 0 -10 10v40q0 10 10 10h24q10 0 10 -10v-40q0 -10 -10 -10zM101 264h292q6 0 6 6q0 47 -11 83q-33 103 -141 103t-141 -103q-11 -36 -11 -83q0 -6 6 -6zM253 -10 q-135 0 -174 122q-14 44 -14 126q0 84 14 126q19 59 63 89.5t105 30.5q129 0 168 -120q14 -42 14 -118q0 -10 -11 -10h-317q-6 0 -6 -7q0 -68 12 -107q35 -104 146 -104q93 0 143 69q6 8 14 2l6 -5q7 -6 1 -14q-56 -80 -164 -80z"/>
<glyph glyph-name="igrave" unicode="ì" horiz-adv-x="230" d="M128 560h-7q-9 0 -17 10l-85 120q-3 4 -1.5 7t6.5 3h15q10 0 16 -10l78 -120q7 -10 -5 -10zM120 0h-10q-10 0 -10 10v454q0 10 10 10h10q10 0 10 -10v-454q0 -10 -10 -10z"/>
<glyph glyph-name="iacute" unicode="í" horiz-adv-x="230" d="M109 560h-7q-12 0 -5 10l78 120q6 10 16 10h15q5 0 6.5 -3t-1.5 -7l-85 -120q-8 -10 -17 -10zM120 0h-10q-10 0 -10 10v454q0 10 10 10h10q10 0 10 -10v-454q0 -10 -10 -10z"/>
<glyph glyph-name="icircumflex" unicode="î" horiz-adv-x="230" d="M216 560h-8q-8 0 -16 10l-76 98h-2l-76 -98q-8 -10 -16 -10h-8q-4 0 -5.5 3t1.5 7l87 121q6 9 14 9h8q8 0 14 -9l87 -121q3 -4 1.5 -7t-5.5 -3zM120 0h-10q-10 0 -10 10v454q0 10 10 10h10q10 0 10 -10v-454q0 -10 -10 -10z"/>
<glyph glyph-name="idieresis" unicode="ï" horiz-adv-x="230" d="M27 620h-24q-10 0 -10 10v40q0 10 10 10h24q10 0 10 -10v-40q0 -10 -10 -10zM227 620h-24q-10 0 -10 10v40q0 10 10 10h24q10 0 10 -10v-40q0 -10 -10 -10zM120 0h-10q-10 0 -10 10v454q0 10 10 10h10q10 0 10 -10v-454q0 -10 -10 -10z"/>
<glyph glyph-name="eth" unicode="ð" horiz-adv-x="502" d="M251 18q52 0 89 26.5t53 75.5q14 44 14 117q0 71 -15 115q-16 49 -53 76.5t-88 27.5q-52 0 -89 -26.5t-53 -75.5q-14 -44 -14 -117t14 -117q16 -49 53 -75.5t89 -26.5zM358 606l-83 -25l43 -52q67 -80 93 -141t26 -141q0 -87 -16 -137q-19 -57 -63 -88.5t-107 -31.5 t-107 31.5t-63 88.5q-16 50 -16 127t16 127q19 57 62 88.5t101 31.5q53 0 100 -33h1l-100 121l-96 -29q-12 -3 -14 7l-1 6q-1 9 8 12l85 25l-65 77q-3 4 -1.5 7t5.5 3h17q9 0 17 -10l56 -68l95 28q11 3 13 -6l1 -6q2 -9 -7 -12z"/>
<glyph glyph-name="ntilde" unicode="ñ" horiz-adv-x="538" d="M320 613q-23 0 -57 21q-28 18 -46 18q-24 0 -55 -34q-3 -3 -5.5 -2t-2.5 5v15q0 7 7 14q26 28 57 28q25 0 57 -21q27 -18 46 -18q24 0 55 34q3 3 5.5 2t2.5 -5v-15q0 -7 -7 -14q-26 -28 -57 -28zM434 0h-10q-10 0 -10 10v284q0 83 -34.5 122.5t-104.5 39.5 q-62 0 -103.5 -39.5t-41.5 -107.5v-299q0 -10 -10 -10h-10q-10 0 -10 10v454q0 10 10 10h10q10 0 10 -10v-67h1q18 41 56.5 64t89.5 23q81 0 124 -46t43 -137v-291q0 -10 -10 -10z"/>
<glyph glyph-name="ograve" unicode="ò" horiz-adv-x="502" d="M269 560h-7q-10 0 -17 10l-85 120q-3 4 -1.5 7t6.5 3h15q10 0 16 -10l78 -120q7 -10 -5 -10zM251 18q52 0 89 26.5t53 75.5q14 44 14 117t-14 117q-16 49 -53 75.5t-89 26.5t-89 -26.5t-53 -75.5q-14 -44 -14 -117t14 -117q16 -49 53 -75.5t89 -26.5zM251 -10 q-63 0 -107 31.5t-63 88.5q-16 50 -16 127t16 127q19 57 63 88.5t107 31.5t107 -31.5t63 -88.5q16 -50 16 -127t-16 -127q-19 -57 -63 -88.5t-107 -31.5z"/>
<glyph glyph-name="oacute" unicode="ó" horiz-adv-x="502" d="M240 560h-7q-12 0 -5 10l78 120q6 10 16 10h15q5 0 6.5 -3t-1.5 -7l-85 -120q-8 -10 -17 -10zM251 18q52 0 89 26.5t53 75.5q14 44 14 117t-14 117q-16 49 -53 75.5t-89 26.5t-89 -26.5t-53 -75.5q-14 -44 -14 -117t14 -117q16 -49 53 -75.5t89 -26.5zM251 -10 q-63 0 -107 31.5t-63 88.5q-16 50 -16 127t16 127q19 57 63 88.5t107 31.5t107 -31.5t63 -88.5q16 -50 16 -127t-16 -127q-19 -57 -63 -88.5t-107 -31.5z"/>
<glyph glyph-name="ocircumflex" unicode="ô" horiz-adv-x="502" d="M352 560h-8q-8 0 -16 10l-76 98h-2l-76 -98q-8 -10 -16 -10h-8q-4 0 -5.5 3t1.5 7l87 121q6 9 14 9h8q8 0 14 -9l87 -121q3 -4 1.5 -7t-5.5 -3zM251 18q52 0 89 26.5t53 75.5q14 44 14 117t-14 117q-16 49 -53 75.5t-89 26.5t-89 -26.5t-53 -75.5q-14 -44 -14 -117 t14 -117q16 -49 53 -75.5t89 -26.5zM251 -10q-63 0 -107 31.5t-63 88.5q-16 50 -16 127t16 127q19 57 63 88.5t107 31.5t107 -31.5t63 -88.5q16 -50 16 -127t-16 -127q-19 -57 -63 -88.5t-107 -31.5z"/>
<glyph glyph-name="otilde" unicode="õ" horiz-adv-x="502" d="M302 613q-23 0 -57 21q-28 18 -46 18q-24 0 -55 -34q-3 -3 -5.5 -2t-2.5 5v15q0 7 7 14q26 28 57 28q25 0 57 -21q27 -18 46 -18q24 0 55 34q3 3 5.5 2t2.5 -5v-15q0 -7 -7 -14q-26 -28 -57 -28zM251 18q52 0 89 26.5t53 75.5q14 44 14 117t-14 117q-16 49 -53 75.5 t-89 26.5t-89 -26.5t-53 -75.5q-14 -44 -14 -117t14 -117q16 -49 53 -75.5t89 -26.5zM251 -10q-63 0 -107 31.5t-63 88.5q-16 50 -16 127t16 127q19 57 63 88.5t107 31.5t107 -31.5t63 -88.5q16 -50 16 -127t-16 -127q-19 -57 -63 -88.5t-107 -31.5z"/>
<glyph glyph-name="odieresis" unicode="ö" horiz-adv-x="502" d="M163 620h-24q-10 0 -10 10v40q0 10 10 10h24q10 0 10 -10v-40q0 -10 -10 -10zM363 620h-24q-10 0 -10 10v40q0 10 10 10h24q10 0 10 -10v-40q0 -10 -10 -10zM251 18q52 0 89 26.5t53 75.5q14 44 14 117t-14 117q-16 49 -53 75.5t-89 26.5t-89 -26.5t-53 -75.5 q-14 -44 -14 -117t14 -117q16 -49 53 -75.5t89 -26.5zM251 -10q-63 0 -107 31.5t-63 88.5q-16 50 -16 127t16 127q19 57 63 88.5t107 31.5t107 -31.5t63 -88.5q16 -50 16 -127t-16 -127q-19 -57 -63 -88.5t-107 -31.5z"/>
<glyph glyph-name="divide" unicode="÷" d="M261 111q-13 0 -23 9.5t-10 23.5t10 23.5t23 9.5t23 -9.5t10 -23.5t-10 -23.5t-23 -9.5zM443 262h-364q-10 0 -10 10v8q0 10 10 10h364q10 0 10 -10v-8q0 -10 -10 -10zM261 375q-13 0 -23 9.5t-10 23.5t10 23.5t23 9.5t23 -9.5t10 -23.5t-10 -23.5t-23 -9.5z"/>
<glyph glyph-name="oslash" unicode="ø" horiz-adv-x="502" d="M251 18q52 0 89 26.5t53 75.5q14 44 14 117t-14 117q-7 23 -21 43l-225 -341q40 -38 104 -38zM109 120q7 -24 21 -44l224 341q-41 39 -103 39q-52 0 -89 -26.5t-53 -75.5q-14 -44 -14 -117t14 -117zM81 -30h-9q-11 0 -5 10l46 70q-22 26 -32 60q-16 50 -16 127t16 127 q19 57 63 88.5t107 31.5q72 0 119 -42l35 52q6 10 16 10h9q11 0 5 -10l-46 -71q20 -25 32 -59q16 -50 16 -127t-16 -127q-19 -57 -63 -88.5t-107 -31.5q-74 0 -120 41l-34 -51q-6 -10 -16 -10z"/>
<glyph glyph-name="ugrave" unicode="ù" horiz-adv-x="531" d="M287 560h-7q-10 0 -17 10l-85 120q-3 4 -1.5 7t6.5 3h15q10 0 16 -10l78 -120q7 -10 -5 -10zM421 0h-10q-10 0 -10 10v67h-1q-17 -41 -55.5 -64t-88.5 -23q-165 0 -165 183v291q0 10 10 10h10q10 0 10 -10v-284q0 -84 33.5 -123t103.5 -39q61 0 102 39.5t41 107.5v299 q0 10 10 10h10q10 0 10 -10v-454q0 -10 -10 -10z"/>
<glyph glyph-name="uacute" unicode="ú" horiz-adv-x="531" d="M250 560h-7q-12 0 -5 10l78 120q6 10 16 10h15q5 0 6.5 -3t-1.5 -7l-85 -120q-7 -10 -17 -10zM421 0h-10q-10 0 -10 10v67h-1q-17 -41 -55.5 -64t-88.5 -23q-165 0 -165 183v291q0 10 10 10h10q10 0 10 -10v-284q0 -84 33.5 -123t103.5 -39q61 0 102 39.5t41 107.5v299 q0 10 10 10h10q10 0 10 -10v-454q0 -10 -10 -10z"/>
<glyph glyph-name="ucircumflex" unicode="û" horiz-adv-x="531" d="M366 560h-8q-8 0 -16 10l-76 98h-2l-76 -98q-8 -10 -16 -10h-8q-4 0 -5.5 3t1.5 7l87 121q6 9 14 9h8q8 0 14 -9l87 -121q3 -4 1.5 -7t-5.5 -3zM421 0h-10q-10 0 -10 10v67h-1q-17 -41 -55.5 -64t-88.5 -23q-165 0 -165 183v291q0 10 10 10h10q10 0 10 -10v-284 q0 -84 33.5 -123t103.5 -39q61 0 102 39.5t41 107.5v299q0 10 10 10h10q10 0 10 -10v-454q0 -10 -10 -10z"/>
<glyph glyph-name="udieresis" unicode="ü" horiz-adv-x="531" d="M177 620h-24q-10 0 -10 10v40q0 10 10 10h24q10 0 10 -10v-40q0 -10 -10 -10zM377 620h-24q-10 0 -10 10v40q0 10 10 10h24q10 0 10 -10v-40q0 -10 -10 -10zM421 0h-10q-10 0 -10 10v67h-1q-17 -41 -55.5 -64t-88.5 -23q-165 0 -165 183v291q0 10 10 10h10q10 0 10 -10 v-284q0 -84 33.5 -123t103.5 -39q61 0 102 39.5t41 107.5v299q0 10 10 10h10q10 0 10 -10v-454q0 -10 -10 -10z"/>
<glyph glyph-name="yacute" unicode="ý" horiz-adv-x="460" d="M220 560h-7q-12 0 -5 10l78 120q6 10 16 10h15q5 0 6.5 -3t-1.5 -7l-85 -120q-7 -10 -17 -10zM95 -180h-16q-10 0 -10 10v8q0 10 10 10h18q33 0 53.5 20.5t44.5 84.5l20 53l-176 458q-3 10 7 10h12q9 0 13 -10l160 -416h1l157 416q4 10 13 10h12q10 0 7 -10l-199 -519 q-29 -76 -56.5 -100.5t-70.5 -24.5z"/>
<glyph glyph-name="thorn" unicode="þ" horiz-adv-x="525" d="M280 18q104 0 135 95q15 46 15 124t-15 124q-31 95 -135 95q-106 0 -137 -95q-13 -40 -13 -124t13 -124q31 -95 137 -95zM120 -180h-10q-10 0 -10 10v840q0 10 10 10h10q10 0 10 -10v-275h1q40 89 151 89q125 0 161 -113q17 -52 17 -134t-17 -134q-36 -113 -161 -113 q-111 0 -151 89h-1v-249q0 -10 -10 -10z"/>
<glyph glyph-name="ydieresis" unicode="ÿ" horiz-adv-x="460" d="M142 620h-24q-10 0 -10 10v40q0 10 10 10h24q10 0 10 -10v-40q0 -10 -10 -10zM342 620h-24q-10 0 -10 10v40q0 10 10 10h24q10 0 10 -10v-40q0 -10 -10 -10zM95 -180h-16q-10 0 -10 10v8q0 10 10 10h18q33 0 53.5 20.5t44.5 84.5l20 53l-176 458q-3 10 7 10h12 q9 0 13 -10l160 -416h1l157 416q4 10 13 10h12q10 0 7 -10l-199 -519q-29 -76 -56.5 -100.5t-70.5 -24.5z"/>
<glyph glyph-name="Amacron" unicode="Ā" horiz-adv-x="587" d="M409 810h-232q-10 0 -10 10v8q0 10 10 10h232q10 0 10 -10v-8q0 -10 -10 -10zM147 224h292l-144 403h-2zM37 10l240 660q3 10 11 10h13q8 0 11 -10l238 -660q3 -10 -7 -10h-14q-9 0 -13 10l-66 185h-313l-67 -185q-4 -10 -13 -10h-13q-10 0 -7 10z"/>
<glyph glyph-name="amacron" unicode="ā" horiz-adv-x="509" d="M370 634h-232q-10 0 -10 10v8q0 10 10 10h232q10 0 10 -10v-8q0 -10 -10 -10zM235 18q66 0 108 34.5t42 87.5v90q0 6 -6 6h-129q-77 0 -112.5 -26.5t-35.5 -81.5q0 -53 34.5 -81.5t98.5 -28.5zM405 0h-10q-10 0 -10 10v57h-1q-13 -34 -53 -55.5t-100 -21.5q-75 0 -117 36 t-42 102q0 136 176 136h131q6 0 6 6v61q0 69 -28 97t-104 28q-84 0 -124 -38q-7 -7 -14 -2l-7 6q-8 7 -1 14q46 48 146 48q87 0 124.5 -33.5t37.5 -119.5v-321q0 -10 -10 -10z"/>
<glyph glyph-name="Abreve" unicode="Ă" horiz-adv-x="587" d="M293 775q-45 0 -76.5 26t-39.5 68q-2 10 9 10h7q8 0 11 -10q19 -67 89 -67q71 0 90 67q3 10 11 10h6q11 0 9 -10q-8 -42 -39.5 -68t-76.5 -26zM147 224h292l-144 403h-2zM37 10l240 660q3 10 11 10h13q8 0 11 -10l238 -660q3 -10 -7 -10h-14q-9 0 -13 10l-66 185h-313 l-67 -185q-4 -10 -13 -10h-13q-10 0 -7 10z"/>
<glyph glyph-name="abreve" unicode="ă" horiz-adv-x="509" d="M254 579q-45 0 -76.5 26t-39.5 68q-2 10 9 10h7q8 0 11 -10q19 -67 89 -67q71 0 90 67q3 10 11 10h6q11 0 9 -10q-8 -42 -39.5 -68t-76.5 -26zM235 18q66 0 108 34.5t42 87.5v90q0 6 -6 6h-129q-77 0 -112.5 -26.5t-35.5 -81.5q0 -53 34.5 -81.5t98.5 -28.5zM405 0h-10 q-10 0 -10 10v57h-1q-13 -34 -53 -55.5t-100 -21.5q-75 0 -117 36t-42 102q0 136 176 136h131q6 0 6 6v61q0 69 -28 97t-104 28q-84 0 -124 -38q-7 -7 -14 -2l-7 6q-8 7 -1 14q46 48 146 48q87 0 124.5 -33.5t37.5 -119.5v-321q0 -10 -10 -10z"/>
<glyph glyph-name="Aogonek" unicode="Ą" horiz-adv-x="587" d="M293 627l-146 -403h292l-144 403h-2zM493 -162q-28 0 -43.5 15t-15.5 42q0 49 83 111l-67 189h-313l-67 -185q-4 -10 -13 -10h-13q-10 0 -7 10l240 660q3 10 11 10h13q8 0 11 -10l238 -660q3 -6 -3 -10q-51 -41 -67 -63t-16 -40q0 -31 31 -31q12 0 30 11q9 5 14 -3l3 -5 q5 -8 -3 -14q-19 -17 -46 -17z"/>
<glyph glyph-name="aogonek" unicode="ą" horiz-adv-x="509" d="M235 18q66 0 108 34.5t42 87.5v90q0 6 -6 6h-129q-77 0 -112.5 -26.5t-35.5 -81.5q0 -53 34.5 -81.5t98.5 -28.5zM385 10v57h-1q-13 -34 -53 -55.5t-100 -21.5q-75 0 -117 36t-42 102q0 136 176 136h131q6 0 6 6v61q0 69 -28 97t-104 28q-84 0 -124 -38q-7 -7 -14 -2 l-7 6q-8 7 -1 14q46 48 146 48q87 0 124.5 -33.5t37.5 -119.5v-321q0 -6 -5 -10q-51 -41 -67 -63t-16 -40q0 -31 31 -31q12 0 30 11q9 5 14 -3l3 -5q5 -8 -3 -14q-19 -17 -46 -17q-28 0 -43.5 15t-15.5 42q0 49 88 115z"/>
<glyph glyph-name="Cacute" unicode="Ć" horiz-adv-x="548" d="M275 765h-7q-12 0 -4 10l80 103q9 10 17 10h15q4 0 5.5 -3t-1.5 -7l-87 -103q-9 -10 -18 -10zM88 135q-18 54 -18 205t18 205q47 145 205 145q137 0 194 -116q5 -9 -2 -13l-10 -5q-8 -5 -13 4q-55 101 -169 101q-134 0 -175 -124q-17 -51 -17 -197t17 -197 q41 -124 175 -124q114 0 169 101q5 9 13 4l10 -5q7 -4 2 -13q-57 -116 -194 -116q-158 0 -205 145z"/>
<glyph glyph-name="cacute" unicode="ć" horiz-adv-x="468" d="M238 560h-7q-12 0 -5 10l78 120q6 10 16 10h15q5 0 6.5 -3t-1.5 -7l-85 -120q-7 -10 -17 -10zM249 -10q-62 0 -106 31.5t-62 88.5q-16 52 -16 127t16 127q18 57 62 88.5t106 31.5q111 0 157 -96q5 -9 -5 -14l-7 -3q-9 -3 -13 4q-41 81 -132 81q-107 0 -139 -103 q-15 -45 -15 -116t15 -116q32 -103 139 -103q91 0 132 81q4 7 13 4l7 -3q10 -5 5 -14q-46 -96 -157 -96z"/>
<glyph glyph-name="Ccircumflex" unicode="Ĉ" horiz-adv-x="548" d="M391 755h-8q-9 0 -16 10l-76 98h-2l-76 -98q-7 -10 -16 -10h-8q-5 0 -6 3t2 7l87 121q6 9 14 9h8q8 0 14 -9l87 -121q3 -4 2 -7t-6 -3zM88 135q-18 54 -18 205t18 205q47 145 205 145q137 0 194 -116q5 -9 -2 -13l-10 -5q-8 -5 -13 4q-55 101 -169 101q-134 0 -175 -124 q-17 -51 -17 -197t17 -197q41 -124 175 -124q114 0 169 101q5 9 13 4l10 -5q7 -4 2 -13q-57 -116 -194 -116q-158 0 -205 145z"/>
<glyph glyph-name="ccircumflex" unicode="ĉ" horiz-adv-x="468" d="M352 560h-8q-8 0 -16 10l-76 98h-2l-76 -98q-8 -10 -16 -10h-8q-4 0 -5.5 3t1.5 7l87 121q6 9 14 9h8q8 0 14 -9l87 -121q3 -4 1.5 -7t-5.5 -3zM249 -10q-62 0 -106 31.5t-62 88.5q-16 52 -16 127t16 127q18 57 62 88.5t106 31.5q111 0 157 -96q5 -9 -5 -14l-7 -3 q-9 -3 -13 4q-41 81 -132 81q-107 0 -139 -103q-15 -45 -15 -116t15 -116q32 -103 139 -103q91 0 132 81q4 7 13 4l7 -3q10 -5 5 -14q-46 -96 -157 -96z"/>
<glyph glyph-name="Cdotaccent" unicode="Ċ" horiz-adv-x="548" d="M302 795h-24q-10 0 -10 10v40q0 10 10 10h24q10 0 10 -10v-40q0 -10 -10 -10zM88 135q-18 54 -18 205t18 205q47 145 205 145q137 0 194 -116q5 -9 -2 -13l-10 -5q-8 -5 -13 4q-55 101 -169 101q-134 0 -175 -124q-17 -51 -17 -197t17 -197q41 -124 175 -124 q114 0 169 101q5 9 13 4l10 -5q7 -4 2 -13q-57 -116 -194 -116q-158 0 -205 145z"/>
<glyph glyph-name="cdotaccent" unicode="ċ" horiz-adv-x="468" d="M262 620h-24q-10 0 -10 10v40q0 10 10 10h24q10 0 10 -10v-40q0 -10 -10 -10zM249 -10q-62 0 -106 31.5t-62 88.5q-16 52 -16 127t16 127q18 57 62 88.5t106 31.5q111 0 157 -96q5 -9 -5 -14l-7 -3q-9 -3 -13 4q-41 81 -132 81q-107 0 -139 -103q-15 -45 -15 -116 t15 -116q32 -103 139 -103q91 0 132 81q4 7 13 4l7 -3q10 -5 5 -14q-46 -96 -157 -96z"/>
<glyph glyph-name="Ccaron" unicode="Č" horiz-adv-x="548" d="M294 755h-8q-8 0 -14 9l-87 121q-3 4 -2 7t6 3h8q9 0 16 -10l76 -98h2l76 98q7 10 16 10h8q5 0 6 -3t-2 -7l-87 -121q-6 -9 -14 -9zM88 135q-18 54 -18 205t18 205q47 145 205 145q137 0 194 -116q5 -9 -2 -13l-10 -5q-8 -5 -13 4q-55 101 -169 101q-134 0 -175 -124 q-17 -51 -17 -197t17 -197q41 -124 175 -124q114 0 169 101q5 9 13 4l10 -5q7 -4 2 -13q-57 -116 -194 -116q-158 0 -205 145z"/>
<glyph glyph-name="ccaron" unicode="č" horiz-adv-x="468" d="M254 560h-8q-8 0 -14 9l-87 121q-3 4 -2 7t6 3h8q9 0 16 -10l76 -98h2l76 98q7 10 16 10h8q5 0 6 -3t-2 -7l-87 -121q-6 -9 -14 -9zM249 -10q-62 0 -106 31.5t-62 88.5q-16 52 -16 127t16 127q18 57 62 88.5t106 31.5q111 0 157 -96q5 -9 -5 -14l-7 -3q-9 -3 -13 4 q-41 81 -132 81q-107 0 -139 -103q-15 -45 -15 -116t15 -116q32 -103 139 -103q91 0 132 81q4 7 13 4l7 -3q10 -5 5 -14q-46 -96 -157 -96z"/>
<glyph glyph-name="Dcaron" unicode="Ď" horiz-adv-x="622" d="M303 755h-8q-8 0 -14 9l-87 121q-3 4 -1.5 7t5.5 3h8q8 0 16 -10l76 -98h2l76 98q8 10 16 10h8q4 0 5.5 -3t-1.5 -7l-87 -121q-6 -9 -14 -9zM133 35q0 -6 6 -6h173q147 0 183 110q18 55 18 201t-18 201q-36 110 -183 110h-173q-6 0 -6 -6v-610zM102 10v660q0 10 10 10 h200q170 0 213 -132q19 -58 19 -208t-19 -208q-43 -132 -213 -132h-200q-10 0 -10 10z"/>
<glyph glyph-name="dcaron" unicode="ď" horiz-adv-x="525" d="M487 552q-7 0 -7 9v109q0 10 9 10h11q9 0 9 -10v-64q0 -16 -5 -28l-7 -19q-3 -7 -10 -7zM245 18q106 0 137 95q13 40 13 124t-13 124q-31 95 -137 95q-104 0 -135 -95q-15 -46 -15 -124t15 -124q31 -95 135 -95zM415 0h-10q-10 0 -10 10v69h-1q-40 -89 -151 -89 q-125 0 -161 113q-17 52 -17 134t17 134q36 113 161 113q111 0 151 -89h1v275q0 10 10 10h10q10 0 10 -10v-660q0 -10 -10 -10z"/>
<glyph glyph-name="Dcroat" unicode="Đ" horiz-adv-x="622" d="M312 29q147 0 183 110q18 55 18 201t-18 201q-36 110 -183 110h-173q-6 0 -6 -6v-280q0 -6 6 -6h145q10 0 10 -10v-8q0 -10 -10 -10h-145q-6 0 -6 -6v-290q0 -6 6 -6h173zM312 0h-200q-10 0 -10 10v315q0 6 -6 6h-46q-10 0 -10 10v8q0 10 10 10h46q6 0 6 6v305 q0 10 10 10h200q170 0 213 -132q19 -58 19 -208t-19 -208q-43 -132 -213 -132z"/>
<glyph glyph-name="dcroat" unicode="đ" horiz-adv-x="525" d="M245 18q106 0 137 95q13 40 13 124t-13 124q-31 95 -137 95q-104 0 -135 -95q-15 -46 -15 -124t15 -124q31 -95 135 -95zM415 0h-10q-10 0 -10 10v69h-1q-40 -89 -151 -89q-125 0 -161 113q-17 52 -17 134t17 134q36 113 161 113q111 0 151 -89h1v171q0 6 -6 6h-140 q-10 0 -10 10v7q0 10 10 10h140q6 0 6 6v65q0 10 10 10h10q10 0 10 -10v-65q0 -6 6 -6h37q10 0 10 -10v-7q0 -10 -10 -10h-37q-6 0 -6 -6v-556q0 -10 -10 -10z"/>
<glyph glyph-name="Emacron" unicode="Ē" horiz-adv-x="550" d="M409 810h-232q-10 0 -10 10v8q0 10 10 10h232q10 0 10 -10v-8q0 -10 -10 -10zM102 10v660q0 10 10 10h374q10 0 10 -10v-9q0 -10 -10 -10h-347q-6 0 -6 -6v-279q0 -6 6 -6h300q10 0 10 -10v-9q0 -10 -10 -10h-300q-6 0 -6 -6v-290q0 -6 6 -6h347q10 0 10 -10v-9 q0 -10 -10 -10h-374q-10 0 -10 10z"/>
<glyph glyph-name="emacron" unicode="ē" horiz-adv-x="494" d="M363 634h-232q-10 0 -10 10v8q0 10 10 10h232q10 0 10 -10v-8q0 -10 -10 -10zM101 264h292q6 0 6 6q0 47 -11 83q-33 103 -141 103t-141 -103q-11 -36 -11 -83q0 -6 6 -6zM253 -10q-135 0 -174 122q-14 44 -14 126q0 84 14 126q19 59 63 89.5t105 30.5q129 0 168 -120 q14 -42 14 -118q0 -10 -11 -10h-317q-6 0 -6 -7q0 -68 12 -107q35 -104 146 -104q93 0 143 69q6 8 14 2l6 -5q7 -6 1 -14q-56 -80 -164 -80z"/>
<glyph glyph-name="Ebreve" unicode="Ĕ" horiz-adv-x="550" d="M295 775q-45 0 -76.5 26t-39.5 68q-2 10 9 10h7q8 0 11 -10q19 -67 89 -67q71 0 90 67q3 10 11 10h6q11 0 9 -10q-8 -42 -39.5 -68t-76.5 -26zM102 10v660q0 10 10 10h374q10 0 10 -10v-9q0 -10 -10 -10h-347q-6 0 -6 -6v-279q0 -6 6 -6h300q10 0 10 -10v-9 q0 -10 -10 -10h-300q-6 0 -6 -6v-290q0 -6 6 -6h347q10 0 10 -10v-9q0 -10 -10 -10h-374q-10 0 -10 10z"/>
<glyph glyph-name="ebreve" unicode="ĕ" horiz-adv-x="494" d="M247 579q-45 0 -76.5 26t-39.5 68q-2 10 9 10h7q8 0 11 -10q19 -67 89 -67q71 0 90 67q3 10 11 10h6q11 0 9 -10q-8 -42 -39.5 -68t-76.5 -26zM101 264h292q6 0 6 6q0 47 -11 83q-33 103 -141 103t-141 -103q-11 -36 -11 -83q0 -6 6 -6zM253 -10q-135 0 -174 122 q-14 44 -14 126q0 84 14 126q19 59 63 89.5t105 30.5q129 0 168 -120q14 -42 14 -118q0 -10 -11 -10h-317q-6 0 -6 -7q0 -68 12 -107q35 -104 146 -104q93 0 143 69q6 8 14 2l6 -5q7 -6 1 -14q-56 -80 -164 -80z"/>
<glyph glyph-name="Edotaccent" unicode="Ė" horiz-adv-x="550" d="M311 795h-24q-10 0 -10 10v40q0 10 10 10h24q10 0 10 -10v-40q0 -10 -10 -10zM102 10v660q0 10 10 10h374q10 0 10 -10v-9q0 -10 -10 -10h-347q-6 0 -6 -6v-279q0 -6 6 -6h300q10 0 10 -10v-9q0 -10 -10 -10h-300q-6 0 -6 -6v-290q0 -6 6 -6h347q10 0 10 -10v-9 q0 -10 -10 -10h-374q-10 0 -10 10z"/>
<glyph glyph-name="edotaccent" unicode="ė" horiz-adv-x="494" d="M259 620h-24q-10 0 -10 10v40q0 10 10 10h24q10 0 10 -10v-40q0 -10 -10 -10zM101 264h292q6 0 6 6q0 47 -11 83q-33 103 -141 103t-141 -103q-11 -36 -11 -83q0 -6 6 -6zM253 -10q-135 0 -174 122q-14 44 -14 126q0 84 14 126q19 59 63 89.5t105 30.5q129 0 168 -120 q14 -42 14 -118q0 -10 -11 -10h-317q-6 0 -6 -7q0 -68 12 -107q35 -104 146 -104q93 0 143 69q6 8 14 2l6 -5q7 -6 1 -14q-56 -80 -164 -80z"/>
<glyph glyph-name="Eogonek" unicode="Ę" horiz-adv-x="550" d="M424 -162q-28 0 -43.5 15t-15.5 42q0 46 75 105h-328q-10 0 -10 10v660q0 10 10 10h374q10 0 10 -10v-9q0 -10 -10 -10h-347q-6 0 -6 -6v-279q0 -6 6 -6h300q10 0 10 -10v-9q0 -10 -10 -10h-300q-6 0 -6 -6v-290q0 -6 6 -6h347q10 0 10 -10v-9q0 -10 -10 -10h-9 q-51 -40 -66.5 -62t-15.5 -41q0 -31 31 -31q12 0 30 11q9 5 14 -3l3 -5q5 -8 -3 -14q-19 -17 -46 -17z"/>
<glyph glyph-name="eogonek" unicode="ę" horiz-adv-x="494" d="M393 264q6 0 6 6q0 47 -11 83q-33 103 -141 103t-141 -103q-11 -36 -11 -83q0 -6 6 -6h292zM330 -162q-28 0 -43.5 15.5t-15.5 41.5q0 43 54 106q-35 -11 -72 -11q-135 0 -174 122q-14 44 -14 126q0 84 14 126q19 59 63 89.5t105 30.5q129 0 168 -120q14 -42 14 -118 q0 -10 -11 -10h-317q-6 0 -6 -7q0 -68 12 -107q35 -104 146 -104q93 0 143 69q6 8 14 2l6 -5q7 -6 1 -14q-16 -21 -29 -33q-54 -61 -70.5 -89.5t-16.5 -51.5q0 -30 30 -30q13 0 31 11q9 5 14 -3l3 -5q5 -8 -3 -14q-19 -17 -46 -17z"/>
<glyph glyph-name="Ecaron" unicode="Ě" horiz-adv-x="550" d="M302 755h-8q-8 0 -14 9l-87 121q-3 4 -2 7t6 3h8q8 0 16 -10l76 -98h2l76 98q7 10 16 10h8q5 0 6 -3t-2 -7l-87 -121q-6 -9 -14 -9zM102 10v660q0 10 10 10h374q10 0 10 -10v-9q0 -10 -10 -10h-347q-6 0 -6 -6v-279q0 -6 6 -6h300q10 0 10 -10v-9q0 -10 -10 -10h-300 q-6 0 -6 -6v-290q0 -6 6 -6h347q10 0 10 -10v-9q0 -10 -10 -10h-374q-10 0 -10 10z"/>
<glyph glyph-name="ecaron" unicode="ě" horiz-adv-x="494" d="M251 560h-8q-8 0 -14 9l-87 121q-3 4 -1.5 7t5.5 3h8q8 0 16 -10l76 -98h2l76 98q8 10 16 10h8q4 0 5.5 -3t-1.5 -7l-87 -121q-6 -9 -14 -9zM101 264h292q6 0 6 6q0 47 -11 83q-33 103 -141 103t-141 -103q-11 -36 -11 -83q0 -6 6 -6zM253 -10q-135 0 -174 122 q-14 44 -14 126q0 84 14 126q19 59 63 89.5t105 30.5q129 0 168 -120q14 -42 14 -118q0 -10 -11 -10h-317q-6 0 -6 -7q0 -68 12 -107q35 -104 146 -104q93 0 143 69q6 8 14 2l6 -5q7 -6 1 -14q-56 -80 -164 -80z"/>
<glyph glyph-name="Gcircumflex" unicode="Ĝ" horiz-adv-x="602" d="M402 755h-8q-8 0 -16 10l-76 98h-2l-76 -98q-8 -10 -16 -10h-8q-4 0 -5.5 3t1.5 7l87 121q6 9 14 9h8q8 0 14 -9l87 -121q3 -4 1.5 -7t-5.5 -3zM89 138q-19 57 -19 202t19 202q48 148 212 148q145 0 202 -115q6 -11 -2 -15l-9 -5q-9 -4 -13 3q-56 103 -178 103 q-140 0 -182 -127q-18 -54 -18 -194t18 -194q42 -127 182 -127t182 127q18 54 18 151q0 6 -6 6h-173q-10 0 -10 10v9q0 10 10 10h200q10 0 10 -10v-32q0 -95 -19 -152q-48 -148 -212 -148t-212 148z"/>
<glyph glyph-name="gcircumflex" unicode="ĝ" horiz-adv-x="517" d="M349 560h-8q-9 0 -16 10l-76 98h-2l-76 -98q-7 -10 -16 -10h-8q-5 0 -6 3t2 7l87 121q6 9 14 9h8q8 0 14 -9l87 -121q3 -4 2 -7t-6 -3zM241 18q102 0 133 95q13 38 13 124t-13 124q-31 95 -133 95q-99 0 -131 -94q-15 -45 -15 -125t15 -125q32 -94 131 -94zM239 -190 q-50 0 -91 19.5t-59 48.5q-6 9 2 14l8 5q8 5 14 -3q43 -56 126 -56q148 0 148 161v80h-1q-39 -89 -148 -89q-120 0 -157 113q-16 48 -16 134t16 134q37 113 157 113q109 0 148 -89h1v69q0 10 10 10h10q10 0 10 -10v-465q0 -95 -47.5 -142t-130.5 -47z"/>
<glyph glyph-name="Gbreve" unicode="Ğ" horiz-adv-x="602" d="M301 775q-45 0 -76.5 26t-39.5 68q-2 10 9 10h7q8 0 11 -10q19 -67 89 -67q71 0 90 67q3 10 11 10h6q11 0 9 -10q-8 -42 -39.5 -68t-76.5 -26zM89 138q-19 57 -19 202t19 202q48 148 212 148q145 0 202 -115q6 -11 -2 -15l-9 -5q-9 -4 -13 3q-56 103 -178 103 q-140 0 -182 -127q-18 -54 -18 -194t18 -194q42 -127 182 -127t182 127q18 54 18 151q0 6 -6 6h-173q-10 0 -10 10v9q0 10 10 10h200q10 0 10 -10v-32q0 -95 -19 -152q-48 -148 -212 -148t-212 148z"/>
<glyph glyph-name="gbreve" unicode="ğ" horiz-adv-x="517" d="M252 579q-45 0 -76.5 26t-39.5 68q-2 10 9 10h7q8 0 11 -10q19 -67 89 -67q71 0 90 67q3 10 11 10h6q11 0 9 -10q-8 -42 -39.5 -68t-76.5 -26zM241 18q102 0 133 95q13 38 13 124t-13 124q-31 95 -133 95q-99 0 -131 -94q-15 -45 -15 -125t15 -125q32 -94 131 -94z M239 -190q-50 0 -91 19.5t-59 48.5q-6 9 2 14l8 5q8 5 14 -3q43 -56 126 -56q148 0 148 161v80h-1q-39 -89 -148 -89q-120 0 -157 113q-16 48 -16 134t16 134q37 113 157 113q109 0 148 -89h1v69q0 10 10 10h10q10 0 10 -10v-465q0 -95 -47.5 -142t-130.5 -47z"/>
<glyph glyph-name="Gdotaccent" unicode="Ġ" horiz-adv-x="602" d="M313 795h-24q-10 0 -10 10v40q0 10 10 10h24q10 0 10 -10v-40q0 -10 -10 -10zM89 138q-19 57 -19 202t19 202q48 148 212 148q145 0 202 -115q6 -11 -2 -15l-9 -5q-9 -4 -13 3q-56 103 -178 103q-140 0 -182 -127q-18 -54 -18 -194t18 -194q42 -127 182 -127t182 127 q18 54 18 151q0 6 -6 6h-173q-10 0 -10 10v9q0 10 10 10h200q10 0 10 -10v-32q0 -95 -19 -152q-48 -148 -212 -148t-212 148z"/>
<glyph glyph-name="gdotaccent" unicode="ġ" horiz-adv-x="517" d="M265 620h-24q-10 0 -10 10v40q0 10 10 10h24q10 0 10 -10v-40q0 -10 -10 -10zM241 18q102 0 133 95q13 38 13 124t-13 124q-31 95 -133 95q-99 0 -131 -94q-15 -45 -15 -125t15 -125q32 -94 131 -94zM239 -190q-50 0 -91 19.5t-59 48.5q-6 9 2 14l8 5q8 5 14 -3 q43 -56 126 -56q148 0 148 161v80h-1q-39 -89 -148 -89q-120 0 -157 113q-16 48 -16 134t16 134q37 113 157 113q109 0 148 -89h1v69q0 10 10 10h10q10 0 10 -10v-465q0 -95 -47.5 -142t-130.5 -47z"/>
<glyph glyph-name="Gcommaaccent" unicode="Ģ" horiz-adv-x="602" d="M293 -183q-7 0 -7 9v109q0 10 9 10h11q9 0 9 -10v-64q0 -15 -5 -28l-7 -19q-3 -7 -10 -7zM89 138q-19 57 -19 202t19 202q48 148 212 148q145 0 202 -115q6 -11 -2 -15l-9 -5q-9 -4 -13 3q-56 103 -178 103q-140 0 -182 -127q-18 -54 -18 -194t18 -194q42 -127 182 -127 t182 127q18 54 18 151q0 6 -6 6h-173q-10 0 -10 10v9q0 10 10 10h200q10 0 10 -10v-32q0 -95 -19 -152q-48 -148 -212 -148t-212 148z"/>
<glyph glyph-name="gcommaaccent" unicode="ģ" horiz-adv-x="517" d="M257 700q7 0 7 -9v-109q0 -10 -9 -10h-11q-9 0 -9 10v64q0 16 5 28l7 19q3 7 10 7zM241 18q102 0 133 95q13 38 13 124t-13 124q-31 95 -133 95q-99 0 -131 -94q-15 -45 -15 -125t15 -125q32 -94 131 -94zM239 -190q-50 0 -91 19.5t-59 48.5q-6 9 2 14l8 5q8 5 14 -3 q43 -56 126 -56q148 0 148 161v80h-1q-39 -89 -148 -89q-120 0 -157 113q-16 48 -16 134t16 134q37 113 157 113q109 0 148 -89h1v69q0 10 10 10h10q10 0 10 -10v-465q0 -95 -47.5 -142t-130.5 -47z"/>
<glyph glyph-name="Hcircumflex" unicode="Ĥ" horiz-adv-x="647" d="M424 755h-8q-9 0 -16 10l-76 98h-2l-76 -98q-8 -10 -16 -10h-8q-4 0 -5.5 3t1.5 7l87 121q6 9 14 9h8q8 0 14 -9l87 -121q3 -4 1.5 -7t-5.5 -3zM102 10v660q0 10 10 10h11q10 0 10 -10v-304q0 -6 6 -6h369q6 0 6 6v304q0 10 10 10h11q10 0 10 -10v-660q0 -10 -10 -10h-11 q-10 0 -10 10v315q0 6 -6 6h-369q-6 0 -6 -6v-315q0 -10 -10 -10h-11q-10 0 -10 10z"/>
<glyph glyph-name="hcircumflex" unicode="ĥ" horiz-adv-x="538" d="M375 755h-8q-9 0 -16 10l-76 98h-2l-76 -98q-8 -10 -16 -10h-8q-5 0 -6 3t2 7l87 121q6 9 14 9h8q8 0 14 -9l87 -121q3 -4 2 -7t-6 -3zM434 0h-10q-10 0 -10 10v284q0 83 -34.5 122.5t-104.5 39.5q-62 0 -103.5 -39.5t-41.5 -107.5v-299q0 -10 -10 -10h-10q-10 0 -10 10 v660q0 10 10 10h10q10 0 10 -10v-273h1q18 41 56.5 64t89.5 23q81 0 124 -46t43 -137v-291q0 -10 -10 -10z"/>
<glyph glyph-name="Hbar" unicode="Ħ" horiz-adv-x="647" d="M508 360q6 0 6 6v131q0 6 -6 6h-369q-6 0 -6 -6v-131q0 -6 6 -6h369zM535 0h-11q-10 0 -10 10v315q0 6 -6 6h-369q-6 0 -6 -6v-315q0 -10 -10 -10h-11q-10 0 -10 10v487q0 6 -6 6h-42q-10 0 -10 10v7q0 10 10 10h42q6 0 6 6v134q0 10 10 10h11q10 0 10 -10v-134 q0 -6 6 -6h369q6 0 6 6v134q0 10 10 10h11q10 0 10 -10v-134q0 -6 6 -6h42q10 0 10 -10v-7q0 -10 -10 -10h-42q-6 0 -6 -6v-487q0 -10 -10 -10z"/>
<glyph glyph-name="hbar" unicode="ħ" horiz-adv-x="538" d="M434 0h-10q-10 0 -10 10v284q0 83 -34.5 122.5t-104.5 39.5q-62 0 -103.5 -39.5t-41.5 -107.5v-299q0 -10 -10 -10h-10q-10 0 -10 10v556q0 6 -6 6h-37q-10 0 -10 10v7q0 10 10 10h37q6 0 6 6v65q0 10 10 10h10q10 0 10 -10v-65q0 -6 6 -6h140q10 0 10 -10v-7 q0 -10 -10 -10h-140q-6 0 -6 -6v-169h1q18 41 56.5 64t89.5 23q81 0 124 -46t43 -137v-291q0 -10 -10 -10z"/>
<glyph glyph-name="Itilde" unicode="Ĩ" horiz-adv-x="235" d="M169 794q-23 0 -57 21q-28 18 -46 18q-24 0 -55 -34q-3 -3 -5.5 -2t-2.5 5v15q0 7 7 14q26 28 57 28q25 0 57 -21q27 -18 46 -18q24 0 55 34q3 3 5.5 2t2.5 -5v-15q0 -7 -7 -14q-26 -28 -57 -28zM102 10v660q0 10 10 10h11q10 0 10 -10v-660q0 -10 -10 -10h-11 q-10 0 -10 10z"/>
<glyph glyph-name="itilde" unicode="ĩ" horiz-adv-x="230" d="M166 613q-23 0 -57 21q-28 18 -46 18q-24 0 -55 -34q-3 -3 -5.5 -2t-2.5 5v15q0 7 7 14q26 28 57 28q25 0 57 -21q27 -18 46 -18q24 0 55 34q3 3 5.5 2t2.5 -5v-15q0 -7 -7 -14q-26 -28 -57 -28zM120 0h-10q-10 0 -10 10v454q0 10 10 10h10q10 0 10 -10v-454 q0 -10 -10 -10z"/>
<glyph glyph-name="Imacron" unicode="Ī" horiz-adv-x="235" d="M234 810h-232q-10 0 -10 10v8q0 10 10 10h232q10 0 10 -10v-8q0 -10 -10 -10zM102 10v660q0 10 10 10h11q10 0 10 -10v-660q0 -10 -10 -10h-11q-10 0 -10 10z"/>
<glyph glyph-name="imacron" unicode="ī" horiz-adv-x="230" d="M231 634h-232q-10 0 -10 10v8q0 10 10 10h232q10 0 10 -10v-8q0 -10 -10 -10zM120 0h-10q-10 0 -10 10v454q0 10 10 10h10q10 0 10 -10v-454q0 -10 -10 -10z"/>
<glyph glyph-name="Ibreve" unicode="Ĭ" horiz-adv-x="235" d="M118 775q-45 0 -76.5 26t-39.5 68q-2 10 9 10h7q8 0 11 -10q19 -67 89 -67q71 0 90 67q3 10 11 10h6q11 0 9 -10q-8 -42 -39.5 -68t-76.5 -26zM102 10v660q0 10 10 10h11q10 0 10 -10v-660q0 -10 -10 -10h-11q-10 0 -10 10z"/>
<glyph glyph-name="ibreve" unicode="ĭ" horiz-adv-x="230" d="M115 579q-45 0 -76.5 26t-39.5 68q-2 10 9 10h7q8 0 11 -10q19 -67 89 -67q71 0 90 67q3 10 11 10h6q11 0 9 -10q-8 -42 -39.5 -68t-76.5 -26zM120 0h-10q-10 0 -10 10v454q0 10 10 10h10q10 0 10 -10v-454q0 -10 -10 -10z"/>
<glyph glyph-name="Iogonek" unicode="Į" horiz-adv-x="235" d="M96 -162q-28 0 -43.5 15t-15.5 42q0 40 65 112v663q0 10 10 10h11q10 0 10 -10v-659q0 -6 -4 -10q-39 -44 -50.5 -65t-11.5 -39q0 -31 31 -31q12 0 30 11q9 5 14 -3l3 -5q5 -8 -3 -14q-19 -17 -46 -17z"/>
<glyph glyph-name="iogonek" unicode="į" horiz-adv-x="230" d="M92 -162q-28 0 -43.5 15t-15.5 42q0 23 13.5 46t53.5 66v457q0 10 10 10h10q10 0 10 -10v-454q0 -5 -4 -9q-40 -43 -51.5 -64t-11.5 -40q0 -31 31 -31q12 0 30 11q9 5 14 -3l3 -5q5 -8 -3 -14q-19 -17 -46 -17zM127 620h-24q-10 0 -10 10v40q0 10 10 10h24q10 0 10 -10 v-40q0 -10 -10 -10z"/>
<glyph glyph-name="Idotaccent" unicode="İ" horiz-adv-x="235" d="M130 795h-24q-10 0 -10 10v40q0 10 10 10h24q10 0 10 -10v-40q0 -10 -10 -10zM102 10v660q0 10 10 10h11q10 0 10 -10v-660q0 -10 -10 -10h-11q-10 0 -10 10z"/>
<glyph glyph-name="dotlessi" unicode="ı" horiz-adv-x="230" d="M120 0h-10q-10 0 -10 10v454q0 10 10 10h10q10 0 10 -10v-454q0 -10 -10 -10z"/>
<glyph glyph-name="Jcircumflex" unicode="Ĵ" horiz-adv-x="460" d="M448 755h-8q-9 0 -16 10l-76 98h-2l-76 -98q-8 -10 -16 -10h-8q-4 0 -5.5 3t1.5 7l87 121q6 9 14 9h8q8 0 14 -9l87 -121q3 -4 1.5 -7t-5.5 -3zM47 34q-8 5 -3 14l8 9q6 6 15 1q53 -39 114 -39q153 0 153 173v478q0 10 10 10h11q10 0 10 -10v-479q0 -102 -48.5 -151.5 t-135.5 -49.5q-76 0 -134 44z"/>
<glyph glyph-name="jcircumflex" unicode="ĵ" horiz-adv-x="230" d="M216 560h-8q-8 0 -16 10l-76 98h-2l-76 -98q-8 -10 -16 -10h-8q-4 0 -5.5 3t1.5 7l87 121q6 9 14 9h8q8 0 14 -9l87 -121q3 -4 1.5 -7t-5.5 -3zM23 -180h-4q-10 0 -10 10v8q0 10 10 10h4q46 0 61.5 16t15.5 65v535q0 10 10 10h10q10 0 10 -10v-535q0 -63 -23 -86t-84 -23 z"/>
<glyph glyph-name="Kcommaaccent" unicode="Ķ" horiz-adv-x="582" d="M283 -183q-7 0 -7 9v109q0 10 9 10h11q9 0 9 -10v-64q0 -15 -5 -28l-7 -19q-3 -7 -10 -7zM102 10v660q0 10 10 10h11q10 0 10 -10v-421l353 421q9 10 17 10h18q5 0 6.5 -3t-1.5 -7l-217 -258l231 -402q6 -10 -5 -10h-17q-8 0 -14 10l-217 377l-154 -184v-193 q0 -10 -10 -10h-11q-10 0 -10 10z"/>
<glyph glyph-name="kcommaaccent" unicode="ķ" horiz-adv-x="490" d="M237 -183q-7 0 -7 9v109q0 10 9 10h11q9 0 9 -10v-64q0 -15 -5 -28l-7 -19q-3 -7 -10 -7zM440 0h-13q-9 0 -15 10l-165 269l-117 -140v-129q0 -10 -10 -10h-10q-10 0 -10 10v660q0 10 10 10h10q10 0 10 -10v-488l237 283q8 9 16 9h15q5 0 6.5 -3t-1.5 -7l-136 -162 l179 -292q2 -4 0 -7t-6 -3z"/>
<glyph glyph-name="kgreenlandic" unicode="ĸ" horiz-adv-x="490" d="M440 0h-13q-9 0 -15 10l-165 269l-117 -140v-129q0 -10 -10 -10h-10q-10 0 -10 10v454q0 10 10 10h10q10 0 10 -10v-282l237 283q8 9 16 9h15q5 0 6.5 -3t-1.5 -7l-136 -162l179 -292q2 -4 0 -7t-6 -3z"/>
<glyph glyph-name="Lacute" unicode="Ĺ" horiz-adv-x="524" d="M111 765h-7q-12 0 -4 10l80 103q9 10 17 10h15q4 0 5.5 -3t-1.5 -7l-87 -103q-9 -10 -18 -10zM102 10v660q0 10 10 10h11q10 0 10 -10v-635q0 -6 6 -6h347q10 0 10 -10v-9q0 -10 -10 -10h-374q-10 0 -10 10z"/>
<glyph glyph-name="lacute" unicode="ĺ" horiz-adv-x="249" d="M120 765h-7q-12 0 -4 10l80 103q9 10 17 10h15q5 0 6 -3t-2 -7l-87 -103q-9 -10 -18 -10zM199 -2h-15q-46 0 -65.5 23t-19.5 76v573q0 10 10 10h10q10 0 10 -10v-573q0 -40 12.5 -55.5t42.5 -15.5h15q10 0 10 -10v-8q0 -10 -10 -10z"/>
<glyph glyph-name="Lcommaaccent" unicode="Ļ" horiz-adv-x="524" d="M297 -183q-7 0 -7 9v109q0 10 9 10h11q9 0 9 -10v-64q0 -15 -5 -28l-7 -19q-3 -7 -10 -7zM102 10v660q0 10 10 10h11q10 0 10 -10v-635q0 -6 6 -6h347q10 0 10 -10v-9q0 -10 -10 -10h-374q-10 0 -10 10z"/>
<glyph glyph-name="lcommaaccent" unicode="ļ" horiz-adv-x="249" d="M147 -183q-7 0 -7 9v109q0 10 9 10h11q9 0 9 -10v-64q0 -15 -5 -28l-7 -19q-3 -7 -10 -7zM199 -2h-15q-46 0 -65.5 23t-19.5 76v573q0 10 10 10h10q10 0 10 -10v-573q0 -40 12.5 -55.5t42.5 -15.5h15q10 0 10 -10v-8q0 -10 -10 -10z"/>
<glyph glyph-name="Lcaron" unicode="Ľ" horiz-adv-x="524" d="M255 552q-7 0 -7 9v109q0 10 9 10h11q9 0 9 -10v-64q0 -16 -5 -28l-7 -19q-3 -7 -10 -7zM102 10v660q0 10 10 10h11q10 0 10 -10v-635q0 -6 6 -6h347q10 0 10 -10v-9q0 -10 -10 -10h-374q-10 0 -10 10z"/>
<glyph glyph-name="lcaron" unicode="ľ" horiz-adv-x="249" d="M192 552q-7 0 -7 9v109q0 10 9 10h11q9 0 9 -10v-64q0 -16 -5 -28l-7 -19q-4 -7 -10 -7zM199 -2h-15q-46 0 -65.5 23t-19.5 76v573q0 10 10 10h10q10 0 10 -10v-573q0 -40 12.5 -55.5t42.5 -15.5h15q10 0 10 -10v-8q0 -10 -10 -10z"/>
<glyph glyph-name="Ldot" unicode="Ŀ" horiz-adv-x="524" d="M393 292h-28q-10 0 -10 10v50q0 10 10 10h28q10 0 10 -10v-50q0 -10 -10 -10zM102 10v660q0 10 10 10h11q10 0 10 -10v-635q0 -6 6 -6h347q10 0 10 -10v-9q0 -10 -10 -10h-374q-10 0 -10 10z"/>
<glyph glyph-name="ldot" unicode="ŀ" horiz-adv-x="249" d="M252 291h-28q-10 0 -10 10v50q0 10 10 10h28q10 0 10 -10v-50q0 -10 -10 -10zM199 -2h-15q-46 0 -65.5 23t-19.5 76v573q0 10 10 10h10q10 0 10 -10v-573q0 -40 12.5 -55.5t42.5 -15.5h15q10 0 10 -10v-8q0 -10 -10 -10z"/>
<glyph glyph-name="Lslash" unicode="Ł" horiz-adv-x="524" d="M486 0h-374q-10 0 -10 10v297l-59 -30q-10 -5 -10 6v12q0 9 10 14l59 30v331q0 10 10 10h11q10 0 10 -10v-315l171 87q10 5 10 -6v-12q0 -9 -10 -14l-171 -87v-288q0 -6 6 -6h347q10 0 10 -10v-9q0 -10 -10 -10z"/>
<glyph glyph-name="lslash" unicode="ł" horiz-adv-x="249" d="M199 392l-70 -36v-259q0 -40 12.5 -55.5t42.5 -15.5h15q10 0 10 -10v-8q0 -10 -10 -10h-15q-46 0 -65.5 23t-19.5 76v244l-41 -21q-10 -5 -10 6v12q0 9 10 14l41 21v297q0 10 10 10h10q10 0 10 -10v-282l70 36q10 5 10 -6v-12q0 -9 -10 -14z"/>
<glyph glyph-name="Nacute" unicode="Ń" horiz-adv-x="648" d="M298 765h-7q-12 0 -4 10l80 103q9 10 17 10h15q5 0 6 -3t-2 -7l-87 -103q-9 -10 -18 -10zM102 10v660q0 10 10 10h9q11 0 17 -10l374 -603h3v603q0 10 10 10h11q10 0 10 -10v-660q0 -10 -10 -10h-9q-11 0 -17 10l-374 603h-3v-603q0 -10 -10 -10h-11q-10 0 -10 10z"/>
<glyph glyph-name="nacute" unicode="ń" horiz-adv-x="538" d="M239 560h-7q-12 0 -5 10l78 120q6 10 16 10h15q5 0 6.5 -3t-1.5 -7l-85 -120q-8 -10 -17 -10zM434 0h-10q-10 0 -10 10v284q0 83 -34.5 122.5t-104.5 39.5q-62 0 -103.5 -39.5t-41.5 -107.5v-299q0 -10 -10 -10h-10q-10 0 -10 10v454q0 10 10 10h10q10 0 10 -10v-67h1 q18 41 56.5 64t89.5 23q81 0 124 -46t43 -137v-291q0 -10 -10 -10z"/>
<glyph glyph-name="Ncommaaccent" unicode="Ņ" horiz-adv-x="648" d="M326 -183q-7 0 -7 9v109q0 10 9 10h11q9 0 9 -10v-64q0 -15 -5 -28l-7 -19q-4 -7 -10 -7zM102 10v660q0 10 10 10h9q11 0 17 -10l374 -603h3v603q0 10 10 10h11q10 0 10 -10v-660q0 -10 -10 -10h-9q-11 0 -17 10l-374 603h-3v-603q0 -10 -10 -10h-11q-10 0 -10 10z"/>
<glyph glyph-name="ncommaaccent" unicode="ņ" horiz-adv-x="538" d="M261 -183q-7 0 -7 9v109q0 10 9 10h11q9 0 9 -10v-64q0 -15 -5 -28l-7 -19q-3 -7 -10 -7zM434 0h-10q-10 0 -10 10v284q0 83 -34.5 122.5t-104.5 39.5q-62 0 -103.5 -39.5t-41.5 -107.5v-299q0 -10 -10 -10h-10q-10 0 -10 10v454q0 10 10 10h10q10 0 10 -10v-67h1 q18 41 56.5 64t89.5 23q81 0 124 -46t43 -137v-291q0 -10 -10 -10z"/>
<glyph glyph-name="Ncaron" unicode="Ň" horiz-adv-x="648" d="M328 755h-8q-8 0 -14 9l-87 121q-3 4 -2 7t6 3h8q9 0 16 -10l76 -98h2l76 98q7 10 16 10h8q5 0 6 -3t-2 -7l-87 -121q-6 -9 -14 -9zM102 10v660q0 10 10 10h9q11 0 17 -10l374 -603h3v603q0 10 10 10h11q10 0 10 -10v-660q0 -10 -10 -10h-9q-11 0 -17 10l-374 603h-3 v-603q0 -10 -10 -10h-11q-10 0 -10 10z"/>
<glyph glyph-name="ncaron" unicode="ň" horiz-adv-x="538" d="M273 560h-8q-8 0 -14 9l-87 121q-3 4 -1.5 7t5.5 3h8q8 0 16 -10l76 -98h2l76 98q8 10 16 10h8q4 0 5.5 -3t-1.5 -7l-87 -121q-6 -9 -14 -9zM434 0h-10q-10 0 -10 10v284q0 83 -34.5 122.5t-104.5 39.5q-62 0 -103.5 -39.5t-41.5 -107.5v-299q0 -10 -10 -10h-10 q-10 0 -10 10v454q0 10 10 10h10q10 0 10 -10v-67h1q18 41 56.5 64t89.5 23q81 0 124 -46t43 -137v-291q0 -10 -10 -10z"/>
<glyph glyph-name="Eng" unicode="Ŋ" horiz-adv-x="648" d="M415 -180h-7q-10 0 -10 10v9q0 10 10 10h7q53 0 76.5 24t23.5 81v47l-379 612h-3v-603q0 -10 -10 -10h-11q-10 0 -10 10v660q0 10 10 10h10q11 0 17 -10l373 -603h3v603q0 10 10 10h11q10 0 10 -10v-714q0 -72 -31 -104t-100 -32z"/>
<glyph glyph-name="eng" unicode="ŋ" horiz-adv-x="538" d="M337 -180h-4q-10 0 -10 10v8q0 10 10 10h4q46 0 61.5 16t15.5 65v365q0 83 -34.5 122.5t-104.5 39.5q-62 0 -103.5 -39.5t-41.5 -107.5v-299q0 -10 -10 -10h-10q-10 0 -10 10v454q0 10 10 10h10q10 0 10 -10v-67h1q18 41 56.5 64t89.5 23q81 0 124 -46t43 -137v-372 q0 -63 -23 -86t-84 -23z"/>
<glyph glyph-name="Omacron" unicode="Ō" horiz-adv-x="602" d="M417 810h-232q-10 0 -10 10v8q0 10 10 10h232q10 0 10 -10v-8q0 -10 -10 -10zM301 19q139 0 181 127q19 57 19 194t-19 194q-42 127 -181 127t-181 -127q-19 -57 -19 -194t19 -194q42 -127 181 -127zM301 -10q-163 0 -211 148q-20 60 -20 202t20 202q48 148 211 148 t211 -148q20 -60 20 -202t-20 -202q-48 -148 -211 -148z"/>
<glyph glyph-name="omacron" unicode="ō" horiz-adv-x="502" d="M367 634h-232q-10 0 -10 10v8q0 10 10 10h232q10 0 10 -10v-8q0 -10 -10 -10zM251 18q52 0 89 26.5t53 75.5q14 44 14 117t-14 117q-16 49 -53 75.5t-89 26.5t-89 -26.5t-53 -75.5q-14 -44 -14 -117t14 -117q16 -49 53 -75.5t89 -26.5zM251 -10q-63 0 -107 31.5t-63 88.5 q-16 50 -16 127t16 127q19 57 63 88.5t107 31.5t107 -31.5t63 -88.5q16 -50 16 -127t-16 -127q-19 -57 -63 -88.5t-107 -31.5z"/>
<glyph glyph-name="Obreve" unicode="Ŏ" horiz-adv-x="602" d="M301 775q-45 0 -76.5 26t-39.5 68q-2 10 9 10h7q8 0 11 -10q19 -67 89 -67q71 0 90 67q3 10 11 10h6q11 0 9 -10q-8 -42 -39.5 -68t-76.5 -26zM301 19q139 0 181 127q19 57 19 194t-19 194q-42 127 -181 127t-181 -127q-19 -57 -19 -194t19 -194q42 -127 181 -127z M301 -10q-163 0 -211 148q-20 60 -20 202t20 202q48 148 211 148t211 -148q20 -60 20 -202t-20 -202q-48 -148 -211 -148z"/>
<glyph glyph-name="obreve" unicode="ŏ" horiz-adv-x="502" d="M251 579q-45 0 -76.5 26t-39.5 68q-2 10 9 10h7q8 0 11 -10q19 -67 89 -67q71 0 90 67q3 10 11 10h6q11 0 9 -10q-8 -42 -39.5 -68t-76.5 -26zM251 18q52 0 89 26.5t53 75.5q14 44 14 117t-14 117q-16 49 -53 75.5t-89 26.5t-89 -26.5t-53 -75.5q-14 -44 -14 -117 t14 -117q16 -49 53 -75.5t89 -26.5zM251 -10q-63 0 -107 31.5t-63 88.5q-16 50 -16 127t16 127q19 57 63 88.5t107 31.5t107 -31.5t63 -88.5q16 -50 16 -127t-16 -127q-19 -57 -63 -88.5t-107 -31.5z"/>
<glyph glyph-name="Ohungarumlaut" unicode="Ő" horiz-adv-x="602" d="M253 765h-8q-11 0 -4 10l68 103q7 10 16 10h14q5 0 6 -3t-2 -7l-75 -104q-6 -9 -15 -9zM363 765h-8q-11 0 -4 10l68 103q7 10 16 10h14q5 0 6 -3t-2 -7l-75 -104q-6 -9 -15 -9zM301 19q139 0 181 127q19 57 19 194t-19 194q-42 127 -181 127t-181 -127q-19 -57 -19 -194 t19 -194q42 -127 181 -127zM301 -10q-163 0 -211 148q-20 60 -20 202t20 202q48 148 211 148t211 -148q20 -60 20 -202t-20 -202q-48 -148 -211 -148z"/>
<glyph glyph-name="ohungarumlaut" unicode="ő" horiz-adv-x="502" d="M201 560h-7q-10 0 -5 10l68 120q6 10 16 10h13q11 0 5 -10l-76 -122q-5 -8 -14 -8zM311 560h-7q-10 0 -5 10l68 120q6 10 16 10h13q11 0 5 -10l-76 -122q-5 -8 -14 -8zM251 18q52 0 89 26.5t53 75.5q14 44 14 117t-14 117q-16 49 -53 75.5t-89 26.5t-89 -26.5t-53 -75.5 q-14 -44 -14 -117t14 -117q16 -49 53 -75.5t89 -26.5zM251 -10q-63 0 -107 31.5t-63 88.5q-16 50 -16 127t16 127q19 57 63 88.5t107 31.5t107 -31.5t63 -88.5q16 -50 16 -127t-16 -127q-19 -57 -63 -88.5t-107 -31.5z"/>
<glyph glyph-name="OE" unicode="Œ" horiz-adv-x="949" d="M301 19q139 0 181 127q19 57 19 194t-19 194q-42 127 -181 127t-181 -127q-19 -57 -19 -194t19 -194q42 -127 181 -127zM885 0h-374q-10 0 -10 10v106h-1q-52 -126 -199 -126q-163 0 -211 148q-20 60 -20 202t20 202q48 148 211 148q147 0 199 -126h1v106q0 10 10 10h374 q10 0 10 -10v-9q0 -10 -10 -10h-347q-6 0 -6 -6v-279q0 -6 6 -6h300q10 0 10 -10v-9q0 -10 -10 -10h-300q-6 0 -6 -6v-290q0 -6 6 -6h347q10 0 10 -10v-9q0 -10 -10 -10z"/>
<glyph glyph-name="oe" unicode="œ" horiz-adv-x="836" d="M251 18q52 0 89 26.5t53 75.5q14 44 14 117t-14 117q-16 49 -53 75.5t-89 26.5t-89 -26.5t-53 -75.5q-14 -44 -14 -117t14 -117q16 -49 53 -75.5t89 -26.5zM735 264q6 0 6 6q0 47 -11 83q-33 103 -141 103t-141 -103q-11 -36 -11 -83q0 -6 6 -6h292zM595 -10 q-132 0 -173 118h-1q-19 -56 -63 -87t-107 -31t-107 31.5t-63 88.5q-16 50 -16 127t16 127q19 57 63 88.5t107 31.5q62 0 106.5 -31.5t63.5 -87.5h1q20 58 63.5 88.5t103.5 30.5q129 0 168 -120q14 -42 14 -118q0 -10 -11 -10h-317q-6 0 -6 -7q0 -68 12 -107 q35 -104 146 -104q93 0 143 69q6 8 14 2l6 -5q7 -6 1 -14q-56 -80 -164 -80z"/>
<glyph glyph-name="Racute" unicode="Ŕ" horiz-adv-x="613" d="M270 765h-7q-12 0 -4 10l80 103q9 10 17 10h15q5 0 6 -3t-2 -7l-87 -103q-9 -10 -18 -10zM325 347q85 0 128.5 39t43.5 113t-43.5 113t-128.5 39h-186q-6 0 -6 -6v-292q0 -6 6 -6h186zM530 0h-17q-8 0 -12 9l-149 310q-9 -1 -27 -1h-186q-6 0 -6 -6v-302q0 -10 -10 -10 h-11q-10 0 -10 10v660q0 10 10 10h213q97 0 150 -47.5t53 -133.5q0 -72 -37.5 -117t-107.5 -59l152 -313q6 -10 -5 -10z"/>
<glyph glyph-name="racute" unicode="ŕ" horiz-adv-x="384" d="M189 560h-7q-12 0 -5 10l78 120q6 10 16 10h15q5 0 6.5 -3t-1.5 -7l-85 -120q-8 -10 -17 -10zM120 0h-10q-10 0 -10 10v454q0 10 10 10h10q10 0 10 -10v-71h1q12 41 45 66t84 25q55 0 94 -29q7 -5 2 -13l-6 -8q-6 -7 -15 -2q-39 24 -79 24q-65 0 -95.5 -51.5 t-30.5 -129.5v-265q0 -10 -10 -10z"/>
<glyph glyph-name="Rcommaaccent" unicode="Ŗ" horiz-adv-x="613" d="M298 -183q-7 0 -7 9v109q0 10 9 10h11q9 0 9 -10v-64q0 -15 -5 -28l-7 -19q-4 -7 -10 -7zM325 347q85 0 128.5 39t43.5 113t-43.5 113t-128.5 39h-186q-6 0 -6 -6v-292q0 -6 6 -6h186zM530 0h-17q-8 0 -12 9l-149 310q-9 -1 -27 -1h-186q-6 0 -6 -6v-302q0 -10 -10 -10 h-11q-10 0 -10 10v660q0 10 10 10h213q97 0 150 -47.5t53 -133.5q0 -72 -37.5 -117t-107.5 -59l152 -313q6 -10 -5 -10z"/>
<glyph glyph-name="rcommaaccent" unicode="ŗ" horiz-adv-x="384" d="M107 -183q-7 0 -7 9v109q0 10 9 10h11q9 0 9 -10v-64q0 -15 -5 -28l-7 -19q-3 -7 -10 -7zM120 0h-10q-10 0 -10 10v454q0 10 10 10h10q10 0 10 -10v-71h1q12 41 45 66t84 25q55 0 94 -29q7 -5 2 -13l-6 -8q-6 -7 -15 -2q-39 24 -79 24q-65 0 -95.5 -51.5t-30.5 -129.5 v-265q0 -10 -10 -10z"/>
<glyph glyph-name="Rcaron" unicode="Ř" horiz-adv-x="613" d="M290 755h-8q-8 0 -14 9l-87 121q-3 4 -2 7t6 3h8q8 0 16 -10l76 -98h2l76 98q7 10 16 10h8q5 0 6 -3t-2 -7l-87 -121q-6 -9 -14 -9zM325 347q85 0 128.5 39t43.5 113t-43.5 113t-128.5 39h-186q-6 0 -6 -6v-292q0 -6 6 -6h186zM530 0h-17q-8 0 -12 9l-149 310 q-9 -1 -27 -1h-186q-6 0 -6 -6v-302q0 -10 -10 -10h-11q-10 0 -10 10v660q0 10 10 10h213q97 0 150 -47.5t53 -133.5q0 -72 -37.5 -117t-107.5 -59l152 -313q6 -10 -5 -10z"/>
<glyph glyph-name="rcaron" unicode="ř" horiz-adv-x="384" d="M225 560h-8q-8 0 -14 9l-87 121q-3 4 -1.5 7t5.5 3h8q8 0 16 -10l76 -98h2l76 98q8 10 16 10h8q4 0 5.5 -3t-1.5 -7l-87 -121q-6 -9 -14 -9zM120 0h-10q-10 0 -10 10v454q0 10 10 10h10q10 0 10 -10v-71h1q12 41 45 66t84 25q55 0 94 -29q7 -5 2 -13l-6 -8q-6 -7 -15 -2 q-39 24 -79 24q-65 0 -95.5 -51.5t-30.5 -129.5v-265q0 -10 -10 -10z"/>
<glyph glyph-name="Sacute" unicode="Ś" horiz-adv-x="600" d="M281 765h-7q-12 0 -4 10l80 103q9 10 17 10h15q4 0 5.5 -3t-1.5 -7l-87 -103q-9 -10 -18 -10zM291 -10q-60 0 -119.5 22t-94.5 52q-7 8 -1 14l8 9q6 7 14 1q88 -69 199 -69q90 0 142.5 43t52.5 116q0 62 -39.5 99.5t-137.5 50.5l-30 4q-192 26 -192 173q0 86 55.5 135.5 t150.5 49.5q107 0 183 -52q9 -5 2 -14l-7 -9q-6 -7 -14 -2q-81 48 -166 48q-81 0 -127 -42t-46 -111q0 -63 41.5 -100t136.5 -49l30 -4q191 -25 191 -174q0 -87 -60 -139t-172 -52z"/>
<glyph glyph-name="sacute" unicode="ś" horiz-adv-x="475" d="M226 560h-7q-12 0 -5 10l78 120q6 10 16 10h15q5 0 6.5 -3t-1.5 -7l-85 -120q-7 -10 -17 -10zM239 -10q-99 0 -178 63q-7 7 0 14l7 7q6 6 14 0q73 -56 162 -56q68 0 103.5 29.5t35.5 79.5q0 46 -25.5 69t-96.5 31l-47 5q-134 14 -134 119q0 63 42.5 98t117.5 35 q79 0 148 -40q9 -5 2 -14l-4 -6q-5 -8 -14 -3q-70 35 -135 35q-62 0 -94.5 -27t-32.5 -75q0 -43 28.5 -65.5t94.5 -29.5l47 -5q133 -13 133 -122q0 -67 -45 -104.5t-129 -37.5z"/>
<glyph glyph-name="Scircumflex" unicode="Ŝ" horiz-adv-x="600" d="M399 755h-8q-9 0 -16 10l-76 98h-2l-76 -98q-8 -10 -16 -10h-8q-5 0 -6 3t2 7l87 121q6 9 14 9h8q8 0 14 -9l87 -121q3 -4 2 -7t-6 -3zM291 -10q-60 0 -119.5 22t-94.5 52q-7 8 -1 14l8 9q6 7 14 1q88 -69 199 -69q90 0 142.5 43t52.5 116q0 62 -39.5 99.5t-137.5 50.5 l-30 4q-192 26 -192 173q0 86 55.5 135.5t150.5 49.5q107 0 183 -52q9 -5 2 -14l-7 -9q-6 -7 -14 -2q-81 48 -166 48q-81 0 -127 -42t-46 -111q0 -63 41.5 -100t136.5 -49l30 -4q191 -25 191 -174q0 -87 -60 -139t-172 -52z"/>
<glyph glyph-name="scircumflex" unicode="ŝ" horiz-adv-x="475" d="M341 560h-8q-9 0 -16 10l-76 98h-2l-76 -98q-7 -10 -16 -10h-8q-5 0 -6 3t2 7l87 121q6 9 14 9h8q8 0 14 -9l87 -121q3 -4 2 -7t-6 -3zM239 -10q-99 0 -178 63q-7 7 0 14l7 7q6 6 14 0q73 -56 162 -56q68 0 103.5 29.5t35.5 79.5q0 46 -25.5 69t-96.5 31l-47 5 q-134 14 -134 119q0 63 42.5 98t117.5 35q79 0 148 -40q9 -5 2 -14l-4 -6q-5 -8 -14 -3q-70 35 -135 35q-62 0 -94.5 -27t-32.5 -75q0 -43 28.5 -65.5t94.5 -29.5l47 -5q133 -13 133 -122q0 -67 -45 -104.5t-129 -37.5z"/>
<glyph glyph-name="Scedilla" unicode="Ş" horiz-adv-x="600" d="M259 -145h-11q-10 0 -7 10l48 125q-61 1 -119.5 22.5t-92.5 51.5q-7 8 -1 14l8 9q6 7 14 1q88 -69 199 -69q90 0 142.5 43t52.5 116q0 62 -39.5 99.5t-137.5 50.5l-30 4q-192 26 -192 173q0 86 55.5 135.5t150.5 49.5q107 0 183 -52q9 -5 2 -14l-7 -9q-6 -7 -14 -2 q-81 48 -166 48q-81 0 -127 -42t-46 -111q0 -63 41.5 -100t136.5 -49l30 -4q191 -25 191 -174q0 -81 -53 -132t-152 -58l-43 -126q-4 -10 -16 -10z"/>
<glyph glyph-name="scedilla" unicode="ş" horiz-adv-x="475" d="M202 -145h-11q-10 0 -7 10l48 125q-95 2 -171 63q-7 7 0 14l7 7q6 6 14 0q73 -56 162 -56q68 0 103.5 29.5t35.5 79.5q0 46 -25.5 69t-96.5 31l-47 5q-134 14 -134 119q0 63 42.5 98t117.5 35q79 0 148 -40q9 -5 2 -14l-4 -6q-5 -8 -14 -3q-70 35 -135 35 q-62 0 -94.5 -27t-32.5 -75q0 -43 28.5 -65.5t94.5 -29.5l47 -5q133 -13 133 -122q0 -62 -39 -99t-113 -42l-43 -126q-4 -10 -16 -10z"/>
<glyph glyph-name="Scaron" unicode="Š" horiz-adv-x="600" d="M302 755h-8q-8 0 -14 9l-87 121q-3 4 -2 7t6 3h8q8 0 16 -10l76 -98h2l76 98q7 10 16 10h8q5 0 6 -3t-2 -7l-87 -121q-6 -9 -14 -9zM291 -10q-60 0 -119.5 22t-94.5 52q-7 8 -1 14l8 9q6 7 14 1q88 -69 199 -69q90 0 142.5 43t52.5 116q0 62 -39.5 99.5t-137.5 50.5 l-30 4q-192 26 -192 173q0 86 55.5 135.5t150.5 49.5q107 0 183 -52q9 -5 2 -14l-7 -9q-6 -7 -14 -2q-81 48 -166 48q-81 0 -127 -42t-46 -111q0 -63 41.5 -100t136.5 -49l30 -4q191 -25 191 -174q0 -87 -60 -139t-172 -52z"/>
<glyph glyph-name="scaron" unicode="š" horiz-adv-x="475" d="M243 560h-8q-8 0 -14 9l-87 121q-3 4 -1.5 7t5.5 3h8q8 0 16 -10l76 -98h2l76 98q8 10 16 10h8q4 0 5.5 -3t-1.5 -7l-87 -121q-6 -9 -14 -9zM239 -10q-99 0 -178 63q-7 7 0 14l7 7q6 6 14 0q73 -56 162 -56q68 0 103.5 29.5t35.5 79.5q0 46 -25.5 69t-96.5 31l-47 5 q-134 14 -134 119q0 63 42.5 98t117.5 35q79 0 148 -40q9 -5 2 -14l-4 -6q-5 -8 -14 -3q-70 35 -135 35q-62 0 -94.5 -27t-32.5 -75q0 -43 28.5 -65.5t94.5 -29.5l47 -5q133 -13 133 -122q0 -67 -45 -104.5t-129 -37.5z"/>
<glyph glyph-name="Tcommaaccent" unicode="Ţ" horiz-adv-x="513" d="M248 -183q-7 0 -7 9v109q0 10 9 10h11q9 0 9 -10v-64q0 -15 -5 -28l-7 -19q-4 -7 -10 -7zM262 0h-11q-10 0 -10 10v635q0 6 -6 6h-203q-10 0 -10 10v9q0 10 10 10h449q10 0 10 -10v-9q0 -10 -10 -10h-203q-6 0 -6 -6v-635q0 -10 -10 -10z"/>
<glyph glyph-name="tcommaaccent" unicode="ţ" horiz-adv-x="306" d="M172 -183q-7 0 -7 9v109q0 10 9 10h11q9 0 9 -10v-64q0 -15 -5 -28l-7 -19q-4 -7 -10 -7zM252 -2h-17q-66 0 -92.5 27t-26.5 97v318q0 6 -6 6h-58q-10 0 -10 10v8q0 10 10 10h58q6 0 6 6v140q0 10 10 10h10q10 0 10 -10v-140q0 -6 6 -6h100q10 0 10 -10v-8q0 -10 -10 -10 h-100q-6 0 -6 -6v-316q0 -58 19.5 -78t70.5 -20h16q10 0 10 -10v-8q0 -10 -10 -10z"/>
<glyph glyph-name="Tcaron" unicode="Ť" horiz-adv-x="513" d="M260 755h-8q-8 0 -14 9l-87 121q-3 4 -2 7t6 3h8q9 0 16 -10l76 -98h2l76 98q7 10 16 10h8q5 0 6 -3t-2 -7l-87 -121q-6 -9 -14 -9zM262 0h-11q-10 0 -10 10v635q0 6 -6 6h-203q-10 0 -10 10v9q0 10 10 10h449q10 0 10 -10v-9q0 -10 -10 -10h-203q-6 0 -6 -6v-635 q0 -10 -10 -10z"/>
<glyph glyph-name="tcaron" unicode="ť" horiz-adv-x="306" d="M235 552q-7 0 -7 9v109q0 10 9 10h11q9 0 9 -10v-64q0 -16 -5 -28l-7 -19q-3 -7 -10 -7zM252 -2h-17q-66 0 -92.5 27t-26.5 97v318q0 6 -6 6h-58q-10 0 -10 10v8q0 10 10 10h58q6 0 6 6v140q0 10 10 10h10q10 0 10 -10v-140q0 -6 6 -6h100q10 0 10 -10v-8q0 -10 -10 -10 h-100q-6 0 -6 -6v-316q0 -58 19.5 -78t70.5 -20h16q10 0 10 -10v-8q0 -10 -10 -10z"/>
<glyph glyph-name="Tbar" unicode="Ŧ" horiz-adv-x="513" d="M262 0h-11q-10 0 -10 10v415q0 6 -6 6h-107q-10 0 -10 10v8q0 10 10 10h107q6 0 6 6v180q0 6 -6 6h-203q-10 0 -10 10v9q0 10 10 10h449q10 0 10 -10v-9q0 -10 -10 -10h-203q-6 0 -6 -6v-180q0 -6 6 -6h107q10 0 10 -10v-8q0 -10 -10 -10h-107q-6 0 -6 -6v-415 q0 -10 -10 -10z"/>
<glyph glyph-name="tbar" unicode="ŧ" horiz-adv-x="306" d="M252 -2h-17q-66 0 -92.5 27t-26.5 97v201q0 6 -6 6h-48q-10 0 -10 10v7q0 10 10 10h48q6 0 6 6v78q0 6 -6 6h-58q-10 0 -10 10v8q0 10 10 10h58q6 0 6 6v140q0 10 10 10h10q10 0 10 -10v-140q0 -6 6 -6h100q10 0 10 -10v-8q0 -10 -10 -10h-100q-6 0 -6 -6v-78q0 -6 6 -6 h86q10 0 10 -10v-7q0 -10 -10 -10h-86q-6 0 -6 -6v-199q0 -58 19.5 -78t70.5 -20h16q10 0 10 -10v-8q0 -10 -10 -10z"/>
<glyph glyph-name="Utilde" unicode="Ũ" horiz-adv-x="632" d="M367 794q-23 0 -57 21q-28 18 -46 18q-24 0 -55 -34q-3 -3 -5.5 -2t-2.5 5v15q0 7 7 14q26 28 57 28q25 0 57 -21q27 -18 46 -18q24 0 55 34q3 3 5.5 2t2.5 -5v-15q0 -7 -7 -14q-26 -28 -57 -28zM316 -10q-222 0 -222 243v437q0 10 10 10h11q10 0 10 -10v-438 q0 -106 49 -159.5t142 -53.5q191 0 191 213v438q0 10 10 10h11q10 0 10 -10v-437q0 -121 -57 -182t-165 -61z"/>
<glyph glyph-name="utilde" unicode="ũ" horiz-adv-x="531" d="M316 613q-23 0 -57 21q-28 18 -46 18q-24 0 -55 -34q-3 -3 -5.5 -2t-2.5 5v15q0 7 7 14q26 28 57 28q26 0 57 -21q27 -18 46 -18q24 0 55 34q3 3 5.5 2t2.5 -5v-15q0 -7 -7 -14q-26 -28 -57 -28zM421 0h-10q-10 0 -10 10v67h-1q-17 -41 -55.5 -64t-88.5 -23 q-165 0 -165 183v291q0 10 10 10h10q10 0 10 -10v-284q0 -84 33.5 -123t103.5 -39q61 0 102 39.5t41 107.5v299q0 10 10 10h10q10 0 10 -10v-454q0 -10 -10 -10z"/>
<glyph glyph-name="Umacron" unicode="Ū" horiz-adv-x="632" d="M432 810h-232q-10 0 -10 10v8q0 10 10 10h232q10 0 10 -10v-8q0 -10 -10 -10zM316 -10q-222 0 -222 243v437q0 10 10 10h11q10 0 10 -10v-438q0 -106 49 -159.5t142 -53.5q191 0 191 213v438q0 10 10 10h11q10 0 10 -10v-437q0 -121 -57 -182t-165 -61z"/>
<glyph glyph-name="umacron" unicode="ū" horiz-adv-x="531" d="M381 634h-232q-10 0 -10 10v8q0 10 10 10h232q10 0 10 -10v-8q0 -10 -10 -10zM421 0h-10q-10 0 -10 10v67h-1q-17 -41 -55.5 -64t-88.5 -23q-165 0 -165 183v291q0 10 10 10h10q10 0 10 -10v-284q0 -84 33.5 -123t103.5 -39q61 0 102 39.5t41 107.5v299q0 10 10 10h10 q10 0 10 -10v-454q0 -10 -10 -10z"/>
<glyph glyph-name="Ubreve" unicode="Ŭ" horiz-adv-x="632" d="M316 775q-45 0 -76.5 26t-39.5 68q-2 10 9 10h7q8 0 11 -10q19 -67 89 -67q71 0 90 67q3 10 11 10h6q11 0 9 -10q-8 -42 -39.5 -68t-76.5 -26zM316 -10q-222 0 -222 243v437q0 10 10 10h11q10 0 10 -10v-438q0 -106 49 -159.5t142 -53.5q191 0 191 213v438q0 10 10 10h11 q10 0 10 -10v-437q0 -121 -57 -182t-165 -61z"/>
<glyph glyph-name="ubreve" unicode="ŭ" horiz-adv-x="531" d="M265 579q-45 0 -76.5 26t-39.5 68q-2 10 9 10h7q8 0 11 -10q19 -67 89 -67q71 0 90 67q3 10 11 10h6q11 0 9 -10q-8 -42 -39.5 -68t-76.5 -26zM421 0h-10q-10 0 -10 10v67h-1q-17 -41 -55.5 -64t-88.5 -23q-165 0 -165 183v291q0 10 10 10h10q10 0 10 -10v-284 q0 -84 33.5 -123t103.5 -39q61 0 102 39.5t41 107.5v299q0 10 10 10h10q10 0 10 -10v-454q0 -10 -10 -10z"/>
<glyph glyph-name="Uring" unicode="Ů" horiz-adv-x="632" d="M316 772q25 0 40.5 16t15.5 41t-15.5 41t-40.5 16t-40.5 -16t-15.5 -41t15.5 -41t40.5 -16zM316 746q-36 0 -59.5 23.5t-23.5 59.5t23.5 59.5t59.5 23.5t59.5 -23.5t23.5 -59.5t-23.5 -59.5t-59.5 -23.5zM316 -10q-222 0 -222 243v437q0 10 10 10h11q10 0 10 -10v-438 q0 -106 49 -159.5t142 -53.5q191 0 191 213v438q0 10 10 10h11q10 0 10 -10v-437q0 -121 -57 -182t-165 -61z"/>
<glyph glyph-name="uring" unicode="ů" horiz-adv-x="531" d="M265 572q25 0 40.5 16t15.5 41t-15.5 41t-40.5 16t-40.5 -16t-15.5 -41t15.5 -41t40.5 -16zM265 546q-36 0 -59.5 23.5t-23.5 59.5t23.5 59.5t59.5 23.5t59.5 -23.5t23.5 -59.5t-23.5 -59.5t-59.5 -23.5zM421 0h-10q-10 0 -10 10v67h-1q-17 -41 -55.5 -64t-88.5 -23 q-165 0 -165 183v291q0 10 10 10h10q10 0 10 -10v-284q0 -84 33.5 -123t103.5 -39q61 0 102 39.5t41 107.5v299q0 10 10 10h10q10 0 10 -10v-454q0 -10 -10 -10z"/>
<glyph glyph-name="Uhungarumlaut" unicode="Ű" horiz-adv-x="632" d="M259 765h-8q-11 0 -4 10l68 103q7 10 16 10h14q5 0 6 -3t-2 -7l-75 -104q-6 -9 -15 -9zM369 765h-8q-11 0 -4 10l68 103q7 10 16 10h14q5 0 6 -3t-2 -7l-75 -104q-6 -9 -15 -9zM316 -10q-222 0 -222 243v437q0 10 10 10h11q10 0 10 -10v-438q0 -106 49 -159.5t142 -53.5 q191 0 191 213v438q0 10 10 10h11q10 0 10 -10v-437q0 -121 -57 -182t-165 -61z"/>
<glyph glyph-name="uhungarumlaut" unicode="ű" horiz-adv-x="531" d="M201 560h-7q-10 0 -5 10l68 120q6 10 16 10h13q11 0 5 -10l-76 -122q-5 -8 -14 -8zM311 560h-7q-10 0 -5 10l68 120q6 10 16 10h13q11 0 5 -10l-76 -122q-5 -8 -14 -8zM421 0h-10q-10 0 -10 10v67h-1q-17 -41 -55.5 -64t-88.5 -23q-165 0 -165 183v291q0 10 10 10h10 q10 0 10 -10v-284q0 -84 33.5 -123t103.5 -39q61 0 102 39.5t41 107.5v299q0 10 10 10h10q10 0 10 -10v-454q0 -10 -10 -10z"/>
<glyph glyph-name="Uogonek" unicode="Ų" horiz-adv-x="632" d="M317 -162q-28 0 -43.5 15t-15.5 42q0 38 50 95q-214 5 -214 243v437q0 10 10 10h11q10 0 10 -10v-438q0 -106 49 -159.5t142 -53.5q191 0 191 213v438q0 10 10 10h11q10 0 10 -10v-437q0 -228 -197 -242q-34 -39 -43.5 -57.5t-9.5 -36.5q0 -31 31 -31q12 0 30 11 q9 5 14 -3l3 -5q5 -8 -3 -14q-19 -17 -46 -17z"/>
<glyph glyph-name="uogonek" unicode="ų" horiz-adv-x="531" d="M372 -162q-28 0 -43.5 15t-15.5 42q0 50 88 114v68h-1q-17 -41 -55.5 -64t-88.5 -23q-165 0 -165 183v291q0 10 10 10h10q10 0 10 -10v-284q0 -84 33.5 -123t103.5 -39q61 0 102 39.5t41 107.5v299q0 10 10 10h10q10 0 10 -10v-454q0 -6 -5 -10q-51 -41 -67 -63t-16 -40 q0 -31 31 -31q12 0 30 11q9 5 14 -3l3 -5q5 -8 -3 -14q-19 -17 -46 -17z"/>
<glyph glyph-name="Wcircumflex" unicode="Ŵ" horiz-adv-x="813" d="M507 755h-8q-9 0 -16 10l-76 98h-2l-76 -98q-7 -10 -16 -10h-8q-5 0 -6 3t2 7l87 121q6 9 14 9h8q8 0 14 -9l87 -121q3 -4 2 -7t-6 -3zM604 0h-14q-8 0 -11 10l-171 604h-2l-172 -604q-3 -10 -11 -10h-14q-9 0 -11 10l-159 659q-3 11 8 11h11q12 0 14 -10l145 -611h2 l169 611q3 10 12 10h13q9 0 12 -10l171 -611h2l143 611q3 10 14 10h11q11 0 8 -11l-159 -659q-2 -10 -11 -10z"/>
<glyph glyph-name="wcircumflex" unicode="ŵ" horiz-adv-x="728" d="M465 560h-8q-9 0 -16 10l-76 98h-2l-76 -98q-7 -10 -16 -10h-8q-5 0 -6 3t2 7l87 121q6 9 14 9h8q8 0 14 -9l87 -121q3 -4 2 -7t-6 -3zM523 0h-8q-9 0 -12 10l-138 417h-1l-139 -417q-3 -10 -12 -10h-8q-9 0 -12 10l-148 454q-3 10 7 10h10q9 0 13 -10l135 -412h1 l136 412q3 10 12 10h10q9 0 12 -10l139 -412h1l132 412q4 10 13 10h10q10 0 7 -10l-148 -454q-3 -10 -12 -10z"/>
<glyph glyph-name="Ycircumflex" unicode="Ŷ" horiz-adv-x="506" d="M354 755h-8q-8 0 -16 10l-76 98h-2l-76 -98q-8 -10 -16 -10h-8q-4 0 -5.5 3t1.5 7l87 121q6 9 14 9h8q8 0 14 -9l87 -121q3 -4 1.5 -7t-5.5 -3zM259 0h-11q-10 0 -10 10v269l-207 389q-2 4 0 8t7 4h12q10 0 15 -10l189 -352h2l185 352q5 10 15 10h12q5 0 7 -4t0 -8 l-206 -389v-269q0 -10 -10 -10z"/>
<glyph glyph-name="ycircumflex" unicode="ŷ" horiz-adv-x="460" d="M331 560h-8q-9 0 -16 10l-76 98h-2l-76 -98q-7 -10 -16 -10h-8q-5 0 -6 3t2 7l87 121q6 9 14 9h8q8 0 14 -9l87 -121q3 -4 2 -7t-6 -3zM95 -180h-16q-10 0 -10 10v8q0 10 10 10h18q33 0 53.5 20.5t44.5 84.5l20 53l-176 458q-3 10 7 10h12q9 0 13 -10l160 -416h1l157 416 q4 10 13 10h12q10 0 7 -10l-199 -519q-29 -76 -56.5 -100.5t-70.5 -24.5z"/>
<glyph glyph-name="Ydieresis" unicode="Ÿ" horiz-adv-x="506" d="M165 795h-24q-10 0 -10 10v40q0 10 10 10h24q10 0 10 -10v-40q0 -10 -10 -10zM365 795h-24q-10 0 -10 10v40q0 10 10 10h24q10 0 10 -10v-40q0 -10 -10 -10zM259 0h-11q-10 0 -10 10v269l-207 389q-2 4 0 8t7 4h12q10 0 15 -10l189 -352h2l185 352q5 10 15 10h12 q5 0 7 -4t0 -8l-206 -389v-269q0 -10 -10 -10z"/>
<glyph glyph-name="Zacute" unicode="Ź" horiz-adv-x="543" d="M257 765h-7q-12 0 -4 10l80 103q9 10 17 10h15q4 0 5.5 -3t-1.5 -7l-87 -103q-9 -10 -18 -10zM475 0h-408q-10 0 -10 10v9q0 6 6 15l383 616v1h-365q-10 0 -10 10v9q0 10 10 10h394q10 0 10 -10v-9q0 -7 -5 -14l-384 -617v-1h379q10 0 10 -10v-9q0 -10 -10 -10z"/>
<glyph glyph-name="zacute" unicode="ź" horiz-adv-x="460" d="M216 560h-7q-12 0 -5 10l78 120q6 10 16 10h15q5 0 6.5 -3t-1.5 -7l-85 -120q-8 -10 -17 -10zM392 0h-322q-10 0 -10 10v8q0 6 6 15l299 412v1h-282q-10 0 -10 10v8q0 10 10 10h309q10 0 10 -10v-8q0 -6 -6 -15l-299 -412v-1h295q10 0 10 -10v-8q0 -10 -10 -10z"/>
<glyph glyph-name="Zdotaccent" unicode="Ż" horiz-adv-x="543" d="M287 795h-24q-10 0 -10 10v40q0 10 10 10h24q10 0 10 -10v-40q0 -10 -10 -10zM475 0h-408q-10 0 -10 10v9q0 6 6 15l383 616v1h-365q-10 0 -10 10v9q0 10 10 10h394q10 0 10 -10v-9q0 -7 -5 -14l-384 -617v-1h379q10 0 10 -10v-9q0 -10 -10 -10z"/>
<glyph glyph-name="zdotaccent" unicode="ż" horiz-adv-x="460" d="M244 620h-24q-10 0 -10 10v40q0 10 10 10h24q10 0 10 -10v-40q0 -10 -10 -10zM392 0h-322q-10 0 -10 10v8q0 6 6 15l299 412v1h-282q-10 0 -10 10v8q0 10 10 10h309q10 0 10 -10v-8q0 -6 -6 -15l-299 -412v-1h295q10 0 10 -10v-8q0 -10 -10 -10z"/>
<glyph glyph-name="Zcaron" unicode="Ž" horiz-adv-x="543" d="M279 755h-8q-8 0 -14 9l-87 121q-3 4 -1.5 7t5.5 3h8q8 0 16 -10l76 -98h2l76 98q8 10 16 10h8q4 0 5.5 -3t-1.5 -7l-87 -121q-6 -9 -14 -9zM475 0h-408q-10 0 -10 10v9q0 6 6 15l383 616v1h-365q-10 0 -10 10v9q0 10 10 10h394q10 0 10 -10v-9q0 -7 -5 -14l-384 -617v-1 h379q10 0 10 -10v-9q0 -10 -10 -10z"/>
<glyph glyph-name="zcaron" unicode="ž" horiz-adv-x="460" d="M234 560h-8q-8 0 -14 9l-87 121q-3 4 -2 7t6 3h8q9 0 16 -10l76 -98h2l76 98q7 10 16 10h8q5 0 6 -3t-2 -7l-87 -121q-6 -9 -14 -9zM392 0h-322q-10 0 -10 10v8q0 6 6 15l299 412v1h-282q-10 0 -10 10v8q0 10 10 10h309q10 0 10 -10v-8q0 -6 -6 -15l-299 -412v-1h295 q10 0 10 -10v-8q0 -10 -10 -10z"/>
<glyph glyph-name="florin" unicode="ƒ" d="M403 360h-110l-63 -407q-12 -75 -42 -104t-93 -29h-17q-10 0 -10 10v8q0 10 10 10h25q45 0 66 22.5t30 79.5l64 410h-95q-10 0 -10 10v8q0 10 10 10h99l25 159q12 75 42 104t93 29h17q10 0 10 -10v-8q0 -10 -10 -10h-25q-45 0 -66 -22.5t-30 -79.5l-25 -162h105 q10 0 10 -10v-8q0 -10 -10 -10z"/>
<glyph glyph-name="Aringacute" unicode="Ǻ" horiz-adv-x="587" d="M292 602l-142 -378h287l-141 378h-4zM294 628q25 0 40.5 16t15.5 41t-15.5 41t-40.5 16t-40.5 -16t-15.5 -41t15.5 -41t40.5 -16zM543 0h-14q-9 0 -13 10l-69 185h-308l-69 -185q-4 -10 -13 -10h-13q-10 0 -7 10l224 598q-50 20 -50 77q0 36 23.5 59.5t59.5 23.5 t59.5 -23.5t23.5 -59.5q0 -57 -50 -77l223 -598q3 -10 -7 -10zM301 794h-9q-5 0 -5 3t4 7l80 74q10 10 19 10h17q4 0 5 -3.5t-3 -6.5l-87 -74q-13 -10 -21 -10z"/>
<glyph glyph-name="aringacute" unicode="ǻ" horiz-adv-x="509" d="M256 572q25 0 40.5 16t15.5 41t-15.5 41t-40.5 16t-40.5 -16t-15.5 -41t15.5 -41t40.5 -16zM256 546q-36 0 -59.5 23.5t-23.5 59.5t23.5 59.5t59.5 23.5t59.5 -23.5t23.5 -59.5t-23.5 -59.5t-59.5 -23.5zM235 18q66 0 108 34.5t42 87.5v90q0 6 -6 6h-129 q-77 0 -112.5 -26.5t-35.5 -81.5q0 -53 34.5 -81.5t98.5 -28.5zM405 0h-10q-10 0 -10 10v57h-1q-13 -34 -53 -55.5t-100 -21.5q-75 0 -117 36t-42 102q0 136 176 136h131q6 0 6 6v61q0 69 -28 97t-104 28q-84 0 -124 -38q-7 -7 -14 -2l-7 6q-8 7 -1 14q46 48 146 48 q87 0 124.5 -33.5t37.5 -119.5v-321q0 -10 -10 -10zM253 765h-7q-12 0 -4 10l80 103q9 10 17 10h15q4 0 5.5 -3t-1.5 -7l-87 -103q-9 -10 -18 -10z"/>
<glyph glyph-name="AEacute" unicode="Ǽ" horiz-adv-x="948" d="M540 765h-7q-12 0 -4 10l80 103q9 10 17 10h15q5 0 6 -3t-2 -7l-87 -103q-9 -10 -18 -10zM497 648l-282 -424h279q6 0 6 6v418h-3zM884 0h-374q-10 0 -10 10v179q0 6 -6 6h-298l-123 -185q-6 -10 -15 -10h-15q-11 0 -5 10l438 662q5 8 15 8h393q10 0 10 -10v-9 q0 -10 -10 -10h-347q-6 0 -6 -6v-279q0 -6 6 -6h300q10 0 10 -10v-9q0 -10 -10 -10h-300q-6 0 -6 -6v-290q0 -6 6 -6h347q10 0 10 -10v-9q0 -10 -10 -10z"/>
<glyph glyph-name="aeacute" unicode="ǽ" horiz-adv-x="814" d="M421 560h-7q-12 0 -5 10l78 120q6 10 16 10h15q5 0 6.5 -3t-1.5 -7l-85 -120q-8 -10 -17 -10zM235 18q66 0 108 34.5t42 87.5v90q0 6 -6 6h-129q-77 0 -112.5 -26.5t-35.5 -81.5q0 -53 34.5 -81.5t98.5 -28.5zM713 264q6 0 6 6q0 47 -11 83q-33 103 -141 103t-141 -103 q-11 -36 -11 -83q0 -6 6 -6h292zM573 -10q-122 0 -167 103h-1q-38 -103 -174 -103q-75 0 -117 36t-42 102q0 136 176 136h131q6 0 6 6v61q0 69 -28 97t-104 28q-84 0 -124 -38q-7 -7 -14 -2l-7 6q-8 7 -1 14q46 48 146 48q71 0 108.5 -22t47.5 -73h1q46 95 157 95 q129 0 168 -120q14 -42 14 -118q0 -10 -11 -10h-317q-6 0 -6 -7q0 -68 12 -107q35 -104 146 -104q93 0 143 69q6 8 14 2l6 -5q7 -6 1 -14q-56 -80 -164 -80z"/>
<glyph glyph-name="Oslashacute" unicode="Ǿ" horiz-adv-x="602" d="M287 765h-7q-12 0 -4 10l80 103q9 10 17 10h15q4 0 5.5 -3t-1.5 -7l-87 -103q-9 -10 -18 -10zM301 19q139 0 181 127q19 57 19 194t-19 194q-12 33 -27 54l-291 -518q50 -51 137 -51zM120 146q12 -36 26 -55l291 519q-49 51 -136 51q-139 0 -181 -127q-19 -57 -19 -194 t19 -194zM100 -30h-10q-11 0 -6 10l46 82q-27 34 -40 76q-20 60 -20 202t20 202q48 148 211 148q94 0 152 -52l35 62q5 10 14 10h10q11 0 6 -10l-46 -82q24 -30 40 -76q20 -60 20 -202t-20 -202q-48 -148 -211 -148q-96 0 -152 52l-35 -62q-5 -10 -14 -10z"/>
<glyph glyph-name="oslashacute" unicode="ǿ" horiz-adv-x="502" d="M240 560h-7q-12 0 -5 10l78 120q6 10 16 10h15q5 0 6.5 -3t-1.5 -7l-85 -120q-8 -10 -17 -10zM251 18q52 0 89 26.5t53 75.5q14 44 14 117t-14 117q-7 23 -21 43l-225 -341q40 -38 104 -38zM109 120q7 -24 21 -44l224 341q-41 39 -103 39q-52 0 -89 -26.5t-53 -75.5 q-14 -44 -14 -117t14 -117zM81 -30h-9q-11 0 -5 10l46 70q-22 26 -32 60q-16 50 -16 127t16 127q19 57 63 88.5t107 31.5q72 0 119 -42l35 52q6 10 16 10h9q11 0 5 -10l-46 -71q20 -25 32 -59q16 -50 16 -127t-16 -127q-19 -57 -63 -88.5t-107 -31.5q-74 0 -120 41l-34 -51 q-6 -10 -16 -10z"/>
<glyph glyph-name="Scommaaccent" unicode="Ș" horiz-adv-x="600" d="M293 -183q-7 0 -7 9v109q0 10 9 10h11q9 0 9 -10v-64q0 -15 -5 -28l-7 -19q-3 -7 -10 -7zM291 -10q-60 0 -119.5 22t-94.5 52q-7 8 -1 14l8 9q6 7 14 1q88 -69 199 -69q90 0 142.5 43t52.5 116q0 62 -39.5 99.5t-137.5 50.5l-30 4q-192 26 -192 173q0 86 55.5 135.5 t150.5 49.5q107 0 183 -52q9 -5 2 -14l-7 -9q-6 -7 -14 -2q-81 48 -166 48q-81 0 -127 -42t-46 -111q0 -63 41.5 -100t136.5 -49l30 -4q191 -25 191 -174q0 -87 -60 -139t-172 -52z"/>
<glyph glyph-name="scommaaccent" unicode="ș" horiz-adv-x="475" d="M229 -183q-7 0 -7 9v109q0 10 9 10h11q9 0 9 -10v-64q0 -15 -5 -28l-7 -19q-3 -7 -10 -7zM239 -10q-99 0 -178 63q-7 7 0 14l7 7q6 6 14 0q73 -56 162 -56q68 0 103.5 29.5t35.5 79.5q0 46 -25.5 69t-96.5 31l-47 5q-134 14 -134 119q0 63 42.5 98t117.5 35q79 0 148 -40 q9 -5 2 -14l-4 -6q-5 -8 -14 -3q-70 35 -135 35q-62 0 -94.5 -27t-32.5 -75q0 -43 28.5 -65.5t94.5 -29.5l47 -5q133 -13 133 -122q0 -67 -45 -104.5t-129 -37.5z"/>
<glyph glyph-name="uni021A" unicode="Ț" horiz-adv-x="513" d="M248 -183q-7 0 -7 9v109q0 10 9 10h11q9 0 9 -10v-64q0 -15 -5 -28l-7 -19q-4 -7 -10 -7zM262 0h-11q-10 0 -10 10v635q0 6 -6 6h-203q-10 0 -10 10v9q0 10 10 10h449q10 0 10 -10v-9q0 -10 -10 -10h-203q-6 0 -6 -6v-635q0 -10 -10 -10z"/>
<glyph glyph-name="uni021B" unicode="ț" horiz-adv-x="306" d="M172 -183q-7 0 -7 9v109q0 10 9 10h11q9 0 9 -10v-64q0 -15 -5 -28l-7 -19q-4 -7 -10 -7zM252 -2h-17q-66 0 -92.5 27t-26.5 97v318q0 6 -6 6h-58q-10 0 -10 10v8q0 10 10 10h58q6 0 6 6v140q0 10 10 10h10q10 0 10 -10v-140q0 -6 6 -6h100q10 0 10 -10v-8q0 -10 -10 -10 h-100q-6 0 -6 -6v-316q0 -58 19.5 -78t70.5 -20h16q10 0 10 -10v-8q0 -10 -10 -10z"/>
<glyph glyph-name="dotlessj" unicode="ȷ" horiz-adv-x="230" d="M23 -180h-4q-10 0 -10 10v8q0 10 10 10h4q46 0 61.5 16t15.5 65v535q0 10 10 10h10q10 0 10 -10v-535q0 -63 -23 -86t-84 -23z"/>
<glyph glyph-name="circumflex" unicode="ˆ" horiz-adv-x="420" d="M311 560h-8q-9 0 -16 10l-76 98h-2l-76 -98q-8 -10 -16 -10h-8q-5 0 -6 3t2 7l87 121q6 9 14 9h8q8 0 14 -9l87 -121q3 -4 2 -7t-6 -3z"/>
<glyph glyph-name="caron" unicode="ˇ" horiz-adv-x="420" d="M214 560h-8q-8 0 -14 9l-87 121q-3 4 -2 7t6 3h8q8 0 16 -10l76 -98h2l76 98q7 10 16 10h8q5 0 6 -3t-2 -7l-87 -121q-6 -9 -14 -9z"/>
<glyph glyph-name="uni02C9" unicode="ˉ" horiz-adv-x="420" d="M326 810h-232q-10 0 -10 10v8q0 10 10 10h232q10 0 10 -10v-8q0 -10 -10 -10z"/>
<glyph glyph-name="breve" unicode="˘" horiz-adv-x="420" d="M210 579q-45 0 -76.5 26t-39.5 68q-2 10 9 10h7q8 0 11 -10q19 -67 89 -67q71 0 90 67q3 10 11 10h6q11 0 9 -10q-8 -42 -39.5 -68t-76.5 -26z"/>
<glyph glyph-name="dotaccent" unicode="˙" horiz-adv-x="420" d="M222 620h-24q-10 0 -10 10v40q0 10 10 10h24q10 0 10 -10v-40q0 -10 -10 -10z"/>
<glyph glyph-name="ring" unicode="˚" horiz-adv-x="420" d="M210 572q25 0 40.5 16t15.5 41t-15.5 41t-40.5 16t-40.5 -16t-15.5 -41t15.5 -41t40.5 -16zM210 546q-36 0 -59.5 23.5t-23.5 59.5t23.5 59.5t59.5 23.5t59.5 -23.5t23.5 -59.5t-23.5 -59.5t-59.5 -23.5z"/>
<glyph glyph-name="ogonek" unicode="˛" horiz-adv-x="420" d="M215 -162q-28 0 -43.5 15t-15.5 42q0 46 74 105q12 10 23 10h14q4 0 5 -4t-3 -6q-51 -41 -67 -63t-16 -40q0 -31 31 -31q12 0 30 11q9 5 14 -3l3 -5q5 -8 -3 -14q-19 -17 -46 -17z"/>
<glyph glyph-name="tilde" unicode="˜" horiz-adv-x="420" d="M261 613q-23 0 -57 21q-28 18 -46 18q-24 0 -55 -34q-3 -3 -5.5 -2t-2.5 5v15q0 7 7 14q26 28 57 28q25 0 57 -21q27 -18 46 -18q24 0 55 34q3 3 5.5 2t2.5 -5v-15q0 -7 -7 -14q-26 -28 -57 -28z"/>
<glyph glyph-name="hungarumlaut" unicode="˝" horiz-adv-x="420" d="M116 560h-7q-10 0 -5 10l68 120q6 10 16 10h13q11 0 5 -10l-76 -122q-5 -8 -14 -8zM226 560h-7q-10 0 -5 10l68 120q6 10 16 10h13q11 0 5 -10l-76 -122q-5 -8 -14 -8z"/>
<glyph glyph-name="Delta" unicode="Δ" horiz-adv-x="587" d="M501 29q7 0 6 6l-212 592h-2l-214 -592q-1 -6 6 -6h416zM543 0h-499q-10 0 -7 10l240 660q3 10 11 10h12q8 0 11 -10l239 -660q3 -10 -7 -10z"/>
<glyph glyph-name="Delta" unicode="∆" horiz-adv-x="587" d="M501 29q7 0 6 6l-212 592h-2l-214 -592q-1 -6 6 -6h416zM543 0h-499q-10 0 -7 10l240 660q3 10 11 10h12q8 0 11 -10l239 -660q3 -10 -7 -10z"/>
<glyph glyph-name="Omega" unicode="Ω" horiz-adv-x="602" d="M510 0h-161q-10 0 -10 10v12q0 7 10 10q64 25 95 57t44 89t13 162q0 137 -19 194q-42 127 -181 127t-181 -127q-19 -57 -19 -194q0 -105 13 -162t44 -89t95 -57q10 -3 10 -10v-12q0 -10 -10 -10h-161q-10 0 -10 10v8q0 10 10 10h96v2q-66 33 -92 99t-26 211q0 142 20 202 q48 148 211 148t211 -148q20 -60 20 -202q0 -145 -26 -211t-92 -99v-2h96q10 0 10 -10v-8q0 -10 -10 -10z"/>
<glyph glyph-name="Omega" unicode="Ω" horiz-adv-x="602" d="M510 0h-161q-10 0 -10 10v12q0 7 10 10q64 25 95 57t44 89t13 162q0 137 -19 194q-42 127 -181 127t-181 -127q-19 -57 -19 -194q0 -105 13 -162t44 -89t95 -57q10 -3 10 -10v-12q0 -10 -10 -10h-161q-10 0 -10 10v8q0 10 10 10h96v2q-66 33 -92 99t-26 211q0 142 20 202 q48 148 211 148t211 -148q20 -60 20 -202q0 -145 -26 -211t-92 -99v-2h96q10 0 10 -10v-8q0 -10 -10 -10z"/>
<glyph glyph-name="pi" unicode="π" horiz-adv-x="547" d="M466 -6h-7q-28 0 -40.5 13.5t-12.5 43.5v389q0 6 -6 6h-253q-6 0 -6 -6v-430q0 -10 -10 -10h-10q-10 0 -10 10v430q0 6 -8 6h-33q-10 0 -10 10v8q0 10 10 10h407q10 0 10 -10v-8q0 -10 -10 -10h-35q-6 0 -6 -6v-389q0 -29 23 -29h7q10 0 10 -10v-8q0 -10 -10 -10z"/>
<glyph glyph-name="Wgrave" unicode="Ẁ" horiz-adv-x="813" d="M413 765h-7q-9 0 -18 10l-87 103q-3 4 -2 7t6 3h15q8 0 17 -10l80 -103q8 -10 -4 -10zM604 0h-14q-8 0 -11 10l-171 604h-2l-172 -604q-3 -10 -11 -10h-14q-9 0 -11 10l-159 659q-3 11 8 11h11q12 0 14 -10l145 -611h2l169 611q3 10 12 10h13q9 0 12 -10l171 -611h2 l143 611q3 10 14 10h11q11 0 8 -11l-159 -659q-2 -10 -11 -10z"/>
<glyph glyph-name="wgrave" unicode="ẁ" horiz-adv-x="728" d="M365 560h-7q-10 0 -17 10l-85 120q-3 4 -1.5 7t6.5 3h15q10 0 16 -10l78 -120q7 -10 -5 -10zM523 0h-8q-9 0 -12 10l-138 417h-1l-139 -417q-3 -10 -12 -10h-8q-9 0 -12 10l-148 454q-3 10 7 10h10q9 0 13 -10l135 -412h1l136 412q3 10 12 10h10q9 0 12 -10l139 -412h1 l132 412q4 10 13 10h10q10 0 7 -10l-148 -454q-3 -10 -12 -10z"/>
<glyph glyph-name="Wacute" unicode="Ẃ" horiz-adv-x="813" d="M409 765h-7q-12 0 -4 10l80 103q9 10 17 10h15q4 0 5.5 -3t-1.5 -7l-87 -103q-9 -10 -18 -10zM604 0h-14q-8 0 -11 10l-171 604h-2l-172 -604q-3 -10 -11 -10h-14q-9 0 -11 10l-159 659q-3 11 8 11h11q12 0 14 -10l145 -611h2l169 611q3 10 12 10h13q9 0 12 -10l171 -611 h2l143 611q3 10 14 10h11q11 0 8 -11l-159 -659q-2 -10 -11 -10z"/>
<glyph glyph-name="wacute" unicode="ẃ" horiz-adv-x="728" d="M368 560h-7q-12 0 -5 10l78 120q6 10 16 10h15q5 0 6.5 -3t-1.5 -7l-85 -120q-8 -10 -17 -10zM523 0h-8q-9 0 -12 10l-138 417h-1l-139 -417q-3 -10 -12 -10h-8q-9 0 -12 10l-148 454q-3 10 7 10h10q9 0 13 -10l135 -412h1l136 412q3 10 12 10h10q9 0 12 -10l139 -412h1 l132 412q4 10 13 10h10q10 0 7 -10l-148 -454q-3 -10 -12 -10z"/>
<glyph glyph-name="Wdieresis" unicode="Ẅ" horiz-adv-x="813" d="M318 795h-24q-10 0 -10 10v40q0 10 10 10h24q10 0 10 -10v-40q0 -10 -10 -10zM518 795h-24q-10 0 -10 10v40q0 10 10 10h24q10 0 10 -10v-40q0 -10 -10 -10zM604 0h-14q-8 0 -11 10l-171 604h-2l-172 -604q-3 -10 -11 -10h-14q-9 0 -11 10l-159 659q-3 11 8 11h11 q12 0 14 -10l145 -611h2l169 611q3 10 12 10h13q9 0 12 -10l171 -611h2l143 611q3 10 14 10h11q11 0 8 -11l-159 -659q-2 -10 -11 -10z"/>
<glyph glyph-name="wdieresis" unicode="ẅ" horiz-adv-x="728" d="M276 620h-24q-10 0 -10 10v40q0 10 10 10h24q10 0 10 -10v-40q0 -10 -10 -10zM476 620h-24q-10 0 -10 10v40q0 10 10 10h24q10 0 10 -10v-40q0 -10 -10 -10zM523 0h-8q-9 0 -12 10l-138 417h-1l-139 -417q-3 -10 -12 -10h-8q-9 0 -12 10l-148 454q-3 10 7 10h10 q9 0 13 -10l135 -412h1l136 412q3 10 12 10h10q9 0 12 -10l139 -412h1l132 412q4 10 13 10h10q10 0 7 -10l-148 -454q-3 -10 -12 -10z"/>
<glyph glyph-name="Ygrave" unicode="Ỳ" horiz-adv-x="506" d="M273 765h-7q-9 0 -18 10l-87 103q-3 4 -2 7t6 3h15q8 0 17 -10l80 -103q8 -10 -4 -10zM259 0h-11q-10 0 -10 10v269l-207 389q-2 4 0 8t7 4h12q10 0 15 -10l189 -352h2l185 352q5 10 15 10h12q5 0 7 -4t0 -8l-206 -389v-269q0 -10 -10 -10z"/>
<glyph glyph-name="ygrave" unicode="ỳ" horiz-adv-x="460" d="M260 560h-7q-10 0 -17 10l-85 120q-3 4 -1.5 7t6.5 3h15q10 0 16 -10l78 -120q7 -10 -5 -10zM95 -180h-16q-10 0 -10 10v8q0 10 10 10h18q33 0 53.5 20.5t44.5 84.5l20 53l-176 458q-3 10 7 10h12q9 0 13 -10l160 -416h1l157 416q4 10 13 10h12q10 0 7 -10l-199 -519 q-29 -76 -56.5 -100.5t-70.5 -24.5z"/>
<glyph glyph-name="endash" unicode="–" horiz-adv-x="498" d="M458 253h-418q-10 0 -10 10v8q0 10 10 10h418q10 0 10 -10v-8q0 -10 -10 -10z"/>
<glyph glyph-name="emdash" unicode="—" horiz-adv-x="814" d="M774 253h-734q-10 0 -10 10v8q0 10 10 10h734q10 0 10 -10v-8q0 -10 -10 -10z"/>
<glyph glyph-name="quoteleft" unicode="‘" horiz-adv-x="200" d="M110 537h-20q-10 0 -10 10v56q0 11 4 23l18 46q3 9 10 9q8 0 8 -9v-125q0 -10 -10 -10z"/>
<glyph glyph-name="quoteright" unicode="’" horiz-adv-x="200" d="M88 536q-8 0 -8 9v125q0 10 10 10h20q10 0 10 -10v-56q0 -11 -4 -23l-18 -46q-3 -9 -10 -9z"/>
<glyph glyph-name="quotesinglbase" unicode="‚" horiz-adv-x="200" d="M88 -80q-8 0 -8 9v125q0 10 10 10h20q10 0 10 -10v-56q0 -12 -4 -23l-18 -46q-3 -9 -10 -9z"/>
<glyph glyph-name="quotedblleft" unicode="“" horiz-adv-x="324" d="M110 537h-20q-10 0 -10 10v56q0 11 4 23l18 46q3 9 10 9q8 0 8 -9v-125q0 -10 -10 -10zM234 537h-20q-10 0 -10 10v56q0 11 4 23l18 46q3 9 10 9q8 0 8 -9v-125q0 -10 -10 -10z"/>
<glyph glyph-name="quotedblright" unicode="”" horiz-adv-x="324" d="M88 536q-8 0 -8 9v125q0 10 10 10h20q10 0 10 -10v-56q0 -12 -4 -23l-18 -47q-3 -8 -10 -8zM212 536q-8 0 -8 9v125q0 10 10 10h20q10 0 10 -10v-56q0 -11 -4 -23l-18 -46q-3 -9 -10 -9z"/>
<glyph glyph-name="quotedblbase" unicode="„" horiz-adv-x="324" d="M88 -80q-8 0 -8 9v125q0 10 10 10h20q10 0 10 -10v-56q0 -11 -4 -23l-18 -46q-3 -9 -10 -9zM212 -80q-8 0 -8 9v125q0 10 10 10h20q10 0 10 -10v-56q0 -11 -4 -23l-18 -46q-3 -9 -10 -9z"/>
<glyph glyph-name="dagger" unicode="†" horiz-adv-x="410" d="M210 -180h-10q-10 0 -10 10v554q0 6 -6 6h-134q-10 0 -10 10v8q0 10 10 10h134q6 0 6 6v246q0 10 10 10h10q10 0 10 -10v-246q0 -6 6 -6h134q10 0 10 -10v-8q0 -10 -10 -10h-134q-6 0 -6 -6v-554q0 -10 -10 -10z"/>
<glyph glyph-name="daggerdbl" unicode="‡" horiz-adv-x="410" d="M210 -180h-10q-10 0 -10 10v220q0 6 -6 6h-134q-10 0 -10 10v8q0 10 10 10h134q6 0 6 6v323q0 6 -6 6h-134q-10 0 -10 10v8q0 10 10 10h134q6 0 6 6v217q0 10 10 10h10q10 0 10 -10v-217q0 -6 6 -6h134q10 0 10 -10v-8q0 -10 -10 -10h-134q-6 0 -6 -6v-323q0 -6 6 -6h134 q10 0 10 -10v-8q0 -10 -10 -10h-134q-6 0 -6 -6v-220q0 -10 -10 -10z"/>
<glyph glyph-name="bullet" unicode="•" horiz-adv-x="408" d="M204 204q-44 0 -74 30t-30 74t30 74t74 30t74 -30t30 -74t-30 -74t-74 -30z"/>
<glyph glyph-name="ellipsis" unicode="…" horiz-adv-x="612" d="M116 0h-28q-10 0 -10 10v50q0 10 10 10h28q10 0 10 -10v-50q0 -10 -10 -10zM320 0h-28q-10 0 -10 10v50q0 10 10 10h28q10 0 10 -10v-50q0 -10 -10 -10zM524 0h-28q-10 0 -10 10v50q0 10 10 10h28q10 0 10 -10v-50q0 -10 -10 -10z"/>
<glyph glyph-name="perthousand" unicode="‰" horiz-adv-x="1087" d="M576 18q58 0 74 50q8 24 8 103t-8 103q-16 50 -74 50t-74 -50q-8 -24 -8 -103t8 -103q16 -50 74 -50zM877 18q58 0 74 50q8 24 8 103t-8 103q-16 50 -74 50t-74 -50q-8 -24 -8 -103t8 -103q16 -50 74 -50zM576 -8q-80 0 -102 71q-8 26 -8 108t8 108q22 71 102 71t102 -71 q8 -26 8 -108t-8 -108q-22 -71 -102 -71zM877 -8q-80 0 -102 71q-8 26 -8 108t8 108q22 71 102 71t102 -71q8 -26 8 -108t-8 -108q-22 -71 -102 -71zM210 356q58 0 74 50q8 24 8 103t-8 103q-16 50 -74 50t-74 -50q-8 -24 -8 -103t8 -103q16 -50 74 -50zM210 330 q-80 0 -102 71q-8 26 -8 108t8 108q22 71 102 71t102 -71q8 -26 8 -108t-8 -108q-22 -71 -102 -71zM196 -10h-10q-11 0 -6 10l393 680q6 10 14 10h10q11 0 6 -10l-393 -680q-6 -10 -14 -10z"/>
<glyph glyph-name="guilsinglleft" unicode="‹" horiz-adv-x="307" d="M217 96l-158 161q-7 7 0 14l158 161q3 3 6.5 1.5t3.5 -5.5v-19q0 -10 -6 -16l-122 -125q-4 -4 0 -8l122 -125q6 -6 6 -16v-19q0 -4 -3.5 -5.5t-6.5 1.5z"/>
<glyph glyph-name="guilsinglright" unicode="›" horiz-adv-x="307" d="M90 96q-3 -3 -6.5 -1.5t-3.5 5.5v19q0 10 6 16l122 125q4 4 0 8l-122 125q-6 6 -6 16v19q0 4 3.5 5.5t6.5 -1.5l158 -161q7 -7 0 -14z"/>
<glyph glyph-name="fraction" unicode="⁄" horiz-adv-x="147" d="M-122 -10h-10q-11 0 -6 10l393 680q6 10 14 10h10q11 0 6 -10l-393 -680q-6 -10 -14 -10z"/>
<glyph glyph-name="zero.superior" unicode="⁰" horiz-adv-x="324" d="M162 450q64 0 83 59q8 26 8 124t-8 124q-19 59 -83 59t-83 -59q-8 -26 -8 -124t8 -124q19 -59 83 -59zM162 424q-85 0 -110 77q-9 27 -9 132t9 132q25 77 110 77t110 -77q9 -27 9 -132t-9 -132q-25 -77 -110 -77z"/>
<glyph glyph-name="four.superior" unicode="⁴" horiz-adv-x="324" d="M225 430h-8q-10 0 -10 10v68q0 6 -6 6h-161q-10 0 -10 10v6q0 8 4 15l137 281q4 10 13 10h11q5 0 6.5 -3t-0.5 -7l-138 -285v-1h138q6 0 6 6v107q0 10 10 10h8q10 0 10 -10v-107q0 -6 6 -6h45q10 0 10 -10v-6q0 -10 -10 -10h-45q-6 0 -6 -6v-68q0 -10 -10 -10z"/>
<glyph glyph-name="five.superior" unicode="⁵" horiz-adv-x="324" d="M170 424q-91 0 -112 80q-3 10 6 13l7 2q9 3 12 -5q22 -64 87 -64q62 0 79 53q5 18 5 58q0 44 -5 59q-17 51 -78 51q-60 0 -78 -48q-3 -10 -11 -10h-8q-10 0 -10 10v203q0 10 10 10h191q10 0 10 -10v-6q0 -10 -10 -10h-167q-6 0 -6 -6v-145h1q21 38 81 38q79 0 101 -66 q7 -20 7 -70q0 -46 -8 -70q-23 -67 -104 -67z"/>
<glyph glyph-name="six.superior" unicode="⁶" horiz-adv-x="324" d="M162 450q42 0 68 26.5t26 69.5q0 44 -25.5 70t-68.5 26q-42 0 -68 -26.5t-26 -69.5t26 -69.5t68 -26.5zM162 424q-54 0 -88 33.5t-34 88.5q0 44 27 91l105 191q5 8 12 8h11q5 0 6.5 -3t-0.5 -7l-96 -174l1 -1q20 17 58 17q53 0 86.5 -34t33.5 -88q0 -55 -34 -88.5 t-88 -33.5z"/>
<glyph glyph-name="seven.superior" unicode="⁷" horiz-adv-x="324" d="M112 430h-10q-5 0 -6.5 3t0.5 8l156 368v1h-164q-6 0 -6 -6v-41q0 -10 -10 -10h-8q-10 0 -10 10v63q0 10 10 10h208q10 0 10 -10v-11q0 -7 -3 -14l-155 -363q-4 -8 -12 -8z"/>
<glyph glyph-name="eight.superior" unicode="⁸" horiz-adv-x="324" d="M162 450q42 0 69 25t27 65t-27 65t-69 25t-69 -25t-27 -65t27 -65t69 -25zM162 656q36 0 60.5 22.5t24.5 57.5t-24.5 57.5t-60.5 22.5t-60.5 -22.5t-24.5 -57.5t24.5 -57.5t60.5 -22.5zM162 424q-55 0 -89.5 31.5t-34.5 84.5q0 39 20.5 66.5t48.5 36.5v2q-25 10 -41.5 34 t-16.5 57q0 47 32.5 76.5t80.5 29.5q47 0 80 -30t33 -76q0 -33 -16.5 -57t-41.5 -34v-2q28 -9 48.5 -36.5t20.5 -66.5q0 -53 -34.5 -84.5t-89.5 -31.5z"/>
<glyph glyph-name="nine.superior" unicode="⁹" horiz-adv-x="324" d="M162 624q42 0 68 26.5t26 69.5t-26 69.5t-68 26.5t-68 -26.5t-26 -69.5q0 -44 25.5 -70t68.5 -26zM140 430h-11q-5 0 -6.5 3t0.5 7l96 174l-1 1q-20 -17 -58 -17q-53 0 -86.5 34t-33.5 88q0 55 34 88.5t88 33.5t88 -33.5t34 -88.5q0 -44 -27 -91l-105 -191q-5 -8 -12 -8z "/>
<glyph glyph-name="zero.inferior" unicode="₀" horiz-adv-x="324" d="M162 -136q64 0 83 59q8 26 8 124t-8 124q-19 59 -83 59t-83 -59q-8 -26 -8 -124t8 -124q19 -59 83 -59zM162 -162q-85 0 -110 77q-9 27 -9 132t9 132q25 77 110 77t110 -77q9 -27 9 -132t-9 -132q-25 -77 -110 -77z"/>
<glyph glyph-name="one.inferior" unicode="₁" horiz-adv-x="324" d="M174 -156h-8q-10 0 -10 10v361h-1l-71 -50q-10 -6 -10 5v11q0 10 7 14l70 49q9 6 15 6h8q10 0 10 -10v-386q0 -10 -10 -10z"/>
<glyph glyph-name="two.inferior" unicode="₂" horiz-adv-x="324" d="M270 -156h-217q-10 0 -10 10v6q0 7 7 14l161 192q37 45 37 84q0 35 -23 57.5t-59 22.5q-34 0 -56 -18.5t-30 -50.5q-2 -10 -12 -8l-6 1q-10 2 -9 12q8 39 38 64.5t75 25.5q51 0 80.5 -30.5t29.5 -75.5q0 -47 -45 -101l-149 -177v-2h188q10 0 10 -10v-6q0 -10 -10 -10z "/>
<glyph glyph-name="three.inferior" unicode="₃" horiz-adv-x="324" d="M162 -162q-48 0 -78 22.5t-41 56.5q-3 8 6 11l8 3q8 3 12 -6q25 -61 93 -61q40 0 65 25t25 64t-25.5 64.5t-66.5 25.5h-16q-10 0 -10 10v6q0 10 10 10h15q38 0 61 22.5t23 59.5q0 35 -23 57t-61 22q-65 0 -84 -56q-3 -9 -11 -8l-7 1q-10 2 -8 11q8 33 36 55.5t74 22.5 q50 0 81 -29.5t31 -75.5q0 -63 -57 -93v-1q26 -11 46 -37.5t20 -66.5q0 -50 -33 -82.5t-85 -32.5z"/>
<glyph glyph-name="four.inferior" unicode="₄" horiz-adv-x="324" d="M225 -156h-8q-10 0 -10 10v68q0 6 -6 6h-161q-10 0 -10 10v6q0 8 4 15l137 281q4 10 13 10h11q5 0 6.5 -3t-0.5 -7l-138 -285v-1h138q6 0 6 6v107q0 10 10 10h8q10 0 10 -10v-107q0 -6 6 -6h45q10 0 10 -10v-6q0 -10 -10 -10h-45q-6 0 -6 -6v-68q0 -10 -10 -10z"/>
<glyph glyph-name="five.inferior" unicode="₅" horiz-adv-x="324" d="M170 -162q-91 0 -112 80q-3 10 6 13l7 2q9 3 12 -5q22 -64 87 -64q62 0 79 53q5 18 5 58q0 44 -5 59q-17 51 -78 51q-60 0 -78 -48q-3 -10 -11 -10h-8q-10 0 -10 10v203q0 10 10 10h191q10 0 10 -10v-6q0 -10 -10 -10h-167q-6 0 -6 -6v-145h1q21 38 81 38q79 0 101 -66 q7 -20 7 -70q0 -46 -8 -70q-23 -67 -104 -67z"/>
<glyph glyph-name="six.inferior" unicode="₆" horiz-adv-x="324" d="M162 -136q42 0 68 26.5t26 69.5q0 44 -25.5 70t-68.5 26q-42 0 -68 -26.5t-26 -69.5t26 -69.5t68 -26.5zM162 -162q-54 0 -88 33.5t-34 88.5q0 44 27 91l105 191q5 8 12 8h11q5 0 6.5 -3t-0.5 -7l-96 -174l1 -1q20 17 58 17q53 0 86.5 -34t33.5 -88q0 -55 -34 -88.5 t-88 -33.5z"/>
<glyph glyph-name="seven.inferior" unicode="₇" horiz-adv-x="324" d="M112 -156h-10q-5 0 -6.5 3t0.5 8l156 368v1h-164q-6 0 -6 -6v-41q0 -10 -10 -10h-8q-10 0 -10 10v63q0 10 10 10h208q10 0 10 -10v-11q0 -7 -3 -14l-155 -363q-4 -8 -12 -8z"/>
<glyph glyph-name="eight.inferior" unicode="₈" horiz-adv-x="324" d="M162 -136q42 0 69 25t27 65t-27 65t-69 25t-69 -25t-27 -65t27 -65t69 -25zM162 70q36 0 60.5 22.5t24.5 57.5t-24.5 57.5t-60.5 22.5t-60.5 -22.5t-24.5 -57.5t24.5 -57.5t60.5 -22.5zM162 -162q-55 0 -89.5 31.5t-34.5 84.5q0 39 20.5 66.5t48.5 36.5v2 q-25 10 -41.5 34t-16.5 57q0 47 32.5 76.5t80.5 29.5q47 0 80 -30t33 -76q0 -33 -16.5 -57t-41.5 -34v-2q28 -9 48.5 -36.5t20.5 -66.5q0 -53 -34.5 -84.5t-89.5 -31.5z"/>
<glyph glyph-name="nine.inferior" unicode="₉" horiz-adv-x="324" d="M162 38q42 0 68 26.5t26 69.5t-26 69.5t-68 26.5t-68 -26.5t-26 -69.5q0 -44 25.5 -70t68.5 -26zM140 -156h-11q-5 0 -6.5 3t0.5 7l96 174l-1 1q-20 -17 -58 -17q-53 0 -86.5 34t-33.5 88q0 55 34 88.5t88 33.5t88 -33.5t34 -88.5q0 -44 -27 -91l-105 -191q-5 -8 -12 -8z "/>
<glyph glyph-name="Euro" unicode="€" d="M296 -10q-129 0 -169 119q-14 43 -14 155q0 6 -6 6h-51q-10 0 -10 10v7q0 10 10 10h51q6 0 6 6v81q0 6 -6 6h-51q-10 0 -10 10v7q0 10 10 10h51q6 0 6 6q0 105 14 148q40 119 169 119q65 0 107 -33t62 -82q3 -10 -5 -13l-8 -4q-8 -3 -13 6q-45 98 -143 98 q-108 0 -139 -97q-14 -41 -14 -142q0 -6 6 -6h213q10 0 10 -10v-7q0 -10 -10 -10h-213q-6 0 -6 -6v-81q0 -6 6 -6h183q10 0 10 -10v-7q0 -10 -10 -10h-183q-6 0 -6 -6q0 -108 14 -149q31 -97 139 -97q98 0 143 98q5 9 13 6l8 -4q8 -3 5 -13q-20 -49 -62 -82t-107 -33z"/>
<glyph glyph-name="afii61289" unicode="ℓ" horiz-adv-x="339" d="M145 525v-182q58 73 80 124.5t22 108.5q0 40 -13.5 63t-34.5 23q-54 0 -54 -137zM277 576q0 -64 -27.5 -124t-104.5 -154v-218q0 -62 50 -62q32 0 62 31q7 7 14 0l5 -5q7 -7 0 -14q-37 -40 -83 -40q-78 0 -78 92v181l-24 -29q-7 -8 -14 -1l-7 6q-7 7 -1 15l46 54v219 q0 163 85 163q35 0 56 -29.5t21 -84.5z"/>
<glyph glyph-name="trademark" unicode="™" horiz-adv-x="804" d="M188 286h-7q-10 0 -10 10v353q0 6 -6 6h-115q-10 0 -10 10v5q0 10 10 10h269q10 0 10 -10v-5q0 -10 -10 -10h-115q-6 0 -6 -6v-353q0 -10 -10 -10zM744 286h-7q-10 0 -10 10v323h-2l-131 -270q-4 -8 -11 -8h-8q-7 0 -11 8l-131 270h-2v-323q0 -10 -10 -10h-7 q-10 0 -10 10v374q0 10 10 10h11q8 0 12 -8l142 -295h2l140 295q4 8 12 8h11q10 0 10 -10v-374q0 -10 -10 -10z"/>
<glyph glyph-name="estimated" unicode="℮" horiz-adv-x="662" d="M461 270v130q-59 54 -131 54q-77 0 -129 -54v-130h260zM330 -10q-103 0 -166.5 71.5t-63.5 176.5q0 106 63.5 176t166.5 70q104 0 167.5 -68.5t64.5 -177.5h-361v-163q53 -51 129 -51q109 0 172 107l32 -20q-42 -64 -88.5 -92.5t-115.5 -28.5z"/>
<glyph glyph-name="onethird" unicode="⅓" horiz-adv-x="857" d="M639 -6q-48 0 -78 22.5t-41 56.5q-3 8 6 11l8 3q8 3 12 -6q25 -61 93 -61q40 0 65 25t25 64t-25.5 64.5t-66.5 25.5h-16q-10 0 -10 10v6q0 10 10 10h15q38 0 61 22.5t23 59.5q0 35 -23 57t-61 22q-65 0 -84 -56q-3 -9 -11 -8l-7 1q-10 2 -8 11q8 33 36 55.5t74 22.5 q50 0 81 -29.5t31 -75.5q0 -63 -57 -93v-1q26 -11 46 -37.5t20 -66.5q0 -50 -33 -82.5t-85 -32.5zM180 274h-8q-10 0 -10 10v361h-1l-71 -50q-10 -6 -10 5v11q0 10 7 14l70 49q9 6 15 6h8q10 0 10 -10v-386q0 -10 -10 -10zM200 -10h-10q-11 0 -6 10l393 680q6 10 14 10h10 q11 0 6 -10l-393 -680q-6 -10 -14 -10z"/>
<glyph glyph-name="twothirds" unicode="⅔" horiz-adv-x="949" d="M731 -6q-48 0 -78 22.5t-41 56.5q-3 8 6 11l8 3q8 3 12 -6q25 -61 93 -61q40 0 65 25t25 64t-25.5 64.5t-66.5 25.5h-16q-10 0 -10 10v6q0 10 10 10h15q38 0 61 22.5t23 59.5q0 35 -23 57t-61 22q-65 0 -84 -56q-3 -9 -11 -8l-7 1q-10 2 -8 11q8 33 36 55.5t74 22.5 q50 0 81 -29.5t31 -75.5q0 -63 -57 -93v-1q26 -11 46 -37.5t20 -66.5q0 -50 -33 -82.5t-85 -32.5zM327 274h-217q-10 0 -10 10v6q0 7 7 14l161 192q37 45 37 84q0 35 -23 57.5t-59 22.5q-34 0 -56 -18.5t-30 -50.5q-2 -10 -12 -8l-6 1q-10 2 -9 12q8 39 38 64.5t75 25.5 q51 0 80.5 -30.5t29.5 -75.5q0 -47 -45 -101l-149 -177v-2h188q10 0 10 -10v-6q0 -10 -10 -10zM293 -10h-10q-11 0 -6 10l393 680q6 10 14 10h10q11 0 6 -10l-393 -680q-6 -10 -14 -10z"/>
<glyph glyph-name="oneeighth" unicode="⅛" horiz-adv-x="858" d="M634 20q42 0 69 25t27 65t-27 65t-69 25t-69 -25t-27 -65t27 -65t69 -25zM634 226q36 0 60.5 22.5t24.5 57.5t-24.5 57.5t-60.5 22.5t-60.5 -22.5t-24.5 -57.5t24.5 -57.5t60.5 -22.5zM634 -6q-55 0 -89.5 31.5t-34.5 84.5q0 39 20.5 66.5t48.5 36.5v2q-25 10 -41.5 34 t-16.5 57q0 47 32.5 76.5t80.5 29.5q47 0 80 -30t33 -76q0 -33 -16.5 -57t-41.5 -34v-2q28 -9 48.5 -36.5t20.5 -66.5q0 -53 -34.5 -84.5t-89.5 -31.5zM180 274h-8q-10 0 -10 10v361h-1l-71 -50q-10 -6 -10 5v11q0 10 7 14l70 49q9 6 15 6h8q10 0 10 -10v-386q0 -10 -10 -10 zM200 -10h-10q-11 0 -6 10l393 680q6 10 14 10h10q11 0 6 -10l-393 -680q-6 -10 -14 -10z"/>
<glyph glyph-name="threeeighths" unicode="⅜" horiz-adv-x="925" d="M701 20q42 0 69 25t27 65t-27 65t-69 25t-69 -25t-27 -65t27 -65t69 -25zM701 226q36 0 60.5 22.5t24.5 57.5t-24.5 57.5t-60.5 22.5t-60.5 -22.5t-24.5 -57.5t24.5 -57.5t60.5 -22.5zM701 -6q-55 0 -89.5 31.5t-34.5 84.5q0 39 20.5 66.5t48.5 36.5v2q-25 10 -41.5 34 t-16.5 57q0 47 32.5 76.5t80.5 29.5q47 0 80 -30t33 -76q0 -33 -16.5 -57t-41.5 -34v-2q28 -9 48.5 -36.5t20.5 -66.5q0 -53 -34.5 -84.5t-89.5 -31.5zM220 268q-48 0 -78 22.5t-41 56.5q-3 8 6 11l8 3q8 3 12 -6q25 -61 93 -61q40 0 65 25t25 64t-25.5 64.5t-66.5 25.5h-16 q-10 0 -10 10v6q0 10 10 10h15q38 0 61 22.5t23 59.5q0 35 -23 57t-61 22q-65 0 -84 -56q-3 -9 -11 -8l-7 1q-10 2 -8 11q8 33 36 55.5t74 22.5q50 0 81 -29.5t31 -75.5q0 -63 -57 -93v-1q26 -11 46 -37.5t20 -66.5q0 -50 -33 -82.5t-85 -32.5zM267 -10h-10q-11 0 -6 10 l393 680q6 10 14 10h10q11 0 6 -10l-393 -680q-6 -10 -14 -10z"/>
<glyph glyph-name="fiveeighths" unicode="⅝" horiz-adv-x="917" d="M693 20q42 0 69 25t27 65t-27 65t-69 25t-69 -25t-27 -65t27 -65t69 -25zM693 226q36 0 60.5 22.5t24.5 57.5t-24.5 57.5t-60.5 22.5t-60.5 -22.5t-24.5 -57.5t24.5 -57.5t60.5 -22.5zM693 -6q-55 0 -89.5 31.5t-34.5 84.5q0 39 20.5 66.5t48.5 36.5v2q-25 10 -41.5 34 t-16.5 57q0 47 32.5 76.5t80.5 29.5q47 0 80 -30t33 -76q0 -33 -16.5 -57t-41.5 -34v-2q28 -9 48.5 -36.5t20.5 -66.5q0 -53 -34.5 -84.5t-89.5 -31.5zM213 268q-91 0 -112 80q-3 10 6 13l7 2q9 3 12 -5q22 -64 87 -64q62 0 79 53q5 18 5 58q0 44 -5 59q-17 51 -78 51 q-60 0 -78 -48q-3 -10 -11 -10h-8q-10 0 -10 10v203q0 10 10 10h191q10 0 10 -10v-6q0 -10 -10 -10h-167q-6 0 -6 -6v-145h1q21 38 81 38q79 0 101 -66q7 -20 7 -70q0 -46 -8 -70q-23 -67 -104 -67zM259 -10h-10q-11 0 -6 10l393 680q6 10 14 10h10q11 0 6 -10l-393 -680 q-6 -10 -14 -10z"/>
<glyph glyph-name="seveneighths" unicode="⅞" horiz-adv-x="839" d="M615 20q42 0 69 25t27 65t-27 65t-69 25t-69 -25t-27 -65t27 -65t69 -25zM615 226q36 0 60.5 22.5t24.5 57.5t-24.5 57.5t-60.5 22.5t-60.5 -22.5t-24.5 -57.5t24.5 -57.5t60.5 -22.5zM615 -6q-55 0 -89.5 31.5t-34.5 84.5q0 39 20.5 66.5t48.5 36.5v2q-25 10 -41.5 34 t-16.5 57q0 47 32.5 76.5t80.5 29.5q47 0 80 -30t33 -76q0 -33 -16.5 -57t-41.5 -34v-2q28 -9 48.5 -36.5t20.5 -66.5q0 -53 -34.5 -84.5t-89.5 -31.5zM158 274h-10q-5 0 -6.5 3t0.5 8l156 368v1h-164q-6 0 -6 -6v-41q0 -10 -10 -10h-8q-10 0 -10 10v63q0 10 10 10h208 q10 0 10 -10v-11q0 -7 -3 -14l-155 -363q-4 -8 -12 -8zM181 -10h-10q-11 0 -6 10l393 680q6 10 14 10h10q11 0 6 -10l-393 -680q-6 -10 -14 -10z"/>
<glyph glyph-name="partialdiff" unicode="∂" horiz-adv-x="532" d="M251 18q82 0 128 64.5t54 184.5q-31 57 -76 86.5t-96 29.5q-78 0 -122 -49t-44 -132q0 -82 42.5 -133t113.5 -51zM249 -10q-84 0 -134 60t-50 154q0 91 54 149t136 58q112 0 181 -102h1v26q0 144 -48.5 235.5t-143.5 91.5q-63 0 -122 -46q-8 -6 -13 3l-4 6q-5 8 3 14 q63 51 136 51q59 0 103 -30t69.5 -80.5t37.5 -109.5t12 -126q0 -175 -56 -264.5t-162 -89.5z"/>
<glyph glyph-name="product" unicode="∏" horiz-adv-x="623" d="M521 -180h-11q-10 0 -10 10v875q0 6 -6 6h-365q-6 0 -6 -6v-875q0 -10 -10 -10h-11q-10 0 -10 10v900q0 10 10 10h419q10 0 10 -10v-900q0 -10 -10 -10z"/>
<glyph glyph-name="summation" unicode="∑" horiz-adv-x="528" d="M468 -180h-388q-10 0 -10 10v5q0 5 2 9l202 480l-197 386q-3 6 -3 11v9q0 10 10 10h374q10 0 10 -10v-9q0 -10 -10 -10h-348l196 -378q3 -7 0 -14l-199 -470h361q10 0 10 -10v-9q0 -10 -10 -10z"/>
<glyph glyph-name="minus" unicode="−" d="M443 262h-364q-10 0 -10 10v8q0 10 10 10h364q10 0 10 -10v-8q0 -10 -10 -10z"/>
<glyph glyph-name="uni2215" unicode="∕" horiz-adv-x="147" d="M-122 -10h-10q-11 0 -6 10l393 680q6 10 14 10h10q11 0 6 -10l-393 -680q-6 -10 -14 -10z"/>
<glyph glyph-name="uni2219" unicode="∙" horiz-adv-x="204" d="M116 231h-28q-10 0 -10 10v50q0 10 10 10h28q10 0 10 -10v-50q0 -10 -10 -10z"/>
<glyph glyph-name="radical" unicode="√" horiz-adv-x="606" d="M321 -180h-9q-9 0 -12 10l-153 317q-3 6 -9 3l-79 -38q-9 -5 -13 4l-4 9q-5 9 4 13l103 50q10 5 14 -4l149 -311h3l241 857q3 10 12 10h9q11 0 8 -10l-252 -900q-3 -10 -12 -10z"/>
<glyph glyph-name="infinity" unicode="∞" horiz-adv-x="771" d="M198 120q40 0 78 29.5t90 97.5q-53 69 -90.5 98t-77.5 29q-55 0 -86.5 -35.5t-31.5 -90.5t34 -91.5t84 -36.5zM572 120q53 0 86 38t33 90q0 55 -31.5 90.5t-87.5 35.5q-41 0 -77.5 -28.5t-90.5 -98.5q58 -73 92.5 -100t75.5 -27zM572 92q-48 0 -91.5 31t-95.5 99 q-54 -68 -96 -99t-91 -31q-64 0 -106 43.5t-42 112.5t41 111.5t107 42.5q48 0 90.5 -31.5t96.5 -99.5q54 69 97.5 100t89.5 31q67 0 108 -42t41 -112q0 -68 -41.5 -112t-107.5 -44z"/>
<glyph glyph-name="integral" unicode="∫" horiz-adv-x="356" d="M83 -180q-17 0 -23 1q-10 2 -10 10v8q0 5 3 8t7 2q9 -1 22 -1q41 0 61 30t20 96v603q0 85 26 123.5t84 40.5q17 0 23 -1q10 -2 10 -10v-8q0 -5 -3 -8t-7 -2q-9 1 -22 1q-41 0 -61 -30t-20 -96v-603q0 -85 -26 -123.5t-84 -40.5z"/>
<glyph glyph-name="approxequal" unicode="≈" horiz-adv-x="534" d="M353 131q-42 0 -95 41q-46 34 -78 34q-49 0 -86 -59q-5 -8 -14 -2l-5 3q-8 5 -3 14q39 71 109 71q42 0 95 -41q46 -34 78 -34q49 0 86 59q5 8 14 2l5 -3q8 -5 3 -14q-39 -71 -109 -71zM353 319q-42 0 -95 41q-46 34 -78 34q-49 0 -86 -59q-5 -8 -14 -2l-5 3q-8 5 -3 14 q39 71 109 71q42 0 95 -41q46 -34 78 -34q49 0 86 59q5 8 14 2l5 -3q8 -5 3 -14q-39 -71 -109 -71z"/>
<glyph glyph-name="notequal" unicode="≠" d="M135 55h-12q-4 0 -5.5 3.5t0.5 7.5l60 100h-99q-10 0 -10 10v8q0 10 10 10h116l100 164h-216q-10 0 -10 10v8q0 10 10 10h233l61 101q6 10 14 10h12q4 0 5.5 -3.5t-0.5 -7.5l-61 -100h100q10 0 10 -10v-8q0 -10 -10 -10h-117l-99 -164h216q10 0 10 -10v-8q0 -10 -10 -10 h-233l-61 -101q-6 -10 -14 -10z"/>
<glyph glyph-name="lessequal" unicode="≤" d="M443 0h-364q-10 0 -10 10v8q0 10 10 10h364q10 0 10 -10v-8q0 -10 -10 -10zM443 114l-364 147q-10 4 -10 12v6q0 8 10 12l364 147q10 3 10 -7v-8q0 -9 -10 -13l-329 -133v-2l329 -133q10 -4 10 -13v-8q0 -10 -10 -7z"/>
<glyph glyph-name="greaterequal" unicode="≥" d="M443 0h-364q-10 0 -10 10v8q0 10 10 10h364q10 0 10 -10v-8q0 -10 -10 -10zM443 261l-364 -147q-10 -3 -10 7v8q0 9 10 13l329 133v2l-329 133q-10 4 -10 13v8q0 10 10 7l364 -147q10 -4 10 -12v-6q0 -8 -10 -12z"/>
<glyph glyph-name="lozenge" unicode="◊" horiz-adv-x="554" d="M279 -2l163 331l-164 331h-2l-164 -331l165 -331h2zM282 -52h-10q-6 0 -11 10l-181 364q-3 7 0 14l181 364q5 10 11 10h10q6 0 11 -10l181 -364q3 -7 0 -14l-181 -364q-5 -10 -11 -10z"/>
<glyph glyph-name="uniF8FF" unicode="" horiz-adv-x="464" d="M234 113h-19q-10 0 -10 10v28q0 10 10 10h19q10 0 10 -10v-28q0 -10 -10 -10zM229 217h-8q-10 0 -10 10v25q0 43 24 72l31 37q27 32 35 50.5t8 43.5q0 37 -23 58.5t-59 21.5q-70 0 -87 -77q-2 -9 -12 -8l-7 1q-10 2 -8 11q8 44 39 71.5t75 27.5q50 0 80 -30t30 -76 q0 -31 -10 -53t-34 -51l-31 -37q-15 -19 -19 -30t-4 -32v-25q0 -10 -10 -10zM428 28q6 0 6 6v612q0 6 -6 6h-392q-6 0 -6 -6v-612q0 -6 6 -6h392zM454 0h-444q-10 0 -10 10v660q0 10 10 10h444q10 0 10 -10v-660q0 -10 -10 -10z"/>
<glyph glyph-name="CR" horiz-adv-x="0"/>
<glyph glyph-name="grave.cap" horiz-adv-x="420" d="M264 765h-7q-9 0 -18 10l-87 103q-3 4 -1.5 7t5.5 3h15q8 0 17 -10l80 -103q8 -10 -4 -10z"/>
<glyph glyph-name="acute.cap" horiz-adv-x="420" d="M163 765h-7q-12 0 -4 10l80 103q9 10 17 10h15q4 0 5.5 -3t-1.5 -7l-87 -103q-9 -10 -18 -10z"/>
<glyph glyph-name="circumflex.cap" horiz-adv-x="420" d="M311 755h-8q-9 0 -16 10l-76 98h-2l-76 -98q-8 -10 -16 -10h-8q-5 0 -6 3t2 7l87 121q6 9 14 9h8q8 0 14 -9l87 -121q3 -4 2 -7t-6 -3z"/>
<glyph glyph-name="caron.cap" horiz-adv-x="420" d="M214 755h-8q-8 0 -14 9l-87 121q-3 4 -2 7t6 3h8q8 0 16 -10l76 -98h2l76 98q7 10 16 10h8q5 0 6 -3t-2 -7l-87 -121q-6 -9 -14 -9z"/>
<glyph glyph-name="caron.alt" horiz-adv-x="420" d="M203 552q-7 0 -7 9v109q0 10 9 10h11q9 0 9 -10v-64q0 -16 -5 -28l-7 -19q-3 -7 -10 -7z"/>
<glyph glyph-name="tilde.cap" horiz-adv-x="420" d="M261 794q-23 0 -57 21q-28 18 -46 18q-24 0 -55 -34q-3 -3 -5.5 -2t-2.5 5v15q0 7 7 14q26 28 57 28q25 0 57 -21q27 -18 46 -18q24 0 55 34q3 3 5.5 2t2.5 -5v-15q0 -7 -7 -14q-26 -28 -57 -28z"/>
<glyph glyph-name="dieresis.cap" horiz-adv-x="420" d="M122 795h-24q-10 0 -10 10v40q0 10 10 10h24q10 0 10 -10v-40q0 -10 -10 -10zM322 795h-24q-10 0 -10 10v40q0 10 10 10h24q10 0 10 -10v-40q0 -10 -10 -10z"/>
<glyph glyph-name="macron.cap" horiz-adv-x="420" d="M326 810h-232q-10 0 -10 10v8q0 10 10 10h232q10 0 10 -10v-8q0 -10 -10 -10z"/>
<glyph glyph-name="breve.cap" horiz-adv-x="420" d="M210 775q-45 0 -76.5 26t-39.5 68q-2 10 9 10h7q8 0 11 -10q19 -67 89 -67q71 0 90 67q3 10 11 10h6q11 0 9 -10q-8 -42 -39.5 -68t-76.5 -26z"/>
<glyph glyph-name="ring.cap" horiz-adv-x="420" d="M210 772q25 0 40.5 16t15.5 41t-15.5 41t-40.5 16t-40.5 -16t-15.5 -41t15.5 -41t40.5 -16zM210 746q-36 0 -59.5 23.5t-23.5 59.5t23.5 59.5t59.5 23.5t59.5 -23.5t23.5 -59.5t-23.5 -59.5t-59.5 -23.5z"/>
<glyph glyph-name="hungarumlaut.cap" horiz-adv-x="420" d="M136 765h-8q-11 0 -4 10l68 103q7 10 16 10h14q4 0 5.5 -3t-1.5 -7l-75 -104q-6 -9 -15 -9zM246 765h-8q-11 0 -4 10l68 103q7 10 16 10h14q4 0 5.5 -3t-1.5 -7l-75 -104q-6 -9 -15 -9z"/>
<glyph glyph-name="dotaccent.cap" horiz-adv-x="420" d="M222 795h-24q-10 0 -10 10v40q0 10 10 10h24q10 0 10 -10v-40q0 -10 -10 -10z"/>
<glyph glyph-name="commaaccent" horiz-adv-x="420" d="M202 -183q-7 0 -7 9v109q0 10 9 10h11q9 0 9 -10v-64q0 -15 -5 -28l-7 -19q-4 -7 -10 -7z"/>
<glyph glyph-name="commaaccent.alt" horiz-adv-x="420" d="M217 700q7 0 7 -9v-109q0 -10 -9 -10h-11q-9 0 -9 10v64q0 16 5 28l7 19q3 7 10 7z"/>
<glyph glyph-name="uni0394" horiz-adv-x="587" d="M501 29q7 0 6 6l-212 592h-2l-214 -592q-1 -6 6 -6h416zM543 0h-499q-10 0 -7 10l240 660q3 10 11 10h12q8 0 11 -10l239 -660q3 -10 -7 -10z"/>
<glyph glyph-name="uni03A9" horiz-adv-x="602" d="M510 0h-161q-10 0 -10 10v12q0 7 10 10q64 25 95 57t44 89t13 162q0 137 -19 194q-42 127 -181 127t-181 -127q-19 -57 -19 -194q0 -105 13 -162t44 -89t95 -57q10 -3 10 -10v-12q0 -10 -10 -10h-161q-10 0 -10 10v8q0 10 10 10h96v2q-66 33 -92 99t-26 211q0 142 20 202 q48 148 211 148t211 -148q20 -60 20 -202q0 -145 -26 -211t-92 -99v-2h96q10 0 10 -10v-8q0 -10 -10 -10z"/>
<glyph glyph-name="uni03BC" horiz-adv-x="541" d="M431 0h-10q-10 0 -10 10v67h-1q-17 -41 -55.5 -64t-89.5 -23q-95 0 -134 65h-1v-225q0 -10 -10 -10h-10q-10 0 -10 10v634q0 10 10 10h10q10 0 10 -10v-299q0 -147 137 -147q61 0 102.5 39.5t41.5 107.5v299q0 10 10 10h10q10 0 10 -10v-454q0 -10 -10 -10z"/>
<glyph glyph-name="exclam.sc" horiz-adv-x="288" d="M158 0h-28q-10 0 -10 10v50q0 10 10 10h28q10 0 10 -10v-50q0 -10 -10 -10zM149 170h-8q-10 0 -10 10l-2 324q0 10 10 10h12q10 0 10 -10l-2 -324q0 -10 -10 -10z"/>
<glyph glyph-name="dollar.sc" horiz-adv-x="440" d="M367 133q0 46 -29 74t-102 36v-223q62 4 96.5 33.5t34.5 79.5zM87 388q0 -46 26.5 -74.5t94.5 -38.5v219q-57 -2 -89 -30t-32 -76zM226 -54h-8q-10 0 -10 10v36q-96 3 -164 48q-10 6 -2 14l7 8q5 6 14 1q71 -41 145 -43v226q-151 18 -151 139q0 63 41 98.5t110 38.5v36 q0 10 10 10h8q10 0 10 -10v-37q71 -3 126 -34q10 -6 3 -14l-5 -7q-6 -7 -14 -2q-51 26 -110 29v-221q161 -18 161 -137q0 -62 -41.5 -100t-119.5 -42v-37q0 -10 -10 -10z"/>
<glyph glyph-name="percent.sc" horiz-adv-x="617" d="M458 20q47 0 60 42q7 21 7 67t-7 67q-13 42 -60 42t-60 -42q-7 -21 -7 -67t7 -67q13 -42 60 -42zM458 -6q-68 0 -88 61q-7 23 -7 74t7 74q20 61 88 61t88 -61q7 -23 7 -74t-7 -74q-20 -61 -88 -61zM159 276q47 0 60 42q7 21 7 67t-7 67q-13 42 -60 42t-60 -42 q-7 -21 -7 -67t7 -67q13 -42 60 -42zM159 250q-68 0 -88 61q-7 23 -7 74t7 74q20 61 88 61t88 -61q7 -23 7 -74t-7 -74q-20 -61 -88 -61zM146 -10h-9q-12 0 -6 10l325 514q6 10 15 10h9q12 0 6 -10l-325 -514q-6 -10 -15 -10z"/>
<glyph glyph-name="ampersand.sc" horiz-adv-x="506" d="M211 18q37 0 68 18.5t67 60.5l-136 172q-59 -49 -79 -81t-20 -70q0 -43 26.5 -71.5t73.5 -28.5zM147 427q0 -20 12.5 -42.5t54.5 -76.5q55 44 71 67.5t16 48.5q0 31 -20.5 51.5t-56.5 20.5t-56.5 -19.5t-20.5 -49.5zM474 -5h-14q-20 0 -31 5.5t-23 21.5l-42 52 q-75 -84 -153 -84q-59 0 -94.5 36t-35.5 91q0 45 25 83.5t86 89.5q-48 61 -61.5 86t-13.5 51q0 41 30 69t77 28q48 0 77.5 -29t29.5 -71q0 -30 -20 -59t-79 -78l133 -167l62 76q6 7 14 2l7 -5q9 -5 2 -14l-67 -82l46 -57q13 -17 32 -17h13q10 0 10 -10v-8q0 -10 -10 -10z "/>
<glyph glyph-name="zero.sc" horiz-adv-x="440" d="M220 18q42 0 73 22.5t43 58.5q10 31 10 158t-10 158q-12 36 -43 58.5t-73 22.5t-73 -22.5t-43 -58.5q-10 -31 -10 -158t10 -158q12 -36 43 -58.5t73 -22.5zM220 -10q-52 0 -90.5 27t-53.5 73q-12 35 -12 167t12 167q15 46 53.5 73t90.5 27t90.5 -27t53.5 -73 q12 -35 12 -167t-12 -167q-15 -46 -53.5 -73t-90.5 -27z"/>
<glyph glyph-name="one.sc" horiz-adv-x="440" d="M246 0h-10q-10 0 -10 10v464h-2l-110 -72q-4 -3 -7.5 -1t-3.5 8v11q0 11 7 15l111 74q7 5 15 5h10q10 0 10 -10v-494q0 -10 -10 -10z"/>
<glyph glyph-name="two.sc" horiz-adv-x="440" d="M360 0h-277q-10 0 -10 10v3q0 7 4 12l213 240q51 58 51 116q0 51 -32.5 83t-86.5 32q-48 0 -80.5 -27t-40.5 -72q-2 -10 -13 -7l-7 2q-9 3 -8 11q8 50 48.5 85.5t100.5 35.5q66 0 107.5 -40.5t41.5 -102.5q0 -37 -13.5 -67.5t-47.5 -68.5l-194 -216v-1h244q10 0 10 -10 v-8q0 -10 -10 -10z"/>
<glyph glyph-name="three.sc" horiz-adv-x="440" d="M220 -12q-65 0 -105 32.5t-51 77.5q-1 8 8 11l7 2q10 3 13 -7q30 -88 128 -88q58 0 92.5 33.5t34.5 85.5t-35 86t-94 34h-26q-10 0 -10 10v7q0 10 10 10h26q53 0 85 29.5t32 77.5q0 47 -31.5 77t-86.5 30q-96 0 -118 -83q-2 -10 -13 -7l-7 2q-9 3 -8 11q10 45 48.5 75 t97.5 30q67 0 107.5 -38.5t40.5 -96.5q0 -45 -23 -75t-57 -43v-2q37 -12 64.5 -46.5t27.5 -87.5q0 -64 -43.5 -105.5t-113.5 -41.5z"/>
<glyph glyph-name="four.sc" horiz-adv-x="440" d="M304 0h-10q-10 0 -10 10v95q0 6 -6 6h-220q-10 0 -10 10v6q0 6 4 14l187 365q4 8 13 8h11q11 0 7 -9l-186 -365v-1h194q6 0 6 6v140q0 10 10 10h10q10 0 10 -10v-140q0 -6 6 -6h69q10 0 10 -10v-8q0 -10 -10 -10h-69q-6 0 -6 -6v-95q0 -10 -10 -10z"/>
<glyph glyph-name="five.sc" horiz-adv-x="440" d="M229 -10q-63 0 -101.5 32t-48.5 78q-2 11 7 12l9 2q9 3 13 -8q22 -88 121 -88q88 0 112 73q9 29 9 72q0 47 -8 73q-25 75 -110 75q-44 0 -74 -21t-40 -51q-3 -10 -10 -10h-10q-10 0 -10 10v265q0 10 10 10h260q10 0 10 -10v-8q0 -10 -10 -10h-234q-6 0 -6 -6v-196h1 q13 22 42 38t71 16q108 0 138 -93q10 -32 10 -82q0 -46 -10 -78q-32 -95 -141 -95z"/>
<glyph glyph-name="six.sc" horiz-adv-x="440" d="M220 18q57 0 94.5 36t37.5 92t-37.5 92t-94.5 36t-94.5 -36t-37.5 -92t37.5 -92t94.5 -36zM220 -10q-70 0 -116 43.5t-46 112.5q0 54 36 116l139 243q5 9 14 9h11q12 0 6 -10l-127 -224l1 -1q30 23 82 23q70 0 116 -43.5t46 -112.5t-46 -112.5t-116 -43.5z"/>
<glyph glyph-name="seven.sc" horiz-adv-x="440" d="M148 0h-12q-10 0 -5 10l213 473v3h-233q-6 0 -6 -6v-70q0 -10 -10 -10h-10q-10 0 -10 10v94q0 10 10 10h281q10 0 10 -10v-14q0 -5 -3 -11l-211 -469q-5 -10 -14 -10z"/>
<glyph glyph-name="eight.sc" horiz-adv-x="440" d="M220 18q59 0 95.5 33.5t36.5 85.5t-36.5 85.5t-95.5 33.5t-95.5 -33.5t-36.5 -85.5t36.5 -85.5t95.5 -33.5zM220 284q53 0 86 30t33 76t-33 76t-86 30t-86 -30t-33 -76t33 -76t86 -30zM220 -10q-72 0 -117 41.5t-45 105.5q0 47 25 82t68 50v2q-38 15 -59 46.5t-21 72.5 q0 58 42 96t107 38t107 -38t42 -96q0 -41 -21 -72.5t-59 -46.5v-2q43 -15 68 -50t25 -82q0 -64 -45 -105.5t-117 -41.5z"/>
<glyph glyph-name="nine.sc" horiz-adv-x="440" d="M220 240q57 0 94.5 36t37.5 92t-37.5 92t-94.5 36t-94.5 -36t-37.5 -92t37.5 -92t94.5 -36zM193 0h-11q-12 0 -6 10l127 224l-1 1q-30 -23 -82 -23q-70 0 -116 43.5t-46 112.5t46 112.5t116 43.5t116 -43.5t46 -112.5q0 -54 -36 -116l-139 -243q-5 -9 -14 -9z"/>
<glyph glyph-name="question.sc" horiz-adv-x="396" d="M213 0h-28q-10 0 -10 10v50q0 10 10 10h28q10 0 10 -10v-50q0 -10 -10 -10zM204 127h-10q-10 0 -10 10v27q0 42 30 77l40 46q30 35 41 57t11 54q0 44 -29 71t-76 27q-92 0 -111 -94q-2 -9 -12 -8l-9 2q-10 2 -8 11q9 52 45.5 84.5t94.5 32.5q61 0 98 -36t37 -90 q0 -58 -50 -115l-40 -46q-20 -23 -26 -37t-6 -37v-26q0 -10 -10 -10z"/>
<glyph glyph-name="a.sc" horiz-adv-x="500" d="M251 468l-120 -297h238l-117 297h-1zM458 0h-13q-8 0 -12 10l-53 133h-260l-53 -133q-4 -10 -12 -10h-13q-10 0 -7 10l198 494q3 10 12 10h12q9 0 12 -10l196 -494q3 -10 -7 -10z"/>
<glyph glyph-name="b.sc" horiz-adv-x="532" d="M296 28q67 0 102 29t35 80q0 52 -35 81.5t-102 29.5h-159q-6 0 -6 -6v-208q0 -6 6 -6h159zM293 276q63 0 97 28.5t34 76.5q0 50 -33.5 77.5t-97.5 27.5h-156q-6 0 -6 -6v-198q0 -6 6 -6h156zM296 0h-185q-10 0 -10 10v494q0 10 10 10h182q76 0 118.5 -35.5t42.5 -96.5 q0 -95 -95 -118v-2q39 -5 71.5 -37.5t32.5 -87.5q0 -63 -44 -100t-123 -37z"/>
<glyph glyph-name="c.sc" horiz-adv-x="480" d="M258 -10q-64 0 -112 33t-67 94q-15 47 -15 140t15 140q19 61 67 94t112 33q47 0 90.5 -23t67.5 -66q6 -9 -4 -14l-7 -4q-9 -4 -14 4q-48 75 -133 75q-55 0 -94.5 -28t-56.5 -81q-13 -41 -13 -130t13 -130q17 -53 56.5 -81t94.5 -28q85 0 133 75q5 8 14 4l7 -4 q10 -5 4 -14q-24 -43 -67.5 -66t-90.5 -23z"/>
<glyph glyph-name="d.sc" horiz-adv-x="549" d="M274 28q124 0 153 89q13 38 13 140t-13 140q-29 89 -153 89h-137q-6 0 -6 -6v-446q0 -6 6 -6h137zM277 0h-166q-10 0 -10 10v494q0 10 10 10h166q146 0 181 -111q13 -41 13 -146t-13 -146q-35 -111 -181 -111z"/>
<glyph glyph-name="e.sc" horiz-adv-x="501" d="M423 0h-312q-10 0 -10 10v494q0 10 10 10h312q10 0 10 -10v-8q0 -10 -10 -10h-286q-6 0 -6 -6v-199q0 -6 6 -6h246q10 0 10 -10v-8q0 -10 -10 -10h-246q-6 0 -6 -6v-207q0 -6 6 -6h286q10 0 10 -10v-8q0 -10 -10 -10z"/>
<glyph glyph-name="f.sc" horiz-adv-x="491" d="M121 0h-10q-10 0 -10 10v494q0 10 10 10h312q10 0 10 -10v-8q0 -10 -10 -10h-286q-6 0 -6 -6v-205q0 -6 6 -6h246q10 0 10 -10v-8q0 -10 -10 -10h-246q-6 0 -6 -6v-225q0 -10 -10 -10z"/>
<glyph glyph-name="g.sc" horiz-adv-x="518" d="M259 -10q-65 0 -113 33.5t-67 94.5q-15 47 -15 139q0 93 15 140q19 61 67 94t113 33q115 0 168 -89q6 -9 -4 -14l-7 -4q-8 -4 -14 4q-49 75 -143 75q-56 0 -95.5 -28t-56.5 -81q-13 -41 -13 -130q0 -88 13 -129q17 -53 56.5 -81.5t95.5 -28.5q117 0 152 108q13 41 13 96 q0 5 -5 5h-141q-9 0 -9 8v11q0 8 9 8h168q8 0 8 -8v-9q0 -74 -15 -121q-19 -61 -67 -93.5t-113 -32.5z"/>
<glyph glyph-name="h.sc" horiz-adv-x="575" d="M464 0h-10q-10 0 -10 10v231q0 6 -6 6h-301q-6 0 -6 -6v-231q0 -10 -10 -10h-10q-10 0 -10 10v494q0 10 10 10h10q10 0 10 -10v-223q0 -6 6 -6h301q6 0 6 6v223q0 10 10 10h10q10 0 10 -10v-494q0 -10 -10 -10z"/>
<glyph glyph-name="i.sc" horiz-adv-x="232" d="M121 0h-10q-10 0 -10 10v494q0 10 10 10h10q10 0 10 -10v-494q0 -10 -10 -10z"/>
<glyph glyph-name="j.sc" horiz-adv-x="412" d="M166 -10q-76 0 -124 39q-7 6 0 13l6 7q6 7 14 1q42 -32 104 -32q117 0 117 134v352q0 10 10 10h10q10 0 10 -10v-353q0 -80 -38 -120.5t-109 -40.5z"/>
<glyph glyph-name="k.sc" horiz-adv-x="531" d="M466 0h-17q-8 0 -14 10l-178 279l-126 -136v-143q0 -10 -10 -10h-10q-10 0 -10 10v494q0 10 10 10h10q10 0 10 -10v-311l287 311q9 10 17 10h17q5 0 6.5 -3t-1.5 -7l-179 -193l193 -301q6 -10 -5 -10z"/>
<glyph glyph-name="l.sc" horiz-adv-x="475" d="M413 0h-302q-10 0 -10 10v494q0 10 10 10h10q10 0 10 -10v-470q0 -6 6 -6h276q10 0 10 -10v-8q0 -10 -10 -10z"/>
<glyph glyph-name="m.sc" horiz-adv-x="664" d="M553 0h-10q-10 0 -10 10v429h-3l-180 -351q-5 -10 -16 -10h-4q-11 0 -16 10l-180 351h-3v-429q0 -10 -10 -10h-10q-10 0 -10 10v494q0 10 10 10h12q9 0 13 -10l196 -385h3l194 385q4 10 13 10h11q10 0 10 -10v-494q0 -10 -10 -10z"/>
<glyph glyph-name="n.sc" horiz-adv-x="577" d="M466 0h-10q-8 0 -16 10l-307 446h-2v-446q0 -10 -10 -10h-10q-10 0 -10 10v494q0 10 10 10h9q10 0 17 -10l307 -446h2v446q0 10 10 10h10q10 0 10 -10v-494q0 -10 -10 -10z"/>
<glyph glyph-name="o.sc" horiz-adv-x="518" d="M259 18q56 0 95.5 28.5t56.5 81.5q13 41 13 129t-13 129q-17 53 -56.5 81.5t-95.5 28.5t-95.5 -28.5t-56.5 -81.5q-13 -41 -13 -129t13 -129q17 -53 56.5 -81.5t95.5 -28.5zM259 -10q-65 0 -113 33.5t-67 94.5q-15 47 -15 139t15 139q19 61 67 94.5t113 33.5t113 -33.5 t67 -94.5q15 -47 15 -139t-15 -139q-19 -61 -67 -94.5t-113 -33.5z"/>
<glyph glyph-name="p.sc" horiz-adv-x="516" d="M296 260q66 0 101 29.5t35 83.5t-35 83.5t-101 29.5h-159q-6 0 -6 -6v-214q0 -6 6 -6h159zM121 0h-10q-10 0 -10 10v494q0 10 10 10h185q78 0 122 -37.5t44 -103.5t-44 -103.5t-122 -37.5h-159q-6 0 -6 -6v-216q0 -10 -10 -10z"/>
<glyph glyph-name="q.sc" horiz-adv-x="518" d="M259 18q63 0 105 36l-66 66q-8 8 0 15l6 6q7 7 14 0l65 -66q18 22 28 53q13 41 13 129t-13 129q-17 53 -56.5 81.5t-95.5 28.5t-95.5 -28.5t-56.5 -81.5q-13 -41 -13 -129t13 -129q17 -53 56.5 -81.5t95.5 -28.5zM441 -23l-57 56q-51 -43 -125 -43q-65 0 -113 33.5 t-67 94.5q-15 47 -15 139t15 139q19 61 67 94.5t113 33.5t113 -33.5t67 -94.5q15 -47 15 -139t-15 -139q-11 -36 -35 -64l57 -56q7 -8 0 -15l-6 -6q-7 -7 -14 0z"/>
<glyph glyph-name="r.sc" horiz-adv-x="541" d="M300 264q64 0 97 29t33 82t-33 82t-97 29h-163q-6 0 -6 -6v-210q0 -6 6 -6h163zM460 0h-16q-7 0 -12 9l-121 227h-11h-163q-6 0 -6 -6v-220q0 -10 -10 -10h-10q-10 0 -10 10v494q0 10 10 10h189q76 0 118 -37t42 -102q0 -56 -30.5 -91t-87.5 -45l123 -229q6 -10 -5 -10z "/>
<glyph glyph-name="s.sc" horiz-adv-x="487" d="M235 -10q-52 0 -101.5 16t-79.5 40q-9 6 -1 14l7 7q6 7 14 1q73 -50 166 -50q74 0 115.5 31.5t41.5 85.5q0 45 -31.5 71.5t-111.5 37.5l-30 4q-83 11 -120.5 44.5t-37.5 88.5q0 67 45.5 105t124.5 38q92 0 155 -41q9 -5 2 -14l-5 -7q-6 -7 -14 -2q-67 36 -139 36 q-66 0 -102.5 -30.5t-36.5 -81.5q0 -46 32.5 -73t110.5 -37l30 -4q83 -11 120.5 -44t37.5 -89q0 -67 -49.5 -107t-142.5 -40z"/>
<glyph glyph-name="t.sc" horiz-adv-x="444" d="M227 0h-10q-10 0 -10 10v470q0 6 -6 6h-165q-10 0 -10 10v8q0 10 10 10h372q10 0 10 -10v-8q0 -10 -10 -10h-165q-6 0 -6 -6v-470q0 -10 -10 -10z"/>
<glyph glyph-name="u.sc" horiz-adv-x="562" d="M281 -10q-86 0 -136.5 51t-50.5 144v319q0 10 10 10h10q10 0 10 -10v-319q0 -82 41.5 -124.5t115.5 -42.5t115.5 42.5t41.5 124.5v319q0 10 10 10h10q10 0 10 -10v-319q0 -93 -50.5 -144t-136.5 -51z"/>
<glyph glyph-name="v.sc" horiz-adv-x="484" d="M250 0h-14q-6 0 -9 8l-191 490q-6 16 7 16h8q11 0 15 -10l178 -458h1l174 458q4 10 15 10h7q13 0 7 -16l-188 -490q-3 -8 -10 -8z"/>
<glyph glyph-name="w.sc" horiz-adv-x="704" d="M521 0h-13q-8 0 -11 10l-144 447h-2l-144 -447q-3 -10 -11 -10h-13q-8 0 -11 10l-135 490q-4 14 9 14h7q13 0 15 -10l122 -449h2l142 449q3 10 11 10h14q8 0 11 -10l144 -449h1l121 449q2 10 15 10h7q13 0 9 -14l-135 -490q-3 -10 -11 -10z"/>
<glyph glyph-name="x.sc" horiz-adv-x="457" d="M414 0h-15q-9 0 -14 8l-156 235h-1l-156 -235q-5 -8 -14 -8h-15q-11 0 -5 10l174 261l-155 233q-6 10 5 10h15q9 0 14 -8l137 -207h1l138 207q5 8 14 8h14q11 0 5 -10l-154 -233l173 -261q6 -10 -5 -10z"/>
<glyph glyph-name="y.sc" horiz-adv-x="443" d="M227 0h-10q-10 0 -10 10v201l-168 287q-4 8 -1.5 12t8.5 4h9q10 0 16 -10l152 -257h1l149 257q6 10 16 10h8q6 0 8.5 -4t-1.5 -12l-167 -287v-201q0 -10 -10 -10z"/>
<glyph glyph-name="z.sc" horiz-adv-x="467" d="M398 0h-334q-10 0 -10 10v8q0 6 6 15l310 452v1h-277q-10 0 -10 10v8q0 10 10 10h305q10 0 10 -10v-8q0 -6 -5 -14l-311 -453v-1h306q10 0 10 -10v-8q0 -10 -10 -10z"/>
<glyph glyph-name="agrave.sc" horiz-adv-x="500" d="M258 600h-7q-9 0 -17 10l-85 120q-3 4 -1.5 7t6.5 3h15q10 0 16 -10l78 -120q7 -10 -5 -10zM251 468l-120 -297h238l-117 297h-1zM458 0h-13q-8 0 -12 10l-53 133h-260l-53 -133q-4 -10 -12 -10h-13q-10 0 -7 10l198 494q3 10 12 10h12q9 0 12 -10l196 -494q3 -10 -7 -10 z"/>
<glyph glyph-name="aacute.sc" horiz-adv-x="500" d="M251 600h-7q-12 0 -5 10l78 120q6 10 16 10h15q5 0 6.5 -3t-1.5 -7l-85 -120q-8 -10 -17 -10zM251 468l-120 -297h238l-117 297h-1zM458 0h-13q-8 0 -12 10l-53 133h-260l-53 -133q-4 -10 -12 -10h-13q-10 0 -7 10l198 494q3 10 12 10h12q9 0 12 -10l196 -494 q3 -10 -7 -10z"/>
<glyph glyph-name="acircumflex.sc" horiz-adv-x="500" d="M351 600h-8q-9 0 -16 10l-76 98h-2l-76 -98q-8 -10 -16 -10h-8q-5 0 -6 3t2 7l87 121q6 9 14 9h8q8 0 14 -9l87 -121q3 -4 2 -7t-6 -3zM251 468l-120 -297h238l-117 297h-1zM458 0h-13q-8 0 -12 10l-53 133h-260l-53 -133q-4 -10 -12 -10h-13q-10 0 -7 10l198 494 q3 10 12 10h12q9 0 12 -10l196 -494q3 -10 -7 -10z"/>
<glyph glyph-name="atilde.sc" horiz-adv-x="500" d="M301 653q-23 0 -57 21q-28 18 -46 18q-24 0 -55 -34q-3 -3 -5.5 -2t-2.5 5v15q0 7 7 14q26 28 57 28q25 0 57 -21q27 -18 46 -18q24 0 55 34q3 3 5.5 2t2.5 -5v-15q0 -7 -7 -14q-26 -28 -57 -28zM251 468l-120 -297h238l-117 297h-1zM458 0h-13q-8 0 -12 10l-53 133h-260 l-53 -133q-4 -10 -12 -10h-13q-10 0 -7 10l198 494q3 10 12 10h12q9 0 12 -10l196 -494q3 -10 -7 -10z"/>
<glyph glyph-name="adieresis.sc" horiz-adv-x="500" d="M162 660h-24q-10 0 -10 10v40q0 10 10 10h24q10 0 10 -10v-40q0 -10 -10 -10zM362 660h-24q-10 0 -10 10v40q0 10 10 10h24q10 0 10 -10v-40q0 -10 -10 -10zM251 468l-120 -297h238l-117 297h-1zM458 0h-13q-8 0 -12 10l-53 133h-260l-53 -133q-4 -10 -12 -10h-13 q-10 0 -7 10l198 494q3 10 12 10h12q9 0 12 -10l196 -494q3 -10 -7 -10z"/>
<glyph glyph-name="amacron.sc" horiz-adv-x="500" d="M366 674h-232q-10 0 -10 10v8q0 10 10 10h232q10 0 10 -10v-8q0 -10 -10 -10zM251 468l-120 -297h238l-117 297h-1zM458 0h-13q-8 0 -12 10l-53 133h-260l-53 -133q-4 -10 -12 -10h-13q-10 0 -7 10l198 494q3 10 12 10h12q9 0 12 -10l196 -494q3 -10 -7 -10z"/>
<glyph glyph-name="abreve.sc" horiz-adv-x="500" d="M250 619q-45 0 -76.5 26t-39.5 68q-2 10 9 10h7q8 0 11 -10q19 -67 89 -67q71 0 90 67q3 10 11 10h6q11 0 9 -10q-8 -42 -39.5 -68t-76.5 -26zM251 468l-120 -297h238l-117 297h-1zM458 0h-13q-8 0 -12 10l-53 133h-260l-53 -133q-4 -10 -12 -10h-13q-10 0 -7 10l198 494 q3 10 12 10h12q9 0 12 -10l196 -494q3 -10 -7 -10z"/>
<glyph glyph-name="aring.sc" horiz-adv-x="500" d="M250 612q25 0 40.5 16t15.5 41t-15.5 41t-40.5 16t-40.5 -16t-15.5 -41t15.5 -41t40.5 -16zM250 586q-36 0 -59.5 23.5t-23.5 59.5t23.5 59.5t59.5 23.5t59.5 -23.5t23.5 -59.5t-23.5 -59.5t-59.5 -23.5zM251 468l-120 -297h238l-117 297h-1zM458 0h-13q-8 0 -12 10 l-53 133h-260l-53 -133q-4 -10 -12 -10h-13q-10 0 -7 10l198 494q3 10 12 10h12q9 0 12 -10l196 -494q3 -10 -7 -10z"/>
<glyph glyph-name="aringacute.sc" horiz-adv-x="500" d="M251 468l-120 -297h238l-117 297h-1zM250 514q25 0 40.5 16t15.5 41t-15.5 41t-40.5 16t-40.5 -16t-15.5 -41t15.5 -41t40.5 -16zM458 0h-13q-8 0 -12 10l-53 133h-260l-53 -133q-4 -10 -12 -10h-13q-10 0 -7 10l193 481q-27 6 -44 28t-17 52q0 36 23.5 59.5t59.5 23.5 t59.5 -23.5t23.5 -59.5q0 -30 -16 -51.5t-43 -28.5l191 -481q3 -10 -7 -10zM251 703h-7q-12 0 -4 10l80 103q9 10 17 10h15q4 0 5.5 -3t-1.5 -7l-87 -103q-9 -10 -18 -10z"/>
<glyph glyph-name="aogonek.sc" horiz-adv-x="501" d="M369 171l-117 297h-1l-120 -297h238zM408 -162q-28 0 -43.5 15t-15.5 42q0 52 85 112l-54 136h-260l-53 -133q-4 -10 -12 -10h-13q-10 0 -7 10l198 494q3 10 12 10h12q9 0 12 -10l196 -494q2 -6 -3 -10q-51 -41 -67 -63t-16 -40q0 -31 31 -31q12 0 30 11q9 5 14 -3l3 -5 q5 -8 -3 -14q-19 -17 -46 -17z"/>
<glyph glyph-name="ae.sc" horiz-adv-x="770" d="M367 486l-199 -315h196q6 0 6 6v309h-3zM692 0h-312q-10 0 -10 10v127q0 6 -6 6h-213l-84 -133q-6 -10 -14 -10h-13q-4 0 -6 3t0 7l310 495q6 9 15 9h333q10 0 10 -10v-8q0 -10 -10 -10h-286q-6 0 -6 -6v-199q0 -6 6 -6h246q10 0 10 -10v-8q0 -10 -10 -10h-246 q-6 0 -6 -6v-207q0 -6 6 -6h286q10 0 10 -10v-8q0 -10 -10 -10z"/>
<glyph glyph-name="aeacute.sc" horiz-adv-x="770" d="M412 600h-7q-12 0 -5 10l78 120q6 10 16 10h15q5 0 6.5 -3t-1.5 -7l-85 -120q-7 -10 -17 -10zM367 486l-199 -315h196q6 0 6 6v309h-3zM692 0h-312q-10 0 -10 10v127q0 6 -6 6h-213l-84 -133q-6 -10 -14 -10h-13q-4 0 -6 3t0 7l310 495q6 9 15 9h333q10 0 10 -10v-8 q0 -10 -10 -10h-286q-6 0 -6 -6v-199q0 -6 6 -6h246q10 0 10 -10v-8q0 -10 -10 -10h-246q-6 0 -6 -6v-207q0 -6 6 -6h286q10 0 10 -10v-8q0 -10 -10 -10z"/>
<glyph glyph-name="cacute.sc" horiz-adv-x="480" d="M238 600h-7q-12 0 -5 10l78 120q6 10 16 10h15q5 0 6.5 -3t-1.5 -7l-85 -120q-7 -10 -17 -10zM258 -10q-64 0 -112 33t-67 94q-15 47 -15 140t15 140q19 61 67 94t112 33q47 0 90.5 -23t67.5 -66q6 -9 -4 -14l-7 -4q-9 -4 -14 4q-48 75 -133 75q-55 0 -94.5 -28 t-56.5 -81q-13 -41 -13 -130t13 -130q17 -53 56.5 -81t94.5 -28q85 0 133 75q5 8 14 4l7 -4q10 -5 4 -14q-24 -43 -67.5 -66t-90.5 -23z"/>
<glyph glyph-name="ccircumflex.sc" horiz-adv-x="480" d="M357 600h-8q-9 0 -16 10l-76 98h-2l-76 -98q-8 -10 -16 -10h-8q-5 0 -6 3t2 7l87 121q6 9 14 9h8q8 0 14 -9l87 -121q3 -4 2 -7t-6 -3zM258 -10q-64 0 -112 33t-67 94q-15 47 -15 140t15 140q19 61 67 94t112 33q47 0 90.5 -23t67.5 -66q6 -9 -4 -14l-7 -4q-9 -4 -14 4 q-48 75 -133 75q-55 0 -94.5 -28t-56.5 -81q-13 -41 -13 -130t13 -130q17 -53 56.5 -81t94.5 -28q85 0 133 75q5 8 14 4l7 -4q10 -5 4 -14q-24 -43 -67.5 -66t-90.5 -23z"/>
<glyph glyph-name="ccaron.sc" horiz-adv-x="480" d="M260 600h-8q-8 0 -14 9l-87 121q-3 4 -2 7t6 3h8q9 0 16 -10l76 -98h2l76 98q7 10 16 10h8q5 0 6 -3t-2 -7l-87 -121q-6 -9 -14 -9zM258 -10q-64 0 -112 33t-67 94q-15 47 -15 140t15 140q19 61 67 94t112 33q47 0 90.5 -23t67.5 -66q6 -9 -4 -14l-7 -4q-9 -4 -14 4 q-48 75 -133 75q-55 0 -94.5 -28t-56.5 -81q-13 -41 -13 -130t13 -130q17 -53 56.5 -81t94.5 -28q85 0 133 75q5 8 14 4l7 -4q10 -5 4 -14q-24 -43 -67.5 -66t-90.5 -23z"/>
<glyph glyph-name="cdotaccent.sc" horiz-adv-x="480" d="M268 660h-24q-10 0 -10 10v40q0 10 10 10h24q10 0 10 -10v-40q0 -10 -10 -10zM258 -10q-64 0 -112 33t-67 94q-15 47 -15 140t15 140q19 61 67 94t112 33q47 0 90.5 -23t67.5 -66q6 -9 -4 -14l-7 -4q-9 -4 -14 4q-48 75 -133 75q-55 0 -94.5 -28t-56.5 -81 q-13 -41 -13 -130t13 -130q17 -53 56.5 -81t94.5 -28q85 0 133 75q5 8 14 4l7 -4q10 -5 4 -14q-24 -43 -67.5 -66t-90.5 -23z"/>
<glyph glyph-name="ccedilla.sc" horiz-adv-x="480" d="M210 -145h-11q-10 0 -7 10l48 126q-58 5 -100.5 37.5t-60.5 88.5q-15 47 -15 140t15 140q19 61 67 94t112 33q47 0 90.5 -23t67.5 -66q6 -9 -4 -14l-7 -4q-9 -4 -14 4q-46 72 -133 75q-55 0 -94.5 -28t-56.5 -81q-13 -41 -13 -130t13 -130q17 -53 56.5 -81t94.5 -28 q87 3 133 75q5 8 14 4l7 -4q10 -5 4 -14q-23 -41 -63 -64t-85 -25l-42 -125q-4 -10 -16 -10z"/>
<glyph glyph-name="dcaron.sc" horiz-adv-x="549" d="M275 600h-8q-8 0 -14 9l-87 121q-3 4 -1.5 7t5.5 3h8q8 0 16 -10l76 -98h2l76 98q8 10 16 10h8q4 0 5.5 -3t-1.5 -7l-87 -121q-6 -9 -14 -9zM274 28q124 0 153 89q13 38 13 140t-13 140q-29 89 -153 89h-137q-6 0 -6 -6v-446q0 -6 6 -6h137zM277 0h-166q-10 0 -10 10v494 q0 10 10 10h166q146 0 181 -111q13 -41 13 -146t-13 -146q-35 -111 -181 -111z"/>
<glyph glyph-name="dcroat.sc" horiz-adv-x="549" d="M274 28q124 0 153 89q13 38 13 140t-13 140q-29 89 -153 89h-137q-6 0 -6 -6v-199q0 -6 6 -6h126q10 0 10 -10v-7q0 -10 -10 -10h-126q-6 0 -6 -6v-208q0 -6 6 -6h137zM277 0h-166q-10 0 -10 10v232q0 6 -6 6h-35q-10 0 -10 10v7q0 10 10 10h35q6 0 6 6v223q0 10 10 10 h166q146 0 181 -111q13 -41 13 -146t-13 -146q-35 -111 -181 -111z"/>
<glyph glyph-name="eth.sc" horiz-adv-x="549" d="M274 28q124 0 153 89q13 38 13 140t-13 140q-29 89 -153 89h-137q-6 0 -6 -6v-199q0 -6 6 -6h126q10 0 10 -10v-7q0 -10 -10 -10h-126q-6 0 -6 -6v-208q0 -6 6 -6h137zM277 0h-166q-10 0 -10 10v232q0 6 -6 6h-35q-10 0 -10 10v7q0 10 10 10h35q6 0 6 6v223q0 10 10 10 h166q146 0 181 -111q13 -41 13 -146t-13 -146q-35 -111 -181 -111z"/>
<glyph glyph-name="egrave.sc" horiz-adv-x="501" d="M295 600h-7q-10 0 -17 10l-85 120q-3 4 -1.5 7t6.5 3h15q10 0 16 -10l78 -120q7 -10 -5 -10zM423 0h-312q-10 0 -10 10v494q0 10 10 10h312q10 0 10 -10v-8q0 -10 -10 -10h-286q-6 0 -6 -6v-199q0 -6 6 -6h246q10 0 10 -10v-8q0 -10 -10 -10h-246q-6 0 -6 -6v-207 q0 -6 6 -6h286q10 0 10 -10v-8q0 -10 -10 -10z"/>
<glyph glyph-name="eacute.sc" horiz-adv-x="501" d="M243 600h-7q-12 0 -5 10l78 120q6 10 16 10h15q5 0 6.5 -3t-1.5 -7l-85 -120q-8 -10 -17 -10zM423 0h-312q-10 0 -10 10v494q0 10 10 10h312q10 0 10 -10v-8q0 -10 -10 -10h-286q-6 0 -6 -6v-199q0 -6 6 -6h246q10 0 10 -10v-8q0 -10 -10 -10h-246q-6 0 -6 -6v-207 q0 -6 6 -6h286q10 0 10 -10v-8q0 -10 -10 -10z"/>
<glyph glyph-name="ecircumflex.sc" horiz-adv-x="501" d="M368 600h-8q-8 0 -16 10l-76 98h-2l-76 -98q-8 -10 -16 -10h-8q-4 0 -5.5 3t1.5 7l87 121q6 9 14 9h8q8 0 14 -9l87 -121q3 -4 1.5 -7t-5.5 -3zM423 0h-312q-10 0 -10 10v494q0 10 10 10h312q10 0 10 -10v-8q0 -10 -10 -10h-286q-6 0 -6 -6v-199q0 -6 6 -6h246 q10 0 10 -10v-8q0 -10 -10 -10h-246q-6 0 -6 -6v-207q0 -6 6 -6h286q10 0 10 -10v-8q0 -10 -10 -10z"/>
<glyph glyph-name="ecaron.sc" horiz-adv-x="501" d="M271 600h-8q-8 0 -14 9l-87 121q-3 4 -1.5 7t5.5 3h8q8 0 16 -10l76 -98h2l76 98q8 10 16 10h8q4 0 5.5 -3t-1.5 -7l-87 -121q-6 -9 -14 -9zM423 0h-312q-10 0 -10 10v494q0 10 10 10h312q10 0 10 -10v-8q0 -10 -10 -10h-286q-6 0 -6 -6v-199q0 -6 6 -6h246q10 0 10 -10 v-8q0 -10 -10 -10h-246q-6 0 -6 -6v-207q0 -6 6 -6h286q10 0 10 -10v-8q0 -10 -10 -10z"/>
<glyph glyph-name="edieresis.sc" horiz-adv-x="501" d="M177 660h-24q-10 0 -10 10v40q0 10 10 10h24q10 0 10 -10v-40q0 -10 -10 -10zM377 660h-24q-10 0 -10 10v40q0 10 10 10h24q10 0 10 -10v-40q0 -10 -10 -10zM423 0h-312q-10 0 -10 10v494q0 10 10 10h312q10 0 10 -10v-8q0 -10 -10 -10h-286q-6 0 -6 -6v-199q0 -6 6 -6 h246q10 0 10 -10v-8q0 -10 -10 -10h-246q-6 0 -6 -6v-207q0 -6 6 -6h286q10 0 10 -10v-8q0 -10 -10 -10z"/>
<glyph glyph-name="emacron.sc" horiz-adv-x="501" d="M383 674h-232q-10 0 -10 10v8q0 10 10 10h232q10 0 10 -10v-8q0 -10 -10 -10zM423 0h-312q-10 0 -10 10v494q0 10 10 10h312q10 0 10 -10v-8q0 -10 -10 -10h-286q-6 0 -6 -6v-199q0 -6 6 -6h246q10 0 10 -10v-8q0 -10 -10 -10h-246q-6 0 -6 -6v-207q0 -6 6 -6h286 q10 0 10 -10v-8q0 -10 -10 -10z"/>
<glyph glyph-name="ebreve.sc" horiz-adv-x="501" d="M264 619q-45 0 -76.5 26t-39.5 68q-2 10 9 10h7q8 0 11 -10q19 -67 89 -67q71 0 90 67q3 10 11 10h6q11 0 9 -10q-8 -42 -39.5 -68t-76.5 -26zM423 0h-312q-10 0 -10 10v494q0 10 10 10h312q10 0 10 -10v-8q0 -10 -10 -10h-286q-6 0 -6 -6v-199q0 -6 6 -6h246 q10 0 10 -10v-8q0 -10 -10 -10h-246q-6 0 -6 -6v-207q0 -6 6 -6h286q10 0 10 -10v-8q0 -10 -10 -10z"/>
<glyph glyph-name="edotaccent.sc" horiz-adv-x="501" d="M273 660h-24q-10 0 -10 10v40q0 10 10 10h24q10 0 10 -10v-40q0 -10 -10 -10zM423 0h-312q-10 0 -10 10v494q0 10 10 10h312q10 0 10 -10v-8q0 -10 -10 -10h-286q-6 0 -6 -6v-199q0 -6 6 -6h246q10 0 10 -10v-8q0 -10 -10 -10h-246q-6 0 -6 -6v-207q0 -6 6 -6h286 q10 0 10 -10v-8q0 -10 -10 -10z"/>
<glyph glyph-name="eogonek.sc" horiz-adv-x="501" d="M365 -162q-28 0 -43.5 15t-15.5 42q0 45 76 105h-271q-10 0 -10 10v494q0 10 10 10h312q10 0 10 -10v-8q0 -10 -10 -10h-286q-6 0 -6 -6v-199q0 -6 6 -6h246q10 0 10 -10v-8q0 -10 -10 -10h-246q-6 0 -6 -6v-207q0 -6 6 -6h286q10 0 10 -10v-8q0 -10 -10 -10h-5 q-51 -40 -66.5 -62t-15.5 -41q0 -31 31 -31q12 0 30 11q9 5 14 -3l3 -5q5 -8 -3 -14q-19 -17 -46 -17z"/>
<glyph glyph-name="gcircumflex.sc" horiz-adv-x="518" d="M360 600h-8q-8 0 -16 10l-76 98h-2l-76 -98q-8 -10 -16 -10h-8q-4 0 -5.5 3t1.5 7l87 121q6 9 14 9h8q8 0 14 -9l87 -121q3 -4 1.5 -7t-5.5 -3zM259 -10q-65 0 -113 33.5t-67 94.5q-15 47 -15 139q0 93 15 140q19 61 67 94t113 33q115 0 168 -89q6 -9 -4 -14l-7 -4 q-8 -4 -14 4q-49 75 -143 75q-56 0 -95.5 -28t-56.5 -81q-13 -41 -13 -130q0 -88 13 -129q17 -53 56.5 -81.5t95.5 -28.5q117 0 152 108q13 41 13 96q0 5 -5 5h-141q-9 0 -9 8v11q0 8 9 8h168q8 0 8 -8v-9q0 -74 -15 -121q-19 -61 -67 -93.5t-113 -32.5z"/>
<glyph glyph-name="gbreve.sc" horiz-adv-x="518" d="M259 619q-45 0 -76.5 26t-39.5 68q-2 10 9 10h7q8 0 11 -10q19 -67 89 -67q71 0 90 67q3 10 11 10h6q11 0 9 -10q-8 -42 -39.5 -68t-76.5 -26zM259 -10q-65 0 -113 33.5t-67 94.5q-15 47 -15 139q0 93 15 140q19 61 67 94t113 33q115 0 168 -89q6 -9 -4 -14l-7 -4 q-8 -4 -14 4q-49 75 -143 75q-56 0 -95.5 -28t-56.5 -81q-13 -41 -13 -130q0 -88 13 -129q17 -53 56.5 -81.5t95.5 -28.5q117 0 152 108q13 41 13 96q0 5 -5 5h-141q-9 0 -9 8v11q0 8 9 8h168q8 0 8 -8v-9q0 -74 -15 -121q-19 -61 -67 -93.5t-113 -32.5z"/>
<glyph glyph-name="gdotaccent.sc" horiz-adv-x="518" d="M271 660h-24q-10 0 -10 10v40q0 10 10 10h24q10 0 10 -10v-40q0 -10 -10 -10zM259 -10q-65 0 -113 33.5t-67 94.5q-15 47 -15 139q0 93 15 140q19 61 67 94t113 33q115 0 168 -89q6 -9 -4 -14l-7 -4q-8 -4 -14 4q-49 75 -143 75q-56 0 -95.5 -28t-56.5 -81 q-13 -41 -13 -130q0 -88 13 -129q17 -53 56.5 -81.5t95.5 -28.5q117 0 152 108q13 41 13 96q0 5 -5 5h-141q-9 0 -9 8v11q0 8 9 8h168q8 0 8 -8v-9q0 -74 -15 -121q-19 -61 -67 -93.5t-113 -32.5z"/>
<glyph glyph-name="gcommaaccent.sc" horiz-adv-x="518" d="M251 -183q-7 0 -7 9v109q0 10 9 10h11q9 0 9 -10v-64q0 -15 -5 -28l-7 -19q-3 -7 -10 -7zM259 -10q-65 0 -113 33.5t-67 94.5q-15 47 -15 139q0 93 15 140q19 61 67 94t113 33q115 0 168 -89q6 -9 -4 -14l-7 -4q-8 -4 -14 4q-49 75 -143 75q-56 0 -95.5 -28t-56.5 -81 q-13 -41 -13 -130q0 -88 13 -129q17 -53 56.5 -81.5t95.5 -28.5q117 0 152 108q13 41 13 96q0 5 -5 5h-141q-9 0 -9 8v11q0 8 9 8h168q8 0 8 -8v-9q0 -74 -15 -121q-19 -61 -67 -93.5t-113 -32.5z"/>
<glyph glyph-name="hcircumflex.sc" horiz-adv-x="575" d="M388 600h-8q-8 0 -16 10l-76 98h-2l-76 -98q-8 -10 -16 -10h-8q-4 0 -5.5 3t1.5 7l87 121q6 9 14 9h8q8 0 14 -9l87 -121q3 -4 1.5 -7t-5.5 -3zM464 0h-10q-10 0 -10 10v231q0 6 -6 6h-301q-6 0 -6 -6v-231q0 -10 -10 -10h-10q-10 0 -10 10v494q0 10 10 10h10 q10 0 10 -10v-223q0 -6 6 -6h301q6 0 6 6v223q0 10 10 10h10q10 0 10 -10v-494q0 -10 -10 -10z"/>
<glyph glyph-name="hbar.sc" horiz-adv-x="575" d="M438 275q6 0 6 6v90q0 6 -6 6h-301q-6 0 -6 -6v-90q0 -6 6 -6h301zM464 0h-10q-10 0 -10 10v231q0 6 -6 6h-301q-6 0 -6 -6v-231q0 -10 -10 -10h-10q-10 0 -10 10v361q0 6 -6 6h-21q-10 0 -10 10v7q0 10 10 10h21q6 0 6 6v94q0 10 10 10h10q10 0 10 -10v-94q0 -6 6 -6 h301q6 0 6 6v94q0 10 10 10h10q10 0 10 -10v-94q0 -6 6 -6h21q10 0 10 -10v-7q0 -10 -10 -10h-21q-6 0 -6 -6v-361q0 -10 -10 -10z"/>
<glyph glyph-name="igrave.sc" horiz-adv-x="232" d="M132 600h-7q-9 0 -17 10l-85 120q-3 4 -1.5 7t6.5 3h15q10 0 16 -10l78 -120q7 -10 -5 -10zM121 0h-10q-10 0 -10 10v494q0 10 10 10h10q10 0 10 -10v-494q0 -10 -10 -10z"/>
<glyph glyph-name="iacute.sc" horiz-adv-x="232" d="M110 600h-7q-12 0 -5 10l78 120q6 10 16 10h15q5 0 6.5 -3t-1.5 -7l-85 -120q-8 -10 -17 -10zM121 0h-10q-10 0 -10 10v494q0 10 10 10h10q10 0 10 -10v-494q0 -10 -10 -10z"/>
<glyph glyph-name="ibreve.sc" horiz-adv-x="232" d="M116 619q-45 0 -76.5 26t-39.5 68q-2 10 9 10h7q8 0 11 -10q19 -67 89 -67q71 0 90 67q3 10 11 10h6q11 0 9 -10q-8 -42 -39.5 -68t-76.5 -26zM121 0h-10q-10 0 -10 10v494q0 10 10 10h10q10 0 10 -10v-494q0 -10 -10 -10z"/>
<glyph glyph-name="icircumflex.sc" horiz-adv-x="232" d="M217 600h-8q-9 0 -16 10l-76 98h-2l-76 -98q-7 -10 -16 -10h-8q-5 0 -6 3t2 7l87 121q6 9 14 9h8q8 0 14 -9l87 -121q3 -4 2 -7t-6 -3zM121 0h-10q-10 0 -10 10v494q0 10 10 10h10q10 0 10 -10v-494q0 -10 -10 -10z"/>
<glyph glyph-name="itilde.sc" horiz-adv-x="232" d="M167 653q-23 0 -57 21q-28 18 -46 18q-24 0 -55 -34q-3 -3 -5.5 -2t-2.5 5v15q0 7 7 14q26 28 57 28q25 0 57 -21q27 -18 46 -18q24 0 55 34q3 3 5.5 2t2.5 -5v-15q0 -7 -7 -14q-26 -28 -57 -28zM121 0h-10q-10 0 -10 10v494q0 10 10 10h10q10 0 10 -10v-494 q0 -10 -10 -10z"/>
<glyph glyph-name="idieresis.sc" horiz-adv-x="232" d="M28 660h-24q-10 0 -10 10v40q0 10 10 10h24q10 0 10 -10v-40q0 -10 -10 -10zM228 660h-24q-10 0 -10 10v40q0 10 10 10h24q10 0 10 -10v-40q0 -10 -10 -10zM121 0h-10q-10 0 -10 10v494q0 10 10 10h10q10 0 10 -10v-494q0 -10 -10 -10z"/>
<glyph glyph-name="imacron.sc" horiz-adv-x="232" d="M232 674h-232q-10 0 -10 10v8q0 10 10 10h232q10 0 10 -10v-8q0 -10 -10 -10zM121 0h-10q-10 0 -10 10v494q0 10 10 10h10q10 0 10 -10v-494q0 -10 -10 -10z"/>
<glyph glyph-name="idotaccent.sc" horiz-adv-x="232" d="M128 660h-24q-10 0 -10 10v40q0 10 10 10h24q10 0 10 -10v-40q0 -10 -10 -10zM121 0h-10q-10 0 -10 10v494q0 10 10 10h10q10 0 10 -10v-494q0 -10 -10 -10z"/>
<glyph glyph-name="iogonek.sc" horiz-adv-x="232" d="M93 -162q-28 0 -43.5 15t-15.5 42q0 23 13.5 46.5t53.5 65.5v497q0 10 10 10h10q10 0 10 -10v-494q0 -5 -4 -9q-40 -43 -51.5 -64t-11.5 -40q0 -31 31 -31q12 0 30 11q9 5 14 -3l3 -5q5 -8 -3 -14q-19 -17 -46 -17z"/>
<glyph glyph-name="jcircumflex.sc" horiz-adv-x="412" d="M397 600h-8q-9 0 -16 10l-76 98h-2l-76 -98q-7 -10 -16 -10h-8q-5 0 -6 3t2 7l87 121q6 9 14 9h8q8 0 14 -9l87 -121q3 -4 2 -7t-6 -3zM166 -10q-76 0 -124 39q-7 6 0 13l6 7q6 7 14 1q42 -32 104 -32q117 0 117 134v352q0 10 10 10h10q10 0 10 -10v-353 q0 -80 -38 -120.5t-109 -40.5z"/>
<glyph glyph-name="kcommaaccent.sc" horiz-adv-x="531" d="M257 -183q-7 0 -7 9v109q0 10 9 10h11q9 0 9 -10v-64q0 -15 -5 -28l-7 -19q-3 -7 -10 -7zM466 0h-17q-8 0 -14 10l-178 279l-126 -136v-143q0 -10 -10 -10h-10q-10 0 -10 10v494q0 10 10 10h10q10 0 10 -10v-311l287 311q9 10 17 10h17q5 0 6.5 -3t-1.5 -7l-179 -193 l193 -301q6 -10 -5 -10z"/>
<glyph glyph-name="lacute.sc" horiz-adv-x="475" d="M134 600h-7q-12 0 -5 10l78 120q6 10 16 10h15q5 0 6.5 -3t-1.5 -7l-85 -120q-7 -10 -17 -10zM413 0h-302q-10 0 -10 10v494q0 10 10 10h10q10 0 10 -10v-470q0 -6 6 -6h276q10 0 10 -10v-8q0 -10 -10 -10z"/>
<glyph glyph-name="lcaron.sc" horiz-adv-x="475" d="M223 386q-7 0 -7 9v109q0 10 9 10h11q9 0 9 -10v-64q0 -16 -5 -28l-7 -19q-3 -7 -10 -7zM413 0h-302q-10 0 -10 10v494q0 10 10 10h10q10 0 10 -10v-470q0 -6 6 -6h276q10 0 10 -10v-8q0 -10 -10 -10z"/>
<glyph glyph-name="lcommaaccent.sc" horiz-adv-x="475" d="M256 -183q-7 0 -7 9v109q0 10 9 10h11q9 0 9 -10v-64q0 -15 -5 -28l-7 -19q-4 -7 -10 -7zM413 0h-302q-10 0 -10 10v494q0 10 10 10h10q10 0 10 -10v-470q0 -6 6 -6h276q10 0 10 -10v-8q0 -10 -10 -10z"/>
<glyph glyph-name="lslash.sc" horiz-adv-x="475" d="M250 302l-119 -61v-207q0 -6 6 -6h276q10 0 10 -10v-8q0 -10 -10 -10h-302q-10 0 -10 10v215l-46 -23q-10 -5 -10 6v11q0 9 10 14l46 23v248q0 10 10 10h10q10 0 10 -10v-232l119 61q10 5 10 -6v-11q0 -9 -10 -14z"/>
<glyph glyph-name="ldot.sc" horiz-adv-x="475" d="M361 231h-28q-10 0 -10 10v50q0 10 10 10h28q10 0 10 -10v-50q0 -10 -10 -10zM413 0h-302q-10 0 -10 10v494q0 10 10 10h10q10 0 10 -10v-470q0 -6 6 -6h276q10 0 10 -10v-8q0 -10 -10 -10z"/>
<glyph glyph-name="nacute.sc" horiz-adv-x="577" d="M263 600h-7q-12 0 -5 10l78 120q6 10 16 10h15q5 0 6.5 -3t-1.5 -7l-85 -120q-8 -10 -17 -10zM466 0h-10q-8 0 -16 10l-307 446h-2v-446q0 -10 -10 -10h-10q-10 0 -10 10v494q0 10 10 10h9q10 0 17 -10l307 -446h2v446q0 10 10 10h10q10 0 10 -10v-494q0 -10 -10 -10z "/>
<glyph glyph-name="ncaron.sc" horiz-adv-x="577" d="M292 600h-8q-8 0 -14 9l-87 121q-3 4 -2 7t6 3h8q9 0 16 -10l76 -98h2l76 98q7 10 16 10h8q5 0 6 -3t-2 -7l-87 -121q-6 -9 -14 -9zM466 0h-10q-8 0 -16 10l-307 446h-2v-446q0 -10 -10 -10h-10q-10 0 -10 10v494q0 10 10 10h9q10 0 17 -10l307 -446h2v446q0 10 10 10h10 q10 0 10 -10v-494q0 -10 -10 -10z"/>
<glyph glyph-name="ntilde.sc" horiz-adv-x="577" d="M339 653q-23 0 -57 21q-28 18 -46 18q-24 0 -55 -34q-3 -3 -5.5 -2t-2.5 5v15q0 7 7 14q26 28 57 28q25 0 57 -21q27 -18 46 -18q24 0 55 34q3 3 5.5 2t2.5 -5v-15q0 -7 -7 -14q-26 -28 -57 -28zM466 0h-10q-8 0 -16 10l-307 446h-2v-446q0 -10 -10 -10h-10q-10 0 -10 10 v494q0 10 10 10h9q10 0 17 -10l307 -446h2v446q0 10 10 10h10q10 0 10 -10v-494q0 -10 -10 -10z"/>
<glyph glyph-name="ncommaaccent.sc" horiz-adv-x="577" d="M280 -183q-7 0 -7 9v109q0 10 9 10h11q9 0 9 -10v-64q0 -15 -5 -28l-7 -19q-4 -7 -10 -7zM466 0h-10q-8 0 -16 10l-307 446h-2v-446q0 -10 -10 -10h-10q-10 0 -10 10v494q0 10 10 10h9q10 0 17 -10l307 -446h2v446q0 10 10 10h10q10 0 10 -10v-494q0 -10 -10 -10z"/>
<glyph glyph-name="ograve.sc" horiz-adv-x="518" d="M277 600h-7q-10 0 -17 10l-85 120q-3 4 -1.5 7t6.5 3h15q10 0 16 -10l78 -120q7 -10 -5 -10zM259 18q56 0 95.5 28.5t56.5 81.5q13 41 13 129t-13 129q-17 53 -56.5 81.5t-95.5 28.5t-95.5 -28.5t-56.5 -81.5q-13 -41 -13 -129t13 -129q17 -53 56.5 -81.5t95.5 -28.5z M259 -10q-65 0 -113 33.5t-67 94.5q-15 47 -15 139t15 139q19 61 67 94.5t113 33.5t113 -33.5t67 -94.5q15 -47 15 -139t-15 -139q-19 -61 -67 -94.5t-113 -33.5z"/>
<glyph glyph-name="oacute.sc" horiz-adv-x="518" d="M250 600h-7q-12 0 -5 10l78 120q6 10 16 10h15q5 0 6.5 -3t-1.5 -7l-85 -120q-7 -10 -17 -10zM259 18q56 0 95.5 28.5t56.5 81.5q13 41 13 129t-13 129q-17 53 -56.5 81.5t-95.5 28.5t-95.5 -28.5t-56.5 -81.5q-13 -41 -13 -129t13 -129q17 -53 56.5 -81.5t95.5 -28.5z M259 -10q-65 0 -113 33.5t-67 94.5q-15 47 -15 139t15 139q19 61 67 94.5t113 33.5t113 -33.5t67 -94.5q15 -47 15 -139t-15 -139q-19 -61 -67 -94.5t-113 -33.5z"/>
<glyph glyph-name="ocircumflex.sc" horiz-adv-x="518" d="M360 600h-8q-8 0 -16 10l-76 98h-2l-76 -98q-8 -10 -16 -10h-8q-4 0 -5.5 3t1.5 7l87 121q6 9 14 9h8q8 0 14 -9l87 -121q3 -4 1.5 -7t-5.5 -3zM259 18q56 0 95.5 28.5t56.5 81.5q13 41 13 129t-13 129q-17 53 -56.5 81.5t-95.5 28.5t-95.5 -28.5t-56.5 -81.5 q-13 -41 -13 -129t13 -129q17 -53 56.5 -81.5t95.5 -28.5zM259 -10q-65 0 -113 33.5t-67 94.5q-15 47 -15 139t15 139q19 61 67 94.5t113 33.5t113 -33.5t67 -94.5q15 -47 15 -139t-15 -139q-19 -61 -67 -94.5t-113 -33.5z"/>
<glyph glyph-name="otilde.sc" horiz-adv-x="518" d="M310 653q-23 0 -57 21q-28 18 -46 18q-24 0 -55 -34q-3 -3 -5.5 -2t-2.5 5v15q0 7 7 14q26 28 57 28q26 0 57 -21q27 -18 46 -18q24 0 55 34q3 3 5.5 2t2.5 -5v-15q0 -7 -7 -14q-26 -28 -57 -28zM259 18q56 0 95.5 28.5t56.5 81.5q13 41 13 129t-13 129 q-17 53 -56.5 81.5t-95.5 28.5t-95.5 -28.5t-56.5 -81.5q-13 -41 -13 -129t13 -129q17 -53 56.5 -81.5t95.5 -28.5zM259 -10q-65 0 -113 33.5t-67 94.5q-15 47 -15 139t15 139q19 61 67 94.5t113 33.5t113 -33.5t67 -94.5q15 -47 15 -139t-15 -139q-19 -61 -67 -94.5 t-113 -33.5z"/>
<glyph glyph-name="odieresis.sc" horiz-adv-x="518" d="M171 660h-24q-10 0 -10 10v40q0 10 10 10h24q10 0 10 -10v-40q0 -10 -10 -10zM371 660h-24q-10 0 -10 10v40q0 10 10 10h24q10 0 10 -10v-40q0 -10 -10 -10zM259 18q56 0 95.5 28.5t56.5 81.5q13 41 13 129t-13 129q-17 53 -56.5 81.5t-95.5 28.5t-95.5 -28.5 t-56.5 -81.5q-13 -41 -13 -129t13 -129q17 -53 56.5 -81.5t95.5 -28.5zM259 -10q-65 0 -113 33.5t-67 94.5q-15 47 -15 139t15 139q19 61 67 94.5t113 33.5t113 -33.5t67 -94.5q15 -47 15 -139t-15 -139q-19 -61 -67 -94.5t-113 -33.5z"/>
<glyph glyph-name="omacron.sc" horiz-adv-x="518" d="M375 674h-232q-10 0 -10 10v8q0 10 10 10h232q10 0 10 -10v-8q0 -10 -10 -10zM259 18q56 0 95.5 28.5t56.5 81.5q13 41 13 129t-13 129q-17 53 -56.5 81.5t-95.5 28.5t-95.5 -28.5t-56.5 -81.5q-13 -41 -13 -129t13 -129q17 -53 56.5 -81.5t95.5 -28.5zM259 -10 q-65 0 -113 33.5t-67 94.5q-15 47 -15 139t15 139q19 61 67 94.5t113 33.5t113 -33.5t67 -94.5q15 -47 15 -139t-15 -139q-19 -61 -67 -94.5t-113 -33.5z"/>
<glyph glyph-name="obreve.sc" horiz-adv-x="518" d="M259 619q-45 0 -76.5 26t-39.5 68q-2 10 9 10h7q8 0 11 -10q19 -67 89 -67q71 0 90 67q3 10 11 10h6q11 0 9 -10q-8 -42 -39.5 -68t-76.5 -26zM259 18q56 0 95.5 28.5t56.5 81.5q13 41 13 129t-13 129q-17 53 -56.5 81.5t-95.5 28.5t-95.5 -28.5t-56.5 -81.5 q-13 -41 -13 -129t13 -129q17 -53 56.5 -81.5t95.5 -28.5zM259 -10q-65 0 -113 33.5t-67 94.5q-15 47 -15 139t15 139q19 61 67 94.5t113 33.5t113 -33.5t67 -94.5q15 -47 15 -139t-15 -139q-19 -61 -67 -94.5t-113 -33.5z"/>
<glyph glyph-name="ohungarumlaut.sc" horiz-adv-x="518" d="M208 600h-7q-10 0 -5 10l68 120q6 10 16 10h13q11 0 5 -10l-76 -122q-5 -8 -14 -8zM318 600h-7q-10 0 -5 10l68 120q6 10 16 10h13q11 0 5 -10l-76 -122q-5 -8 -14 -8zM259 18q56 0 95.5 28.5t56.5 81.5q13 41 13 129t-13 129q-17 53 -56.5 81.5t-95.5 28.5t-95.5 -28.5 t-56.5 -81.5q-13 -41 -13 -129t13 -129q17 -53 56.5 -81.5t95.5 -28.5zM259 -10q-65 0 -113 33.5t-67 94.5q-15 47 -15 139t15 139q19 61 67 94.5t113 33.5t113 -33.5t67 -94.5q15 -47 15 -139t-15 -139q-19 -61 -67 -94.5t-113 -33.5z"/>
<glyph glyph-name="oslash.sc" horiz-adv-x="518" d="M259 18q56 0 95.5 28.5t56.5 81.5q13 41 13 129t-13 129q-9 25 -23 47l-241 -373q42 -42 112 -42zM107 128q7 -27 23 -47l240 373q-44 42 -111 42q-56 0 -95.5 -28.5t-56.5 -81.5q-13 -41 -13 -129t13 -129zM80 -30h-9q-5 0 -6.5 3t0.5 7l48 75q-24 27 -34 63 q-15 47 -15 139t15 139q19 61 67 94.5t113 33.5q76 0 128 -46l36 56q6 10 15 10h9q5 0 6.5 -3t-0.5 -7l-48 -75q23 -29 34 -63q15 -47 15 -139t-15 -139q-19 -61 -67 -94.5t-113 -33.5q-77 0 -128 46l-36 -56q-6 -10 -15 -10z"/>
<glyph glyph-name="oslashacute.sc" horiz-adv-x="518" d="M248 600h-7q-12 0 -5 10l78 120q6 10 16 10h15q5 0 6.5 -3t-1.5 -7l-85 -120q-7 -10 -17 -10zM259 18q56 0 95.5 28.5t56.5 81.5q13 41 13 129t-13 129q-9 25 -23 47l-241 -373q42 -42 112 -42zM107 128q7 -27 23 -47l240 373q-44 42 -111 42q-56 0 -95.5 -28.5 t-56.5 -81.5q-13 -41 -13 -129t13 -129zM80 -30h-9q-5 0 -6.5 3t0.5 7l48 75q-24 27 -34 63q-15 47 -15 139t15 139q19 61 67 94.5t113 33.5q76 0 128 -46l36 56q6 10 15 10h9q5 0 6.5 -3t-0.5 -7l-48 -75q23 -29 34 -63q15 -47 15 -139t-15 -139q-19 -61 -67 -94.5 t-113 -33.5q-77 0 -128 46l-36 -56q-6 -10 -15 -10z"/>
<glyph glyph-name="oe.sc" horiz-adv-x="824" d="M259 18q56 0 95.5 28.5t56.5 81.5q13 41 13 129t-13 129q-17 53 -56.5 81.5t-95.5 28.5t-95.5 -28.5t-56.5 -81.5q-13 -41 -13 -129t13 -129q17 -53 56.5 -81.5t95.5 -28.5zM746 0h-312q-10 0 -10 10v77h-1q-23 -48 -66 -72.5t-98 -24.5q-65 0 -113 33.5t-67 94.5 q-15 47 -15 139t15 139q19 61 67 94.5t113 33.5q55 0 98 -24.5t66 -72.5h1v77q0 10 10 10h312q10 0 10 -10v-8q0 -10 -10 -10h-286q-6 0 -6 -6v-199q0 -6 6 -6h246q10 0 10 -10v-8q0 -10 -10 -10h-246q-6 0 -6 -6v-207q0 -6 6 -6h286q10 0 10 -10v-8q0 -10 -10 -10z"/>
<glyph glyph-name="racute.sc" horiz-adv-x="541" d="M234 600h-7q-12 0 -5 10l78 120q6 10 16 10h15q5 0 6.5 -3t-1.5 -7l-85 -120q-8 -10 -17 -10zM300 264q64 0 97 29t33 82t-33 82t-97 29h-163q-6 0 -6 -6v-210q0 -6 6 -6h163zM460 0h-16q-7 0 -12 9l-121 227h-11h-163q-6 0 -6 -6v-220q0 -10 -10 -10h-10q-10 0 -10 10 v494q0 10 10 10h189q76 0 118 -37t42 -102q0 -56 -30.5 -91t-87.5 -45l123 -229q6 -10 -5 -10z"/>
<glyph glyph-name="rcaron.sc" horiz-adv-x="541" d="M257 600h-8q-8 0 -14 9l-87 121q-3 4 -1.5 7t5.5 3h8q8 0 16 -10l76 -98h2l76 98q8 10 16 10h8q4 0 5.5 -3t-1.5 -7l-87 -121q-6 -9 -14 -9zM300 264q64 0 97 29t33 82t-33 82t-97 29h-163q-6 0 -6 -6v-210q0 -6 6 -6h163zM460 0h-16q-7 0 -12 9l-121 227h-11h-163 q-6 0 -6 -6v-220q0 -10 -10 -10h-10q-10 0 -10 10v494q0 10 10 10h189q76 0 118 -37t42 -102q0 -56 -30.5 -91t-87.5 -45l123 -229q6 -10 -5 -10z"/>
<glyph glyph-name="rcommaaccent.sc" horiz-adv-x="541" d="M261 -183q-7 0 -7 9v109q0 10 9 10h11q9 0 9 -10v-64q0 -15 -5 -28l-7 -19q-3 -7 -10 -7zM300 264q64 0 97 29t33 82t-33 82t-97 29h-163q-6 0 -6 -6v-210q0 -6 6 -6h163zM460 0h-16q-7 0 -12 9l-121 227h-11h-163q-6 0 -6 -6v-220q0 -10 -10 -10h-10q-10 0 -10 10v494 q0 10 10 10h189q76 0 118 -37t42 -102q0 -56 -30.5 -91t-87.5 -45l123 -229q6 -10 -5 -10z"/>
<glyph glyph-name="sacute.sc" horiz-adv-x="487" d="M226 600h-7q-12 0 -5 10l78 120q6 10 16 10h15q5 0 6.5 -3t-1.5 -7l-85 -120q-7 -10 -17 -10zM235 -10q-52 0 -101.5 16t-79.5 40q-9 6 -1 14l7 7q6 7 14 1q73 -50 166 -50q74 0 115.5 31.5t41.5 85.5q0 45 -31.5 71.5t-111.5 37.5l-30 4q-83 11 -120.5 44.5t-37.5 88.5 q0 67 45.5 105t124.5 38q92 0 155 -41q9 -5 2 -14l-5 -7q-6 -7 -14 -2q-67 36 -139 36q-66 0 -102.5 -30.5t-36.5 -81.5q0 -46 32.5 -73t110.5 -37l30 -4q83 -11 120.5 -44t37.5 -89q0 -67 -49.5 -107t-142.5 -40z"/>
<glyph glyph-name="scircumflex.sc" horiz-adv-x="487" d="M343 600h-8q-9 0 -16 10l-76 98h-2l-76 -98q-7 -10 -16 -10h-8q-5 0 -6 3t2 7l87 121q6 9 14 9h8q8 0 14 -9l87 -121q3 -4 2 -7t-6 -3zM235 -10q-52 0 -101.5 16t-79.5 40q-9 6 -1 14l7 7q6 7 14 1q73 -50 166 -50q74 0 115.5 31.5t41.5 85.5q0 45 -31.5 71.5 t-111.5 37.5l-30 4q-83 11 -120.5 44.5t-37.5 88.5q0 67 45.5 105t124.5 38q92 0 155 -41q9 -5 2 -14l-5 -7q-6 -7 -14 -2q-67 36 -139 36q-66 0 -102.5 -30.5t-36.5 -81.5q0 -46 32.5 -73t110.5 -37l30 -4q83 -11 120.5 -44t37.5 -89q0 -67 -49.5 -107t-142.5 -40z"/>
<glyph glyph-name="scaron.sc" horiz-adv-x="487" d="M238 600h-8q-8 0 -14 9l-87 121q-3 4 -2 7t6 3h8q9 0 16 -10l76 -98h2l76 98q7 10 16 10h8q5 0 6 -3t-2 -7l-87 -121q-6 -9 -14 -9zM235 -10q-52 0 -101.5 16t-79.5 40q-9 6 -1 14l7 7q6 7 14 1q73 -50 166 -50q74 0 115.5 31.5t41.5 85.5q0 45 -31.5 71.5t-111.5 37.5 l-30 4q-83 11 -120.5 44.5t-37.5 88.5q0 67 45.5 105t124.5 38q92 0 155 -41q9 -5 2 -14l-5 -7q-6 -7 -14 -2q-67 36 -139 36q-66 0 -102.5 -30.5t-36.5 -81.5q0 -46 32.5 -73t110.5 -37l30 -4q83 -11 120.5 -44t37.5 -89q0 -67 -49.5 -107t-142.5 -40z"/>
<glyph glyph-name="scedilla.sc" horiz-adv-x="487" d="M199 -145h-11q-10 0 -7 10l48 125q-51 1 -98.5 17t-76.5 39q-9 6 -1 14l7 7q6 7 14 1q73 -50 166 -50q74 0 115.5 31.5t41.5 85.5q0 45 -31.5 71.5t-111.5 37.5l-30 4q-83 11 -120.5 44.5t-37.5 88.5q0 67 45.5 105t124.5 38q92 0 155 -41q9 -5 2 -14l-5 -7q-6 -7 -14 -2 q-67 36 -139 36q-66 0 -102.5 -30.5t-36.5 -81.5q0 -46 32.5 -73t110.5 -37l30 -4q83 -11 120.5 -44t37.5 -89q0 -62 -43.5 -101.5t-125.5 -44.5l-43 -126q-4 -10 -16 -10z"/>
<glyph glyph-name="scommaaccent.sc" horiz-adv-x="487" d="M234 -183q-7 0 -7 9v109q0 10 9 10h11q9 0 9 -10v-64q0 -15 -5 -28l-7 -19q-4 -7 -10 -7zM235 -10q-52 0 -101.5 16t-79.5 40q-9 6 -1 14l7 7q6 7 14 1q73 -50 166 -50q74 0 115.5 31.5t41.5 85.5q0 45 -31.5 71.5t-111.5 37.5l-30 4q-83 11 -120.5 44.5t-37.5 88.5 q0 67 45.5 105t124.5 38q92 0 155 -41q9 -5 2 -14l-5 -7q-6 -7 -14 -2q-67 36 -139 36q-66 0 -102.5 -30.5t-36.5 -81.5q0 -46 32.5 -73t110.5 -37l30 -4q83 -11 120.5 -44t37.5 -89q0 -67 -49.5 -107t-142.5 -40z"/>
<glyph glyph-name="tcaron.sc" horiz-adv-x="444" d="M226 600h-8q-8 0 -14 9l-87 121q-3 4 -2 7t6 3h8q9 0 16 -10l76 -98h2l76 98q7 10 16 10h8q5 0 6 -3t-2 -7l-87 -121q-6 -9 -14 -9zM227 0h-10q-10 0 -10 10v470q0 6 -6 6h-165q-10 0 -10 10v8q0 10 10 10h372q10 0 10 -10v-8q0 -10 -10 -10h-165q-6 0 -6 -6v-470 q0 -10 -10 -10z"/>
<glyph glyph-name="tcommaaccent.sc" horiz-adv-x="444" d="M214 -183q-7 0 -7 9v109q0 10 9 10h11q9 0 9 -10v-64q0 -15 -5 -28l-7 -19q-4 -7 -10 -7zM227 0h-10q-10 0 -10 10v470q0 6 -6 6h-165q-10 0 -10 10v8q0 10 10 10h372q10 0 10 -10v-8q0 -10 -10 -10h-165q-6 0 -6 -6v-470q0 -10 -10 -10z"/>
<glyph glyph-name="tbar.sc" horiz-adv-x="444" d="M227 0h-10q-10 0 -10 10v303q0 6 -6 6h-80q-10 0 -10 10v7q0 10 10 10h80q6 0 6 6v128q0 6 -6 6h-165q-10 0 -10 10v8q0 10 10 10h372q10 0 10 -10v-8q0 -10 -10 -10h-165q-6 0 -6 -6v-128q0 -6 6 -6h80q10 0 10 -10v-7q0 -10 -10 -10h-80q-6 0 -6 -6v-303q0 -10 -10 -10 z"/>
<glyph glyph-name="thorn.sc" horiz-adv-x="517" d="M296 156q66 0 101 29.5t35 83.5t-35 83.5t-101 29.5h-159q-6 0 -6 -6v-214q0 -6 6 -6h159zM121 0h-10q-10 0 -10 10v494q0 10 10 10h10q10 0 10 -10v-88q0 -6 6 -6h159q78 0 122 -37.5t44 -103.5t-44 -103.5t-122 -37.5h-159q-6 0 -6 -6v-112q0 -10 -10 -10z"/>
<glyph glyph-name="ugrave.sc" horiz-adv-x="562" d="M304 600h-7q-9 0 -17 10l-85 120q-3 4 -1.5 7t6.5 3h15q10 0 16 -10l78 -120q7 -10 -5 -10zM281 -10q-86 0 -136.5 51t-50.5 144v319q0 10 10 10h10q10 0 10 -10v-319q0 -82 41.5 -124.5t115.5 -42.5t115.5 42.5t41.5 124.5v319q0 10 10 10h10q10 0 10 -10v-319 q0 -93 -50.5 -144t-136.5 -51z"/>
<glyph glyph-name="uacute.sc" horiz-adv-x="562" d="M265 600h-7q-12 0 -5 10l78 120q6 10 16 10h15q5 0 6.5 -3t-1.5 -7l-85 -120q-8 -10 -17 -10zM281 -10q-86 0 -136.5 51t-50.5 144v319q0 10 10 10h10q10 0 10 -10v-319q0 -82 41.5 -124.5t115.5 -42.5t115.5 42.5t41.5 124.5v319q0 10 10 10h10q10 0 10 -10v-319 q0 -93 -50.5 -144t-136.5 -51z"/>
<glyph glyph-name="ucircumflex.sc" horiz-adv-x="562" d="M382 600h-8q-8 0 -16 10l-76 98h-2l-76 -98q-8 -10 -16 -10h-8q-4 0 -5.5 3t1.5 7l87 121q6 9 14 9h8q8 0 14 -9l87 -121q3 -4 1.5 -7t-5.5 -3zM281 -10q-86 0 -136.5 51t-50.5 144v319q0 10 10 10h10q10 0 10 -10v-319q0 -82 41.5 -124.5t115.5 -42.5t115.5 42.5 t41.5 124.5v319q0 10 10 10h10q10 0 10 -10v-319q0 -93 -50.5 -144t-136.5 -51z"/>
<glyph glyph-name="utilde.sc" horiz-adv-x="562" d="M332 653q-23 0 -57 21q-28 18 -46 18q-24 0 -55 -34q-3 -3 -5.5 -2t-2.5 5v15q0 7 7 14q26 28 57 28q25 0 57 -21q27 -18 46 -18q24 0 55 34q3 3 5.5 2t2.5 -5v-15q0 -7 -7 -14q-26 -28 -57 -28zM281 -10q-86 0 -136.5 51t-50.5 144v319q0 10 10 10h10q10 0 10 -10v-319 q0 -82 41.5 -124.5t115.5 -42.5t115.5 42.5t41.5 124.5v319q0 10 10 10h10q10 0 10 -10v-319q0 -93 -50.5 -144t-136.5 -51z"/>
<glyph glyph-name="udieresis.sc" horiz-adv-x="562" d="M193 660h-24q-10 0 -10 10v40q0 10 10 10h24q10 0 10 -10v-40q0 -10 -10 -10zM393 660h-24q-10 0 -10 10v40q0 10 10 10h24q10 0 10 -10v-40q0 -10 -10 -10zM281 -10q-86 0 -136.5 51t-50.5 144v319q0 10 10 10h10q10 0 10 -10v-319q0 -82 41.5 -124.5t115.5 -42.5 t115.5 42.5t41.5 124.5v319q0 10 10 10h10q10 0 10 -10v-319q0 -93 -50.5 -144t-136.5 -51z"/>
<glyph glyph-name="umacron.sc" horiz-adv-x="562" d="M397 674h-232q-10 0 -10 10v8q0 10 10 10h232q10 0 10 -10v-8q0 -10 -10 -10zM281 -10q-86 0 -136.5 51t-50.5 144v319q0 10 10 10h10q10 0 10 -10v-319q0 -82 41.5 -124.5t115.5 -42.5t115.5 42.5t41.5 124.5v319q0 10 10 10h10q10 0 10 -10v-319q0 -93 -50.5 -144 t-136.5 -51z"/>
<glyph glyph-name="ubreve.sc" horiz-adv-x="562" d="M281 619q-45 0 -76.5 26t-39.5 68q-2 10 9 10h7q8 0 11 -10q19 -67 89 -67q71 0 90 67q3 10 11 10h6q11 0 9 -10q-8 -42 -39.5 -68t-76.5 -26zM281 -10q-86 0 -136.5 51t-50.5 144v319q0 10 10 10h10q10 0 10 -10v-319q0 -82 41.5 -124.5t115.5 -42.5t115.5 42.5 t41.5 124.5v319q0 10 10 10h10q10 0 10 -10v-319q0 -93 -50.5 -144t-136.5 -51z"/>
<glyph glyph-name="uring.sc" horiz-adv-x="562" d="M281 612q25 0 40.5 16t15.5 41t-15.5 41t-40.5 16t-40.5 -16t-15.5 -41t15.5 -41t40.5 -16zM281 586q-36 0 -59.5 23.5t-23.5 59.5t23.5 59.5t59.5 23.5t59.5 -23.5t23.5 -59.5t-23.5 -59.5t-59.5 -23.5zM281 -10q-86 0 -136.5 51t-50.5 144v319q0 10 10 10h10 q10 0 10 -10v-319q0 -82 41.5 -124.5t115.5 -42.5t115.5 42.5t41.5 124.5v319q0 10 10 10h10q10 0 10 -10v-319q0 -93 -50.5 -144t-136.5 -51z"/>
<glyph glyph-name="uhungarumlaut.sc" horiz-adv-x="562" d="M225 600h-7q-10 0 -5 10l68 120q6 10 16 10h13q11 0 5 -10l-76 -122q-5 -8 -14 -8zM335 600h-7q-10 0 -5 10l68 120q6 10 16 10h13q11 0 5 -10l-76 -122q-5 -8 -14 -8zM281 -10q-86 0 -136.5 51t-50.5 144v319q0 10 10 10h10q10 0 10 -10v-319q0 -82 41.5 -124.5 t115.5 -42.5t115.5 42.5t41.5 124.5v319q0 10 10 10h10q10 0 10 -10v-319q0 -93 -50.5 -144t-136.5 -51z"/>
<glyph glyph-name="uogonek.sc" horiz-adv-x="562" d="M288 -162q-28 0 -43.5 15t-15.5 42q0 38 44 95q-83 2 -131 53t-48 142v319q0 10 10 10h10q10 0 10 -10v-319q0 -82 41.5 -124.5t115.5 -42.5t115.5 42.5t41.5 124.5v319q0 10 10 10h10q10 0 10 -10v-319q0 -86 -43.5 -136.5t-118.5 -57.5q-47 -63 -47 -94t31 -31 q14 0 30 11q9 5 14 -3l3 -5q5 -8 -3 -14q-19 -17 -46 -17z"/>
<glyph glyph-name="wacute.sc" horiz-adv-x="704" d="M357 600h-7q-12 0 -5 10l78 120q6 10 16 10h15q5 0 6.5 -3t-1.5 -7l-85 -120q-8 -10 -17 -10zM521 0h-13q-8 0 -11 10l-144 447h-2l-144 -447q-3 -10 -11 -10h-13q-8 0 -11 10l-135 490q-4 14 9 14h7q13 0 15 -10l122 -449h2l142 449q3 10 11 10h14q8 0 11 -10l144 -449 h1l121 449q2 10 15 10h7q13 0 9 -14l-135 -490q-3 -10 -11 -10z"/>
<glyph glyph-name="wcircumflex.sc" horiz-adv-x="704" d="M453 600h-8q-9 0 -16 10l-76 98h-2l-76 -98q-7 -10 -16 -10h-8q-5 0 -6 3t2 7l87 121q6 9 14 9h8q8 0 14 -9l87 -121q3 -4 2 -7t-6 -3zM521 0h-13q-8 0 -11 10l-144 447h-2l-144 -447q-3 -10 -11 -10h-13q-8 0 -11 10l-135 490q-4 14 9 14h7q13 0 15 -10l122 -449h2 l142 449q3 10 11 10h14q8 0 11 -10l144 -449h1l121 449q2 10 15 10h7q13 0 9 -14l-135 -490q-3 -10 -11 -10z"/>
<glyph glyph-name="wdieresis.sc" horiz-adv-x="704" d="M264 660h-24q-10 0 -10 10v40q0 10 10 10h24q10 0 10 -10v-40q0 -10 -10 -10zM464 660h-24q-10 0 -10 10v40q0 10 10 10h24q10 0 10 -10v-40q0 -10 -10 -10zM521 0h-13q-8 0 -11 10l-144 447h-2l-144 -447q-3 -10 -11 -10h-13q-8 0 -11 10l-135 490q-4 14 9 14h7 q13 0 15 -10l122 -449h2l142 449q3 10 11 10h14q8 0 11 -10l144 -449h1l121 449q2 10 15 10h7q13 0 9 -14l-135 -490q-3 -10 -11 -10z"/>
<glyph glyph-name="wgrave.sc" horiz-adv-x="704" d="M354 600h-7q-9 0 -17 10l-85 120q-3 4 -1.5 7t6.5 3h15q10 0 16 -10l78 -120q7 -10 -5 -10zM521 0h-13q-8 0 -11 10l-144 447h-2l-144 -447q-3 -10 -11 -10h-13q-8 0 -11 10l-135 490q-4 14 9 14h7q13 0 15 -10l122 -449h2l142 449q3 10 11 10h14q8 0 11 -10l144 -449h1 l121 449q2 10 15 10h7q13 0 9 -14l-135 -490q-3 -10 -11 -10z"/>
<glyph glyph-name="yacute.sc" horiz-adv-x="443" d="M216 600h-7q-12 0 -5 10l78 120q6 10 16 10h15q5 0 6.5 -3t-1.5 -7l-85 -120q-8 -10 -17 -10zM227 0h-10q-10 0 -10 10v201l-168 287q-4 8 -1.5 12t8.5 4h9q10 0 16 -10l152 -257h1l149 257q6 10 16 10h8q6 0 8.5 -4t-1.5 -12l-167 -287v-201q0 -10 -10 -10z"/>
<glyph glyph-name="ycircumflex.sc" horiz-adv-x="443" d="M322 600h-8q-8 0 -16 10l-76 98h-2l-76 -98q-8 -10 -16 -10h-8q-4 0 -5.5 3t1.5 7l87 121q6 9 14 9h8q8 0 14 -9l87 -121q3 -4 1.5 -7t-5.5 -3zM227 0h-10q-10 0 -10 10v201l-168 287q-4 8 -1.5 12t8.5 4h9q10 0 16 -10l152 -257h1l149 257q6 10 16 10h8q6 0 8.5 -4 t-1.5 -12l-167 -287v-201q0 -10 -10 -10z"/>
<glyph glyph-name="ydieresis.sc" horiz-adv-x="443" d="M133 660h-24q-10 0 -10 10v40q0 10 10 10h24q10 0 10 -10v-40q0 -10 -10 -10zM333 660h-24q-10 0 -10 10v40q0 10 10 10h24q10 0 10 -10v-40q0 -10 -10 -10zM227 0h-10q-10 0 -10 10v201l-168 287q-4 8 -1.5 12t8.5 4h9q10 0 16 -10l152 -257h1l149 257q6 10 16 10h8 q6 0 8.5 -4t-1.5 -12l-167 -287v-201q0 -10 -10 -10z"/>
<glyph glyph-name="ygrave.sc" horiz-adv-x="443" d="M244 600h-7q-9 0 -17 10l-85 120q-3 4 -1.5 7t6.5 3h15q10 0 16 -10l78 -120q7 -10 -5 -10zM227 0h-10q-10 0 -10 10v201l-168 287q-4 8 -1.5 12t8.5 4h9q10 0 16 -10l152 -257h1l149 257q6 10 16 10h8q6 0 8.5 -4t-1.5 -12l-167 -287v-201q0 -10 -10 -10z"/>
<glyph glyph-name="zacute.sc" horiz-adv-x="467" d="M223 600h-7q-12 0 -5 10l78 120q6 10 16 10h15q5 0 6.5 -3t-1.5 -7l-85 -120q-8 -10 -17 -10zM398 0h-334q-10 0 -10 10v8q0 6 6 15l310 452v1h-277q-10 0 -10 10v8q0 10 10 10h305q10 0 10 -10v-8q0 -6 -5 -14l-311 -453v-1h306q10 0 10 -10v-8q0 -10 -10 -10z"/>
<glyph glyph-name="zcaron.sc" horiz-adv-x="467" d="M241 600h-8q-8 0 -14 9l-87 121q-3 4 -1.5 7t5.5 3h8q8 0 16 -10l76 -98h2l76 98q8 10 16 10h8q4 0 5.5 -3t-1.5 -7l-87 -121q-6 -9 -14 -9zM398 0h-334q-10 0 -10 10v8q0 6 6 15l310 452v1h-277q-10 0 -10 10v8q0 10 10 10h305q10 0 10 -10v-8q0 -6 -5 -14l-311 -453v-1 h306q10 0 10 -10v-8q0 -10 -10 -10z"/>
<glyph glyph-name="zdotaccent.sc" horiz-adv-x="467" d="M251 660h-24q-10 0 -10 10v40q0 10 10 10h24q10 0 10 -10v-40q0 -10 -10 -10zM398 0h-334q-10 0 -10 10v8q0 6 6 15l310 452v1h-277q-10 0 -10 10v8q0 10 10 10h305q10 0 10 -10v-8q0 -6 -5 -14l-311 -453v-1h306q10 0 10 -10v-8q0 -10 -10 -10z"/>
<glyph glyph-name="ij.sc" horiz-adv-x="644" d="M398 -10q-76 0 -124 39q-7 6 0 13l6 7q6 7 14 1q42 -32 104 -32q117 0 117 134v352q0 10 10 10h10q10 0 10 -10v-353q0 -80 -38 -120.5t-109 -40.5zM121 0h-10q-10 0 -10 10v494q0 10 10 10h10q10 0 10 -10v-494q0 -10 -10 -10z"/>
</font>
</defs>
</svg>
