<?xml version="1.0" encoding="UTF-8" standalone="no"?>
<!DOCTYPE svg  PUBLIC '-//W3C//DTD SVG 1.1//EN'  'http://www.w3.org/Graphics/SVG/1.1/DTD/svg11.dtd'>
<svg xmlns="http://www.w3.org/2000/svg" version="1.1">
<defs>
<font id="DINNextLTPro-BoldItalic" horiz-adv-x="536">
<font-face units-per-em="1000" descent="-200" font-family="DIN Next LT Pro Bold Italic" cap-height="680" underline-position="-150" unicode-range="U+0020-FB04" panose-1="2 11 8 3 2 2 3 12 2 3" underline-thickness="50" x-height="484" font-weight="700" font-style="italic" bbox="-161.25 -234 1048 924" ascent="800"/>
<missing-glyph horiz-adv-x="506" d="M279 114h-71q-10 0 -10 10v67q0 10 10 10h71q10 0 10 -10v-67q0 -10 -10 -10zM277 243h-68q-10 0 -10 10v24q0 29 19 54l46 60q23 30 23 52q0 18 -11.5 30t-29.5 12q-38 0 -48 -39q-2 -11 -11 -9l-65 10q-10 0 -8 11q9 49 44.5 77t91.5 28t91.5 -33.5t35.5 -83.5 q0 -46 -32 -82l-45 -60q-13 -18 -13 -38v-13q0 -10 -10 -10zM431 65q6 0 6 6v538q0 6 -6 6h-356q-6 0 -6 -6v-538q0 -6 6 -6h356zM496 0h-486q-10 0 -10 10v660q0 10 10 10h486q10 0 10 -10v-660q0 -10 -10 -10z"/>
<glyph unicode="IJ" horiz-adv-x="763" d="M264 79q-3 8 5 14l95 64q8 5 13 -2q31 -40 76 -40q94 0 114 119l77 436q2 10 11 10h122q10 0 8 -10l-76 -429q-24 -134 -89.5 -193t-180.5 -59q-58 0 -107.5 26.5t-67.5 63.5zM28 10l117 660q2 10 11 10h121q10 0 8 -10l-117 -660q-2 -10 -10 -10h-121q-11 0 -9 10z" glyph-name="IJ"/>
<glyph unicode="ij" horiz-adv-x="510" d="M210 -180h-32q-10 0 -7 10l17 94q2 10 11 10h16q30 0 43.5 12t19.5 45l85 483q2 10 11 10h115q10 0 8 -10l-85 -482q-18 -100 -61.5 -136t-140.5 -36zM504 565h-116q-10 0 -8 10l18 95q2 10 11 10h115q10 0 8 -10l-17 -95q-2 -10 -11 -10zM150 0h-115q-11 0 -9 10l82 464 q2 10 11 10h115q10 0 8 -10l-82 -464q-2 -10 -10 -10zM249 565h-116q-10 0 -8 10l18 95q2 10 11 10h115q10 0 8 -10l-17 -95q-2 -10 -11 -10z" glyph-name="ij"/>
<glyph unicode='&quot;n' horiz-adv-x="533" d="M429 0h-114q-10 0 -8 10l49 278q2 10 2 27q0 66 -58 66q-35 0 -59 -24.5t-32 -66.5l-49 -280q-2 -10 -10 -10h-115q-11 0 -9 10l82 464q2 10 11 10h115q10 0 8 -10l-7 -36h1q50 57 132 57q65 0 98 -36.5t33 -98.5q0 -24 -4 -45l-55 -305q-2 -10 -11 -10zM44 491 q-10 0 -8 12l29 167q2 10 11 10h91q11 0 9 -10l-15 -82q-1 -10 -11 -20l-90 -69q-9 -8 -16 -8z" glyph-name="napostrophe"/>
<glyph unicode="ff" horiz-adv-x="654" d="M494 0h-115q-11 0 -9 10l65 370q1 6 -4 6h-30q-9 0 -7 10l14 78q2 10 10 10h30q6 0 7 6l4 25q16 87 62 126t130 39h53q10 0 8 -10l-16 -89q-2 -10 -11 -10h-28q-33 0 -46.5 -11t-18.5 -43l-5 -26q-1 -7 5 -7h76q11 0 9 -10l-14 -78q-2 -10 -12 -10h-76q-5 0 -7 -6 l-64 -370q-2 -10 -10 -10zM167 0h-115q-11 0 -9 10l65 370q2 6 -4 6h-30q-9 0 -7 10l14 78q2 10 10 10h30q5 0 7 6l4 25q16 87 62 126t130 39h53q10 0 8 -10l-16 -89q-2 -10 -11 -10h-28q-33 0 -46.5 -11t-18.5 -43l-5 -26q-1 -7 5 -7h76q11 0 9 -10l-14 -78q-2 -10 -12 -10 h-76q-6 0 -7 -6l-64 -370q-2 -10 -10 -10z" glyph-name="f_f"/>
<glyph unicode="fi" horiz-adv-x="582" d="M477 0h-115q-11 0 -9 10l82 464q2 10 11 10h115q10 0 8 -10l-82 -464q-2 -10 -10 -10zM576 565h-116q-10 0 -8 10l18 95q2 10 11 10h115q10 0 8 -10l-17 -95q-2 -10 -11 -10zM167 0h-115q-11 0 -9 10l65 370q2 6 -4 6h-30q-9 0 -7 10l14 78q2 10 10 10h30q5 0 7 6l4 25 q16 87 62 126t130 39h53q10 0 8 -10l-16 -89q-2 -10 -11 -10h-28q-33 0 -46.5 -11t-18.5 -43l-5 -26q-1 -7 5 -7h76q11 0 9 -10l-14 -78q-2 -10 -12 -10h-76q-6 0 -7 -6l-64 -370q-2 -10 -10 -10z" glyph-name="fi"/>
<glyph unicode="fl" horiz-adv-x="619" d="M542 -6h-50q-64 0 -92.5 24t-28.5 76q0 19 5 51l94 525q2 10 10 10h115q11 0 9 -10l-94 -517q-1 -5 -1 -14q0 -30 34 -30h19q10 0 8 -10l-16 -95q-2 -10 -12 -10zM167 0h-115q-11 0 -9 10l65 370q2 6 -4 6h-30q-9 0 -7 10l14 78q2 10 10 10h30q5 0 7 6l4 25q16 87 62 126 t130 39h53q10 0 8 -10l-16 -89q-2 -10 -11 -10h-28q-33 0 -46.5 -11t-18.5 -43l-5 -26q-1 -7 5 -7h76q11 0 9 -10l-14 -78q-2 -10 -12 -10h-76q-6 0 -7 -6l-64 -370q-2 -10 -10 -10z" glyph-name="fl"/>
<glyph unicode="ffi" horiz-adv-x="909" d="M804 0h-115q-11 0 -9 10l82 464q2 10 11 10h115q10 0 8 -10l-82 -464q-2 -10 -10 -10zM903 565h-116q-10 0 -8 10l18 95q2 10 11 10h115q10 0 8 -10l-17 -95q-2 -10 -11 -10zM494 0h-115q-11 0 -9 10l65 370q1 6 -4 6h-30q-9 0 -7 10l14 78q2 10 10 10h30q6 0 7 6l4 25 q16 87 62 126t130 39h53q10 0 8 -10l-16 -89q-2 -10 -11 -10h-28q-33 0 -46.5 -11t-18.5 -43l-5 -26q-1 -7 5 -7h76q11 0 9 -10l-14 -78q-2 -10 -12 -10h-76q-5 0 -7 -6l-64 -370q-2 -10 -10 -10zM167 0h-115q-11 0 -9 10l65 370q2 6 -4 6h-30q-9 0 -7 10l14 78q2 10 10 10 h30q5 0 7 6l4 25q16 87 62 126t130 39h53q10 0 8 -10l-16 -89q-2 -10 -11 -10h-28q-33 0 -46.5 -11t-18.5 -43l-5 -26q-1 -7 5 -7h76q11 0 9 -10l-14 -78q-2 -10 -12 -10h-76q-6 0 -7 -6l-64 -370q-2 -10 -10 -10z" glyph-name="f_f_i"/>
<glyph unicode="ffl" horiz-adv-x="946" d="M869 -6h-50q-64 0 -92.5 24t-28.5 76q0 19 5 51l94 525q2 10 10 10h115q11 0 9 -10l-94 -517q-1 -5 -1 -14q0 -30 34 -30h19q10 0 8 -10l-16 -95q-2 -10 -12 -10zM494 0h-115q-11 0 -9 10l65 370q1 6 -4 6h-30q-9 0 -7 10l14 78q2 10 10 10h30q6 0 7 6l4 25q16 87 62 126 t130 39h53q10 0 8 -10l-16 -89q-2 -10 -11 -10h-28q-33 0 -46.5 -11t-18.5 -43l-5 -26q-1 -7 5 -7h76q11 0 9 -10l-14 -78q-2 -10 -12 -10h-76q-5 0 -7 -6l-64 -370q-2 -10 -10 -10zM167 0h-115q-11 0 -9 10l65 370q2 6 -4 6h-30q-9 0 -7 10l14 78q2 10 10 10h30q5 0 7 6 l4 25q16 87 62 126t130 39h53q10 0 8 -10l-16 -89q-2 -10 -11 -10h-28q-33 0 -46.5 -11t-18.5 -43l-5 -26q-1 -7 5 -7h76q11 0 9 -10l-14 -78q-2 -10 -12 -10h-76q-6 0 -7 -6l-64 -370q-2 -10 -10 -10z" glyph-name="f_f_l"/>
<glyph horiz-adv-x="506" d="M279 114h-71q-10 0 -10 10v67q0 10 10 10h71q10 0 10 -10v-67q0 -10 -10 -10zM277 243h-68q-10 0 -10 10v24q0 29 19 54l46 60q23 30 23 52q0 18 -11.5 30t-29.5 12q-38 0 -48 -39q-2 -11 -11 -9l-65 10q-10 0 -8 11q9 49 44.5 77t91.5 28t91.5 -33.5t35.5 -83.5 q0 -46 -32 -82l-45 -60q-13 -18 -13 -38v-13q0 -10 -10 -10zM431 65q6 0 6 6v538q0 6 -6 6h-356q-6 0 -6 -6v-538q0 -6 6 -6h356zM496 0h-486q-10 0 -10 10v660q0 10 10 10h486q10 0 10 -10v-660q0 -10 -10 -10z" glyph-name=".notdef"/>
<glyph horiz-adv-x="500" glyph-name=".null"/>
<glyph horiz-adv-x="333" glyph-name="nonmarkingreturn"/>
<glyph unicode=" " horiz-adv-x="229" glyph-name="space"/>
<glyph unicode="!" horiz-adv-x="299" d="M52 10l19 110q2 10 11 10h113q11 0 9 -10l-19 -110q-2 -10 -11 -10h-114q-10 0 -8 10zM110 198q-10 0 -8 10l59 462q1 10 11 10h123q10 0 8 -10l-103 -462q-2 -10 -11 -10h-79z" glyph-name="exclam"/>
<glyph unicode='&quot;' horiz-adv-x="359" d="M112 476q-10 0 -8 10l33 184q2 10 11 10h76q10 0 8 -10l-33 -184q-2 -10 -11 -10h-76zM266 476q-10 0 -8 10l33 184q2 10 11 10h75q11 0 9 -10l-33 -184q-2 -10 -11 -10h-76z" glyph-name="quotedbl"/>
<glyph unicode="#" horiz-adv-x="533" d="M236 291h102l33 108h-102zM44 10l57 187h-61q-11 0 -9 10l14 74q2 10 11 10h74l33 108h-62q-11 0 -9 10l13 74q2 10 11 10h76l55 177q3 10 12 10h86q11 0 8 -10l-55 -177h102l55 177q3 10 12 10h86q10 0 7 -10l-55 -177h64q11 0 9 -10l-14 -74q-2 -10 -10 -10h-78 l-33 -108h66q11 0 9 -10l-13 -74q-2 -10 -11 -10h-80l-58 -187q-3 -10 -11 -10h-86q-11 0 -8 10l58 187h-102l-58 -187q-3 -10 -12 -10h-86q-10 0 -7 10z" glyph-name="numbersign"/>
<glyph unicode="$" d="M282 112q33 13 51 40.5t18 61.5q0 40 -41 58zM278 416l27 154q-30 -10 -48.5 -35.5t-18.5 -59.5q0 -42 40 -59zM23 65q-6 8 1 15l76 78q9 9 15 1q46 -48 108 -53l32 179q-73 11 -113 55.5t-40 111.5q0 99 62.5 165t161.5 73l10 57q2 10 11 10h39q10 0 8 -10l-10 -58 q83 -8 142 -57q6 -6 -1 -15l-66 -76q-8 -8 -14 -3q-39 28 -82 35l-30 -169h2q75 -11 114 -52.5t39 -106.5q0 -109 -62.5 -176t-164.5 -78l-10 -58q-2 -10 -12 -10h-38q-10 0 -8 10l10 57q-108 8 -180 75z" glyph-name="dollar"/>
<glyph unicode="%" horiz-adv-x="788" d="M543 98q0 -31 31 -31q26 0 38 26q7 13 18 73t11 76q0 31 -31 31q-27 0 -39 -25q-6 -14 -17 -74t-11 -76zM451 95q0 30 10 88.5t23 85.5q39 80 139 80q48 0 79.5 -27t31.5 -76q0 -32 -10 -89t-23 -85q-41 -81 -139 -81q-48 0 -79.5 27.5t-31.5 76.5zM231 406q27 0 39 25 q7 14 18 74t11 76q0 31 -31 31q-27 0 -39 -25q-7 -14 -17.5 -74t-10.5 -76q0 -31 30 -31zM219 330q-48 0 -79.5 27.5t-31.5 75.5q0 31 10 89t24 86q38 80 138 80q48 0 79.5 -27.5t31.5 -76.5q0 -32 -10 -89t-23 -85q-41 -80 -139 -80zM120 -1l502 682q7 10 17 10h80 q9 0 3 -10l-502 -682q-7 -10 -17 -10h-79q-10 0 -4 10z" glyph-name="percent"/>
<glyph unicode="&amp;" horiz-adv-x="619" d="M156 160q0 -26 16.5 -42.5t45.5 -16.5q41 0 101 54l-75 131q-51 -37 -69.5 -65t-18.5 -61zM293 446q49 35 65.5 56.5t16.5 43.5q0 21 -11.5 33.5t-31.5 12.5q-27 0 -46 -20t-19 -48q0 -30 26 -78zM32 140q0 61 33 114.5t128 122.5q-47 83 -47 131q0 78 59 130.5t144 52.5 q67 0 106 -36.5t39 -94.5q0 -54 -32.5 -100t-117.5 -107l64 -112l84 83q7 6 14 0l58 -59q7 -7 -1 -14l-102 -103l10 -16q13 -22 38 -22h21q10 0 8 -10l-16 -90q-2 -10 -11 -10h-37q-37 0 -57.5 11t-39.5 44l-5 8q-91 -74 -182 -74q-73 0 -115.5 43t-42.5 108z" glyph-name="ampersand"/>
<glyph unicode="&apos;" horiz-adv-x="205" d="M112 476q-10 0 -8 10l32 184q2 10 11 10h76q11 0 9 -10l-33 -184q-2 -10 -11 -10h-76z" glyph-name="quotesingle"/>
<glyph unicode="(" horiz-adv-x="301" d="M125 -74q-63 125 -63 279q0 138 54 275t151 250q7 10 17 10h70q11 0 4 -10q-172 -271 -172 -572q0 -127 30 -232q3 -10 -7 -10h-70q-10 0 -14 10z" glyph-name="parenleft"/>
<glyph unicode=")" horiz-adv-x="301" d="M-15 -74q172 274 172 572q0 127 -30 232q-3 10 7 10h70q9 0 13 -10q64 -124 64 -279q0 -139 -54 -275.5t-152 -249.5q-7 -10 -16 -10h-70q-11 0 -4 10z" glyph-name="parenright"/>
<glyph unicode="*" horiz-adv-x="360" d="M182 376q-10 0 -8 10l16 82l-73 -41q-10 -6 -14 3l-18 45q-3 9 5 13l79 42l-62 41q-9 5 -2 14l31 41q6 8 14 2l61 -42l14 84q2 10 11 10h52q10 0 8 -10l-15 -80l73 40q10 6 14 -3l18 -46q3 -8 -6 -13l-79 -41l63 -40q9 -5 2 -14l-31 -42q-6 -8 -15 -3l-61 41l-13 -83 q-2 -10 -12 -10h-52z" glyph-name="asterisk"/>
<glyph unicode="+" d="M67 219q-10 0 -10 10v94q0 10 10 10h148q6 0 6 6v152q0 10 10 10h97q10 0 10 -10v-152q0 -6 6 -6h148q10 0 10 -10v-94q0 -10 -10 -10h-148q-6 0 -6 -6v-152q0 -10 -10 -10h-97q-10 0 -10 10v152q0 6 -6 6h-148z" glyph-name="plus"/>
<glyph unicode="," horiz-adv-x="244" d="M5 -95l39 221q2 10 11 10h106q11 0 9 -10l-19 -117q-2 -11 -12 -21l-108 -88q-9 -8 -16 -8q-12 0 -10 13z" glyph-name="comma"/>
<glyph unicode="-" horiz-adv-x="372" d="M50 207q-10 0 -8 10l17 97q2 10 11 10h277q10 0 8 -10l-17 -97q-2 -10 -11 -10h-277z" glyph-name="hyphen"/>
<glyph unicode="." horiz-adv-x="244" d="M21 10l20 116q2 10 11 10h113q11 0 9 -10l-20 -116q-2 -10 -11 -10h-113q-11 0 -9 10z" glyph-name="period"/>
<glyph unicode="/" horiz-adv-x="408" d="M2 -1l331 682q4 10 14 10h106q10 0 5 -10l-331 -682q-4 -10 -14 -10h-105q-11 0 -6 10z" glyph-name="slash"/>
<glyph unicode="0" d="M191 164q0 -28 15.5 -45t43.5 -17q52 0 74 48q15 29 42 176.5t27 189.5q0 28 -15.5 45t-43.5 17q-52 0 -74 -48q-15 -29 -42 -176.5t-27 -189.5zM56 153q0 56 27 207.5t49 197.5q65 133 218 133q81 0 129.5 -43t48.5 -121q0 -56 -27 -207.5t-49 -197.5 q-65 -133 -218 -133q-81 0 -129.5 43t-48.5 121z" glyph-name="zero"/>
<glyph unicode="1" d="M181 10l92 519h-2l-120 -76q-5 -3 -8 -1t-2 8l20 117q2 10 9 14l127 83q10 6 18 6h108q11 0 9 -10l-117 -660q-2 -10 -11 -10h-114q-11 0 -9 10z" glyph-name="one"/>
<glyph unicode="2" d="M27 10l16 88q3 10 9 16l279 286q59 62 59 116q0 28 -16 45t-45 17q-34 0 -58.5 -21.5t-35.5 -61.5q-3 -9 -12 -8l-102 18q-8 2 -5 11q19 75 79 125t153 50q81 0 129.5 -43.5t48.5 -112.5q0 -102 -98 -202l-213 -216v-2h229q11 0 9 -10l-17 -95q-2 -10 -11 -10h-389 q-11 0 -9 10z" glyph-name="two"/>
<glyph unicode="3" d="M38 144q0 10 11 13l106 20q10 2 10 -8q9 -67 75 -67q43 0 71.5 33.5t28.5 82.5q0 36 -20 56t-57 20h-27q-10 0 -8 10l16 92q2 10 12 10h25q43 0 71 31.5t28 77.5q0 29 -16 46t-45 17q-59 0 -88 -66q-3 -9 -12 -7l-102 20q-8 2 -5 11q24 68 86 111.5t146 43.5 q82 0 127.5 -40.5t45.5 -107.5q0 -57 -27 -105t-76 -75v-2q26 -14 44 -46t18 -77q0 -110 -71 -179.5t-179 -69.5q-85 0 -136 41.5t-52 113.5z" glyph-name="three"/>
<glyph unicode="4" d="M31 103q-10 0 -8 10l17 95q1 6 7 15l271 449q6 8 16 8h119q12 0 5 -10l-269 -450v-2h116q7 0 8 6l27 149q2 10 11 10h111q10 0 8 -10l-26 -149q-2 -6 4 -6h42q11 0 9 -10l-17 -95q-2 -10 -11 -10h-43q-6 0 -7 -6l-15 -87q-2 -10 -11 -10h-111q-11 0 -9 10l15 87q2 6 -5 6 h-254z" glyph-name="four"/>
<glyph unicode="5" d="M66 151l107 19q8 2 10 -8q7 -60 66 -60q55 0 78 50q11 21 18.5 59.5t7.5 62.5q0 66 -63 66q-25 0 -44.5 -12.5t-29.5 -30.5q-4 -10 -14 -10h-102q-8 0 -7 10l66 373q2 10 10 10h365q11 0 9 -10l-17 -95q-2 -10 -12 -10h-251q-5 0 -7 -6l-25 -142h2q39 35 107 35 q147 0 147 -146q0 -43 -11.5 -102t-29.5 -96q-58 -119 -212 -119q-82 0 -129 41t-47 108q0 12 8 13z" glyph-name="five"/>
<glyph unicode="6" d="M178 178q0 -34 19.5 -55t53.5 -21q45 0 76.5 35.5t31.5 86.5q0 35 -19.5 55.5t-53.5 20.5q-46 0 -77 -35.5t-31 -86.5zM46 158q0 100 79 213l212 302q5 7 13 7h121q12 0 5 -10l-184 -266l2 -1q12 7 43 7q69 0 112 -43t43 -116q0 -112 -73 -187t-187 -75q-84 0 -135 45.5 t-51 123.5z" glyph-name="six"/>
<glyph unicode="7" d="M88 11l307 550v2h-139q-6 0 -7 -6l-14 -72q-2 -10 -11 -10h-107q-9 0 -7 10l33 185q2 10 11 10h392q10 0 8 -10l-17 -97q-1 -6 -6 -17l-304 -547q-5 -9 -16 -9h-117q-11 0 -6 11z" glyph-name="seven"/>
<glyph unicode="8" d="M179 179q0 -35 20.5 -56t55.5 -21q46 0 77.5 35t31.5 85q0 35 -20 56t-55 21q-46 0 -78 -35t-32 -85zM308 411q39 0 66.5 30t27.5 72q0 29 -16.5 47t-46.5 18q-39 0 -66.5 -30t-27.5 -72q0 -29 17 -47t46 -18zM46 155q0 60 29 114t81 86l1 2q-42 36 -42 103q0 91 66 161 t175 70q84 0 131 -45t47 -115q0 -52 -24 -97.5t-68 -76.5l-1 -2q56 -45 56 -121q0 -102 -73.5 -173.5t-185.5 -71.5q-87 0 -139.5 45t-52.5 121z" glyph-name="eight"/>
<glyph unicode="9" d="M300 380q47 0 77.5 35.5t30.5 84.5q0 36 -19.5 57t-53.5 21q-47 0 -77.5 -36t-30.5 -85q0 -35 19.5 -56t53.5 -21zM109 10l182 266l-1 1q-12 -7 -42 -7q-69 0 -112 46t-43 119q0 107 72 181.5t188 74.5q84 0 135.5 -45.5t51.5 -123.5q0 -96 -81 -212l-211 -303 q-4 -7 -13 -7h-121q-5 0 -6.5 3t1.5 7z" glyph-name="nine"/>
<glyph unicode=":" horiz-adv-x="244" d="M21 10l20 116q2 10 11 10h113q11 0 9 -10l-20 -116q-2 -10 -11 -10h-113q-11 0 -9 10zM91 348q-11 0 -9 10l20 116q2 10 11 10h114q11 0 9 -10l-20 -116q-2 -10 -11 -10h-114z" glyph-name="colon"/>
<glyph unicode=";" horiz-adv-x="244" d="M6 -95l38 221q2 10 11 10h107q11 0 9 -10l-20 -117q-3 -13 -12 -21l-108 -88q-9 -8 -16 -8q-12 0 -9 13zM91 348q-11 0 -9 10l20 116q2 10 11 10h114q11 0 9 -10l-20 -116q-2 -10 -11 -10h-114z" glyph-name="semicolon"/>
<glyph unicode="&lt;" d="M67 222q-10 5 -10 14v80q0 9 10 14l425 168q10 3 10 -6v-103q0 -9 -10 -13l-264 -99v-2l264 -99q10 -4 10 -13v-103q0 -9 -10 -6z" glyph-name="less"/>
<glyph unicode="=" d="M74 115q-10 0 -10 10v94q0 10 10 10h425q10 0 10 -10v-94q0 -10 -10 -10h-425zM74 323q-10 0 -10 10v94q0 10 10 10h425q10 0 10 -10v-94q0 -10 -10 -10h-425z" glyph-name="equal"/>
<glyph unicode="&gt;" d="M70 60v103q0 9 10 13l263 99v2l-263 99q-10 4 -10 13v103q0 9 10 6l425 -168q10 -5 10 -14v-80q0 -9 -10 -14l-425 -168q-10 -3 -10 6z" glyph-name="greater"/>
<glyph unicode="?" horiz-adv-x="462" d="M125 10l19 110q2 10 11 10h113q11 0 9 -10l-19 -110q-2 -10 -11 -10h-114q-10 0 -8 10zM169 197q-10 0 -8 10l8 42q9 51 43 86l81 89q31 32 43 53.5t12 45.5q0 25 -13.5 39.5t-39.5 14.5q-59 0 -88 -73q-4 -10 -13 -9l-101 15q-9 2 -6 12q24 77 85.5 123t143.5 46 q77 0 122 -41t45 -106q0 -81 -82 -164l-76 -85q-23 -26 -31 -63l-5 -25q-2 -10 -11 -10h-109z" glyph-name="question"/>
<glyph unicode="@" horiz-adv-x="879" d="M365 209q0 -59 57 -61q48 0 72 49q10 21 17.5 59.5t7.5 63.5q0 61 -57 61q-48 0 -71 -49q-10 -20 -18 -60t-8 -63zM43 195q0 210 129 342t339 132q154 0 247 -89.5t93 -233.5q0 -136 -60 -214t-159 -78q-92 0 -113 66h-1q-43 -66 -134 -66q-56 0 -92 35t-36 97 q0 44 12 101.5t29 91.5q46 96 146 96q37 0 62 -14.5t34 -36.5h2l5 31q2 10 9 10h92q8 0 6 -10l-42 -242q-2 -14 -2 -19q0 -46 42 -46q40 0 66.5 50.5t26.5 136.5q0 113 -67 176.5t-183 63.5q-154 0 -248.5 -106t-94.5 -267q0 -112 66.5 -177.5t181.5 -65.5q102 0 201 47 q9 5 12 -4l30 -68q5 -8 -6 -13q-106 -60 -253 -60q-153 0 -246.5 92.5t-93.5 241.5z" glyph-name="at"/>
<glyph unicode="A" horiz-adv-x="624" d="M247 252h155l-31 248h-3zM-16 0q-10 0 -5 10l343 660q5 10 15 10h121q9 0 11 -10l105 -660q2 -10 -7 -10h-122q-11 0 -12 10l-16 122h-229l-59 -122q-4 -10 -13 -10h-132z" glyph-name="A"/>
<glyph unicode="B" horiz-adv-x="585" d="M188 119q-2 -6 4 -6h108q48 0 78 30.5t30 80.5q0 68 -77 68h-107q-6 0 -7 -6zM243 400h99q46 0 75.5 28.5t29.5 74.5q0 64 -75 64h-100q-6 0 -7 -6l-27 -155q-2 -6 5 -6zM28 10l117 660q2 10 11 10h254q91 0 136 -38.5t45 -107.5q0 -124 -108 -180v-2q28 -12 47 -43.5 t19 -75.5q0 -108 -69.5 -170.5t-193.5 -62.5h-249q-11 0 -9 10z" glyph-name="B"/>
<glyph unicode="C" horiz-adv-x="555" d="M51 197q0 53 21.5 169.5t46.5 167.5q79 157 258 157q80 0 131.5 -40t68.5 -111q1 -9 -7 -13l-106 -44q-9 -5 -13 6q-19 77 -90 77q-77 0 -114 -80q-17 -34 -35.5 -135t-18.5 -142q0 -44 23.5 -69.5t66.5 -25.5q69 0 115 78q6 9 15 5l95 -51q8 -3 3 -13 q-46 -75 -106.5 -109.5t-142.5 -34.5q-96 0 -153.5 54t-57.5 154z" glyph-name="C"/>
<glyph unicode="D" horiz-adv-x="605" d="M190 131q-2 -6 5 -6h76q50 0 82 18t52 59q16 33 33 122t17 132q0 52 -27 75.5t-83 23.5h-75q-4 0 -6 -6zM28 10l117 660q2 10 11 10h243q196 0 196 -193q0 -68 -20.5 -179.5t-47.5 -168.5q-38 -76 -97.5 -107.5t-149.5 -31.5h-243q-11 0 -9 10z" glyph-name="D"/>
<glyph unicode="E" horiz-adv-x="542" d="M28 10l117 660q2 10 11 10h418q10 0 8 -10l-18 -102q-2 -10 -11 -10h-282q-5 0 -7 -6l-25 -143q-1 -6 5 -6h234q10 0 8 -10l-18 -100q-2 -10 -12 -10h-234q-6 0 -7 -6l-26 -149q-1 -6 5 -6h282q10 0 8 -10l-19 -102q-2 -10 -11 -10h-417q-11 0 -9 10z" glyph-name="E"/>
<glyph unicode="F" d="M28 10l117 660q2 10 11 10h418q10 0 8 -10l-18 -102q-2 -10 -11 -10h-283q-4 0 -6 -6l-27 -151q0 -6 5 -6h234q11 0 9 -10l-18 -100q-2 -10 -12 -10h-235q-4 0 -6 -6l-46 -259q-2 -10 -11 -10h-120q-11 0 -9 10z" glyph-name="F"/>
<glyph unicode="G" horiz-adv-x="601" d="M51 197q0 53 22 170.5t46 167.5q77 156 267 156q81 0 135.5 -40.5t69.5 -103.5q3 -8 -6 -14l-106 -43q-9 -4 -13 5q-26 71 -100 71q-81 0 -119 -80q-16 -33 -35 -134.5t-19 -141.5q0 -44 25.5 -70t69.5 -26q82 0 118 73q14 31 20 71q0 6 -5 6h-88q-9 0 -7 10l16 92 q2 10 11 10h226q9 0 7 -10l-10 -55q-18 -112 -45 -167q-78 -155 -263 -155q-99 0 -158 54t-59 154z" glyph-name="G"/>
<glyph unicode="H" horiz-adv-x="634" d="M28 10l117 660q2 10 11 10h121q10 0 8 -10l-45 -258q-2 -6 5 -6h214q5 0 7 6l46 258q2 10 11 10h121q11 0 9 -10l-117 -660q-2 -10 -11 -10h-121q-11 0 -9 10l47 265q2 6 -5 6h-215q-6 0 -7 -6l-47 -265q-2 -10 -10 -10h-121q-11 0 -9 10z" glyph-name="H"/>
<glyph unicode="I" horiz-adv-x="266" d="M28 10l117 660q2 10 11 10h121q10 0 8 -10l-117 -660q-2 -10 -10 -10h-121q-11 0 -9 10z" glyph-name="I"/>
<glyph unicode="J" horiz-adv-x="497" d="M-2 79q-3 8 5 14l95 64q8 5 13 -2q31 -40 76 -40q94 0 114 119l77 436q2 10 11 10h122q10 0 8 -10l-76 -429q-24 -134 -89.5 -193t-180.5 -59q-58 0 -107.5 26.5t-67.5 63.5z" glyph-name="J"/>
<glyph unicode="K" horiz-adv-x="619" d="M28 10l117 660q2 10 11 10h121q10 0 8 -10l-51 -285l263 286q8 9 18 9h144q5 0 6.5 -4t-2.5 -9l-251 -262l141 -393q3 -12 -9 -12h-123q-11 0 -14 9l-99 293l-109 -118l-31 -174q-2 -10 -10 -10h-121q-11 0 -9 10z" glyph-name="K"/>
<glyph unicode="L" horiz-adv-x="519" d="M28 10l117 660q2 10 11 10h121q10 0 8 -10l-95 -539q-2 -6 5 -6h277q10 0 8 -10l-19 -105q-2 -10 -10 -10h-414q-11 0 -9 10z" glyph-name="L"/>
<glyph unicode="M" horiz-adv-x="737" d="M28 10l117 660q2 10 11 10h107q12 0 15 -10l97 -396h3l234 396q6 10 16 10h119q11 0 9 -10l-117 -660q-2 -10 -11 -10h-108q-11 0 -9 10l70 395h-4l-177 -298q-6 -13 -20 -13h-64q-12 0 -16 13l-71 298h-4l-70 -395q-2 -10 -10 -10h-108q-11 0 -9 10z" glyph-name="M"/>
<glyph unicode="N" horiz-adv-x="631" d="M28 10l117 660q2 10 11 10h114q12 0 15 -10l155 -437h4l78 437q2 10 11 10h108q11 0 9 -10l-117 -660q-2 -10 -11 -10h-115q-10 0 -14 10l-156 437h-5l-77 -437q-2 -10 -10 -10h-108q-11 0 -9 10z" glyph-name="N"/>
<glyph unicode="O" horiz-adv-x="602" d="M285 114q79 0 118 80q16 33 34.5 134t18.5 142q0 45 -24 70.5t-68 25.5q-79 0 -117 -80q-17 -33 -35.5 -134t-18.5 -142q0 -45 24.5 -70.5t67.5 -25.5zM266 -11q-99 0 -157 54t-58 154q0 53 22 170.5t46 167.5q77 156 264 156q99 0 157 -54t58 -154q0 -53 -22 -170.5 t-46 -167.5q-77 -156 -264 -156z" glyph-name="O"/>
<glyph unicode="P" horiz-adv-x="582" d="M346 368q51 0 83.5 32t32.5 85q0 34 -21.5 53.5t-60.5 19.5h-108q-6 0 -7 -6l-32 -178q0 -6 5 -6h108zM158 0h-121q-10 0 -8 10l117 660q2 10 10 10h253q94 0 144.5 -46t50.5 -126q0 -124 -74.5 -193t-195.5 -69h-117q-7 0 -7 -6l-41 -230q-2 -10 -11 -10z" glyph-name="P"/>
<glyph unicode="Q" horiz-adv-x="605" d="M285 114q19 0 34 4l-38 59q-5 8 5 14l84 60q9 6 15 -2l24 -38q16 45 31.5 134t15.5 125q0 45 -24 70.5t-67 25.5q-80 0 -118 -80q-16 -33 -35 -134.5t-19 -141.5q0 -45 24 -70.5t68 -25.5zM526 9l-84 -60q-10 -8 -15 1l-39 59q-55 -20 -122 -20q-99 0 -157 54t-58 154 q0 53 22 170.5t46 167.5q77 156 264 156q99 0 157 -54t58 -154q0 -53 -22 -170.5t-46 -167.5q-21 -41 -39 -61l39 -60q5 -9 -4 -15z" glyph-name="Q"/>
<glyph unicode="R" horiz-adv-x="600" d="M355 382q46 1 77 30t31 79q0 31 -21 49t-56 18h-115q-5 0 -7 -6l-29 -164q-1 -6 5 -6h115zM518 0h-119q-10 0 -13 10l-69 252h-98q-7 0 -7 -6l-44 -246q-2 -10 -10 -10h-121q-11 0 -9 10l117 660q2 10 11 10h258q89 0 140 -46t51 -122q0 -81 -43 -142t-114 -89l78 -269 q2 -4 -0.5 -8t-7.5 -4z" glyph-name="R"/>
<glyph unicode="S" horiz-adv-x="574" d="M250 -11q-74 0 -142 26.5t-100 65.5q-6 9 1 16l86 82q8 8 14 1q65 -67 160 -67q55 0 90 29.5t35 72.5q0 26 -19.5 41.5t-67.5 22.5l-33 5q-177 26 -177 170q0 107 74.5 172t192.5 65q133 0 212 -72q7 -5 0 -15l-71 -82q-8 -8 -14 -3q-66 49 -138 49q-47 0 -78 -27 t-31 -66q0 -26 19.5 -42t67.5 -23l33 -5q178 -27 178 -163q0 -117 -81 -185t-211 -68z" glyph-name="S"/>
<glyph unicode="T" horiz-adv-x="538" d="M293 0h-121q-10 0 -8 10l95 539q1 6 -5 6h-166q-11 0 -9 10l19 105q2 10 11 10h485q11 0 9 -10l-19 -105q-2 -10 -11 -10h-167q-6 0 -7 -6l-95 -539q-2 -10 -11 -10z" glyph-name="T"/>
<glyph unicode="U" horiz-adv-x="619" d="M286 -11q-104 0 -164 53t-60 150q0 28 6 61l74 417q2 10 10 10h121q11 0 9 -10l-75 -425q-3 -18 -3 -35q0 -47 25 -71.5t69 -24.5q52 0 83.5 29.5t44.5 101.5l76 425q2 10 11 10h120q11 0 9 -10l-76 -427q-24 -137 -93 -195.5t-187 -58.5z" glyph-name="U"/>
<glyph unicode="V" horiz-adv-x="572" d="M306 0h-112q-9 0 -11 10l-93 659q-2 11 10 11h119q12 0 13 -10l52 -457h3l208 457q6 10 15 10h128q12 0 7 -11l-326 -659q-5 -10 -13 -10z" glyph-name="V"/>
<glyph unicode="W" horiz-adv-x="833" d="M605 0h-97q-9 0 -11 10l-38 434h-2l-192 -434q-5 -10 -14 -10h-97q-8 0 -10 10l-53 660q0 10 8 10h120q11 0 11 -10l17 -439h2l190 439q5 10 14 10h83q9 0 11 -10l38 -439h2l170 439q3 10 12 10h129q10 0 7 -10l-288 -660q-3 -10 -12 -10z" glyph-name="W"/>
<glyph unicode="X" horiz-adv-x="576" d="M522 0h-126q-11 0 -15 10l-82 214h-2l-158 -214q-7 -10 -16 -10h-141q-5 0 -6 4t3 8l260 343l-128 313q-4 12 8 12h128q11 0 15 -10l72 -187h2l137 187q7 10 18 10h134q12 0 4 -12l-237 -315l137 -341q2 -4 0 -8t-7 -4z" glyph-name="X"/>
<glyph unicode="Y" horiz-adv-x="547" d="M297 0h-120q-11 0 -9 10l47 261l-125 399q-2 4 1 7t8 3h117q11 0 14 -10l75 -255h3l165 255q6 10 15 10h125q13 0 7 -10l-265 -399l-47 -261q-2 -10 -11 -10z" glyph-name="Y"/>
<glyph unicode="Z" horiz-adv-x="533" d="M446 0h-431q-11 0 -9 10l17 100q2 8 8 16l355 427v2h-264q-10 0 -8 10l19 105q2 10 10 10h422q11 0 9 -10l-18 -100q-1 -8 -6 -14l-359 -429v-2h277q10 0 8 -10l-19 -105q-2 -10 -11 -10z" glyph-name="Z"/>
<glyph unicode="[" horiz-adv-x="287" d="M199 -84h-183q-11 0 -9 10l142 804q2 10 12 10h182q10 0 8 -10l-15 -80q-2 -10 -10 -10h-69q-5 0 -7 -6l-108 -612q0 -6 5 -6h68q10 0 8 -10l-14 -80q-2 -10 -10 -10z" glyph-name="bracketleft"/>
<glyph unicode="\" horiz-adv-x="408" d="M322 -11h-102q-11 0 -12 10l-94 682q0 10 9 10h102q10 0 11 -10l94 -682q2 -10 -8 -10z" glyph-name="backslash"/>
<glyph unicode="]" horiz-adv-x="287" d="M168 -84h-182q-11 0 -9 10l15 80q2 10 12 10h68q4 0 6 6l108 612q2 6 -4 6h-68q-11 0 -9 10l14 80q2 10 12 10h182q11 0 9 -10l-142 -804q-2 -10 -12 -10z" glyph-name="bracketright"/>
<glyph unicode="^" d="M488 255h-104q-10 0 -14 10l-98 254h-2l-100 -254q-3 -10 -13 -10h-104q-11 0 -6 10l169 405q5 10 14 10h82q9 0 14 -10l168 -405q5 -10 -6 -10z" glyph-name="asciicircum"/>
<glyph unicode="_" horiz-adv-x="505" d="M441 -150h-501l15 85h501z" glyph-name="underscore"/>
<glyph unicode="`" horiz-adv-x="443" d="M384 551h-81q-10 0 -17 10l-72 130q-2 4 0 7t7 3h104q12 0 15 -10l52 -130q3 -10 -8 -10z" glyph-name="grave"/>
<glyph unicode="a" horiz-adv-x="509" d="M215 89q90 0 101 70l6 37q2 6 -5 6h-68q-94 0 -94 -68q0 -45 60 -45zM404 0h-106q-10 0 -8 10l5 33h-1q-47 -54 -138 -54q-56 0 -93.5 33.5t-37.5 89.5q0 87 58 133t165 46h84q6 0 8 6l4 22q2 14 2 19q0 25 -19.5 37t-67.5 12q-63 0 -110 -32q-9 -6 -12 3l-30 75 q-3 9 5 14q73 48 182 48q94 0 138 -29t44 -95q0 -20 -5 -50l-56 -311q-2 -10 -11 -10z" glyph-name="a"/>
<glyph unicode="b" horiz-adv-x="530" d="M258 102q55 0 82 55q12 23 21.5 72.5t9.5 78.5q0 74 -64 74q-55 0 -82 -55q-11 -22 -21 -72t-10 -79q0 -74 64 -74zM282 -11q-88 0 -114 59h-1l-7 -38q-2 -10 -10 -10h-115q-11 0 -9 10l117 660q2 10 11 10h115q10 0 8 -10l-41 -233h1q46 58 132 58q68 0 103.5 -42 t35.5 -117q0 -52 -14 -123t-36 -115q-54 -109 -176 -109z" glyph-name="b"/>
<glyph unicode="c" horiz-adv-x="460" d="M214 -11q-82 0 -130.5 46t-48.5 126q0 43 11 101.5t32 102.5q64 130 221 130q120 0 158 -97q3 -9 -4 -13l-87 -49q-10 -7 -16 3q-23 43 -64 43q-56 0 -83 -55q-13 -27 -22.5 -75t-9.5 -75q0 -75 64 -75q43 0 84 45q7 8 13 3l76 -55q8 -5 1 -14q-66 -92 -195 -92z" glyph-name="c"/>
<glyph unicode="d" horiz-adv-x="531" d="M235 102q55 0 82 55q11 22 21 72t10 79q0 74 -64 74q-55 0 -82 -55q-12 -23 -21.5 -72.5t-9.5 -78.5q0 -74 64 -74zM423 0h-115q-10 0 -8 10l6 37h-1q-46 -58 -132 -58q-68 0 -103.5 42t-35.5 117q0 52 14 123t36 115q54 109 176 109q88 0 114 -59h1l41 234q2 10 11 10 h115q10 0 8 -10l-116 -660q-2 -10 -11 -10z" glyph-name="d"/>
<glyph unicode="e" horiz-adv-x="503" d="M187 291h156q5 0 7 6q3 15 3 27q0 68 -70 68q-62 0 -88 -54q-8 -15 -12 -40q-1 -7 4 -7zM222 -11q-89 0 -138 45.5t-49 131.5q0 116 40 196q65 133 225 133q79 0 129 -44.5t50 -125.5q0 -41 -13 -113q-2 -10 -12 -10h-283q-5 0 -7 -6q-1 -5 -1 -15q0 -84 87 -84 q58 0 116 47q8 7 15 0l49 -59q7 -8 -1 -16q-87 -80 -207 -80z" glyph-name="e"/>
<glyph unicode="f" horiz-adv-x="327" d="M167 0h-115q-11 0 -9 10l65 370q2 6 -4 6h-30q-9 0 -7 10l14 78q2 10 10 10h30q5 0 7 6l4 25q16 87 62 126t130 39h53q10 0 8 -10l-16 -89q-2 -10 -11 -10h-28q-33 0 -46.5 -11t-18.5 -43l-5 -26q-1 -7 5 -7h76q11 0 9 -10l-14 -78q-2 -10 -12 -10h-76q-6 0 -7 -6 l-64 -370q-2 -10 -10 -10z" glyph-name="f"/>
<glyph unicode="g" horiz-adv-x="521" d="M238 130q51 0 77 54q27 52 27 125t-63 73q-51 0 -77 -54q-27 -52 -27 -125t63 -73zM173 -191q-57 0 -102 22t-68 57q-7 9 2 16l74 62q9 7 16 0q42 -44 89 -44q95 0 114 110l8 44h-1q-43 -58 -128 -58q-69 0 -103.5 41t-34.5 114q0 44 12 105.5t31 101.5q54 115 175 115 q87 0 111 -59h1l7 38q2 10 11 10h112q10 0 8 -10l-74 -427q-22 -128 -84 -183t-176 -55z" glyph-name="g"/>
<glyph unicode="h" horiz-adv-x="533" d="M429 0h-114q-10 0 -8 10l49 278q2 10 2 27q0 66 -58 66q-35 0 -59 -24.5t-32 -66.5l-49 -280q-2 -10 -10 -10h-115q-11 0 -9 10l117 660q2 10 11 10h115q10 0 8 -10l-42 -232h1q50 57 132 57q65 0 98 -36.5t33 -98.5q0 -25 -4 -46l-55 -304q-2 -10 -11 -10z" glyph-name="h"/>
<glyph unicode="i" horiz-adv-x="255" d="M150 0h-115q-11 0 -9 10l82 464q2 10 11 10h115q10 0 8 -10l-82 -464q-2 -10 -10 -10zM249 565h-116q-10 0 -8 10l18 95q2 10 11 10h115q10 0 8 -10l-17 -95q-2 -10 -11 -10z" glyph-name="i"/>
<glyph unicode="j" horiz-adv-x="255" d="M-45 -180h-32q-10 0 -7 10l17 94q2 10 11 10h16q30 0 43.5 12t19.5 45l85 483q2 10 11 10h115q10 0 8 -10l-85 -482q-18 -100 -61.5 -136t-140.5 -36zM249 565h-116q-10 0 -8 10l18 95q2 10 11 10h115q10 0 8 -10l-17 -95q-2 -10 -11 -10z" glyph-name="j"/>
<glyph unicode="k" horiz-adv-x="514" d="M452 0h-119q-10 0 -13 10l-73 207l-63 -71l-24 -136q-2 -10 -11 -10h-115q-10 0 -8 10l116 660q2 10 11 10h114q11 0 9 -10l-63 -360l157 165q8 9 20 9h126q5 0 6.5 -3t-1.5 -7l-174 -176l112 -288q4 -10 -7 -10z" glyph-name="k"/>
<glyph unicode="l" horiz-adv-x="292" d="M215 -6h-50q-64 0 -92.5 24t-28.5 76q0 19 5 51l94 525q2 10 10 10h115q11 0 9 -10l-94 -517q-1 -5 -1 -14q0 -30 34 -30h19q10 0 8 -10l-16 -95q-2 -10 -12 -10z" glyph-name="l"/>
<glyph unicode="m" horiz-adv-x="812" d="M709 0h-114q-11 0 -9 10l49 278q3 15 3 29q0 64 -59 64q-34 0 -58.5 -25t-31.5 -66l-49 -280q-2 -10 -11 -10h-114q-11 0 -9 10l49 278q3 15 3 29q0 64 -59 64q-34 0 -58.5 -25t-31.5 -66l-50 -280q-2 -10 -10 -10h-115q-10 0 -8 10l82 464q2 10 11 10h114q10 0 8 -10 l-6 -36h1q48 57 131 57q85 0 115 -64h1q66 64 159 64q67 0 101.5 -35.5t34.5 -98.5q0 -24 -4 -47l-54 -304q-2 -10 -11 -10z" glyph-name="m"/>
<glyph unicode="n" horiz-adv-x="533" d="M429 0h-114q-10 0 -8 10l49 278q2 10 2 27q0 66 -58 66q-35 0 -59 -24.5t-32 -66.5l-49 -280q-2 -10 -10 -10h-115q-11 0 -9 10l82 464q2 10 11 10h115q10 0 8 -10l-7 -36h1q50 57 132 57q65 0 98 -36.5t33 -98.5q0 -24 -4 -45l-55 -305q-2 -10 -11 -10z" glyph-name="n"/>
<glyph unicode="o" horiz-adv-x="508" d="M235 102q55 0 82 55q12 25 22 74.5t10 76.5q0 74 -65 74q-55 0 -82 -55q-12 -25 -22 -74.5t-10 -76.5q0 -74 65 -74zM217 -11q-84 0 -133 46t-49 128q0 46 12 105t31 98q63 129 224 129q84 0 133 -46t49 -128q0 -46 -12 -105t-31 -98q-63 -129 -224 -129z" glyph-name="o"/>
<glyph unicode="p" horiz-adv-x="530" d="M258 102q55 0 82 55q12 23 21.5 72.5t9.5 78.5q0 74 -64 74q-55 0 -82 -55q-11 -22 -21 -72t-10 -79q0 -74 64 -74zM118 -180h-115q-10 0 -8 10l113 644q2 10 11 10h115q10 0 8 -10l-6 -37h1q46 58 132 58q68 0 103.5 -42t35.5 -117q0 -52 -14 -123t-36 -115 q-54 -109 -176 -109q-88 0 -114 59h-1l-38 -218q-2 -10 -11 -10z" glyph-name="p"/>
<glyph unicode="q" horiz-adv-x="531" d="M236 102q55 0 82 55q11 22 21 72t10 79q0 74 -64 74q-55 0 -82 -55q-12 -23 -21.5 -72.5t-9.5 -78.5q0 -74 64 -74zM392 -180h-115q-10 0 -8 10l38 217h-1q-46 -58 -132 -58q-68 0 -103.5 42t-35.5 117q0 52 14 123t36 115q55 109 176 109q88 0 114 -59h1l7 38 q2 10 11 10h115q10 0 8 -10l-114 -644q-2 -10 -11 -10z" glyph-name="q"/>
<glyph unicode="r" horiz-adv-x="412" d="M150 0h-115q-11 0 -9 10l82 464q2 10 11 10h115q10 0 8 -10l-8 -43h1q46 64 130 64q51 0 77 -29q6 -8 1 -14l-68 -97q-7 -7 -14 -2q-32 22 -62 22q-75 0 -94 -109l-45 -256q-2 -10 -10 -10z" glyph-name="r"/>
<glyph unicode="s" horiz-adv-x="487" d="M213 -11q-130 0 -204 76q-6 6 2 14l72 67q8 6 14 0q59 -51 134 -51q38 0 61.5 17.5t23.5 40.5q0 32 -57 37l-51 5q-63 7 -97.5 38.5t-34.5 82.5q0 84 60.5 131.5t157.5 47.5q54 0 102 -17.5t77 -43.5q7 -6 -1 -14l-64 -65q-7 -7 -14 -2q-52 38 -117 38q-32 0 -51.5 -14.5 t-19.5 -35.5q0 -16 11.5 -24t43.5 -12l50 -5q136 -14 136 -120q0 -87 -62.5 -139t-171.5 -52z" glyph-name="s"/>
<glyph unicode="t" horiz-adv-x="319" d="M232 -6h-50q-66 0 -96 26t-30 80q0 29 5 54l42 226q1 6 -5 6h-30q-9 0 -7 10l14 78q2 10 11 10h30q6 0 7 6l23 130q2 10 12 10h113q10 0 8 -10l-23 -130q-2 -6 4 -6h61q10 0 8 -10l-13 -78q-2 -10 -12 -10h-62q-4 0 -6 -6l-41 -221q-2 -16 -2 -20q0 -30 37 -30h22 q10 0 8 -10l-17 -95q-2 -10 -11 -10z" glyph-name="t"/>
<glyph unicode="u" horiz-adv-x="529" d="M114 484h114q11 0 9 -10l-49 -279q-3 -15 -3 -28q0 -64 58 -64q35 0 58.5 24.5t31.5 66.5l49 280q2 10 10 10h115q11 0 9 -10l-83 -464q-2 -10 -11 -10h-114q-10 0 -8 10l6 36h-1q-52 -57 -130 -57q-64 0 -97 35t-33 97q0 20 5 48l54 305q2 10 10 10z" glyph-name="u"/>
<glyph unicode="v" horiz-adv-x="492" d="M262 0h-105q-9 0 -11 10l-85 464q0 10 9 10h117q10 0 11 -10l39 -294h2l142 294q4 10 14 10h122q11 0 6 -10l-248 -464q-5 -10 -13 -10z" glyph-name="v"/>
<glyph unicode="w" horiz-adv-x="735" d="M520 0h-94q-10 0 -10 10l-30 290h-2l-135 -290q-5 -10 -13 -10h-94q-10 0 -10 10l-68 464q0 10 10 10h110q11 0 12 -10l25 -297h2l134 297q4 10 13 10h83q11 0 12 -10l30 -297h1l127 297q4 10 14 10h121q11 0 6 -10l-231 -464q-5 -10 -13 -10z" glyph-name="w"/>
<glyph unicode="x" horiz-adv-x="497" d="M433 0h-118q-9 0 -14 9l-61 135h-1l-108 -135q-9 -9 -17 -9h-127q-12 0 -6 10l203 243l-106 221q-4 10 8 10h119q11 0 14 -8l52 -118h1l94 118q8 8 16 8h125q5 0 6.5 -3t-1.5 -7l-185 -223l114 -241q4 -10 -8 -10z" glyph-name="x"/>
<glyph unicode="y" horiz-adv-x="492" d="M54 -180h-33q-11 0 -8 10l16 94q2 10 12 10h21q47 0 74 52l18 37l-94 451q-2 10 8 10h119q9 0 10 -10l44 -287h2l140 287q4 10 14 10h120q12 0 7 -10l-283 -516q-42 -79 -83 -108.5t-104 -29.5z" glyph-name="y"/>
<glyph unicode="z" horiz-adv-x="471" d="M382 0h-364q-10 0 -8 10l15 87q1 5 6 10l265 266v2h-201q-9 0 -7 10l16 89q2 10 11 10h353q9 0 7 -10l-15 -89q-1 -5 -6 -12l-262 -260v-3h210q10 0 8 -10l-16 -90q-2 -10 -12 -10z" glyph-name="z"/>
<glyph unicode="{" horiz-adv-x="342" d="M249 -84h-62q-102 0 -102 89q0 14 3 32l27 157q2 10 2 28q0 53 -53 54q-10 0 -8 10l15 88q2 10 12 10q65 0 80 82l27 153q21 121 142 121h62q10 0 8 -10l-14 -80q-1 -10 -11 -10h-26q-41 0 -49 -44l-25 -141q-10 -56 -30 -83t-60 -41v-2q51 -20 51 -77q0 -16 -5 -48 l-25 -144q-1 -5 -1 -13q0 -31 33 -31h26q11 0 9 -10l-15 -80q-2 -10 -11 -10z" glyph-name="braceleft"/>
<glyph unicode="|" horiz-adv-x="328" d="M232 -84h-94q-10 0 -10 10v804q0 10 10 10h94q10 0 10 -10v-804q0 -10 -10 -10z" glyph-name="bar"/>
<glyph unicode="}" horiz-adv-x="342" d="M53 -84h-62q-10 0 -8 10l14 80q1 10 11 10h26q41 0 49 44l25 145q10 55 30 82.5t60 41.5v2q-50 20 -50 77q0 16 5 48l24 140q1 5 1 13q0 31 -33 31h-26q-11 0 -9 10l15 80q2 10 11 10h62q102 0 102 -89q0 -14 -3 -32l-26 -153q-3 -16 -3 -29q0 -51 54 -53q10 0 8 -10 l-16 -88q-2 -10 -11 -10q-65 0 -80 -82l-28 -157q-21 -121 -142 -121z" glyph-name="braceright"/>
<glyph unicode="~" d="M363 194q-50 0 -103 34q-39 25 -65 25q-40 0 -68 -49q-5 -8 -14 -2l-64 39q-7 5 -3 14q21 46 59.5 74t84.5 28q49 0 102 -34q41 -25 66 -25q38 0 67 49q5 9 15 2l63 -39q9 -4 3 -14q-21 -46 -59 -74t-84 -28z" glyph-name="asciitilde"/>
<glyph unicode=" " horiz-adv-x="229" glyph-name="uni00A0"/>
<glyph unicode="¡" horiz-adv-x="299" d="M264 474l-19 -110q-2 -10 -11 -10h-113q-11 0 -9 10l19 110q2 10 11 10h114q10 0 8 -10zM206 286q10 0 8 -10l-59 -462q-1 -10 -11 -10h-123q-10 0 -8 10l103 462q2 10 11 10h79z" glyph-name="exclamdown"/>
<glyph unicode="¢" d="M203 172q0 -49 35 -64l47 268q-31 -12 -50 -49q-14 -29 -23 -76.5t-9 -78.5zM249 -98h-37q-10 0 -8 10l14 79q-71 8 -111 51t-40 116q0 114 42 205q58 119 197 131l14 78q2 10 12 10h37q10 0 8 -10l-14 -79q99 -10 134 -95q2 -9 -5 -13l-87 -49q-9 -6 -16 3 q-18 34 -46 41l-49 -276q36 9 64 43q6 10 14 2l76 -56q8 -5 0 -13q-58 -81 -174 -90l-13 -78q-2 -10 -12 -10z" glyph-name="cent"/>
<glyph unicode="£" d="M432 0h-376q-11 0 -9 10l17 92q2 7 7 13q22 19 32.5 35.5t16.5 50.5l11 64q1 6 -5 6h-39q-9 0 -7 10l13 75q2 10 11 10h38q6 0 8 6l22 126q16 95 73 144t144 49q70 0 107 -37t37 -97q0 -11 -9 -14l-104 -22q-9 0 -9 9q0 48 -40 48q-52 0 -63 -65l-23 -141q-1 -6 4 -6h117 q11 0 9 -10l-13 -75q-2 -10 -12 -10h-118q-6 0 -7 -6l-8 -49q-11 -66 -44 -100l-1 -2h239q11 0 9 -10l-17 -94q-2 -10 -11 -10z" glyph-name="sterling"/>
<glyph unicode="¤" d="M285 199q49 0 83 40t34 90q0 36 -21 59.5t-56 23.5q-50 0 -84 -40t-34 -91q0 -36 21.5 -59t56.5 -23zM505 131l-73 -61q-9 -7 -14 0l-45 55q-50 -24 -103 -24q-52 0 -93 25l-66 -58q-9 -7 -14 0l-55 66q-7 7 3 14l68 60q-9 27 -9 58q0 78 45 142l-46 58q-6 6 2 14l73 61 q7 7 14 0l44 -56q47 25 103 25q52 0 91 -25l68 59q9 7 14 0l56 -66q5 -7 -3 -14l-70 -61q10 -30 10 -59q0 -78 -44 -142l46 -57q6 -8 -2 -14z" glyph-name="currency"/>
<glyph unicode="¥" d="M290 0h-115q-10 0 -8 10l21 118q2 6 -5 6h-113q-10 0 -8 10l11 58q2 10 11 10h113q5 0 7 6l6 36q2 6 -5 6h-113q-9 0 -7 10l10 58q2 10 11 10h91v2l-85 330q-2 10 8 10h118q11 0 13 -10l50 -264h3l142 264q7 10 16 10h121q10 0 6 -10l-201 -330v-2h90q10 0 8 -10l-11 -58 q-2 -10 -11 -10h-113q-5 0 -7 -6l-6 -36q-2 -6 5 -6h113q9 0 7 -10l-10 -58q-2 -10 -11 -10h-114q-6 0 -7 -6l-20 -118q-2 -10 -11 -10z" glyph-name="yen"/>
<glyph unicode="¦" horiz-adv-x="328" d="M232 -84h-94q-10 0 -10 10v336q0 10 10 10h94q10 0 10 -10v-336q0 -10 -10 -10zM232 388h-94q-10 0 -10 10v332q0 10 10 10h94q10 0 10 -10v-332q0 -10 -10 -10z" glyph-name="brokenbar"/>
<glyph unicode="§" horiz-adv-x="531" d="M258 165q40 0 67 32t27 77q0 31 -16.5 48t-46.5 17q-41 0 -68 -32t-27 -77q0 -31 17 -48t47 -17zM192 -192q-78 0 -116.5 36.5t-38.5 96.5v9q0 10 8 12l101 17q4 1 6 -1t2 -7q0 -31 12 -46t42 -15q32 0 53 21t21 55q0 27 -20.5 44.5t-69.5 30.5q-120 34 -120 145 q0 64 30.5 116.5t85.5 82.5v1q-44 34 -44 91q0 84 60.5 139.5t149.5 55.5q75 0 114 -36.5t39 -90.5q0 -11 -1 -16q-1 -10 -10 -11l-98 -17q-4 -1 -6 1t-2 7q2 61 -52 61q-31 0 -51 -21.5t-20 -53.5q0 -26 20.5 -42.5t67.5 -29.5q120 -35 120 -146q0 -61 -31 -115t-86 -83v-1 q47 -28 47 -93q0 -87 -60.5 -142t-152.5 -55z" glyph-name="section"/>
<glyph unicode="¨" horiz-adv-x="441" d="M232 566h-89q-10 0 -8 10l18 95q2 10 11 10h88q10 0 8 -10l-17 -95q-2 -10 -11 -10zM425 566h-89q-10 0 -8 10l18 95q2 10 11 10h89q10 0 8 -10l-18 -95q-2 -10 -11 -10z" glyph-name="dieresis"/>
<glyph unicode="©" horiz-adv-x="811" d="M433 144q-61 0 -105 28t-61 81q-10 33 -10 87q0 53 10 88q17 52 61 80.5t105 28.5q97 0 143 -70q6 -10 -3 -14l-62 -40q-7 -6 -13 2q-27 34 -63 34q-52 0 -67 -46q-5 -15 -5 -63t5 -62q16 -47 67 -47q36 0 63 34q6 9 13 2l62 -39q9 -6 3 -14q-46 -70 -143 -70zM424 65 q117 0 194 78t77 197q0 118 -77 196t-194 78t-194 -78t-77 -196q0 -119 77 -197t194 -78zM424 -12q-150 0 -251 101t-101 251q0 149 101 250t251 101q149 0 250 -101t101 -250q0 -150 -101 -251t-250 -101z" glyph-name="copyright"/>
<glyph unicode="ª" horiz-adv-x="344" d="M204 456q51 0 57 36l2 11q1 6 -4 6h-42q-21 0 -33 -9t-12 -23q0 -21 32 -21zM327 392h-72q-11 0 -9 10l3 14h-1q-29 -29 -84 -29q-38 0 -61.5 18.5t-23.5 54.5q0 51 39 80.5t103 29.5h48q5 0 7 6l2 7q0 1 0.5 3.5t0.5 3.5q0 23 -52 23q-33 0 -69 -16q-8 -6 -12 3l-19 48 q-4 9 6 14q47 26 118 26q65 0 94 -18t29 -58q0 -13 -3 -28l-33 -182q-2 -10 -11 -10z" glyph-name="ordfeminine"/>
<glyph unicode="«" horiz-adv-x="544" d="M210 41l-173 216q-6 8 2 14l250 216q3 3 6.5 1.5t2.5 -5.5l-21 -117q-3 -12 -13 -21l-94 -83q-5 -4 -2 -8l65 -84q9 -9 6 -21l-18 -104q-1 -4 -4.5 -5.5t-6.5 1.5zM445 41l-173 216q-6 8 2 14l250 216q3 3 6.5 1.5t2.5 -5.5l-20 -117q-2 -11 -14 -21l-94 -83q-5 -4 -2 -8 l65 -84q9 -9 6 -21l-18 -104q-1 -4 -4.5 -5.5t-6.5 1.5z" glyph-name="guillemotleft"/>
<glyph unicode="¬" d="M492 86h-98q-10 0 -10 10v117q0 6 -6 6h-311q-10 0 -10 10v94q0 10 10 10h425q10 0 10 -10v-227q0 -10 -10 -10z" glyph-name="logicalnot"/>
<glyph unicode="­" horiz-adv-x="378" d="M327 206h-277q-10 0 -8 10l18 100q2 10 11 10h278q10 0 8 -10l-18 -100q-2 -10 -12 -10z" glyph-name="uni00AD"/>
<glyph unicode="®" horiz-adv-x="443" d="M284 509q29 0 29 24q0 23 -29 23h-33q-4 0 -4 -4v-38q0 -5 4 -5h33zM240 388h-40q-7 0 -7 7v198q0 7 7 7h88q38 0 58.5 -17.5t20.5 -49.5q0 -44 -39 -60l40 -78q4 -7 -5 -7h-43q-7 0 -10 7l-34 70h-25q-4 0 -4 -4v-66q0 -7 -7 -7zM274 340q65 0 107.5 43t42.5 110 q0 66 -42.5 109t-107.5 43q-64 0 -107 -43t-43 -109t43 -109.5t107 -43.5zM274 301q-81 0 -136.5 55t-55.5 137q0 81 55.5 136t136.5 55q82 0 137.5 -55t55.5 -136q0 -82 -55.5 -137t-137.5 -55z" glyph-name="registered"/>
<glyph unicode="¯" horiz-adv-x="441" d="M422 579h-272q-10 0 -8 10l12 71q2 10 11 10h273q10 0 8 -10l-13 -71q-2 -10 -11 -10z" glyph-name="macron"/>
<glyph unicode="°" horiz-adv-x="437" d="M269 465q31 0 51.5 21.5t20.5 53.5q0 33 -20 53.5t-52 20.5t-52 -20.5t-20 -53.5q0 -32 20.5 -53.5t51.5 -21.5zM269 388q-66 0 -109 43.5t-43 108.5t43 108.5t109 43.5q65 0 108.5 -43.5t43.5 -108.5t-43.5 -108.5t-108.5 -43.5z" glyph-name="degree"/>
<glyph unicode="±" d="M499 0h-425q-10 0 -10 10v94q0 10 10 10h425q10 0 10 -10v-94q0 -10 -10 -10zM335 166h-97q-10 0 -10 10v150q0 6 -6 6h-148q-10 0 -10 10v94q0 10 10 10h148q6 0 6 6v151q0 10 10 10h97q10 0 10 -10v-151q0 -6 6 -6h148q10 0 10 -10v-94q0 -10 -10 -10h-148q-6 0 -6 -6 v-150q0 -10 -10 -10z" glyph-name="plusminus"/>
<glyph unicode="²" horiz-adv-x="343" d="M335 430h-251q-10 0 -8 10l12 63q2 10 9 16l166 150q35 31 35 62q0 30 -31 30q-33 0 -49 -41q-3 -10 -11 -8l-72 12q-8 2 -6 11q13 46 54 77.5t103 31.5q52 0 82.5 -27.5t30.5 -71.5q0 -66 -68 -126l-112 -103v-1h131q10 0 8 -10l-11 -65q-2 -10 -12 -10z" glyph-name="twosuperior"/>
<glyph unicode="³" horiz-adv-x="343" d="M211 422q-54 0 -86.5 25.5t-36.5 71.5q-2 10 8 12l74 14q8 1 11 -8q9 -32 40 -32q21 0 36.5 16t15.5 39q0 36 -42 36h-16q-10 0 -8 10l11 62q2 10 11 10h14q23 0 37 14t14 38q0 31 -32 31q-29 0 -45 -28q-4 -8 -13 -7l-68 14q-9 2 -6 11q16 41 55.5 67t95.5 26 q55 0 85.5 -26t30.5 -68q0 -69 -59 -104v-1q35 -20 35 -70q0 -69 -46 -111t-116 -42z" glyph-name="threesuperior"/>
<glyph unicode="´" horiz-adv-x="441" d="M270 551h-86q-11 0 -4 10l95 130q7 10 19 10h111q5 0 6 -3.5t-3 -7.5l-118 -129q-10 -10 -20 -10z" glyph-name="acute"/>
<glyph unicode="µ" horiz-adv-x="534" d="M427 0h-114q-10 0 -8 10l7 39h-1q-42 -60 -94 -60q-39 0 -55 21h-1l-32 -180q-2 -10 -10 -10h-115q-11 0 -9 10l114 644q2 10 11 10h114q10 0 8 -10l-49 -279q-3 -15 -3 -29q0 -63 58 -63q34 0 58 25t32 67l49 279q2 10 10 10h115q11 0 9 -10l-83 -464q-2 -10 -11 -10z " glyph-name="mu"/>
<glyph unicode="μ" horiz-adv-x="534" d="M427 0h-114q-10 0 -8 10l7 39h-1q-42 -60 -94 -60q-39 0 -55 21h-1l-32 -180q-2 -10 -10 -10h-115q-11 0 -9 10l114 644q2 10 11 10h114q10 0 8 -10l-49 -279q-3 -15 -3 -29q0 -63 58 -63q34 0 58 25t32 67l49 279q2 10 10 10h115q11 0 9 -10l-83 -464q-2 -10 -11 -10z " glyph-name="mu"/>
<glyph unicode="¶" horiz-adv-x="630" d="M479 -180h-91q-10 0 -8 10l131 745q1 6 -5 6h-68q-6 0 -7 -6l-131 -745q-2 -10 -11 -10h-91q-9 0 -7 10l71 410q-76 4 -119.5 51.5t-43.5 121.5q0 9 2 31q12 101 85.5 168.5t181.5 67.5h262q10 0 8 -10l-148 -840q-2 -10 -11 -10z" glyph-name="paragraph"/>
<glyph unicode="·" horiz-adv-x="244" d="M179 197h-114q-11 0 -9 10l20 115q2 10 11 10h114q11 0 9 -10l-20 -115q-2 -10 -11 -10z" glyph-name="periodcentered"/>
<glyph unicode="¸" horiz-adv-x="441" d="M175 -159h-91q-10 0 -5 10l85 149q6 10 15 10h79q11 0 6 -10l-71 -149q-5 -10 -18 -10z" glyph-name="cedilla"/>
<glyph unicode="¹" horiz-adv-x="343" d="M270 430h-82q-10 0 -8 10l51 287h-2l-69 -40q-4 -3 -7.5 -1t-2.5 7l15 80q1 10 12 15l66 41q11 7 19 7h79q10 0 8 -10l-68 -386q-2 -10 -11 -10z" glyph-name="onesuperior"/>
<glyph unicode="º" horiz-adv-x="358" d="M224 465q31 0 48 31q14 30 14 67q0 44 -36 44q-31 0 -48 -31q-14 -30 -14 -67q0 -44 36 -44zM211 384q-58 0 -91 28t-33 82q0 58 24 111q42 83 152 83q58 0 91 -28t33 -82q0 -58 -24 -111q-42 -83 -152 -83z" glyph-name="ordmasculine"/>
<glyph unicode="»" horiz-adv-x="545" d="M40 41q-4 -3 -7 -1.5t-2 5.5l20 117q3 12 13 21l95 83q5 4 2 8l-65 84q-9 9 -6 21l18 104q1 4 4.5 5.5t6.5 -1.5l172 -216q6 -8 -2 -14zM275 41q-4 -3 -7 -1.5t-2 5.5l20 117q2 11 14 21l94 83q5 4 2 8l-65 84q-9 9 -6 21l18 104q1 4 4.5 5.5t6.5 -1.5l173 -216 q6 -8 -2 -14z" glyph-name="guillemotright"/>
<glyph unicode="¼" horiz-adv-x="837" d="M691 0h-75q-9 0 -7 10l7 41q2 6 -5 6h-158q-10 0 -8 10l11 66q1 10 8 18l155 245q7 10 16 10h82q10 0 5 -10l-155 -253v-1h59q6 0 7 6l13 71q2 10 11 10h74q10 0 8 -10l-12 -71q-1 -6 4 -6h16q9 0 7 -10l-11 -65q-2 -10 -11 -10h-16q-4 0 -6 -6l-8 -41q-2 -10 -11 -10z M261 274h-82q-10 0 -8 10l51 287h-2l-69 -40q-4 -3 -7.5 -1t-2.5 7l15 80q1 10 12 15l66 41q11 7 19 7h79q10 0 8 -10l-68 -386q-2 -10 -11 -10zM223 -11h-79q-4 0 -5.5 3t1.5 7l501 682q6 10 17 10h80q9 0 3 -10l-500 -682q-7 -10 -18 -10z" glyph-name="onequarter"/>
<glyph unicode="½" horiz-adv-x="875" d="M751 0h-251q-10 0 -8 10l12 63q2 10 9 16l166 150q35 31 35 62q0 30 -31 30q-33 0 -49 -41q-3 -10 -11 -8l-72 12q-8 2 -6 11q13 46 54 77.5t103 31.5q52 0 82.5 -27.5t30.5 -71.5q0 -66 -68 -126l-112 -103v-1h131q10 0 8 -10l-11 -65q-2 -10 -12 -10zM261 274h-82 q-10 0 -8 10l51 287h-2l-69 -40q-4 -3 -7.5 -1t-2.5 7l15 80q1 10 12 15l66 41q11 7 19 7h79q10 0 8 -10l-68 -386q-2 -10 -11 -10zM223 -11h-79q-4 0 -5.5 3t1.5 7l501 682q6 10 17 10h80q9 0 3 -10l-500 -682q-7 -10 -18 -10z" glyph-name="onehalf"/>
<glyph unicode="¾" horiz-adv-x="894" d="M234 266q-54 0 -86.5 25.5t-36.5 71.5q-2 10 8 12l74 14q8 1 11 -8q9 -32 40 -32q21 0 36.5 16t15.5 39q0 36 -42 36h-16q-10 0 -8 10l11 62q2 10 11 10h14q23 0 37 14t14 38q0 31 -32 31q-29 0 -45 -28q-4 -8 -13 -7l-68 14q-9 2 -6 11q16 41 55.5 67t95.5 26 q55 0 85.5 -26t30.5 -68q0 -69 -59 -104v-1q35 -20 35 -70q0 -69 -46 -111t-116 -42zM748 0h-75q-9 0 -7 10l7 41q1 6 -5 6h-158q-10 0 -8 10l11 66q1 10 8 18l155 245q7 10 16 10h82q10 0 5 -10l-155 -253v-1h59q5 0 7 6l13 71q2 10 11 10h74q10 0 8 -10l-12 -71 q-2 -6 4 -6h16q9 0 7 -10l-11 -65q-2 -10 -11 -10h-16q-5 0 -6 -6l-8 -41q-2 -10 -11 -10zM279 -11h-79q-4 0 -5.5 3t1.5 7l501 682q6 10 17 10h80q9 0 3 -10l-500 -682q-7 -10 -18 -10z" glyph-name="threequarters"/>
<glyph unicode="¿" horiz-adv-x="462" d="M355 474l-19 -110q-2 -10 -11 -10h-113q-11 0 -9 10l19 110q2 10 11 10h114q10 0 8 -10zM311 287q10 0 8 -10l-8 -42q-9 -51 -43 -86l-81 -89q-31 -32 -43 -53.5t-12 -45.5q0 -25 13.5 -39.5t39.5 -14.5q59 0 88 73q4 10 13 9l101 -15q9 -2 6 -12q-24 -77 -85.5 -123 t-143.5 -46q-77 0 -122 41t-45 106q0 81 82 164l76 85q23 26 31 63l5 25q2 10 11 10h109z" glyph-name="questiondown"/>
<glyph unicode="À" horiz-adv-x="624" d="M443 755h-87q-10 0 -17 8l-96 115q-3 4 -1.5 7.5t6.5 3.5h108q13 0 20 -10l73 -114q2 -4 0.5 -7t-6.5 -3zM247 252h155l-31 248h-3zM-16 0q-10 0 -5 10l343 660q5 10 15 10h121q9 0 11 -10l105 -660q2 -10 -7 -10h-122q-11 0 -12 10l-16 122h-229l-59 -122 q-4 -10 -13 -10h-132z" glyph-name="Agrave"/>
<glyph unicode="Á" horiz-adv-x="624" d="M447 755h-87q-5 0 -6.5 3t1.5 7l109 114q10 10 21 10h115q5 0 6.5 -3t-2.5 -7l-137 -116q-9 -8 -20 -8zM247 252h155l-31 248h-3zM-16 0q-10 0 -5 10l343 660q5 10 15 10h121q9 0 11 -10l105 -660q2 -10 -7 -10h-122q-11 0 -12 10l-16 122h-229l-59 -122q-4 -10 -13 -10 h-132z" glyph-name="Aacute"/>
<glyph unicode="Â" horiz-adv-x="624" d="M552 748h-71q-11 0 -19 10l-41 57h-2l-61 -57q-10 -10 -23 -10h-80q-5 0 -6 3t3 7l122 131q8 9 20 9h72q11 0 16 -9l76 -131q2 -4 0 -7t-6 -3zM247 252h155l-31 248h-3zM-16 0q-10 0 -5 10l343 660q5 10 15 10h121q9 0 11 -10l105 -660q2 -10 -7 -10h-122q-11 0 -12 10 l-16 122h-229l-59 -122q-4 -10 -13 -10h-132z" glyph-name="Acircumflex"/>
<glyph unicode="Ã" horiz-adv-x="624" d="M465 750q-32 0 -69 22q-29 18 -52 18q-35 0 -75 -32q-3 -3 -6 -1.5t-2 5.5l12 69q2 12 12 20q37 34 79 34q32 0 70 -22q29 -18 52 -18q36 0 74 32q4 3 7 1.5t2 -5.5l-12 -69q-2 -10 -12 -20q-39 -34 -80 -34zM247 252h155l-31 248h-3zM-16 0q-10 0 -5 10l343 660 q5 10 15 10h121q9 0 11 -10l105 -660q2 -10 -7 -10h-122q-11 0 -12 10l-16 122h-229l-59 -122q-4 -10 -13 -10h-132z" glyph-name="Atilde"/>
<glyph unicode="Ä" horiz-adv-x="624" d="M357 762h-89q-11 0 -9 10l18 94q2 10 11 10h89q10 0 8 -10l-17 -94q-2 -10 -11 -10zM550 762h-89q-10 0 -8 10l18 94q2 10 11 10h88q10 0 8 -10l-17 -94q-2 -10 -11 -10zM247 252h155l-31 248h-3zM-16 0q-10 0 -5 10l343 660q5 10 15 10h121q9 0 11 -10l105 -660 q2 -10 -7 -10h-122q-11 0 -12 10l-16 122h-229l-59 -122q-4 -10 -13 -10h-132z" glyph-name="Adieresis"/>
<glyph unicode="Å" horiz-adv-x="624" d="M408 770q22 0 38 17t16 43q0 17 -10 27.5t-27 10.5q-23 0 -38.5 -17t-15.5 -43q0 -17 10 -27.5t27 -10.5zM399 714q-39 0 -63.5 23.5t-24.5 61.5q0 52 34.5 88.5t88.5 36.5q39 0 63 -23t24 -61q0 -52 -34 -89t-88 -37zM247 252h155l-31 248h-3zM-16 0q-10 0 -5 10 l343 660q5 10 15 10h121q9 0 11 -10l105 -660q2 -10 -7 -10h-122q-11 0 -12 10l-16 122h-229l-59 -122q-4 -10 -13 -10h-132z" glyph-name="Aring"/>
<glyph unicode="Æ" horiz-adv-x="898" d="M478 558l-191 -306h133q6 0 7 6l53 300h-2zM810 0h-418q-10 0 -8 10l20 116q2 6 -5 6h-186l-76 -122q-6 -10 -15 -10h-138q-12 0 -5 10l421 660q7 10 15 10h514q11 0 9 -10l-18 -102q-2 -10 -12 -10h-282q-6 0 -6 -6l-25 -143q-1 -6 4 -6h235q10 0 8 -10l-18 -100 q-2 -10 -12 -10h-235q-5 0 -6 -6l-27 -149q0 -6 5 -6h282q10 0 8 -10l-18 -102q-2 -10 -11 -10z" glyph-name="AE"/>
<glyph unicode="Ç" horiz-adv-x="550" d="M212 -159h-91q-10 0 -5 10l82 145q-69 15 -108.5 67t-39.5 134q0 53 21.5 169.5t46.5 167.5q78 157 258 157q80 0 131.5 -40t68.5 -111q1 -9 -7 -13l-106 -44q-9 -5 -13 6q-19 77 -90 77q-76 0 -114 -80q-16 -35 -35 -135.5t-19 -141.5q0 -44 23.5 -69.5t66.5 -25.5 q69 0 115 78q6 9 15 5l95 -51q8 -3 3 -13q-80 -130 -214 -142l-66 -140q-5 -10 -18 -10z" glyph-name="Ccedilla"/>
<glyph unicode="È" horiz-adv-x="542" d="M28 10l117 660q2 10 11 10h418q10 0 8 -10l-18 -102q-2 -10 -11 -10h-282q-5 0 -7 -6l-25 -143q-1 -6 5 -6h234q10 0 8 -10l-18 -100q-2 -10 -12 -10h-234q-6 0 -7 -6l-26 -149q-1 -6 5 -6h282q10 0 8 -10l-19 -102q-2 -10 -11 -10h-417q-11 0 -9 10zM422 755h-87 q-10 0 -17 8l-96 115q-3 4 -1.5 7.5t6.5 3.5h108q13 0 20 -10l73 -114q2 -4 0 -7t-6 -3z" glyph-name="Egrave"/>
<glyph unicode="É" horiz-adv-x="542" d="M28 10l117 660q2 10 11 10h418q10 0 8 -10l-18 -102q-2 -10 -11 -10h-282q-5 0 -7 -6l-25 -143q-1 -6 5 -6h234q10 0 8 -10l-18 -100q-2 -10 -12 -10h-234q-6 0 -7 -6l-26 -149q-1 -6 5 -6h282q10 0 8 -10l-19 -102q-2 -10 -11 -10h-417q-11 0 -9 10zM396 755h-87 q-5 0 -6.5 3t1.5 7l109 114q10 10 21 10h115q5 0 6.5 -3t-2.5 -7l-137 -116q-9 -8 -20 -8z" glyph-name="Eacute"/>
<glyph unicode="Ê" horiz-adv-x="542" d="M527 748h-71q-12 0 -19 10l-41 57h-2l-61 -57q-10 -10 -23 -10h-80q-5 0 -6 3t3 7l122 131q8 9 20 9h72q11 0 16 -9l76 -131q2 -4 0.5 -7t-6.5 -3zM28 10l117 660q2 10 11 10h418q10 0 8 -10l-18 -102q-2 -10 -11 -10h-282q-5 0 -7 -6l-25 -143q-1 -6 5 -6h234 q10 0 8 -10l-18 -100q-2 -10 -12 -10h-234q-6 0 -7 -6l-26 -149q-1 -6 5 -6h282q10 0 8 -10l-19 -102q-2 -10 -11 -10h-417q-11 0 -9 10z" glyph-name="Ecircumflex"/>
<glyph unicode="Ë" horiz-adv-x="542" d="M28 10l117 660q2 10 11 10h418q10 0 8 -10l-18 -102q-2 -10 -11 -10h-282q-5 0 -7 -6l-25 -143q-1 -6 5 -6h234q10 0 8 -10l-18 -100q-2 -10 -12 -10h-234q-6 0 -7 -6l-26 -149q-1 -6 5 -6h282q10 0 8 -10l-19 -102q-2 -10 -11 -10h-417q-11 0 -9 10zM332 762h-89 q-11 0 -9 10l18 94q2 10 11 10h89q10 0 8 -10l-17 -94q-2 -10 -11 -10zM525 762h-89q-10 0 -8 10l18 94q2 10 11 10h88q10 0 8 -10l-17 -94q-2 -10 -11 -10z" glyph-name="Edieresis"/>
<glyph unicode="Ì" horiz-adv-x="266" d="M267 755h-87q-10 0 -17 8l-96 115q-3 4 -1.5 7.5t6.5 3.5h108q13 0 20 -10l73 -114q2 -4 0.5 -7t-6.5 -3zM28 10l117 660q2 10 11 10h121q10 0 8 -10l-117 -660q-2 -10 -10 -10h-121q-11 0 -9 10z" glyph-name="Igrave"/>
<glyph unicode="Í" horiz-adv-x="266" d="M271 755h-87q-5 0 -6.5 3t1.5 7l109 114q10 10 21 10h115q5 0 6.5 -3t-2.5 -7l-137 -116q-9 -8 -20 -8zM28 10l117 660q2 10 11 10h121q10 0 8 -10l-117 -660q-2 -10 -10 -10h-121q-11 0 -9 10z" glyph-name="Iacute"/>
<glyph unicode="Î" horiz-adv-x="266" d="M380 748h-71q-11 0 -19 10l-41 57h-2l-61 -57q-10 -10 -23 -10h-80q-5 0 -6 3t3 7l122 131q8 9 20 9h72q11 0 16 -9l76 -131q2 -4 0 -7t-6 -3zM28 10l117 660q2 10 11 10h121q10 0 8 -10l-117 -660q-2 -10 -10 -10h-121q-11 0 -9 10z" glyph-name="Icircumflex"/>
<glyph unicode="Ï" horiz-adv-x="266" d="M179 762h-89q-11 0 -9 10l18 94q2 10 11 10h89q10 0 8 -10l-17 -94q-2 -10 -11 -10zM372 762h-89q-10 0 -8 10l18 94q2 10 11 10h88q10 0 8 -10l-17 -94q-2 -10 -11 -10zM28 10l117 660q2 10 11 10h121q10 0 8 -10l-117 -660q-2 -10 -10 -10h-121q-11 0 -9 10z" glyph-name="Idieresis"/>
<glyph unicode="Ð" horiz-adv-x="605" d="M271 125q50 0 82 18t52 59q16 33 33 122t17 132q0 52 -27 75.5t-83 23.5h-75q-4 0 -6 -6l-26 -148q-2 -6 4 -6h82q10 0 8 -10l-15 -84q-2 -10 -11 -10h-82q-6 0 -7 -6l-27 -154q-2 -6 5 -6h76zM280 0h-243q-11 0 -9 10l49 275q1 6 -4 6h-26q-10 0 -8 10l15 84q2 10 12 10 h24q6 0 7 6l48 269q2 10 11 10h243q196 0 196 -193q0 -68 -20.5 -179.5t-47.5 -168.5q-38 -76 -97.5 -107.5t-149.5 -31.5z" glyph-name="Eth"/>
<glyph unicode="Ñ" horiz-adv-x="631" d="M28 10l117 660q2 10 11 10h114q12 0 15 -10l155 -437h4l78 437q2 10 11 10h108q11 0 9 -10l-117 -660q-2 -10 -11 -10h-115q-10 0 -14 10l-156 437h-5l-77 -437q-2 -10 -10 -10h-108q-11 0 -9 10zM467 750q-32 0 -69 22q-29 18 -52 18q-35 0 -75 -32q-3 -3 -6 -1.5 t-2 5.5l12 69q2 12 12 20q37 34 79 34q32 0 70 -22q29 -18 52 -18q36 0 74 32q4 3 7 1.5t2 -5.5l-12 -69q-2 -10 -12 -20q-39 -34 -80 -34z" glyph-name="Ntilde"/>
<glyph unicode="Ò" horiz-adv-x="602" d="M285 114q79 0 118 80q16 33 34.5 134t18.5 142q0 45 -24 70.5t-68 25.5q-79 0 -117 -80q-17 -33 -35.5 -134t-18.5 -142q0 -45 24.5 -70.5t67.5 -25.5zM266 -11q-99 0 -157 54t-58 154q0 53 22 170.5t46 167.5q77 156 264 156q99 0 157 -54t58 -154q0 -53 -22 -170.5 t-46 -167.5q-77 -156 -264 -156zM440 755h-87q-10 0 -17 8l-96 115q-3 4 -1.5 7.5t6.5 3.5h108q13 0 20 -10l73 -114q2 -4 0 -7t-6 -3z" glyph-name="Ograve"/>
<glyph unicode="Ó" horiz-adv-x="602" d="M285 114q79 0 118 80q16 33 34.5 134t18.5 142q0 45 -24 70.5t-68 25.5q-79 0 -117 -80q-17 -33 -35.5 -134t-18.5 -142q0 -45 24.5 -70.5t67.5 -25.5zM266 -11q-99 0 -157 54t-58 154q0 53 22 170.5t46 167.5q77 156 264 156q99 0 157 -54t58 -154q0 -53 -22 -170.5 t-46 -167.5q-77 -156 -264 -156zM433 755h-87q-5 0 -6.5 3t1.5 7l109 114q10 10 21 10h115q5 0 6.5 -3t-2.5 -7l-137 -116q-9 -8 -20 -8z" glyph-name="Oacute"/>
<glyph unicode="Ô" horiz-adv-x="602" d="M285 114q79 0 118 80q16 33 34.5 134t18.5 142q0 45 -24 70.5t-68 25.5q-79 0 -117 -80q-17 -33 -35.5 -134t-18.5 -142q0 -45 24.5 -70.5t67.5 -25.5zM266 -11q-99 0 -157 54t-58 154q0 53 22 170.5t46 167.5q77 156 264 156q99 0 157 -54t58 -154q0 -53 -22 -170.5 t-46 -167.5q-77 -156 -264 -156zM542 756h-71q-11 0 -19 10l-41 57h-1l-62 -57q-11 -10 -23 -10h-79q-4 0 -5.5 3t1.5 7l122 131q9 10 20 10h72q10 0 16 -10l76 -131q2 -4 0 -7t-6 -3z" glyph-name="Ocircumflex"/>
<glyph unicode="Õ" horiz-adv-x="602" d="M285 114q79 0 118 80q16 33 34.5 134t18.5 142q0 45 -24 70.5t-68 25.5q-79 0 -117 -80q-17 -33 -35.5 -134t-18.5 -142q0 -45 24.5 -70.5t67.5 -25.5zM266 -11q-99 0 -157 54t-58 154q0 53 22 170.5t46 167.5q77 156 264 156q99 0 157 -54t58 -154q0 -53 -22 -170.5 t-46 -167.5q-77 -156 -264 -156zM449 750q-32 0 -69 22q-29 18 -52 18q-35 0 -75 -32q-3 -3 -6 -1.5t-2 5.5l12 69q2 12 12 20q37 34 79 34q32 0 70 -22q29 -18 52 -18q36 0 74 32q4 3 7 1.5t2 -5.5l-12 -69q-2 -10 -12 -20q-39 -34 -80 -34z" glyph-name="Otilde"/>
<glyph unicode="Ö" horiz-adv-x="602" d="M285 114q79 0 118 80q16 33 34.5 134t18.5 142q0 45 -24 70.5t-68 25.5q-79 0 -117 -80q-17 -33 -35.5 -134t-18.5 -142q0 -45 24.5 -70.5t67.5 -25.5zM266 -11q-99 0 -157 54t-58 154q0 53 22 170.5t46 167.5q77 156 264 156q99 0 157 -54t58 -154q0 -53 -22 -170.5 t-46 -167.5q-77 -156 -264 -156zM340 762h-89q-11 0 -9 10l18 94q2 10 11 10h89q10 0 8 -10l-17 -94q-2 -10 -11 -10zM533 762h-89q-10 0 -8 10l18 94q2 10 11 10h88q10 0 8 -10l-17 -94q-2 -10 -11 -10z" glyph-name="Odieresis"/>
<glyph unicode="×" d="M472 140l-64 -64q-7 -7 -14 0l-118 118q-4 4 -8 0l-118 -118q-7 -7 -14 0l-64 64q-7 7 0 14l117 118q4 4 0 8l-117 118q-7 7 0 14l64 64q7 7 14 0l118 -118q4 -3 9 0l117 118q7 7 14 0l64 -64q7 -7 0 -14l-118 -117q-4 -5 0 -9l118 -118q7 -7 0 -14z" glyph-name="multiply"/>
<glyph unicode="Ø" horiz-adv-x="602" d="M285 113q81 0 120 80q15 31 32 120t20 141l-239 -317q26 -24 67 -24zM245 487q-16 -32 -34 -127.5t-20 -143.5l243 323q-25 28 -70 28q-81 0 -119 -80zM75 -30h-66q-11 0 -3 10l75 97q-30 47 -30 120q0 53 22 170.5t46 167.5q77 156 264 156q85 0 140 -40l39 50q5 9 16 9 h67q9 0 3 -10l-78 -101q28 -48 28 -116q0 -53 -22 -170.5t-46 -167.5q-77 -156 -264 -156q-84 0 -137 37l-37 -47q-7 -9 -17 -9z" glyph-name="Oslash"/>
<glyph unicode="Ù" horiz-adv-x="619" d="M286 -11q-104 0 -164 53t-60 150q0 28 6 61l74 417q2 10 10 10h121q11 0 9 -10l-75 -425q-3 -18 -3 -35q0 -47 25 -71.5t69 -24.5q52 0 83.5 29.5t44.5 101.5l76 425q2 10 11 10h120q11 0 9 -10l-76 -427q-24 -137 -93 -195.5t-187 -58.5zM442 755h-87q-10 0 -17 8 l-96 115q-3 4 -1.5 7.5t6.5 3.5h108q13 0 20 -10l73 -114q2 -4 0 -7t-6 -3z" glyph-name="Ugrave"/>
<glyph unicode="Ú" horiz-adv-x="619" d="M286 -11q-104 0 -164 53t-60 150q0 28 6 61l74 417q2 10 10 10h121q11 0 9 -10l-75 -425q-3 -18 -3 -35q0 -47 25 -71.5t69 -24.5q52 0 83.5 29.5t44.5 101.5l76 425q2 10 11 10h120q11 0 9 -10l-76 -427q-24 -137 -93 -195.5t-187 -58.5zM440 755h-87q-5 0 -6.5 3t1.5 7 l109 114q10 10 21 10h115q5 0 6.5 -3t-2.5 -7l-137 -116q-9 -8 -20 -8z" glyph-name="Uacute"/>
<glyph unicode="Û" horiz-adv-x="619" d="M558 748h-71q-11 0 -19 10l-41 57h-2l-61 -57q-10 -10 -23 -10h-80q-5 0 -6 3t3 7l122 131q8 9 20 9h72q11 0 16 -9l76 -131q2 -4 0 -7t-6 -3zM286 -11q-104 0 -164 53t-60 150q0 28 6 61l74 417q2 10 10 10h121q11 0 9 -10l-75 -425q-3 -18 -3 -35q0 -47 25 -71.5 t69 -24.5q52 0 83.5 29.5t44.5 101.5l76 425q2 10 11 10h120q11 0 9 -10l-76 -427q-24 -137 -93 -195.5t-187 -58.5z" glyph-name="Ucircumflex"/>
<glyph unicode="Ü" horiz-adv-x="619" d="M286 -11q-104 0 -164 53t-60 150q0 28 6 61l74 417q2 10 10 10h121q11 0 9 -10l-75 -425q-3 -18 -3 -35q0 -47 25 -71.5t69 -24.5q52 0 83.5 29.5t44.5 101.5l76 425q2 10 11 10h120q11 0 9 -10l-76 -427q-24 -137 -93 -195.5t-187 -58.5zM359 762h-89q-11 0 -9 10l18 94 q2 10 11 10h89q10 0 8 -10l-17 -94q-2 -10 -11 -10zM552 762h-89q-10 0 -8 10l18 94q2 10 11 10h88q10 0 8 -10l-17 -94q-2 -10 -11 -10z" glyph-name="Udieresis"/>
<glyph unicode="Ý" horiz-adv-x="545" d="M401 755h-87q-5 0 -6.5 3t1.5 7l109 114q10 10 21 10h115q5 0 6.5 -3t-2.5 -7l-137 -116q-9 -8 -20 -8zM296 0h-120q-11 0 -9 10l47 261l-125 399q-2 4 1 7t8 3h117q11 0 14 -10l75 -255h3l165 255q6 10 15 10h125q13 0 7 -10l-265 -399l-47 -261q-2 -10 -11 -10z" glyph-name="Yacute"/>
<glyph unicode="Þ" horiz-adv-x="580" d="M327 257q50 0 82.5 32t32.5 85q0 34 -21.5 53.5t-60.5 19.5h-108q-6 0 -7 -6l-31 -178q-2 -6 4 -6h109zM158 0h-121q-10 0 -8 10l117 660q2 10 11 10h121q10 0 8 -10l-18 -95q-2 -6 5 -6h117q93 0 143.5 -46t50.5 -126q0 -124 -74.5 -193t-195.5 -69h-117q-5 0 -7 -6 l-21 -119q-2 -10 -11 -10z" glyph-name="Thorn"/>
<glyph unicode="ß" horiz-adv-x="557" d="M272 -4h-34q-10 0 -8 10l16 89q2 10 12 10h24q50 0 71 42q8 15 18 73.5t10 79.5q0 54 -65 54h-14q-10 0 -8 10l17 89q2 10 11 10h22q33 0 52 19t19 52q0 46 -68 46q-46 0 -70.5 -21.5t-32.5 -69.5l-85 -479q-2 -10 -11 -10h-113q-11 0 -9 10l84 476q36 205 254 205 q91 0 138.5 -35t47.5 -97q0 -101 -78 -146v-2q43 -27 43 -89q0 -49 -13 -119.5t-33 -109.5q-26 -52 -73.5 -74.5t-123.5 -22.5z" glyph-name="germandbls"/>
<glyph unicode="à" horiz-adv-x="509" d="M357 551h-81q-10 0 -17 10l-72 130q-2 4 0 7t7 3h104q12 0 15 -10l52 -130q3 -10 -8 -10zM215 89q90 0 101 70l6 37q2 6 -5 6h-68q-94 0 -94 -68q0 -45 60 -45zM404 0h-106q-10 0 -8 10l5 33h-1q-47 -54 -138 -54q-56 0 -93.5 33.5t-37.5 89.5q0 87 58 133t165 46h84 q6 0 8 6l4 22q2 14 2 19q0 25 -19.5 37t-67.5 12q-63 0 -110 -32q-9 -6 -12 3l-30 75q-3 9 5 14q73 48 182 48q94 0 138 -29t44 -95q0 -20 -5 -50l-56 -311q-2 -10 -11 -10z" glyph-name="agrave"/>
<glyph unicode="á" horiz-adv-x="509" d="M352 551h-86q-11 0 -4 10l95 130q7 10 19 10h111q5 0 6 -3.5t-3 -7.5l-118 -129q-10 -10 -20 -10zM215 89q90 0 101 70l6 37q2 6 -5 6h-68q-94 0 -94 -68q0 -45 60 -45zM404 0h-106q-10 0 -8 10l5 33h-1q-47 -54 -138 -54q-56 0 -93.5 33.5t-37.5 89.5q0 87 58 133 t165 46h84q6 0 8 6l4 22q2 14 2 19q0 25 -19.5 37t-67.5 12q-63 0 -110 -32q-9 -6 -12 3l-30 75q-3 9 5 14q73 48 182 48q94 0 138 -29t44 -95q0 -20 -5 -50l-56 -311q-2 -10 -11 -10z" glyph-name="aacute"/>
<glyph unicode="â" horiz-adv-x="509" d="M463 550h-71q-12 0 -19 10l-41 57h-1l-62 -57q-11 -10 -23 -10h-79q-5 0 -6 3t2 7l122 131q9 10 20 10h72q10 0 16 -10l76 -131q2 -4 0.5 -7t-6.5 -3zM215 89q90 0 101 70l6 37q2 6 -5 6h-68q-94 0 -94 -68q0 -45 60 -45zM404 0h-106q-10 0 -8 10l5 33h-1 q-47 -54 -138 -54q-56 0 -93.5 33.5t-37.5 89.5q0 87 58 133t165 46h84q6 0 8 6l4 22q2 14 2 19q0 25 -19.5 37t-67.5 12q-63 0 -110 -32q-9 -6 -12 3l-30 75q-3 9 5 14q73 48 182 48q94 0 138 -29t44 -95q0 -20 -5 -50l-56 -311q-2 -10 -11 -10z" glyph-name="acircumflex"/>
<glyph unicode="ã" horiz-adv-x="509" d="M374 556q-34 0 -69 21q-27 18 -52 18q-34 0 -75 -31q-3 -3 -6 -1.5t-2 4.5l12 69q2 11 12 21q38 33 79 33q34 0 70 -22q29 -18 52 -18q36 0 74 32q4 3 7 1.5t2 -5.5l-12 -69q-2 -10 -12 -20q-38 -33 -80 -33zM215 89q90 0 101 70l6 37q2 6 -5 6h-68q-94 0 -94 -68 q0 -45 60 -45zM404 0h-106q-10 0 -8 10l5 33h-1q-47 -54 -138 -54q-56 0 -93.5 33.5t-37.5 89.5q0 87 58 133t165 46h84q6 0 8 6l4 22q2 14 2 19q0 25 -19.5 37t-67.5 12q-63 0 -110 -32q-9 -6 -12 3l-30 75q-3 9 5 14q73 48 182 48q94 0 138 -29t44 -95q0 -20 -5 -50 l-56 -311q-2 -10 -11 -10z" glyph-name="atilde"/>
<glyph unicode="ä" horiz-adv-x="509" d="M263 566h-89q-10 0 -8 10l18 95q2 10 11 10h88q10 0 8 -10l-17 -95q-2 -10 -11 -10zM456 566h-89q-10 0 -8 10l18 95q2 10 11 10h89q10 0 8 -10l-18 -95q-2 -10 -11 -10zM215 89q90 0 101 70l6 37q2 6 -5 6h-68q-94 0 -94 -68q0 -45 60 -45zM404 0h-106q-10 0 -8 10l5 33 h-1q-47 -54 -138 -54q-56 0 -93.5 33.5t-37.5 89.5q0 87 58 133t165 46h84q6 0 8 6l4 22q2 14 2 19q0 25 -19.5 37t-67.5 12q-63 0 -110 -32q-9 -6 -12 3l-30 75q-3 9 5 14q73 48 182 48q94 0 138 -29t44 -95q0 -20 -5 -50l-56 -311q-2 -10 -11 -10z" glyph-name="adieresis"/>
<glyph unicode="å" horiz-adv-x="509" d="M319 581q23 0 38.5 17t15.5 43q0 17 -10 28t-27 11q-22 0 -38 -17t-16 -43q0 -17 10 -28t27 -11zM310 525q-39 0 -63.5 23.5t-24.5 61.5q0 52 35 89t88 37q39 0 63.5 -23.5t24.5 -61.5q0 -52 -34.5 -89t-88.5 -37zM215 89q90 0 101 70l6 37q2 6 -5 6h-68q-94 0 -94 -68 q0 -45 60 -45zM404 0h-106q-10 0 -8 10l5 33h-1q-47 -54 -138 -54q-56 0 -93.5 33.5t-37.5 89.5q0 87 58 133t165 46h84q6 0 8 6l4 22q2 14 2 19q0 25 -19.5 37t-67.5 12q-63 0 -110 -32q-9 -6 -12 3l-30 75q-3 9 5 14q73 48 182 48q94 0 138 -29t44 -95q0 -20 -5 -50 l-56 -311q-2 -10 -11 -10z" glyph-name="aring"/>
<glyph unicode="æ" horiz-adv-x="786" d="M215 89q90 0 101 70l6 37q2 6 -5 6h-68q-94 0 -94 -68q0 -45 60 -45zM470 291h156q6 0 7 6q3 15 3 27q0 68 -70 68q-62 0 -88 -54q-8 -15 -12 -40q-1 -7 4 -7zM505 -11q-109 0 -150 73h-1q-58 -73 -180 -73q-71 0 -110 33t-39 93q0 85 58.5 130.5t164.5 45.5h84q6 0 8 6 l4 22q2 14 2 19q0 25 -19.5 37t-67.5 12q-63 0 -110 -32q-9 -6 -12 3l-30 75q-3 9 5 14q73 48 182 48q107 0 148 -49h2q56 49 139 49q79 0 129 -44.5t50 -125.5q0 -41 -13 -113q-2 -10 -12 -10h-283q-6 0 -7 -6q-1 -5 -1 -15q0 -84 87 -84q58 0 116 47q8 7 15 0l49 -59 q7 -8 -1 -16q-87 -80 -207 -80z" glyph-name="ae"/>
<glyph unicode="ç" horiz-adv-x="460" d="M167 -159h-91q-10 0 -5 10l83 146q-56 14 -87.5 56.5t-31.5 107.5q0 43 11 101.5t32 102.5q64 130 221 130q120 0 158 -97q3 -9 -4 -13l-87 -49q-10 -7 -16 3q-23 43 -64 43q-56 0 -83 -55q-13 -27 -22.5 -75t-9.5 -75q0 -75 64 -75q43 0 84 45q7 8 13 3l76 -55 q8 -5 1 -14q-57 -78 -158 -90l-66 -140q-5 -10 -18 -10z" glyph-name="ccedilla"/>
<glyph unicode="è" horiz-adv-x="503" d="M340 551h-81q-10 0 -17 10l-72 130q-2 4 0 7t7 3h104q12 0 15 -10l52 -130q3 -10 -8 -10zM187 291h156q5 0 7 6q3 15 3 27q0 68 -70 68q-62 0 -88 -54q-8 -15 -12 -40q-1 -7 4 -7zM222 -11q-89 0 -138 45.5t-49 131.5q0 116 40 196q65 133 225 133q79 0 129 -44.5 t50 -125.5q0 -41 -13 -113q-2 -10 -12 -10h-283q-5 0 -7 -6q-1 -5 -1 -15q0 -84 87 -84q58 0 116 47q8 7 15 0l49 -59q7 -8 -1 -16q-87 -80 -207 -80z" glyph-name="egrave"/>
<glyph unicode="é" horiz-adv-x="503" d="M187 291h156q5 0 7 6q3 15 3 27q0 68 -70 68q-62 0 -88 -54q-8 -15 -12 -40q-1 -7 4 -7zM222 -11q-89 0 -138 45.5t-49 131.5q0 116 40 196q65 133 225 133q79 0 129 -44.5t50 -125.5q0 -41 -13 -113q-2 -10 -12 -10h-283q-5 0 -7 -6q-1 -5 -1 -15q0 -84 87 -84 q58 0 116 47q8 7 15 0l49 -59q7 -8 -1 -16q-87 -80 -207 -80zM330 551h-86q-11 0 -4 10l95 130q7 10 19 10h111q5 0 6 -3.5t-3 -7.5l-118 -129q-10 -10 -20 -10z" glyph-name="eacute"/>
<glyph unicode="ê" horiz-adv-x="503" d="M187 291h156q5 0 7 6q3 15 3 27q0 68 -70 68q-62 0 -88 -54q-8 -15 -12 -40q-1 -7 4 -7zM222 -11q-89 0 -138 45.5t-49 131.5q0 116 40 196q65 133 225 133q79 0 129 -44.5t50 -125.5q0 -41 -13 -113q-2 -10 -12 -10h-283q-5 0 -7 -6q-1 -5 -1 -15q0 -84 87 -84 q58 0 116 47q8 7 15 0l49 -59q7 -8 -1 -16q-87 -80 -207 -80zM446 550h-71q-11 0 -19 10l-41 57h-1l-62 -57q-11 -10 -23 -10h-79q-4 0 -5.5 3t1.5 7l122 131q9 10 20 10h72q10 0 16 -10l76 -131q2 -4 0 -7t-6 -3z" glyph-name="ecircumflex"/>
<glyph unicode="ë" horiz-adv-x="503" d="M187 291h156q5 0 7 6q3 15 3 27q0 68 -70 68q-62 0 -88 -54q-8 -15 -12 -40q-1 -7 4 -7zM222 -11q-89 0 -138 45.5t-49 131.5q0 116 40 196q65 133 225 133q79 0 129 -44.5t50 -125.5q0 -41 -13 -113q-2 -10 -12 -10h-283q-5 0 -7 -6q-1 -5 -1 -15q0 -84 87 -84 q58 0 116 47q8 7 15 0l49 -59q7 -8 -1 -16q-87 -80 -207 -80zM254 566h-89q-10 0 -8 10l18 95q2 10 11 10h88q10 0 8 -10l-17 -95q-2 -10 -11 -10zM447 566h-89q-10 0 -8 10l18 95q2 10 11 10h89q10 0 8 -10l-18 -95q-2 -10 -11 -10z" glyph-name="edieresis"/>
<glyph unicode="ì" horiz-adv-x="255" d="M223 551h-81q-10 0 -17 10l-72 130q-2 4 0 7t7 3h104q12 0 15 -10l52 -130q3 -10 -8 -10zM150 0h-115q-11 0 -9 10l82 464q2 10 11 10h115q10 0 8 -10l-82 -464q-2 -10 -10 -10z" glyph-name="igrave"/>
<glyph unicode="í" horiz-adv-x="255" d="M150 0h-115q-11 0 -9 10l82 464q2 10 11 10h115q10 0 8 -10l-82 -464q-2 -10 -10 -10zM228 551h-86q-11 0 -4 10l95 130q7 10 19 10h111q5 0 6 -3.5t-3 -7.5l-118 -129q-10 -10 -20 -10z" glyph-name="iacute"/>
<glyph unicode="î" horiz-adv-x="255" d="M150 0h-115q-11 0 -9 10l82 464q2 10 11 10h115q10 0 8 -10l-82 -464q-2 -10 -10 -10zM337 550h-71q-12 0 -19 10l-41 57h-1l-62 -57q-11 -10 -23 -10h-79q-5 0 -6 3t2 7l122 131q9 10 20 10h72q10 0 16 -10l76 -131q2 -4 0.5 -7t-6.5 -3z" glyph-name="icircumflex"/>
<glyph unicode="ï" horiz-adv-x="255" d="M150 0h-115q-11 0 -9 10l82 464q2 10 11 10h115q10 0 8 -10l-82 -464q-2 -10 -10 -10zM139 566h-89q-10 0 -8 10l18 95q2 10 11 10h88q10 0 8 -10l-17 -95q-2 -10 -11 -10zM332 566h-89q-10 0 -8 10l18 95q2 10 11 10h89q10 0 8 -10l-18 -95q-2 -10 -11 -10z" glyph-name="idieresis"/>
<glyph unicode="ð" horiz-adv-x="510" d="M238 102q56 0 83 55q26 52 26 113q0 74 -65 74q-57 0 -83 -55q-26 -50 -26 -113q0 -74 65 -74zM458 575l-60 -18l13 -24q71 -136 71 -245q0 -95 -38 -171q-63 -128 -224 -128q-86 0 -133 48t-47 132q0 92 32 160q28 59 75.5 91t107.5 32q45 0 65 -17h2l-45 87l-97 -28 q-9 -4 -11 6l-8 64q-2 10 9 13l68 20l-38 73q-4 10 6 10h116q11 0 17 -10l20 -38l89 26q9 3 11 -6l8 -62q2 -12 -9 -15z" glyph-name="eth"/>
<glyph unicode="ñ" horiz-adv-x="533" d="M375 556q-34 0 -69 21q-27 18 -52 18q-34 0 -75 -31q-3 -3 -6 -1.5t-2 4.5l12 69q2 11 12 21q38 33 79 33q34 0 70 -22q29 -18 52 -18q36 0 74 32q4 3 7 1.5t2 -5.5l-12 -69q-2 -10 -12 -20q-37 -33 -80 -33zM429 0h-114q-10 0 -8 10l49 278q2 10 2 27q0 66 -58 66 q-35 0 -59 -24.5t-32 -66.5l-49 -280q-2 -10 -10 -10h-115q-11 0 -9 10l82 464q2 10 11 10h115q10 0 8 -10l-7 -36h1q50 57 132 57q65 0 98 -36.5t33 -98.5q0 -24 -4 -45l-55 -305q-2 -10 -11 -10z" glyph-name="ntilde"/>
<glyph unicode="ò" horiz-adv-x="508" d="M342 551h-81q-10 0 -17 10l-72 130q-2 4 0 7t7 3h104q12 0 15 -10l52 -130q3 -10 -8 -10zM235 102q55 0 82 55q12 25 22 74.5t10 76.5q0 74 -65 74q-55 0 -82 -55q-12 -25 -22 -74.5t-10 -76.5q0 -74 65 -74zM217 -11q-84 0 -133 46t-49 128q0 46 12 105t31 98 q63 129 224 129q84 0 133 -46t49 -128q0 -46 -12 -105t-31 -98q-63 -129 -224 -129z" glyph-name="ograve"/>
<glyph unicode="ó" horiz-adv-x="508" d="M235 102q55 0 82 55q12 25 22 74.5t10 76.5q0 74 -65 74q-55 0 -82 -55q-12 -25 -22 -74.5t-10 -76.5q0 -74 65 -74zM217 -11q-84 0 -133 46t-49 128q0 46 12 105t31 98q63 129 224 129q84 0 133 -46t49 -128q0 -46 -12 -105t-31 -98q-63 -129 -224 -129zM344 551h-86 q-11 0 -4 10l95 130q7 10 19 10h111q5 0 6 -3.5t-3 -7.5l-118 -129q-10 -10 -20 -10z" glyph-name="oacute"/>
<glyph unicode="ô" horiz-adv-x="508" d="M235 102q55 0 82 55q12 25 22 74.5t10 76.5q0 74 -65 74q-55 0 -82 -55q-12 -25 -22 -74.5t-10 -76.5q0 -74 65 -74zM217 -11q-84 0 -133 46t-49 128q0 46 12 105t31 98q63 129 224 129q84 0 133 -46t49 -128q0 -46 -12 -105t-31 -98q-63 -129 -224 -129zM453 550h-71 q-12 0 -19 10l-41 57h-1l-62 -57q-11 -10 -23 -10h-79q-5 0 -6 3t2 7l122 131q9 10 20 10h72q10 0 16 -10l76 -131q2 -4 0.5 -7t-6.5 -3z" glyph-name="ocircumflex"/>
<glyph unicode="õ" horiz-adv-x="508" d="M369 556q-34 0 -69 21q-27 18 -52 18q-34 0 -75 -31q-3 -3 -6 -1.5t-2 4.5l12 69q2 11 12 21q38 33 79 33q34 0 70 -22q29 -18 52 -18q36 0 74 32q4 3 7 1.5t2 -5.5l-12 -69q-2 -10 -12 -20q-37 -33 -80 -33zM235 102q55 0 82 55q12 25 22 74.5t10 76.5q0 74 -65 74 q-55 0 -82 -55q-12 -25 -22 -74.5t-10 -76.5q0 -74 65 -74zM217 -11q-84 0 -133 46t-49 128q0 46 12 105t31 98q63 129 224 129q84 0 133 -46t49 -128q0 -46 -12 -105t-31 -98q-63 -129 -224 -129z" glyph-name="otilde"/>
<glyph unicode="ö" horiz-adv-x="508" d="M235 102q55 0 82 55q12 25 22 74.5t10 76.5q0 74 -65 74q-55 0 -82 -55q-12 -25 -22 -74.5t-10 -76.5q0 -74 65 -74zM217 -11q-84 0 -133 46t-49 128q0 46 12 105t31 98q63 129 224 129q84 0 133 -46t49 -128q0 -46 -12 -105t-31 -98q-63 -129 -224 -129zM255 566h-89 q-10 0 -8 10l18 95q2 10 11 10h88q10 0 8 -10l-17 -95q-2 -10 -11 -10zM448 566h-89q-10 0 -8 10l18 95q2 10 11 10h89q10 0 8 -10l-18 -95q-2 -10 -11 -10z" glyph-name="odieresis"/>
<glyph unicode="÷" d="M283 19q-31 0 -52.5 21.5t-21.5 51.5q0 31 21.5 52.5t52.5 21.5t52 -21.5t21 -52.5q0 -30 -21 -51.5t-52 -21.5zM496 219h-425q-10 0 -10 10v94q0 10 10 10h425q10 0 10 -10v-94q0 -10 -10 -10zM283 386q-31 0 -52.5 21.5t-21.5 52.5q0 30 21.5 51.5t52.5 21.5t52 -21.5 t21 -51.5q0 -31 -21 -52.5t-52 -21.5z" glyph-name="divide"/>
<glyph unicode="ø" horiz-adv-x="508" d="M235 100q56 0 84 56q12 25 22 75.5t10 77.5v2l-163 -196q16 -15 47 -15zM168 176v-6l164 197q-17 17 -47 17q-56 0 -85 -56q-12 -25 -22 -75.5t-10 -76.5zM47 -30h-44q-11 0 -3 10l66 75q-31 43 -31 108q0 46 12 105.5t31 97.5q65 130 225 130q70 0 115 -33l35 40 q9 10 19 10h44q11 0 3 -10l-65 -75q30 -44 30 -107q0 -46 -12 -105t-31 -98q-63 -129 -224 -129q-69 0 -115 31l-35 -40q-9 -10 -20 -10z" glyph-name="oslash"/>
<glyph unicode="ù" horiz-adv-x="529" d="M354 551h-81q-10 0 -17 10l-72 130q-2 4 0 7t7 3h104q12 0 15 -10l52 -130q3 -10 -8 -10zM114 484h114q11 0 9 -10l-49 -279q-3 -15 -3 -28q0 -64 58 -64q35 0 58.5 24.5t31.5 66.5l49 280q2 10 10 10h115q11 0 9 -10l-83 -464q-2 -10 -11 -10h-114q-10 0 -8 10l6 36h-1 q-52 -57 -130 -57q-64 0 -97 35t-33 97q0 20 5 48l54 305q2 10 10 10z" glyph-name="ugrave"/>
<glyph unicode="ú" horiz-adv-x="529" d="M114 484h114q11 0 9 -10l-49 -279q-3 -15 -3 -28q0 -64 58 -64q35 0 58.5 24.5t31.5 66.5l49 280q2 10 10 10h115q11 0 9 -10l-83 -464q-2 -10 -11 -10h-114q-10 0 -8 10l6 36h-1q-52 -57 -130 -57q-64 0 -97 35t-33 97q0 20 5 48l54 305q2 10 10 10zM354 551h-86 q-11 0 -4 10l95 130q7 10 19 10h111q5 0 6 -3.5t-3 -7.5l-118 -129q-10 -10 -20 -10z" glyph-name="uacute"/>
<glyph unicode="û" horiz-adv-x="529" d="M114 484h114q11 0 9 -10l-49 -279q-3 -15 -3 -28q0 -64 58 -64q35 0 58.5 24.5t31.5 66.5l49 280q2 10 10 10h115q11 0 9 -10l-83 -464q-2 -10 -11 -10h-114q-10 0 -8 10l6 36h-1q-52 -57 -130 -57q-64 0 -97 35t-33 97q0 20 5 48l54 305q2 10 10 10zM468 550h-71 q-11 0 -19 10l-41 57h-1l-62 -57q-11 -10 -23 -10h-79q-4 0 -5.5 3t1.5 7l122 131q9 10 20 10h72q10 0 16 -10l76 -131q2 -4 0 -7t-6 -3z" glyph-name="ucircumflex"/>
<glyph unicode="ü" horiz-adv-x="529" d="M114 484h114q11 0 9 -10l-49 -279q-3 -15 -3 -28q0 -64 58 -64q35 0 58.5 24.5t31.5 66.5l49 280q2 10 10 10h115q11 0 9 -10l-83 -464q-2 -10 -11 -10h-114q-10 0 -8 10l6 36h-1q-52 -57 -130 -57q-64 0 -97 35t-33 97q0 20 5 48l54 305q2 10 10 10zM268 566h-89 q-10 0 -8 10l18 95q2 10 11 10h88q10 0 8 -10l-17 -95q-2 -10 -11 -10zM461 566h-89q-10 0 -8 10l18 95q2 10 11 10h89q10 0 8 -10l-18 -95q-2 -10 -11 -10z" glyph-name="udieresis"/>
<glyph unicode="ý" horiz-adv-x="492" d="M325 551h-86q-11 0 -4 10l95 130q7 10 19 10h111q5 0 6 -3.5t-3 -7.5l-118 -129q-10 -10 -20 -10zM54 -180h-33q-11 0 -8 10l16 94q2 10 12 10h21q47 0 74 52l18 37l-94 451q-2 10 8 10h119q9 0 10 -10l44 -287h2l140 287q4 10 14 10h120q12 0 7 -10l-283 -516 q-42 -79 -83 -108.5t-104 -29.5z" glyph-name="yacute"/>
<glyph unicode="þ" horiz-adv-x="530" d="M258 102q55 0 82 55q12 23 21.5 72.5t9.5 78.5q0 74 -64 74q-55 0 -82 -55q-11 -22 -21 -72t-10 -79q0 -74 64 -74zM118 -180h-115q-10 0 -8 10l148 840q2 10 11 10h115q10 0 8 -10l-41 -233h1q46 58 132 58q68 0 103.5 -42t35.5 -117q0 -52 -14 -123t-36 -115 q-54 -109 -176 -109q-88 0 -114 59h-1l-38 -218q-2 -10 -11 -10z" glyph-name="thorn"/>
<glyph unicode="ÿ" horiz-adv-x="492" d="M253 566h-89q-10 0 -8 10l18 95q2 10 11 10h88q10 0 8 -10l-17 -95q-2 -10 -11 -10zM446 566h-89q-10 0 -8 10l18 95q2 10 11 10h89q10 0 8 -10l-18 -95q-2 -10 -11 -10zM54 -180h-33q-11 0 -8 10l16 94q2 10 12 10h21q47 0 74 52l18 37l-94 451q-2 10 8 10h119 q9 0 10 -10l44 -287h2l140 287q4 10 14 10h120q12 0 7 -10l-283 -516q-42 -79 -83 -108.5t-104 -29.5z" glyph-name="ydieresis"/>
<glyph unicode="Ā" horiz-adv-x="624" d="M548 773h-272q-10 0 -8 10l12 72q2 10 11 10h273q10 0 8 -10l-13 -72q-2 -10 -11 -10zM247 252h155l-31 248h-3zM-16 0q-10 0 -5 10l343 660q5 10 15 10h121q9 0 11 -10l105 -660q2 -10 -7 -10h-122q-11 0 -12 10l-16 122h-229l-59 -122q-4 -10 -13 -10h-132z" glyph-name="Amacron"/>
<glyph unicode="ā" horiz-adv-x="509" d="M452 579h-272q-10 0 -8 10l12 71q2 10 11 10h273q10 0 8 -10l-13 -71q-2 -10 -11 -10zM215 89q90 0 101 70l6 37q2 6 -5 6h-68q-94 0 -94 -68q0 -45 60 -45zM404 0h-106q-10 0 -8 10l5 33h-1q-47 -54 -138 -54q-56 0 -93.5 33.5t-37.5 89.5q0 87 58 133t165 46h84 q6 0 8 6l4 22q2 14 2 19q0 25 -19.5 37t-67.5 12q-63 0 -110 -32q-9 -6 -12 3l-30 75q-3 9 5 14q73 48 182 48q94 0 138 -29t44 -95q0 -20 -5 -50l-56 -311q-2 -10 -11 -10z" glyph-name="amacron"/>
<glyph unicode="Ă" horiz-adv-x="624" d="M407 746q-58 0 -91.5 30.5t-33.5 80.5q0 11 1 17q2 11 11 11h55q11 0 12 -10q6 -45 60 -45t78 45q6 10 15 10h54q11 0 8 -11q-12 -55 -59.5 -91.5t-109.5 -36.5zM247 252h155l-31 248h-3zM-16 0q-10 0 -5 10l343 660q5 10 15 10h121q9 0 11 -10l105 -660q2 -10 -7 -10 h-122q-11 0 -12 10l-16 122h-229l-59 -122q-4 -10 -13 -10h-132z" glyph-name="Abreve"/>
<glyph unicode="ă" horiz-adv-x="509" d="M308 548q-58 0 -91.5 30.5t-33.5 80.5q0 11 1 17q2 11 11 11h55q11 0 12 -10q6 -44 60 -44q55 0 78 44q6 10 15 10h54q11 0 8 -10q-12 -56 -59.5 -92.5t-109.5 -36.5zM215 89q90 0 101 70l6 37q2 6 -5 6h-68q-94 0 -94 -68q0 -45 60 -45zM404 0h-106q-10 0 -8 10l5 33h-1 q-47 -54 -138 -54q-56 0 -93.5 33.5t-37.5 89.5q0 87 58 133t165 46h84q6 0 8 6l4 22q2 14 2 19q0 25 -19.5 37t-67.5 12q-63 0 -110 -32q-9 -6 -12 3l-30 75q-3 9 5 14q73 48 182 48q94 0 138 -29t44 -95q0 -20 -5 -50l-56 -311q-2 -10 -11 -10z" glyph-name="abreve"/>
<glyph unicode="Ą" horiz-adv-x="624" d="M368 500l-121 -248h155l-31 248h-3zM449 -190q-38 0 -61.5 20t-23.5 55q0 64 81 115q-10 0 -12 10l-15 122h-230l-59 -122q-4 -10 -13 -10h-132q-10 0 -5 10l343 660q5 10 15 10h121q9 0 11 -10l105 -660q1 -6 -6 -10q-98 -47 -98 -82q0 -16 18 -16q10 0 24 8q10 5 13 -4 l19 -56q4 -9 -5 -13q-43 -27 -90 -27z" glyph-name="Aogonek"/>
<glyph unicode="ą" horiz-adv-x="509" d="M215 89q87 0 101 70l6 37q2 6 -5 6h-68q-94 0 -94 -68q0 -45 60 -45zM288 -190q-39 0 -62 20t-23 55q0 64 85 116l7 42h-1q-47 -54 -138 -54q-56 0 -93.5 33.5t-37.5 89.5q0 87 58 133t165 46h84q6 0 8 6l4 22q2 14 2 19q0 25 -19.5 37t-67.5 12q-63 0 -110 -32 q-9 -6 -12 3l-30 75q-3 9 5 14q73 48 182 48q94 0 138 -29t44 -95q0 -20 -5 -50l-56 -310q-1 -9 -8 -12q-98 -46 -98 -81q0 -16 17 -16q9 0 25 8q9 4 12 -4l20 -56q3 -8 -5 -13q-43 -27 -90 -27z" glyph-name="aogonek"/>
<glyph unicode="Ć" horiz-adv-x="550" d="M402 755h-87q-5 0 -6.5 3t1.5 7l109 114q10 10 21 10h115q5 0 6.5 -3t-2.5 -7l-137 -116q-9 -8 -20 -8zM50 197q0 53 21.5 169.5t46.5 167.5q78 157 258 157q80 0 131.5 -40t68.5 -111q1 -9 -7 -13l-106 -44q-9 -5 -13 6q-19 77 -90 77q-77 0 -114 -80 q-17 -34 -35.5 -135t-18.5 -142q0 -44 23.5 -69.5t66.5 -25.5q69 0 115 78q6 9 15 5l95 -51q8 -3 3 -13q-46 -75 -106.5 -109.5t-142.5 -34.5q-96 0 -153.5 54t-57.5 154z" glyph-name="Cacute"/>
<glyph unicode="ć" horiz-adv-x="460" d="M214 -11q-82 0 -130.5 46t-48.5 126q0 43 11 101.5t32 102.5q64 130 221 130q120 0 158 -97q3 -9 -4 -13l-87 -49q-10 -7 -16 3q-23 43 -64 43q-56 0 -83 -55q-13 -27 -22.5 -75t-9.5 -75q0 -75 64 -75q43 0 84 45q7 8 13 3l76 -55q8 -5 1 -14q-66 -92 -195 -92zM331 551 h-86q-11 0 -4 10l95 130q7 10 19 10h111q5 0 6 -3.5t-3 -7.5l-118 -129q-10 -10 -20 -10z" glyph-name="cacute"/>
<glyph unicode="Ĉ" horiz-adv-x="550" d="M534 748h-71q-11 0 -19 10l-41 57h-2l-61 -57q-10 -10 -23 -10h-80q-5 0 -6 3t3 7l122 131q8 9 20 9h72q11 0 16 -9l76 -131q2 -4 0 -7t-6 -3zM50 197q0 53 21.5 169.5t46.5 167.5q78 157 258 157q80 0 131.5 -40t68.5 -111q1 -9 -7 -13l-106 -44q-9 -5 -13 6 q-19 77 -90 77q-77 0 -114 -80q-17 -34 -35.5 -135t-18.5 -142q0 -44 23.5 -69.5t66.5 -25.5q69 0 115 78q6 9 15 5l95 -51q8 -3 3 -13q-46 -75 -106.5 -109.5t-142.5 -34.5q-96 0 -153.5 54t-57.5 154z" glyph-name="Ccircumflex"/>
<glyph unicode="ĉ" horiz-adv-x="460" d="M214 -11q-82 0 -130.5 46t-48.5 126q0 43 11 101.5t32 102.5q64 130 221 130q120 0 158 -97q3 -9 -4 -13l-87 -49q-10 -7 -16 3q-23 43 -64 43q-56 0 -83 -55q-13 -27 -22.5 -75t-9.5 -75q0 -75 64 -75q43 0 84 45q7 8 13 3l76 -55q8 -5 1 -14q-66 -92 -195 -92zM450 550 h-71q-11 0 -19 10l-41 57h-1l-62 -57q-11 -10 -23 -10h-79q-4 0 -5.5 3t1.5 7l122 131q9 10 20 10h72q10 0 16 -10l76 -131q2 -4 0 -7t-6 -3z" glyph-name="ccircumflex"/>
<glyph unicode="Ċ" horiz-adv-x="550" d="M50 197q0 53 21.5 169.5t46.5 167.5q78 157 258 157q80 0 131.5 -40t68.5 -111q1 -9 -7 -13l-106 -44q-9 -5 -13 6q-19 77 -90 77q-77 0 -114 -80q-17 -34 -35.5 -135t-18.5 -142q0 -44 23.5 -69.5t66.5 -25.5q69 0 115 78q6 9 15 5l95 -51q8 -3 3 -13 q-46 -75 -106.5 -109.5t-142.5 -34.5q-96 0 -153.5 54t-57.5 154zM432 762h-111q-10 0 -8 10l18 94q2 10 11 10h110q10 0 8 -10l-17 -94q-2 -10 -11 -10z" glyph-name="Cdotaccent"/>
<glyph unicode="ċ" horiz-adv-x="460" d="M354 565h-111q-10 0 -8 10l17 95q2 10 11 10h110q10 0 8 -10l-16 -95q-2 -10 -11 -10zM214 -11q-82 0 -130.5 46t-48.5 126q0 43 11 101.5t32 102.5q64 130 221 130q120 0 158 -97q3 -9 -4 -13l-87 -49q-10 -7 -16 3q-23 43 -64 43q-56 0 -83 -55q-13 -27 -22.5 -75 t-9.5 -75q0 -75 64 -75q43 0 84 45q7 8 13 3l76 -55q8 -5 1 -14q-66 -92 -195 -92z" glyph-name="cdotaccent"/>
<glyph unicode="Č" horiz-adv-x="550" d="M414 744h-72q-11 0 -16 9l-76 131q-2 4 0 7t6 3h71q11 0 19 -10l41 -57h1l62 57q10 10 23 10h80q5 0 6 -3t-3 -7l-122 -131q-8 -9 -20 -9zM50 197q0 53 21.5 169.5t46.5 167.5q78 157 258 157q80 0 131.5 -40t68.5 -111q1 -9 -7 -13l-106 -44q-9 -5 -13 6q-19 77 -90 77 q-77 0 -114 -80q-17 -34 -35.5 -135t-18.5 -142q0 -44 23.5 -69.5t66.5 -25.5q69 0 115 78q6 9 15 5l95 -51q8 -3 3 -13q-46 -75 -106.5 -109.5t-142.5 -34.5q-96 0 -153.5 54t-57.5 154z" glyph-name="Ccaron"/>
<glyph unicode="č" horiz-adv-x="460" d="M214 -11q-82 0 -130.5 46t-48.5 126q0 43 11 101.5t32 102.5q64 130 221 130q120 0 158 -97q3 -9 -4 -13l-87 -49q-10 -7 -16 3q-23 43 -64 43q-56 0 -83 -55q-13 -27 -22.5 -75t-9.5 -75q0 -75 64 -75q43 0 84 45q7 8 13 3l76 -55q8 -5 1 -14q-66 -92 -195 -92zM332 548 h-72q-10 0 -16 10l-76 131q-2 4 0 7t6 3h71q11 0 19 -10l41 -57h1l62 57q11 10 23 10h79q4 0 5.5 -3t-1.5 -7l-122 -131q-9 -10 -20 -10z" glyph-name="ccaron"/>
<glyph unicode="Ď" horiz-adv-x="605" d="M190 131q-2 -6 5 -6h76q50 0 82 18t52 59q16 33 33 122t17 132q0 52 -27 75.5t-83 23.5h-75q-4 0 -6 -6zM28 10l117 660q2 10 11 10h243q196 0 196 -193q0 -68 -20.5 -179.5t-47.5 -168.5q-38 -76 -97.5 -107.5t-149.5 -31.5h-243q-11 0 -9 10zM410 744h-72q-11 0 -16 9 l-76 131q-2 4 0 7t6 3h71q11 0 19 -10l41 -57h1l62 57q10 10 23 10h80q5 0 6 -3t-3 -7l-122 -131q-8 -9 -20 -9z" glyph-name="Dcaron"/>
<glyph unicode="ď" horiz-adv-x="531" d="M235 102q55 0 82 55q11 22 21 72t10 79q0 74 -64 74q-55 0 -82 -55q-12 -23 -21.5 -72.5t-9.5 -78.5q0 -74 64 -74zM423 0h-115q-10 0 -8 10l6 37h-1q-46 -58 -132 -58q-68 0 -103.5 42t-35.5 117q0 52 14 123t36 115q54 109 176 109q88 0 114 -59h1l41 234q2 10 11 10 h115q10 0 8 -10l-116 -660q-2 -10 -11 -10zM575 491q-10 0 -8 12l29 167q2 10 11 10h91q11 0 9 -10l-15 -82q-1 -10 -11 -20l-90 -69q-9 -8 -16 -8z" glyph-name="dcaron"/>
<glyph unicode="Đ" horiz-adv-x="605" d="M271 125q50 0 82 18t52 59q16 33 33 122t17 132q0 52 -27 75.5t-83 23.5h-75q-4 0 -6 -6l-26 -148q-2 -6 4 -6h82q10 0 8 -10l-15 -84q-2 -10 -11 -10h-82q-6 0 -7 -6l-27 -154q-2 -6 5 -6h76zM280 0h-243q-11 0 -9 10l49 275q1 6 -4 6h-26q-10 0 -8 10l15 84q2 10 12 10 h24q6 0 7 6l48 269q2 10 11 10h243q196 0 196 -193q0 -68 -20.5 -179.5t-47.5 -168.5q-38 -76 -97.5 -107.5t-149.5 -31.5z" glyph-name="Dcroat"/>
<glyph unicode="đ" horiz-adv-x="530" d="M235 102q55 0 82 55q11 22 21 72t10 79q0 74 -64 74q-55 0 -82 -55q-12 -23 -21.5 -72.5t-9.5 -78.5q0 -74 64 -74zM527 537l-93 -527q-2 -10 -11 -10h-115q-10 0 -8 10l6 37h-1q-46 -58 -132 -58q-68 0 -103.5 42t-35.5 117q0 52 14 123t36 115q54 109 176 109 q88 0 114 -59h1l18 101q1 6 -5 6h-100q-9 0 -7 10l13 73q2 10 11 10h99q6 0 7 6l5 28q2 10 11 10h115q10 0 8 -10l-5 -28q-1 -6 4 -6h16q11 0 9 -10l-14 -73q-1 -10 -12 -10h-14q-6 0 -7 -6z" glyph-name="dcroat"/>
<glyph unicode="Ē" horiz-adv-x="542" d="M28 10l117 660q2 10 11 10h418q10 0 8 -10l-18 -102q-2 -10 -11 -10h-282q-5 0 -7 -6l-25 -143q-1 -6 5 -6h234q10 0 8 -10l-18 -100q-2 -10 -12 -10h-234q-6 0 -7 -6l-26 -149q-1 -6 5 -6h282q10 0 8 -10l-19 -102q-2 -10 -11 -10h-417q-11 0 -9 10zM513 773h-272 q-10 0 -8 10l12 72q2 10 11 10h273q10 0 8 -10l-13 -72q-2 -10 -11 -10z" glyph-name="Emacron"/>
<glyph unicode="ē" horiz-adv-x="503" d="M441 579h-272q-10 0 -8 10l12 71q2 10 11 10h273q10 0 8 -10l-13 -71q-2 -10 -11 -10zM187 291h156q5 0 7 6q3 15 3 27q0 68 -70 68q-62 0 -88 -54q-8 -15 -12 -40q-1 -7 4 -7zM222 -11q-89 0 -138 45.5t-49 131.5q0 116 40 196q65 133 225 133q79 0 129 -44.5t50 -125.5 q0 -41 -13 -113q-2 -10 -12 -10h-283q-5 0 -7 -6q-1 -5 -1 -15q0 -84 87 -84q58 0 116 47q8 7 15 0l49 -59q7 -8 -1 -16q-87 -80 -207 -80z" glyph-name="emacron"/>
<glyph unicode="Ĕ" horiz-adv-x="542" d="M28 10l117 660q2 10 11 10h418q10 0 8 -10l-18 -102q-2 -10 -11 -10h-282q-5 0 -7 -6l-25 -143q-1 -6 5 -6h234q10 0 8 -10l-18 -100q-2 -10 -12 -10h-234q-6 0 -7 -6l-26 -149q-1 -6 5 -6h282q10 0 8 -10l-19 -102q-2 -10 -11 -10h-417q-11 0 -9 10zM366 746 q-58 0 -91.5 30.5t-33.5 80.5q0 11 1 17q2 11 11 11h55q11 0 12 -10q6 -45 60 -45t78 45q6 10 15 10h54q11 0 8 -11q-12 -55 -59.5 -91.5t-109.5 -36.5z" glyph-name="Ebreve"/>
<glyph unicode="ĕ" horiz-adv-x="503" d="M302 548q-58 0 -91.5 30.5t-33.5 80.5q0 11 1 17q2 11 11 11h55q11 0 12 -10q6 -44 60 -44q55 0 78 44q6 10 15 10h54q11 0 8 -10q-12 -56 -59.5 -92.5t-109.5 -36.5zM187 291h156q5 0 7 6q3 15 3 27q0 68 -70 68q-62 0 -88 -54q-8 -15 -12 -40q-1 -7 4 -7zM222 -11 q-89 0 -138 45.5t-49 131.5q0 116 40 196q65 133 225 133q79 0 129 -44.5t50 -125.5q0 -41 -13 -113q-2 -10 -12 -10h-283q-5 0 -7 -6q-1 -5 -1 -15q0 -84 87 -84q58 0 116 47q8 7 15 0l49 -59q7 -8 -1 -16q-87 -80 -207 -80z" glyph-name="ebreve"/>
<glyph unicode="Ė" horiz-adv-x="542" d="M28 10l117 660q2 10 11 10h418q10 0 8 -10l-18 -102q-2 -10 -11 -10h-282q-5 0 -7 -6l-25 -143q-1 -6 5 -6h234q10 0 8 -10l-18 -100q-2 -10 -12 -10h-234q-6 0 -7 -6l-26 -149q-1 -6 5 -6h282q10 0 8 -10l-19 -102q-2 -10 -11 -10h-417q-11 0 -9 10zM432 762h-111 q-10 0 -8 10l18 94q2 10 11 10h110q10 0 8 -10l-17 -94q-2 -10 -11 -10z" glyph-name="Edotaccent"/>
<glyph unicode="ė" horiz-adv-x="503" d="M360 565h-111q-10 0 -8 10l17 95q2 10 11 10h110q10 0 8 -10l-16 -95q-2 -10 -11 -10zM187 291h156q5 0 7 6q3 15 3 27q0 68 -70 68q-62 0 -88 -54q-8 -15 -12 -40q-1 -7 4 -7zM222 -11q-89 0 -138 45.5t-49 131.5q0 116 40 196q65 133 225 133q79 0 129 -44.5t50 -125.5 q0 -41 -13 -113q-2 -10 -12 -10h-283q-5 0 -7 -6q-1 -5 -1 -15q0 -84 87 -84q58 0 116 47q8 7 15 0l49 -59q7 -8 -1 -16q-87 -80 -207 -80z" glyph-name="edotaccent"/>
<glyph unicode="Ę" horiz-adv-x="542" d="M328 -190q-39 0 -62 20t-23 55q0 63 76 115h-282q-11 0 -9 10l117 660q2 10 11 10h418q10 0 8 -10l-18 -102q-2 -10 -11 -10h-282q-5 0 -7 -6l-25 -143q-1 -6 5 -6h234q10 0 8 -10l-18 -100q-2 -10 -12 -10h-234q-6 0 -7 -6l-26 -149q-1 -6 5 -6h282q10 0 8 -10l-19 -102 q-2 -10 -11 -10h-9q-96 -47 -96 -82q0 -16 17 -16q9 0 25 8q9 4 12 -4l20 -56q3 -8 -5 -13q-45 -27 -90 -27z" glyph-name="Eogonek"/>
<glyph unicode="ę" horiz-adv-x="503" d="M187 291h156q5 0 7 6q3 15 3 27q0 68 -70 68q-62 0 -88 -54q-9 -18 -12 -41q-1 -6 4 -6zM163 181q0 -84 87 -84q58 0 116 47q8 7 15 0l49 -59q7 -8 -1 -16q-30 -26 -51 -39q-99 -75 -99 -112q0 -16 17 -16q9 0 25 8q8 5 12 -4l19 -56q4 -9 -5 -13q-44 -27 -89 -27 q-39 0 -62 20t-23 55q0 52 53 105q-3 -1 -9 -1q-87 1 -134.5 47t-47.5 130q0 116 40 196q65 133 225 133q79 0 129 -44.5t50 -125.5q0 -41 -13 -113q-2 -10 -12 -10h-283q-5 0 -7 -6q-1 -5 -1 -15z" glyph-name="eogonek"/>
<glyph unicode="Ě" horiz-adv-x="542" d="M28 10l117 660q2 10 11 10h418q10 0 8 -10l-18 -102q-2 -10 -11 -10h-282q-5 0 -7 -6l-25 -143q-1 -6 5 -6h234q10 0 8 -10l-18 -100q-2 -10 -12 -10h-234q-6 0 -7 -6l-26 -149q-1 -6 5 -6h282q10 0 8 -10l-19 -102q-2 -10 -11 -10h-417q-11 0 -9 10zM408 744h-72 q-11 0 -16 9l-76 131q-2 4 0 7t6 3h71q11 0 19 -10l41 -57h1l62 57q10 10 23 10h80q5 0 6 -3t-3 -7l-122 -131q-8 -9 -20 -9z" glyph-name="Ecaron"/>
<glyph unicode="ě" horiz-adv-x="503" d="M187 291h156q5 0 7 6q3 15 3 27q0 68 -70 68q-62 0 -88 -54q-8 -15 -12 -40q-1 -7 4 -7zM222 -11q-89 0 -138 45.5t-49 131.5q0 116 40 196q65 133 225 133q79 0 129 -44.5t50 -125.5q0 -41 -13 -113q-2 -10 -12 -10h-283q-5 0 -7 -6q-1 -5 -1 -15q0 -84 87 -84 q58 0 116 47q8 7 15 0l49 -59q7 -8 -1 -16q-87 -80 -207 -80zM338 548h-72q-10 0 -16 10l-76 131q-2 4 0 7t6 3h71q11 0 19 -10l41 -57h1l62 57q11 10 23 10h79q4 0 5.5 -3t-1.5 -7l-122 -131q-9 -10 -20 -10z" glyph-name="ecaron"/>
<glyph unicode="Ĝ" horiz-adv-x="601" d="M541 748h-71q-12 0 -19 10l-41 57h-2l-61 -57q-10 -10 -23 -10h-80q-5 0 -6 3t3 7l122 131q8 9 20 9h72q11 0 16 -9l76 -131q2 -4 0.5 -7t-6.5 -3zM51 197q0 53 22 170.5t46 167.5q77 156 267 156q81 0 135.5 -40.5t69.5 -103.5q3 -8 -6 -14l-106 -43q-9 -4 -13 5 q-26 71 -100 71q-81 0 -119 -80q-16 -33 -35 -134.5t-19 -141.5q0 -44 25.5 -70t69.5 -26q82 0 118 73q14 31 20 71q0 6 -5 6h-88q-9 0 -7 10l16 92q2 10 11 10h226q9 0 7 -10l-10 -55q-18 -112 -45 -167q-78 -155 -263 -155q-99 0 -158 54t-59 154z" glyph-name="Gcircumflex"/>
<glyph unicode="ĝ" horiz-adv-x="521" d="M238 130q51 0 77 54q27 52 27 125t-63 73q-51 0 -77 -54q-27 -52 -27 -125t63 -73zM173 -191q-57 0 -102 22t-68 57q-7 9 2 16l74 62q9 7 16 0q42 -44 89 -44q95 0 114 110l8 44h-1q-43 -58 -128 -58q-69 0 -103.5 41t-34.5 114q0 44 12 105.5t31 101.5q54 115 175 115 q87 0 111 -59h1l7 38q2 10 11 10h112q10 0 8 -10l-74 -427q-22 -128 -84 -183t-176 -55zM468 550h-71q-11 0 -19 10l-41 57h-1l-62 -57q-11 -10 -23 -10h-79q-4 0 -5.5 3t1.5 7l122 131q9 10 20 10h72q10 0 16 -10l76 -131q2 -4 0 -7t-6 -3z" glyph-name="gcircumflex"/>
<glyph unicode="Ğ" horiz-adv-x="601" d="M51 197q0 53 22 170.5t46 167.5q77 156 267 156q81 0 135.5 -40.5t69.5 -103.5q3 -8 -6 -14l-106 -43q-9 -4 -13 5q-26 71 -100 71q-81 0 -119 -80q-16 -33 -35 -134.5t-19 -141.5q0 -44 25.5 -70t69.5 -26q82 0 118 73q14 31 20 71q0 6 -5 6h-88q-9 0 -7 10l16 92 q2 10 11 10h226q9 0 7 -10l-10 -55q-18 -112 -45 -167q-78 -155 -263 -155q-99 0 -158 54t-59 154zM390 746q-58 0 -91.5 30.5t-33.5 80.5q0 11 1 17q2 11 11 11h55q11 0 12 -10q6 -45 60 -45t78 45q6 10 15 10h54q11 0 8 -11q-12 -55 -59.5 -91.5t-109.5 -36.5z" glyph-name="Gbreve"/>
<glyph unicode="ğ" horiz-adv-x="521" d="M315 548q-58 0 -91.5 30.5t-33.5 80.5q0 11 1 17q2 11 11 11h55q11 0 12 -10q6 -44 60 -44q55 0 78 44q6 10 15 10h54q11 0 8 -10q-12 -56 -59.5 -92.5t-109.5 -36.5zM238 130q51 0 77 54q27 52 27 125t-63 73q-51 0 -77 -54q-27 -52 -27 -125t63 -73zM173 -191 q-57 0 -102 22t-68 57q-7 9 2 16l74 62q9 7 16 0q42 -44 89 -44q95 0 114 110l8 44h-1q-43 -58 -128 -58q-69 0 -103.5 41t-34.5 114q0 44 12 105.5t31 101.5q54 115 175 115q87 0 111 -59h1l7 38q2 10 11 10h112q10 0 8 -10l-74 -427q-22 -128 -84 -183t-176 -55z" glyph-name="gbreve"/>
<glyph unicode="Ġ" horiz-adv-x="601" d="M51 197q0 53 22 170.5t46 167.5q77 156 267 156q81 0 135.5 -40.5t69.5 -103.5q3 -8 -6 -14l-106 -43q-9 -4 -13 5q-26 71 -100 71q-81 0 -119 -80q-16 -33 -35 -134.5t-19 -141.5q0 -44 25.5 -70t69.5 -26q82 0 118 73q14 31 20 71q0 6 -5 6h-88q-9 0 -7 10l16 92 q2 10 11 10h226q9 0 7 -10l-10 -55q-18 -112 -45 -167q-78 -155 -263 -155q-99 0 -158 54t-59 154zM447 762h-111q-10 0 -8 10l18 94q2 10 11 10h110q10 0 8 -10l-17 -94q-2 -10 -11 -10z" glyph-name="Gdotaccent"/>
<glyph unicode="ġ" horiz-adv-x="521" d="M375 565h-111q-10 0 -8 10l17 95q2 10 11 10h110q10 0 8 -10l-16 -95q-2 -10 -11 -10zM238 130q51 0 77 54q27 52 27 125t-63 73q-51 0 -77 -54q-27 -52 -27 -125t63 -73zM173 -191q-57 0 -102 22t-68 57q-7 9 2 16l74 62q9 7 16 0q42 -44 89 -44q95 0 114 110l8 44h-1 q-43 -58 -128 -58q-69 0 -103.5 41t-34.5 114q0 44 12 105.5t31 101.5q54 115 175 115q87 0 111 -59h1l7 38q2 10 11 10h112q10 0 8 -10l-74 -427q-22 -128 -84 -183t-176 -55z" glyph-name="gdotaccent"/>
<glyph unicode="Ģ" horiz-adv-x="601" d="M51 197q0 53 22 170.5t46 167.5q77 156 267 156q81 0 135.5 -40.5t69.5 -103.5q3 -8 -6 -14l-106 -43q-9 -4 -13 5q-26 71 -100 71q-81 0 -119 -80q-16 -33 -35 -134.5t-19 -141.5q0 -44 25.5 -70t69.5 -26q82 0 118 73q14 31 20 71q0 6 -5 6h-88q-9 0 -7 10l16 92 q2 10 11 10h226q9 0 7 -10l-10 -55q-18 -112 -45 -167q-78 -155 -263 -155q-99 0 -158 54t-59 154zM175 -234q-11 0 -9 11l28 163q2 10 12 10h96q11 0 9 -10l-14 -77q-3 -12 -12 -20l-95 -70q-8 -7 -15 -7z" glyph-name="Gcommaaccent"/>
<glyph unicode="ģ" horiz-adv-x="521" d="M238 130q51 0 77 54q27 52 27 125t-63 73q-51 0 -77 -54q-27 -52 -27 -125t63 -73zM173 -191q-57 0 -102 22t-68 57q-7 9 2 16l74 62q9 7 16 0q42 -44 89 -44q95 0 114 110l8 44h-1q-43 -58 -128 -58q-69 0 -103.5 41t-34.5 114q0 44 12 105.5t31 101.5q54 115 175 115 q87 0 111 -59h1l7 38q2 10 11 10h112q10 0 8 -10l-74 -427q-22 -128 -84 -183t-176 -55zM365 562h-96q-10 0 -8 10l13 77q3 13 13 20l94 69q10 8 16 8q10 0 8 -12l-28 -162q-2 -10 -12 -10z" glyph-name="gcommaaccent"/>
<glyph unicode="Ĥ" horiz-adv-x="634" d="M564 748h-71q-11 0 -19 10l-41 57h-2l-61 -57q-10 -10 -23 -10h-80q-5 0 -6 3t3 7l122 131q8 9 20 9h72q11 0 16 -9l76 -131q2 -4 0 -7t-6 -3zM28 10l117 660q2 10 11 10h121q10 0 8 -10l-45 -258q-2 -6 5 -6h214q5 0 7 6l46 258q2 10 11 10h121q11 0 9 -10l-117 -660 q-2 -10 -11 -10h-121q-11 0 -9 10l47 265q2 6 -5 6h-215q-6 0 -7 -6l-47 -265q-2 -10 -10 -10h-121q-11 0 -9 10z" glyph-name="Hcircumflex"/>
<glyph unicode="ĥ" horiz-adv-x="533" d="M511 748h-71q-12 0 -19 10l-41 57h-2l-61 -57q-10 -10 -23 -10h-80q-5 0 -6 3t3 7l122 131q8 9 20 9h72q11 0 16 -9l76 -131q2 -4 0.5 -7t-6.5 -3zM429 0h-114q-10 0 -8 10l49 278q2 10 2 27q0 66 -58 66q-35 0 -59 -24.5t-32 -66.5l-49 -280q-2 -10 -10 -10h-115 q-11 0 -9 10l117 660q2 10 11 10h115q10 0 8 -10l-42 -232h1q50 57 132 57q65 0 98 -36.5t33 -98.5q0 -25 -4 -46l-55 -304q-2 -10 -11 -10z" glyph-name="hcircumflex"/>
<glyph unicode="Ħ" horiz-adv-x="634" d="M459 406q5 0 7 6l14 78q2 6 -5 6h-215q-6 0 -7 -6l-13 -78q-2 -6 5 -6h214zM525 0h-121q-11 0 -9 10l47 265q2 6 -5 6h-215q-6 0 -7 -6l-47 -265q-2 -10 -10 -10h-121q-11 0 -9 10l84 480q2 6 -4 6h-31q-9 0 -7 10l13 71q2 10 11 10h30q6 0 7 6l14 77q2 10 11 10h121 q10 0 8 -10l-13 -77q-2 -6 5 -6h215q6 0 7 6l13 77q2 10 11 10h121q11 0 9 -10l-14 -77q-1 -6 4 -6h31q10 0 8 -10l-13 -71q-2 -10 -11 -10h-31q-5 0 -7 -6l-84 -480q-2 -10 -11 -10z" glyph-name="Hbar"/>
<glyph unicode="ħ" horiz-adv-x="533" d="M429 0h-114q-10 0 -8 10l49 278q2 10 2 27q0 66 -58 66q-35 0 -59 -24.5t-32 -66.5l-49 -280q-2 -10 -10 -10h-115q-11 0 -9 10l93 527q1 6 -5 6h-15q-11 0 -9 10l14 73q1 10 12 10h15q5 0 7 6l5 28q2 10 11 10h115q10 0 8 -10l-5 -28q-2 -6 5 -6h99q9 0 7 -10l-13 -73 q-2 -10 -11 -10h-99q-6 0 -7 -6l-18 -99h1q50 57 132 57q65 0 98 -36.5t33 -98.5q0 -25 -4 -46l-55 -304q-2 -10 -11 -10z" glyph-name="hbar"/>
<glyph unicode="Ĩ" horiz-adv-x="266" d="M294 750q-32 0 -69 22q-29 18 -52 18q-35 0 -75 -32q-3 -3 -6 -1.5t-2 5.5l12 69q2 12 12 20q37 34 79 34q31 0 70 -22q29 -18 52 -18q36 0 74 32q4 3 7 1.5t2 -5.5l-12 -69q-2 -10 -12 -20q-39 -34 -80 -34zM28 10l117 660q2 10 11 10h121q10 0 8 -10l-117 -660 q-2 -10 -10 -10h-121q-11 0 -9 10z" glyph-name="Itilde"/>
<glyph unicode="ĩ" horiz-adv-x="255" d="M250 556q-34 0 -69 21q-27 18 -52 18q-34 0 -75 -31q-3 -3 -6 -1.5t-2 4.5l12 69q2 11 12 21q38 33 79 33q34 0 70 -22q29 -18 52 -18q36 0 74 32q4 3 7 1.5t2 -5.5l-12 -69q-2 -10 -12 -20q-38 -33 -80 -33zM150 0h-115q-11 0 -9 10l82 464q2 10 11 10h115q10 0 8 -10 l-82 -464q-2 -10 -10 -10z" glyph-name="itilde"/>
<glyph unicode="Ī" horiz-adv-x="266" d="M369 773h-272q-10 0 -8 10l12 72q2 10 11 10h273q10 0 8 -10l-13 -72q-2 -10 -11 -10zM28 10l117 660q2 10 11 10h121q10 0 8 -10l-117 -660q-2 -10 -10 -10h-121q-11 0 -9 10z" glyph-name="Imacron"/>
<glyph unicode="ī" horiz-adv-x="255" d="M327 579h-272q-10 0 -8 10l12 71q2 10 11 10h273q10 0 8 -10l-13 -71q-2 -10 -11 -10zM150 0h-115q-11 0 -9 10l82 464q2 10 11 10h115q10 0 8 -10l-82 -464q-2 -10 -10 -10z" glyph-name="imacron"/>
<glyph unicode="Ĭ" horiz-adv-x="266" d="M231 746q-58 0 -91.5 30.5t-33.5 80.5q0 11 1 17q2 11 11 11h55q11 0 12 -10q6 -45 60 -45t78 45q6 10 15 10h54q11 0 8 -11q-12 -55 -59.5 -91.5t-109.5 -36.5zM28 10l117 660q2 10 11 10h121q10 0 8 -10l-117 -660q-2 -10 -10 -10h-121q-11 0 -9 10z" glyph-name="Ibreve"/>
<glyph unicode="ĭ" horiz-adv-x="255" d="M186 548q-58 0 -91.5 30.5t-33.5 80.5q0 11 1 17q2 11 11 11h55q11 0 12 -10q6 -44 60 -44q55 0 78 44q6 10 15 10h54q11 0 8 -10q-12 -56 -59.5 -92.5t-109.5 -36.5zM150 0h-115q-11 0 -9 10l82 464q2 10 11 10h115q10 0 8 -10l-82 -464q-2 -10 -10 -10z" glyph-name="ibreve"/>
<glyph unicode="Į" horiz-adv-x="266" d="M55 -190q-39 0 -62 20t-23 55q0 57 71 115h-5q-10 0 -8 10l117 660q2 10 11 10h121q10 0 8 -10l-117 -660q-1 -7 -7 -11q-49 -30 -67 -47.5t-18 -33.5t17 -16q9 0 25 8q9 4 12 -4l20 -56q3 -8 -6 -13q-44 -27 -89 -27z" glyph-name="Iogonek"/>
<glyph unicode="į" horiz-adv-x="255" d="M49 -190q-38 0 -61.5 20t-23.5 55q0 61 70 115q-10 0 -8 10l82 464q2 10 11 10h115q10 0 8 -10l-82 -464q-2 -8 -8 -11q-82 -49 -82 -81q0 -16 18 -16q10 0 24 8q10 5 13 -4l19 -56q3 -8 -5 -13q-43 -27 -90 -27zM249 565h-116q-10 0 -8 10l18 95q2 10 11 10h115 q10 0 8 -10l-17 -95q-2 -10 -11 -10z" glyph-name="iogonek"/>
<glyph unicode="İ" horiz-adv-x="266" d="M286 762h-111q-10 0 -8 10l18 94q2 10 11 10h110q10 0 8 -10l-17 -94q-2 -10 -11 -10zM28 10l117 660q2 10 11 10h121q10 0 8 -10l-117 -660q-2 -10 -10 -10h-121q-11 0 -9 10z" glyph-name="Idotaccent"/>
<glyph unicode="ı" horiz-adv-x="255" d="M150 0h-115q-11 0 -9 10l82 464q2 10 11 10h115q10 0 8 -10l-82 -464q-2 -10 -10 -10z" glyph-name="dotlessi"/>
<glyph unicode="Ĵ" horiz-adv-x="496" d="M615 748h-71q-12 0 -19 10l-41 57h-2l-61 -57q-10 -10 -23 -10h-80q-5 0 -6 3t3 7l122 131q8 9 20 9h72q11 0 16 -9l76 -131q2 -4 0.5 -7t-6.5 -3zM-2 79q-3 8 5 14l95 64q8 5 13 -2q31 -40 76 -40q94 0 114 119l77 436q2 10 11 10h122q10 0 8 -10l-76 -429 q-24 -134 -89.5 -193t-180.5 -59q-58 0 -107.5 26.5t-67.5 63.5z" glyph-name="Jcircumflex"/>
<glyph unicode="ĵ" horiz-adv-x="255" d="M331 550h-71q-12 0 -19 10l-41 57h-1l-62 -57q-11 -10 -23 -10h-79q-5 0 -6 3t2 7l122 131q9 10 20 10h72q10 0 16 -10l76 -131q2 -4 0.5 -7t-6.5 -3zM-45 -180h-32q-10 0 -7 10l17 94q2 10 11 10h16q30 0 43.5 12t19.5 45l85 483q2 10 11 10h115q10 0 8 -10l-85 -482 q-18 -100 -61.5 -136t-140.5 -36z" glyph-name="jcircumflex"/>
<glyph unicode="Ķ" horiz-adv-x="619" d="M28 10l117 660q2 10 11 10h121q10 0 8 -10l-51 -285l263 286q8 9 18 9h144q5 0 6.5 -4t-2.5 -9l-251 -262l141 -393q3 -12 -9 -12h-123q-11 0 -14 9l-99 293l-109 -118l-31 -174q-2 -10 -10 -10h-121q-11 0 -9 10zM193 -234q-11 0 -9 11l28 163q2 10 12 10h96q11 0 9 -10 l-14 -77q-3 -12 -12 -20l-95 -70q-8 -7 -15 -7z" glyph-name="Kcommaaccent"/>
<glyph unicode="ķ" horiz-adv-x="514" d="M452 0h-119q-10 0 -13 10l-73 207l-63 -71l-24 -136q-2 -10 -11 -10h-115q-10 0 -8 10l116 660q2 10 11 10h114q11 0 9 -10l-63 -360l157 165q8 9 20 9h126q5 0 6.5 -3t-1.5 -7l-174 -176l112 -288q4 -10 -7 -10zM151 -234q-11 0 -9 11l28 163q2 10 12 10h96q11 0 9 -10 l-14 -77q-3 -12 -12 -20l-95 -70q-8 -7 -15 -7z" glyph-name="kcommaaccent"/>
<glyph unicode="ĸ" horiz-adv-x="514" d="M452 0h-119q-10 0 -13 10l-73 207l-63 -71l-24 -136q-2 -10 -11 -10h-115q-10 0 -8 10l82 464q2 10 11 10h114q11 0 9 -10l-29 -164l157 165q8 9 20 9h126q5 0 6.5 -3t-1.5 -7l-174 -176l112 -288q4 -10 -7 -10z" glyph-name="kgreenlandic"/>
<glyph unicode="Ĺ" horiz-adv-x="519" d="M28 10l117 660q2 10 11 10h121q10 0 8 -10l-95 -539q-2 -6 5 -6h277q10 0 8 -10l-19 -105q-2 -10 -10 -10h-414q-11 0 -9 10zM281 755h-87q-5 0 -6.5 3t1.5 7l109 114q10 10 21 10h115q5 0 6.5 -3t-2.5 -7l-137 -116q-9 -8 -20 -8z" glyph-name="Lacute"/>
<glyph unicode="ĺ" horiz-adv-x="292" d="M215 -6h-50q-64 0 -92.5 24t-28.5 76q0 19 5 51l94 525q2 10 10 10h115q11 0 9 -10l-94 -517q-1 -5 -1 -14q0 -30 34 -30h19q10 0 8 -10l-16 -95q-2 -10 -12 -10zM266 755h-87q-5 0 -6.5 3t1.5 7l109 114q10 10 21 10h115q5 0 6.5 -3t-2.5 -7l-137 -116q-9 -8 -20 -8z " glyph-name="lacute"/>
<glyph unicode="Ļ" horiz-adv-x="519" d="M28 10l117 660q2 10 11 10h121q10 0 8 -10l-95 -539q-2 -6 5 -6h277q10 0 8 -10l-19 -105q-2 -10 -10 -10h-414q-11 0 -9 10zM178 -234q-11 0 -9 11l28 163q2 10 12 10h96q11 0 9 -10l-14 -77q-3 -12 -12 -20l-95 -70q-8 -7 -15 -7z" glyph-name="Lcommaaccent"/>
<glyph unicode="ļ" horiz-adv-x="292" d="M215 -6h-50q-64 0 -92.5 24t-28.5 76q0 19 5 51l94 525q2 10 10 10h115q11 0 9 -10l-94 -517q-1 -5 -1 -14q0 -30 34 -30h19q10 0 8 -10l-16 -95q-2 -10 -12 -10zM41 -234q-11 0 -9 11l28 163q2 10 12 10h96q11 0 9 -10l-14 -77q-3 -12 -12 -20l-95 -70q-8 -7 -15 -7z " glyph-name="lcommaaccent"/>
<glyph unicode="Ľ" horiz-adv-x="519" d="M28 10l117 660q2 10 11 10h121q10 0 8 -10l-95 -539q-2 -6 5 -6h277q10 0 8 -10l-19 -105q-2 -10 -10 -10h-414q-11 0 -9 10zM316 491q-10 0 -8 12l29 167q2 10 11 10h91q11 0 9 -10l-15 -82q-1 -10 -11 -20l-90 -69q-9 -8 -16 -8z" glyph-name="Lcaron"/>
<glyph unicode="ľ" horiz-adv-x="292" d="M215 -6h-50q-64 0 -92.5 24t-28.5 76q0 19 5 51l94 525q2 10 10 10h115q11 0 9 -10l-94 -517q-1 -5 -1 -14q0 -30 34 -30h19q10 0 8 -10l-16 -95q-2 -10 -12 -10zM298 491q-10 0 -8 12l29 167q2 10 11 10h91q11 0 9 -10l-15 -82q-1 -10 -11 -20l-90 -69q-9 -8 -16 -8z " glyph-name="lcaron"/>
<glyph unicode="Ŀ" horiz-adv-x="519" d="M464 257h-114q-11 0 -9 10l20 115q2 10 11 10h114q11 0 9 -10l-20 -115q-2 -10 -11 -10zM28 10l117 660q2 10 11 10h121q10 0 8 -10l-95 -539q-2 -6 5 -6h277q10 0 8 -10l-19 -105q-2 -10 -10 -10h-414q-11 0 -9 10z" glyph-name="Ldot"/>
<glyph unicode="ŀ" horiz-adv-x="370" d="M381 267h-114q-11 0 -9 10l20 115q2 10 11 10h114q11 0 9 -10l-20 -115q-2 -10 -11 -10zM215 -6h-50q-64 0 -92.5 24t-28.5 76q0 19 5 51l94 525q2 10 10 10h115q11 0 9 -10l-94 -517q-1 -5 -1 -14q0 -30 34 -30h19q10 0 8 -10l-16 -95q-2 -10 -12 -10z" glyph-name="ldot"/>
<glyph unicode="Ł" horiz-adv-x="519" d="M360 388l-136 -66l-34 -191q-2 -6 5 -6h277q10 0 8 -10l-19 -105q-2 -10 -10 -10h-414q-11 0 -9 10l42 240l-48 -23q-4 -2 -6.5 -0.5t-1.5 6.5l16 90q2 9 11 14l49 23l55 310q2 10 11 10h121q10 0 8 -10l-42 -238l136 66q4 2 7 0.5t2 -6.5l-17 -90q-2 -10 -11 -14z" glyph-name="Lslash"/>
<glyph unicode="ł" horiz-adv-x="292" d="M215 -6h-50q-64 0 -92.5 24t-28.5 76q0 19 5 51l22 122l-35 -16q-5 -2 -8 -0.5t-2 6.5l15 83q1 10 12 15l37 17l53 298q2 10 10 10h115q11 0 9 -10l-42 -228l64 30q5 2 8 0t2 -6l-15 -83q-2 -11 -12 -16l-66 -31l-33 -183q-1 -5 -1 -14q0 -30 34 -30h19q10 0 8 -10 l-16 -95q-2 -10 -12 -10z" glyph-name="lslash"/>
<glyph unicode="Ń" horiz-adv-x="631" d="M28 10l117 660q2 10 11 10h114q12 0 15 -10l155 -437h4l78 437q2 10 11 10h108q11 0 9 -10l-117 -660q-2 -10 -11 -10h-115q-10 0 -14 10l-156 437h-5l-77 -437q-2 -10 -10 -10h-108q-11 0 -9 10zM426 755h-87q-5 0 -6.5 3t1.5 7l109 114q10 10 21 10h115q5 0 6.5 -3 t-2.5 -7l-137 -116q-9 -8 -20 -8z" glyph-name="Nacute"/>
<glyph unicode="ń" horiz-adv-x="533" d="M429 0h-114q-10 0 -8 10l49 278q2 10 2 27q0 66 -58 66q-35 0 -59 -24.5t-32 -66.5l-49 -280q-2 -10 -10 -10h-115q-11 0 -9 10l82 464q2 10 11 10h115q10 0 8 -10l-7 -36h1q50 57 132 57q65 0 98 -36.5t33 -98.5q0 -24 -4 -45l-55 -305q-2 -10 -11 -10zM337 551h-86 q-11 0 -4 10l95 130q7 10 19 10h111q5 0 6 -3.5t-3 -7.5l-118 -129q-10 -10 -20 -10z" glyph-name="nacute"/>
<glyph unicode="Ņ" horiz-adv-x="631" d="M28 10l117 660q2 10 11 10h114q12 0 15 -10l155 -437h4l78 437q2 10 11 10h108q11 0 9 -10l-117 -660q-2 -10 -11 -10h-115q-10 0 -14 10l-156 437h-5l-77 -437q-2 -10 -10 -10h-108q-11 0 -9 10zM212 -234q-11 0 -9 11l28 163q2 10 12 10h96q11 0 9 -10l-14 -77 q-3 -12 -12 -20l-95 -70q-8 -7 -15 -7z" glyph-name="Ncommaaccent"/>
<glyph unicode="ņ" horiz-adv-x="533" d="M429 0h-114q-10 0 -8 10l49 278q2 10 2 27q0 66 -58 66q-35 0 -59 -24.5t-32 -66.5l-49 -280q-2 -10 -10 -10h-115q-11 0 -9 10l82 464q2 10 11 10h115q10 0 8 -10l-7 -36h1q50 57 132 57q65 0 98 -36.5t33 -98.5q0 -24 -4 -45l-55 -305q-2 -10 -11 -10zM153 -234 q-11 0 -9 11l28 163q2 10 12 10h96q11 0 9 -10l-14 -77q-3 -12 -12 -20l-95 -70q-8 -7 -15 -7z" glyph-name="ncommaaccent"/>
<glyph unicode="Ň" horiz-adv-x="631" d="M28 10l117 660q2 10 11 10h114q12 0 15 -10l155 -437h4l78 437q2 10 11 10h108q11 0 9 -10l-117 -660q-2 -10 -11 -10h-115q-10 0 -14 10l-156 437h-5l-77 -437q-2 -10 -10 -10h-108q-11 0 -9 10zM442 744h-72q-11 0 -16 9l-76 131q-2 4 0 7t6 3h71q11 0 19 -10l41 -57h1 l62 57q10 10 23 10h80q5 0 6 -3t-3 -7l-122 -131q-8 -9 -20 -9z" glyph-name="Ncaron"/>
<glyph unicode="ň" horiz-adv-x="533" d="M429 0h-114q-10 0 -8 10l49 278q2 10 2 27q0 66 -58 66q-35 0 -59 -24.5t-32 -66.5l-49 -280q-2 -10 -10 -10h-115q-11 0 -9 10l82 464q2 10 11 10h115q10 0 8 -10l-7 -36h1q50 57 132 57q65 0 98 -36.5t33 -98.5q0 -24 -4 -45l-55 -305q-2 -10 -11 -10zM351 548h-72 q-10 0 -16 10l-76 131q-2 4 -0.5 7t6.5 3h71q12 0 19 -10l41 -57h1l62 57q11 10 23 10h79q5 0 6 -3t-2 -7l-122 -131q-9 -10 -20 -10z" glyph-name="ncaron"/>
<glyph unicode="Ŋ" horiz-adv-x="631" d="M305 -184h-32q-10 0 -7 10l18 101q2 10 11 10h17q69 0 84 60v5l-159 445h-5l-77 -437q-2 -10 -10 -10h-108q-11 0 -9 10l117 660q2 10 11 10h114q12 0 15 -10l155 -437h4l78 437q2 10 11 10h108q11 0 9 -10l-116 -655q-36 -199 -229 -199z" glyph-name="Eng"/>
<glyph unicode="ŋ" horiz-adv-x="533" d="M236 -180h-31q-10 0 -8 10l17 94q2 10 11 10h17q29 0 42.5 11.5t18.5 43.5l53 299q2 10 2 27q0 66 -58 66q-35 0 -59 -24.5t-32 -66.5l-49 -280q-2 -10 -10 -10h-115q-11 0 -9 10l82 464q2 10 11 10h115q10 0 8 -10l-7 -36h1q50 57 132 57q65 0 98 -36t33 -98 q0 -24 -4 -45l-57 -324q-16 -91 -65 -131.5t-137 -40.5z" glyph-name="eng"/>
<glyph unicode="Ō" horiz-adv-x="602" d="M285 114q79 0 118 80q16 33 34.5 134t18.5 142q0 45 -24 70.5t-68 25.5q-79 0 -117 -80q-17 -33 -35.5 -134t-18.5 -142q0 -45 24.5 -70.5t67.5 -25.5zM266 -11q-99 0 -157 54t-58 154q0 53 22 170.5t46 167.5q77 156 264 156q99 0 157 -54t58 -154q0 -53 -22 -170.5 t-46 -167.5q-77 -156 -264 -156zM532 773h-272q-10 0 -8 10l12 72q2 10 11 10h273q10 0 8 -10l-13 -72q-2 -10 -11 -10z" glyph-name="Omacron"/>
<glyph unicode="ō" horiz-adv-x="508" d="M235 102q55 0 82 55q12 25 22 74.5t10 76.5q0 74 -65 74q-55 0 -82 -55q-12 -25 -22 -74.5t-10 -76.5q0 -74 65 -74zM217 -11q-84 0 -133 46t-49 128q0 46 12 105t31 98q63 129 224 129q84 0 133 -46t49 -128q0 -46 -12 -105t-31 -98q-63 -129 -224 -129zM446 579h-272 q-10 0 -8 10l12 71q2 10 11 10h273q10 0 8 -10l-13 -71q-2 -10 -11 -10z" glyph-name="omacron"/>
<glyph unicode="Ŏ" horiz-adv-x="602" d="M285 114q79 0 118 80q16 33 34.5 134t18.5 142q0 45 -24 70.5t-68 25.5q-79 0 -117 -80q-17 -33 -35.5 -134t-18.5 -142q0 -45 24.5 -70.5t67.5 -25.5zM266 -11q-99 0 -157 54t-58 154q0 53 22 170.5t46 167.5q77 156 264 156q99 0 157 -54t58 -154q0 -53 -22 -170.5 t-46 -167.5q-77 -156 -264 -156zM390 746q-58 0 -91.5 30.5t-33.5 80.5q0 11 1 17q2 11 11 11h55q11 0 12 -10q6 -45 60 -45t78 45q6 10 15 10h54q11 0 8 -11q-12 -55 -59.5 -91.5t-109.5 -36.5z" glyph-name="Obreve"/>
<glyph unicode="ŏ" horiz-adv-x="508" d="M310 548q-58 0 -91.5 30.5t-33.5 80.5q0 11 1 17q2 11 11 11h55q11 0 12 -10q6 -44 60 -44q55 0 78 44q6 10 15 10h54q11 0 8 -10q-12 -56 -59.5 -92.5t-109.5 -36.5zM235 102q55 0 82 55q12 25 22 74.5t10 76.5q0 74 -65 74q-55 0 -82 -55q-12 -25 -22 -74.5t-10 -76.5 q0 -74 65 -74zM217 -11q-84 0 -133 46t-49 128q0 46 12 105t31 98q63 129 224 129q84 0 133 -46t49 -128q0 -46 -12 -105t-31 -98q-63 -129 -224 -129z" glyph-name="obreve"/>
<glyph unicode="Ő" horiz-adv-x="602" d="M344 756h-74q-12 0 -5 10l88 112q7 10 18 10h91q4 0 5.5 -3t-1.5 -7l-100 -112q-10 -10 -22 -10zM508 756h-74q-11 0 -4 10l88 112q6 10 18 10h90q4 0 5.5 -3t-1.5 -7l-100 -112q-10 -10 -22 -10zM285 114q79 0 118 80q16 33 34.5 134t18.5 142q0 45 -24 70.5t-68 25.5 q-79 0 -117 -80q-17 -33 -35.5 -134t-18.5 -142q0 -45 24.5 -70.5t67.5 -25.5zM266 -11q-99 0 -157 54t-58 154q0 53 22 170.5t46 167.5q77 156 264 156q99 0 157 -54t58 -154q0 -53 -22 -170.5t-46 -167.5q-77 -156 -264 -156z" glyph-name="Ohungarumlaut"/>
<glyph unicode="ő" horiz-adv-x="508" d="M235 102q55 0 82 55q12 25 22 74.5t10 76.5q0 74 -65 74q-55 0 -82 -55q-12 -25 -22 -74.5t-10 -76.5q0 -74 65 -74zM217 -11q-84 0 -133 46t-49 128q0 46 12 105t31 98q63 129 224 129q84 0 133 -46t49 -128q0 -46 -12 -105t-31 -98q-63 -129 -224 -129zM259 550h-75 q-12 0 -5 10l88 130q7 10 18 10h90q5 0 6 -3t-2 -7l-101 -130q-6 -10 -19 -10zM423 550h-75q-12 0 -5 10l88 130q7 10 18 10h90q5 0 6 -3t-2 -7l-101 -130q-6 -10 -19 -10z" glyph-name="ohungarumlaut"/>
<glyph unicode="Œ" horiz-adv-x="895" d="M285 114q80 0 118 80q16 33 34.5 134t18.5 142q0 45 -24 70.5t-67 25.5q-80 0 -118 -80q-16 -33 -34.5 -134t-18.5 -142q0 -45 24 -70.5t67 -25.5zM807 0h-418q-11 0 -9 10l5 25h-1q-53 -46 -132 -46q-94 0 -147.5 53.5t-53.5 154.5q0 53 22 170.5t47 167.5 q76 156 254 156q81 0 118 -46h1l4 25q2 10 11 10h418q11 0 9 -10l-19 -102q-2 -10 -11 -10h-282q-6 0 -6 -6l-25 -143q-2 -6 4 -6h235q10 0 8 -10l-18 -100q-2 -10 -12 -10h-235q-4 0 -6 -6l-27 -149q0 -6 5 -6h282q10 0 8 -10l-18 -102q-2 -10 -11 -10z" glyph-name="OE"/>
<glyph unicode="œ" horiz-adv-x="803" d="M235 102q55 0 82 55q12 25 22 74.5t10 76.5q0 74 -65 74q-55 0 -82 -55q-12 -25 -22 -74.5t-10 -76.5q0 -74 65 -74zM496 338q-8 -15 -12 -40q-1 -7 4 -7h156q6 0 7 6q3 15 3 27q0 68 -70 68q-62 0 -88 -54zM523 -11q-101 0 -146 62h-2q-63 -62 -158 -62q-84 0 -133 46 t-49 128q0 46 12 105t31 98q63 129 224 129q96 0 139 -61h2q60 61 158 61q79 0 129 -44.5t50 -125.5q0 -41 -13 -113q-2 -10 -12 -10h-283q-6 0 -7 -6q-1 -5 -1 -15q0 -84 87 -84q58 0 116 47q8 7 15 0l49 -59q7 -8 -1 -16q-87 -80 -207 -80z" glyph-name="oe"/>
<glyph unicode="Ŕ" horiz-adv-x="600" d="M395 755h-87q-5 0 -6.5 3t1.5 7l109 114q10 10 21 10h115q5 0 6.5 -3t-2.5 -7l-137 -116q-9 -8 -20 -8zM355 382q46 1 77 30t31 79q0 31 -21 49t-56 18h-115q-5 0 -7 -6l-29 -164q-1 -6 5 -6h115zM518 0h-119q-10 0 -13 10l-69 252h-98q-7 0 -7 -6l-44 -246 q-2 -10 -10 -10h-121q-11 0 -9 10l117 660q2 10 11 10h258q89 0 140 -46t51 -122q0 -81 -43 -142t-114 -89l78 -269q2 -4 -0.5 -8t-7.5 -4z" glyph-name="Racute"/>
<glyph unicode="ŕ" horiz-adv-x="412" d="M150 0h-115q-11 0 -9 10l82 464q2 10 11 10h115q10 0 8 -10l-8 -43h1q46 64 130 64q51 0 77 -29q6 -8 1 -14l-68 -97q-7 -7 -14 -2q-32 22 -62 22q-75 0 -94 -109l-45 -256q-2 -10 -10 -10zM301 551h-86q-11 0 -4 10l95 130q7 10 19 10h111q5 0 6 -3.5t-3 -7.5l-118 -129 q-10 -10 -20 -10z" glyph-name="racute"/>
<glyph unicode="Ŗ" horiz-adv-x="600" d="M355 382q46 1 77 30t31 79q0 31 -21 49t-56 18h-115q-5 0 -7 -6l-29 -164q-1 -6 5 -6h115zM518 0h-119q-10 0 -13 10l-69 252h-98q-7 0 -7 -6l-44 -246q-2 -10 -10 -10h-121q-11 0 -9 10l117 660q2 10 11 10h258q89 0 140 -46t51 -122q0 -81 -43 -142t-114 -89l78 -269 q2 -4 -0.5 -8t-7.5 -4zM184 -234q-11 0 -9 11l28 163q2 10 12 10h96q11 0 9 -10l-14 -77q-3 -12 -12 -20l-95 -70q-8 -7 -15 -7z" glyph-name="Rcommaaccent"/>
<glyph unicode="ŗ" horiz-adv-x="412" d="M150 0h-115q-11 0 -9 10l82 464q2 10 11 10h115q10 0 8 -10l-8 -43h1q46 64 130 64q51 0 77 -29q6 -8 1 -14l-68 -97q-7 -7 -14 -2q-32 22 -62 22q-75 0 -94 -109l-45 -256q-2 -10 -10 -10zM6 -234q-11 0 -9 11l28 163q2 10 12 10h96q11 0 9 -10l-14 -77q-3 -12 -12 -20 l-95 -70q-8 -7 -15 -7z" glyph-name="rcommaaccent"/>
<glyph unicode="Ř" horiz-adv-x="600" d="M355 382q46 1 77 30t31 79q0 31 -21 49t-56 18h-115q-5 0 -7 -6l-29 -164q-1 -6 5 -6h115zM518 0h-119q-10 0 -13 10l-69 252h-98q-7 0 -7 -6l-44 -246q-2 -10 -10 -10h-121q-11 0 -9 10l117 660q2 10 11 10h258q89 0 140 -46t51 -122q0 -81 -43 -142t-114 -89l78 -269 q2 -4 -0.5 -8t-7.5 -4zM396 744h-72q-11 0 -16 9l-76 131q-2 4 0 7t6 3h71q11 0 19 -10l41 -57h1l62 57q10 10 23 10h80q5 0 6 -3t-3 -7l-122 -131q-8 -9 -20 -9z" glyph-name="Rcaron"/>
<glyph unicode="ř" horiz-adv-x="412" d="M150 0h-115q-11 0 -9 10l82 464q2 10 11 10h115q10 0 8 -10l-8 -43h1q46 64 130 64q51 0 77 -29q6 -8 1 -14l-68 -97q-7 -7 -14 -2q-32 22 -62 22q-75 0 -94 -109l-45 -256q-2 -10 -10 -10zM321 548h-72q-10 0 -16 10l-76 131q-2 4 -0.5 7t6.5 3h71q12 0 19 -10l41 -57h1 l62 57q11 10 23 10h79q5 0 6 -3t-2 -7l-122 -131q-9 -10 -20 -10z" glyph-name="rcaron"/>
<glyph unicode="Ś" horiz-adv-x="574" d="M395 755h-87q-5 0 -6.5 3t1.5 7l109 114q10 10 21 10h115q5 0 6.5 -3t-2.5 -7l-137 -116q-9 -8 -20 -8zM250 -11q-74 0 -142 26.5t-100 65.5q-6 9 1 16l86 82q8 8 14 1q65 -67 160 -67q55 0 90 29.5t35 72.5q0 26 -19.5 41.5t-67.5 22.5l-33 5q-177 26 -177 170 q0 107 74.5 172t192.5 65q133 0 212 -72q7 -5 0 -15l-71 -82q-8 -8 -14 -3q-66 49 -138 49q-47 0 -78 -27t-31 -66q0 -26 19.5 -42t67.5 -23l33 -5q178 -27 178 -163q0 -117 -81 -185t-211 -68z" glyph-name="Sacute"/>
<glyph unicode="ś" horiz-adv-x="487" d="M213 -11q-130 0 -204 76q-6 6 2 14l72 67q8 6 14 0q59 -51 134 -51q38 0 61.5 17.5t23.5 40.5q0 32 -57 37l-51 5q-63 7 -97.5 38.5t-34.5 82.5q0 84 60.5 131.5t157.5 47.5q54 0 102 -17.5t77 -43.5q7 -6 -1 -14l-64 -65q-7 -7 -14 -2q-52 38 -117 38q-32 0 -51.5 -14.5 t-19.5 -35.5q0 -16 11.5 -24t43.5 -12l50 -5q136 -14 136 -120q0 -87 -62.5 -139t-171.5 -52zM330 551h-86q-11 0 -4 10l95 130q7 10 19 10h111q5 0 6 -3.5t-3 -7.5l-118 -129q-10 -10 -20 -10z" glyph-name="sacute"/>
<glyph unicode="Ŝ" horiz-adv-x="574" d="M520 748h-71q-12 0 -19 10l-41 57h-2l-61 -57q-10 -10 -23 -10h-80q-5 0 -6 3t3 7l122 131q8 9 20 9h72q11 0 16 -9l76 -131q2 -4 0 -7t-6 -3zM250 -11q-74 0 -142 26.5t-100 65.5q-6 9 1 16l86 82q8 8 14 1q65 -67 160 -67q55 0 90 29.5t35 72.5q0 26 -19.5 41.5 t-67.5 22.5l-33 5q-177 26 -177 170q0 107 74.5 172t192.5 65q133 0 212 -72q7 -5 0 -15l-71 -82q-8 -8 -14 -3q-66 49 -138 49q-47 0 -78 -27t-31 -66q0 -26 19.5 -42t67.5 -23l33 -5q178 -27 178 -163q0 -117 -81 -185t-211 -68z" glyph-name="Scircumflex"/>
<glyph unicode="ŝ" horiz-adv-x="487" d="M213 -11q-130 0 -204 76q-6 6 2 14l72 67q8 6 14 0q59 -51 134 -51q38 0 61.5 17.5t23.5 40.5q0 32 -57 37l-51 5q-63 7 -97.5 38.5t-34.5 82.5q0 84 60.5 131.5t157.5 47.5q54 0 102 -17.5t77 -43.5q7 -6 -1 -14l-64 -65q-7 -7 -14 -2q-52 38 -117 38q-32 0 -51.5 -14.5 t-19.5 -35.5q0 -16 11.5 -24t43.5 -12l50 -5q136 -14 136 -120q0 -87 -62.5 -139t-171.5 -52zM444 550h-71q-11 0 -19 10l-41 57h-1l-62 -57q-11 -10 -23 -10h-79q-4 0 -5.5 3t1.5 7l122 131q9 10 20 10h72q10 0 16 -10l76 -131q2 -4 0 -7t-6 -3z" glyph-name="scircumflex"/>
<glyph unicode="Ş" horiz-adv-x="574" d="M224 -159h-91q-10 0 -5 10l80 140q-63 7 -117.5 32t-82.5 58q-6 9 1 16l86 82q8 8 14 1q65 -67 160 -67q55 0 90 29.5t35 72.5q0 26 -19.5 41.5t-67.5 22.5l-33 5q-177 26 -177 170q0 107 74.5 172t192.5 65q133 0 212 -72q7 -5 0 -15l-71 -82q-8 -8 -14 -3 q-66 49 -138 49q-47 0 -78 -27t-31 -66q0 -26 19.5 -42t67.5 -23l33 -5q178 -27 178 -163q0 -103 -63 -168t-169 -80l-68 -143q-5 -10 -18 -10z" glyph-name="Scedilla"/>
<glyph unicode="ş" horiz-adv-x="487" d="M188 -159h-91q-10 0 -5 10l80 140q-105 12 -163 74q-6 6 2 14l72 67q8 6 14 0q59 -51 134 -51q38 0 61.5 17.5t23.5 40.5q0 32 -57 37l-51 5q-63 7 -97.5 38.5t-34.5 82.5q0 84 60.5 132t157.5 48q54 0 102 -17.5t77 -43.5q7 -7 -1 -14l-64 -65q-7 -7 -14 -2 q-52 38 -117 38q-32 0 -51.5 -15t-19.5 -36q0 -16 11.5 -24t43.5 -12l50 -5q136 -14 136 -120q0 -74 -45.5 -123.5t-127.5 -62.5l-68 -143q-5 -10 -18 -10z" glyph-name="scedilla"/>
<glyph unicode="Š" horiz-adv-x="574" d="M400 744h-72q-11 0 -16 9l-76 131q-2 4 0 7t6 3h71q11 0 19 -10l41 -57h1l62 57q10 10 23 10h80q5 0 6 -3t-3 -7l-122 -131q-8 -9 -20 -9zM250 -11q-74 0 -142 26.5t-100 65.5q-6 9 1 16l86 82q8 8 14 1q65 -67 160 -67q55 0 90 29.5t35 72.5q0 26 -19.5 41.5t-67.5 22.5 l-33 5q-177 26 -177 170q0 107 74.5 172t192.5 65q133 0 212 -72q7 -5 0 -15l-71 -82q-8 -8 -14 -3q-66 49 -138 49q-47 0 -78 -27t-31 -66q0 -26 19.5 -42t67.5 -23l33 -5q178 -27 178 -163q0 -117 -81 -185t-211 -68z" glyph-name="Scaron"/>
<glyph unicode="š" horiz-adv-x="487" d="M213 -11q-130 0 -204 76q-6 6 2 14l72 67q8 6 14 0q59 -51 134 -51q38 0 61.5 17.5t23.5 40.5q0 32 -57 37l-51 5q-63 7 -97.5 38.5t-34.5 82.5q0 84 60.5 131.5t157.5 47.5q54 0 102 -17.5t77 -43.5q7 -6 -1 -14l-64 -65q-7 -7 -14 -2q-52 38 -117 38q-32 0 -51.5 -14.5 t-19.5 -35.5q0 -16 11.5 -24t43.5 -12l50 -5q136 -14 136 -120q0 -87 -62.5 -139t-171.5 -52zM333 548h-72q-10 0 -16 10l-76 131q-2 4 -0.5 7t6.5 3h71q12 0 19 -10l41 -57h1l62 57q11 10 23 10h79q5 0 6 -3t-2 -7l-122 -131q-9 -10 -20 -10z" glyph-name="scaron"/>
<glyph unicode="Ţ" horiz-adv-x="538" d="M293 0h-121q-10 0 -8 10l95 539q1 6 -5 6h-166q-11 0 -9 10l19 105q2 10 11 10h485q11 0 9 -10l-19 -105q-2 -10 -11 -10h-167q-6 0 -7 -6l-95 -539q-2 -10 -11 -10zM148 -234q-11 0 -9 11l28 163q2 10 12 10h96q11 0 9 -10l-14 -77q-3 -12 -12 -20l-95 -70q-8 -7 -15 -7 z" glyph-name="Tcommaaccent"/>
<glyph unicode="ţ" horiz-adv-x="319" d="M232 -6h-50q-66 0 -96 26t-30 80q0 29 5 54l42 226q1 6 -5 6h-30q-9 0 -7 10l14 78q2 10 11 10h30q6 0 7 6l23 130q2 10 12 10h113q10 0 8 -10l-23 -130q-2 -6 4 -6h61q10 0 8 -10l-13 -78q-2 -10 -12 -10h-62q-4 0 -6 -6l-41 -221q-2 -16 -2 -20q0 -30 37 -30h22 q10 0 8 -10l-17 -95q-2 -10 -11 -10zM56 -234q-11 0 -9 11l28 163q2 10 12 10h96q11 0 9 -10l-14 -77q-3 -12 -12 -20l-95 -70q-8 -7 -15 -7z" glyph-name="tcommaaccent"/>
<glyph unicode="Ť" horiz-adv-x="538" d="M293 0h-121q-10 0 -8 10l95 539q1 6 -5 6h-166q-11 0 -9 10l19 105q2 10 11 10h485q11 0 9 -10l-19 -105q-2 -10 -11 -10h-167q-6 0 -7 -6l-95 -539q-2 -10 -11 -10zM389 744h-72q-11 0 -16 9l-76 131q-2 4 -0.5 7t6.5 3h71q12 0 19 -10l41 -57h1l62 57q10 10 23 10h80 q5 0 6 -3t-3 -7l-122 -131q-8 -9 -20 -9z" glyph-name="Tcaron"/>
<glyph unicode="ť" horiz-adv-x="319" d="M232 -6h-50q-66 0 -96 26t-30 80q0 29 5 54l42 226q1 6 -5 6h-30q-9 0 -7 10l14 78q2 10 11 10h30q6 0 7 6l23 130q2 10 12 10h113q10 0 8 -10l-23 -130q-2 -6 4 -6h61q10 0 8 -10l-13 -78q-2 -10 -12 -10h-62q-4 0 -6 -6l-41 -221q-2 -16 -2 -20q0 -30 37 -30h22 q10 0 8 -10l-17 -95q-2 -10 -11 -10zM360 491q-10 0 -8 12l29 167q2 10 11 10h91q11 0 9 -10l-15 -82q-1 -10 -11 -20l-90 -69q-9 -8 -16 -8z" glyph-name="tcaron"/>
<glyph unicode="Ŧ" horiz-adv-x="538" d="M293 0h-121q-10 0 -8 10l53 304q1 6 -5 6h-84q-10 0 -8 10l16 88q2 10 11 10h85q6 0 7 6l20 115q1 6 -5 6h-166q-11 0 -9 10l19 105q2 10 11 10h485q11 0 9 -10l-19 -105q-2 -10 -11 -10h-167q-6 0 -7 -6l-20 -115q-1 -6 5 -6h85q10 0 8 -10l-16 -88q-2 -10 -11 -10h-85 q-5 0 -7 -6l-54 -304q-2 -10 -11 -10z" glyph-name="Tbar"/>
<glyph unicode="ŧ" horiz-adv-x="319" d="M232 -6h-50q-67 0 -96.5 25.5t-29.5 79.5q0 30 5 55l16 83q1 6 -5 6h-20q-10 0 -8 10l11 64q2 10 12 10h20q5 0 7 6l9 47q1 6 -5 6h-30q-9 0 -7 10l14 78q2 10 11 10h30q6 0 7 6l23 130q2 10 12 10h113q10 0 8 -10l-23 -130q-2 -6 4 -6h61q10 0 8 -10l-13 -78 q-2 -10 -12 -10h-62q-4 0 -6 -6l-9 -47q-1 -6 5 -6h49q9 0 7 -10l-10 -64q-2 -10 -11 -10h-51q-6 0 -7 -6l-14 -78q-2 -16 -2 -20q0 -30 37 -30h22q10 0 8 -10l-17 -95q-2 -10 -11 -10z" glyph-name="tbar"/>
<glyph unicode="Ũ" horiz-adv-x="619" d="M286 -11q-104 0 -164 53t-60 150q0 28 6 61l74 417q2 10 10 10h121q11 0 9 -10l-75 -425q-3 -18 -3 -35q0 -47 25 -71.5t69 -24.5q52 0 83.5 29.5t44.5 101.5l76 425q2 10 11 10h120q11 0 9 -10l-76 -427q-24 -137 -93 -195.5t-187 -58.5zM469 750q-32 0 -69 22 q-29 18 -52 18q-35 0 -75 -32q-3 -3 -6 -1.5t-2 5.5l12 69q2 12 12 20q37 34 79 34q32 0 70 -22q29 -18 52 -18q36 0 74 32q4 3 7 1.5t2 -5.5l-12 -69q-2 -10 -12 -20q-39 -34 -80 -34z" glyph-name="Utilde"/>
<glyph unicode="ũ" horiz-adv-x="529" d="M386 556q-34 0 -69 21q-27 18 -52 18q-34 0 -75 -31q-3 -3 -6 -1.5t-2 4.5l12 69q2 11 12 21q38 33 79 33q34 0 70 -22q29 -18 52 -18q36 0 74 32q4 3 7 1.5t2 -5.5l-12 -69q-2 -10 -12 -20q-38 -33 -80 -33zM114 484h114q11 0 9 -10l-49 -279q-3 -15 -3 -28 q0 -64 58 -64q35 0 58.5 24.5t31.5 66.5l49 280q2 10 10 10h115q11 0 9 -10l-83 -464q-2 -10 -11 -10h-114q-10 0 -8 10l6 36h-1q-52 -57 -130 -57q-64 0 -97 35t-33 97q0 20 5 48l54 305q2 10 10 10z" glyph-name="utilde"/>
<glyph unicode="Ū" horiz-adv-x="619" d="M286 -11q-104 0 -164 53t-60 150q0 28 6 61l74 417q2 10 10 10h121q11 0 9 -10l-75 -425q-3 -18 -3 -35q0 -47 25 -71.5t69 -24.5q52 0 83.5 29.5t44.5 101.5l76 425q2 10 11 10h120q11 0 9 -10l-76 -427q-24 -137 -93 -195.5t-187 -58.5zM550 773h-272q-10 0 -8 10 l12 72q2 10 11 10h273q10 0 8 -10l-13 -72q-2 -10 -11 -10z" glyph-name="Umacron"/>
<glyph unicode="ū" horiz-adv-x="529" d="M458 579h-272q-10 0 -8 10l12 71q2 10 11 10h273q10 0 8 -10l-13 -71q-2 -10 -11 -10zM114 484h114q11 0 9 -10l-49 -279q-3 -15 -3 -28q0 -64 58 -64q35 0 58.5 24.5t31.5 66.5l49 280q2 10 10 10h115q11 0 9 -10l-83 -464q-2 -10 -11 -10h-114q-10 0 -8 10l6 36h-1 q-52 -57 -130 -57q-64 0 -97 35t-33 97q0 20 5 48l54 305q2 10 10 10z" glyph-name="umacron"/>
<glyph unicode="Ŭ" horiz-adv-x="619" d="M286 -11q-104 0 -164 53t-60 150q0 28 6 61l74 417q2 10 10 10h121q11 0 9 -10l-75 -425q-3 -18 -3 -35q0 -47 25 -71.5t69 -24.5q52 0 83.5 29.5t44.5 101.5l76 425q2 10 11 10h120q11 0 9 -10l-76 -427q-24 -137 -93 -195.5t-187 -58.5zM407 746q-58 0 -91.5 30.5 t-33.5 80.5q0 11 1 17q2 11 11 11h55q11 0 12 -10q6 -45 60 -45t78 45q6 10 15 10h54q11 0 8 -11q-12 -55 -59.5 -91.5t-109.5 -36.5z" glyph-name="Ubreve"/>
<glyph unicode="ŭ" horiz-adv-x="529" d="M318 548q-58 0 -91.5 30.5t-33.5 80.5q0 11 1 17q2 11 11 11h55q11 0 12 -10q6 -44 60 -44q55 0 78 44q6 10 15 10h54q11 0 8 -10q-12 -56 -59.5 -92.5t-109.5 -36.5zM114 484h114q11 0 9 -10l-49 -279q-3 -15 -3 -28q0 -64 58 -64q35 0 58.5 24.5t31.5 66.5l49 280 q2 10 10 10h115q11 0 9 -10l-83 -464q-2 -10 -11 -10h-114q-10 0 -8 10l6 36h-1q-52 -57 -130 -57q-64 0 -97 35t-33 97q0 20 5 48l54 305q2 10 10 10z" glyph-name="ubreve"/>
<glyph unicode="Ů" horiz-adv-x="619" d="M411 770q22 0 38 17t16 43q0 17 -10 27.5t-27 10.5q-23 0 -38.5 -17t-15.5 -43q0 -17 10 -27.5t27 -10.5zM402 714q-39 0 -63.5 23.5t-24.5 61.5q0 52 34.5 88.5t88.5 36.5q39 0 63 -23t24 -61q0 -52 -34 -89t-88 -37zM286 -11q-104 0 -164 53t-60 150q0 28 6 61l74 417 q2 10 10 10h121q11 0 9 -10l-75 -425q-3 -18 -3 -35q0 -47 25 -71.5t69 -24.5q52 0 83.5 29.5t44.5 101.5l76 425q2 10 11 10h120q11 0 9 -10l-76 -427q-24 -137 -93 -195.5t-187 -58.5z" glyph-name="Uring"/>
<glyph unicode="ů" horiz-adv-x="529" d="M114 484h114q11 0 9 -10l-49 -279q-3 -15 -3 -28q0 -64 58 -64q35 0 58.5 24.5t31.5 66.5l49 280q2 10 10 10h115q11 0 9 -10l-83 -464q-2 -10 -11 -10h-114q-10 0 -8 10l6 36h-1q-52 -57 -130 -57q-64 0 -97 35t-33 97q0 20 5 48l54 305q2 10 10 10zM327 581 q23 0 38.5 17t15.5 43q0 17 -10 28t-27 11q-22 0 -38 -17t-16 -43q0 -17 10 -28t27 -11zM318 525q-39 0 -63.5 23.5t-24.5 61.5q0 52 35 89t88 37q39 0 63.5 -23.5t24.5 -61.5q0 -52 -34.5 -89t-88.5 -37z" glyph-name="uring"/>
<glyph unicode="Ű" horiz-adv-x="619" d="M353 756h-74q-12 0 -5 10l88 112q7 10 18 10h91q5 0 6 -3t-2 -7l-100 -112q-10 -10 -22 -10zM517 756h-74q-11 0 -4 10l88 112q6 10 18 10h90q5 0 6 -3t-2 -7l-100 -112q-10 -10 -22 -10zM286 -11q-104 0 -164 53t-60 150q0 28 6 61l74 417q2 10 10 10h121q11 0 9 -10 l-75 -425q-3 -18 -3 -35q0 -47 25 -71.5t69 -24.5q52 0 83.5 29.5t44.5 101.5l76 425q2 10 11 10h120q11 0 9 -10l-76 -427q-24 -137 -93 -195.5t-187 -58.5z" glyph-name="Uhungarumlaut"/>
<glyph unicode="ű" horiz-adv-x="529" d="M278 550h-75q-12 0 -5 10l88 130q7 10 18 10h90q4 0 5.5 -3t-1.5 -7l-101 -130q-6 -10 -19 -10zM442 550h-75q-12 0 -5 10l88 130q7 10 18 10h90q4 0 5.5 -3t-1.5 -7l-101 -130q-6 -10 -19 -10zM114 484h114q11 0 9 -10l-49 -279q-3 -15 -3 -28q0 -64 58 -64 q35 0 58.5 24.5t31.5 66.5l49 280q2 10 10 10h115q11 0 9 -10l-83 -464q-2 -10 -11 -10h-114q-10 0 -8 10l6 36h-1q-52 -57 -130 -57q-64 0 -97 35t-33 97q0 20 5 48l54 305q2 10 10 10z" glyph-name="uhungarumlaut"/>
<glyph unicode="Ų" horiz-adv-x="620" d="M250 -190q-39 0 -62 20t-23 55q0 58 60 110q-77 14 -120 65t-43 132q0 28 6 61l74 417q2 10 10 10h121q11 0 9 -10l-75 -425q-3 -18 -3 -34q0 -47 25 -72t69 -25q52 0 84 29.5t45 101.5l75 425q2 10 11 10h120q11 0 9 -10l-76 -427q-21 -122 -78 -181t-152 -70 q-65 -43 -65 -74q0 -16 17 -16q9 0 25 8q9 4 12 -4l20 -56q3 -8 -5 -13q-45 -27 -90 -27z" glyph-name="Uogonek"/>
<glyph unicode="ų" horiz-adv-x="529" d="M308 -190q-39 0 -62 20t-23 55q0 61 82 115q-7 2 -5 10l6 36h-1q-52 -57 -130 -57q-64 0 -97 35t-33 97q0 20 5 48l54 305q2 10 10 10h114q11 0 9 -10l-49 -279q-3 -15 -3 -28q0 -64 58 -64q35 0 58.5 24.5t31.5 66.5l49 280q2 10 10 10h115q11 0 9 -10l-83 -463 q-1 -8 -7 -11q-97 -47 -97 -82q0 -16 17 -16q9 0 25 8q8 5 12 -4l19 -56q4 -9 -5 -13q-44 -27 -89 -27z" glyph-name="uogonek"/>
<glyph unicode="Ŵ" horiz-adv-x="833" d="M657 748h-71q-12 0 -19 10l-41 57h-2l-61 -57q-10 -10 -23 -10h-80q-5 0 -6 3t3 7l122 131q8 9 20 9h72q11 0 16 -9l76 -131q2 -4 0.5 -7t-6.5 -3zM605 0h-97q-9 0 -11 10l-38 434h-2l-192 -434q-5 -10 -14 -10h-97q-8 0 -10 10l-53 660q0 10 8 10h120q11 0 11 -10 l17 -439h2l190 439q5 10 14 10h83q9 0 11 -10l38 -439h2l170 439q3 10 12 10h129q10 0 7 -10l-288 -660q-3 -10 -12 -10z" glyph-name="Wcircumflex"/>
<glyph unicode="ŵ" horiz-adv-x="735" d="M520 0h-94q-10 0 -10 10l-30 290h-2l-135 -290q-5 -10 -13 -10h-94q-10 0 -10 10l-68 464q0 10 10 10h110q11 0 12 -10l25 -297h2l134 297q4 10 13 10h83q11 0 12 -10l30 -297h1l127 297q4 10 14 10h121q11 0 6 -10l-231 -464q-5 -10 -13 -10zM573 550h-71q-12 0 -19 10 l-41 57h-1l-62 -57q-11 -10 -23 -10h-79q-5 0 -6 3t2 7l122 131q9 10 20 10h72q10 0 16 -10l76 -131q2 -4 0.5 -7t-6.5 -3z" glyph-name="wcircumflex"/>
<glyph unicode="Ŷ" horiz-adv-x="545" d="M510 748h-71q-11 0 -19 10l-41 57h-2l-61 -57q-10 -10 -23 -10h-80q-5 0 -6 3t3 7l122 131q8 9 20 9h72q11 0 16 -9l76 -131q2 -4 0 -7t-6 -3zM296 0h-120q-11 0 -9 10l47 261l-125 399q-2 4 1 7t8 3h117q11 0 14 -10l75 -255h3l165 255q6 10 15 10h125q13 0 7 -10 l-265 -399l-47 -261q-2 -10 -11 -10z" glyph-name="Ycircumflex"/>
<glyph unicode="ŷ" horiz-adv-x="492" d="M457 550h-71q-12 0 -19 10l-41 57h-1l-62 -57q-11 -10 -23 -10h-79q-5 0 -6 3t2 7l122 131q9 10 20 10h72q10 0 16 -10l76 -131q2 -4 0.5 -7t-6.5 -3zM54 -180h-33q-11 0 -8 10l16 94q2 10 12 10h21q47 0 74 52l18 37l-94 451q-2 10 8 10h119q9 0 10 -10l44 -287h2 l140 287q4 10 14 10h120q12 0 7 -10l-283 -516q-42 -79 -83 -108.5t-104 -29.5z" glyph-name="ycircumflex"/>
<glyph unicode="Ÿ" horiz-adv-x="545" d="M311 762h-89q-11 0 -9 10l18 94q2 10 11 10h89q10 0 8 -10l-17 -94q-2 -10 -11 -10zM504 762h-89q-10 0 -8 10l18 94q2 10 11 10h88q10 0 8 -10l-17 -94q-2 -10 -11 -10zM296 0h-120q-11 0 -9 10l47 261l-125 399q-2 4 1 7t8 3h117q11 0 14 -10l75 -255h3l165 255 q6 10 15 10h125q13 0 7 -10l-265 -399l-47 -261q-2 -10 -11 -10z" glyph-name="Ydieresis"/>
<glyph unicode="Ź" horiz-adv-x="533" d="M386 755h-87q-5 0 -6.5 3t1.5 7l109 114q10 10 21 10h115q5 0 6.5 -3t-2.5 -7l-137 -116q-9 -8 -20 -8zM446 0h-431q-11 0 -9 10l17 100q2 8 8 16l355 427v2h-264q-10 0 -8 10l19 105q2 10 10 10h422q11 0 9 -10l-18 -100q-1 -8 -6 -14l-359 -429v-2h277q10 0 8 -10 l-19 -105q-2 -10 -11 -10z" glyph-name="Zacute"/>
<glyph unicode="ź" horiz-adv-x="471" d="M382 0h-364q-10 0 -8 10l15 87q1 5 6 10l265 266v2h-201q-9 0 -7 10l16 89q2 10 11 10h353q9 0 7 -10l-15 -89q-1 -5 -6 -12l-262 -260v-3h210q10 0 8 -10l-16 -90q-2 -10 -12 -10zM321 551h-86q-11 0 -4 10l95 130q7 10 19 10h111q5 0 6 -3.5t-3 -7.5l-118 -129 q-10 -10 -20 -10z" glyph-name="zacute"/>
<glyph unicode="Ż" horiz-adv-x="533" d="M446 0h-431q-11 0 -9 10l17 100q2 8 8 16l355 427v2h-264q-10 0 -8 10l19 105q2 10 10 10h422q11 0 9 -10l-18 -100q-1 -8 -6 -14l-359 -429v-2h277q10 0 8 -10l-19 -105q-2 -10 -11 -10zM411 762h-111q-10 0 -8 10l18 94q2 10 11 10h110q10 0 8 -10l-17 -94 q-2 -10 -11 -10z" glyph-name="Zdotaccent"/>
<glyph unicode="ż" horiz-adv-x="471" d="M350 565h-111q-10 0 -8 10l17 95q2 10 11 10h110q10 0 8 -10l-16 -95q-2 -10 -11 -10zM382 0h-364q-10 0 -8 10l15 87q1 5 6 10l265 266v2h-201q-9 0 -7 10l16 89q2 10 11 10h353q9 0 7 -10l-15 -89q-1 -5 -6 -12l-262 -260v-3h210q10 0 8 -10l-16 -90q-2 -10 -12 -10z " glyph-name="zdotaccent"/>
<glyph unicode="Ž" horiz-adv-x="533" d="M446 0h-431q-11 0 -9 10l17 100q2 8 8 16l355 427v2h-264q-10 0 -8 10l19 105q2 10 10 10h422q11 0 9 -10l-18 -100q-1 -8 -6 -14l-359 -429v-2h277q10 0 8 -10l-19 -105q-2 -10 -11 -10zM389 744h-72q-11 0 -16 9l-76 131q-2 4 -0.5 7t6.5 3h71q12 0 19 -10l41 -57h1 l62 57q10 10 23 10h80q5 0 6 -3t-3 -7l-122 -131q-8 -9 -20 -9z" glyph-name="Zcaron"/>
<glyph unicode="ž" horiz-adv-x="471" d="M382 0h-364q-10 0 -8 10l15 87q1 5 6 10l265 266v2h-201q-9 0 -7 10l16 89q2 10 11 10h353q9 0 7 -10l-15 -89q-1 -5 -6 -12l-262 -260v-3h210q10 0 8 -10l-16 -90q-2 -10 -12 -10zM327 548h-72q-10 0 -16 10l-76 131q-2 4 -0.5 7t6.5 3h71q12 0 19 -10l41 -57h1l62 57 q11 10 23 10h79q5 0 6 -3t-2 -7l-122 -131q-9 -10 -20 -10z" glyph-name="zcaron"/>
<glyph unicode="ƒ" d="M443 316h-89l-106 -330q-28 -89 -77 -127.5t-131 -38.5h-32q-11 0 -9 10l16 92q2 10 12 10h20q54 0 73 58l105 326h-61q-10 0 -8 10l14 79q2 10 12 10h75l32 99q28 89 77 127.5t131 38.5h32q11 0 9 -10l-16 -92q-2 -10 -12 -10h-20q-54 0 -73 -58l-31 -95h76q9 0 7 -10 l-14 -79q-2 -10 -12 -10z" glyph-name="florin"/>
<glyph unicode="Ǻ" horiz-adv-x="624" d="M368 500l-121 -248h155l-31 248h-3zM381 591q22 0 38 17t16 43q0 17 -10 27.5t-27 10.5q-23 0 -38.5 -17t-15.5 -43q0 -17 10 -27.5t27 -10.5zM567 0h-122q-11 0 -12 10l-16 122h-229l-59 -122q-4 -10 -13 -10h-132q-10 0 -5 10l294 566q5 10 15 10h2q-6 15 -6 34 q0 52 34.5 88.5t88.5 36.5q39 0 63 -23t24 -61q0 -43 -23 -75h1q10 0 12 -10l90 -566q2 -10 -7 -10zM448 772h-86q-4 0 -5 3.5t3 6.5l110 97q12 10 23 10h113q4 0 5 -3.5t-3 -6.5l-136 -98q-13 -9 -24 -9z" glyph-name="Aringacute"/>
<glyph unicode="ǻ" horiz-adv-x="509" d="M319 581q23 0 38.5 17t15.5 43q0 17 -10 28t-27 11q-22 0 -38 -17t-16 -43q0 -17 10 -28t27 -11zM310 525q-39 0 -63.5 23.5t-24.5 61.5q0 52 35 89t88 37q39 0 63.5 -23.5t24.5 -61.5q0 -52 -34.5 -89t-88.5 -37zM215 89q90 0 101 70l6 37q2 6 -5 6h-68q-94 0 -94 -68 q0 -45 60 -45zM404 0h-106q-10 0 -8 10l5 33h-1q-47 -54 -138 -54q-56 0 -93.5 33.5t-37.5 89.5q0 87 58 133t165 46h84q6 0 8 6l4 22q2 14 2 19q0 25 -19.5 37t-67.5 12q-63 0 -110 -32q-9 -6 -12 3l-30 75q-3 9 5 14q73 48 182 48q94 0 138 -29t44 -95q0 -20 -5 -50 l-56 -311q-2 -10 -11 -10zM382 762h-86q-5 0 -6 3.5t3 6.5l110 107q10 10 23 10h112q4 0 5 -3.5t-3 -6.5l-135 -108q-10 -9 -23 -9z" glyph-name="aringacute"/>
<glyph unicode="Ǽ" horiz-adv-x="898" d="M478 558l-191 -306h133q6 0 7 6l53 300h-2zM810 0h-418q-10 0 -8 10l20 116q2 6 -5 6h-186l-76 -122q-6 -10 -15 -10h-138q-12 0 -5 10l421 660q7 10 15 10h514q11 0 9 -10l-18 -102q-2 -10 -12 -10h-282q-6 0 -6 -6l-25 -143q-1 -6 4 -6h235q10 0 8 -10l-18 -100 q-2 -10 -12 -10h-235q-5 0 -6 -6l-27 -149q0 -6 5 -6h282q10 0 8 -10l-18 -102q-2 -10 -11 -10zM583 755h-87q-5 0 -6.5 3t1.5 7l109 114q10 10 21 10h115q5 0 6.5 -3t-2.5 -7l-137 -116q-9 -8 -20 -8z" glyph-name="AEacute"/>
<glyph unicode="ǽ" horiz-adv-x="787" d="M215 89q90 0 101 70l6 37q2 6 -5 6h-68q-94 0 -94 -68q0 -45 60 -45zM470 291h156q6 0 7 6q3 15 3 27q0 68 -70 68q-62 0 -88 -54q-8 -15 -12 -40q-1 -7 4 -7zM505 -11q-109 0 -150 73h-1q-58 -73 -180 -73q-71 0 -110 33t-39 93q0 85 58.5 130.5t164.5 45.5h84q6 0 8 6 l4 22q2 14 2 19q0 25 -19.5 37t-67.5 12q-63 0 -110 -32q-9 -6 -12 3l-30 75q-3 9 5 14q73 48 182 48q107 0 148 -49h2q56 49 139 49q79 0 129 -44.5t50 -125.5q0 -41 -13 -113q-2 -10 -12 -10h-283q-6 0 -7 -6q-1 -5 -1 -15q0 -84 87 -84q58 0 116 47q8 7 15 0l49 -59 q7 -8 -1 -16q-87 -80 -207 -80zM485 551h-86q-11 0 -4 10l95 130q7 10 19 10h111q5 0 6 -3.5t-3 -7.5l-118 -129q-10 -10 -20 -10z" glyph-name="aeacute"/>
<glyph unicode="Ǿ" horiz-adv-x="602" d="M433 755h-87q-5 0 -6.5 3t1.5 7l109 114q10 10 21 10h115q5 0 6.5 -3t-2.5 -7l-137 -116q-9 -8 -20 -8zM285 113q81 0 120 80q15 31 32 120t20 141l-239 -317q26 -24 67 -24zM245 487q-16 -32 -34 -127.5t-20 -143.5l243 323q-25 28 -70 28q-81 0 -119 -80zM75 -30h-66 q-11 0 -3 10l75 97q-30 47 -30 120q0 53 22 170.5t46 167.5q77 156 264 156q85 0 140 -40l39 50q5 9 16 9h67q9 0 3 -10l-78 -101q28 -48 28 -116q0 -53 -22 -170.5t-46 -167.5q-77 -156 -264 -156q-84 0 -137 37l-37 -47q-7 -9 -17 -9z" glyph-name="Oslashacute"/>
<glyph unicode="ǿ" horiz-adv-x="508" d="M344 551h-86q-11 0 -4 10l95 130q7 10 19 10h111q5 0 6 -3.5t-3 -7.5l-118 -129q-10 -10 -20 -10zM235 100q56 0 84 56q12 25 22 75.5t10 77.5v2l-163 -196q16 -15 47 -15zM168 176v-6l164 197q-17 17 -47 17q-56 0 -85 -56q-12 -25 -22 -75.5t-10 -76.5zM47 -30h-44 q-11 0 -3 10l66 75q-31 43 -31 108q0 46 12 105.5t31 97.5q65 130 225 130q70 0 115 -33l35 40q9 10 19 10h44q11 0 3 -10l-65 -75q30 -44 30 -107q0 -46 -12 -105t-31 -98q-63 -129 -224 -129q-69 0 -115 31l-35 -40q-9 -10 -20 -10z" glyph-name="oslashacute"/>
<glyph unicode="Ș" horiz-adv-x="574" d="M250 -11q-74 0 -142 26.5t-100 65.5q-6 9 1 16l86 82q8 8 14 1q65 -67 160 -67q55 0 90 29.5t35 72.5q0 26 -19.5 41.5t-67.5 22.5l-33 5q-177 26 -177 170q0 107 74.5 172t192.5 65q133 0 212 -72q7 -5 0 -15l-71 -82q-8 -8 -14 -3q-66 49 -138 49q-47 0 -78 -27 t-31 -66q0 -26 19.5 -42t67.5 -23l33 -5q178 -27 178 -163q0 -117 -81 -185t-211 -68zM175 -234q-11 0 -9 11l28 163q2 10 12 10h96q11 0 9 -10l-14 -77q-3 -12 -12 -20l-95 -70q-8 -7 -15 -7z" glyph-name="Scommaaccent"/>
<glyph unicode="ș" horiz-adv-x="487" d="M213 -11q-130 0 -204 76q-6 6 2 14l72 67q8 6 14 0q59 -51 134 -51q38 0 61.5 17.5t23.5 40.5q0 32 -57 37l-51 5q-63 7 -97.5 38.5t-34.5 82.5q0 84 60.5 131.5t157.5 47.5q54 0 102 -17.5t77 -43.5q7 -6 -1 -14l-64 -65q-7 -7 -14 -2q-52 38 -117 38q-32 0 -51.5 -14.5 t-19.5 -35.5q0 -16 11.5 -24t43.5 -12l50 -5q136 -14 136 -120q0 -87 -62.5 -139t-171.5 -52zM123 -234q-11 0 -9 11l28 163q2 10 12 10h96q11 0 9 -10l-14 -77q-3 -12 -12 -20l-95 -70q-8 -7 -15 -7z" glyph-name="scommaaccent"/>
<glyph unicode="Ț" horiz-adv-x="538" d="M293 0h-121q-10 0 -8 10l95 539q1 6 -5 6h-166q-11 0 -9 10l19 105q2 10 11 10h485q11 0 9 -10l-19 -105q-2 -10 -11 -10h-167q-6 0 -7 -6l-95 -539q-2 -10 -11 -10zM148 -234q-11 0 -9 11l28 163q2 10 12 10h96q11 0 9 -10l-14 -77q-3 -12 -12 -20l-95 -70q-8 -7 -15 -7 z" glyph-name="uni021A"/>
<glyph unicode="ț" horiz-adv-x="319" d="M232 -6h-50q-66 0 -96 26t-30 80q0 29 5 54l42 226q1 6 -5 6h-30q-9 0 -7 10l14 78q2 10 11 10h30q6 0 7 6l23 130q2 10 12 10h113q10 0 8 -10l-23 -130q-2 -6 4 -6h61q10 0 8 -10l-13 -78q-2 -10 -12 -10h-62q-4 0 -6 -6l-41 -221q-2 -16 -2 -20q0 -30 37 -30h22 q10 0 8 -10l-17 -95q-2 -10 -11 -10zM56 -234q-11 0 -9 11l28 163q2 10 12 10h96q11 0 9 -10l-14 -77q-3 -12 -12 -20l-95 -70q-8 -7 -15 -7z" glyph-name="uni021B"/>
<glyph unicode="ȷ" horiz-adv-x="255" d="M-45 -180h-32q-10 0 -7 10l17 94q2 10 11 10h16q30 0 43.5 12t19.5 45l85 483q2 10 11 10h115q10 0 8 -10l-85 -482q-18 -100 -61.5 -136t-140.5 -36z" glyph-name="dotlessj"/>
<glyph unicode="ˆ" horiz-adv-x="441" d="M427 550h-71q-12 0 -19 10l-41 57h-1l-62 -57q-11 -10 -23 -10h-79q-5 0 -6 3t2 7l122 131q9 10 20 10h72q10 0 16 -10l76 -131q2 -4 0.5 -7t-6.5 -3z" glyph-name="circumflex"/>
<glyph unicode="ˇ" horiz-adv-x="441" d="M314 548h-72q-10 0 -16 10l-76 131q-2 4 0 7t6 3h71q11 0 19 -10l41 -57h1l62 57q11 10 23 10h79q4 0 5.5 -3t-1.5 -7l-122 -131q-9 -10 -20 -10z" glyph-name="caron"/>
<glyph unicode="ˉ" horiz-adv-x="441" d="M456 773h-272q-10 0 -8 10l12 72q2 10 11 10h273q10 0 8 -10l-13 -72q-2 -10 -11 -10z" glyph-name="uni02C9"/>
<glyph unicode="˘" horiz-adv-x="441" d="M280 548q-58 0 -91.5 30.5t-33.5 80.5q0 11 1 17q2 11 11 11h55q11 0 12 -10q6 -44 60 -44q55 0 78 44q6 10 15 10h54q11 0 8 -10q-12 -56 -59.5 -92.5t-109.5 -36.5z" glyph-name="breve"/>
<glyph unicode="˙" horiz-adv-x="441" d="M340 565h-111q-10 0 -8 10l17 95q2 10 11 10h110q10 0 8 -10l-16 -95q-2 -10 -11 -10z" glyph-name="dotaccent"/>
<glyph unicode="˚" horiz-adv-x="441" d="M286 581q23 0 38.5 17t15.5 43q0 17 -10 28t-27 11q-22 0 -38 -17t-16 -43q0 -17 10 -28t27 -11zM277 525q-39 0 -63.5 23.5t-24.5 61.5q0 52 35 89t88 37q39 0 63.5 -23.5t24.5 -61.5q0 -52 -34.5 -89t-88.5 -37z" glyph-name="ring"/>
<glyph unicode="˛" horiz-adv-x="441" d="M148 -190q-39 0 -62 20t-23 55q0 63 76 115q14 10 27 10h98q5 0 5 -4t-4 -6q-96 -47 -96 -82q0 -16 17 -16q9 0 25 8q8 5 12 -4l20 -56q3 -8 -6 -13q-43 -27 -89 -27z" glyph-name="ogonek"/>
<glyph unicode="˜" horiz-adv-x="441" d="M343 556q-34 0 -69 21q-27 18 -52 18q-34 0 -75 -31q-3 -3 -6 -1.5t-2 4.5l12 69q2 11 12 21q38 33 79 33q34 0 70 -22q29 -18 52 -18q36 0 74 32q4 3 7 1.5t2 -5.5l-12 -69q-2 -10 -12 -20q-37 -33 -80 -33z" glyph-name="tilde"/>
<glyph unicode="˝" horiz-adv-x="441" d="M194 550h-75q-12 0 -5 10l88 130q7 10 18 10h90q4 0 5.5 -3t-1.5 -7l-101 -130q-6 -10 -19 -10zM358 550h-75q-12 0 -5 10l88 130q7 10 18 10h90q4 0 5.5 -3t-1.5 -7l-101 -130q-6 -10 -19 -10z" glyph-name="hungarumlaut"/>
<glyph unicode="Δ" horiz-adv-x="624" d="M416 116q6 0 5 6l-50 378h-3l-185 -378q-3 -6 3 -6h230zM566 0h-581q-11 0 -6 10l344 660q5 10 14 10h120q10 0 12 -10l105 -660q2 -10 -8 -10z" glyph-name="Delta"/>
<glyph unicode="∆" horiz-adv-x="624" d="M416 116q6 0 5 6l-50 378h-3l-185 -378q-3 -6 3 -6h230zM566 0h-581q-11 0 -6 10l344 660q5 10 14 10h120q10 0 12 -10l105 -660q2 -10 -8 -10z" glyph-name="Delta"/>
<glyph unicode="Ω" horiz-adv-x="613" d="M519 0h-204q-10 0 -8 10l16 96q1 9 12 14q43 16 68 65t44 155q16 95 16 127q0 99 -93 99q-81 0 -118 -77q-20 -39 -40 -149q-13 -72 -13 -118q0 -82 48 -102q8 -4 7 -14l-17 -96q-2 -10 -10 -10h-204q-11 0 -9 10l18 99q2 10 12 10h55v2q-39 34 -39 114q0 41 11 105 q23 133 51 188q82 163 270 163q100 0 157.5 -53.5t57.5 -155.5q0 -45 -18 -142q-29 -170 -104 -219v-2h54q10 0 8 -10l-17 -99q-2 -10 -11 -10z" glyph-name="Omega"/>
<glyph unicode="Ω" horiz-adv-x="613" d="M519 0h-204q-10 0 -8 10l16 96q1 9 12 14q43 16 68 65t44 155q16 95 16 127q0 99 -93 99q-81 0 -118 -77q-20 -39 -40 -149q-13 -72 -13 -118q0 -82 48 -102q8 -4 7 -14l-17 -96q-2 -10 -10 -10h-204q-11 0 -9 10l18 99q2 10 12 10h55v2q-39 34 -39 114q0 41 11 105 q23 133 51 188q82 163 270 163q100 0 157.5 -53.5t57.5 -155.5q0 -45 -18 -142q-29 -170 -104 -219v-2h54q10 0 8 -10l-17 -99q-2 -10 -11 -10z" glyph-name="Omega"/>
<glyph unicode="π" horiz-adv-x="575" d="M479 -6h-29q-61 0 -90 24t-29 75q0 18 5 48l40 222q0 6 -4 6h-115q-5 0 -7 -6l-63 -353q-2 -10 -10 -10h-115q-11 0 -9 10l63 353q0 6 -5 6h-41q-11 0 -9 10l18 95q2 10 11 10h486q10 0 8 -10l-17 -95q-1 -10 -11 -10h-41q-7 0 -7 -6l-38 -214q-2 -12 -2 -16 q0 -24 27 -24h4q10 0 8 -10l-16 -95q-2 -10 -12 -10z" glyph-name="pi"/>
<glyph unicode="Ẁ" horiz-adv-x="833" d="M605 0h-97q-9 0 -11 10l-38 434h-2l-192 -434q-5 -10 -14 -10h-97q-8 0 -10 10l-53 660q0 10 8 10h120q11 0 11 -10l17 -439h2l190 439q5 10 14 10h83q9 0 11 -10l38 -439h2l170 439q3 10 12 10h129q10 0 7 -10l-288 -660q-3 -10 -12 -10zM543 755h-87q-10 0 -17 8 l-96 115q-3 4 -1.5 7.5t6.5 3.5h108q13 0 20 -10l73 -114q2 -4 0.5 -7t-6.5 -3z" glyph-name="Wgrave"/>
<glyph unicode="ẁ" horiz-adv-x="735" d="M449 551h-81q-10 0 -17 10l-72 130q-2 4 0 7t7 3h104q12 0 15 -10l52 -130q3 -10 -8 -10zM520 0h-94q-10 0 -10 10l-30 290h-2l-135 -290q-5 -10 -13 -10h-94q-10 0 -10 10l-68 464q0 10 10 10h110q11 0 12 -10l25 -297h2l134 297q4 10 13 10h83q11 0 12 -10l30 -297h1 l127 297q4 10 14 10h121q11 0 6 -10l-231 -464q-5 -10 -13 -10z" glyph-name="wgrave"/>
<glyph unicode="Ẃ" horiz-adv-x="833" d="M605 0h-97q-9 0 -11 10l-38 434h-2l-192 -434q-5 -10 -14 -10h-97q-8 0 -10 10l-53 660q0 10 8 10h120q11 0 11 -10l17 -439h2l190 439q5 10 14 10h83q9 0 11 -10l38 -439h2l170 439q3 10 12 10h129q10 0 7 -10l-288 -660q-3 -10 -12 -10zM554 755h-87q-5 0 -6.5 3t1.5 7 l109 114q10 10 21 10h115q5 0 6.5 -3t-2.5 -7l-137 -116q-9 -8 -20 -8z" glyph-name="Wacute"/>
<glyph unicode="ẃ" horiz-adv-x="735" d="M520 0h-94q-10 0 -10 10l-30 290h-2l-135 -290q-5 -10 -13 -10h-94q-10 0 -10 10l-68 464q0 10 10 10h110q11 0 12 -10l25 -297h2l134 297q4 10 13 10h83q11 0 12 -10l30 -297h1l127 297q4 10 14 10h121q11 0 6 -10l-231 -464q-5 -10 -13 -10zM465 551h-86q-11 0 -4 10 l95 130q7 10 19 10h111q5 0 6 -3.5t-3 -7.5l-118 -129q-10 -10 -20 -10z" glyph-name="wacute"/>
<glyph unicode="Ẅ" horiz-adv-x="833" d="M605 0h-97q-9 0 -11 10l-38 434h-2l-192 -434q-5 -10 -14 -10h-97q-8 0 -10 10l-53 660q0 10 8 10h120q11 0 11 -10l17 -439h2l190 439q5 10 14 10h83q9 0 11 -10l38 -439h2l170 439q3 10 12 10h129q10 0 7 -10l-288 -660q-3 -10 -12 -10zM466 762h-89q-11 0 -9 10l18 94 q2 10 11 10h89q10 0 8 -10l-17 -94q-2 -10 -11 -10zM659 762h-89q-10 0 -8 10l18 94q2 10 11 10h88q10 0 8 -10l-17 -94q-2 -10 -11 -10z" glyph-name="Wdieresis"/>
<glyph unicode="ẅ" horiz-adv-x="735" d="M520 0h-94q-10 0 -10 10l-30 290h-2l-135 -290q-5 -10 -13 -10h-94q-10 0 -10 10l-68 464q0 10 10 10h110q11 0 12 -10l25 -297h2l134 297q4 10 13 10h83q11 0 12 -10l30 -297h1l127 297q4 10 14 10h121q11 0 6 -10l-231 -464q-5 -10 -13 -10zM377 566h-89q-10 0 -8 10 l18 95q2 10 11 10h88q10 0 8 -10l-17 -95q-2 -10 -11 -10zM570 566h-89q-10 0 -8 10l18 95q2 10 11 10h89q10 0 8 -10l-18 -95q-2 -10 -11 -10z" glyph-name="wdieresis"/>
<glyph unicode="Ỳ" horiz-adv-x="545" d="M401 755h-87q-10 0 -17 8l-96 115q-3 4 -1.5 7.5t6.5 3.5h108q13 0 20 -10l73 -114q2 -4 0.5 -7t-6.5 -3zM296 0h-120q-11 0 -9 10l47 261l-125 399q-2 4 1 7t8 3h117q11 0 14 -10l75 -255h3l165 255q6 10 15 10h125q13 0 7 -10l-265 -399l-47 -261q-2 -10 -11 -10z" glyph-name="Ygrave"/>
<glyph unicode="ỳ" horiz-adv-x="492" d="M341 551h-81q-10 0 -17 10l-72 130q-2 4 0 7t7 3h104q12 0 15 -10l52 -130q3 -10 -8 -10zM54 -180h-33q-11 0 -8 10l16 94q2 10 12 10h21q47 0 74 52l18 37l-94 451q-2 10 8 10h119q9 0 10 -10l44 -287h2l140 287q4 10 14 10h120q12 0 7 -10l-283 -516 q-42 -79 -83 -108.5t-104 -29.5z" glyph-name="ygrave"/>
<glyph unicode="–" horiz-adv-x="516" d="M487 210h-457q-9 0 -7 10l15 92q2 10 12 10h457q9 0 7 -10l-16 -92q-2 -10 -11 -10z" glyph-name="endash"/>
<glyph unicode="—" horiz-adv-x="861" d="M832 210h-802q-9 0 -7 10l15 92q2 10 12 10h802q9 0 7 -10l-16 -92q-2 -10 -11 -10z" glyph-name="emdash"/>
<glyph unicode="‘" horiz-adv-x="222" d="M205 476h-93q-10 0 -8 10l18 102q3 14 12 21l90 66q10 7 17 7q10 0 8 -11l-33 -185q-2 -10 -11 -10z" glyph-name="quoteleft"/>
<glyph unicode="’" horiz-adv-x="222" d="M112 474q-10 0 -8 11l32 185q2 10 11 10h94q10 0 8 -10l-18 -103q-3 -13 -12 -21l-90 -65q-10 -7 -17 -7z" glyph-name="quoteright"/>
<glyph unicode="‚" horiz-adv-x="223" d="M13 -89q-11 0 -9 11l33 185q2 10 11 10h93q11 0 9 -10l-18 -102q-3 -14 -12 -21l-91 -66q-8 -7 -16 -7z" glyph-name="quotesinglbase"/>
<glyph unicode="“" horiz-adv-x="400" d="M205 476h-93q-10 0 -8 10l18 102q3 14 12 21l90 66q10 7 17 7q10 0 8 -11l-33 -185q-2 -10 -11 -10zM383 476h-93q-10 0 -8 10l17 102q2 13 12 21l91 66q10 7 16 7q11 0 9 -11l-33 -185q-2 -10 -11 -10z" glyph-name="quotedblleft"/>
<glyph unicode="”" horiz-adv-x="400" d="M112 474q-10 0 -8 11l32 185q2 10 11 10h94q10 0 8 -10l-18 -103q-3 -13 -12 -21l-90 -65q-10 -7 -17 -7zM290 474q-10 0 -8 11l32 185q2 10 11 10h93q11 0 9 -10l-18 -103q-3 -13 -12 -21l-91 -65q-8 -7 -16 -7z" glyph-name="quotedblright"/>
<glyph unicode="„" horiz-adv-x="400" d="M13 -89q-11 0 -9 11l33 185q2 10 11 10h93q11 0 9 -10l-18 -102q-3 -14 -12 -21l-91 -66q-8 -7 -16 -7zM191 -89q-11 0 -9 11l33 185q2 10 11 10h93q10 0 8 -10l-17 -102q-2 -13 -13 -21l-90 -66q-10 -7 -16 -7z" glyph-name="quotedblbase"/>
<glyph unicode="†" horiz-adv-x="524" d="M247 -180h-112q-11 0 -8 10l90 506q1 6 -5 6h-139q-10 0 -8 10l18 96q2 10 11 10h137q7 0 8 6l36 206q2 10 11 10h112q11 0 9 -10l-37 -206q-2 -6 4 -6h139q10 0 8 -10l-17 -96q-2 -10 -12 -10h-136q-6 0 -8 -6l-89 -506q-3 -10 -12 -10z" glyph-name="dagger"/>
<glyph unicode="‡" horiz-adv-x="524" d="M253 -180h-112q-11 0 -8 10l31 173q2 6 -5 6h-138q-10 0 -8 10l17 96q2 10 11 10h138q7 0 8 6l41 238q2 6 -5 6h-138q-10 0 -8 10l17 96q2 10 11 10h138q7 0 8 6l30 173q2 10 11 10h112q11 0 9 -10l-31 -173q-2 -6 4 -6h139q10 0 8 -10l-17 -96q-2 -10 -12 -10h-137 q-5 0 -7 -6l-43 -238q-1 -6 5 -6h139q10 0 8 -10l-17 -96q-2 -10 -11 -10h-139q-6 0 -7 -6l-30 -173q-3 -10 -12 -10z" glyph-name="daggerdbl"/>
<glyph unicode="•" horiz-adv-x="417" d="M231 159q-65 0 -107.5 42t-42.5 107t42.5 107.5t107.5 42.5t107 -42.5t42 -107.5t-42 -107t-107 -42z" glyph-name="bullet"/>
<glyph unicode="…" horiz-adv-x="732" d="M143 0h-113q-11 0 -9 10l20 116q2 10 11 10h113q11 0 9 -10l-20 -116q-2 -10 -11 -10zM387 0h-113q-11 0 -9 10l20 116q2 10 11 10h113q11 0 9 -10l-20 -116q-2 -10 -11 -10zM631 0h-113q-11 0 -9 10l20 116q2 10 11 10h113q11 0 9 -10l-20 -116q-2 -10 -11 -10z" glyph-name="ellipsis"/>
<glyph unicode="‰" horiz-adv-x="1102" d="M574 67q27 0 39 26q7 13 18 73t11 76q0 31 -31 31q-27 0 -39 -25q-7 -14 -18 -74t-11 -76q0 -31 31 -31zM887 67q26 0 38 26q7 13 18 73t11 76q0 31 -31 31q-26 0 -39 -25q-6 -14 -17 -74t-11 -76q0 -31 31 -31zM563 -9q-49 0 -80.5 27.5t-31.5 76.5q0 31 10 89t24 85 q39 80 138 80q49 0 80.5 -27t31.5 -76q0 -33 -10 -89.5t-24 -84.5q-39 -81 -138 -81zM875 -9q-48 0 -79.5 27.5t-31.5 76.5q0 31 10 89t24 85q38 80 138 80q49 0 80.5 -27t31.5 -76q0 -32 -10.5 -89t-23.5 -85q-40 -81 -139 -81zM232 406q27 0 39 25q7 14 17.5 74t10.5 76 q0 31 -31 31q-26 0 -38 -25q-7 -14 -18 -74t-11 -76q0 -31 31 -31zM220 330q-49 0 -80.5 27t-31.5 76q0 31 10 89t24 86q40 80 138 80q49 0 80.5 -27.5t31.5 -76.5q0 -32 -10 -89t-24 -85q-39 -80 -138 -80zM203 -11h-79q-11 0 -3 10l502 682q7 10 16 10h80q10 0 4 -10 l-502 -682q-7 -10 -18 -10z" glyph-name="perthousand"/>
<glyph unicode="‹" horiz-adv-x="309" d="M210 41l-173 216q-6 8 2 14l250 216q3 3 6.5 1.5t2.5 -5.5l-21 -117q-3 -12 -13 -21l-94 -83q-5 -4 -2 -8l65 -84q9 -9 6 -21l-18 -104q-1 -4 -4.5 -5.5t-6.5 1.5z" glyph-name="guilsinglleft"/>
<glyph unicode="›" horiz-adv-x="309" d="M40 41q-4 -3 -7 -1.5t-2 5.5l20 117q3 12 13 21l95 83q5 4 2 8l-65 84q-9 9 -6 21l18 104q1 4 4.5 5.5t6.5 -1.5l172 -216q6 -8 -2 -14z" glyph-name="guilsinglright"/>
<glyph unicode="⁄" horiz-adv-x="236" d="M-76 -11h-79q-5 0 -6 3t2 7l501 682q6 10 17 10h80q9 0 3 -10l-500 -682q-7 -10 -18 -10z" glyph-name="fraction"/>
<glyph unicode="⁰" horiz-adv-x="343" d="M223 505q27 0 41 28q9 18 22.5 94t13.5 101q0 33 -31 33q-29 0 -41 -26q-9 -18 -23 -95.5t-14 -101.5q0 -33 32 -33zM208 422q-55 0 -87 30t-32 85q0 33 15 112t28 107q43 88 151 88q55 0 87 -30t32 -85q0 -34 -14.5 -112.5t-28.5 -106.5q-42 -88 -151 -88z" glyph-name="zero.superior"/>
<glyph unicode="⁴" horiz-adv-x="343" d="M317 430h-75q-9 0 -7 10l7 41q2 6 -5 6h-158q-10 0 -8 10l11 66q1 10 8 18l155 245q7 10 16 10h82q10 0 5 -10l-155 -253v-1h59q6 0 7 6l13 71q2 10 11 10h74q10 0 8 -10l-12 -71q-1 -6 4 -6h16q9 0 7 -10l-11 -65q-2 -10 -11 -10h-16q-4 0 -6 -6l-8 -41q-2 -10 -11 -10z " glyph-name="four.superior"/>
<glyph unicode="⁵" horiz-adv-x="343" d="M206 422q-52 0 -81 23t-33 64q-2 10 8 13l74 18q9 3 11 -5q6 -28 35 -28t41 24q12 21 12 49q0 35 -32 35q-21 0 -33 -14q-6 -6 -13 -6h-76q-10 0 -8 10l39 221q2 10 11 10h236q10 0 8 -10l-11 -64q-2 -10 -11 -10h-150q-6 0 -6 -6l-12 -65h1q26 17 61 17q45 0 71.5 -23.5 t26.5 -67.5q0 -56 -22 -102q-41 -83 -147 -83z" glyph-name="five.superior"/>
<glyph unicode="⁶" horiz-adv-x="343" d="M223 505q23 0 39.5 17t16.5 41q0 38 -39 38q-23 0 -39.5 -17t-16.5 -41q0 -17 10.5 -27.5t28.5 -10.5zM209 422q-57 0 -90.5 29t-33.5 78q0 57 55 135l116 162q7 10 17 10h90q4 0 5 -3.5t-2 -7.5l-102 -144v-1q8 2 17 2q44 0 71 -27t27 -71q0 -68 -48.5 -115t-121.5 -47z " glyph-name="six.superior"/>
<glyph unicode="⁷" horiz-adv-x="343" d="M210 430h-82q-12 0 -5 11l179 309v2h-71q-5 0 -7 -6l-8 -40q-2 -10 -11 -10h-75q-10 0 -8 10l22 120q2 10 11 10h255q11 0 9 -10l-13 -72q-1 -8 -7 -15l-174 -300q-6 -9 -15 -9z" glyph-name="seven.superior"/>
<glyph unicode="⁸" horiz-adv-x="343" d="M222 504q24 0 41 17.5t17 40.5q0 18 -11.5 29t-29.5 11q-24 0 -40.5 -17t-16.5 -41q0 -18 11.5 -29t28.5 -11zM253 679q20 0 34 15t14 36q0 14 -9 23t-24 9q-20 0 -34 -15t-14 -36q0 -14 9 -23t24 -9zM208 422q-56 0 -90.5 28.5t-34.5 75.5q0 71 63 117v1q-24 24 -24 59 q0 58 47 99.5t114 41.5q56 0 86 -29t30 -72q0 -59 -51 -99v-1q31 -29 31 -70q0 -65 -50 -108t-121 -43z" glyph-name="eight.superior"/>
<glyph unicode="⁹" horiz-adv-x="343" d="M251 665q23 0 39.5 17t16.5 41q0 17 -10.5 27.5t-28.5 10.5q-23 0 -39.5 -17t-16.5 -41q0 -38 39 -38zM217 430h-89q-4 0 -5 3.5t2 7.5l102 144v1q-8 -2 -17 -2q-45 0 -71.5 27t-26.5 71q0 68 48.5 115t121.5 47q57 0 90.5 -29t33.5 -78q0 -57 -55 -135l-116 -162 q-7 -10 -18 -10z" glyph-name="nine.superior"/>
<glyph unicode="₀" horiz-adv-x="343" d="M122 -81q27 0 41 28q9 18 22.5 94t13.5 101q0 33 -31 33q-29 0 -41 -26q-9 -18 -23 -95.5t-14 -101.5q0 -33 32 -33zM107 -164q-55 0 -87 30t-32 85q0 33 15 112t28 107q43 88 151 88q55 0 87 -30t32 -85q0 -34 -14.5 -112.5t-28.5 -106.5q-42 -88 -151 -88z" glyph-name="zero.inferior"/>
<glyph unicode="₁" horiz-adv-x="343" d="M168 -156h-82q-10 0 -8 10l51 287h-2l-69 -40q-4 -3 -7.5 -1t-2.5 7l15 80q1 10 12 15l66 41q11 7 19 7h79q10 0 8 -10l-68 -386q-2 -10 -11 -10z" glyph-name="one.inferior"/>
<glyph unicode="₂" horiz-adv-x="343" d="M233 -156h-251q-10 0 -8 10l12 63q2 10 9 16l166 150q35 31 35 62q0 30 -31 30q-33 0 -49 -41q-3 -10 -11 -8l-72 12q-8 2 -6 11q13 46 54 77.5t103 31.5q52 0 82.5 -27.5t30.5 -71.5q0 -66 -68 -126l-112 -103v-1h131q10 0 8 -10l-11 -65q-2 -10 -12 -10z" glyph-name="two.inferior"/>
<glyph unicode="₃" horiz-adv-x="343" d="M110 -164q-54 0 -86.5 25.5t-36.5 71.5q-2 10 8 12l74 14q8 1 11 -8q9 -32 40 -32q21 0 36.5 16t15.5 39q0 36 -42 36h-16q-10 0 -8 10l11 62q2 10 11 10h14q23 0 37 14t14 38q0 31 -32 31q-29 0 -45 -28q-4 -8 -13 -7l-68 14q-9 2 -6 11q16 41 55.5 67t95.5 26 q55 0 85.5 -26t30.5 -68q0 -69 -59 -104v-1q35 -20 35 -70q0 -69 -46 -111t-116 -42z" glyph-name="three.inferior"/>
<glyph unicode="₄" horiz-adv-x="343" d="M216 -156h-75q-9 0 -7 10l7 41q1 6 -5 6h-158q-10 0 -8 10l11 66q1 10 8 18l155 245q7 10 16 10h82q10 0 5 -10l-155 -253v-1h59q5 0 7 6l13 71q2 10 11 10h74q10 0 8 -10l-12 -71q-2 -6 4 -6h16q9 0 7 -10l-11 -65q-2 -10 -11 -10h-16q-5 0 -6 -6l-8 -41q-2 -10 -11 -10 z" glyph-name="four.inferior"/>
<glyph unicode="₅" horiz-adv-x="343" d="M104 -164q-52 0 -81 23t-33 64q-2 10 8 13l74 18q9 3 11 -5q6 -28 35 -28t41 24q12 21 12 49q0 35 -32 35q-21 0 -33 -14q-6 -6 -13 -6h-76q-10 0 -8 10l39 221q2 10 11 10h236q10 0 8 -10l-11 -64q-2 -10 -11 -10h-150q-6 0 -6 -6l-12 -65h1q26 17 61 17 q45 0 71.5 -23.5t26.5 -67.5q0 -56 -22 -102q-41 -83 -147 -83z" glyph-name="five.inferior"/>
<glyph unicode="₆" horiz-adv-x="343" d="M122 -81q23 0 39.5 17t16.5 41q0 38 -39 38q-23 0 -39.5 -17t-16.5 -41q0 -17 10.5 -27.5t28.5 -10.5zM108 -164q-57 0 -90.5 29t-33.5 78q0 57 55 135l116 162q7 10 17 10h90q4 0 5 -3.5t-2 -7.5l-102 -144v-1q8 2 17 2q44 0 71 -27t27 -71q0 -68 -48.5 -115t-121.5 -47 z" glyph-name="six.inferior"/>
<glyph unicode="₇" horiz-adv-x="343" d="M108 -156h-82q-12 0 -5 11l179 309v2h-71q-5 0 -7 -6l-8 -40q-2 -10 -11 -10h-75q-10 0 -8 10l22 120q2 10 11 10h255q11 0 9 -10l-13 -72q-1 -8 -7 -15l-174 -300q-6 -9 -15 -9z" glyph-name="seven.inferior"/>
<glyph unicode="₈" horiz-adv-x="343" d="M121 -82q24 0 41 17.5t17 40.5q0 18 -11.5 29t-29.5 11q-24 0 -40.5 -17t-16.5 -41q0 -18 11.5 -29t28.5 -11zM152 93q20 0 34 15t14 36q0 14 -9 23t-24 9q-20 0 -34 -15t-14 -36q0 -14 9 -23t24 -9zM107 -164q-56 0 -90.5 28.5t-34.5 75.5q0 71 63 117v1q-24 24 -24 59 q0 58 47 99.5t114 41.5q56 0 86 -29t30 -72q0 -59 -51 -99v-1q31 -29 31 -70q0 -65 -50 -108t-121 -43z" glyph-name="eight.inferior"/>
<glyph unicode="₉" horiz-adv-x="343" d="M150 79q23 0 39.5 17t16.5 41q0 17 -10.5 27.5t-28.5 10.5q-23 0 -39.5 -17t-16.5 -41q0 -38 39 -38zM116 -156h-89q-4 0 -5 3.5t2 7.5l102 144v1q-8 -2 -17 -2q-45 0 -71.5 27t-26.5 71q0 68 48.5 115t121.5 47q57 0 90.5 -29t33.5 -78q0 -57 -55 -135l-116 -162 q-7 -10 -18 -10z" glyph-name="nine.inferior"/>
<glyph unicode="€" d="M269 -11q-86 0 -133.5 45t-47.5 130q0 30 7 69q1 6 -5 6h-36q-10 0 -8 10l10 59q2 10 12 10h36q6 0 7 6l6 37q1 6 -5 6h-35q-10 0 -8 10l10 58q2 10 12 10h35q6 0 7 6q9 55 31 100q68 140 229 140q138 0 171 -121q3 -9 -7 -14l-98 -41q-10 -6 -13 5q-11 29 -27 43.5 t-44 14.5q-57 0 -87 -61q-14 -30 -19 -66q-1 -6 5 -6h160q11 0 9 -10l-21 -58q-3 -10 -12 -10h-150q-6 0 -7 -6l-6 -37q-1 -6 5 -6h140q10 0 8 -10l-20 -59q-3 -10 -12 -10h-130q-6 0 -7 -6q-6 -31 -6 -54q0 -77 65 -77q51 0 91 59q7 8 15 5l86 -43q8 -5 3 -13 q-76 -121 -216 -121z" glyph-name="Euro"/>
<glyph unicode="ℓ" horiz-adv-x="441" d="M283 498l-22 -120q97 96 97 185q0 33 -22 33q-18 0 -31 -21t-22 -77zM69 145q-9 -5 -13 2l-31 61q-3 8 4 14l94 64l34 192q37 213 190 213q52 0 82.5 -30t30.5 -84q0 -160 -222 -333l-17 -94q-2 -14 -2 -18q0 -35 31 -35q24 0 58 26q9 5 13 -2l32 -64q3 -6 -5 -14 q-65 -54 -137 -54q-116 0 -116 113q0 24 4 45l3 20z" glyph-name="afii61289"/>
<glyph unicode="™" horiz-adv-x="843" d="M280 286h-73q-10 0 -10 10v297q0 6 -6 6h-97q-10 0 -10 10v61q0 10 10 10h299q10 0 10 -10v-61q0 -10 -10 -10h-97q-6 0 -6 -6v-297q0 -10 -10 -10zM829 286h-65q-10 0 -10 10v202h-3l-66 -146q-5 -10 -13 -10h-45q-8 0 -13 10l-66 146h-2v-202q0 -10 -10 -10h-65 q-10 0 -10 10v374q0 10 10 10h64q9 0 14 -10l101 -221h3l98 221q5 10 14 10h64q10 0 10 -10v-374q0 -10 -10 -10z" glyph-name="trademark"/>
<glyph unicode="℮" horiz-adv-x="586" d="M432 276v132q-61 56 -134 56q-77 0 -133 -56v-132h267zM298 -11q-106 0 -171 73t-65 181t65 180t171 72t171.5 -70t66.5 -182h-371v-167q55 -52 133 -52q113 0 175 110l33 -22q-43 -65 -90.5 -94t-117.5 -29z" glyph-name="estimated"/>
<glyph unicode="⅓" horiz-adv-x="885" d="M634 -8q-54 0 -86.5 25.5t-36.5 71.5q-2 10 8 12l74 14q8 1 11 -8q9 -32 40 -32q21 0 36.5 16t15.5 39q0 36 -42 36h-16q-10 0 -8 10l11 62q2 10 11 10h14q23 0 37 14t14 38q0 31 -32 31q-29 0 -45 -28q-4 -8 -13 -7l-68 14q-9 2 -6 11q16 41 55.5 67t95.5 26 q55 0 85.5 -26t30.5 -68q0 -69 -59 -104v-1q35 -20 35 -70q0 -69 -46 -111t-116 -42zM261 274h-82q-10 0 -8 10l51 287h-2l-69 -40q-4 -3 -7.5 -1t-2.5 7l15 80q1 10 12 15l66 41q11 7 19 7h79q10 0 8 -10l-68 -386q-2 -10 -11 -10zM223 -11h-79q-4 0 -5.5 3t1.5 7l501 682 q6 10 17 10h80q9 0 3 -10l-500 -682q-7 -10 -18 -10z" glyph-name="onethird"/>
<glyph unicode="⅔" horiz-adv-x="978" d="M727 -8q-54 0 -86.5 25.5t-36.5 71.5q-2 10 8 12l74 14q8 1 11 -8q9 -32 40 -32q21 0 36.5 16t15.5 39q0 36 -42 36h-16q-10 0 -8 10l11 62q2 10 11 10h14q23 0 37 14t14 38q0 31 -32 31q-29 0 -45 -28q-4 -8 -13 -7l-68 14q-9 2 -6 11q16 41 55.5 67t95.5 26 q55 0 85.5 -26t30.5 -68q0 -69 -59 -104v-1q35 -20 35 -70q0 -69 -46 -111t-116 -42zM362 274h-251q-10 0 -8 10l12 63q2 10 9 16l166 150q35 31 35 62q0 30 -31 30q-33 0 -49 -41q-3 -10 -11 -8l-72 12q-8 2 -6 11q13 46 54 77.5t103 31.5q52 0 82.5 -27.5t30.5 -71.5 q0 -66 -68 -126l-112 -103v-1h131q10 0 8 -10l-11 -65q-2 -10 -12 -10zM316 -11h-79q-5 0 -6 3t2 7l501 682q6 10 17 10h80q9 0 3 -10l-500 -682q-7 -10 -18 -10z" glyph-name="twothirds"/>
<glyph unicode="⅛" horiz-adv-x="884" d="M641 74q24 0 41 17.5t17 40.5q0 18 -11.5 29t-29.5 11q-24 0 -40.5 -17t-16.5 -41q0 -18 11.5 -29t28.5 -11zM672 249q20 0 34 15t14 36q0 14 -9 23t-24 9q-20 0 -34 -15t-14 -36q0 -14 9 -23t24 -9zM627 -8q-56 0 -90.5 28.5t-34.5 75.5q0 71 63 117v1q-24 24 -24 59 q0 58 47 99.5t114 41.5q56 0 86 -29t30 -72q0 -59 -51 -99v-1q31 -29 31 -70q0 -65 -50 -108t-121 -43zM261 274h-82q-10 0 -8 10l51 287h-2l-69 -40q-4 -3 -7.5 -1t-2.5 7l15 80q1 10 12 15l66 41q11 7 19 7h79q10 0 8 -10l-68 -386q-2 -10 -11 -10zM223 -11h-79 q-4 0 -5.5 3t1.5 7l501 682q6 10 17 10h80q9 0 3 -10l-500 -682q-7 -10 -18 -10z" glyph-name="oneeighth"/>
<glyph unicode="⅜" horiz-adv-x="940" d="M234 266q-54 0 -86.5 25.5t-36.5 71.5q-2 10 8 12l74 14q8 1 11 -8q9 -32 40 -32q21 0 36.5 16t15.5 39q0 36 -42 36h-16q-10 0 -8 10l11 62q2 10 11 10h14q23 0 37 14t14 38q0 31 -32 31q-29 0 -45 -28q-4 -8 -13 -7l-68 14q-9 2 -6 11q16 41 55.5 67t95.5 26 q55 0 85.5 -26t30.5 -68q0 -69 -59 -104v-1q35 -20 35 -70q0 -69 -46 -111t-116 -42zM697 74q24 0 41 17.5t17 40.5q0 18 -11.5 29t-29.5 11q-24 0 -40.5 -17t-16.5 -41q0 -18 11.5 -29t28.5 -11zM728 249q20 0 34 15t14 36q0 14 -9 23t-24 9q-20 0 -34 -15t-14 -36 q0 -14 9 -23t24 -9zM683 -8q-56 0 -90.5 28.5t-34.5 75.5q0 71 63 117v1q-24 24 -24 59q0 58 47 99.5t114 41.5q56 0 86 -29t30 -72q0 -59 -51 -99v-1q31 -29 31 -70q0 -65 -50 -108t-121 -43zM279 -11h-79q-4 0 -5.5 3t1.5 7l501 682q6 10 17 10h80q9 0 3 -10l-500 -682 q-7 -10 -18 -10z" glyph-name="threeeighths"/>
<glyph unicode="⅝" horiz-adv-x="944" d="M237 266q-52 0 -81 23t-33 64q-2 10 8 13l74 18q9 3 11 -5q6 -28 35 -28t41 24q12 21 12 49q0 35 -32 35q-21 0 -33 -14q-6 -6 -13 -6h-76q-10 0 -8 10l39 221q2 10 11 10h236q10 0 8 -10l-11 -64q-2 -10 -11 -10h-150q-6 0 -6 -6l-12 -65h1q26 17 61 17q45 0 71.5 -23.5 t26.5 -67.5q0 -56 -22 -102q-41 -83 -147 -83zM701 74q24 0 41 17.5t17 40.5q0 18 -11.5 29t-29.5 11q-24 0 -40.5 -17t-16.5 -41q0 -18 11.5 -29t28.5 -11zM732 249q20 0 34 15t14 36q0 14 -9 23t-24 9q-20 0 -34 -15t-14 -36q0 -14 9 -23t24 -9zM687 -8q-56 0 -90.5 28.5 t-34.5 75.5q0 71 63 117v1q-24 24 -24 59q0 58 47 99.5t114 41.5q56 0 86 -29t30 -72q0 -59 -51 -99v-1q31 -29 31 -70q0 -65 -50 -108t-121 -43zM283 -11h-79q-4 0 -5.5 3t1.5 7l501 682q6 10 17 10h80q9 0 3 -10l-500 -682q-7 -10 -18 -10z" glyph-name="fiveeighths"/>
<glyph unicode="⅞" horiz-adv-x="871" d="M226 274h-81q-12 0 -5 11l179 309v2h-71q-6 0 -7 -6l-8 -40q-2 -10 -11 -10h-75q-10 0 -8 10l22 120q2 10 11 10h255q11 0 9 -10l-12 -67q-1 -8 -8 -20l-174 -300q-6 -9 -16 -9zM628 74q24 0 41 17.5t17 40.5q0 18 -11.5 29t-29.5 11q-24 0 -40.5 -17t-16.5 -41 q0 -18 11.5 -29t28.5 -11zM659 249q20 0 34 15t14 36q0 14 -9 23t-24 9q-20 0 -34 -15t-14 -36q0 -14 9 -23t24 -9zM614 -8q-56 0 -90.5 28.5t-34.5 75.5q0 71 63 117v1q-24 24 -24 59q0 58 47 99.5t114 41.5q56 0 86 -29t30 -72q0 -59 -51 -99v-1q31 -29 31 -70 q0 -65 -50 -108t-121 -43zM210 -11h-79q-5 0 -6 3t2 7l501 682q6 10 17 10h80q9 0 3 -10l-500 -682q-7 -10 -18 -10z" glyph-name="seveneighths"/>
<glyph unicode="∂" horiz-adv-x="523" d="M231 103q93 0 139 168q-39 41 -92 41q-52 0 -84.5 -40t-32.5 -94q0 -35 18.5 -55t51.5 -20zM205 -11q-79 0 -125 47.5t-46 124.5q0 105 68 181t175 76q77 0 113 -48h2q7 44 7 71q0 64 -25 100.5t-72 36.5q-49 0 -104 -38q-10 -5 -13 3l-37 72q-4 9 4 15q80 61 177 61 q95 0 146 -59t51 -169q0 -66 -17.5 -147.5t-49.5 -147.5q-85 -179 -254 -179z" glyph-name="partialdiff"/>
<glyph unicode="∏" horiz-adv-x="668" d="M589 -180h-127q-10 0 -10 10v773q0 6 -6 6h-224q-6 0 -6 -6v-773q0 -10 -10 -10h-127q-10 0 -10 10v900q0 10 10 10h510q10 0 10 -10v-900q0 -10 -10 -10z" glyph-name="product"/>
<glyph unicode="∑" horiz-adv-x="544" d="M500 -180h-456q-10 0 -10 10v107q0 5 2 9l173 371l-168 291q-3 6 -3 11v111q0 10 10 10h442q10 0 10 -10v-111q0 -10 -10 -10h-286l157 -276q3 -7 0 -14l-170 -368h309q10 0 10 -10v-111q0 -10 -10 -10z" glyph-name="summation"/>
<glyph unicode="−" d="M492 219h-425q-10 0 -10 10v94q0 10 10 10h425q10 0 10 -10v-94q0 -10 -10 -10z" glyph-name="minus"/>
<glyph unicode="∕" horiz-adv-x="236" d="M-76 -11h-79q-5 0 -6 3t2 7l501 682q6 10 17 10h80q9 0 3 -10l-500 -682q-7 -10 -18 -10z" glyph-name="uni2215"/>
<glyph unicode="∙" horiz-adv-x="244" d="M179 197h-114q-11 0 -9 10l20 115q2 10 11 10h114q11 0 9 -10l-20 -115q-2 -10 -11 -10z" glyph-name="uni2219"/>
<glyph unicode="√" horiz-adv-x="644" d="M297 -180h-90q-10 0 -11 10l-74 254q-2 6 -9 3l-60 -29q-10 -4 -13 4l-22 70q-3 9 6 13l164 74q9 5 12 -4l63 -232h3l323 747q4 10 14 10h100q5 0 6.5 -3t-0.5 -7l-397 -900q-6 -10 -15 -10z" glyph-name="radical"/>
<glyph unicode="∞" horiz-adv-x="754" d="M211 170q23 0 48 17t65 59q-38 43 -63 60t-50 17q-35 0 -55 -21t-20 -54q0 -34 20.5 -56t54.5 -22zM559 170q35 0 55 22.5t20 55.5q0 32 -20 53.5t-55 21.5q-24 0 -49 -17t-64 -60q38 -43 63 -59.5t50 -16.5zM564 81q-89 0 -179 95q-91 -95 -180 -95q-71 0 -117 46 t-46 119q0 74 46.5 120t118.5 46q83 0 178 -98q50 53 91 75.5t87 22.5q71 0 118 -46t47 -120q0 -73 -46.5 -119t-117.5 -46z" glyph-name="infinity"/>
<glyph unicode="∫" horiz-adv-x="408" d="M37 -180q-30 0 -48 3q-10 2 -8 11l16 91q2 12 11 10q20 -2 30 -2q27 0 42.5 18t22.5 60l92 522q19 111 67.5 159t134.5 48q29 0 49 -3q10 -2 8 -11l-16 -91q-2 -12 -12 -10q-18 2 -29 2q-27 0 -42.5 -18t-23.5 -60l-92 -522q-19 -111 -67 -159t-135 -48z" glyph-name="integral"/>
<glyph unicode="≈" d="M370 91q-50 0 -103 34q-39 25 -65 25q-40 0 -68 -48q-5 -8 -14 -2l-64 38q-7 5 -3 14q21 46 59.5 74t84.5 28q48 0 102 -33q43 -26 66 -26q38 0 67 49q5 9 15 2l63 -39q9 -4 3 -14q-21 -46 -59 -74t-84 -28zM370 297q-50 0 -103 34q-41 26 -65 26q-40 0 -68 -50 q-5 -8 -14 -2l-64 39q-7 5 -3 14q21 47 59.5 75t84.5 28q48 0 102 -35q41 -25 66 -25q37 0 67 48q6 9 15 3l63 -39q9 -4 3 -14q-21 -46 -59 -74t-84 -28z" glyph-name="approxequal"/>
<glyph unicode="≠" d="M191 7h-76q-11 0 -5 10l48 98h-84q-10 0 -10 10v94q0 10 10 10h141l46 94h-187q-10 0 -10 10v94q0 10 10 10h244l49 98q4 10 15 10h75q11 0 5 -10l-49 -98h86q10 0 10 -10v-94q0 -10 -10 -10h-142l-46 -94h188q10 0 10 -10v-94q0 -10 -10 -10h-245l-48 -98 q-4 -10 -15 -10z" glyph-name="notequal"/>
<glyph unicode="≤" d="M488 0h-425q-10 0 -10 10v94q0 10 10 10h425q10 0 10 -10v-94q0 -10 -10 -10zM488 161l-425 168q-10 3 -10 14v80q0 10 10 13l425 169q10 3 10 -7v-102q0 -9 -10 -13l-264 -99v-2l264 -99q10 -4 10 -13v-103q0 -9 -10 -6z" glyph-name="lessequal"/>
<glyph unicode="≥" d="M501 0h-425q-10 0 -10 10v94q0 10 10 10h425q10 0 10 -10v-94q0 -10 -10 -10zM501 329l-425 -168q-10 -3 -10 6v103q0 9 10 13l263 99v2l-263 99q-10 4 -10 13v102q0 10 10 7l425 -169q10 -3 10 -13v-80q0 -11 -10 -14z" glyph-name="greaterequal"/>
<glyph unicode="◊" horiz-adv-x="543" d="M246 69l170 268l-71 252h-2l-170 -268l71 -252h2zM273 -52h-94q-10 0 -11 10l-104 364q-1 7 3 14l231 364q7 10 16 10h93q10 0 13 -10l104 -364q1 -7 -3 -14l-232 -364q-6 -10 -16 -10z" glyph-name="lozenge"/>
<glyph unicode="" horiz-adv-x="506" d="M279 114h-71q-10 0 -10 10v67q0 10 10 10h71q10 0 10 -10v-67q0 -10 -10 -10zM277 243h-68q-10 0 -10 10v24q0 29 19 54l46 60q23 30 23 52q0 18 -11.5 30t-29.5 12q-38 0 -48 -39q-2 -11 -11 -9l-65 10q-10 0 -8 11q9 49 44.5 77t91.5 28t91.5 -33.5t35.5 -83.5 q0 -46 -32 -82l-45 -60q-13 -18 -13 -38v-13q0 -10 -10 -10zM431 65q6 0 6 6v538q0 6 -6 6h-356q-6 0 -6 -6v-538q0 -6 6 -6h356zM496 0h-486q-10 0 -10 10v660q0 10 10 10h486q10 0 10 -10v-660q0 -10 -10 -10z" glyph-name="uniF8FF"/>
<glyph horiz-adv-x="0" glyph-name="CR"/>
<glyph horiz-adv-x="441" d="M425 755h-87q-10 0 -17 8l-96 115q-3 4 -1.5 7.5t6.5 3.5h108q13 0 20 -10l73 -114q2 -4 0.5 -7t-6.5 -3z" glyph-name="grave.cap"/>
<glyph horiz-adv-x="441" d="M300 755h-87q-5 0 -6.5 3t1.5 7l109 114q10 10 21 10h115q5 0 6.5 -3t-2.5 -7l-137 -116q-9 -8 -20 -8z" glyph-name="acute.cap"/>
<glyph horiz-adv-x="441" d="M462 748h-71q-11 0 -19 10l-41 57h-2l-61 -57q-10 -10 -23 -10h-80q-5 0 -6 3t3 7l122 131q8 9 20 9h72q11 0 16 -9l76 -131q2 -4 0 -7t-6 -3z" glyph-name="circumflex.cap"/>
<glyph horiz-adv-x="441" d="M349 744h-72q-11 0 -16 9l-76 131q-2 4 0 7t6 3h71q12 0 19 -10l41 -57h1l62 57q10 10 23 10h80q5 0 6 -3t-3 -7l-122 -131q-8 -9 -20 -9z" glyph-name="caron.cap"/>
<glyph horiz-adv-x="441" d="M226 491q-10 0 -8 12l29 167q2 10 11 10h91q11 0 9 -10l-15 -82q-1 -10 -11 -20l-90 -69q-9 -8 -16 -8z" glyph-name="caron.alt"/>
<glyph horiz-adv-x="441" d="M377 750q-32 0 -69 22q-29 18 -52 18q-35 0 -75 -32q-3 -3 -6 -1.5t-2 5.5l12 69q2 12 12 20q37 34 79 34q32 0 70 -22q29 -18 52 -18q36 0 74 32q4 3 7 1.5t2 -5.5l-12 -69q-2 -10 -12 -20q-39 -34 -80 -34z" glyph-name="tilde.cap"/>
<glyph horiz-adv-x="441" d="M266 762h-89q-11 0 -9 10l18 94q2 10 11 10h89q10 0 8 -10l-17 -94q-2 -10 -11 -10zM459 762h-89q-10 0 -8 10l18 94q2 10 11 10h88q10 0 8 -10l-17 -94q-2 -10 -11 -10z" glyph-name="dieresis.cap"/>
<glyph horiz-adv-x="441" d="M456 773h-272q-10 0 -8 10l12 72q2 10 11 10h273q10 0 8 -10l-13 -72q-2 -10 -11 -10z" glyph-name="macron.cap"/>
<glyph horiz-adv-x="441" d="M315 746q-58 0 -91.5 30.5t-33.5 80.5q0 11 1 17q2 11 11 11h55q11 0 12 -10q6 -45 60 -45t78 45q6 10 15 10h54q11 0 8 -11q-12 -55 -59.5 -91.5t-109.5 -36.5z" glyph-name="breve.cap"/>
<glyph horiz-adv-x="441" d="M320 770q22 0 38 17t16 43q0 17 -10 27.5t-27 10.5q-23 0 -38.5 -17t-15.5 -43q0 -17 10 -27.5t27 -10.5zM311 714q-39 0 -63.5 23.5t-24.5 61.5q0 52 34.5 88.5t88.5 36.5q39 0 63 -23t24 -61q0 -52 -34 -89t-88 -37z" glyph-name="ring.cap"/>
<glyph horiz-adv-x="441" d="M226 756h-74q-12 0 -5 10l88 112q7 10 18 10h91q4 0 5.5 -3t-1.5 -7l-100 -112q-10 -10 -22 -10zM390 756h-74q-11 0 -4 10l88 112q6 10 18 10h90q4 0 5.5 -3t-1.5 -7l-100 -112q-10 -10 -22 -10z" glyph-name="hungarumlaut.cap"/>
<glyph horiz-adv-x="441" d="M373 762h-111q-10 0 -8 10l18 94q2 10 11 10h110q10 0 8 -10l-17 -94q-2 -10 -11 -10z" glyph-name="dotaccent.cap"/>
<glyph horiz-adv-x="441" d="M96 -234q-11 0 -9 11l28 163q2 10 12 10h96q11 0 9 -10l-14 -77q-3 -12 -12 -20l-95 -70q-8 -7 -15 -7z" glyph-name="commaaccent"/>
<glyph horiz-adv-x="441" d="M331 562h-96q-10 0 -8 10l13 77q3 13 13 20l94 69q10 8 16 8q10 0 8 -12l-28 -162q-2 -10 -12 -10z" glyph-name="commaaccent.alt"/>
<glyph horiz-adv-x="624" d="M416 116q6 0 5 6l-50 378h-3l-185 -378q-3 -6 3 -6h230zM566 0h-581q-11 0 -6 10l344 660q5 10 14 10h120q10 0 12 -10l105 -660q2 -10 -8 -10z" glyph-name="uni0394"/>
<glyph horiz-adv-x="613" d="M519 0h-204q-10 0 -8 10l16 96q1 9 12 14q43 16 68 65t44 155q16 95 16 127q0 99 -93 99q-81 0 -118 -77q-20 -39 -40 -149q-13 -72 -13 -118q0 -82 48 -102q8 -4 7 -14l-17 -96q-2 -10 -10 -10h-204q-11 0 -9 10l18 99q2 10 12 10h55v2q-39 34 -39 114q0 41 11 105 q23 133 51 188q82 163 270 163q100 0 157.5 -53.5t57.5 -155.5q0 -45 -18 -142q-29 -170 -104 -219v-2h54q10 0 8 -10l-17 -99q-2 -10 -11 -10z" glyph-name="uni03A9"/>
<glyph horiz-adv-x="534" d="M427 0h-114q-10 0 -8 10l7 39h-1q-42 -60 -94 -60q-39 0 -55 21h-1l-32 -180q-2 -10 -10 -10h-115q-11 0 -9 10l114 644q2 10 11 10h114q10 0 8 -10l-49 -279q-3 -15 -3 -29q0 -63 58 -63q34 0 58 25t32 67l49 279q2 10 10 10h115q11 0 9 -10l-83 -464q-2 -10 -11 -10z " glyph-name="uni03BC"/>
<glyph d="M254 109q59 0 99 48t40 112q0 49 -24 77.5t-69 28.5q-60 0 -99.5 -48.5t-39.5 -112.5q0 -49 24 -77t69 -28zM233 -11q-94 0 -150 56t-56 147q0 130 82 216.5t212 86.5q94 0 149.5 -56t55.5 -148q0 -130 -82 -216t-211 -86z" glyph-name="zero.onum"/>
<glyph d="M322 0h-114q-10 0 -8 10l60 338h-2l-136 -50q-5 -2 -8 -0.5t-2 7.5l19 105q1 9 10 13l137 56q11 5 21 5h108q10 0 8 -10l-82 -464q-2 -10 -11 -10z" glyph-name="one.onum"/>
<glyph d="M431 0h-395q-11 0 -9 10l15 82q2 10 10 14l219 121q51 28 71.5 51t20.5 52q0 25 -16.5 39.5t-47.5 14.5q-65 0 -94 -66q-5 -10 -14 -8l-99 17q-9 2 -6 12q20 67 83 111.5t153 44.5q82 0 129 -39.5t47 -103.5q0 -61 -30.5 -104t-97.5 -80l-103 -57v-2h182q10 0 8 -10 l-16 -89q-2 -10 -10 -10z" glyph-name="two.onum"/>
<glyph d="M198 -191q-83 0 -132.5 42.5t-49.5 109.5q0 15 8 16l102 20q10 2 10 -8q4 -30 24.5 -48.5t53.5 -18.5q46 0 75 34t29 85q0 74 -98 74h-35q-10 0 -8 10l16 89q1 8 10 17l128 137v3h-221q-10 0 -8 10l16 93q2 10 11 10h369q10 0 8 -10l-16 -89q-2 -10 -8 -16l-152 -158v-2 q57 -10 88 -46.5t31 -96.5q0 -113 -70 -185t-181 -72z" glyph-name="three.onum"/>
<glyph d="M364 -180h-112q-9 0 -7 10l28 164q1 6 -4 6h-246q-10 0 -8 10l18 96q2 9 5 14l225 356q3 8 15 8h119q11 0 6 -9l-225 -357l-1 -2h112q5 0 7 6l25 141q2 10 11 10h112q10 0 8 -10l-25 -141q-1 -6 5 -6h43q10 0 8 -10l-17 -96q-2 -10 -10 -10h-44q-6 0 -8 -6l-28 -164 q-2 -10 -12 -10z" glyph-name="four.onum"/>
<glyph d="M210 -191q-82 0 -129 41t-47 108q0 12 8 13l107 19q8 2 10 -8q7 -60 66 -60q55 0 79 50q25 54 25 109q0 66 -63 66q-25 0 -44.5 -12.5t-29.5 -30.5q-4 -10 -14 -10h-102q-8 0 -7 10l65 370q2 10 10 10h365q11 0 9 -10l-17 -95q-2 -10 -11 -10h-251q-5 0 -7 -6l-25 -139h2 q39 35 107 35q71 0 109 -37t38 -109q0 -103 -40 -185q-57 -119 -213 -119z" glyph-name="five.onum"/>
<glyph d="M254 102q46 0 77 35.5t31 86.5q0 35 -19.5 55.5t-52.5 20.5q-46 0 -77 -35.5t-31 -86.5q0 -34 19.5 -55t52.5 -21zM236 -11q-84 0 -135 45.5t-51 123.5q0 100 79 213l212 302q5 7 14 7h120q5 0 6.5 -3t-1.5 -7l-184 -266l2 -1q12 7 43 7q69 0 112 -43t43 -116 q0 -112 -73 -187t-187 -75z" glyph-name="six.onum"/>
<glyph d="M195 -180h-118q-11 0 -5 11l297 534v2h-139q-6 0 -7 -6l-14 -72q-2 -10 -11 -10h-106q-10 0 -8 10l33 185q2 10 11 10h392q10 0 8 -10l-17 -97q-1 -6 -6 -17l-295 -531q-5 -9 -15 -9z" glyph-name="seven.onum"/>
<glyph d="M255 102q46 0 78 35t32 85q0 35 -20.5 56t-55.5 21q-46 0 -77.5 -35t-31.5 -85q0 -35 20 -56t55 -21zM308 411q39 0 66.5 30t27.5 72q0 29 -16.5 47t-46.5 18q-38 0 -65.5 -30t-27.5 -72q0 -29 16.5 -47t45.5 -18zM238 -11q-87 0 -139.5 45t-52.5 121q0 60 29 114t82 86 l1 2q-43 36 -43 103q0 92 66 161.5t176 69.5q83 0 130 -45t47 -115q0 -52 -24 -97.5t-68 -76.5l-1 -2q56 -45 56 -121q0 -102 -73.5 -173.5t-185.5 -71.5z" glyph-name="eight.onum"/>
<glyph d="M264 184q46 0 77 35.5t31 86.5q0 34 -20 55t-53 21q-46 0 -77 -35.5t-31 -86.5q0 -35 19.5 -55.5t53.5 -20.5zM210 -180h-120q-13 0 -6 10l173 250l-1 1q-14 -7 -43 -7q-69 0 -112.5 43t-43.5 116q0 112 73 187t187 75q84 0 135.5 -45.5t51.5 -123.5q0 -97 -79 -213 l-201 -286q-5 -7 -14 -7z" glyph-name="nine.onum"/>
<glyph d="M191 164q0 -28 15.5 -45t43.5 -17q52 0 74 48q15 29 42 176.5t27 189.5q0 28 -15.5 45t-43.5 17q-52 0 -74 -48q-15 -29 -42 -176.5t-27 -189.5zM56 153q0 56 27 207.5t49 197.5q65 133 218 133q81 0 129.5 -43t48.5 -121q0 -56 -27 -207.5t-49 -197.5 q-65 -133 -218 -133q-81 0 -129.5 43t-48.5 121z" glyph-name="zero.prop"/>
<glyph horiz-adv-x="390" d="M108 10l92 519h-2l-120 -76q-5 -3 -8 -1t-2 8l20 117q2 10 9 14l127 83q10 6 18 6h108q11 0 9 -10l-117 -660q-2 -10 -11 -10h-114q-11 0 -9 10z" glyph-name="one.prop"/>
<glyph horiz-adv-x="505" d="M11 10l16 88q3 10 9 16l279 286q59 62 59 116q0 28 -16 45t-45 17q-34 0 -58.5 -21.5t-35.5 -61.5q-3 -9 -12 -8l-102 18q-8 2 -5 11q19 75 79 125t153 50q81 0 129.5 -43.5t48.5 -112.5q0 -102 -98 -202l-213 -216v-2h229q11 0 9 -10l-17 -95q-2 -10 -11 -10h-389 q-11 0 -9 10z" glyph-name="two.prop"/>
<glyph horiz-adv-x="488" d="M12 144q0 10 11 13l106 20q10 2 10 -8q9 -67 75 -67q43 0 71.5 33.5t28.5 82.5q0 36 -20 56t-57 20h-27q-10 0 -8 10l16 92q2 10 12 10h25q43 0 71 31.5t28 77.5q0 29 -16 46t-45 17q-59 0 -88 -66q-3 -9 -12 -7l-102 20q-8 2 -5 11q24 68 86 111.5t146 43.5 q82 0 127.5 -40.5t45.5 -107.5q0 -57 -27 -105t-76 -75v-2q26 -14 44 -46t18 -77q0 -110 -71 -179.5t-179 -69.5q-85 0 -136 41.5t-52 113.5z" glyph-name="three.prop"/>
<glyph horiz-adv-x="527" d="M29 103q-10 0 -8 10l17 95q1 6 7 15l271 449q6 8 16 8h119q12 0 5 -10l-269 -450v-2h116q7 0 8 6l27 149q2 10 11 10h111q10 0 8 -10l-26 -149q-2 -6 4 -6h42q11 0 9 -10l-17 -95q-2 -10 -11 -10h-43q-6 0 -7 -6l-15 -87q-2 -10 -11 -10h-111q-11 0 -9 10l15 87q2 6 -5 6 h-254z" glyph-name="four.prop"/>
<glyph horiz-adv-x="509" d="M55 151l107 19q8 2 10 -8q7 -60 66 -60q55 0 78 50q11 21 18.5 59.5t7.5 62.5q0 66 -63 66q-25 0 -44.5 -12.5t-29.5 -30.5q-4 -10 -14 -10h-102q-8 0 -7 10l66 373q2 10 10 10h365q11 0 9 -10l-17 -95q-2 -10 -12 -10h-251q-6 0 -7 -6l-25 -142h2q39 35 107 35 q147 0 147 -146q0 -43 -11.5 -102t-29.5 -96q-58 -119 -212 -119q-82 0 -129 41t-47 108q0 12 8 13z" glyph-name="five.prop"/>
<glyph horiz-adv-x="516" d="M169 178q0 -34 19.5 -55t53.5 -21q45 0 76.5 35.5t31.5 86.5q0 35 -19.5 55.5t-53.5 20.5q-46 0 -77 -35.5t-31 -86.5zM37 158q0 100 79 213l212 302q5 7 13 7h121q12 0 5 -10l-184 -266l2 -1q12 7 43 7q69 0 112 -43t43 -116q0 -112 -73 -187t-187 -75q-84 0 -135 45.5 t-51 123.5z" glyph-name="six.prop"/>
<glyph horiz-adv-x="490" d="M70 11l307 550v2h-139q-6 0 -7 -6l-14 -72q-2 -10 -11 -10h-107q-9 0 -7 10l33 185q2 10 11 10h392q10 0 8 -10l-17 -97q-1 -6 -6 -17l-304 -547q-5 -9 -16 -9h-117q-11 0 -6 11z" glyph-name="seven.prop"/>
<glyph horiz-adv-x="513" d="M165 179q0 -35 20.5 -56t55.5 -21q46 0 77.5 35t31.5 85q0 35 -20 56t-55 21q-46 0 -78 -35t-32 -85zM294 411q39 0 66.5 30t27.5 72q0 29 -16.5 47t-46.5 18q-39 0 -66.5 -30t-27.5 -72q0 -29 17 -47t46 -18zM32 155q0 60 29 114t81 86l1 2q-42 36 -42 103q0 91 66 161 t175 70q84 0 131 -45t47 -115q0 -52 -24 -97.5t-68 -76.5l-1 -2q56 -45 56 -121q0 -102 -73.5 -173.5t-185.5 -71.5q-87 0 -139.5 45t-52.5 121z" glyph-name="eight.prop"/>
<glyph horiz-adv-x="520" d="M290 380q47 0 77.5 35.5t30.5 84.5q0 36 -19.5 57t-53.5 21q-47 0 -77.5 -36t-30.5 -85q0 -35 19.5 -56t53.5 -21zM99 10l182 266l-1 1q-12 -7 -42 -7q-69 0 -112 46t-43 119q0 107 72 181.5t188 74.5q84 0 135.5 -45.5t51.5 -123.5q0 -96 -81 -212l-211 -303 q-4 -7 -13 -7h-121q-5 0 -6.5 3t1.5 7z" glyph-name="nine.prop"/>
<glyph horiz-adv-x="531" d="M267 -11q-86 0 -133.5 45t-47.5 130q0 30 7 69q1 6 -5 6h-36q-10 0 -8 10l10 59q2 10 12 10h36q6 0 7 6l6 37q1 6 -5 6h-35q-10 0 -8 10l10 58q2 10 12 10h35q6 0 7 6q9 55 31 100q68 140 229 140q138 0 171 -121q3 -9 -7 -14l-98 -41q-10 -6 -13 5q-11 29 -27 43.5 t-44 14.5q-57 0 -87 -61q-14 -30 -19 -66q-1 -6 5 -6h160q11 0 9 -10l-21 -58q-3 -10 -12 -10h-150q-6 0 -7 -6l-6 -37q-1 -6 5 -6h140q10 0 8 -10l-20 -59q-3 -10 -12 -10h-130q-6 0 -7 -6q-6 -31 -6 -54q0 -77 65 -77q51 0 91 59q7 8 15 5l86 -43q8 -5 3 -13 q-76 -121 -216 -121z" glyph-name="Euro.prop"/>
<glyph horiz-adv-x="483" d="M184 172q0 -49 35 -64l47 268q-32 -12 -50 -49q-14 -29 -23 -76.5t-9 -78.5zM230 -98h-37q-10 0 -8 10l14 79q-71 8 -111 51t-40 116q0 114 42 205q58 119 197 131l14 78q2 10 12 10h37q10 0 8 -10l-14 -79q99 -10 134 -95q2 -9 -5 -13l-87 -49q-9 -6 -16 3 q-18 34 -46 41l-49 -276q36 9 64 43q6 10 14 2l76 -56q8 -5 0 -13q-58 -81 -174 -90l-13 -78q-2 -10 -12 -10z" glyph-name="cent.prop"/>
<glyph d="M280 112q33 13 51 40.5t18 61.5q0 40 -41 58zM276 416l27 154q-30 -10 -48.5 -35.5t-18.5 -59.5q0 -42 40 -59zM21 65q-6 8 1 15l76 78q9 9 15 1q46 -48 108 -53l32 179q-73 11 -113 55.5t-40 111.5q0 99 62.5 165t161.5 73l10 57q2 10 11 10h39q10 0 8 -10l-10 -58 q83 -8 142 -57q6 -6 -1 -15l-66 -76q-8 -8 -14 -3q-39 28 -82 35l-30 -169h2q75 -11 114 -52.5t39 -106.5q0 -109 -62.5 -176t-164.5 -78l-10 -58q-2 -10 -12 -10h-38q-10 0 -8 10l10 57q-108 8 -180 75z" glyph-name="dollar.prop"/>
<glyph horiz-adv-x="494" d="M414 0h-376q-11 0 -9 10l17 92q2 7 7 13q22 19 32.5 35.5t16.5 50.5l11 64q1 6 -5 6h-39q-9 0 -7 10l13 75q2 10 11 10h38q6 0 8 6l22 126q16 95 73 144t144 49q70 0 107 -37t37 -97q0 -11 -9 -14l-104 -22q-9 0 -9 9q0 48 -40 48q-52 0 -63 -65l-23 -141q-1 -6 4 -6h117 q11 0 9 -10l-13 -75q-2 -10 -12 -10h-118q-6 0 -7 -6l-8 -49q-11 -66 -44 -100l-1 -2h239q11 0 9 -10l-17 -94q-2 -10 -11 -10z" glyph-name="sterling.prop"/>
<glyph horiz-adv-x="459" d="M391 316h-89l-106 -330q-28 -89 -77 -127.5t-131 -38.5h-32q-11 0 -9 10l16 92q2 10 12 10h20q54 0 73 58l105 326h-61q-10 0 -8 10l14 79q2 10 12 10h75l32 99q28 89 77 127.5t131 38.5h32q11 0 9 -10l-16 -92q-2 -10 -12 -10h-20q-54 0 -73 -58l-31 -95h76q9 0 7 -10 l-14 -79q-2 -10 -12 -10z" glyph-name="florin.prop"/>
<glyph horiz-adv-x="509" d="M270 0h-115q-10 0 -8 10l21 118q2 6 -5 6h-113q-10 0 -8 10l11 58q2 10 11 10h113q5 0 7 6l6 36q2 6 -5 6h-113q-9 0 -7 10l10 58q2 10 11 10h91v2l-85 330q-2 10 8 10h118q11 0 13 -10l50 -264h3l142 264q7 10 16 10h121q10 0 6 -10l-201 -330v-2h90q10 0 8 -10l-11 -58 q-2 -10 -11 -10h-113q-5 0 -7 -6l-6 -36q-2 -6 5 -6h113q9 0 7 -10l-10 -58q-2 -10 -11 -10h-114q-6 0 -7 -6l-20 -118q-2 -10 -11 -10z" glyph-name="yen.prop"/>
<glyph horiz-adv-x="557" d="M262 109q59 0 99 48t40 112q0 49 -24 77.5t-69 28.5q-60 0 -99.5 -48.5t-39.5 -112.5q0 -49 24 -77t69 -28zM241 -11q-94 0 -150 56t-56 147q0 130 82 216.5t212 86.5q94 0 149.5 -56t55.5 -148q0 -130 -82 -216t-211 -86z" glyph-name="zero.onumprop"/>
<glyph horiz-adv-x="390" d="M246 0h-114q-10 0 -8 10l60 338h-2l-136 -50q-5 -2 -8 -0.5t-2 7.5l19 105q1 9 10 13l137 56q11 5 21 5h108q10 0 8 -10l-82 -464q-2 -10 -11 -10z" glyph-name="one.onumprop"/>
<glyph horiz-adv-x="510" d="M419 0h-395q-11 0 -9 10l15 82q2 10 10 14l219 121q51 28 71.5 51t20.5 52q0 25 -16.5 39.5t-47.5 14.5q-65 0 -94 -66q-5 -10 -14 -8l-99 17q-9 2 -6 12q20 67 83 111.5t153 44.5q82 0 129 -39.5t47 -103.5q0 -61 -30.5 -104t-97.5 -80l-103 -57v-2h182q10 0 8 -10 l-16 -89q-2 -10 -10 -10z" glyph-name="two.onumprop"/>
<glyph horiz-adv-x="482" d="M177 -191q-83 0 -132.5 42.5t-49.5 109.5q0 15 8 16l102 20q10 2 10 -8q4 -30 24.5 -48.5t53.5 -18.5q46 0 75 34t29 85q0 74 -98 74h-35q-10 0 -8 10l16 89q1 8 10 17l128 137v3h-221q-10 0 -8 10l16 93q2 10 11 10h369q10 0 8 -10l-16 -89q-2 -10 -8 -16l-152 -158v-2 q57 -10 88 -46.5t31 -96.5q0 -113 -70 -185t-181 -72z" glyph-name="three.onumprop"/>
<glyph horiz-adv-x="516" d="M354 -180h-112q-9 0 -7 10l28 164q1 6 -4 6h-246q-10 0 -8 10l18 96q2 9 5 14l225 356q3 8 15 8h119q11 0 6 -9l-225 -357l-1 -2h112q5 0 7 6l25 141q2 10 11 10h112q10 0 8 -10l-25 -141q-1 -6 5 -6h43q10 0 8 -10l-17 -96q-2 -10 -10 -10h-44q-6 0 -8 -6l-28 -164 q-2 -10 -12 -10z" glyph-name="four.onumprop"/>
<glyph horiz-adv-x="499" d="M197 -191q-82 0 -129 41t-47 108q0 12 8 13l107 19q8 2 10 -8q7 -60 66 -60q55 0 79 50q25 54 25 109q0 66 -63 66q-25 0 -44.5 -12.5t-29.5 -30.5q-4 -10 -14 -10h-102q-8 0 -7 10l65 370q2 10 10 10h365q11 0 9 -10l-17 -95q-2 -10 -11 -10h-251q-6 0 -7 -6l-25 -139h2 q39 35 107 35q71 0 109 -37t38 -109q0 -103 -40 -185q-57 -119 -213 -119z" glyph-name="five.onumprop"/>
<glyph horiz-adv-x="504" d="M239 102q46 0 77 35.5t31 86.5q0 35 -19.5 55.5t-52.5 20.5q-46 0 -77 -35.5t-31 -86.5q0 -34 19.5 -55t52.5 -21zM221 -11q-84 0 -135 45.5t-51 123.5q0 100 79 213l212 302q5 7 14 7h120q5 0 6.5 -3t-1.5 -7l-184 -266l2 -1q12 7 43 7q69 0 112 -43t43 -116 q0 -112 -73 -187t-187 -75z" glyph-name="six.onumprop"/>
<glyph horiz-adv-x="484" d="M158 -180h-118q-11 0 -5 11l297 534v2h-139q-5 0 -7 -6l-14 -72q-2 -10 -11 -10h-106q-10 0 -8 10l33 185q2 10 11 10h392q10 0 8 -10l-17 -97q-1 -6 -6 -17l-295 -531q-5 -9 -15 -9z" glyph-name="seven.onumprop"/>
<glyph horiz-adv-x="510" d="M243 102q46 0 78 35t32 85q0 35 -20.5 56t-55.5 21q-46 0 -77.5 -35t-31.5 -85q0 -35 20 -56t55 -21zM296 411q39 0 66.5 30t27.5 72q0 29 -16.5 47t-46.5 18q-38 0 -65.5 -30t-27.5 -72q0 -29 16.5 -47t45.5 -18zM226 -11q-87 0 -139.5 45t-52.5 121q0 60 29 114t82 86 l1 2q-43 36 -43 103q0 92 66 161.5t176 69.5q83 0 130 -45t47 -115q0 -52 -24 -97.5t-68 -76.5l-1 -2q56 -45 56 -121q0 -102 -73.5 -173.5t-185.5 -71.5z" glyph-name="eight.onumprop"/>
<glyph horiz-adv-x="507" d="M252 184q46 0 77 35.5t31 86.5q0 34 -20 55t-53 21q-46 0 -77 -35.5t-31 -86.5q0 -35 19.5 -55.5t53.5 -20.5zM198 -180h-120q-13 0 -6 10l173 250l-1 1q-14 -7 -43 -7q-69 0 -112.5 43t-43.5 116q0 112 73 187t187 75q84 0 135.5 -45.5t51.5 -123.5q0 -97 -79 -213 l-201 -286q-5 -7 -14 -7z" glyph-name="nine.onumprop"/>
<glyph horiz-adv-x="343" d="M270 430h-82q-10 0 -8 10l51 287h-2l-69 -40q-4 -3 -7.5 -1t-2.5 7l15 80q1 10 12 15l66 41q11 7 19 7h79q10 0 8 -10l-68 -386q-2 -10 -11 -10z" glyph-name="one.superior"/>
<glyph horiz-adv-x="343" d="M335 430h-251q-10 0 -8 10l12 63q2 10 9 16l166 150q35 31 35 62q0 30 -31 30q-33 0 -49 -41q-3 -10 -11 -8l-72 12q-8 2 -6 11q13 46 54 77.5t103 31.5q52 0 82.5 -27.5t30.5 -71.5q0 -66 -68 -126l-112 -103v-1h131q10 0 8 -10l-11 -65q-2 -10 -12 -10z" glyph-name="two.superior"/>
<glyph horiz-adv-x="343" d="M211 422q-54 0 -86.5 25.5t-36.5 71.5q-2 10 8 12l74 14q8 1 11 -8q9 -32 40 -32q21 0 36.5 16t15.5 39q0 36 -42 36h-16q-10 0 -8 10l11 62q2 10 11 10h14q23 0 37 14t14 38q0 31 -32 31q-29 0 -45 -28q-4 -8 -13 -7l-68 14q-9 2 -6 11q16 41 55.5 67t95.5 26 q55 0 85.5 -26t30.5 -68q0 -69 -59 -104v-1q35 -20 35 -70q0 -69 -46 -111t-116 -42z" glyph-name="three.superior"/>
<glyph horiz-adv-x="531" d="M236 102q55 0 82 55q11 22 21 72t10 79q0 74 -64 74q-55 0 -82 -55q-12 -23 -21.5 -72.5t-9.5 -78.5q0 -74 64 -74zM424 0h-115q-10 0 -8 10l6 37h-1q-46 -58 -132 -58q-68 0 -103.5 42t-35.5 117q0 52 14 123t36 115q55 109 176 109q88 0 114 -59h1l7 38q2 10 11 10h115 q10 0 8 -10l-82 -464q-2 -10 -11 -10z" glyph-name="a.alt01"/>
<glyph horiz-adv-x="530" d="M348 551h-81q-10 0 -17 10l-72 130q-2 4 0 7t7 3h104q12 0 15 -10l52 -130q3 -10 -8 -10zM236 102q55 0 82 55q11 22 21 72t10 79q0 74 -64 74q-55 0 -82 -55q-12 -23 -21.5 -72.5t-9.5 -78.5q0 -74 64 -74zM424 0h-115q-10 0 -8 10l6 37h-1q-46 -58 -132 -58 q-68 0 -103.5 42t-35.5 117q0 52 14 123t36 115q55 109 176 109q88 0 114 -59h1l7 38q2 10 11 10h115q10 0 8 -10l-82 -464q-2 -10 -11 -10z" glyph-name="agrave.alt01"/>
<glyph horiz-adv-x="530" d="M327 551h-86q-11 0 -4 10l95 130q7 10 19 10h111q5 0 6 -3.5t-3 -7.5l-118 -129q-10 -10 -20 -10zM236 102q55 0 82 55q11 22 21 72t10 79q0 74 -64 74q-55 0 -82 -55q-12 -23 -21.5 -72.5t-9.5 -78.5q0 -74 64 -74zM424 0h-115q-10 0 -8 10l6 37h-1q-46 -58 -132 -58 q-68 0 -103.5 42t-35.5 117q0 52 14 123t36 115q55 109 176 109q88 0 114 -59h1l7 38q2 10 11 10h115q10 0 8 -10l-82 -464q-2 -10 -11 -10z" glyph-name="aacute.alt01"/>
<glyph horiz-adv-x="530" d="M472 550h-71q-12 0 -19 10l-41 57h-1l-62 -57q-11 -10 -23 -10h-79q-4 0 -5.5 3t1.5 7l122 131q9 10 20 10h72q10 0 16 -10l76 -131q2 -4 0 -7t-6 -3zM236 102q55 0 82 55q11 22 21 72t10 79q0 74 -64 74q-55 0 -82 -55q-12 -23 -21.5 -72.5t-9.5 -78.5q0 -74 64 -74z M424 0h-115q-10 0 -8 10l6 37h-1q-46 -58 -132 -58q-68 0 -103.5 42t-35.5 117q0 52 14 123t36 115q55 109 176 109q88 0 114 -59h1l7 38q2 10 11 10h115q10 0 8 -10l-82 -464q-2 -10 -11 -10z" glyph-name="acircumflex.alt01"/>
<glyph horiz-adv-x="530" d="M383 556q-34 0 -69 21q-27 18 -52 18q-34 0 -75 -31q-3 -3 -6 -1.5t-2 4.5l12 69q2 11 12 21q38 33 79 33q34 0 70 -22q29 -18 52 -18q36 0 74 32q4 3 7 1.5t2 -5.5l-12 -69q-2 -10 -12 -20q-37 -33 -80 -33zM236 102q55 0 82 55q11 22 21 72t10 79q0 74 -64 74 q-55 0 -82 -55q-12 -23 -21.5 -72.5t-9.5 -78.5q0 -74 64 -74zM424 0h-115q-10 0 -8 10l6 37h-1q-46 -58 -132 -58q-68 0 -103.5 42t-35.5 117q0 52 14 123t36 115q55 109 176 109q88 0 114 -59h1l7 38q2 10 11 10h115q10 0 8 -10l-82 -464q-2 -10 -11 -10z" glyph-name="atilde.alt01"/>
<glyph horiz-adv-x="530" d="M279 566h-89q-10 0 -8 10l18 95q2 10 11 10h88q10 0 8 -10l-17 -95q-2 -10 -11 -10zM472 566h-89q-10 0 -8 10l18 95q2 10 11 10h89q10 0 8 -10l-18 -95q-2 -10 -11 -10zM236 102q55 0 82 55q11 22 21 72t10 79q0 74 -64 74q-55 0 -82 -55q-12 -23 -21.5 -72.5 t-9.5 -78.5q0 -74 64 -74zM424 0h-115q-10 0 -8 10l6 37h-1q-46 -58 -132 -58q-68 0 -103.5 42t-35.5 117q0 52 14 123t36 115q55 109 176 109q88 0 114 -59h1l7 38q2 10 11 10h115q10 0 8 -10l-82 -464q-2 -10 -11 -10z" glyph-name="adieresis.alt01"/>
<glyph horiz-adv-x="530" d="M466 579h-272q-10 0 -8 10l12 71q2 10 11 10h273q10 0 8 -10l-13 -71q-2 -10 -11 -10zM236 102q55 0 82 55q11 22 21 72t10 79q0 74 -64 74q-55 0 -82 -55q-12 -23 -21.5 -72.5t-9.5 -78.5q0 -74 64 -74zM424 0h-115q-10 0 -8 10l6 37h-1q-46 -58 -132 -58 q-68 0 -103.5 42t-35.5 117q0 52 14 123t36 115q55 109 176 109q88 0 114 -59h1l7 38q2 10 11 10h115q10 0 8 -10l-82 -464q-2 -10 -11 -10z" glyph-name="amacron.alt01"/>
<glyph horiz-adv-x="530" d="M318 548q-58 0 -91.5 30.5t-33.5 80.5q0 11 1 17q2 11 11 11h55q11 0 12 -10q6 -44 60 -44q55 0 78 44q6 10 15 10h54q11 0 8 -10q-12 -56 -59.5 -92.5t-109.5 -36.5zM236 102q55 0 82 55q11 22 21 72t10 79q0 74 -64 74q-55 0 -82 -55q-12 -23 -21.5 -72.5t-9.5 -78.5 q0 -74 64 -74zM424 0h-115q-10 0 -8 10l6 37h-1q-46 -58 -132 -58q-68 0 -103.5 42t-35.5 117q0 52 14 123t36 115q55 109 176 109q88 0 114 -59h1l7 38q2 10 11 10h115q10 0 8 -10l-82 -464q-2 -10 -11 -10z" glyph-name="abreve.alt01"/>
<glyph horiz-adv-x="530" d="M322 581q23 0 38.5 17t15.5 43q0 17 -10 28t-27 11q-22 0 -38 -17t-16 -43q0 -17 10 -28t27 -11zM313 525q-39 0 -63.5 23.5t-24.5 61.5q0 52 35 89t88 37q39 0 63.5 -23.5t24.5 -61.5q0 -52 -34.5 -89t-88.5 -37zM236 102q55 0 82 55q11 22 21 72t10 79q0 74 -64 74 q-55 0 -82 -55q-12 -23 -21.5 -72.5t-9.5 -78.5q0 -74 64 -74zM424 0h-115q-10 0 -8 10l6 37h-1q-46 -58 -132 -58q-68 0 -103.5 42t-35.5 117q0 52 14 123t36 115q55 109 176 109q88 0 114 -59h1l7 38q2 10 11 10h115q10 0 8 -10l-82 -464q-2 -10 -11 -10z" glyph-name="aring.alt01"/>
<glyph horiz-adv-x="530" d="M322 581q23 0 38.5 17t15.5 43q0 17 -10 28t-27 11q-22 0 -38 -17t-16 -43q0 -17 10 -28t27 -11zM313 525q-39 0 -63.5 23.5t-24.5 61.5q0 52 35 89t88 37q39 0 63.5 -23.5t24.5 -61.5q0 -52 -34.5 -89t-88.5 -37zM236 102q55 0 82 55q11 22 21 72t10 79q0 74 -64 74 q-55 0 -82 -55q-12 -23 -21.5 -72.5t-9.5 -78.5q0 -74 64 -74zM424 0h-115q-10 0 -8 10l6 37h-1q-46 -58 -132 -58q-68 0 -103.5 42t-35.5 117q0 52 14 123t36 115q55 109 176 109q88 0 114 -59h1l7 38q2 10 11 10h115q10 0 8 -10l-82 -464q-2 -10 -11 -10zM385 762h-86 q-5 0 -6 3.5t3 6.5l110 107q10 10 23 10h112q4 0 5 -3.5t-3 -6.5l-135 -108q-10 -9 -23 -9z" glyph-name="aringacute.alt01"/>
<glyph horiz-adv-x="531" d="M236 102q55 0 82 55q11 22 21 72t10 79q0 74 -64 74q-55 0 -82 -55q-12 -23 -21.5 -72.5t-9.5 -78.5q0 -74 64 -74zM301 10l6 37h-1q-46 -58 -132 -58q-68 0 -103.5 42t-35.5 117q0 52 14 123t36 115q55 109 176 109q88 0 114 -59h1l7 38q2 10 11 10h115q10 0 8 -10 l-82 -463q-1 -8 -7 -11q-55 -27 -76.5 -46t-21.5 -36q0 -16 18 -16q10 0 24 8q10 5 13 -4l19 -56q3 -8 -5 -13q-43 -27 -90 -27q-38 0 -61.5 20t-23.5 55q0 60 83 115q-8 2 -6 10z" glyph-name="aogonek.alt01"/>
<glyph horiz-adv-x="787" d="M215 89q90 0 101 70l6 37q2 6 -5 6h-68q-94 0 -94 -68q0 -45 60 -45zM470 291h156q6 0 7 6q3 15 3 27q0 68 -70 68q-62 0 -88 -54q-8 -15 -12 -40q-1 -7 4 -7zM505 -11q-109 0 -150 73h-1q-58 -73 -180 -73q-71 0 -110 33t-39 93q0 85 58.5 130.5t164.5 45.5h84q6 0 8 6 l4 22q2 14 2 19q0 25 -19.5 37t-67.5 12q-63 0 -110 -32q-9 -6 -12 3l-30 75q-3 9 5 14q73 48 182 48q107 0 148 -49h2q56 49 139 49q79 0 129 -44.5t50 -125.5q0 -41 -13 -113q-2 -10 -12 -10h-283q-6 0 -7 -6q-1 -5 -1 -15q0 -84 87 -84q58 0 116 47q8 7 15 0l49 -59 q7 -8 -1 -16q-87 -80 -207 -80z" glyph-name="ae.alt01"/>
<glyph horiz-adv-x="787" d="M215 89q90 0 101 70l6 37q2 6 -5 6h-68q-94 0 -94 -68q0 -45 60 -45zM470 291h156q6 0 7 6q3 15 3 27q0 68 -70 68q-62 0 -88 -54q-8 -15 -12 -40q-1 -7 4 -7zM505 -11q-109 0 -150 73h-1q-58 -73 -180 -73q-71 0 -110 33t-39 93q0 85 58.5 130.5t164.5 45.5h84q6 0 8 6 l4 22q2 14 2 19q0 25 -19.5 37t-67.5 12q-63 0 -110 -32q-9 -6 -12 3l-30 75q-3 9 5 14q73 48 182 48q107 0 148 -49h2q56 49 139 49q79 0 129 -44.5t50 -125.5q0 -41 -13 -113q-2 -10 -12 -10h-283q-6 0 -7 -6q-1 -5 -1 -15q0 -84 87 -84q58 0 116 47q8 7 15 0l49 -59 q7 -8 -1 -16q-87 -80 -207 -80zM485 551h-86q-11 0 -4 10l95 130q7 10 19 10h111q5 0 6 -3.5t-3 -7.5l-118 -129q-10 -10 -20 -10z" glyph-name="aeacute.alt01"/>
<glyph horiz-adv-x="565" d="M176 -180q-10 0 -8 10l16 91q2 10 12 10q73 0 121 40t48 110q0 74 -82 90q-9 2 -8 10l15 89q2 8 8 14l82 92v2h-150q-6 0 -7 -6l-64 -362q-2 -10 -10 -10h-114q-11 0 -9 10l89 505q16 87 62 126t130 39h55q11 0 9 -10l-15 -88q-2 -10 -12 -10h-31q-32 0 -45.5 -11.5 t-19.5 -44.5l-4 -26q-2 -6 4 -6h295q11 0 9 -10l-14 -83q-1 -10 -9 -16l-108 -124v-1q38 -21 59 -60t21 -87q0 -128 -90 -205.5t-235 -77.5z" glyph-name="germandbls.alt01"/>
<glyph horiz-adv-x="530" d="M236 102q55 0 82 55q11 22 21 72t10 79q0 74 -64 74q-55 0 -82 -55q-12 -23 -21.5 -72.5t-9.5 -78.5q0 -74 64 -74zM269 -170l38 217h-1q-46 -58 -132 -58q-68 0 -103.5 42t-35.5 117q0 52 14 123t36 115q55 109 176 109q88 0 114 -59h1l7 38q2 10 11 10h115q10 0 8 -10 l-94 -532h1l61 48q9 7 14 -2l36 -52q6 -8 -4 -15l-127 -95q-9 -6 -18 -6h-109q-10 0 -8 10z" glyph-name="q.alt01"/>
<glyph horiz-adv-x="570" d="M270 -11q-96 0 -153.5 54t-57.5 154q0 53 21.5 170t46.5 167q78 157 258 157q96 0 152 -54t56 -144v-9q0 -10 -10 -10h-115q-11 0 -11 10q-8 82 -87 82q-77 0 -115 -80q-17 -34 -35.5 -135t-18.5 -142q0 -45 23 -70t66 -25q77 0 116 82q5 10 14 10h121q10 0 7 -10 q-64 -207 -278 -207z" glyph-name="C.alt01"/>
<glyph horiz-adv-x="569" d="M424 755h-87q-5 0 -6.5 3t1.5 7l109 114q10 10 21 10h115q5 0 6.5 -3t-2.5 -7l-137 -116q-9 -8 -20 -8zM270 -11q-96 0 -153.5 54t-57.5 154q0 53 21.5 170t46.5 167q78 157 258 157q96 0 152 -54t56 -144v-9q0 -10 -10 -10h-115q-11 0 -11 10q-8 82 -87 82 q-77 0 -115 -80q-17 -34 -35.5 -135t-18.5 -142q0 -45 23 -70t66 -25q77 0 116 82q5 10 14 10h121q10 0 7 -10q-64 -207 -278 -207z" glyph-name="Cacute.alt01"/>
<glyph horiz-adv-x="569" d="M540 748h-71q-11 0 -19 10l-41 57h-2l-61 -57q-10 -10 -23 -10h-80q-5 0 -6 3t3 7l122 131q8 9 20 9h72q11 0 16 -9l76 -131q2 -4 0 -7t-6 -3zM270 -11q-96 0 -153.5 54t-57.5 154q0 53 21.5 170t46.5 167q78 157 258 157q96 0 152 -54t56 -144v-9q0 -10 -10 -10h-115 q-11 0 -11 10q-8 82 -87 82q-77 0 -115 -80q-17 -34 -35.5 -135t-18.5 -142q0 -45 23 -70t66 -25q77 0 116 82q5 10 14 10h121q10 0 7 -10q-64 -207 -278 -207z" glyph-name="Ccircumflex.alt01"/>
<glyph horiz-adv-x="569" d="M426 744h-72q-11 0 -16 9l-76 131q-2 4 0 7t6 3h71q11 0 19 -10l41 -57h1l62 57q10 10 23 10h80q5 0 6 -3t-3 -7l-122 -131q-8 -9 -20 -9zM270 -11q-96 0 -153.5 54t-57.5 154q0 53 21.5 170t46.5 167q78 157 258 157q96 0 152 -54t56 -144v-9q0 -10 -10 -10h-115 q-11 0 -11 10q-8 82 -87 82q-77 0 -115 -80q-17 -34 -35.5 -135t-18.5 -142q0 -45 23 -70t66 -25q77 0 116 82q5 10 14 10h121q10 0 7 -10q-64 -207 -278 -207z" glyph-name="Ccaron.alt01"/>
<glyph horiz-adv-x="569" d="M270 -11q-96 0 -153.5 54t-57.5 154q0 53 21.5 170t46.5 167q78 157 258 157q96 0 152 -54t56 -144v-9q0 -10 -10 -10h-115q-11 0 -11 10q-8 82 -87 82q-77 0 -115 -80q-17 -34 -35.5 -135t-18.5 -142q0 -45 23 -70t66 -25q77 0 116 82q5 10 14 10h121q10 0 7 -10 q-64 -207 -278 -207zM447 762h-111q-10 0 -8 10l18 94q2 10 11 10h110q10 0 8 -10l-17 -94q-2 -10 -11 -10z" glyph-name="Cdotaccent.alt01"/>
<glyph horiz-adv-x="569" d="M223 -159h-91q-10 0 -5 10l82 145q-70 15 -110 66.5t-40 134.5q0 53 21.5 170t46.5 167q78 157 258 157q96 0 152 -54t56 -144v-9q0 -10 -10 -10h-115q-11 0 -11 10q-8 82 -87 82q-77 0 -115 -80q-17 -34 -35.5 -135t-18.5 -142q0 -45 23 -70t66 -25q77 0 116 82 q5 10 14 10h121q10 0 7 -10q-58 -189 -241 -205l-66 -140q-5 -10 -18 -10z" glyph-name="Ccedilla.alt01"/>
<glyph horiz-adv-x="604" d="M269 -11q-99 0 -158 54t-59 154q0 53 22 170.5t47 167.5q76 156 267 156q98 0 156 -54.5t58 -144.5v-8q0 -10 -10 -10h-115q-10 0 -12 10q-4 38 -27.5 60t-64.5 22q-86 0 -124 -80q-17 -33 -35.5 -134t-18.5 -142q0 -44 25 -70t69 -26q84 0 118 73q13 30 21 71q0 6 -5 6 h-88q-10 0 -8 10l17 92q2 10 11 10h225q9 0 7 -10l-9 -55q-21 -118 -46 -167q-77 -155 -263 -155z" glyph-name="G.alt01"/>
<glyph horiz-adv-x="604" d="M541 748h-71q-12 0 -19 10l-41 57h-2l-61 -57q-10 -10 -23 -10h-80q-5 0 -6 3t3 7l122 131q8 9 20 9h72q11 0 16 -9l76 -131q2 -4 0.5 -7t-6.5 -3zM269 -11q-99 0 -158 54t-59 154q0 53 22 170.5t47 167.5q76 156 267 156q98 0 156 -54.5t58 -144.5v-8q0 -10 -10 -10 h-115q-10 0 -12 10q-4 38 -27.5 60t-64.5 22q-86 0 -124 -80q-17 -33 -35.5 -134t-18.5 -142q0 -44 25 -70t69 -26q84 0 118 73q13 30 21 71q0 6 -5 6h-88q-10 0 -8 10l17 92q2 10 11 10h225q9 0 7 -10l-9 -55q-21 -118 -46 -167q-77 -155 -263 -155z" glyph-name="Gcircumflex.alt01"/>
<glyph horiz-adv-x="604" d="M269 -11q-99 0 -158 54t-59 154q0 53 22 170.5t47 167.5q76 156 267 156q98 0 156 -54.5t58 -144.5v-8q0 -10 -10 -10h-115q-10 0 -12 10q-4 38 -27.5 60t-64.5 22q-86 0 -124 -80q-17 -33 -35.5 -134t-18.5 -142q0 -44 25 -70t69 -26q84 0 118 73q13 30 21 71q0 6 -5 6 h-88q-10 0 -8 10l17 92q2 10 11 10h225q9 0 7 -10l-9 -55q-21 -118 -46 -167q-77 -155 -263 -155zM385 746q-58 0 -91.5 30.5t-33.5 80.5q0 11 1 17q2 11 11 11h55q11 0 12 -10q6 -45 60 -45t78 45q6 10 15 10h54q11 0 8 -11q-12 -55 -59.5 -91.5t-109.5 -36.5z" glyph-name="Gbreve.alt01"/>
<glyph horiz-adv-x="604" d="M269 -11q-99 0 -158 54t-59 154q0 53 22 170.5t47 167.5q76 156 267 156q98 0 156 -54.5t58 -144.5v-8q0 -10 -10 -10h-115q-10 0 -12 10q-4 38 -27.5 60t-64.5 22q-86 0 -124 -80q-17 -33 -35.5 -134t-18.5 -142q0 -44 25 -70t69 -26q84 0 118 73q13 30 21 71q0 6 -5 6 h-88q-10 0 -8 10l17 92q2 10 11 10h225q9 0 7 -10l-9 -55q-21 -118 -46 -167q-77 -155 -263 -155zM445 762h-111q-10 0 -8 10l18 94q2 10 11 10h110q10 0 8 -10l-17 -94q-2 -10 -11 -10z" glyph-name="Gdotaccent.alt01"/>
<glyph horiz-adv-x="604" d="M269 -11q-99 0 -158 54t-59 154q0 53 22 170.5t47 167.5q76 156 267 156q98 0 156 -54.5t58 -144.5v-8q0 -10 -10 -10h-115q-10 0 -12 10q-4 38 -27.5 60t-64.5 22q-86 0 -124 -80q-17 -33 -35.5 -134t-18.5 -142q0 -44 25 -70t69 -26q84 0 118 73q13 30 21 71q0 6 -5 6 h-88q-10 0 -8 10l17 92q2 10 11 10h225q9 0 7 -10l-9 -55q-21 -118 -46 -167q-77 -155 -263 -155zM181 -234q-11 0 -9 11l28 163q2 10 12 10h96q11 0 9 -10l-14 -77q-3 -12 -12 -20l-95 -70q-8 -7 -15 -7z" glyph-name="Gcommaaccent.alt01"/>
<glyph horiz-adv-x="363" d="M275 0h-260q-10 0 -8 10l17 97q2 10 12 10h52q6 0 8 6l77 434q1 6 -4 6h-54q-11 0 -9 10l17 97q2 10 11 10h260q10 0 8 -10l-17 -97q-2 -10 -11 -10h-54q-6 0 -7 -6l-77 -434q-2 -6 5 -6h54q10 0 8 -10l-17 -97q-2 -10 -11 -10z" glyph-name="I.alt01"/>
<glyph horiz-adv-x="363" d="M307 755h-87q-10 0 -17 8l-96 115q-3 4 -1.5 7.5t6.5 3.5h108q13 0 20 -10l73 -114q2 -4 0.5 -7t-6.5 -3zM275 0h-260q-10 0 -8 10l17 97q2 10 12 10h52q6 0 8 6l77 434q1 6 -4 6h-54q-11 0 -9 10l17 97q2 10 11 10h260q10 0 8 -10l-17 -97q-2 -10 -11 -10h-54 q-6 0 -7 -6l-77 -434q-2 -6 5 -6h54q10 0 8 -10l-17 -97q-2 -10 -11 -10z" glyph-name="Igrave.alt01"/>
<glyph horiz-adv-x="363" d="M310 755h-87q-5 0 -6.5 3t1.5 7l109 114q10 10 21 10h115q5 0 6.5 -3t-2.5 -7l-137 -116q-9 -8 -20 -8zM275 0h-260q-10 0 -8 10l17 97q2 10 12 10h52q6 0 8 6l77 434q1 6 -4 6h-54q-11 0 -9 10l17 97q2 10 11 10h260q10 0 8 -10l-17 -97q-2 -10 -11 -10h-54q-6 0 -7 -6 l-77 -434q-2 -6 5 -6h54q10 0 8 -10l-17 -97q-2 -10 -11 -10z" glyph-name="Iacute.alt01"/>
<glyph horiz-adv-x="363" d="M270 746q-58 0 -91.5 30.5t-33.5 80.5q0 11 1 17q2 11 11 11h55q11 0 12 -10q6 -45 60 -45t78 45q6 10 15 10h54q11 0 8 -11q-12 -55 -59.5 -91.5t-109.5 -36.5zM275 0h-260q-10 0 -8 10l17 97q2 10 12 10h52q6 0 8 6l77 434q1 6 -4 6h-54q-11 0 -9 10l17 97q2 10 11 10 h260q10 0 8 -10l-17 -97q-2 -10 -11 -10h-54q-6 0 -7 -6l-77 -434q-2 -6 5 -6h54q10 0 8 -10l-17 -97q-2 -10 -11 -10z" glyph-name="Ibreve.alt01"/>
<glyph horiz-adv-x="363" d="M422 748h-71q-11 0 -19 10l-41 57h-2l-61 -57q-10 -10 -23 -10h-80q-5 0 -6 3t3 7l122 131q8 9 20 9h72q11 0 16 -9l76 -131q2 -4 0 -7t-6 -3zM275 0h-260q-10 0 -8 10l17 97q2 10 12 10h52q6 0 8 6l77 434q1 6 -4 6h-54q-11 0 -9 10l17 97q2 10 11 10h260q10 0 8 -10 l-17 -97q-2 -10 -11 -10h-54q-6 0 -7 -6l-77 -434q-2 -6 5 -6h54q10 0 8 -10l-17 -97q-2 -10 -11 -10z" glyph-name="Icircumflex.alt01"/>
<glyph horiz-adv-x="363" d="M338 750q-32 0 -69 22q-29 18 -52 18q-35 0 -75 -32q-3 -3 -6 -1.5t-2 5.5l12 69q2 12 12 20q37 34 79 34q31 0 70 -22q29 -18 52 -18q36 0 74 32q4 3 7 1.5t2 -5.5l-12 -69q-2 -10 -12 -20q-39 -34 -80 -34zM275 0h-260q-10 0 -8 10l17 97q2 10 12 10h52q6 0 8 6l77 434 q1 6 -4 6h-54q-11 0 -9 10l17 97q2 10 11 10h260q10 0 8 -10l-17 -97q-2 -10 -11 -10h-54q-6 0 -7 -6l-77 -434q-2 -6 5 -6h54q10 0 8 -10l-17 -97q-2 -10 -11 -10z" glyph-name="Itilde.alt01"/>
<glyph horiz-adv-x="363" d="M224 762h-89q-11 0 -9 10l18 94q2 10 11 10h89q10 0 8 -10l-17 -94q-2 -10 -11 -10zM417 762h-89q-10 0 -8 10l18 94q2 10 11 10h88q10 0 8 -10l-17 -94q-2 -10 -11 -10zM275 0h-260q-10 0 -8 10l17 97q2 10 12 10h52q6 0 8 6l77 434q1 6 -4 6h-54q-11 0 -9 10l17 97 q2 10 11 10h260q10 0 8 -10l-17 -97q-2 -10 -11 -10h-54q-6 0 -7 -6l-77 -434q-2 -6 5 -6h54q10 0 8 -10l-17 -97q-2 -10 -11 -10z" glyph-name="Idieresis.alt01"/>
<glyph horiz-adv-x="363" d="M415 773h-272q-10 0 -8 10l12 72q2 10 11 10h273q10 0 8 -10l-13 -72q-2 -10 -11 -10zM275 0h-260q-10 0 -8 10l17 97q2 10 12 10h52q6 0 8 6l77 434q1 6 -4 6h-54q-11 0 -9 10l17 97q2 10 11 10h260q10 0 8 -10l-17 -97q-2 -10 -11 -10h-54q-6 0 -7 -6l-77 -434 q-2 -6 5 -6h54q10 0 8 -10l-17 -97q-2 -10 -11 -10z" glyph-name="Imacron.alt01"/>
<glyph horiz-adv-x="363" d="M332 762h-111q-10 0 -8 10l18 94q2 10 11 10h110q10 0 8 -10l-17 -94q-2 -10 -11 -10zM275 0h-260q-10 0 -8 10l17 97q2 10 12 10h52q6 0 8 6l77 434q1 6 -4 6h-54q-11 0 -9 10l17 97q2 10 11 10h260q10 0 8 -10l-17 -97q-2 -10 -11 -10h-54q-6 0 -7 -6l-77 -434 q-2 -6 5 -6h54q10 0 8 -10l-17 -97q-2 -10 -11 -10z" glyph-name="Idotaccent.alt01"/>
<glyph horiz-adv-x="363" d="M275 0h-74q-69 -54 -69 -82q0 -16 17 -16q9 0 25 8q8 5 12 -4l20 -56q3 -8 -6 -13q-43 -27 -89 -27q-39 0 -62 20t-23 55q0 55 60 115h-71q-10 0 -8 10l17 97q2 10 12 10h52q6 0 8 6l77 434q1 6 -4 6h-54q-11 0 -9 10l17 97q2 10 11 10h260q10 0 8 -10l-17 -97 q-2 -10 -11 -10h-54q-6 0 -7 -6l-77 -434q-2 -6 5 -6h54q10 0 8 -10l-17 -97q-2 -10 -11 -10z" glyph-name="Iogonek.alt01"/>
<glyph horiz-adv-x="533" d="M464 290h-137l-136 -163v-2h277q10 0 8 -10l-19 -105q-2 -10 -11 -10h-431q-11 0 -9 10l17 100q2 8 8 16l136 164h-63q-10 0 -8 10l15 88q2 10 12 10h134l129 155v2h-264q-10 0 -8 10l19 105q2 10 10 10h422q11 0 9 -10l-18 -100q-1 -8 -6 -14l-132 -158h65q10 0 8 -10 l-15 -88q-2 -10 -12 -10z" glyph-name="Z.alt01"/>
<glyph horiz-adv-x="533" d="M464 290h-137l-136 -163v-2h277q10 0 8 -10l-19 -105q-2 -10 -11 -10h-431q-11 0 -9 10l17 100q2 8 8 16l136 164h-63q-10 0 -8 10l15 88q2 10 12 10h134l129 155v2h-264q-10 0 -8 10l19 105q2 10 10 10h422q11 0 9 -10l-18 -100q-1 -8 -6 -14l-132 -158h65q10 0 8 -10 l-15 -88q-2 -10 -12 -10zM386 755h-87q-5 0 -6.5 3t1.5 7l109 114q10 10 21 10h115q5 0 6.5 -3t-2.5 -7l-137 -116q-9 -8 -20 -8z" glyph-name="Zacute.alt01"/>
<glyph horiz-adv-x="533" d="M464 290h-137l-136 -163v-2h277q10 0 8 -10l-19 -105q-2 -10 -11 -10h-431q-11 0 -9 10l17 100q2 8 8 16l136 164h-63q-10 0 -8 10l15 88q2 10 12 10h134l129 155v2h-264q-10 0 -8 10l19 105q2 10 10 10h422q11 0 9 -10l-18 -100q-1 -8 -6 -14l-132 -158h65q10 0 8 -10 l-15 -88q-2 -10 -12 -10zM396 744h-72q-11 0 -16 9l-76 131q-2 4 0 7t6 3h71q11 0 19 -10l41 -57h1l62 57q10 10 23 10h80q5 0 6 -3t-3 -7l-122 -131q-8 -9 -20 -9z" glyph-name="Zcaron.alt01"/>
<glyph horiz-adv-x="533" d="M464 290h-137l-136 -163v-2h277q10 0 8 -10l-19 -105q-2 -10 -11 -10h-431q-11 0 -9 10l17 100q2 8 8 16l136 164h-63q-10 0 -8 10l15 88q2 10 12 10h134l129 155v2h-264q-10 0 -8 10l19 105q2 10 10 10h422q11 0 9 -10l-18 -100q-1 -8 -6 -14l-132 -158h65q10 0 8 -10 l-15 -88q-2 -10 -12 -10zM414 762h-111q-10 0 -8 10l18 94q2 10 11 10h110q10 0 8 -10l-17 -94q-2 -10 -11 -10z" glyph-name="Zdotaccent.alt01"/>
<glyph d="M250 101q52 0 76 49q12 23 32.5 127t31.5 185l-193 -333q15 -28 53 -28zM258 530q-11 -22 -31 -123t-32 -184l190 330q-16 26 -51 26q-52 0 -76 -49zM234 -11q-81 0 -129.5 43t-48.5 121q0 56 27 207.5t49 197.5q65 133 218 133q81 0 129.5 -43t48.5 -121 q0 -56 -27 -207.5t-49 -197.5q-65 -133 -218 -133z" glyph-name="zero.alt01"/>
<glyph d="M435 0h-366q-10 0 -8 10l17 97q2 10 10 10h111q6 0 6 6l72 406h-2l-125 -73q-3 -2 -5.5 -2t-4 2.5t-0.5 6.5l21 116q2 11 9 15l133 80q10 6 19 6h107q10 0 8 -10l-98 -547q0 -6 5 -6h111q10 0 8 -10l-18 -97q-2 -10 -10 -10z" glyph-name="one.alt01"/>
<glyph d="M255 102q55 0 81 52q9 19 15.5 54.5t6.5 58.5q0 62 -63 62q-57 0 -81 -52q-9 -19 -15.5 -54.5t-6.5 -58.5q0 -62 63 -62zM235 -11q-81 0 -129 40.5t-48 120.5q0 27 7 68l43 244q40 229 262 229q106 0 166 -54q6 -6 0 -14l-59 -76q-8 -9 -16 -4q-57 35 -107 35 q-93 0 -111 -107l-11 -65h1q34 36 101 36q74 0 117.5 -36.5t43.5 -107.5q0 -38 -11.5 -95.5t-27.5 -89.5q-60 -124 -221 -124z" glyph-name="six.alt01"/>
<glyph d="M450 259h-90l-139 -250q-5 -9 -15 -9h-118q-11 0 -5 11l138 248h-90q-11 0 -9 10l16 88q2 10 11 10h132l108 194v2h-257q-11 0 -9 10l18 97q2 10 11 10h388q11 0 9 -10l-18 -97q-2 -10 -6 -17l-105 -189h48q11 0 9 -10l-16 -88q-2 -10 -11 -10z" glyph-name="seven.alt01"/>
<glyph d="M289 351q57 0 81 52q9 19 15.5 54.5t6.5 58.5q0 62 -63 62q-55 0 -81 -52q-21 -44 -21 -113q0 -62 62 -62zM214 -11q-106 0 -166 54q-6 6 0 14l59 76q8 9 16 4q57 -35 107 -35q93 0 111 107l11 65h-1q-34 -36 -101 -36q-74 0 -117.5 36.5t-43.5 107.5q0 38 11.5 95.5 t27.5 89.5q60 124 221 124q81 0 129 -40.5t48 -120.5q0 -27 -7 -68l-43 -244q-40 -229 -262 -229z" glyph-name="nine.alt01"/>
<glyph d="M250 101q52 0 76 49q12 23 32.5 127t31.5 185l-193 -333q15 -28 53 -28zM258 530q-11 -22 -31 -123t-32 -184l190 330q-16 26 -51 26q-52 0 -76 -49zM234 -11q-81 0 -129.5 43t-48.5 121q0 56 27 207.5t49 197.5q65 133 218 133q81 0 129.5 -43t48.5 -121 q0 -56 -27 -207.5t-49 -197.5q-65 -133 -218 -133z" glyph-name="zero.alt02"/>
<glyph horiz-adv-x="459" d="M397 0h-366q-10 0 -8 10l17 97q2 10 10 10h111q6 0 6 6l72 406h-2l-125 -73q-3 -2 -5.5 -2t-4 2.5t-0.5 6.5l21 116q2 11 9 15l133 80q10 6 19 6h107q10 0 8 -10l-98 -547q0 -6 5 -6h111q10 0 8 -10l-18 -97q-2 -10 -10 -10z" glyph-name="one.alt02"/>
<glyph horiz-adv-x="541" d="M253 102q55 0 81 52q9 19 15.5 54.5t6.5 58.5q0 62 -63 62q-57 0 -81 -52q-9 -19 -15.5 -54.5t-6.5 -58.5q0 -62 63 -62zM233 -11q-81 0 -129 40.5t-48 120.5q0 27 7 68l43 244q40 229 262 229q106 0 166 -54q6 -6 0 -14l-59 -76q-8 -9 -16 -4q-57 35 -107 35 q-93 0 -111 -107l-11 -65h1q34 36 101 36q74 0 117.5 -36.5t43.5 -107.5q0 -38 -11.5 -95.5t-27.5 -89.5q-60 -124 -221 -124z" glyph-name="six.alt02"/>
<glyph horiz-adv-x="490" d="M419 259h-90l-139 -250q-5 -9 -15 -9h-118q-11 0 -5 11l138 248h-90q-11 0 -9 10l16 88q2 10 11 10h132l108 194v2h-257q-11 0 -9 10l18 97q2 10 11 10h388q11 0 9 -10l-18 -97q-2 -10 -6 -17l-105 -189h48q11 0 9 -10l-16 -88q-2 -10 -11 -10z" glyph-name="seven.alt02"/>
<glyph horiz-adv-x="541" d="M296 351q57 0 81 52q9 19 15.5 54.5t6.5 58.5q0 62 -63 62q-55 0 -81 -52q-21 -44 -21 -113q0 -62 62 -62zM221 -11q-106 0 -166 54q-6 6 0 14l59 76q8 9 16 4q57 -35 107 -35q93 0 111 107l11 65h-1q-34 -36 -101 -36q-74 0 -117.5 36.5t-43.5 107.5q0 38 11.5 95.5 t27.5 89.5q60 124 221 124q81 0 129 -40.5t48 -120.5q0 -27 -7 -68l-43 -244q-40 -229 -262 -229z" glyph-name="nine.alt02"/>
<glyph horiz-adv-x="343" d="M195 349q27 0 41 28q9 18 22.5 94t13.5 101q0 33 -31 33q-29 0 -41 -26q-9 -18 -23 -95.5t-14 -101.5q0 -33 32 -33zM180 266q-55 0 -87 30t-32 85q0 33 15 112t28 107q43 88 151 88q55 0 87 -30t32 -85q0 -34 -14.5 -112.5t-28.5 -106.5q-42 -88 -151 -88z" glyph-name="zero.nominator"/>
<glyph horiz-adv-x="343" d="M243 274h-82q-10 0 -8 10l51 287h-2l-69 -40q-4 -3 -7.5 -1t-2.5 7l15 80q1 10 12 15l66 41q11 7 19 7h79q10 0 8 -10l-68 -386q-2 -10 -11 -10z" glyph-name="one.nominator"/>
<glyph horiz-adv-x="343" d="M308 274h-251q-10 0 -8 10l12 63q2 10 9 16l166 150q35 31 35 62q0 30 -31 30q-33 0 -49 -41q-3 -10 -11 -8l-72 12q-8 2 -6 11q13 46 54 77.5t103 31.5q52 0 82.5 -27.5t30.5 -71.5q0 -66 -68 -126l-112 -103v-1h131q10 0 8 -10l-11 -65q-2 -10 -12 -10z" glyph-name="two.nominator"/>
<glyph horiz-adv-x="343" d="M184 266q-54 0 -86.5 25.5t-36.5 71.5q-2 10 8 12l74 14q8 1 11 -8q9 -32 40 -32q21 0 36.5 16t15.5 39q0 36 -42 36h-16q-10 0 -8 10l11 62q2 10 11 10h14q23 0 37 14t14 38q0 31 -32 31q-29 0 -45 -28q-4 -8 -13 -7l-68 14q-9 2 -6 11q16 41 55.5 67t95.5 26 q55 0 85.5 -26t30.5 -68q0 -69 -59 -104v-1q35 -20 35 -70q0 -69 -46 -111t-116 -42z" glyph-name="three.nominator"/>
<glyph horiz-adv-x="343" d="M289 274h-75q-9 0 -7 10l7 41q2 6 -5 6h-158q-10 0 -8 10l11 66q1 10 8 18l155 245q7 10 16 10h82q10 0 5 -10l-155 -253v-1h59q6 0 7 6l13 71q2 10 11 10h74q10 0 8 -10l-12 -71q-1 -6 4 -6h16q9 0 7 -10l-11 -65q-2 -10 -11 -10h-16q-4 0 -6 -6l-8 -41q-2 -10 -11 -10z " glyph-name="four.nominator"/>
<glyph horiz-adv-x="343" d="M179 266q-52 0 -81 23t-33 64q-2 10 8 13l74 18q9 3 11 -5q6 -28 35 -28t41 24q12 21 12 49q0 35 -32 35q-21 0 -33 -14q-6 -6 -13 -6h-76q-10 0 -8 10l39 221q2 10 11 10h236q10 0 8 -10l-11 -64q-2 -10 -11 -10h-150q-6 0 -6 -6l-12 -65h1q26 17 61 17q45 0 71.5 -23.5 t26.5 -67.5q0 -56 -22 -102q-41 -83 -147 -83z" glyph-name="five.nominator"/>
<glyph horiz-adv-x="343" d="M196 349q23 0 39.5 17t16.5 41q0 38 -39 38q-23 0 -39.5 -17t-16.5 -41q0 -17 10.5 -27.5t28.5 -10.5zM182 266q-57 0 -90.5 29t-33.5 78q0 57 55 135l116 162q7 10 17 10h90q4 0 5 -3.5t-2 -7.5l-102 -144v-1q8 2 17 2q44 0 71 -27t27 -71q0 -68 -48.5 -115t-121.5 -47z " glyph-name="six.nominator"/>
<glyph horiz-adv-x="343" d="M183 274h-82q-12 0 -5 11l179 309v2h-71q-6 0 -7 -6l-8 -40q-2 -10 -11 -10h-75q-10 0 -8 10l22 120q2 10 11 10h255q11 0 9 -10l-13 -72q-1 -8 -7 -15l-174 -300q-6 -9 -15 -9z" glyph-name="seven.nominator"/>
<glyph horiz-adv-x="343" d="M195 348q24 0 41 17.5t17 40.5q0 18 -11.5 29t-29.5 11q-24 0 -40.5 -17t-16.5 -41q0 -18 11.5 -29t28.5 -11zM226 523q20 0 34 15t14 36q0 14 -9 23t-24 9q-20 0 -34 -15t-14 -36q0 -14 9 -23t24 -9zM181 266q-56 0 -90.5 28.5t-34.5 75.5q0 71 63 117v1q-24 24 -24 59 q0 58 47 99.5t114 41.5q56 0 86 -29t30 -72q0 -59 -51 -99v-1q31 -29 31 -70q0 -65 -50 -108t-121 -43z" glyph-name="eight.nominator"/>
<glyph horiz-adv-x="343" d="M224 509q23 0 39.5 17t16.5 41q0 17 -10.5 27.5t-28.5 10.5q-23 0 -39.5 -17t-16.5 -41q0 -38 39 -38zM190 274h-89q-4 0 -5 3.5t2 7.5l102 144v1q-8 -2 -17 -2q-45 0 -71.5 27t-26.5 71q0 68 48.5 115t121.5 47q57 0 90.5 -29t33.5 -78q0 -57 -55 -135l-116 -162 q-7 -10 -18 -10z" glyph-name="nine.nominator"/>
<glyph horiz-adv-x="343" d="M149 75q27 0 41 28q9 18 22.5 94t13.5 101q0 33 -31 33q-29 0 -41 -26q-9 -18 -23 -95.5t-14 -101.5q0 -33 32 -33zM134 -8q-55 0 -87 30t-32 85q0 33 15 112t28 107q43 88 151 88q55 0 87 -30t32 -85q0 -34 -14.5 -112.5t-28.5 -106.5q-42 -88 -151 -88z" glyph-name="zero.denominator"/>
<glyph horiz-adv-x="343" d="M195 0h-82q-10 0 -8 10l51 287h-2l-69 -40q-4 -3 -7.5 -1t-2.5 7l15 80q1 10 12 15l66 41q11 7 19 7h79q10 0 8 -10l-68 -386q-2 -10 -11 -10z" glyph-name="one.denominator"/>
<glyph horiz-adv-x="343" d="M260 0h-251q-10 0 -8 10l12 63q2 10 9 16l166 150q35 31 35 62q0 30 -31 30q-33 0 -49 -41q-3 -10 -11 -8l-72 12q-8 2 -6 11q13 46 54 77.5t103 31.5q52 0 82.5 -27.5t30.5 -71.5q0 -66 -68 -126l-112 -103v-1h131q10 0 8 -10l-11 -65q-2 -10 -12 -10z" glyph-name="two.denominator"/>
<glyph horiz-adv-x="343" d="M137 -8q-54 0 -86.5 25.5t-36.5 71.5q-2 10 8 12l74 14q8 1 11 -8q9 -32 40 -32q21 0 36.5 16t15.5 39q0 36 -42 36h-16q-10 0 -8 10l11 62q2 10 11 10h14q23 0 37 14t14 38q0 31 -32 31q-29 0 -45 -28q-4 -8 -13 -7l-68 14q-9 2 -6 11q16 41 55.5 67t95.5 26 q55 0 85.5 -26t30.5 -68q0 -69 -59 -104v-1q35 -20 35 -70q0 -69 -46 -111t-116 -42z" glyph-name="three.denominator"/>
<glyph horiz-adv-x="343" d="M243 0h-75q-9 0 -7 10l7 41q2 6 -5 6h-158q-10 0 -8 10l11 66q1 10 8 18l155 245q7 10 16 10h82q10 0 5 -10l-155 -253v-1h59q6 0 7 6l13 71q2 10 11 10h74q10 0 8 -10l-12 -71q-1 -6 4 -6h16q9 0 7 -10l-11 -65q-2 -10 -11 -10h-16q-4 0 -6 -6l-8 -41q-2 -10 -11 -10z " glyph-name="four.denominator"/>
<glyph horiz-adv-x="343" d="M131 -8q-52 0 -81 23t-33 64q-2 10 8 13l74 18q9 3 11 -5q6 -28 35 -28t41 24q12 21 12 49q0 35 -32 35q-21 0 -33 -14q-6 -6 -13 -6h-76q-10 0 -8 10l39 221q2 10 11 10h236q10 0 8 -10l-11 -64q-2 -10 -11 -10h-150q-6 0 -6 -6l-12 -65h1q26 17 61 17q45 0 71.5 -23.5 t26.5 -67.5q0 -56 -22 -102q-41 -83 -147 -83z" glyph-name="five.denominator"/>
<glyph horiz-adv-x="343" d="M149 75q23 0 39.5 17t16.5 41q0 38 -39 38q-23 0 -39.5 -17t-16.5 -41q0 -17 10.5 -27.5t28.5 -10.5zM135 -8q-57 0 -90.5 29t-33.5 78q0 57 55 135l116 162q7 10 17 10h90q4 0 5 -3.5t-2 -7.5l-102 -144v-1q8 2 17 2q44 0 71 -27t27 -71q0 -68 -48.5 -115t-121.5 -47z " glyph-name="six.denominator"/>
<glyph horiz-adv-x="343" d="M135 0h-82q-12 0 -5 11l179 309v2h-71q-6 0 -7 -6l-8 -40q-2 -10 -11 -10h-75q-10 0 -8 10l22 120q2 10 11 10h255q11 0 9 -10l-13 -72q-1 -8 -7 -15l-174 -300q-6 -9 -15 -9z" glyph-name="seven.denominator"/>
<glyph horiz-adv-x="343" d="M148 74q24 0 41 17.5t17 40.5q0 18 -11.5 29t-29.5 11q-24 0 -40.5 -17t-16.5 -41q0 -18 11.5 -29t28.5 -11zM179 249q20 0 34 15t14 36q0 14 -9 23t-24 9q-20 0 -34 -15t-14 -36q0 -14 9 -23t24 -9zM134 -8q-56 0 -90.5 28.5t-34.5 75.5q0 71 63 117v1q-24 24 -24 59 q0 58 47 99.5t114 41.5q56 0 86 -29t30 -72q0 -59 -51 -99v-1q31 -29 31 -70q0 -65 -50 -108t-121 -43z" glyph-name="eight.denominator"/>
<glyph horiz-adv-x="343" d="M177 235q23 0 39.5 17t16.5 41q0 17 -10.5 27.5t-28.5 10.5q-23 0 -39.5 -17t-16.5 -41q0 -38 39 -38zM143 0h-89q-4 0 -5 3.5t2 7.5l102 144v1q-8 -2 -17 -2q-45 0 -71.5 27t-26.5 71q0 68 48.5 115t121.5 47q57 0 90.5 -29t33.5 -78q0 -57 -55 -135l-116 -162 q-7 -10 -18 -10z" glyph-name="nine.denominator"/>
</font>
</defs>
</svg>
