<?xml version="1.0" encoding="UTF-8" standalone="no"?>
<!DOCTYPE svg  PUBLIC '-//W3C//DTD SVG 1.1//EN'  'http://www.w3.org/Graphics/SVG/1.1/DTD/svg11.dtd'>
<svg version="1.1" xmlns="http://www.w3.org/2000/svg">
<defs>
<font id="DINNextLTPro-LightItalic" horiz-adv-x="510">
<font-face ascent="800" unicode-range="U+0020-FB04" x-height="477" units-per-em="1000" bbox="-153.2 -213 947 913" underline-thickness="50" underline-position="-150" font-family="DIN Next LT Pro Light Italic" font-weight="300" font-style="italic" cap-height="680" descent="-200" panose-1="2 11 3 3 2 2 3 12 2 3"/>
<missing-glyph d="M241 113h-31q-10 0 -10 10v39q0 10 10 10h31q10 0 10 -10v-39q0 -10 -10 -10zM237 224h-22q-10 0 -10 10v24q0 40 22 67l37 48q37 44 37 80q0 31 -20 50.5t-52 19.5q-62 0 -77 -67q-2 -9 -12 -8l-21 4q-10 2 -8 11q8 44 40 71.5t79 27.5q50 0 81 -31t31 -78 q0 -49 -38 -94l-37 -48q-20 -25 -20 -55v-22q0 -10 -10 -10zM425 37q6 0 6 6v594q0 6 -6 6h-380q-6 0 -6 -6v-594q0 -6 6 -6h380zM460 0h-450q-10 0 -10 10v660q0 10 10 10h450q10 0 10 -10v-660q0 -10 -10 -10z" horiz-adv-x="470"/>
<glyph glyph-name="IJ" unicode="IJ" horiz-adv-x="688" d="M245 48q-8 8 2 14l25 20q8 6 15 -1q47 -40 97 -40q135 0 164 162l82 467q2 10 11 10h34q10 0 8 -10l-83 -469q-20 -113 -75.5 -162t-145.5 -49q-39 0 -75.5 16.5t-58.5 41.5zM54 10l116 660q2 10 11 10h34q10 0 8 -10l-116 -660q-2 -10 -11 -10h-34q-10 0 -8 10z"/>
<glyph glyph-name="ij" unicode="ij" horiz-adv-x="457" d="M180 -180h-10q-10 0 -8 10l4 28q1 10 12 10h8q39 0 56.5 15.5t25.5 60.5l92 523q2 10 11 10h32q10 0 8 -10l-92 -523q-13 -72 -42.5 -98t-96.5 -26zM431 607h-41q-10 0 -8 10l10 53q2 10 11 10h41q10 0 8 -10l-10 -53q-1 -10 -11 -10zM92 0h-32q-10 0 -8 10l80 457 q2 10 11 10h32q10 0 8 -10l-81 -457q-2 -10 -10 -10zM203 607h-41q-10 0 -8 10l10 53q2 10 11 10h41q10 0 8 -10l-10 -53q-1 -10 -11 -10z"/>
<glyph glyph-name="napostrophe" unicode='&quot;n' horiz-adv-x="519" d="M387 0h-32q-9 0 -7 10l51 282q5 30 5 48q0 99 -100 99q-51 0 -95 -37.5t-55 -97.5l-52 -294q-2 -10 -10 -10h-33q-9 0 -7 10l80 457q2 10 11 10h32q10 0 8 -10l-10 -55h1q52 75 149 75q65 0 99.5 -34.5t34.5 -98.5q0 -19 -5 -49l-54 -295q-2 -10 -11 -10zM84 538 q-9 0 -7 10l21 122q2 10 11 10h36q10 0 8 -10l-8 -46q-3 -14 -8 -21l-40 -57q-6 -8 -13 -8z"/>
<glyph glyph-name="f_f" unicode="ff" horiz-adv-x="589" d="M401 0h-33q-9 0 -7 10l74 417q1 6 -5 6h-49q-9 0 -7 10l4 24q2 10 11 10h49q6 0 7 6l10 54q14 82 47.5 112.5t103.5 30.5h26q10 0 8 -10l-4 -28q-1 -10 -12 -10h-20q-51 0 -69.5 -16.5t-28.5 -73.5l-11 -59q-1 -6 4 -6h97q11 0 9 -10l-4 -24q-1 -10 -12 -10h-97 q-4 0 -6 -6l-75 -417q-2 -10 -10 -10zM107 0h-33q-9 0 -7 10l74 417q1 6 -5 6h-49q-9 0 -7 10l4 24q2 10 11 10h49q6 0 7 6l10 54q14 82 47.5 112.5t103.5 30.5h26q10 0 8 -10l-4 -28q-1 -10 -12 -10h-20q-51 0 -69.5 -16.5t-28.5 -73.5l-11 -59q-1 -6 4 -6h97q11 0 9 -10 l-4 -24q-1 -10 -12 -10h-97q-4 0 -6 -6l-75 -417q-2 -10 -10 -10z"/>
<glyph glyph-name="fi" unicode="fi" horiz-adv-x="523" d="M107 0h-33q-9 0 -7 10l74 417q1 6 -5 6h-49q-9 0 -7 10l4 24q2 10 11 10h49q6 0 7 6l10 54q14 82 47.5 112.5t103.5 30.5h26q10 0 8 -10l-4 -28q-1 -10 -12 -10h-20q-51 0 -69.5 -16.5t-28.5 -73.5l-11 -59q-1 -6 4 -6h97q11 0 9 -10l-4 -24q-1 -10 -12 -10h-97 q-4 0 -6 -6l-75 -417q-2 -10 -10 -10zM386 0h-32q-10 0 -8 10l80 457q2 10 11 10h32q10 0 8 -10l-81 -457q-2 -10 -10 -10zM497 607h-41q-10 0 -8 10l10 53q2 10 11 10h41q10 0 8 -10l-10 -53q-1 -10 -11 -10z"/>
<glyph glyph-name="fl" unicode="fl" horiz-adv-x="544" d="M107 0h-33q-9 0 -7 10l74 417q1 6 -5 6h-49q-9 0 -7 10l4 24q2 10 11 10h49q6 0 7 6l10 54q14 82 47.5 112.5t103.5 30.5h26q10 0 8 -10l-4 -28q-1 -10 -12 -10h-20q-51 0 -69.5 -16.5t-28.5 -73.5l-11 -59q-1 -6 4 -6h97q11 0 9 -10l-4 -24q-1 -10 -12 -10h-97 q-4 0 -6 -6l-75 -417q-2 -10 -10 -10zM458 -3h-22q-78 0 -78 71q0 10 4 38l103 564q2 10 10 10h32q10 0 8 -10l-103 -563q-3 -15 -3 -26q0 -20 9.5 -28t31.5 -8h16q10 0 8 -10l-4 -28q-1 -10 -12 -10z"/>
<glyph glyph-name="f_f_i" unicode="ffi" horiz-adv-x="818" d="M401 0h-33q-9 0 -7 10l74 417q1 6 -5 6h-49q-9 0 -7 10l4 24q2 10 11 10h49q6 0 7 6l10 54q14 82 47.5 112.5t103.5 30.5h26q10 0 8 -10l-4 -28q-1 -10 -12 -10h-20q-51 0 -69.5 -16.5t-28.5 -73.5l-11 -59q-1 -6 4 -6h97q11 0 9 -10l-4 -24q-1 -10 -12 -10h-97 q-4 0 -6 -6l-75 -417q-2 -10 -10 -10zM107 0h-33q-9 0 -7 10l74 417q1 6 -5 6h-49q-9 0 -7 10l4 24q2 10 11 10h49q6 0 7 6l10 54q14 82 47.5 112.5t103.5 30.5h26q10 0 8 -10l-4 -28q-1 -10 -12 -10h-20q-51 0 -69.5 -16.5t-28.5 -73.5l-11 -59q-1 -6 4 -6h97q11 0 9 -10 l-4 -24q-1 -10 -12 -10h-97q-4 0 -6 -6l-75 -417q-2 -10 -10 -10zM681 0h-32q-10 0 -8 10l80 457q2 10 11 10h32q10 0 8 -10l-81 -457q-2 -10 -10 -10zM792 607h-41q-10 0 -8 10l10 53q2 10 11 10h41q10 0 8 -10l-10 -53q-1 -10 -11 -10z"/>
<glyph glyph-name="f_f_l" unicode="ffl" horiz-adv-x="839" d="M401 0h-33q-9 0 -7 10l74 417q1 6 -5 6h-49q-9 0 -7 10l4 24q2 10 11 10h49q6 0 7 6l10 54q14 82 47.5 112.5t103.5 30.5h26q10 0 8 -10l-4 -28q-1 -10 -12 -10h-20q-51 0 -69.5 -16.5t-28.5 -73.5l-11 -59q-1 -6 4 -6h97q11 0 9 -10l-4 -24q-1 -10 -12 -10h-97 q-4 0 -6 -6l-75 -417q-2 -10 -10 -10zM107 0h-33q-9 0 -7 10l74 417q1 6 -5 6h-49q-9 0 -7 10l4 24q2 10 11 10h49q6 0 7 6l10 54q14 82 47.5 112.5t103.5 30.5h26q10 0 8 -10l-4 -28q-1 -10 -12 -10h-20q-51 0 -69.5 -16.5t-28.5 -73.5l-11 -59q-1 -6 4 -6h97q11 0 9 -10 l-4 -24q-1 -10 -12 -10h-97q-4 0 -6 -6l-75 -417q-2 -10 -10 -10zM753 -3h-22q-78 0 -78 71q0 10 4 38l103 564q2 10 10 10h32q10 0 8 -10l-103 -563q-3 -15 -3 -26q0 -20 9.5 -28t31.5 -8h16q10 0 8 -10l-4 -28q-1 -10 -12 -10z"/>
<glyph glyph-name=".notdef" horiz-adv-x="470" d="M241 113h-31q-10 0 -10 10v39q0 10 10 10h31q10 0 10 -10v-39q0 -10 -10 -10zM237 224h-22q-10 0 -10 10v24q0 40 22 67l37 48q37 44 37 80q0 31 -20 50.5t-52 19.5q-62 0 -77 -67q-2 -9 -12 -8l-21 4q-10 2 -8 11q8 44 40 71.5t79 27.5q50 0 81 -31t31 -78 q0 -49 -38 -94l-37 -48q-20 -25 -20 -55v-22q0 -10 -10 -10zM425 37q6 0 6 6v594q0 6 -6 6h-380q-6 0 -6 -6v-594q0 -6 6 -6h380zM460 0h-450q-10 0 -10 10v660q0 10 10 10h450q10 0 10 -10v-660q0 -10 -10 -10z"/>
<glyph glyph-name=".null" horiz-adv-x="500"/>
<glyph glyph-name="nonmarkingreturn" horiz-adv-x="333"/>
<glyph glyph-name="space" unicode=" " horiz-adv-x="236"/>
<glyph glyph-name="exclam" unicode="!" horiz-adv-x="253" d="M58 10l12 65q2 10 11 10h45q10 0 8 -10l-10 -65q-3 -10 -12 -10h-45q-11 0 -9 10zM109 176q-10 0 -8 10l78 484q2 10 11 10h37q10 0 8 -10l-94 -484q-2 -10 -11 -10h-21z"/>
<glyph glyph-name="quotedbl" unicode='&quot;' horiz-adv-x="301" d="M136 523q-10 0 -8 10l23 137q2 10 11 10h23q10 0 8 -10l-23 -137q-2 -10 -11 -10h-23zM250 523q-10 0 -8 10l24 137q2 10 11 10h23q10 0 8 -10l-24 -137q-2 -10 -11 -10h-23z"/>
<glyph glyph-name="numbersign" unicode="#" horiz-adv-x="496" d="M171 262h146l53 173h-145zM52 10l65 211h-80q-11 0 -9 10l4 21q2 10 12 10h85l53 173h-83q-11 0 -9 10l4 21q2 10 12 10h89l60 194q3 10 12 10h22q11 0 8 -10l-60 -194h145l60 194q3 10 12 10h23q10 0 7 -10l-60 -194h84q10 0 8 -10l-4 -21q-2 -10 -11 -10h-89l-53 -173 h87q11 0 9 -10l-4 -21q-2 -10 -12 -10h-93l-64 -211q-3 -10 -12 -10h-23q-10 0 -7 10l64 211h-145l-65 -211q-3 -10 -12 -10h-23q-10 0 -7 10z"/>
<glyph glyph-name="dollar" unicode="$" d="M245 40q68 7 110 55t42 115q0 86 -104 105zM268 372l47 268q-64 -5 -105 -50.5t-41 -111.5q0 -43 23 -69.5t76 -36.5zM32 51q-6 6 1 13l21 24q7 7 14 1q62 -47 141 -50l50 282q-141 23 -141 151q0 92 58 152.5t148 65.5l9 51q2 10 11 10h17q10 0 7 -10l-9 -52 q74 -6 130 -46q6 -6 1 -14l-18 -23q-6 -8 -14 -2q-56 33 -108 36l-48 -273q146 -21 146 -148q0 -96 -57.5 -158t-153.5 -70l-9 -52q-2 -10 -12 -10h-16q-10 0 -8 10l9 51q-104 3 -169 61z"/>
<glyph glyph-name="percent" unicode="%" horiz-adv-x="739" d="M452 88q0 -27 14.5 -42.5t42.5 -15.5q46 0 70 45q12 24 24 86.5t12 92.5q0 57 -57 57q-47 0 -70 -45q-12 -24 -24 -86t-12 -92zM411 84q0 31 13 98.5t26 93.5q36 74 113 74q42 0 67.5 -24.5t25.5 -68.5q0 -31 -12.5 -98.5t-25.5 -93.5q-36 -73 -113 -73q-43 0 -68.5 24 t-25.5 68zM220 368q47 0 71 46q12 24 24 86t12 92q0 27 -14.5 42.5t-42.5 15.5q-46 0 -70 -46q-13 -24 -25 -86t-12 -92q0 -27 15 -42.5t42 -15.5zM216 330q-42 0 -67.5 24.5t-25.5 68.5q0 31 12.5 98t25.5 93q36 74 113 74q43 0 68.5 -24.5t25.5 -68.5q0 -31 -13 -98 t-26 -93q-36 -74 -113 -74zM118 0l498 680q7 10 15 10h25q11 0 4 -10l-497 -680q-9 -10 -16 -10h-25q-11 0 -4 10z"/>
<glyph glyph-name="ampersand" unicode="&amp;" horiz-adv-x="591" d="M97 137q0 -46 25.5 -72.5t71.5 -26.5q40 0 78.5 22t88.5 73l-115 208q-77 -56 -113 -103.5t-36 -100.5zM264 410q76 55 103.5 91t27.5 70q0 35 -20 54t-56 19q-45 0 -75 -30.5t-30 -74.5q0 -36 50 -129zM48 130q0 67 41.5 125t134.5 126v1q-33 61 -46 93t-13 59 q0 66 46.5 111t115.5 45q53 0 84.5 -31.5t31.5 -80.5t-33.5 -95.5t-123.5 -113.5l110 -200l88 95q6 6 14 2l18 -19q6 -6 -2 -14l-96 -104l31 -56q14 -24 38 -24h16q10 0 8 -10l-4 -29q-1 -10 -11 -10h-16q-26 0 -40.5 8.5t-26.5 30.5l-30 53q-54 -54 -99.5 -78t-97.5 -24 q-64 0 -101 39t-37 101z"/>
<glyph glyph-name="quotesingle" unicode="&apos;" horiz-adv-x="186" d="M136 523q-10 0 -8 10l23 137q2 10 11 10h23q10 0 8 -10l-23 -137q-2 -10 -11 -10h-23z"/>
<glyph glyph-name="parenleft" unicode="(" horiz-adv-x="276" d="M135 -74q-47 125 -47 264q0 276 188 540q7 10 16 10h19q12 0 5 -10q-179 -274 -179 -553q0 -134 37 -251q3 -10 -8 -10h-18q-10 0 -13 10z"/>
<glyph glyph-name="parenright" unicode=")" horiz-adv-x="276" d="M-4 -74q178 273 178 553q0 137 -36 251q-3 10 7 10h19q9 0 12 -10q47 -121 47 -264q0 -278 -188 -540q-7 -10 -15 -10h-20q-11 0 -4 10z"/>
<glyph glyph-name="asterisk" unicode="*" horiz-adv-x="339" d="M191 404q-10 0 -8 10l17 97l-89 -49q-11 -6 -14 3l-5 15q-3 9 7 13l92 50l-73 49q-8 5 -2 13l9 13q5 8 13 2l73 -48l17 98q2 10 12 10h15q10 0 8 -10l-18 -98l90 50q10 6 14 -3l5 -15q3 -8 -7 -14l-90 -49l73 -48q8 -5 2 -14l-9 -13q-6 -8 -14 -2l-74 49l-17 -99 q-2 -10 -12 -10h-15z"/>
<glyph glyph-name="plus" unicode="+" d="M241 86v161q0 6 -6 6h-158q-10 0 -10 10v27q0 10 10 10h158q6 0 6 6v161q0 10 10 10h28q10 0 10 -10v-161q0 -6 6 -6h158q10 0 10 -10v-27q0 -10 -10 -10h-158q-6 0 -6 -6v-161q0 -10 -10 -10h-28q-10 0 -10 10z"/>
<glyph glyph-name="comma" unicode="," horiz-adv-x="209" d="M52 75q2 10 11 10h40q10 0 8 -10l-12 -73q-2 -12 -8 -22l-49 -77q-5 -8 -11 -8q-10 0 -8 10z"/>
<glyph glyph-name="hyphen" unicode="-" horiz-adv-x="356" d="M61 243q-10 0 -8 10l5 28q2 9 11 9h244q10 0 8 -10l-4 -28q-1 -9 -12 -9h-244z"/>
<glyph glyph-name="period" unicode="." horiz-adv-x="209" d="M36 10l11 65q2 10 11 10h45q10 0 8 -10l-10 -65q-2 -10 -11 -10h-46q-10 0 -8 10z"/>
<glyph glyph-name="slash" unicode="/" horiz-adv-x="387" d="M25 0l333 680q4 10 14 10h28q10 0 5 -10l-333 -680q-4 -10 -14 -10h-28q-10 0 -5 10z"/>
<glyph glyph-name="zero" unicode="0" d="M117 143q0 -49 27 -77t78 -28q91 0 133 86q21 43 50 199t29 214q0 49 -26.5 77t-77.5 28q-91 0 -133 -86q-21 -43 -50.5 -199t-29.5 -214zM66 136q0 65 30 226t53 208q57 120 187 120q70 0 110 -39t40 -107q0 -65 -30 -226t-53 -208q-57 -120 -187 -120q-70 0 -110 39 t-40 107z"/>
<glyph glyph-name="one" unicode="1" d="M206 10l107 602h-2l-134 -89q-5 -3 -8 -1t-2 8l6 40q1 8 9 13l138 91q9 6 15 6h29q11 0 9 -10l-116 -660q-2 -10 -11 -10h-31q-11 0 -9 10z"/>
<glyph glyph-name="two" unicode="2" d="M38 9l4 25q0 7 7 14l297 329q82 88 82 160q0 48 -28.5 76.5t-76.5 28.5q-52 0 -90 -32t-57 -87q-3 -10 -12 -8l-29 6q-8 2 -5 12q20 67 72 112t126 45q69 0 110 -41t41 -105q0 -53 -23.5 -98.5t-74.5 -101.5l-269 -294v-2h271q11 0 9 -10l-5 -28q-2 -10 -12 -10h-329 q-8 0 -8 9z"/>
<glyph glyph-name="three" unicode="3" d="M49 129q-2 10 8 13l30 8q9 2 10 -7q15 -105 118 -105q69 0 115.5 51.5t46.5 125.5q0 52 -30 84t-83 32h-30q-9 0 -7 10l4 29q3 9 11 9h29q64 0 108 46.5t44 111.5q0 48 -27.5 76.5t-77.5 28.5q-53 0 -88.5 -28.5t-52.5 -71.5q-3 -10 -12 -8l-28 8q-9 2 -6 12 q19 57 71 96.5t125 39.5q69 0 108 -39.5t39 -104.5q0 -64 -32.5 -113t-87.5 -75v-2q33 -14 54 -49t21 -83q0 -101 -61 -167.5t-158 -66.5q-76 0 -116 40.5t-45 98.5z"/>
<glyph glyph-name="four" unicode="4" d="M45 138q-9 0 -8 9l5 27q1 7 4 12l298 486q5 8 14 8h34q10 0 5 -9l-295 -484v-1h201q5 0 7 6l33 188q2 10 11 10h32q10 0 8 -10l-33 -188q-1 -6 5 -6h72q10 0 8 -10l-5 -29q-1 -9 -11 -9h-73q-5 0 -7 -6l-21 -122q-2 -10 -11 -10h-32q-10 0 -8 10l23 122q1 6 -5 6h-251z "/>
<glyph glyph-name="five" unicode="5" d="M79 145l30 7q10 1 10 -8q1 -49 28 -77.5t80 -28.5q86 0 126 80q16 32 27 85t11 89q0 106 -98 106q-44 0 -79.5 -24.5t-51.5 -59.5q-4 -10 -12 -10h-29q-9 0 -8 10l63 356q2 10 11 10h306q11 0 9 -10l-5 -28q-2 -10 -12 -10h-262q-5 0 -7 -6l-43 -241h1q45 61 132 61 q65 0 100.5 -36t35.5 -106q0 -43 -12 -105t-32 -102q-52 -107 -177 -107q-71 0 -110.5 39t-39.5 103q0 12 8 13z"/>
<glyph glyph-name="six" unicode="6" d="M106 158q0 -55 31 -87.5t84 -32.5q73 0 122 57.5t49 134.5q0 54 -31 87t-85 33q-73 0 -121.5 -57.5t-48.5 -134.5zM55 152q0 92 71 195l221 326q6 7 13 7h35q12 0 5 -9l-200 -296l2 -1q30 24 88 24q70 0 111.5 -43t41.5 -115q0 -102 -63 -176t-164 -74q-74 0 -117.5 43 t-43.5 119z"/>
<glyph glyph-name="seven" unicode="7" d="M106 11l345 619v2h-240q-5 0 -7 -6l-17 -95q-2 -10 -11 -10h-30q-9 0 -7 10l24 139q2 10 11 10h329q11 0 9 -10l-6 -33q-1 -4 -5 -12l-343 -616q-5 -9 -15 -9h-33q-10 0 -4 11z"/>
<glyph glyph-name="eight" unicode="8" d="M104 155q0 -52 32 -84.5t87 -32.5q70 0 120.5 52t50.5 127q0 52 -32 84.5t-87 32.5q-70 0 -120.5 -52.5t-50.5 -126.5zM284 382q64 0 107 45.5t43 111.5q0 46 -28 74.5t-76 28.5q-64 0 -107 -45.5t-43 -111.5q0 -46 28.5 -74.5t75.5 -28.5zM54 145q0 70 37 128t102 86v2 q-63 34 -63 117q0 85 57 148.5t150 63.5q68 0 107.5 -40t39.5 -104q0 -61 -32 -111.5t-86 -75.5v-2q78 -40 78 -134q0 -97 -64.5 -165t-163.5 -68q-74 0 -118 43t-44 112z"/>
<glyph glyph-name="nine" unicode="9" d="M274 330q74 0 122.5 57.5t48.5 133.5q0 55 -30.5 88t-84.5 33q-74 0 -122.5 -57.5t-48.5 -133.5q0 -55 30.5 -88t84.5 -33zM150 9l200 296l-2 1q-30 -24 -87 -24q-70 0 -112 44.5t-42 116.5q0 100 63 173.5t165 73.5q74 0 117.5 -43t43.5 -119q0 -89 -71 -195l-221 -326 q-6 -7 -14 -7h-35q-12 0 -5 9z"/>
<glyph glyph-name="colon" unicode=":" horiz-adv-x="209" d="M36 10l11 65q2 10 11 10h45q10 0 8 -10l-10 -65q-2 -10 -11 -10h-46q-10 0 -8 10zM114 392q-10 0 -8 10l10 64q2 10 11 10h46q10 0 8 -10l-10 -64q-2 -10 -11 -10h-46z"/>
<glyph glyph-name="semicolon" unicode=";" horiz-adv-x="209" d="M50 75q2 10 11 10h40q10 0 8 -10l-12 -73q-1 -7 -8 -22l-49 -77q-5 -8 -12 -8q-9 0 -7 10zM114 392q-10 0 -8 10l10 64q2 10 11 10h46q10 0 8 -10l-10 -64q-2 -10 -11 -10h-46z"/>
<glyph glyph-name="less" unicode="&lt;" d="M73 252q-10 4 -10 12v24q0 8 10 12l376 154q10 3 10 -6v-33q0 -9 -10 -13l-319 -125v-2l319 -125q10 -4 10 -13v-33q0 -9 -10 -6z"/>
<glyph glyph-name="equal" unicode="=" d="M77 155q-10 0 -10 10v28q0 10 10 10h376q10 0 10 -10v-28q0 -10 -10 -10h-376zM77 349q-10 0 -10 10v28q0 10 10 10h376q10 0 10 -10v-28q0 -10 -10 -10h-376z"/>
<glyph glyph-name="greater" unicode="&gt;" d="M67 104v33q0 9 10 13l318 125v2l-318 125q-10 4 -10 13v33q0 9 10 6l376 -154q10 -4 10 -12v-24q0 -8 -10 -12l-376 -154q-10 -3 -10 6z"/>
<glyph glyph-name="question" unicode="?" horiz-adv-x="428" d="M148 10l11 65q2 10 11 10h45q10 0 8 -10l-10 -65q-2 -10 -11 -10h-46q-10 0 -8 10zM190 173q-10 0 -8 10l8 40q10 57 49 99l64 72q48 50 67 84t19 70q0 44 -26 69t-70 25q-48 0 -85 -30.5t-56 -83.5q-3 -9 -12 -8l-30 5q-9 1 -5 12q22 71 74 112t122 41q64 0 101.5 -37 t37.5 -98q0 -80 -88 -175l-64 -73q-24 -26 -33 -42t-15 -46l-8 -36q-2 -10 -11 -10h-31z"/>
<glyph glyph-name="at" unicode="@" horiz-adv-x="879" d="M316 193q0 -93 85 -94q81 0 116 74q15 30 25 76t10 82q0 43 -21.5 68t-64.5 26q-81 0 -116 -74q-15 -29 -24.5 -75.5t-9.5 -82.5zM56 195q0 206 122.5 335t322.5 129q146 0 236 -86t90 -230q0 -78 -19 -141t-63 -104.5t-108 -41.5q-38 0 -65 21.5t-34 58.5h-1 q-49 -80 -146 -80q-54 1 -87 35t-33 95q0 101 38 182q48 99 151 99q84 0 107 -62h2l7 43q2 10 11 10h26q10 0 8 -10l-43 -245q-3 -15 -3 -29q0 -37 19.5 -56t49.5 -19q47 0 79.5 38.5t45.5 89.5t13 109q0 132 -78 206.5t-211 74.5q-173 0 -282.5 -116.5t-109.5 -301.5 q0 -131 78 -206.5t210 -75.5q111 0 209 49q9 4 12 -4l8 -24q3 -8 -6 -12q-100 -53 -230 -53q-147 0 -236.5 88t-89.5 234z"/>
<glyph glyph-name="A" unicode="A" horiz-adv-x="575" d="M168 230h251l-59 363h-2zM1 0q-10 0 -5 10l346 660q5 10 13 10h32q8 0 10 -10l110 -660q2 -10 -9 -10h-32q-10 0 -11 10l-28 170h-285l-89 -170q-5 -10 -14 -10h-38z"/>
<glyph glyph-name="B" unicode="B" horiz-adv-x="583" d="M115 56q-1 -6 4 -6h173q80 0 126 45t46 117q0 51 -31.5 80t-91.5 29h-173q-6 0 -7 -6zM176 371h169q75 0 119 43.5t44 111.5q0 49 -30 76.5t-87 27.5h-169q-6 0 -7 -6l-43 -247q-2 -6 4 -6zM54 10l116 660q2 10 11 10h217q79 0 121.5 -37.5t42.5 -105.5q0 -70 -35.5 -119 t-97.5 -68v-2q34 -10 60.5 -42.5t26.5 -85.5q0 -102 -61.5 -161t-173.5 -59h-219q-10 0 -8 10z"/>
<glyph glyph-name="C" unicode="C" horiz-adv-x="537" d="M64 183q0 63 22.5 182.5t49.5 174.5q38 78 93 114t134 36q62 0 108.5 -34t65.5 -97q3 -8 -5 -11l-28 -13q-10 -5 -13 4q-37 100 -134 100q-114 0 -172 -116q-25 -52 -46.5 -163.5t-21.5 -170.5q0 -71 36 -109.5t104 -38.5q100 0 167 99q5 7 12 4l28 -16q7 -4 2 -13 q-78 -125 -217 -125q-86 0 -135.5 50.5t-49.5 142.5z"/>
<glyph glyph-name="D" unicode="D" horiz-adv-x="604" d="M115 57q-1 -6 4 -6h147q133 0 184 105q24 50 46 162t22 175q0 70 -36.5 103t-112.5 33h-147q-6 0 -7 -6zM54 10l116 660q2 10 11 10h205q184 0 184 -178q0 -70 -23 -191.5t-52 -179.5q-34 -70 -88.5 -100.5t-139.5 -30.5h-205q-10 0 -8 10z"/>
<glyph glyph-name="E" unicode="E" horiz-adv-x="535" d="M54 10l116 660q2 10 11 10h373q10 0 8 -10l-5 -31q-1 -10 -12 -10h-323q-6 0 -7 -6l-43 -246q-1 -7 5 -7h277q10 0 8 -10l-5 -30q-1 -10 -12 -10h-277q-6 0 -7 -6l-46 -257q-1 -6 5 -6h323q10 0 8 -10l-5 -31q-1 -10 -12 -10h-372q-10 0 -8 10z"/>
<glyph glyph-name="F" unicode="F" horiz-adv-x="528" d="M54 10l116 660q2 10 11 10h373q10 0 8 -10l-5 -31q-1 -10 -12 -10h-323q-6 0 -7 -6l-45 -253q0 -7 6 -7h277q10 0 8 -10l-5 -30q-1 -10 -12 -10h-277q-5 0 -7 -6l-53 -297q-2 -10 -11 -10h-34q-10 0 -8 10z"/>
<glyph glyph-name="G" unicode="G" horiz-adv-x="584" d="M65 183q0 64 22.5 183.5t49.5 173.5q72 150 238 150q65 0 114.5 -33t67.5 -93q1 -9 -6 -12l-29 -13q-9 -3 -11 4q-36 96 -145 96q-123 0 -180 -116q-25 -52 -46.5 -163.5t-21.5 -170.5q0 -71 36.5 -109.5t105.5 -38.5q123 0 180 115q28 56 40 133q2 6 -5 6h-149 q-10 0 -8 10l5 30q1 9 10 9h200q9 0 7 -10l-7 -41q-15 -94 -43 -153q-38 -78 -96 -114t-142 -36q-87 0 -137 50.5t-50 142.5z"/>
<glyph glyph-name="H" unicode="H" horiz-adv-x="624" d="M54 10l116 660q2 10 11 10h34q10 0 8 -10l-52 -294q-1 -6 5 -6h325q5 0 7 6l52 294q2 10 11 10h34q10 0 8 -10l-116 -660q-2 -10 -11 -10h-34q-10 0 -8 10l53 304q1 6 -4 6h-325q-6 0 -7 -6l-54 -304q-2 -10 -11 -10h-34q-10 0 -8 10z"/>
<glyph glyph-name="I" unicode="I" horiz-adv-x="234" d="M54 10l116 660q2 10 11 10h34q10 0 8 -10l-116 -660q-2 -10 -11 -10h-34q-10 0 -8 10z"/>
<glyph glyph-name="J" unicode="J" horiz-adv-x="459" d="M11 48q-8 8 2 14l25 20q8 6 15 -1q47 -40 97 -40q135 0 164 162l82 467q2 10 11 10h34q10 0 8 -10l-83 -469q-20 -113 -75.5 -162t-145.5 -49q-39 0 -75.5 16.5t-58.5 41.5z"/>
<glyph glyph-name="K" unicode="K" horiz-adv-x="574" d="M54 10l116 660q2 10 11 10h34q10 0 8 -10l-68 -388l379 389q10 9 19 9h43q4 0 5 -3.5t-2 -7.5l-256 -259l151 -399q4 -11 -7 -11h-35q-9 0 -12 9l-135 360l-165 -168l-33 -191q-2 -10 -11 -10h-34q-10 0 -8 10z"/>
<glyph glyph-name="L" unicode="L" horiz-adv-x="507" d="M54 10l116 660q2 10 11 10h34q10 0 8 -10l-108 -613q-1 -6 4 -6h324q10 0 8 -10l-5 -31q-2 -10 -11 -10h-373q-10 0 -8 10z"/>
<glyph glyph-name="M" unicode="M" horiz-adv-x="725" d="M54 10l116 660q2 10 11 10h30q9 0 12 -10l128 -494h3l302 494q6 10 14 10h36q10 0 8 -10l-116 -660q-2 -10 -11 -10h-31q-10 0 -8 10l96 540h-3l-271 -438q-6 -11 -18 -11h-19q-12 0 -15 11l-115 440h-3l-96 -542q-2 -10 -11 -10h-31q-10 0 -8 10z"/>
<glyph glyph-name="N" unicode="N" horiz-adv-x="625" d="M54 10l116 660q2 10 11 10h32q9 0 13 -10l234 -567h2l102 567q2 10 11 10h31q10 0 8 -10l-116 -660q-2 -10 -11 -10h-31q-10 0 -14 10l-235 568h-2l-101 -568q-2 -10 -11 -10h-31q-10 0 -8 10z"/>
<glyph glyph-name="O" unicode="O" horiz-adv-x="586" d="M259 41q123 0 180 116q25 52 46.5 163.5t21.5 170.5q0 71 -36.5 109.5t-104.5 38.5q-123 0 -180 -116q-25 -52 -46.5 -163.5t-21.5 -170.5q0 -71 36 -109.5t105 -38.5zM251 -10q-88 0 -137 50.5t-49 142.5q0 64 22.5 183.5t49.5 173.5q72 150 237 150q88 0 137 -50.5 t49 -142.5q0 -64 -22.5 -183.5t-49.5 -173.5q-72 -150 -237 -150z"/>
<glyph glyph-name="P" unicode="P" horiz-adv-x="561" d="M336 347q82 1 131.5 47.5t49.5 128.5q0 51 -32.5 78.5t-95.5 27.5h-167q-6 0 -7 -6l-48 -270q-1 -6 5 -6h164zM96 0h-34q-10 0 -8 10l116 660q2 10 11 10h218q81 0 125.5 -39.5t44.5 -110.5q0 -110 -65.5 -172t-171.5 -62h-168q-7 0 -7 -6l-50 -280q-2 -10 -11 -10z"/>
<glyph glyph-name="Q" unicode="Q" horiz-adv-x="587" d="M259 41q67 0 113 34l-54 95q-3 8 5 14l22 15q8 7 14 -2l50 -88q17 21 30 48q25 52 46.5 163.5t21.5 170.5q0 71 -36.5 109.5t-104.5 38.5q-123 0 -180 -116q-25 -52 -46.5 -163.5t-21.5 -170.5q0 -71 36 -109.5t105 -38.5zM474 -27l-22 -16q-9 -5 -13 2l-41 71 q-59 -40 -147 -40t-137 50.5t-49 142.5q0 64 22.5 183.5t49.5 173.5q72 150 237 150q88 0 137 -50.5t49 -142.5q0 -64 -22.5 -183.5t-49.5 -173.5q-21 -44 -52 -78l43 -76q5 -8 -5 -13z"/>
<glyph glyph-name="R" unicode="R" horiz-adv-x="591" d="M341 357q82 0 128.5 44.5t46.5 121.5q0 106 -126 106h-168q-6 0 -7 -6l-46 -260q-1 -6 5 -6h167zM479 0h-36q-8 0 -11 9l-87 297h-11h-168q-7 0 -7 -6l-52 -290q-2 -10 -11 -10h-34q-10 0 -8 10l116 660q2 10 11 10h218q81 0 125.5 -40t44.5 -111q0 -86 -46.5 -143 t-126.5 -74l89 -301q5 -11 -6 -11z"/>
<glyph glyph-name="S" unicode="S" horiz-adv-x="572" d="M240 -10q-60 0 -117 23.5t-86 55.5q-5 6 1 13l23 26q7 7 14 1q80 -68 178 -68q88 0 142 46t54 120q0 49 -29 74.5t-102 35.5l-29 4q-161 24 -161 156q0 95 64 154t168 59q52 0 100 -16.5t79 -42.5q7 -6 1 -14l-17 -23q-7 -10 -17 -3q-69 48 -154 48q-75 0 -122 -44.5 t-47 -110.5q0 -49 30 -76t103 -37l29 -4q83 -12 120.5 -49.5t37.5 -102.5q0 -103 -70.5 -164t-192.5 -61z"/>
<glyph glyph-name="T" unicode="T" horiz-adv-x="501" d="M229 0h-33q-10 0 -8 10l108 613q2 6 -4 6h-189q-9 0 -7 10l5 31q2 10 11 10h441q10 0 8 -10l-6 -31q-2 -10 -11 -10h-189q-5 0 -6 -6l-109 -613q-2 -10 -11 -10z"/>
<glyph glyph-name="U" unicode="U" horiz-adv-x="610" d="M276 -10q-91 0 -142.5 46.5t-51.5 135.5q0 30 6 64l76 434q2 10 11 10h34q10 0 8 -10l-77 -436q-5 -33 -5 -55q0 -138 145 -138q83 0 130 44t66 149l77 436q2 10 11 10h33q10 0 8 -10l-77 -439q-22 -129 -83 -185t-169 -56z"/>
<glyph glyph-name="V" unicode="V" horiz-adv-x="539" d="M246 0h-30q-7 0 -9 10l-102 656q-3 14 9 14h31q11 0 12 -11l88 -578h2l289 579q5 10 16 10h33q14 0 5 -14l-331 -656q-6 -10 -13 -10z"/>
<glyph glyph-name="W" unicode="W" horiz-adv-x="788" d="M550 0h-28q-9 0 -10 10l-53 565h-2l-255 -565q-4 -10 -14 -10h-27q-9 0 -10 10l-39 659q0 11 10 11h31q11 0 11 -11l29 -562h2l252 563q4 10 14 10h25q10 0 11 -10l53 -563h2l228 563q4 10 14 10h34q12 0 7 -11l-272 -659q-4 -10 -13 -10z"/>
<glyph glyph-name="X" unicode="X" horiz-adv-x="523" d="M447 0h-38q-8 0 -11 9l-117 293h-1l-223 -293q-6 -9 -12 -9h-44q-11 0 -4 11l261 346l-123 312q-5 11 6 11h39q8 0 11 -9l103 -260h1l196 260q6 9 14 9h41q11 0 4 -11l-233 -313l136 -345q5 -11 -6 -11z"/>
<glyph glyph-name="Y" unicode="Y" horiz-adv-x="496" d="M226 0h-33q-10 0 -8 10l47 269l-126 390q-4 11 8 11h32q10 0 13 -10l107 -327h3l224 327q6 10 16 10h34q6 0 7.5 -3.5t-1.5 -7.5l-264 -390l-48 -269q-2 -10 -11 -10z"/>
<glyph glyph-name="Z" unicode="Z" horiz-adv-x="518" d="M419 0h-396q-10 0 -8 10l5 32q2 8 8 14l448 572v1h-329q-10 0 -8 10l5 31q2 10 11 10h384q10 0 8 -10l-5 -30q-1 -7 -7 -14l-450 -574v-1h343q10 0 8 -10l-5 -31q-1 -10 -12 -10z"/>
<glyph glyph-name="bracketleft" unicode="[" horiz-adv-x="272" d="M166 -84h-112q-10 0 -8 10l142 804q2 10 11 10h112q10 0 8 -10l-4 -25q-2 -10 -11 -10h-68q-6 0 -7 -6l-128 -722q-1 -6 5 -6h68q10 0 8 -10l-4 -25q-1 -10 -12 -10z"/>
<glyph glyph-name="backslash" unicode="\" horiz-adv-x="387" d="M273 -10h-27q-10 0 -11 10l-92 680q0 10 8 10h27q10 0 11 -10l92 -680q2 -10 -8 -10z"/>
<glyph glyph-name="bracketright" unicode="]" horiz-adv-x="272" d="M111 -84h-112q-11 0 -9 10l5 25q2 10 11 10h68q6 0 7 6l128 722q1 6 -5 6h-68q-10 0 -8 10l4 25q1 10 12 10h112q10 0 8 -10l-142 -804q-2 -10 -11 -10z"/>
<glyph glyph-name="asciicircum" unicode="^" d="M455 283h-27q-9 0 -13 10l-149 323h-2l-149 -323q-4 -10 -14 -10h-26q-12 0 -7 10l173 377q5 10 14 10h20q9 0 14 -10l173 -377q5 -10 -7 -10z"/>
<glyph glyph-name="underscore" unicode="_" horiz-adv-x="441" d="M380 -122h-439l7 39h439z"/>
<glyph glyph-name="grave" unicode="`" horiz-adv-x="406" d="M346 558h-20q-8 0 -15 10l-62 122q-2 4 0 7t7 3h31q9 0 13 -10l53 -122q5 -10 -7 -10z"/>
<glyph glyph-name="a" unicode="a" horiz-adv-x="492" d="M195 35q59 0 101.5 31t50.5 81l13 74q2 6 -4 6h-109q-151 0 -151 -114q0 -78 99 -78zM361 0h-29q-10 0 -8 10l9 50h-1q-46 -70 -155 -70q-61 0 -96 31.5t-35 85.5q0 80 51.5 121.5t148.5 41.5h116q6 0 8 6l9 52q5 27 5 42q0 38 -23.5 54t-79.5 16q-74 0 -122 -38 q-10 -8 -15 2l-13 22q-4 7 3 13q62 48 158 48q74 0 108 -25t34 -83q0 -19 -5 -49l-57 -320q-2 -10 -11 -10z"/>
<glyph glyph-name="b" unicode="b" horiz-adv-x="509" d="M238 38q90 0 133 87q18 37 30 96.5t12 102.5q0 115 -104 115q-92 0 -138 -93q-12 -23 -25.5 -90.5t-13.5 -106.5q0 -51 27.5 -81t78.5 -30zM241 -10q-98 0 -127 81h-1l-11 -61q-2 -10 -10 -10h-32q-10 0 -8 10l116 660q2 10 11 10h32q10 0 8 -10l-46 -261h1q53 78 152 78 q67 0 102.5 -41t35.5 -114q0 -56 -15 -124.5t-34 -105.5q-53 -112 -174 -112z"/>
<glyph glyph-name="c" unicode="c" horiz-adv-x="449" d="M201 -10q-73 0 -111.5 42.5t-38.5 119.5q0 116 45 212q61 123 190 123q105 0 138 -92q3 -10 -4 -14l-25 -14q-10 -6 -13 4q-26 68 -101 68q-41 0 -78 -24.5t-59 -67.5q-20 -41 -31 -95t-11 -91q0 -123 106 -123q74 0 129 69q7 9 15 2l20 -18q7 -6 0 -15q-67 -86 -171 -86 z"/>
<glyph glyph-name="d" unicode="d" horiz-adv-x="509" d="M206 38q92 0 138 92q12 23 25.5 91t13.5 107q0 51 -27.5 81t-78.5 30q-89 0 -133 -88q-18 -36 -30 -95t-12 -103q0 -115 104 -115zM372 0h-32q-10 0 -8 10l10 57h-1q-54 -77 -151 -77q-68 0 -103.5 41t-35.5 114q0 55 15.5 124t33.5 106q55 112 174 112q50 0 82 -22.5 t45 -58.5h1l46 264q2 10 11 10h31q11 0 9 -10l-116 -660q-2 -10 -11 -10z"/>
<glyph glyph-name="e" unicode="e" horiz-adv-x="476" d="M121 270h252q5 0 7 6q6 27 6 51q0 113 -106 113q-95 0 -139 -90q-16 -32 -24 -74q-1 -6 4 -6zM206 -10q-75 0 -115 41.5t-40 117.5q0 127 44 215q59 123 191 123q67 0 107.5 -41t40.5 -116q0 -38 -10 -93q-2 -10 -12 -10h-299q-5 0 -7 -6q-6 -26 -6 -66q0 -117 113 -117 q81 0 141 64q7 7 14 2l17 -19q6 -8 -1 -15q-71 -80 -178 -80z"/>
<glyph glyph-name="f" unicode="f" horiz-adv-x="295" d="M107 0h-33q-9 0 -7 10l74 417q1 6 -5 6h-49q-9 0 -7 10l4 24q2 10 11 10h49q6 0 7 6l10 54q14 82 47.5 112.5t103.5 30.5h26q10 0 8 -10l-4 -28q-1 -10 -12 -10h-20q-51 0 -69.5 -16.5t-28.5 -73.5l-11 -59q-1 -6 4 -6h97q11 0 9 -10l-4 -24q-1 -10 -12 -10h-97 q-4 0 -6 -6l-75 -417q-2 -10 -10 -10z"/>
<glyph glyph-name="g" unicode="g" horiz-adv-x="501" d="M206 45q86 0 128 85q16 31 29 95.5t13 102.5q0 50 -26 80.5t-76 30.5q-85 0 -128 -87q-43 -86 -43 -196q0 -111 103 -111zM164 -190q-98 0 -140 73q-6 9 3 15l23 18q9 4 14 -3q39 -55 106 -55q129 0 155 152l11 63h-1q-47 -76 -146 -76q-66 0 -101.5 40t-35.5 110 q0 49 13 115.5t35 110.5q56 114 172 114q49 0 80 -22.5t42 -58.5h1l10 61q2 10 12 10h30q10 0 8 -10l-80 -456q-20 -108 -72 -154.5t-139 -46.5z"/>
<glyph glyph-name="h" unicode="h" horiz-adv-x="519" d="M387 0h-32q-9 0 -7 10l51 282q5 30 5 48q0 99 -100 99q-51 0 -95 -37.5t-55 -97.5l-52 -294q-2 -10 -10 -10h-33q-9 0 -7 10l116 660q2 10 11 10h32q10 0 8 -10l-46 -258h1q52 75 149 75q65 0 99.5 -34.5t34.5 -98.5q0 -19 -5 -49l-54 -295q-2 -10 -11 -10z"/>
<glyph glyph-name="i" unicode="i" horiz-adv-x="228" d="M92 0h-32q-10 0 -8 10l80 457q2 10 11 10h32q10 0 8 -10l-81 -457q-2 -10 -10 -10zM203 607h-41q-10 0 -8 10l10 53q2 10 11 10h41q10 0 8 -10l-10 -53q-1 -10 -11 -10z"/>
<glyph glyph-name="j" unicode="j" horiz-adv-x="228" d="M-48 -180h-10q-10 0 -8 10l4 28q1 10 12 10h8q39 0 56.5 15.5t25.5 60.5l92 523q2 10 11 10h32q10 0 8 -10l-92 -523q-13 -72 -42.5 -98t-96.5 -26zM203 607h-41q-10 0 -8 10l10 53q2 10 11 10h41q10 0 8 -10l-10 -53q-1 -10 -11 -10z"/>
<glyph glyph-name="k" unicode="k" horiz-adv-x="480" d="M395 0h-32q-9 0 -14 10l-103 253l-121 -125l-23 -128q-2 -10 -11 -10h-32q-9 0 -7 10l116 660q2 10 11 10h32q10 0 8 -10l-81 -454l249 251q10 10 18 10h41q5 0 6 -3.5t-3 -6.5l-165 -168l119 -289q1 -4 -1 -7t-7 -3z"/>
<glyph glyph-name="l" unicode="l" horiz-adv-x="250" d="M164 -3h-22q-78 0 -78 71q0 10 4 38l103 564q2 10 10 10h32q10 0 8 -10l-103 -563q-3 -15 -3 -26q0 -20 9.5 -28t31.5 -8h16q10 0 8 -10l-4 -28q-1 -10 -12 -10z"/>
<glyph glyph-name="m" unicode="m" horiz-adv-x="815" d="M684 0h-31q-10 0 -8 10l51 282q5 30 5 48q0 99 -100 99q-52 0 -95.5 -37t-54.5 -98l-52 -294q-2 -10 -11 -10h-31q-10 0 -8 10l49 282q5 30 5 50q0 97 -99 97q-51 0 -95 -37.5t-54 -97.5l-53 -294q-2 -10 -10 -10h-32q-10 0 -8 10l81 457q2 10 11 10h31q10 0 8 -10 l-10 -55h1q52 75 149 75q107 0 126 -89h1q59 89 167 89q66 0 101 -34t35 -98q0 -20 -5 -50l-53 -295q-2 -10 -11 -10z"/>
<glyph glyph-name="n" unicode="n" horiz-adv-x="519" d="M387 0h-32q-9 0 -7 10l51 282q5 30 5 48q0 99 -100 99q-51 0 -95 -37.5t-55 -97.5l-52 -294q-2 -10 -10 -10h-33q-9 0 -7 10l80 457q2 10 11 10h32q10 0 8 -10l-10 -55h1q52 75 149 75q65 0 99.5 -34.5t34.5 -98.5q0 -19 -5 -49l-54 -295q-2 -10 -11 -10z"/>
<glyph glyph-name="o" unicode="o" horiz-adv-x="486" d="M391 316q0 123 -110 123q-93 0 -138 -91q-14 -28 -27.5 -87.5t-13.5 -99.5q0 -123 110 -123q93 0 138 91q14 28 27.5 87.5t13.5 99.5zM98 369q56 118 191 118q74 0 113.5 -43t39.5 -118q0 -51 -14.5 -116t-32.5 -102q-56 -118 -191 -118q-74 0 -113.5 43t-39.5 118 q0 51 14.5 116t32.5 102z"/>
<glyph glyph-name="p" unicode="p" horiz-adv-x="509" d="M238 38q90 0 133 87q18 37 30 96.5t12 102.5q0 115 -104 115q-92 0 -138 -93q-12 -23 -25.5 -90.5t-13.5 -106.5q0 -51 27.5 -81t78.5 -30zM60 -180h-32q-10 0 -8 10l112 637q2 10 11 10h32q10 0 8 -10l-10 -58h1q53 78 152 78q67 0 102.5 -41t35.5 -114 q0 -56 -15 -124.5t-34 -105.5q-53 -112 -174 -112q-98 0 -127 81h-1l-42 -241q-2 -10 -11 -10z"/>
<glyph glyph-name="q" unicode="q" horiz-adv-x="509" d="M207 38q91 0 138 92q11 24 24.5 92t13.5 106q0 51 -26.5 81t-78.5 30q-89 0 -133 -88q-18 -36 -30.5 -95.5t-12.5 -102.5q0 -115 105 -115zM340 -180h-32q-10 0 -8 10l42 235h-1q-54 -75 -151 -75q-68 0 -103.5 40.5t-35.5 114.5q0 54 16 123t34 107q55 112 174 112 q100 0 126 -80h1l11 60q2 10 11 10h31q11 0 9 -10l-113 -637q-2 -10 -11 -10z"/>
<glyph glyph-name="r" unicode="r" horiz-adv-x="381" d="M92 0h-32q-10 0 -8 10l80 457q2 10 11 10h32q10 0 8 -10l-11 -61h1q19 37 54.5 59t81.5 22q56 0 87 -33q5 -7 0 -13l-21 -25q-7 -6 -14 -1q-34 24 -70 24q-57 0 -93 -46.5t-49 -117.5l-47 -265q-2 -10 -10 -10z"/>
<glyph glyph-name="s" unicode="s" horiz-adv-x="462" d="M197 -10q-56 0 -101 20t-70 47q-6 6 1 13l23 22q7 6 13 0q61 -55 139 -55q65 0 104 32.5t39 81.5q0 31 -19.5 46.5t-66.5 20.5l-46 5q-119 13 -119 108q0 70 51 113t134 43q84 0 145 -46q6 -6 1 -13l-19 -21q-5 -9 -15 -3q-57 36 -118 36q-57 0 -92.5 -29t-35.5 -73 q0 -31 21 -47t70 -21l46 -5q114 -12 114 -104q0 -78 -54 -124.5t-145 -46.5z"/>
<glyph glyph-name="t" unicode="t" horiz-adv-x="295" d="M203 -3h-24q-52 0 -76 19.5t-24 63.5q0 22 4 45l57 302q2 6 -5 6h-48q-10 0 -8 10l4 24q2 10 11 10h49q7 0 8 6l23 137q2 10 11 10h32q10 0 8 -10l-24 -137q-1 -6 4 -6h86q10 0 8 -10l-4 -24q-1 -10 -11 -10h-86q-6 0 -7 -6l-57 -298q-4 -19 -4 -36q0 -28 14.5 -38 t49.5 -10h17q10 0 8 -10l-4 -28q-1 -10 -12 -10z"/>
<glyph glyph-name="u" unicode="u" horiz-adv-x="513" d="M137 477h32q9 0 7 -10l-51 -283q-5 -30 -5 -48q0 -98 97 -98q51 0 94.5 37.5t53.5 97.5l52 294q2 10 11 10h32q10 0 8 -10l-81 -457q-2 -10 -11 -10h-31q-10 0 -8 10l10 55h-1q-54 -75 -147 -75q-63 0 -97 33.5t-34 96.5q0 21 5 51l53 296q2 10 11 10z"/>
<glyph glyph-name="v" unicode="v" horiz-adv-x="449" d="M200 0h-30q-7 0 -9 10l-86 457q-2 10 8 10h32q10 0 11 -10l70 -387h2l206 387q6 10 14 10h35q11 0 6 -10l-247 -457q-5 -10 -12 -10z"/>
<glyph glyph-name="w" unicode="w" horiz-adv-x="706" d="M474 0h-27q-10 0 -10 10l-52 388h-1l-191 -388q-4 -10 -13 -10h-27q-10 0 -10 10l-63 457q-2 10 9 10h29q11 0 12 -10l49 -387h1l188 387q5 10 13 10h26q9 0 11 -10l54 -387h1l184 387q6 10 14 10h33q11 0 6 -10l-223 -457q-6 -10 -13 -10z"/>
<glyph glyph-name="x" unicode="x" horiz-adv-x="442" d="M362 0h-34q-8 0 -12 8l-93 198h-1l-165 -198q-7 -8 -14 -8h-39q-12 0 -4 10l200 240l-103 217q-4 10 7 10h35q8 0 12 -8l82 -175h1l146 175q7 8 14 8h38q4 0 5.5 -3t-1.5 -7l-180 -219l113 -238q4 -10 -7 -10z"/>
<glyph glyph-name="y" unicode="y" horiz-adv-x="449" d="M27 -180h-19q-10 0 -8 10l4 28q1 10 12 10h17q31 0 53 19t51 74l27 49l-89 457q-2 10 8 10h33q10 0 11 -10l71 -387h1l207 387q4 10 13 10h35q11 0 6 -10l-278 -514q-43 -79 -76 -106t-79 -27z"/>
<glyph glyph-name="z" unicode="z" horiz-adv-x="447" d="M346 0h-319q-10 0 -8 10l4 27q2 6 7 13l337 378v1h-253q-10 0 -8 10l5 28q2 10 11 10h307q10 0 8 -10l-4 -28q-1 -5 -8 -14l-336 -376v-1h265q10 0 8 -10l-5 -28q-2 -10 -11 -10z"/>
<glyph glyph-name="braceleft" unicode="{" horiz-adv-x="304" d="M198 -84h-30q-74 0 -74 68q0 9 4 35l35 203q3 20 3 33q0 48 -41 51q-9 2 -8 10l5 29q2 9 11 9q28 2 43.5 20t24.5 65l36 200q10 53 35 77t70 24h31q10 0 8 -10l-4 -24q-1 -10 -11 -10h-23q-49 0 -59 -60l-34 -192q-10 -56 -25 -79.5t-44 -34.5v-2q33 -17 33 -67 q0 -22 -4 -46l-35 -197q-2 -9 -2 -24q0 -19 9 -26.5t29 -7.5h24q10 0 8 -10l-4 -24q-1 -10 -11 -10z"/>
<glyph glyph-name="bar" unicode="|" horiz-adv-x="236" d="M150 -84h-25q-10 0 -10 10v804q0 10 10 10h25q10 0 10 -10v-804q0 -10 -10 -10z"/>
<glyph glyph-name="braceright" unicode="}" horiz-adv-x="304" d="M30 -84h-31q-10 0 -8 10l4 24q1 10 11 10h23q49 0 60 60l34 196q10 56 25 79.5t44 35.5v1q-33 16 -33 66q0 18 5 48l33 192q2 9 2 24q0 19 -9 26.5t-29 7.5h-24q-10 0 -8 10l4 24q1 10 11 10h30q74 0 74 -69q0 -16 -3 -34l-35 -198q-3 -19 -3 -33q0 -49 41 -52 q10 0 8 -10l-4 -29q-2 -9 -12 -9q-27 -1 -43 -19t-25 -65l-37 -205q-9 -53 -34.5 -77t-70.5 -24z"/>
<glyph glyph-name="asciitilde" unicode="~" d="M340 218q-44 0 -97 39q-46 32 -75 32q-26 0 -44.5 -13t-37.5 -44q-5 -8 -13 -3l-18 12q-7 4 -3 14q40 78 118 78q44 0 97 -39q45 -31 75 -31q47 0 81 56q5 8 14 3l17 -11q8 -5 3 -14q-39 -79 -117 -79z"/>
<glyph glyph-name="uni00A0" unicode=" " horiz-adv-x="236"/>
<glyph glyph-name="exclamdown" unicode="¡" horiz-adv-x="253" d="M206 467l-12 -65q-2 -10 -11 -10h-45q-10 0 -8 10l10 65q3 10 12 10h45q11 0 9 -10zM155 301q10 0 8 -10l-78 -484q-2 -10 -11 -10h-37q-10 0 -8 10l94 484q2 10 11 10h21z"/>
<glyph glyph-name="cent" unicode="¢" d="M132 159q0 -109 89 -120l70 398q-36 -5 -67.5 -28.5t-49.5 -61.5q-42 -85 -42 -188zM219 -102h-13q-10 0 -8 10l14 83q-64 6 -97.5 46.5t-33.5 112.5q0 117 44 213q55 114 174 123l15 82q2 10 11 10h13q10 0 8 -10l-14 -81q96 -6 127 -92q3 -10 -4 -14l-25 -14 q-10 -6 -13 4q-25 64 -94 68l-70 -401q68 6 118 69q7 9 15 2l20 -18q7 -6 0 -15q-64 -81 -162 -86l-14 -82q-2 -10 -11 -10z"/>
<glyph glyph-name="sterling" unicode="£" d="M383 0h-314q-10 0 -8 10l4 29q1 4 7 10q25 22 37.5 45t20.5 64l24 135q2 6 -5 6h-47q-10 0 -8 10l4 23q2 10 12 10h47q5 0 7 6l30 169q15 87 59 130t111 43q54 0 85.5 -32t34.5 -87q0 -10 -8 -12l-29 -8q-10 -3 -10 7q-2 40 -23 62t-56 22q-44 0 -73.5 -31t-39.5 -88 l-31 -175q-2 -6 4 -6h132q10 0 8 -10l-4 -23q-2 -10 -12 -10h-131q-5 0 -7 -6l-23 -129q-13 -80 -53 -114v-2h262q10 0 8 -10l-4 -28q-2 -10 -11 -10z"/>
<glyph glyph-name="currency" unicode="¤" d="M247 179q69 0 118 52t49 124q0 51 -30.5 82.5t-80.5 31.5q-69 0 -117.5 -52t-48.5 -124q0 -51 30 -82.5t80 -31.5zM447 128l-20 -18q-7 -7 -13 0l-51 63q-54 -38 -120 -38q-65 0 -106 39l-74 -65q-7 -6 -13 0l-16 21q-5 7 2 14l74 65q-18 33 -18 78q0 93 60 158l-48 62 q-7 7 1 13l20 19q8 7 13 0l50 -63q55 37 119 37q63 0 105 -39l75 66q7 6 13 0l16 -22q6 -6 -2 -13l-75 -66q19 -36 19 -78q0 -92 -59 -157l50 -63q5 -7 -2 -13z"/>
<glyph glyph-name="yen" unicode="¥" d="M237 0h-31q-10 0 -8 10l26 145q2 6 -5 6h-127q-10 0 -8 10l4 22q2 10 11 10h127q6 0 7 6l11 63q2 6 -5 6h-127q-10 0 -8 10l4 22q2 10 12 10h115v2l-94 347q-4 11 8 11h33q9 0 12 -10l85 -330h2l201 330q7 10 17 10h31q5 0 7 -4t-2 -9l-215 -345v-2h116q10 0 8 -10 l-3 -22q-2 -10 -12 -10h-128q-5 0 -7 -6l-11 -63q-1 -6 5 -6h128q10 0 8 -10l-4 -22q-2 -10 -11 -10h-129q-4 0 -6 -6l-26 -145q-2 -10 -11 -10z"/>
<glyph glyph-name="brokenbar" unicode="¦" horiz-adv-x="236" d="M150 -84h-25q-10 0 -10 10v336q0 10 10 10h25q10 0 10 -10v-336q0 -10 -10 -10zM150 388h-25q-10 0 -10 10v332q0 10 10 10h25q10 0 10 -10v-332q0 -10 -10 -10z"/>
<glyph glyph-name="section" unicode="§" horiz-adv-x="505" d="M236 121q64 0 103.5 48t39.5 119q0 46 -26.5 71t-71.5 25q-64 0 -103.5 -48t-39.5 -119q0 -45 26.5 -70.5t71.5 -25.5zM180 -192q-64 0 -96.5 31.5t-32.5 87.5q0 9 2 27q2 11 9 12l30 6q4 1 6 -1.5t2 -6.5q-2 -20 -2 -27q0 -84 89 -84q54 0 89 35.5t35 92.5 q0 39 -25.5 61.5t-89.5 35.5q-107 23 -107 130q0 75 37 133t103 76v1q-64 29 -64 98q0 76 47 126t127 50q57 0 89 -31t32 -82q0 -15 -1 -22q-1 -9 -10 -10l-29 -6q-5 -1 -7 1t-1 6q1 7 1 20q0 36 -20.5 57.5t-61.5 21.5q-53 0 -85 -34.5t-32 -88.5q0 -37 24.5 -59.5 t82.5 -36.5q107 -25 107 -131q0 -73 -35.5 -130.5t-99.5 -77.5v-1q66 -26 66 -99q0 -79 -50 -130t-129 -51z"/>
<glyph glyph-name="dieresis" unicode="¨" horiz-adv-x="404" d="M194 607h-37q-10 0 -8 10l9 53q2 10 11 10h37q10 0 8 -10l-9 -53q-2 -10 -11 -10zM386 607h-37q-10 0 -8 10l9 53q2 10 11 10h37q10 0 8 -10l-9 -53q-2 -10 -11 -10z"/>
<glyph glyph-name="copyright" unicode="©" horiz-adv-x="831" d="M444 144q-53 0 -90 26t-53 75q-11 35 -11 95t11 95q16 49 53 75t90 26q87 0 130 -70q5 -8 -4 -13l-15 -14q-8 -5 -13 3q-36 54 -98 54q-79 0 -104 -73q-8 -25 -8 -83t8 -83q25 -73 104 -73q62 0 98 54q5 8 13 3l15 -14q9 -5 4 -13q-43 -70 -130 -70zM437 30 q132 0 220 88.5t88 221.5t-88 221.5t-220 88.5q-133 0 -221 -88.5t-88 -221.5t88 -221.5t221 -88.5zM437 -10q-149 0 -249.5 100.5t-100.5 249.5t100.5 249.5t249.5 100.5t249.5 -100.5t100.5 -249.5t-100.5 -249.5t-249.5 -100.5z"/>
<glyph glyph-name="ordfeminine" unicode="ª" horiz-adv-x="325" d="M187 423q35 0 60.5 17t30.5 41l7 40q1 6 -5 6h-64q-41 0 -64 -16t-23 -45q0 -20 15.5 -31.5t42.5 -11.5zM294 392h-22q-10 0 -8 10l4 20h-1q-31 -36 -95 -36q-39 0 -62 19.5t-23 53.5q0 51 36 77t96 26h67q4 0 6 6l5 21q2 12 2 18q0 42 -65 42q-39 0 -76 -22 q-11 -7 -14 1l-6 18q-4 9 4 14q40 27 102 27q51 0 73.5 -17t22.5 -53q0 -13 -3 -30l-33 -185q-2 -10 -10 -10z"/>
<glyph glyph-name="guillemotleft" unicode="«" horiz-adv-x="490" d="M188 84l-132 173q-6 8 2 14l193 173q3 3 6.5 1.5t2.5 -5.5l-6 -42q-3 -10 -10 -19l-130 -114q-5 -4 -2 -8l88 -114q6 -8 5 -19l-6 -37q0 -3 -2 -4.5t-4.5 -1t-4.5 2.5zM381 84l-133 173q-5 8 2 14l194 173q3 3 6.5 1.5t2.5 -5.5l-6 -42q-3 -10 -10 -19l-130 -114 q-5 -4 -2 -8l88 -114q7 -8 4 -19l-5 -37q0 -3 -2 -4.5t-4.5 -1t-4.5 2.5z"/>
<glyph glyph-name="logicalnot" unicode="¬" d="M443 119h-27q-10 0 -10 10v118q0 6 -6 6h-333q-10 0 -10 10v27q0 10 10 10h376q10 0 10 -10v-161q0 -10 -10 -10z"/>
<glyph glyph-name="uni00AD" unicode="­" horiz-adv-x="358" d="M305 242h-244q-10 0 -8 10l5 30q2 9 11 9h245q10 0 8 -10l-6 -31q-1 -8 -11 -8z"/>
<glyph glyph-name="registered" unicode="®" horiz-adv-x="461" d="M291 506q38 0 38 33q0 34 -38 34h-51q-3 0 -3 -2v-63q0 -2 3 -2h51zM228 386h-15q-9 0 -9 9v198q0 9 9 9h79q32 0 50 -17t18 -46q0 -47 -42 -59l42 -84q6 -10 -6 -10h-17q-5 0 -10 7l-42 83h-45q-3 0 -3 -2v-79q0 -9 -9 -9zM277 329q69 0 115.5 46.5t46.5 117.5 q0 70 -46.5 116.5t-115.5 46.5q-71 0 -117 -46t-46 -117t46 -117.5t117 -46.5zM277 300q-83 0 -138 55t-55 138q0 82 55.5 137t137.5 55t137 -55t55 -137t-55 -137.5t-137 -55.5z"/>
<glyph glyph-name="macron" unicode="¯" horiz-adv-x="404" d="M390 622h-234q-10 0 -8 10l4 22q1 10 11 10h234q10 0 8 -10l-4 -22q-1 -10 -11 -10z"/>
<glyph glyph-name="degree" unicode="°" horiz-adv-x="450" d="M276 439q45 0 74.5 30t29.5 75t-29.5 75t-74.5 30t-74.5 -30t-29.5 -75t29.5 -75t74.5 -30zM276 401q-62 0 -102.5 40.5t-40.5 102.5t40.5 102.5t102.5 40.5q61 0 101.5 -40.5t40.5 -102.5t-40.5 -102.5t-101.5 -40.5z"/>
<glyph glyph-name="plusminus" unicode="±" d="M447 0h-376q-10 0 -10 10v28q0 10 10 10h376q10 0 10 -10v-28q0 -10 -10 -10zM273 107h-28q-10 0 -10 10v160q0 6 -6 6h-158q-10 0 -10 10v28q0 10 10 10h158q6 0 6 6v160q0 10 10 10h28q10 0 10 -10v-160q0 -6 6 -6h158q10 0 10 -10v-28q0 -10 -10 -10h-158q-6 0 -6 -6 v-160q0 -10 -10 -10z"/>
<glyph glyph-name="twosuperior" unicode="²" horiz-adv-x="317" d="M302 430h-215q-10 0 -8 10l4 20q1 8 8 14l182 183q49 49 49 90q0 26 -15.5 40.5t-42.5 14.5q-58 0 -84 -61q-3 -9 -12 -8l-21 5q-8 2 -5 12q13 39 47 66t80 27q45 0 70 -25.5t25 -63.5q0 -61 -61 -122l-162 -161v-1h168q10 0 8 -10l-3 -20q-2 -10 -12 -10z"/>
<glyph glyph-name="threesuperior" unicode="³" horiz-adv-x="317" d="M195 423q-45 0 -72 23t-33 60q-2 9 8 12l22 6q8 2 11 -7q9 -53 68 -53q40 0 66.5 27t26.5 67q0 28 -17.5 45t-48.5 17h-17q-9 0 -7 10l3 21q2 10 12 10h13q36 0 61.5 25t25.5 62q0 25 -15.5 39.5t-43.5 14.5q-56 0 -80 -48q-5 -9 -12 -8l-20 6q-8 1 -5 11q14 34 45.5 57 t77.5 23q45 0 70.5 -24.5t25.5 -62.5q0 -77 -69 -112v-1q44 -23 44 -78q0 -62 -39 -102t-101 -40z"/>
<glyph glyph-name="acute" unicode="´" horiz-adv-x="404" d="M224 558h-22q-11 0 -3 10l92 122q8 10 19 10h34q4 0 5.5 -3t-1.5 -7l-106 -122q-10 -10 -18 -10z"/>
<glyph glyph-name="mu" unicode="µ" horiz-adv-x="521" d="M384 0h-32q-10 0 -8 10l11 56h-1q-51 -76 -143 -76q-78 0 -101 53h-2l-37 -213q-2 -10 -11 -10h-32q-10 0 -8 10l112 637q2 10 11 10h31q10 0 8 -10l-51 -293q-4 -20 -4 -42q0 -94 98 -94q53 0 95.5 38t52.5 97l52 294q2 10 11 10h32q10 0 8 -10l-81 -457q-2 -10 -11 -10 z"/>
<glyph glyph-name="mu" unicode="μ" horiz-adv-x="521" d="M384 0h-32q-10 0 -8 10l11 56h-1q-51 -76 -143 -76q-78 0 -101 53h-2l-37 -213q-2 -10 -11 -10h-32q-10 0 -8 10l112 637q2 10 11 10h31q10 0 8 -10l-51 -293q-4 -20 -4 -42q0 -94 98 -94q53 0 95.5 38t52.5 97l52 294q2 10 11 10h32q10 0 8 -10l-81 -457q-2 -10 -11 -10 z"/>
<glyph glyph-name="paragraph" unicode="¶" horiz-adv-x="543" d="M380 -180h-28q-10 0 -8 10l141 798q1 6 -5 6h-95q-5 0 -6 -6l-141 -798q-2 -10 -11 -10h-27q-10 0 -8 10l77 438q-72 4 -112.5 48.5t-40.5 113.5v14q5 102 74.5 169t176.5 67h164q10 0 8 -10l-148 -840q-2 -10 -11 -10z"/>
<glyph glyph-name="periodcentered" unicode="·" horiz-adv-x="209" d="M129 223h-46q-10 0 -8 10l11 65q2 10 11 10h45q10 0 8 -10l-10 -65q-2 -10 -11 -10z"/>
<glyph glyph-name="cedilla" unicode="¸" horiz-adv-x="404" d="M126 -147h-27q-11 0 -6 10l77 137q6 10 14 10h22q11 0 6 -10l-69 -137q-5 -10 -17 -10z"/>
<glyph glyph-name="onesuperior" unicode="¹" horiz-adv-x="317" d="M219 430h-22q-10 0 -8 10l60 341h-2l-74 -46q-4 -3 -7 -1.5t-2 6.5l4 28q1 8 10 14l74 48q9 6 16 6h22q11 0 9 -10l-68 -386q-2 -10 -12 -10z"/>
<glyph glyph-name="ordmasculine" unicode="º" horiz-adv-x="332" d="M201 425q52 0 82 53q21 40 21 97q0 72 -62 72q-53 0 -83 -53q-21 -40 -21 -97q0 -72 63 -72zM195 385q-47 0 -74 26.5t-27 78.5q0 62 26 119q39 78 127 78q47 0 74 -27t27 -78q0 -62 -26 -119q-39 -78 -127 -78z"/>
<glyph glyph-name="guillemotright" unicode="»" horiz-adv-x="490" d="M60 84q-3 -3 -6.5 -1.5t-2.5 5.5l7 42q1 9 10 18l130 114q4 4 2 8l-89 115q-5 8 -4 18l6 37q1 4 4.5 5.5t5.5 -1.5l133 -174q7 -7 -2 -14zM253 84q-3 -3 -6.5 -1.5t-2.5 5.5l7 42q1 9 10 18l130 114q4 4 2 8l-89 115q-7 8 -4 18l6 37q1 4 4.5 5.5t5.5 -1.5l133 -174 q6 -8 -2 -14z"/>
<glyph glyph-name="onequarter" unicode="¼" horiz-adv-x="793" d="M617 0h-22q-9 0 -7 10l10 61q2 6 -5 6h-155q-10 0 -8 10l3 21q1 6 7 15l177 273q6 10 14 10h27q4 0 5.5 -3t-1.5 -7l-178 -278v-1h116q6 0 7 6l18 100q2 10 11 10h22q10 0 8 -10l-17 -100q-1 -6 5 -6h35q9 0 7 -10l-3 -21q-1 -9 -10 -9h-37q-4 0 -6 -6l-11 -61 q-2 -10 -12 -10zM213 274h-22q-10 0 -8 10l60 341h-2l-74 -46q-4 -3 -7 -1.5t-2 6.5l4 28q1 8 10 14l74 48q9 6 16 6h22q11 0 9 -10l-68 -386q-2 -10 -12 -10zM173 -10h-25q-12 0 -4 10l497 680q7 10 16 10h25q9 0 4 -10l-497 -680q-9 -10 -16 -10z"/>
<glyph glyph-name="onehalf" unicode="½" horiz-adv-x="823" d="M695 0h-215q-10 0 -8 10l4 20q2 8 8 14l182 183q49 49 49 90q0 26 -15.5 40.5t-42.5 14.5q-58 0 -84 -61q-3 -9 -12 -8l-21 5q-8 2 -5 12q13 39 47 66t80 27q45 0 70 -25.5t25 -63.5q0 -61 -61 -122l-162 -161v-1h168q10 0 8 -10l-3 -20q-2 -10 -12 -10zM213 274h-22 q-10 0 -8 10l60 341h-2l-74 -46q-4 -3 -7 -1.5t-2 6.5l4 28q1 8 10 14l74 48q9 6 16 6h22q11 0 9 -10l-68 -386q-2 -10 -12 -10zM173 -10h-25q-12 0 -4 10l497 680q7 10 16 10h25q9 0 4 -10l-497 -680q-9 -10 -16 -10z"/>
<glyph glyph-name="threequarters" unicode="¾" horiz-adv-x="856" d="M222 267q-45 0 -72 23t-33 60q-2 9 8 12l22 6q8 2 11 -7q9 -53 68 -53q40 0 66.5 27t26.5 67q0 28 -17.5 45t-48.5 17h-17q-9 0 -7 10l3 21q2 10 12 10h13q36 0 61.5 25t25.5 62q0 25 -15.5 39.5t-43.5 14.5q-56 0 -80 -48q-5 -9 -12 -8l-20 6q-8 1 -5 11q14 34 45.5 57 t77.5 23q45 0 70.5 -24.5t25.5 -62.5q0 -77 -69 -112v-1q44 -23 44 -78q0 -62 -39 -102t-101 -40zM680 0h-22q-9 0 -7 10l10 61q1 6 -5 6h-155q-10 0 -8 10l3 21q1 6 7 15l177 273q6 10 14 10h27q4 0 5.5 -3t-1.5 -7l-178 -278v-1h116q5 0 7 6l18 100q2 10 11 10h22 q10 0 8 -10l-17 -100q-2 -6 5 -6h35q9 0 7 -10l-3 -21q-2 -9 -10 -9h-37q-5 0 -6 -6l-11 -61q-2 -10 -12 -10zM237 -10h-25q-12 0 -4 10l497 680q7 10 16 10h25q9 0 4 -10l-497 -680q-9 -10 -16 -10z"/>
<glyph glyph-name="questiondown" unicode="¿" horiz-adv-x="428" d="M300 467l-11 -65q-2 -10 -11 -10h-45q-10 0 -8 10l10 65q2 10 11 10h46q10 0 8 -10zM258 304q10 0 8 -10l-8 -40q-10 -57 -49 -99l-64 -72q-48 -50 -67 -84t-19 -70q0 -44 26 -69t70 -25q48 0 85 30.5t56 83.5q3 9 12 8l30 -5q9 -1 5 -12q-22 -71 -74 -112t-122 -41 q-64 0 -101.5 37t-37.5 98q0 80 88 175l64 73q24 26 33 42t15 46l8 36q2 10 11 10h31z"/>
<glyph glyph-name="Agrave" unicode="À" horiz-adv-x="575" d="M388 764h-22q-9 0 -16 10l-72 104q-2 4 -0.5 7t5.5 3h33q10 0 17 -10l60 -104q3 -4 1.5 -7t-6.5 -3zM168 230h251l-59 363h-2zM1 0q-10 0 -5 10l346 660q5 10 13 10h32q8 0 10 -10l110 -660q2 -10 -9 -10h-32q-10 0 -11 10l-28 170h-285l-89 -170q-5 -10 -14 -10h-38z "/>
<glyph glyph-name="Aacute" unicode="Á" horiz-adv-x="575" d="M394 764h-24q-11 0 -2 11l94 103q10 10 19 10h36q5 0 6 -3t-3 -7l-107 -104q-10 -10 -19 -10zM168 230h251l-59 363h-2zM1 0q-10 0 -5 10l346 660q5 10 13 10h32q8 0 10 -10l110 -660q2 -10 -9 -10h-32q-10 0 -11 10l-28 170h-285l-89 -170q-5 -10 -14 -10h-38z"/>
<glyph glyph-name="Acircumflex" unicode="Â" horiz-adv-x="575" d="M493 755h-19q-10 0 -16 9l-52 91h-2l-86 -91q-8 -9 -18 -9h-23q-4 0 -5 3t3 7l107 122q8 9 17 9h20q9 0 13 -9l65 -122q6 -10 -4 -10zM168 230h251l-59 363h-2zM1 0q-10 0 -5 10l346 660q5 10 13 10h32q8 0 10 -10l110 -660q2 -10 -9 -10h-32q-10 0 -11 10l-28 170h-285 l-89 -170q-5 -10 -14 -10h-38z"/>
<glyph glyph-name="Atilde" unicode="Ã" horiz-adv-x="575" d="M441 784q-27 0 -54 20q-23 18 -44 18q-28 0 -61 -33q-3 -3 -6 -1.5t-2 4.5l4 30q1 8 10 15q28 28 64 28q26 0 54 -21q25 -18 44 -18q27 0 62 33q3 3 6 2t2 -5l-5 -29q-1 -9 -10 -16q-29 -27 -64 -27zM168 230h251l-59 363h-2zM1 0q-10 0 -5 10l346 660q5 10 13 10h32 q8 0 10 -10l110 -660q2 -10 -9 -10h-32q-10 0 -11 10l-28 170h-285l-89 -170q-5 -10 -14 -10h-38z"/>
<glyph glyph-name="Adieresis" unicode="Ä" horiz-adv-x="575" d="M314 787h-37q-10 0 -8 10l9 54q2 10 11 10h37q10 0 8 -10l-9 -54q-2 -10 -11 -10zM506 787h-37q-10 0 -8 10l9 54q2 10 11 10h37q10 0 8 -10l-9 -54q-2 -10 -11 -10zM168 230h251l-59 363h-2zM1 0q-10 0 -5 10l346 660q5 10 13 10h32q8 0 10 -10l110 -660q2 -10 -9 -10 h-32q-10 0 -11 10l-28 170h-285l-89 -170q-5 -10 -14 -10h-38z"/>
<glyph glyph-name="Aring" unicode="Å" horiz-adv-x="575" d="M388 769q26 0 44.5 20t18.5 48q0 21 -12 33.5t-33 12.5q-26 0 -44.5 -20t-18.5 -48q0 -21 12 -33.5t33 -12.5zM382 739q-31 0 -50.5 20t-19.5 51q0 43 28.5 73t71.5 30q31 0 51 -20t20 -51q0 -43 -28.5 -73t-72.5 -30zM168 230h251l-59 363h-2zM1 0q-10 0 -5 10l346 660 q5 10 13 10h32q8 0 10 -10l110 -660q2 -10 -9 -10h-32q-10 0 -11 10l-28 170h-285l-89 -170q-5 -10 -14 -10h-38z"/>
<glyph glyph-name="AE" unicode="Æ" horiz-adv-x="909" d="M534 627l-306 -397h232q6 0 7 6l70 391h-3zM809 0h-373q-10 0 -8 10l29 164q1 6 -5 6h-262l-131 -170q-8 -10 -16 -10h-42q-5 0 -6 3t2 7l507 661q8 9 17 9h407q11 0 9 -10l-6 -31q-1 -10 -12 -10h-323q-6 0 -7 -6l-43 -246q-1 -7 5 -7h277q10 0 8 -10l-5 -30 q-1 -10 -12 -10h-277q-6 0 -7 -6l-46 -257q-1 -6 5 -6h323q10 0 8 -10l-5 -31q-1 -10 -11 -10z"/>
<glyph glyph-name="Ccedilla" unicode="Ç" horiz-adv-x="537" d="M179 -147h-27q-11 0 -6 10l72 129q-73 8 -113.5 57.5t-40.5 133.5q0 63 22.5 182.5t49.5 174.5q38 78 93 114t134 36q63 0 109 -33.5t66 -97.5q3 -7 -6 -11l-29 -14q-10 -3 -12 5q-34 100 -134 100q-114 0 -172 -116q-25 -52 -46.5 -163.5t-21.5 -170.5q0 -71 36 -109.5 t104 -38.5q100 0 167 99q5 7 12 4l28 -16q6 -4 1 -13q-75 -120 -205 -125l-64 -127q-5 -10 -17 -10z"/>
<glyph glyph-name="Egrave" unicode="È" horiz-adv-x="535" d="M54 10l116 660q2 10 11 10h373q10 0 8 -10l-5 -31q-1 -10 -12 -10h-323q-6 0 -7 -6l-43 -246q-1 -7 5 -7h277q10 0 8 -10l-5 -30q-1 -10 -12 -10h-277q-6 0 -7 -6l-46 -257q-1 -6 5 -6h323q10 0 8 -10l-5 -31q-1 -10 -12 -10h-372q-10 0 -8 10zM392 764h-22q-9 0 -16 10 l-72 104q-2 4 -0.5 7t5.5 3h33q10 0 17 -10l60 -104q3 -4 1.5 -7t-6.5 -3z"/>
<glyph glyph-name="Eacute" unicode="É" horiz-adv-x="535" d="M54 10l116 660q2 10 11 10h373q10 0 8 -10l-5 -31q-1 -10 -12 -10h-323q-6 0 -7 -6l-43 -246q-1 -7 5 -7h277q10 0 8 -10l-5 -30q-1 -10 -12 -10h-277q-6 0 -7 -6l-46 -257q-1 -6 5 -6h323q10 0 8 -10l-5 -31q-1 -10 -12 -10h-372q-10 0 -8 10zM373 764h-24q-11 0 -2 11 l94 103q10 10 19 10h36q5 0 6 -3t-3 -7l-107 -104q-10 -10 -19 -10z"/>
<glyph glyph-name="Ecircumflex" unicode="Ê" horiz-adv-x="535" d="M489 755h-19q-10 0 -16 9l-52 91h-2l-86 -91q-8 -9 -18 -9h-23q-4 0 -5 3t3 7l107 122q8 9 17 9h20q9 0 13 -9l65 -122q6 -10 -4 -10zM54 10l116 660q2 10 11 10h373q10 0 8 -10l-5 -31q-1 -10 -12 -10h-323q-6 0 -7 -6l-43 -246q-1 -7 5 -7h277q10 0 8 -10l-5 -30 q-1 -10 -12 -10h-277q-6 0 -7 -6l-46 -257q-1 -6 5 -6h323q10 0 8 -10l-5 -31q-1 -10 -12 -10h-372q-10 0 -8 10z"/>
<glyph glyph-name="Edieresis" unicode="Ë" horiz-adv-x="535" d="M54 10l116 660q2 10 11 10h373q10 0 8 -10l-5 -31q-1 -10 -12 -10h-323q-6 0 -7 -6l-43 -246q-1 -7 5 -7h277q10 0 8 -10l-5 -30q-1 -10 -12 -10h-277q-6 0 -7 -6l-46 -257q-1 -6 5 -6h323q10 0 8 -10l-5 -31q-1 -10 -12 -10h-372q-10 0 -8 10zM312 787h-37q-10 0 -8 10 l9 54q2 10 11 10h37q10 0 8 -10l-9 -54q-2 -10 -11 -10zM504 787h-37q-10 0 -8 10l9 54q2 10 11 10h37q10 0 8 -10l-9 -54q-2 -10 -11 -10z"/>
<glyph glyph-name="Igrave" unicode="Ì" horiz-adv-x="234" d="M221 764h-22q-9 0 -16 10l-72 104q-2 4 -0.5 7t5.5 3h33q10 0 17 -10l60 -104q3 -4 1.5 -7t-6.5 -3zM54 10l116 660q2 10 11 10h34q10 0 8 -10l-116 -660q-2 -10 -11 -10h-34q-10 0 -8 10z"/>
<glyph glyph-name="Iacute" unicode="Í" horiz-adv-x="234" d="M218 764h-24q-11 0 -2 11l94 103q10 10 19 10h36q5 0 6 -3t-3 -7l-107 -104q-10 -10 -19 -10zM54 10l116 660q2 10 11 10h34q10 0 8 -10l-116 -660q-2 -10 -11 -10h-34q-10 0 -8 10z"/>
<glyph glyph-name="Icircumflex" unicode="Î" horiz-adv-x="234" d="M322 755h-19q-10 0 -16 9l-52 91h-2l-86 -91q-8 -9 -18 -9h-23q-4 0 -5 3t3 7l107 122q8 9 17 9h20q8 0 13 -9l65 -122q6 -10 -4 -10zM54 10l116 660q2 10 11 10h34q10 0 8 -10l-116 -660q-2 -10 -11 -10h-34q-10 0 -8 10z"/>
<glyph glyph-name="Idieresis" unicode="Ï" horiz-adv-x="234" d="M134 787h-37q-10 0 -8 10l9 54q2 10 11 10h37q10 0 8 -10l-9 -54q-2 -10 -11 -10zM326 787h-37q-10 0 -8 10l9 54q2 10 11 10h37q10 0 8 -10l-9 -54q-2 -10 -11 -10zM54 10l116 660q2 10 11 10h34q10 0 8 -10l-116 -660q-2 -10 -11 -10h-34q-10 0 -8 10z"/>
<glyph glyph-name="Eth" unicode="Ð" horiz-adv-x="604" d="M266 51q133 0 184 105q24 50 46 162t22 175q0 70 -36.5 103t-112.5 33h-147q-6 0 -7 -6l-45 -249q-2 -6 5 -6h126q10 0 8 -10l-4 -25q-1 -10 -12 -10h-125q-6 0 -7 -6l-46 -260q-1 -6 4 -6h147zM267 0h-205q-10 0 -8 10l54 307q2 6 -4 6h-39q-10 0 -8 10l4 25q1 10 12 10 h38q5 0 7 6l52 296q2 10 11 10h205q184 0 184 -178q0 -70 -23 -191.5t-52 -179.5q-34 -70 -88.5 -100.5t-139.5 -30.5z"/>
<glyph glyph-name="Ntilde" unicode="Ñ" horiz-adv-x="625" d="M54 10l116 660q2 10 11 10h32q9 0 13 -10l234 -567h2l102 567q2 10 11 10h31q10 0 8 -10l-116 -660q-2 -10 -11 -10h-31q-10 0 -14 10l-235 568h-2l-101 -568q-2 -10 -11 -10h-31q-10 0 -8 10zM460 784q-27 0 -54 20q-23 18 -44 18q-28 0 -61 -33q-3 -3 -6 -1.5t-2 4.5 l4 30q1 8 10 15q28 28 64 28q26 0 54 -21q25 -18 44 -18q27 0 62 33q3 3 6 2t2 -5l-5 -29q-1 -9 -10 -16q-29 -27 -64 -27z"/>
<glyph glyph-name="Ograve" unicode="Ò" horiz-adv-x="586" d="M259 41q123 0 180 116q25 52 46.5 163.5t21.5 170.5q0 71 -36.5 109.5t-104.5 38.5q-123 0 -180 -116q-25 -52 -46.5 -163.5t-21.5 -170.5q0 -71 36 -109.5t105 -38.5zM251 -10q-88 0 -137 50.5t-49 142.5q0 64 22.5 183.5t49.5 173.5q72 150 237 150q88 0 137 -50.5 t49 -142.5q0 -64 -22.5 -183.5t-49.5 -173.5q-72 -150 -237 -150zM409 764h-22q-9 0 -16 10l-72 104q-2 4 -0.5 7t5.5 3h33q10 0 17 -10l60 -104q3 -4 1.5 -7t-6.5 -3z"/>
<glyph glyph-name="Oacute" unicode="Ó" horiz-adv-x="586" d="M259 41q123 0 180 116q25 52 46.5 163.5t21.5 170.5q0 71 -36.5 109.5t-104.5 38.5q-123 0 -180 -116q-25 -52 -46.5 -163.5t-21.5 -170.5q0 -71 36 -109.5t105 -38.5zM251 -10q-88 0 -137 50.5t-49 142.5q0 64 22.5 183.5t49.5 173.5q72 150 237 150q88 0 137 -50.5 t49 -142.5q0 -64 -22.5 -183.5t-49.5 -173.5q-72 -150 -237 -150zM392 764h-24q-11 0 -2 11l94 103q10 10 19 10h36q5 0 6 -3t-3 -7l-107 -104q-10 -10 -19 -10z"/>
<glyph glyph-name="Ocircumflex" unicode="Ô" horiz-adv-x="586" d="M259 41q123 0 180 116q25 52 46.5 163.5t21.5 170.5q0 71 -36.5 109.5t-104.5 38.5q-123 0 -180 -116q-25 -52 -46.5 -163.5t-21.5 -170.5q0 -71 36 -109.5t105 -38.5zM251 -10q-88 0 -137 50.5t-49 142.5q0 64 22.5 183.5t49.5 173.5q72 150 237 150q88 0 137 -50.5 t49 -142.5q0 -64 -22.5 -183.5t-49.5 -173.5q-72 -150 -237 -150zM498 765h-20q-9 0 -15 9l-52 91h-2l-86 -91q-9 -9 -19 -9h-22q-4 0 -5 3t3 7l107 122q8 9 17 9h20q8 0 13 -9l65 -122q6 -10 -4 -10z"/>
<glyph glyph-name="Otilde" unicode="Õ" horiz-adv-x="586" d="M259 41q123 0 180 116q25 52 46.5 163.5t21.5 170.5q0 71 -36.5 109.5t-104.5 38.5q-123 0 -180 -116q-25 -52 -46.5 -163.5t-21.5 -170.5q0 -71 36 -109.5t105 -38.5zM251 -10q-88 0 -137 50.5t-49 142.5q0 64 22.5 183.5t49.5 173.5q72 150 237 150q88 0 137 -50.5 t49 -142.5q0 -64 -22.5 -183.5t-49.5 -173.5q-72 -150 -237 -150zM444 784q-27 0 -54 20q-23 18 -44 18q-28 0 -61 -33q-3 -3 -6 -1.5t-2 4.5l4 30q1 8 10 15q28 28 64 28q26 0 54 -21q25 -18 44 -18q27 0 62 33q3 3 6 2t2 -5l-5 -29q-1 -9 -10 -16q-29 -27 -64 -27z"/>
<glyph glyph-name="Odieresis" unicode="Ö" horiz-adv-x="586" d="M259 41q123 0 180 116q25 52 46.5 163.5t21.5 170.5q0 71 -36.5 109.5t-104.5 38.5q-123 0 -180 -116q-25 -52 -46.5 -163.5t-21.5 -170.5q0 -71 36 -109.5t105 -38.5zM251 -10q-88 0 -137 50.5t-49 142.5q0 64 22.5 183.5t49.5 173.5q72 150 237 150q88 0 137 -50.5 t49 -142.5q0 -64 -22.5 -183.5t-49.5 -173.5q-72 -150 -237 -150zM316 787h-37q-10 0 -8 10l9 54q2 10 11 10h37q10 0 8 -10l-9 -54q-2 -10 -11 -10zM508 787h-37q-10 0 -8 10l9 54q2 10 11 10h37q10 0 8 -10l-9 -54q-2 -10 -11 -10z"/>
<glyph glyph-name="multiply" unicode="×" d="M433 131l-17 -20q-7 -7 -14 0l-129 127q-4 4 -8 0l-128 -127q-7 -7 -14 0l-18 20q-7 7 0 14l129 127q4 4 0 8l-129 127q-7 7 0 14l18 20q7 7 14 0l128 -127q4 -4 8 0l129 127q7 7 14 0l17 -20q7 -7 0 -14l-128 -127q-4 -4 0 -8l128 -127q7 -7 0 -14z"/>
<glyph glyph-name="Oslash" unicode="Ø" horiz-adv-x="586" d="M259 40q122 0 180 117q26 52 47 163t21 171q0 41 -12 71l-346 -478q36 -44 110 -44zM118 189q0 -44 13 -74l345 478q-38 47 -110 47q-122 0 -180 -117q-26 -51 -47 -162.5t-21 -171.5zM58 -30h-22q-10 0 -3 10l61 86q-29 46 -29 117q0 64 22.5 183.5t49.5 173.5 q72 150 237 150q86 0 136 -50l43 60q7 10 16 10h22q11 0 4 -10l-64 -88q29 -46 29 -115q0 -64 -22.5 -183.5t-49.5 -173.5q-72 -150 -237 -150q-87 0 -135 48l-42 -58q-7 -10 -16 -10z"/>
<glyph glyph-name="Ugrave" unicode="Ù" horiz-adv-x="610" d="M276 -10q-91 0 -142.5 46.5t-51.5 135.5q0 30 6 64l76 434q2 10 11 10h34q10 0 8 -10l-77 -436q-5 -33 -5 -55q0 -138 145 -138q83 0 130 44t66 149l77 436q2 10 11 10h33q10 0 8 -10l-77 -439q-22 -129 -83 -185t-169 -56zM412 764h-22q-9 0 -16 10l-72 104q-2 4 -0.5 7 t5.5 3h33q10 0 17 -10l60 -104q3 -4 1.5 -7t-6.5 -3z"/>
<glyph glyph-name="Uacute" unicode="Ú" horiz-adv-x="610" d="M276 -10q-91 0 -142.5 46.5t-51.5 135.5q0 30 6 64l76 434q2 10 11 10h34q10 0 8 -10l-77 -436q-5 -33 -5 -55q0 -138 145 -138q83 0 130 44t66 149l77 436q2 10 11 10h33q10 0 8 -10l-77 -439q-22 -129 -83 -185t-169 -56zM384 764h-24q-11 0 -2 11l94 103q10 10 19 10 h36q5 0 6 -3t-3 -7l-107 -104q-10 -10 -19 -10z"/>
<glyph glyph-name="Ucircumflex" unicode="Û" horiz-adv-x="610" d="M514 755h-19q-10 0 -16 9l-52 91h-2l-86 -91q-8 -9 -18 -9h-23q-4 0 -5 3t3 7l107 122q8 9 17 9h20q8 0 13 -9l65 -122q6 -10 -4 -10zM276 -10q-91 0 -142.5 46.5t-51.5 135.5q0 30 6 64l76 434q2 10 11 10h34q10 0 8 -10l-77 -436q-5 -33 -5 -55q0 -138 145 -138 q83 0 130 44t66 149l77 436q2 10 11 10h33q10 0 8 -10l-77 -439q-22 -129 -83 -185t-169 -56z"/>
<glyph glyph-name="Udieresis" unicode="Ü" horiz-adv-x="610" d="M276 -10q-91 0 -142.5 46.5t-51.5 135.5q0 30 6 64l76 434q2 10 11 10h34q10 0 8 -10l-77 -436q-5 -33 -5 -55q0 -138 145 -138q83 0 130 44t66 149l77 436q2 10 11 10h33q10 0 8 -10l-77 -439q-22 -129 -83 -185t-169 -56zM334 787h-37q-10 0 -8 10l9 54q2 10 11 10h37 q10 0 8 -10l-9 -54q-2 -10 -11 -10zM526 787h-37q-10 0 -8 10l9 54q2 10 11 10h37q10 0 8 -10l-9 -54q-2 -10 -11 -10z"/>
<glyph glyph-name="Yacute" unicode="Ý" horiz-adv-x="496" d="M345 764h-24q-11 0 -2 11l94 103q10 10 19 10h36q5 0 6 -3t-3 -7l-107 -104q-10 -10 -19 -10zM226 0h-33q-10 0 -8 10l47 269l-126 390q-4 11 8 11h32q10 0 13 -10l107 -327h3l224 327q6 10 16 10h34q6 0 7.5 -3.5t-1.5 -7.5l-264 -390l-48 -269q-2 -10 -11 -10z"/>
<glyph glyph-name="Thorn" unicode="Þ" horiz-adv-x="561" d="M310 206q83 0 132.5 46.5t49.5 128.5q0 51 -33 79t-96 28h-166q-5 0 -7 -6l-48 -270q-2 -6 5 -6h163zM96 0h-34q-10 0 -8 10l116 660q2 10 11 10h34q10 0 8 -10l-22 -126q-1 -6 5 -6h167q82 0 126.5 -39.5t44.5 -109.5q0 -110 -65.5 -172t-171.5 -62h-169q-6 0 -7 -6 l-24 -139q-2 -10 -11 -10z"/>
<glyph glyph-name="germandbls" unicode="ß" horiz-adv-x="527" d="M245 -5h-14q-10 0 -8 10l4 28q2 10 12 10h13q89 0 122 65q12 24 26 103t14 109q0 43 -24 62t-76 19h-11q-10 0 -8 10l5 29q2 10 12 10h17q59 0 91 31t32 86q0 75 -105 75q-70 0 -107.5 -34t-51.5 -111l-86 -487q-2 -10 -10 -10h-32q-10 0 -8 10l86 487q17 97 68 145 t147 48q74 0 112 -30.5t38 -84.5q0 -52 -23.5 -92t-70.5 -56v-2q56 -23 56 -94q0 -41 -16 -126t-32 -118q-25 -51 -66 -71.5t-106 -20.5z"/>
<glyph glyph-name="agrave" unicode="à" horiz-adv-x="492" d="M322 558h-20q-8 0 -15 10l-62 122q-2 4 0 7t7 3h31q9 0 13 -10l53 -122q5 -10 -7 -10zM195 35q59 0 101.5 31t50.5 81l13 74q2 6 -4 6h-109q-151 0 -151 -114q0 -78 99 -78zM361 0h-29q-10 0 -8 10l9 50h-1q-46 -70 -155 -70q-61 0 -96 31.5t-35 85.5q0 80 51.5 121.5 t148.5 41.5h116q6 0 8 6l9 52q5 27 5 42q0 38 -23.5 54t-79.5 16q-74 0 -122 -38q-10 -8 -15 2l-13 22q-4 7 3 13q62 48 158 48q74 0 108 -25t34 -83q0 -19 -5 -49l-57 -320q-2 -10 -11 -10z"/>
<glyph glyph-name="aacute" unicode="á" horiz-adv-x="492" d="M313 558h-22q-11 0 -3 10l92 122q8 10 19 10h34q5 0 6 -3t-2 -7l-106 -122q-10 -10 -18 -10zM195 35q59 0 101.5 31t50.5 81l13 74q2 6 -4 6h-109q-151 0 -151 -114q0 -78 99 -78zM361 0h-29q-10 0 -8 10l9 50h-1q-46 -70 -155 -70q-61 0 -96 31.5t-35 85.5 q0 80 51.5 121.5t148.5 41.5h116q6 0 8 6l9 52q5 27 5 42q0 38 -23.5 54t-79.5 16q-74 0 -122 -38q-10 -8 -15 2l-13 22q-4 7 3 13q62 48 158 48q74 0 108 -25t34 -83q0 -19 -5 -49l-57 -320q-2 -10 -11 -10z"/>
<glyph glyph-name="acircumflex" unicode="â" horiz-adv-x="492" d="M425 559h-20q-9 0 -15 9l-52 91h-2l-86 -91q-9 -9 -19 -9h-22q-4 0 -5 3t3 7l107 122q8 9 17 9h20q9 0 13 -9l65 -122q6 -10 -4 -10zM195 35q59 0 101.5 31t50.5 81l13 74q2 6 -4 6h-109q-151 0 -151 -114q0 -78 99 -78zM361 0h-29q-10 0 -8 10l9 50h-1q-46 -70 -155 -70 q-61 0 -96 31.5t-35 85.5q0 80 51.5 121.5t148.5 41.5h116q6 0 8 6l9 52q5 27 5 42q0 38 -23.5 54t-79.5 16q-74 0 -122 -38q-10 -8 -15 2l-13 22q-4 7 3 13q62 48 158 48q74 0 108 -25t34 -83q0 -19 -5 -49l-57 -320q-2 -10 -11 -10z"/>
<glyph glyph-name="atilde" unicode="ã" horiz-adv-x="492" d="M374 598q-26 0 -54 21q-27 18 -44 18q-27 0 -62 -33q-3 -3 -6 -2t-2 5l5 29q1 8 9 16q30 27 65 27q27 0 54 -20q23 -18 44 -18q28 0 61 33q3 3 6 1.5t2 -4.5l-4 -30q-3 -9 -10 -15q-30 -28 -64 -28zM195 35q59 0 101.5 31t50.5 81l13 74q2 6 -4 6h-109q-151 0 -151 -114 q0 -78 99 -78zM361 0h-29q-10 0 -8 10l9 50h-1q-46 -70 -155 -70q-61 0 -96 31.5t-35 85.5q0 80 51.5 121.5t148.5 41.5h116q6 0 8 6l9 52q5 27 5 42q0 38 -23.5 54t-79.5 16q-74 0 -122 -38q-10 -8 -15 2l-13 22q-4 7 3 13q62 48 158 48q74 0 108 -25t34 -83q0 -19 -5 -49 l-57 -320q-2 -10 -11 -10z"/>
<glyph glyph-name="adieresis" unicode="ä" horiz-adv-x="492" d="M249 607h-37q-10 0 -8 10l9 53q2 10 11 10h37q10 0 8 -10l-9 -53q-2 -10 -11 -10zM441 607h-37q-10 0 -8 10l9 53q2 10 11 10h37q10 0 8 -10l-9 -53q-2 -10 -11 -10zM195 35q59 0 101.5 31t50.5 81l13 74q2 6 -4 6h-109q-151 0 -151 -114q0 -78 99 -78zM361 0h-29 q-10 0 -8 10l9 50h-1q-46 -70 -155 -70q-61 0 -96 31.5t-35 85.5q0 80 51.5 121.5t148.5 41.5h116q6 0 8 6l9 52q5 27 5 42q0 38 -23.5 54t-79.5 16q-74 0 -122 -38q-10 -8 -15 2l-13 22q-4 7 3 13q62 48 158 48q74 0 108 -25t34 -83q0 -19 -5 -49l-57 -320q-2 -10 -11 -10z "/>
<glyph glyph-name="aring" unicode="å" horiz-adv-x="492" d="M319 572q26 0 45 20t19 48q0 21 -12 33.5t-33 12.5q-26 0 -44.5 -20t-18.5 -48q0 -21 11.5 -33.5t32.5 -12.5zM313 542q-31 0 -50.5 20t-19.5 51q0 43 28.5 73t72.5 30q31 0 50.5 -20t19.5 -51q0 -43 -28.5 -73t-72.5 -30zM195 35q59 0 101.5 31t50.5 81l13 74q2 6 -4 6 h-109q-151 0 -151 -114q0 -78 99 -78zM361 0h-29q-10 0 -8 10l9 50h-1q-46 -70 -155 -70q-61 0 -96 31.5t-35 85.5q0 80 51.5 121.5t148.5 41.5h116q6 0 8 6l9 52q5 27 5 42q0 38 -23.5 54t-79.5 16q-74 0 -122 -38q-10 -8 -15 2l-13 22q-4 7 3 13q62 48 158 48 q74 0 108 -25t34 -83q0 -19 -5 -49l-57 -320q-2 -10 -11 -10z"/>
<glyph glyph-name="ae" unicode="æ" horiz-adv-x="778" d="M195 35q59 0 101.5 31t50.5 81l13 74q2 6 -4 6h-109q-151 0 -151 -114q0 -78 99 -78zM423 270h252q5 0 7 6q6 27 6 51q0 113 -106 113q-95 0 -142 -92q-12 -28 -21 -72q-1 -6 4 -6zM281 440q-74 0 -122 -38q-10 -8 -15 2l-13 22q-4 7 3 13q62 48 158 48q124 0 134 -82h1 q59 82 161 82q67 0 107.5 -41t40.5 -116q0 -38 -10 -93q-2 -10 -12 -10h-297q-7 0 -8 -6q-7 -36 -7 -66q0 -117 113 -117q81 0 141 64q7 7 14 2l17 -19q7 -7 -1 -15q-71 -80 -178 -80q-115 0 -144 93h-1q-55 -93 -182 -93q-65 0 -100 31.5t-35 85.5q0 80 51.5 121.5 t148.5 41.5h116q6 0 8 6l9 52q5 27 5 42q0 38 -23.5 54t-79.5 16z"/>
<glyph glyph-name="ccedilla" unicode="ç" horiz-adv-x="449" d="M131 -147h-27q-11 0 -6 10l72 130q-58 8 -88.5 49t-30.5 110q0 116 45 212q61 123 190 123q105 0 138 -92q3 -10 -4 -14l-25 -14q-10 -6 -13 4q-26 68 -101 68q-41 0 -78 -24.5t-59 -67.5q-20 -41 -31 -95t-11 -91q0 -123 106 -123q74 0 129 69q7 9 15 2l20 -18 q7 -6 0 -15q-64 -82 -160 -86l-64 -127q-5 -10 -17 -10z"/>
<glyph glyph-name="egrave" unicode="è" horiz-adv-x="476" d="M303 558h-20q-8 0 -15 10l-62 122q-2 4 0 7t7 3h31q9 0 13 -10l53 -122q5 -10 -7 -10zM121 270h252q5 0 7 6q6 27 6 51q0 113 -106 113q-95 0 -139 -90q-16 -32 -24 -74q-1 -6 4 -6zM206 -10q-75 0 -115 41.5t-40 117.5q0 127 44 215q59 123 191 123q67 0 107.5 -41 t40.5 -116q0 -38 -10 -93q-2 -10 -12 -10h-299q-5 0 -7 -6q-6 -26 -6 -66q0 -117 113 -117q81 0 141 64q7 7 14 2l17 -19q6 -8 -1 -15q-71 -80 -178 -80z"/>
<glyph glyph-name="eacute" unicode="é" horiz-adv-x="476" d="M121 270h252q5 0 7 6q6 27 6 51q0 113 -106 113q-95 0 -139 -90q-16 -32 -24 -74q-1 -6 4 -6zM206 -10q-75 0 -115 41.5t-40 117.5q0 127 44 215q59 123 191 123q67 0 107.5 -41t40.5 -116q0 -38 -10 -93q-2 -10 -12 -10h-299q-5 0 -7 -6q-6 -26 -6 -66q0 -117 113 -117 q81 0 141 64q7 7 14 2l17 -19q6 -8 -1 -15q-71 -80 -178 -80zM291 558h-22q-11 0 -3 10l92 122q8 10 19 10h34q5 0 6 -3t-2 -7l-106 -122q-10 -10 -18 -10z"/>
<glyph glyph-name="ecircumflex" unicode="ê" horiz-adv-x="476" d="M121 270h252q5 0 7 6q6 27 6 51q0 113 -106 113q-95 0 -139 -90q-16 -32 -24 -74q-1 -6 4 -6zM206 -10q-75 0 -115 41.5t-40 117.5q0 127 44 215q59 123 191 123q67 0 107.5 -41t40.5 -116q0 -38 -10 -93q-2 -10 -12 -10h-299q-5 0 -7 -6q-6 -26 -6 -66q0 -117 113 -117 q81 0 141 64q7 7 14 2l17 -19q6 -8 -1 -15q-71 -80 -178 -80zM404 559h-20q-9 0 -15 9l-52 91h-2l-86 -91q-9 -9 -19 -9h-22q-4 0 -5 3t3 7l107 122q8 9 17 9h20q8 0 13 -9l65 -122q6 -10 -4 -10z"/>
<glyph glyph-name="edieresis" unicode="ë" horiz-adv-x="476" d="M121 270h252q5 0 7 6q6 27 6 51q0 113 -106 113q-95 0 -139 -90q-16 -32 -24 -74q-1 -6 4 -6zM206 -10q-75 0 -115 41.5t-40 117.5q0 127 44 215q59 123 191 123q67 0 107.5 -41t40.5 -116q0 -38 -10 -93q-2 -10 -12 -10h-299q-5 0 -7 -6q-6 -26 -6 -66q0 -117 113 -117 q81 0 141 64q7 7 14 2l17 -19q6 -8 -1 -15q-71 -80 -178 -80zM229 607h-37q-10 0 -8 10l9 53q2 10 11 10h37q10 0 8 -10l-9 -53q-2 -10 -11 -10zM421 607h-37q-10 0 -8 10l9 53q2 10 11 10h37q10 0 8 -10l-9 -53q-2 -10 -11 -10z"/>
<glyph glyph-name="igrave" unicode="ì" horiz-adv-x="228" d="M177 558h-20q-8 0 -15 10l-62 122q-2 4 0 7t7 3h31q9 0 13 -10l53 -122q5 -10 -7 -10zM92 0h-32q-10 0 -8 10l80 457q2 10 11 10h32q10 0 8 -10l-81 -457q-2 -10 -10 -10z"/>
<glyph glyph-name="iacute" unicode="í" horiz-adv-x="228" d="M92 0h-32q-10 0 -8 10l80 457q2 10 11 10h32q10 0 8 -10l-81 -457q-2 -10 -10 -10zM176 558h-22q-11 0 -3 10l92 122q8 10 19 10h34q4 0 5.5 -3t-1.5 -7l-106 -122q-10 -10 -18 -10z"/>
<glyph glyph-name="icircumflex" unicode="î" horiz-adv-x="228" d="M92 0h-32q-10 0 -8 10l80 457q2 10 11 10h32q10 0 8 -10l-81 -457q-2 -10 -10 -10zM282 559h-20q-9 0 -15 9l-52 91h-2l-86 -91q-9 -9 -19 -9h-22q-4 0 -5 3t3 7l107 122q8 9 17 9h20q8 0 13 -9l65 -122q6 -10 -4 -10z"/>
<glyph glyph-name="idieresis" unicode="ï" horiz-adv-x="228" d="M92 0h-32q-10 0 -8 10l80 457q2 10 11 10h32q10 0 8 -10l-81 -457q-2 -10 -10 -10zM103 607h-37q-10 0 -8 10l9 53q2 10 11 10h37q10 0 8 -10l-9 -53q-2 -10 -11 -10zM295 607h-37q-10 0 -8 10l9 53q2 10 11 10h37q10 0 8 -10l-9 -53q-2 -10 -11 -10z"/>
<glyph glyph-name="eth" unicode="ð" horiz-adv-x="486" d="M213 38q93 0 138 91q14 29 26.5 82.5t12.5 95.5q0 122 -109 122q-93 0 -139 -91q-14 -29 -26.5 -82.5t-12.5 -95.5q0 -122 110 -122zM423 596l-81 -24l28 -46q71 -120 71 -213q0 -49 -13.5 -107t-31.5 -98q-58 -118 -191 -118q-76 0 -114.5 43t-38.5 120q0 50 13.5 108.5 t31.5 96.5q57 118 179 118q50 0 80 -24h1l-62 106l-98 -29q-11 -3 -12 6l-2 22q0 9 9 12l82 24l-45 77q-6 10 5 10h35q10 0 16 -10l36 -62l97 29q10 3 12 -7l2 -21q2 -10 -9 -13z"/>
<glyph glyph-name="ntilde" unicode="ñ" horiz-adv-x="519" d="M368 598q-26 0 -54 21q-27 18 -44 18q-27 0 -62 -33q-3 -3 -6 -2t-2 5l5 29q1 8 9 16q30 27 65 27q27 0 54 -20q23 -18 44 -18q28 0 61 33q3 3 6 1.5t2 -4.5l-4 -30q-3 -9 -10 -15q-30 -28 -64 -28zM387 0h-32q-9 0 -7 10l51 282q5 30 5 48q0 99 -100 99q-51 0 -95 -37.5 t-55 -97.5l-52 -294q-2 -10 -10 -10h-33q-9 0 -7 10l80 457q2 10 11 10h32q10 0 8 -10l-10 -55h1q52 75 149 75q65 0 99.5 -34.5t34.5 -98.5q0 -19 -5 -49l-54 -295q-2 -10 -11 -10z"/>
<glyph glyph-name="ograve" unicode="ò" horiz-adv-x="486" d="M311 558h-20q-8 0 -15 10l-62 122q-2 4 0 7t7 3h31q9 0 13 -10l53 -122q5 -10 -7 -10zM391 316q0 123 -110 123q-93 0 -138 -91q-14 -28 -27.5 -87.5t-13.5 -99.5q0 -123 110 -123q93 0 138 91q14 28 27.5 87.5t13.5 99.5zM98 369q56 118 191 118q74 0 113.5 -43 t39.5 -118q0 -51 -14.5 -116t-32.5 -102q-56 -118 -191 -118q-74 0 -113.5 43t-39.5 118q0 51 14.5 116t32.5 102z"/>
<glyph glyph-name="oacute" unicode="ó" horiz-adv-x="486" d="M391 316q0 123 -110 123q-93 0 -138 -91q-14 -28 -27.5 -87.5t-13.5 -99.5q0 -123 110 -123q93 0 138 91q14 28 27.5 87.5t13.5 99.5zM98 369q56 118 191 118q74 0 113.5 -43t39.5 -118q0 -51 -14.5 -116t-32.5 -102q-56 -118 -191 -118q-74 0 -113.5 43t-39.5 118 q0 51 14.5 116t32.5 102zM308 558h-22q-11 0 -3 10l92 122q8 10 19 10h34q4 0 5.5 -3t-1.5 -7l-106 -122q-10 -10 -18 -10z"/>
<glyph glyph-name="ocircumflex" unicode="ô" horiz-adv-x="486" d="M391 316q0 123 -110 123q-93 0 -138 -91q-14 -28 -27.5 -87.5t-13.5 -99.5q0 -123 110 -123q93 0 138 91q14 28 27.5 87.5t13.5 99.5zM98 369q56 118 191 118q74 0 113.5 -43t39.5 -118q0 -51 -14.5 -116t-32.5 -102q-56 -118 -191 -118q-74 0 -113.5 43t-39.5 118 q0 51 14.5 116t32.5 102zM413 559h-20q-9 0 -15 9l-52 91h-2l-86 -91q-9 -9 -19 -9h-22q-4 0 -5 3t3 7l107 122q8 9 17 9h20q9 0 13 -9l65 -122q6 -10 -4 -10z"/>
<glyph glyph-name="otilde" unicode="õ" horiz-adv-x="486" d="M365 598q-26 0 -54 21q-27 18 -44 18q-27 0 -62 -33q-3 -3 -6 -2t-2 5l5 29q1 8 9 16q30 27 65 27q27 0 54 -20q23 -18 44 -18q28 0 61 33q3 3 6 1.5t2 -4.5l-4 -30q-3 -9 -10 -15q-30 -28 -64 -28zM391 316q0 123 -110 123q-93 0 -138 -91q-14 -28 -27.5 -87.5 t-13.5 -99.5q0 -123 110 -123q93 0 138 91q14 28 27.5 87.5t13.5 99.5zM98 369q56 118 191 118q74 0 113.5 -43t39.5 -118q0 -51 -14.5 -116t-32.5 -102q-56 -118 -191 -118q-74 0 -113.5 43t-39.5 118q0 51 14.5 116t32.5 102z"/>
<glyph glyph-name="odieresis" unicode="ö" horiz-adv-x="486" d="M391 316q0 123 -110 123q-93 0 -138 -91q-14 -28 -27.5 -87.5t-13.5 -99.5q0 -123 110 -123q93 0 138 91q14 28 27.5 87.5t13.5 99.5zM98 369q56 118 191 118q74 0 113.5 -43t39.5 -118q0 -51 -14.5 -116t-32.5 -102q-56 -118 -191 -118q-74 0 -113.5 43t-39.5 118 q0 51 14.5 116t32.5 102zM236 607h-37q-10 0 -8 10l9 53q2 10 11 10h37q10 0 8 -10l-9 -53q-2 -10 -11 -10zM428 607h-37q-10 0 -8 10l9 53q2 10 11 10h37q10 0 8 -10l-9 -53q-2 -10 -11 -10z"/>
<glyph glyph-name="divide" unicode="÷" d="M261 88q-18 0 -30 12.5t-12 30.5t12 30.5t30 12.5q17 0 29 -12.5t12 -30.5t-12 -30.5t-29 -12.5zM449 253h-376q-10 0 -10 10v27q0 10 10 10h376q10 0 10 -10v-27q0 -10 -10 -10zM261 377q-18 0 -30 12.5t-12 30.5t12 30.5t30 12.5q17 0 29 -12.5t12 -30.5t-12 -30.5 t-29 -12.5z"/>
<glyph glyph-name="oslash" unicode="ø" horiz-adv-x="486" d="M212 37q92 0 139 92q14 28 27 87.5t13 99.5q0 37 -11 65l-253 -312q27 -32 85 -32zM102 160q0 -38 10 -64l253 311q-27 32 -84 32q-93 0 -139 -92q-14 -29 -27 -88t-13 -99zM36 -30h-15q-11 0 -3 10l57 71q-24 39 -24 99q0 51 14.5 116t32.5 103q58 118 191 118 q71 0 110 -39l40 48q7 10 17 10h15q10 0 4 -10l-58 -71q25 -41 25 -99q0 -51 -14.5 -116t-32.5 -102q-56 -118 -191 -118q-70 0 -111 39l-40 -49q-8 -10 -17 -10z"/>
<glyph glyph-name="ugrave" unicode="ù" horiz-adv-x="513" d="M326 558h-20q-8 0 -15 10l-62 122q-2 4 0 7t7 3h31q9 0 13 -10l53 -122q5 -10 -7 -10zM137 477h32q9 0 7 -10l-51 -283q-5 -30 -5 -48q0 -98 97 -98q51 0 94.5 37.5t53.5 97.5l52 294q2 10 11 10h32q10 0 8 -10l-81 -457q-2 -10 -11 -10h-31q-10 0 -8 10l10 55h-1 q-54 -75 -147 -75q-63 0 -97 33.5t-34 96.5q0 21 5 51l53 296q2 10 11 10z"/>
<glyph glyph-name="uacute" unicode="ú" horiz-adv-x="513" d="M137 477h32q9 0 7 -10l-51 -283q-5 -30 -5 -48q0 -98 97 -98q51 0 94.5 37.5t53.5 97.5l52 294q2 10 11 10h32q10 0 8 -10l-81 -457q-2 -10 -11 -10h-31q-10 0 -8 10l10 55h-1q-54 -75 -147 -75q-63 0 -97 33.5t-34 96.5q0 21 5 51l53 296q2 10 11 10zM316 558h-22 q-11 0 -3 10l92 122q8 10 19 10h34q4 0 5.5 -3t-1.5 -7l-106 -122q-10 -10 -18 -10z"/>
<glyph glyph-name="ucircumflex" unicode="û" horiz-adv-x="513" d="M137 477h32q9 0 7 -10l-51 -283q-5 -30 -5 -48q0 -98 97 -98q51 0 94.5 37.5t53.5 97.5l52 294q2 10 11 10h32q10 0 8 -10l-81 -457q-2 -10 -11 -10h-31q-10 0 -8 10l10 55h-1q-54 -75 -147 -75q-63 0 -97 33.5t-34 96.5q0 21 5 51l53 296q2 10 11 10zM418 559h-20 q-9 0 -15 9l-52 91h-2l-86 -91q-9 -9 -19 -9h-22q-4 0 -5 3t3 7l107 122q8 9 17 9h20q8 0 13 -9l65 -122q6 -10 -4 -10z"/>
<glyph glyph-name="udieresis" unicode="ü" horiz-adv-x="513" d="M137 477h32q9 0 7 -10l-51 -283q-5 -30 -5 -48q0 -98 97 -98q51 0 94.5 37.5t53.5 97.5l52 294q2 10 11 10h32q10 0 8 -10l-81 -457q-2 -10 -11 -10h-31q-10 0 -8 10l10 55h-1q-54 -75 -147 -75q-63 0 -97 33.5t-34 96.5q0 21 5 51l53 296q2 10 11 10zM241 607h-37 q-10 0 -8 10l9 53q2 10 11 10h37q10 0 8 -10l-9 -53q-2 -10 -11 -10zM433 607h-37q-10 0 -8 10l9 53q2 10 11 10h37q10 0 8 -10l-9 -53q-2 -10 -11 -10z"/>
<glyph glyph-name="yacute" unicode="ý" horiz-adv-x="449" d="M281 558h-22q-11 0 -3 10l92 122q8 10 19 10h34q5 0 6 -3t-2 -7l-106 -122q-10 -10 -18 -10zM27 -180h-19q-10 0 -8 10l4 28q1 10 12 10h17q31 0 53 19t51 74l27 49l-89 457q-2 10 8 10h33q10 0 11 -10l71 -387h1l207 387q4 10 13 10h35q11 0 6 -10l-278 -514 q-43 -79 -76 -106t-79 -27z"/>
<glyph glyph-name="thorn" unicode="þ" horiz-adv-x="509" d="M238 38q90 0 133 87q18 37 30 96.5t12 102.5q0 115 -104 115q-92 0 -138 -93q-12 -23 -25.5 -90.5t-13.5 -106.5q0 -51 27.5 -81t78.5 -30zM241 -10q-98 0 -127 81h-1l-42 -241q-2 -10 -11 -10h-32q-10 0 -8 10l148 840q2 10 11 10h32q10 0 8 -10l-46 -261h1 q53 78 152 78q67 0 102.5 -41t35.5 -114q0 -56 -15 -124.5t-34 -105.5q-53 -112 -174 -112z"/>
<glyph glyph-name="ydieresis" unicode="ÿ" horiz-adv-x="449" d="M215 607h-37q-10 0 -8 10l9 53q2 10 11 10h37q10 0 8 -10l-9 -53q-2 -10 -11 -10zM407 607h-37q-10 0 -8 10l9 53q2 10 11 10h37q10 0 8 -10l-9 -53q-2 -10 -11 -10zM27 -180h-19q-10 0 -8 10l4 28q1 10 12 10h17q31 0 53 19t51 74l27 49l-89 457q-2 10 8 10h33 q10 0 11 -10l71 -387h1l207 387q4 10 13 10h35q11 0 6 -10l-278 -514q-43 -79 -76 -106t-79 -27z"/>
<glyph glyph-name="Amacron" unicode="Ā" horiz-adv-x="575" d="M511 802h-234q-10 0 -8 10l4 23q1 10 11 10h233q10 0 8 -10l-3 -23q-2 -10 -11 -10zM168 230h251l-59 363h-2zM1 0q-10 0 -5 10l346 660q5 10 13 10h32q8 0 10 -10l110 -660q2 -10 -9 -10h-32q-10 0 -11 10l-28 170h-285l-89 -170q-5 -10 -14 -10h-38z"/>
<glyph glyph-name="amacron" unicode="ā" horiz-adv-x="492" d="M444 622h-234q-10 0 -8 10l4 22q1 10 11 10h234q10 0 8 -10l-4 -22q-1 -10 -11 -10zM195 35q59 0 101.5 31t50.5 81l13 74q2 6 -4 6h-109q-151 0 -151 -114q0 -78 99 -78zM361 0h-29q-10 0 -8 10l9 50h-1q-46 -70 -155 -70q-61 0 -96 31.5t-35 85.5q0 80 51.5 121.5 t148.5 41.5h116q6 0 8 6l9 52q5 27 5 42q0 38 -23.5 54t-79.5 16q-74 0 -122 -38q-10 -8 -15 2l-13 22q-4 7 3 13q62 48 158 48q74 0 108 -25t34 -83q0 -19 -5 -49l-57 -320q-2 -10 -11 -10z"/>
<glyph glyph-name="Abreve" unicode="Ă" horiz-adv-x="575" d="M389 769q-47 0 -74 27.5t-27 72.5q0 12 10 12h16q9 0 11 -10q5 -62 70 -62q64 0 93 62q5 10 13 10h17q10 0 7 -10q-15 -46 -51.5 -74t-84.5 -28zM168 230h251l-59 363h-2zM1 0q-10 0 -5 10l346 660q5 10 13 10h32q8 0 10 -10l110 -660q2 -10 -9 -10h-32q-10 0 -11 10 l-28 170h-285l-89 -170q-5 -10 -14 -10h-38z"/>
<glyph glyph-name="abreve" unicode="ă" horiz-adv-x="492" d="M318 572q-47 0 -74 27.5t-27 72.5q0 12 10 12h16q9 0 11 -10q5 -62 70 -62q64 0 93 62q5 10 13 10h17q10 0 7 -10q-15 -46 -51.5 -74t-84.5 -28zM195 35q59 0 101.5 31t50.5 81l13 74q2 6 -4 6h-109q-151 0 -151 -114q0 -78 99 -78zM361 0h-29q-10 0 -8 10l9 50h-1 q-46 -70 -155 -70q-61 0 -96 31.5t-35 85.5q0 80 51.5 121.5t148.5 41.5h116q6 0 8 6l9 52q5 27 5 42q0 38 -23.5 54t-79.5 16q-74 0 -122 -38q-10 -8 -15 2l-13 22q-4 7 3 13q62 48 158 48q74 0 108 -25t34 -83q0 -19 -5 -49l-57 -320q-2 -10 -11 -10z"/>
<glyph glyph-name="Aogonek" unicode="Ą" horiz-adv-x="575" d="M358 593l-190 -363h251l-59 363h-2zM415 -170q-25 0 -40.5 14.5t-15.5 39.5q0 57 97 122q-1 0 -1 5l-28 169h-285l-89 -170q-5 -10 -14 -10h-38q-10 0 -5 10l346 660q5 10 13 10h32q8 0 10 -10l110 -660q1 -6 -4 -10q-57 -38 -78 -61.5t-21 -42.5q0 -23 24 -23q14 0 30 9 q7 5 11 -2l6 -20q2 -6 -5 -13q-25 -17 -55 -17z"/>
<glyph glyph-name="aogonek" unicode="ą" horiz-adv-x="492" d="M195 35q59 0 101.5 31t50.5 81l13 74q2 6 -4 6h-109q-151 0 -151 -114q0 -78 99 -78zM276 -170q-25 0 -40.5 14.5t-15.5 39.5q0 56 104 125l9 51h-1q-46 -70 -155 -70q-61 0 -96 31.5t-35 85.5q0 80 51.5 121.5t148.5 41.5h116q6 0 8 6l9 52q5 27 5 42q0 38 -23.5 54 t-79.5 16q-74 0 -122 -38q-10 -8 -15 2l-13 22q-4 7 3 13q62 48 158 48q74 0 108 -25t34 -83q0 -19 -5 -49l-57 -320q-1 -7 -7 -10q-57 -38 -78 -61t-21 -43q0 -23 24 -23q14 0 29 9q8 5 12 -2l6 -20q2 -6 -6 -13q-25 -17 -55 -17z"/>
<glyph glyph-name="Cacute" unicode="Ć" horiz-adv-x="537" d="M371 764h-24q-11 0 -2 11l94 103q10 10 19 10h36q5 0 6 -3t-3 -7l-107 -104q-10 -10 -19 -10zM64 183q0 63 22.5 182.5t49.5 174.5q38 78 93 114t134 36q62 0 108.5 -34t65.5 -97q3 -8 -5 -11l-28 -13q-10 -5 -13 4q-37 100 -134 100q-114 0 -172 -116 q-25 -52 -46.5 -163.5t-21.5 -170.5q0 -71 36 -109.5t104 -38.5q100 0 167 99q5 7 12 4l28 -16q7 -4 2 -13q-78 -125 -217 -125q-86 0 -135.5 50.5t-49.5 142.5z"/>
<glyph glyph-name="cacute" unicode="ć" horiz-adv-x="449" d="M201 -10q-73 0 -111.5 42.5t-38.5 119.5q0 116 45 212q61 123 190 123q105 0 138 -92q3 -10 -4 -14l-25 -14q-10 -6 -13 4q-26 68 -101 68q-41 0 -78 -24.5t-59 -67.5q-20 -41 -31 -95t-11 -91q0 -123 106 -123q74 0 129 69q7 9 15 2l20 -18q7 -6 0 -15q-67 -86 -171 -86 zM300 558h-22q-11 0 -3 10l92 122q8 10 19 10h34q4 0 5.5 -3t-1.5 -7l-106 -122q-10 -10 -18 -10z"/>
<glyph glyph-name="Ccircumflex" unicode="Ĉ" horiz-adv-x="537" d="M484 755h-19q-10 0 -16 9l-52 91h-2l-86 -91q-8 -9 -18 -9h-23q-4 0 -5 3t3 7l107 122q8 9 17 9h20q8 0 13 -9l65 -122q6 -10 -4 -10zM64 183q0 63 22.5 182.5t49.5 174.5q38 78 93 114t134 36q62 0 108.5 -34t65.5 -97q3 -8 -5 -11l-28 -13q-10 -5 -13 4 q-37 100 -134 100q-114 0 -172 -116q-25 -52 -46.5 -163.5t-21.5 -170.5q0 -71 36 -109.5t104 -38.5q100 0 167 99q5 7 12 4l28 -16q7 -4 2 -13q-78 -125 -217 -125q-86 0 -135.5 50.5t-49.5 142.5z"/>
<glyph glyph-name="ccircumflex" unicode="ĉ" horiz-adv-x="449" d="M201 -10q-73 0 -111.5 42.5t-38.5 119.5q0 116 45 212q61 123 190 123q105 0 138 -92q3 -10 -4 -14l-25 -14q-10 -6 -13 4q-26 68 -101 68q-41 0 -78 -24.5t-59 -67.5q-20 -41 -31 -95t-11 -91q0 -123 106 -123q74 0 129 69q7 9 15 2l20 -18q7 -6 0 -15q-67 -86 -171 -86 zM406 559h-20q-9 0 -15 9l-52 91h-2l-86 -91q-9 -9 -19 -9h-22q-4 0 -5 3t3 7l107 122q8 9 17 9h20q8 0 13 -9l65 -122q6 -10 -4 -10z"/>
<glyph glyph-name="Cdotaccent" unicode="Ċ" horiz-adv-x="537" d="M64 183q0 63 22.5 182.5t49.5 174.5q38 78 93 114t134 36q62 0 108.5 -34t65.5 -97q3 -8 -5 -11l-28 -13q-10 -5 -13 4q-37 100 -134 100q-114 0 -172 -116q-25 -52 -46.5 -163.5t-21.5 -170.5q0 -71 36 -109.5t104 -38.5q100 0 167 99q5 7 12 4l28 -16q7 -4 2 -13 q-78 -125 -217 -125q-86 0 -135.5 50.5t-49.5 142.5zM400 787h-42q-10 0 -8 10l9 54q2 10 11 10h42q10 0 8 -10l-9 -54q-2 -10 -11 -10z"/>
<glyph glyph-name="cdotaccent" unicode="ċ" horiz-adv-x="449" d="M320 607h-42q-10 0 -8 10l10 53q2 10 11 10h41q10 0 8 -10l-9 -53q-2 -10 -11 -10zM201 -10q-73 0 -111.5 42.5t-38.5 119.5q0 116 45 212q61 123 190 123q105 0 138 -92q3 -10 -4 -14l-25 -14q-10 -6 -13 4q-26 68 -101 68q-41 0 -78 -24.5t-59 -67.5q-20 -41 -31 -95 t-11 -91q0 -123 106 -123q74 0 129 69q7 9 15 2l20 -18q7 -6 0 -15q-67 -86 -171 -86z"/>
<glyph glyph-name="Ccaron" unicode="Č" horiz-adv-x="537" d="M386 754h-20q-8 0 -13 9l-66 122q-2 4 -0.5 7t5.5 3h19q10 0 15 -9l53 -90h2l86 90q8 9 18 9h22q5 0 6 -3t-3 -7l-107 -122q-8 -9 -17 -9zM64 183q0 63 22.5 182.5t49.5 174.5q38 78 93 114t134 36q62 0 108.5 -34t65.5 -97q3 -8 -5 -11l-28 -13q-10 -5 -13 4 q-37 100 -134 100q-114 0 -172 -116q-25 -52 -46.5 -163.5t-21.5 -170.5q0 -71 36 -109.5t104 -38.5q100 0 167 99q5 7 12 4l28 -16q7 -4 2 -13q-78 -125 -217 -125q-86 0 -135.5 50.5t-49.5 142.5z"/>
<glyph glyph-name="ccaron" unicode="č" horiz-adv-x="449" d="M201 -10q-73 0 -111.5 42.5t-38.5 119.5q0 116 45 212q61 123 190 123q105 0 138 -92q3 -10 -4 -14l-25 -14q-10 -6 -13 4q-26 68 -101 68q-41 0 -78 -24.5t-59 -67.5q-20 -41 -31 -95t-11 -91q0 -123 106 -123q74 0 129 69q7 9 15 2l20 -18q7 -6 0 -15q-67 -86 -171 -86 zM306 559h-20q-9 0 -13 9l-65 122q-6 10 4 10h20q9 0 15 -10l52 -90h2l86 90q9 10 19 10h22q4 0 5 -3t-3 -7l-107 -122q-8 -9 -17 -9z"/>
<glyph glyph-name="Dcaron" unicode="Ď" horiz-adv-x="604" d="M115 57q-1 -6 4 -6h147q133 0 184 105q24 50 46 162t22 175q0 70 -36.5 103t-112.5 33h-147q-6 0 -7 -6zM54 10l116 660q2 10 11 10h205q184 0 184 -178q0 -70 -23 -191.5t-52 -179.5q-34 -70 -88.5 -100.5t-139.5 -30.5h-205q-10 0 -8 10zM388 754h-20q-8 0 -13 9 l-66 122q-2 4 -0.5 7t5.5 3h19q10 0 15 -9l53 -90h2l86 90q8 9 18 9h22q5 0 6 -3t-3 -7l-107 -122q-8 -9 -17 -9z"/>
<glyph glyph-name="dcaron" unicode="ď" horiz-adv-x="509" d="M206 38q92 0 138 92q12 23 25.5 91t13.5 107q0 51 -27.5 81t-78.5 30q-89 0 -133 -88q-18 -36 -30 -95t-12 -103q0 -115 104 -115zM372 0h-32q-10 0 -8 10l10 57h-1q-54 -77 -151 -77q-68 0 -103.5 41t-35.5 114q0 55 15.5 124t33.5 106q55 112 174 112q50 0 82 -22.5 t45 -58.5h1l46 264q2 10 11 10h31q11 0 9 -10l-116 -660q-2 -10 -11 -10zM543 538q-9 0 -7 10l21 122q2 10 11 10h36q10 0 8 -10l-8 -46q-3 -14 -8 -21l-40 -57q-6 -8 -13 -8z"/>
<glyph glyph-name="Dcroat" unicode="Đ" horiz-adv-x="604" d="M266 51q133 0 184 105q24 50 46 162t22 175q0 70 -36.5 103t-112.5 33h-147q-6 0 -7 -6l-45 -249q-2 -6 5 -6h126q10 0 8 -10l-4 -25q-1 -10 -12 -10h-125q-6 0 -7 -6l-46 -260q-1 -6 4 -6h147zM267 0h-205q-10 0 -8 10l54 307q2 6 -4 6h-39q-10 0 -8 10l4 25q1 10 12 10 h38q5 0 7 6l52 296q2 10 11 10h205q184 0 184 -178q0 -70 -23 -191.5t-52 -179.5q-34 -70 -88.5 -100.5t-139.5 -30.5z"/>
<glyph glyph-name="dcroat" unicode="đ" horiz-adv-x="509" d="M206 38q92 0 138 92q12 23 25.5 91t13.5 107q0 51 -27.5 81t-78.5 30q-89 0 -133 -88q-18 -36 -30 -95t-12 -103q0 -115 104 -115zM371 0h-31q-10 0 -8 10l10 57h-1q-54 -77 -152 -77q-67 0 -103 41t-36 114q0 55 15.5 124t33.5 106q55 112 175 112q50 0 82 -22.5 t45 -58.5h1l27 153q1 6 -5 6h-126q-10 0 -8 10l4 24q2 9 12 9h125q5 0 7 6l10 56q2 10 10 10h32q10 0 8 -10l-10 -56q-2 -6 5 -6h29q11 0 9 -10l-5 -24q-2 -9 -12 -9h-28q-6 0 -7 -6l-97 -549q-2 -10 -11 -10z"/>
<glyph glyph-name="Emacron" unicode="Ē" horiz-adv-x="535" d="M54 10l116 660q2 10 11 10h373q10 0 8 -10l-5 -31q-1 -10 -12 -10h-323q-6 0 -7 -6l-43 -246q-1 -7 5 -7h277q10 0 8 -10l-5 -30q-1 -10 -12 -10h-277q-6 0 -7 -6l-46 -257q-1 -6 5 -6h323q10 0 8 -10l-5 -31q-1 -10 -12 -10h-372q-10 0 -8 10zM506 802h-234q-10 0 -8 10 l4 23q1 10 11 10h233q10 0 8 -10l-3 -23q-2 -10 -11 -10z"/>
<glyph glyph-name="emacron" unicode="ē" horiz-adv-x="476" d="M425 622h-234q-10 0 -8 10l4 22q1 10 11 10h234q10 0 8 -10l-4 -22q-1 -10 -11 -10zM121 270h252q5 0 7 6q6 27 6 51q0 113 -106 113q-95 0 -139 -90q-16 -32 -24 -74q-1 -6 4 -6zM206 -10q-75 0 -115 41.5t-40 117.5q0 127 44 215q59 123 191 123q67 0 107.5 -41 t40.5 -116q0 -38 -10 -93q-2 -10 -12 -10h-299q-5 0 -7 -6q-6 -26 -6 -66q0 -117 113 -117q81 0 141 64q7 7 14 2l17 -19q6 -8 -1 -15q-71 -80 -178 -80z"/>
<glyph glyph-name="Ebreve" unicode="Ĕ" horiz-adv-x="535" d="M54 10l116 660q2 10 11 10h373q10 0 8 -10l-5 -31q-1 -10 -12 -10h-323q-6 0 -7 -6l-43 -246q-1 -7 5 -7h277q10 0 8 -10l-5 -30q-1 -10 -12 -10h-277q-6 0 -7 -6l-46 -257q-1 -6 5 -6h323q10 0 8 -10l-5 -31q-1 -10 -12 -10h-372q-10 0 -8 10zM383 769q-47 0 -74 27.5 t-27 72.5q0 12 10 12h16q9 0 11 -10q5 -62 70 -62q64 0 93 62q5 10 13 10h17q10 0 7 -10q-15 -46 -51.5 -74t-84.5 -28z"/>
<glyph glyph-name="ebreve" unicode="ĕ" horiz-adv-x="476" d="M300 572q-47 0 -74 27.5t-27 72.5q0 12 10 12h16q9 0 11 -10q5 -62 70 -62q64 0 93 62q5 10 13 10h17q10 0 7 -10q-15 -46 -51.5 -74t-84.5 -28zM121 270h252q5 0 7 6q6 27 6 51q0 113 -106 113q-95 0 -139 -90q-16 -32 -24 -74q-1 -6 4 -6zM206 -10q-75 0 -115 41.5 t-40 117.5q0 127 44 215q59 123 191 123q67 0 107.5 -41t40.5 -116q0 -38 -10 -93q-2 -10 -12 -10h-299q-5 0 -7 -6q-6 -26 -6 -66q0 -117 113 -117q81 0 141 64q7 7 14 2l17 -19q6 -8 -1 -15q-71 -80 -178 -80z"/>
<glyph glyph-name="Edotaccent" unicode="Ė" horiz-adv-x="535" d="M54 10l116 660q2 10 11 10h373q10 0 8 -10l-5 -31q-1 -10 -12 -10h-323q-6 0 -7 -6l-43 -246q-1 -7 5 -7h277q10 0 8 -10l-5 -30q-1 -10 -12 -10h-277q-6 0 -7 -6l-46 -257q-1 -6 5 -6h323q10 0 8 -10l-5 -31q-1 -10 -12 -10h-372q-10 0 -8 10zM411 787h-42q-10 0 -8 10 l9 54q2 10 11 10h42q10 0 8 -10l-9 -54q-2 -10 -11 -10z"/>
<glyph glyph-name="edotaccent" unicode="ė" horiz-adv-x="476" d="M327 607h-42q-10 0 -8 10l10 53q2 10 11 10h41q10 0 8 -10l-9 -53q-2 -10 -11 -10zM121 270h252q5 0 7 6q6 27 6 51q0 113 -106 113q-95 0 -139 -90q-16 -32 -24 -74q-1 -6 4 -6zM206 -10q-75 0 -115 41.5t-40 117.5q0 127 44 215q59 123 191 123q67 0 107.5 -41 t40.5 -116q0 -38 -10 -93q-2 -10 -12 -10h-299q-5 0 -7 -6q-6 -26 -6 -66q0 -117 113 -117q81 0 141 64q7 7 14 2l17 -19q6 -8 -1 -15q-71 -80 -178 -80z"/>
<glyph glyph-name="Eogonek" unicode="Ę" horiz-adv-x="535" d="M339 -170q-25 0 -40.5 14.5t-15.5 40.5q0 30 20.5 56t68.5 59h-310q-10 0 -8 10l116 660q2 10 11 10h373q10 0 8 -10l-5 -31q-1 -10 -12 -10h-323q-6 0 -7 -6l-43 -246q-1 -7 5 -7h277q10 0 8 -10l-5 -30q-1 -10 -12 -10h-277q-6 0 -7 -6l-46 -257q-1 -6 5 -6h323 q10 0 8 -10l-5 -31q-1 -10 -12 -10h-7q-56 -38 -77.5 -61t-21.5 -43q0 -23 24 -23q14 0 30 9q7 5 11 -2l6 -20q2 -6 -5 -13q-25 -17 -55 -17z"/>
<glyph glyph-name="eogonek" unicode="ę" horiz-adv-x="476" d="M121 270h252q5 0 7 6q6 27 6 51q0 113 -106 113q-95 0 -139 -90q-16 -32 -24 -74q-1 -6 4 -6zM247 -170q-25 0 -40.5 14.5t-15.5 39.5q0 50 68 113q-22 -7 -53 -7q-75 0 -115 41.5t-40 117.5q0 127 44 215q59 123 191 123q67 0 107.5 -41t40.5 -116q0 -38 -10 -93 q-2 -10 -12 -10h-299q-5 0 -7 -6q-6 -26 -6 -66q0 -117 113 -117q81 0 141 64q7 7 14 2l17 -19q6 -8 -1 -15q-24 -26 -46 -40q-101 -92 -101 -134q0 -23 24 -23q13 0 29 9q8 5 11 -2l7 -20q2 -6 -6 -13q-25 -17 -55 -17z"/>
<glyph glyph-name="Ecaron" unicode="Ě" horiz-adv-x="535" d="M54 10l116 660q2 10 11 10h373q10 0 8 -10l-5 -31q-1 -10 -12 -10h-323q-6 0 -7 -6l-43 -246q-1 -7 5 -7h277q10 0 8 -10l-5 -30q-1 -10 -12 -10h-277q-6 0 -7 -6l-46 -257q-1 -6 5 -6h323q10 0 8 -10l-5 -31q-1 -10 -12 -10h-372q-10 0 -8 10zM393 754h-20q-9 0 -13 9 l-66 122q-2 4 -0.5 7t5.5 3h19q10 0 15 -9l53 -90h2l86 90q8 9 18 9h22q5 0 6 -3t-3 -7l-107 -122q-8 -9 -17 -9z"/>
<glyph glyph-name="ecaron" unicode="ě" horiz-adv-x="476" d="M121 270h252q5 0 7 6q6 27 6 51q0 113 -106 113q-95 0 -139 -90q-16 -32 -24 -74q-1 -6 4 -6zM206 -10q-75 0 -115 41.5t-40 117.5q0 127 44 215q59 123 191 123q67 0 107.5 -41t40.5 -116q0 -38 -10 -93q-2 -10 -12 -10h-299q-5 0 -7 -6q-6 -26 -6 -66q0 -117 113 -117 q81 0 141 64q7 7 14 2l17 -19q6 -8 -1 -15q-71 -80 -178 -80zM307 559h-20q-9 0 -13 9l-65 122q-6 10 4 10h20q9 0 15 -10l52 -90h2l86 90q9 10 19 10h22q4 0 5 -3t-3 -7l-107 -122q-8 -9 -17 -9z"/>
<glyph glyph-name="Gcircumflex" unicode="Ĝ" horiz-adv-x="584" d="M498 755h-19q-10 0 -16 9l-52 91h-2l-86 -91q-8 -9 -18 -9h-23q-4 0 -5 3t3 7l107 122q8 9 17 9h20q8 0 13 -9l65 -122q6 -10 -4 -10zM65 183q0 64 22.5 183.5t49.5 173.5q72 150 238 150q65 0 114.5 -33t67.5 -93q1 -9 -6 -12l-29 -13q-9 -3 -11 4q-36 96 -145 96 q-123 0 -180 -116q-25 -52 -46.5 -163.5t-21.5 -170.5q0 -71 36.5 -109.5t105.5 -38.5q123 0 180 115q28 56 40 133q2 6 -5 6h-149q-10 0 -8 10l5 30q1 9 10 9h200q9 0 7 -10l-7 -41q-15 -94 -43 -153q-38 -78 -96 -114t-142 -36q-87 0 -137 50.5t-50 142.5z"/>
<glyph glyph-name="gcircumflex" unicode="ĝ" horiz-adv-x="501" d="M206 45q86 0 128 85q16 31 29 95.5t13 102.5q0 50 -26 80.5t-76 30.5q-85 0 -128 -87q-43 -86 -43 -196q0 -111 103 -111zM164 -190q-98 0 -140 73q-6 9 3 15l23 18q9 4 14 -3q39 -55 106 -55q129 0 155 152l11 63h-1q-47 -76 -146 -76q-66 0 -101.5 40t-35.5 110 q0 49 13 115.5t35 110.5q56 114 172 114q49 0 80 -22.5t42 -58.5h1l10 61q2 10 12 10h30q10 0 8 -10l-80 -456q-20 -108 -72 -154.5t-139 -46.5zM420 559h-20q-9 0 -15 9l-52 91h-2l-86 -91q-9 -9 -19 -9h-22q-4 0 -5 3t3 7l107 122q8 9 17 9h20q8 0 13 -9l65 -122 q6 -10 -4 -10z"/>
<glyph glyph-name="Gbreve" unicode="Ğ" horiz-adv-x="584" d="M65 183q0 64 22.5 183.5t49.5 173.5q72 150 238 150q65 0 114.5 -33t67.5 -93q1 -9 -6 -12l-29 -13q-9 -3 -11 4q-36 96 -145 96q-123 0 -180 -116q-25 -52 -46.5 -163.5t-21.5 -170.5q0 -71 36.5 -109.5t105.5 -38.5q123 0 180 115q28 56 40 133q2 6 -5 6h-149 q-10 0 -8 10l5 30q1 9 10 9h200q9 0 7 -10l-7 -41q-15 -94 -43 -153q-38 -78 -96 -114t-142 -36q-87 0 -137 50.5t-50 142.5zM393 769q-47 0 -74 27.5t-27 72.5q0 12 10 12h16q9 0 11 -10q5 -62 70 -62q64 0 93 62q5 10 13 10h17q10 0 7 -10q-15 -46 -51.5 -74t-84.5 -28z "/>
<glyph glyph-name="gbreve" unicode="ğ" horiz-adv-x="501" d="M314 572q-47 0 -74 27.5t-27 72.5q0 12 10 12h16q9 0 11 -10q5 -62 70 -62q64 0 93 62q5 10 13 10h17q10 0 7 -10q-15 -46 -51.5 -74t-84.5 -28zM206 45q86 0 128 85q16 31 29 95.5t13 102.5q0 50 -26 80.5t-76 30.5q-85 0 -128 -87q-43 -86 -43 -196q0 -111 103 -111z M164 -190q-98 0 -140 73q-6 9 3 15l23 18q9 4 14 -3q39 -55 106 -55q129 0 155 152l11 63h-1q-47 -76 -146 -76q-66 0 -101.5 40t-35.5 110q0 49 13 115.5t35 110.5q56 114 172 114q49 0 80 -22.5t42 -58.5h1l10 61q2 10 12 10h30q10 0 8 -10l-80 -456q-20 -108 -72 -154.5 t-139 -46.5z"/>
<glyph glyph-name="Gdotaccent" unicode="Ġ" horiz-adv-x="584" d="M65 183q0 64 22.5 183.5t49.5 173.5q72 150 238 150q65 0 114.5 -33t67.5 -93q1 -9 -6 -12l-29 -13q-9 -3 -11 4q-36 96 -145 96q-123 0 -180 -116q-25 -52 -46.5 -163.5t-21.5 -170.5q0 -71 36.5 -109.5t105.5 -38.5q123 0 180 115q28 56 40 133q2 6 -5 6h-149 q-10 0 -8 10l5 30q1 9 10 9h200q9 0 7 -10l-7 -41q-15 -94 -43 -153q-38 -78 -96 -114t-142 -36q-87 0 -137 50.5t-50 142.5zM416 787h-42q-10 0 -8 10l9 54q2 10 11 10h42q10 0 8 -10l-9 -54q-2 -10 -11 -10z"/>
<glyph glyph-name="gdotaccent" unicode="ġ" horiz-adv-x="501" d="M341 607h-42q-10 0 -8 10l10 53q2 10 11 10h41q10 0 8 -10l-9 -53q-2 -10 -11 -10zM206 45q86 0 128 85q16 31 29 95.5t13 102.5q0 50 -26 80.5t-76 30.5q-85 0 -128 -87q-43 -86 -43 -196q0 -111 103 -111zM164 -190q-98 0 -140 73q-6 9 3 15l23 18q9 4 14 -3 q39 -55 106 -55q129 0 155 152l11 63h-1q-47 -76 -146 -76q-66 0 -101.5 40t-35.5 110q0 49 13 115.5t35 110.5q56 114 172 114q49 0 80 -22.5t42 -58.5h1l10 61q2 10 12 10h30q10 0 8 -10l-80 -456q-20 -108 -72 -154.5t-139 -46.5z"/>
<glyph glyph-name="Gcommaaccent" unicode="Ģ" horiz-adv-x="584" d="M65 183q0 64 22.5 183.5t49.5 173.5q72 150 238 150q65 0 114.5 -33t67.5 -93q1 -9 -6 -12l-29 -13q-9 -3 -11 4q-36 96 -145 96q-123 0 -180 -116q-25 -52 -46.5 -163.5t-21.5 -170.5q0 -71 36.5 -109.5t105.5 -38.5q123 0 180 115q28 56 40 133q2 6 -5 6h-149 q-10 0 -8 10l5 30q1 9 10 9h200q9 0 7 -10l-7 -41q-15 -94 -43 -153q-38 -78 -96 -114t-142 -36q-87 0 -137 50.5t-50 142.5zM204 -196q-10 0 -8 10l21 121q2 10 12 10h35q10 0 8 -10l-7 -45q-2 -9 -9 -22l-40 -56q-6 -8 -12 -8z"/>
<glyph glyph-name="gcommaaccent" unicode="ģ" horiz-adv-x="501" d="M206 45q86 0 128 85q16 31 29 95.5t13 102.5q0 50 -26 80.5t-76 30.5q-85 0 -128 -87q-43 -86 -43 -196q0 -111 103 -111zM164 -190q-98 0 -140 73q-6 9 3 15l23 18q9 4 14 -3q39 -55 106 -55q129 0 155 152l11 63h-1q-47 -76 -146 -76q-66 0 -101.5 40t-35.5 110 q0 49 13 115.5t35 110.5q56 114 172 114q49 0 80 -22.5t42 -58.5h1l10 61q2 10 12 10h30q10 0 8 -10l-80 -456q-20 -108 -72 -154.5t-139 -46.5zM331 573h-36q-10 0 -8 10l8 45q3 13 8 21l41 56q5 8 12 8q8 0 7 -9l-21 -121q-2 -10 -11 -10z"/>
<glyph glyph-name="Hcircumflex" unicode="Ĥ" horiz-adv-x="624" d="M512 755h-19q-10 0 -16 9l-52 91h-2l-86 -91q-8 -9 -18 -9h-23q-4 0 -5 3t3 7l107 122q8 9 17 9h20q8 0 13 -9l65 -122q6 -10 -4 -10zM54 10l116 660q2 10 11 10h34q10 0 8 -10l-52 -294q-1 -6 5 -6h325q5 0 7 6l52 294q2 10 11 10h34q10 0 8 -10l-116 -660 q-2 -10 -11 -10h-34q-10 0 -8 10l53 304q1 6 -4 6h-325q-6 0 -7 -6l-54 -304q-2 -10 -11 -10h-34q-10 0 -8 10z"/>
<glyph glyph-name="hcircumflex" unicode="ĥ" horiz-adv-x="519" d="M467 755h-19q-10 0 -16 9l-52 91h-2l-86 -91q-8 -9 -18 -9h-23q-4 0 -5 3t3 7l107 122q8 9 17 9h20q9 0 13 -9l65 -122q6 -10 -4 -10zM387 0h-32q-9 0 -7 10l51 282q5 30 5 48q0 99 -100 99q-51 0 -95 -37.5t-55 -97.5l-52 -294q-2 -10 -10 -10h-33q-9 0 -7 10l116 660 q2 10 11 10h32q10 0 8 -10l-46 -258h1q52 75 149 75q65 0 99.5 -34.5t34.5 -98.5q0 -19 -5 -49l-54 -295q-2 -10 -11 -10z"/>
<glyph glyph-name="Hbar" unicode="Ħ" horiz-adv-x="624" d="M501 370q5 0 7 6l21 118q1 6 -5 6h-326q-4 0 -6 -6l-21 -118q-1 -6 5 -6h325zM486 0h-34q-10 0 -8 10l53 304q1 6 -4 6h-325q-6 0 -7 -6l-54 -304q-2 -10 -11 -10h-34q-10 0 -8 10l85 484q1 6 -4 6h-38q-10 0 -8 10l4 24q2 10 11 10h37q5 0 7 6l22 120q2 10 11 10h34 q10 0 8 -10l-22 -120q-1 -6 5 -6h326q6 0 7 6l21 120q2 10 11 10h34q10 0 8 -10l-21 -120q-2 -6 4 -6h38q9 0 7 -10l-3 -24q-2 -10 -12 -10h-38q-4 0 -6 -6l-85 -484q-2 -10 -11 -10z"/>
<glyph glyph-name="hbar" unicode="ħ" horiz-adv-x="519" d="M387 0h-32q-9 0 -7 10l51 282q5 30 5 48q0 99 -100 99q-51 0 -95 -37.5t-55 -97.5l-52 -294q-2 -10 -10 -10h-33q-9 0 -7 10l97 549q1 6 -5 6h-29q-11 0 -9 10l5 24q1 9 12 9h28q5 0 7 6l10 56q2 10 11 10h32q10 0 8 -10l-11 -56q-2 -6 5 -6h126q10 0 8 -10l-4 -24 q-1 -9 -12 -9h-125q-6 0 -7 -6l-26 -147h1q52 75 149 75q65 0 99.5 -34.5t34.5 -98.5q0 -19 -5 -49l-54 -295q-2 -10 -11 -10z"/>
<glyph glyph-name="Itilde" unicode="Ĩ" horiz-adv-x="234" d="M275 784q-27 0 -54 20q-23 18 -44 18q-28 0 -61 -33q-3 -3 -6 -1.5t-2 4.5l4 30q1 8 10 15q28 28 64 28q26 0 54 -21q25 -18 44 -18q27 0 62 33q3 3 6 2t2 -5l-5 -29q-1 -9 -10 -16q-29 -27 -64 -27zM54 10l116 660q2 10 11 10h34q10 0 8 -10l-116 -660q-2 -10 -11 -10 h-34q-10 0 -8 10z"/>
<glyph glyph-name="itilde" unicode="ĩ" horiz-adv-x="228" d="M222 598q-26 0 -54 21q-27 18 -44 18q-27 0 -62 -33q-3 -3 -6 -2t-2 5l5 29q1 8 9 16q30 27 65 27q27 0 54 -20q23 -18 44 -18q28 0 61 33q3 3 6 1.5t2 -4.5l-4 -30q-3 -9 -10 -15q-30 -28 -64 -28zM92 0h-32q-10 0 -8 10l80 457q2 10 11 10h32q10 0 8 -10l-81 -457 q-2 -10 -10 -10z"/>
<glyph glyph-name="Imacron" unicode="Ī" horiz-adv-x="234" d="M344 802h-234q-10 0 -8 10l4 23q1 10 11 10h233q10 0 8 -10l-3 -23q-2 -10 -11 -10zM54 10l116 660q2 10 11 10h34q10 0 8 -10l-116 -660q-2 -10 -11 -10h-34q-10 0 -8 10z"/>
<glyph glyph-name="imacron" unicode="ī" horiz-adv-x="228" d="M292 622h-234q-10 0 -8 10l4 22q1 10 11 10h234q10 0 8 -10l-4 -22q-1 -10 -11 -10zM92 0h-32q-10 0 -8 10l80 457q2 10 11 10h32q10 0 8 -10l-81 -457q-2 -10 -10 -10z"/>
<glyph glyph-name="Ibreve" unicode="Ĭ" horiz-adv-x="234" d="M222 769q-47 0 -74 27.5t-27 72.5q0 12 10 12h16q9 0 11 -10q5 -62 70 -62q64 0 93 62q5 10 13 10h17q10 0 7 -10q-15 -46 -51.5 -74t-84.5 -28zM54 10l116 660q2 10 11 10h34q10 0 8 -10l-116 -660q-2 -10 -11 -10h-34q-10 0 -8 10z"/>
<glyph glyph-name="ibreve" unicode="ĭ" horiz-adv-x="228" d="M176 572q-47 0 -74 27.5t-27 72.5q0 12 10 12h16q9 0 11 -10q5 -62 70 -62q64 0 93 62q5 10 13 10h17q10 0 7 -10q-15 -46 -51.5 -74t-84.5 -28zM92 0h-32q-10 0 -8 10l80 457q2 10 11 10h32q10 0 8 -10l-81 -457q-2 -10 -10 -10z"/>
<glyph glyph-name="Iogonek" unicode="Į" horiz-adv-x="234" d="M31 -170q-25 0 -40.5 14.5t-15.5 39.5q0 50 81 120h-1q-2 0 -2 3l117 663q2 10 11 10h34q10 0 8 -10l-116 -660q-1 -4 -7 -10q-79 -71 -79 -104q0 -23 24 -23q14 0 29 9q8 5 12 -2l6 -20q2 -6 -6 -13q-25 -17 -55 -17z"/>
<glyph glyph-name="iogonek" unicode="į" horiz-adv-x="228" d="M28 -170q-25 0 -40.5 14.5t-15.5 39.5q0 27 18.5 54.5t62.5 66.5q-1 1 -1 4l80 458q2 10 11 10h32q10 0 8 -10l-81 -457q-1 -5 -5 -9q-80 -71 -80 -105q0 -23 24 -23q13 0 30 9q7 5 11 -2l6 -20q2 -6 -5 -13q-25 -17 -55 -17zM203 607h-41q-10 0 -8 10l10 53q2 10 11 10 h41q10 0 8 -10l-10 -53q-1 -10 -11 -10z"/>
<glyph glyph-name="Idotaccent" unicode="İ" horiz-adv-x="234" d="M237 787h-42q-10 0 -8 10l9 54q2 10 11 10h42q10 0 8 -10l-9 -54q-2 -10 -11 -10zM54 10l116 660q2 10 11 10h34q10 0 8 -10l-116 -660q-2 -10 -11 -10h-34q-10 0 -8 10z"/>
<glyph glyph-name="dotlessi" unicode="ı" horiz-adv-x="228" d="M92 0h-32q-10 0 -8 10l80 457q2 10 11 10h32q10 0 8 -10l-81 -457q-2 -10 -10 -10z"/>
<glyph glyph-name="Jcircumflex" unicode="Ĵ" horiz-adv-x="459" d="M544 755h-19q-10 0 -16 9l-52 91h-2l-86 -91q-8 -9 -18 -9h-23q-4 0 -5 3t3 7l107 122q8 9 17 9h20q8 0 13 -9l65 -122q6 -10 -4 -10zM11 48q-8 8 2 14l25 20q8 6 15 -1q47 -40 97 -40q135 0 164 162l82 467q2 10 11 10h34q10 0 8 -10l-83 -469q-20 -113 -75.5 -162 t-145.5 -49q-39 0 -75.5 16.5t-58.5 41.5z"/>
<glyph glyph-name="jcircumflex" unicode="ĵ" horiz-adv-x="228" d="M279 559h-20q-9 0 -15 9l-52 91h-2l-86 -91q-9 -9 -19 -9h-22q-4 0 -5 3t3 7l107 122q8 9 17 9h20q9 0 13 -9l65 -122q6 -10 -4 -10zM-48 -180h-10q-10 0 -8 10l4 28q1 10 12 10h8q40 0 57 15.5t25 60.5l92 523q2 10 11 10h32q10 0 8 -10l-92 -523q-13 -72 -42.5 -98 t-96.5 -26z"/>
<glyph glyph-name="Kcommaaccent" unicode="Ķ" horiz-adv-x="574" d="M54 10l116 660q2 10 11 10h34q10 0 8 -10l-68 -388l379 389q10 9 19 9h43q4 0 5 -3.5t-2 -7.5l-256 -259l151 -399q4 -11 -7 -11h-35q-9 0 -12 9l-135 360l-165 -168l-33 -191q-2 -10 -11 -10h-34q-10 0 -8 10zM199 -196q-10 0 -8 10l21 121q2 10 12 10h35q10 0 8 -10 l-7 -45q-2 -9 -9 -22l-40 -56q-6 -8 -12 -8z"/>
<glyph glyph-name="kcommaaccent" unicode="ķ" horiz-adv-x="480" d="M395 0h-32q-9 0 -14 10l-103 253l-121 -125l-23 -128q-2 -10 -11 -10h-32q-9 0 -7 10l116 660q2 10 11 10h32q10 0 8 -10l-81 -454l249 251q10 10 18 10h41q5 0 6 -3.5t-3 -6.5l-165 -168l119 -289q1 -4 -1 -7t-7 -3zM179 -196q-10 0 -8 10l21 121q2 10 12 10h35 q10 0 8 -10l-7 -45q-2 -9 -9 -22l-40 -56q-6 -8 -12 -8z"/>
<glyph glyph-name="kgreenlandic" unicode="ĸ" horiz-adv-x="480" d="M395 0h-32q-9 0 -14 10l-103 253l-121 -125l-23 -128q-2 -10 -11 -10h-32q-9 0 -7 10l80 457q2 10 11 10h32q10 0 8 -10l-45 -251l249 251q10 10 18 10h41q5 0 6 -3.5t-3 -6.5l-165 -168l119 -289q1 -4 -1 -7t-7 -3z"/>
<glyph glyph-name="Lacute" unicode="Ĺ" horiz-adv-x="507" d="M54 10l116 660q2 10 11 10h34q10 0 8 -10l-108 -613q-1 -6 4 -6h324q10 0 8 -10l-5 -31q-2 -10 -11 -10h-373q-10 0 -8 10zM241 764h-24q-11 0 -2 11l94 103q10 10 19 10h36q5 0 6 -3t-3 -7l-107 -104q-10 -10 -19 -10z"/>
<glyph glyph-name="lacute" unicode="ĺ" horiz-adv-x="250" d="M164 -3h-22q-78 0 -78 71q0 10 4 38l103 564q2 10 10 10h32q10 0 8 -10l-103 -563q-3 -15 -3 -26q0 -20 9.5 -28t31.5 -8h16q10 0 8 -10l-4 -28q-1 -10 -12 -10zM224 764h-24q-11 0 -2 11l94 103q10 10 19 10h36q5 0 6 -3t-3 -7l-107 -104q-10 -10 -19 -10z"/>
<glyph glyph-name="Lcommaaccent" unicode="Ļ" horiz-adv-x="507" d="M54 10l116 660q2 10 11 10h34q10 0 8 -10l-108 -613q-1 -6 4 -6h324q10 0 8 -10l-5 -31q-2 -10 -11 -10h-373q-10 0 -8 10zM210 -196q-10 0 -8 10l21 121q2 10 12 10h35q10 0 8 -10l-7 -45q-2 -9 -9 -22l-40 -56q-6 -8 -12 -8z"/>
<glyph glyph-name="lcommaaccent" unicode="ļ" horiz-adv-x="250" d="M164 -3h-22q-78 0 -78 71q0 10 4 38l103 564q2 10 10 10h32q10 0 8 -10l-103 -563q-3 -15 -3 -26q0 -20 9.5 -28t31.5 -8h16q10 0 8 -10l-4 -28q-1 -10 -12 -10zM58 -196q-10 0 -8 10l21 121q2 10 12 10h35q10 0 8 -10l-7 -45q-2 -9 -9 -22l-40 -56q-6 -8 -12 -8z"/>
<glyph glyph-name="Lcaron" unicode="Ľ" horiz-adv-x="507" d="M54 10l116 660q2 10 11 10h34q10 0 8 -10l-108 -613q-1 -6 4 -6h324q10 0 8 -10l-5 -31q-2 -10 -11 -10h-373q-10 0 -8 10zM300 538q-9 0 -7 10l21 122q2 10 11 10h36q10 0 8 -10l-8 -46q-3 -14 -8 -21l-40 -57q-6 -8 -13 -8z"/>
<glyph glyph-name="lcaron" unicode="ľ" horiz-adv-x="250" d="M164 -3h-22q-78 0 -78 71q0 10 4 38l103 564q2 10 10 10h32q10 0 8 -10l-103 -563q-3 -15 -3 -26q0 -20 9.5 -28t31.5 -8h16q10 0 8 -10l-4 -28q-1 -10 -12 -10zM265 538q-9 0 -7 10l21 122q2 10 11 10h36q10 0 8 -10l-8 -46q-3 -14 -8 -21l-40 -57q-6 -8 -13 -8z"/>
<glyph glyph-name="Ldot" unicode="Ŀ" horiz-adv-x="507" d="M395 283h-46q-10 0 -8 10l11 65q2 10 11 10h45q10 0 8 -10l-10 -65q-2 -10 -11 -10zM54 10l116 660q2 10 11 10h34q10 0 8 -10l-108 -613q-1 -6 4 -6h324q10 0 8 -10l-5 -31q-2 -10 -11 -10h-373q-10 0 -8 10z"/>
<glyph glyph-name="ldot" unicode="ŀ" horiz-adv-x="267" d="M283 287h-46q-10 0 -8 10l11 65q2 10 11 10h45q10 0 8 -10l-10 -65q-2 -10 -11 -10zM164 -3h-22q-78 0 -78 71q0 10 4 38l103 564q2 10 10 10h32q10 0 8 -10l-103 -563q-3 -15 -3 -26q0 -20 9.5 -28t31.5 -8h16q10 0 8 -10l-4 -28q-1 -10 -12 -10z"/>
<glyph glyph-name="Lslash" unicode="Ł" horiz-adv-x="507" d="M329 403l-168 -82l-46 -264q-1 -6 4 -6h324q10 0 8 -10l-5 -31q-2 -10 -11 -10h-373q-10 0 -8 10l50 283l-60 -29q-4 -2 -7 -0.5t-2 6.5l6 32q2 9 11 14l61 30l57 324q2 10 11 10h34q10 0 8 -10l-52 -296l166 81q4 2 7 0.5t2 -6.5l-6 -33q-1 -8 -11 -13z"/>
<glyph glyph-name="lslash" unicode="ł" horiz-adv-x="250" d="M164 -3h-22q-78 0 -78 71q0 10 4 38l40 219l-41 -20q-5 -2 -8 -0.5t-2 6.5l4 28q1 10 13 15l43 21l54 295q2 10 10 10h32q10 0 8 -10l-49 -268l59 29q5 2 8 0.5t2 -6.5l-4 -28q-2 -10 -12 -15l-62 -31l-45 -244q-3 -15 -3 -26q0 -20 9.5 -28t31.5 -8h16q10 0 8 -10 l-4 -28q-1 -10 -12 -10z"/>
<glyph glyph-name="Nacute" unicode="Ń" horiz-adv-x="625" d="M54 10l116 660q2 10 11 10h32q9 0 13 -10l234 -567h2l102 567q2 10 11 10h31q10 0 8 -10l-116 -660q-2 -10 -11 -10h-31q-10 0 -14 10l-235 568h-2l-101 -568q-2 -10 -11 -10h-31q-10 0 -8 10zM401 764h-24q-11 0 -2 11l94 103q10 10 19 10h36q5 0 6 -3t-3 -7l-107 -104 q-10 -10 -19 -10z"/>
<glyph glyph-name="nacute" unicode="ń" horiz-adv-x="519" d="M387 0h-32q-9 0 -7 10l51 282q5 30 5 48q0 99 -100 99q-51 0 -95 -37.5t-55 -97.5l-52 -294q-2 -10 -10 -10h-33q-9 0 -7 10l80 457q2 10 11 10h32q10 0 8 -10l-10 -55h1q52 75 149 75q65 0 99.5 -34.5t34.5 -98.5q0 -19 -5 -49l-54 -295q-2 -10 -11 -10zM303 558h-22 q-11 0 -3 10l92 122q8 10 19 10h34q5 0 6 -3t-2 -7l-106 -122q-10 -10 -18 -10z"/>
<glyph glyph-name="Ncommaaccent" unicode="Ņ" horiz-adv-x="625" d="M54 10l116 660q2 10 11 10h32q9 0 13 -10l234 -567h2l102 567q2 10 11 10h31q10 0 8 -10l-116 -660q-2 -10 -11 -10h-31q-10 0 -14 10l-235 568h-2l-101 -568q-2 -10 -11 -10h-31q-10 0 -8 10zM239 -196q-10 0 -8 10l21 121q2 10 12 10h35q10 0 8 -10l-7 -45 q-2 -9 -9 -22l-40 -56q-6 -8 -12 -8z"/>
<glyph glyph-name="ncommaaccent" unicode="ņ" horiz-adv-x="519" d="M387 0h-32q-9 0 -7 10l51 282q5 30 5 48q0 99 -100 99q-51 0 -95 -37.5t-55 -97.5l-52 -294q-2 -10 -10 -10h-33q-9 0 -7 10l80 457q2 10 11 10h32q10 0 8 -10l-10 -55h1q52 75 149 75q65 0 99.5 -34.5t34.5 -98.5q0 -19 -5 -49l-54 -295q-2 -10 -11 -10zM182 -196 q-10 0 -8 10l21 121q2 10 12 10h35q10 0 8 -10l-7 -45q-2 -9 -9 -22l-40 -56q-6 -8 -12 -8z"/>
<glyph glyph-name="Ncaron" unicode="Ň" horiz-adv-x="625" d="M54 10l116 660q2 10 11 10h32q9 0 13 -10l234 -567h2l102 567q2 10 11 10h31q10 0 8 -10l-116 -660q-2 -10 -11 -10h-31q-10 0 -14 10l-235 568h-2l-101 -568q-2 -10 -11 -10h-31q-10 0 -8 10zM414 754h-20q-8 0 -13 9l-66 122q-2 4 -0.5 7t5.5 3h19q10 0 15 -9l53 -90h2 l86 90q8 9 18 9h22q5 0 6 -3t-3 -7l-107 -122q-8 -9 -17 -9z"/>
<glyph glyph-name="ncaron" unicode="ň" horiz-adv-x="519" d="M387 0h-32q-9 0 -7 10l51 282q5 30 5 48q0 99 -100 99q-51 0 -95 -37.5t-55 -97.5l-52 -294q-2 -10 -10 -10h-33q-9 0 -7 10l80 457q2 10 11 10h32q10 0 8 -10l-10 -55h1q52 75 149 75q65 0 99.5 -34.5t34.5 -98.5q0 -19 -5 -49l-54 -295q-2 -10 -11 -10zM326 559h-20 q-9 0 -13 9l-65 122q-6 10 4 10h20q9 0 15 -10l52 -90h2l86 90q9 10 19 10h22q4 0 5 -3t-3 -7l-107 -122q-8 -9 -17 -9z"/>
<glyph glyph-name="Eng" unicode="Ŋ" horiz-adv-x="625" d="M325 -180h-12q-10 0 -8 10l5 31q1 10 12 10h11q46 0 71.5 22t34.5 73l7 34l-239 578h-2l-101 -568q-2 -10 -11 -10h-31q-10 0 -8 10l116 660q2 10 10 10h31q12 0 15 -10l234 -567h2l102 567q2 10 10 10h31q11 0 9 -10l-124 -701q-13 -78 -53 -113.5t-112 -35.5z"/>
<glyph glyph-name="eng" unicode="ŋ" horiz-adv-x="519" d="M248 -180h-9q-10 0 -8 10l4 28q1 10 12 10h8q39 0 56.5 15t25.5 59l62 350q5 30 5 48q0 99 -100 99q-53 0 -96.5 -38t-53.5 -97l-52 -294q-2 -10 -10 -10h-32q-10 0 -8 10l80 457q2 10 11 10h32q10 0 8 -10l-10 -55h1q53 75 149 75q65 0 99 -34.5t34 -98.5q0 -26 -4 -49 l-65 -362q-12 -68 -43.5 -95.5t-95.5 -27.5z"/>
<glyph glyph-name="Omacron" unicode="Ō" horiz-adv-x="586" d="M259 41q123 0 180 116q25 52 46.5 163.5t21.5 170.5q0 71 -36.5 109.5t-104.5 38.5q-123 0 -180 -116q-25 -52 -46.5 -163.5t-21.5 -170.5q0 -71 36 -109.5t105 -38.5zM251 -10q-88 0 -137 50.5t-49 142.5q0 64 22.5 183.5t49.5 173.5q72 150 237 150q88 0 137 -50.5 t49 -142.5q0 -64 -22.5 -183.5t-49.5 -173.5q-72 -150 -237 -150zM513 802h-234q-10 0 -8 10l4 23q1 10 11 10h233q10 0 8 -10l-3 -23q-2 -10 -11 -10z"/>
<glyph glyph-name="omacron" unicode="ō" horiz-adv-x="486" d="M391 316q0 123 -110 123q-93 0 -138 -91q-14 -28 -27.5 -87.5t-13.5 -99.5q0 -123 110 -123q93 0 138 91q14 28 27.5 87.5t13.5 99.5zM98 369q56 118 191 118q74 0 113.5 -43t39.5 -118q0 -51 -14.5 -116t-32.5 -102q-56 -118 -191 -118q-74 0 -113.5 43t-39.5 118 q0 51 14.5 116t32.5 102zM433 622h-234q-10 0 -8 10l4 22q1 10 11 10h234q10 0 8 -10l-4 -22q-1 -10 -11 -10z"/>
<glyph glyph-name="Obreve" unicode="Ŏ" horiz-adv-x="586" d="M259 41q123 0 180 116q25 52 46.5 163.5t21.5 170.5q0 71 -36.5 109.5t-104.5 38.5q-123 0 -180 -116q-25 -52 -46.5 -163.5t-21.5 -170.5q0 -71 36 -109.5t105 -38.5zM251 -10q-88 0 -137 50.5t-49 142.5q0 64 22.5 183.5t49.5 173.5q72 150 237 150q88 0 137 -50.5 t49 -142.5q0 -64 -22.5 -183.5t-49.5 -173.5q-72 -150 -237 -150zM391 769q-47 0 -74 27.5t-27 72.5q0 12 10 12h16q9 0 11 -10q5 -62 70 -62q64 0 93 62q5 10 13 10h17q10 0 7 -10q-15 -46 -51.5 -74t-84.5 -28z"/>
<glyph glyph-name="obreve" unicode="ŏ" horiz-adv-x="486" d="M317 572q-47 0 -74 27.5t-27 72.5q0 12 10 12h16q9 0 11 -10q5 -62 70 -62q64 0 93 62q5 10 13 10h17q10 0 7 -10q-15 -46 -51.5 -74t-84.5 -28zM391 316q0 123 -110 123q-93 0 -138 -91q-14 -28 -27.5 -87.5t-13.5 -99.5q0 -123 110 -123q93 0 138 91q14 28 27.5 87.5 t13.5 99.5zM98 369q56 118 191 118q74 0 113.5 -43t39.5 -118q0 -51 -14.5 -116t-32.5 -102q-56 -118 -191 -118q-74 0 -113.5 43t-39.5 118q0 51 14.5 116t32.5 102z"/>
<glyph glyph-name="Ohungarumlaut" unicode="Ő" horiz-adv-x="586" d="M342 765h-21q-4 0 -5.5 2.5t1.5 7.5l83 104q8 10 18 10h28q4 0 5.5 -3t-1.5 -7l-92 -105q-6 -9 -16 -9zM460 765h-21q-4 0 -5.5 2.5t1.5 7.5l83 104q8 10 18 10h27q5 0 6 -3t-2 -7l-91 -105q-6 -9 -16 -9zM259 41q123 0 180 116q25 52 46.5 163.5t21.5 170.5 q0 71 -36.5 109.5t-104.5 38.5q-123 0 -180 -116q-25 -52 -46.5 -163.5t-21.5 -170.5q0 -71 36 -109.5t105 -38.5zM251 -10q-88 0 -137 50.5t-49 142.5q0 64 22.5 183.5t49.5 173.5q72 150 237 150q88 0 137 -50.5t49 -142.5q0 -64 -22.5 -183.5t-49.5 -173.5 q-72 -150 -237 -150z"/>
<glyph glyph-name="ohungarumlaut" unicode="ő" horiz-adv-x="486" d="M391 316q0 123 -110 123q-93 0 -138 -91q-14 -28 -27.5 -87.5t-13.5 -99.5q0 -123 110 -123q93 0 138 91q14 28 27.5 87.5t13.5 99.5zM98 369q56 118 191 118q74 0 113.5 -43t39.5 -118q0 -51 -14.5 -116t-32.5 -102q-56 -118 -191 -118q-74 0 -113.5 43t-39.5 118 q0 51 14.5 116t32.5 102zM254 559h-21q-11 0 -4 10l86 121q6 10 17 10h28q4 0 5.5 -3t-1.5 -7l-94 -122q-6 -9 -16 -9zM372 559h-21q-11 0 -4 10l86 121q6 10 17 10h28q4 0 5.5 -3t-1.5 -7l-95 -122q-6 -9 -15 -9z"/>
<glyph glyph-name="OE" unicode="Œ" horiz-adv-x="912" d="M259 41q123 0 180 116q25 52 46.5 163.5t21.5 170.5q0 71 -36.5 109.5t-104.5 38.5q-123 0 -180 -116q-25 -52 -46.5 -163.5t-21.5 -170.5q0 -71 36 -109.5t105 -38.5zM812 0h-373q-10 0 -8 10l15 82h-1q-64 -102 -194 -102q-88 0 -137 50.5t-49 142.5q0 64 22.5 183.5 t49.5 173.5q72 150 237 150q128 0 157 -105h1l15 85q2 10 11 10h374q10 0 8 -10l-5 -31q-1 -10 -12 -10h-324q-5 0 -7 -6l-43 -246q-1 -7 6 -7h276q10 0 8 -10l-5 -30q-1 -10 -12 -10h-277q-5 0 -7 -6l-46 -257q-2 -6 5 -6h324q10 0 8 -10l-5 -31q-1 -10 -12 -10z"/>
<glyph glyph-name="oe" unicode="œ" horiz-adv-x="800" d="M212 38q93 0 138 91q14 28 27.5 87.5t13.5 99.5q0 123 -110 123q-92 0 -138 -92q-14 -28 -27.5 -87.5t-13.5 -99.5q0 -122 110 -122zM445 270h252q7 0 8 6q5 30 5 51q0 113 -106 113q-93 0 -139 -90q-17 -38 -24 -74q-1 -6 4 -6zM530 -10q-124 0 -144 108h-1 q-59 -108 -181 -108q-75 0 -114 42.5t-39 117.5q0 51 14.5 116t32.5 103q58 118 191 118q118 0 142 -108h1q28 54 75 81t103 27q67 0 107.5 -41t40.5 -116q0 -38 -10 -93q-2 -10 -12 -10h-297q-7 0 -8 -6q-6 -31 -6 -66q0 -117 112 -117q81 0 141 64q7 7 14 2l17 -19 q6 -8 -1 -15q-71 -80 -178 -80z"/>
<glyph glyph-name="Racute" unicode="Ŕ" horiz-adv-x="591" d="M361 764h-24q-11 0 -2 11l94 103q10 10 19 10h36q5 0 6 -3t-3 -7l-107 -104q-10 -10 -19 -10zM341 357q82 0 128.5 44.5t46.5 121.5q0 106 -126 106h-168q-6 0 -7 -6l-46 -260q-1 -6 5 -6h167zM479 0h-36q-8 0 -11 9l-87 297h-11h-168q-7 0 -7 -6l-52 -290 q-2 -10 -11 -10h-34q-10 0 -8 10l116 660q2 10 11 10h218q81 0 125.5 -40t44.5 -111q0 -86 -46.5 -143t-126.5 -74l89 -301q5 -11 -6 -11z"/>
<glyph glyph-name="racute" unicode="ŕ" horiz-adv-x="381" d="M92 0h-32q-10 0 -8 10l80 457q2 10 11 10h32q10 0 8 -10l-11 -61h1q19 37 54.5 59t81.5 22q56 0 87 -33q5 -7 0 -13l-21 -25q-7 -6 -14 -1q-34 24 -70 24q-57 0 -93 -46.5t-49 -117.5l-47 -265q-2 -10 -10 -10zM256 558h-22q-11 0 -3 10l92 122q8 10 19 10h34q4 0 5.5 -3 t-1.5 -7l-106 -122q-10 -10 -18 -10z"/>
<glyph glyph-name="Rcommaaccent" unicode="Ŗ" horiz-adv-x="591" d="M341 357q82 0 128.5 44.5t46.5 121.5q0 106 -126 106h-168q-6 0 -7 -6l-46 -260q-1 -6 5 -6h167zM479 0h-36q-8 0 -11 9l-87 297h-11h-168q-7 0 -7 -6l-52 -290q-2 -10 -11 -10h-34q-10 0 -8 10l116 660q2 10 11 10h218q81 0 125.5 -40t44.5 -111q0 -86 -46.5 -143 t-126.5 -74l89 -301q5 -11 -6 -11zM223 -196q-10 0 -8 10l21 121q2 10 12 10h35q10 0 8 -10l-7 -45q-2 -9 -9 -22l-40 -56q-6 -8 -12 -8z"/>
<glyph glyph-name="rcommaaccent" unicode="ŗ" horiz-adv-x="381" d="M92 0h-32q-10 0 -8 10l80 457q2 10 11 10h32q10 0 8 -10l-11 -61h1q19 37 54.5 59t81.5 22q56 0 87 -33q5 -7 0 -13l-21 -25q-7 -6 -14 -1q-34 24 -70 24q-57 0 -93 -46.5t-49 -117.5l-47 -265q-2 -10 -10 -10zM22 -196q-10 0 -8 10l21 121q2 10 12 10h35q10 0 8 -10 l-7 -45q-2 -9 -9 -22l-40 -56q-6 -8 -12 -8z"/>
<glyph glyph-name="Rcaron" unicode="Ř" horiz-adv-x="591" d="M341 357q82 0 128.5 44.5t46.5 121.5q0 106 -126 106h-168q-6 0 -7 -6l-46 -260q-1 -6 5 -6h167zM479 0h-36q-8 0 -11 9l-87 297h-11h-168q-7 0 -7 -6l-52 -290q-2 -10 -11 -10h-34q-10 0 -8 10l116 660q2 10 11 10h218q81 0 125.5 -40t44.5 -111q0 -86 -46.5 -143 t-126.5 -74l89 -301q5 -11 -6 -11zM380 754h-20q-8 0 -13 9l-66 122q-2 4 -0.5 7t5.5 3h19q10 0 15 -9l53 -90h2l86 90q8 9 18 9h22q5 0 6 -3t-3 -7l-107 -122q-8 -9 -17 -9z"/>
<glyph glyph-name="rcaron" unicode="ř" horiz-adv-x="381" d="M92 0h-32q-10 0 -8 10l80 457q2 10 11 10h32q10 0 8 -10l-11 -61h1q19 37 54.5 59t81.5 22q56 0 87 -33q5 -7 0 -13l-21 -25q-7 -6 -14 -1q-34 24 -70 24q-57 0 -93 -46.5t-49 -117.5l-47 -265q-2 -10 -10 -10zM293 559h-20q-9 0 -13 9l-65 122q-6 10 4 10h20q9 0 15 -10 l52 -90h2l86 90q9 10 19 10h22q4 0 5 -3t-3 -7l-107 -122q-8 -9 -17 -9z"/>
<glyph glyph-name="Sacute" unicode="Ś" horiz-adv-x="572" d="M374 764h-24q-11 0 -2 11l94 103q10 10 19 10h36q5 0 6 -3t-3 -7l-107 -104q-10 -10 -19 -10zM240 -10q-60 0 -117 23.5t-86 55.5q-5 6 1 13l23 26q7 7 14 1q80 -68 178 -68q88 0 142 46t54 120q0 49 -29 74.5t-102 35.5l-29 4q-161 24 -161 156q0 95 64 154t168 59 q52 0 100 -16.5t79 -42.5q7 -6 1 -14l-17 -23q-7 -10 -17 -3q-69 48 -154 48q-75 0 -122 -44.5t-47 -110.5q0 -49 30 -76t103 -37l29 -4q83 -12 120.5 -49.5t37.5 -102.5q0 -103 -70.5 -164t-192.5 -61z"/>
<glyph glyph-name="sacute" unicode="ś" horiz-adv-x="462" d="M197 -10q-56 0 -101 20t-70 47q-6 6 1 13l23 22q7 6 13 0q61 -55 139 -55q65 0 104 32.5t39 81.5q0 31 -19.5 46.5t-66.5 20.5l-46 5q-119 13 -119 108q0 70 51 113t134 43q84 0 145 -46q6 -6 1 -13l-19 -21q-5 -9 -15 -3q-57 36 -118 36q-57 0 -92.5 -29t-35.5 -73 q0 -31 21 -47t70 -21l46 -5q114 -12 114 -104q0 -78 -54 -124.5t-145 -46.5zM282 558h-22q-11 0 -3 10l92 122q8 10 19 10h34q4 0 5.5 -3t-1.5 -7l-106 -122q-10 -10 -18 -10z"/>
<glyph glyph-name="Scircumflex" unicode="Ŝ" horiz-adv-x="572" d="M491 755h-19q-10 0 -16 9l-52 91h-2l-86 -91q-8 -9 -18 -9h-23q-4 0 -5 3t3 7l107 122q8 9 17 9h20q9 0 13 -9l65 -122q6 -10 -4 -10zM240 -10q-60 0 -117 23.5t-86 55.5q-5 6 1 13l23 26q7 7 14 1q80 -68 178 -68q88 0 142 46t54 120q0 49 -29 74.5t-102 35.5l-29 4 q-161 24 -161 156q0 95 64 154t168 59q52 0 100 -16.5t79 -42.5q7 -6 1 -14l-17 -23q-7 -10 -17 -3q-69 48 -154 48q-75 0 -122 -44.5t-47 -110.5q0 -49 30 -76t103 -37l29 -4q83 -12 120.5 -49.5t37.5 -102.5q0 -103 -70.5 -164t-192.5 -61z"/>
<glyph glyph-name="scircumflex" unicode="ŝ" horiz-adv-x="462" d="M197 -10q-56 0 -101 20t-70 47q-6 6 1 13l23 22q7 6 13 0q61 -55 139 -55q65 0 104 32.5t39 81.5q0 31 -19.5 46.5t-66.5 20.5l-46 5q-119 13 -119 108q0 70 51 113t134 43q84 0 145 -46q6 -6 1 -13l-19 -21q-5 -9 -15 -3q-57 36 -118 36q-57 0 -92.5 -29t-35.5 -73 q0 -31 21 -47t70 -21l46 -5q114 -12 114 -104q0 -78 -54 -124.5t-145 -46.5zM395 559h-20q-9 0 -15 9l-52 91h-2l-86 -91q-9 -9 -19 -9h-22q-4 0 -5 3t3 7l107 122q8 9 17 9h20q9 0 13 -9l65 -122q6 -10 -4 -10z"/>
<glyph glyph-name="Scedilla" unicode="Ş" horiz-adv-x="572" d="M201 -147h-27q-11 0 -6 10l71 127q-60 0 -116.5 23.5t-85.5 55.5q-5 6 1 13l23 26q7 7 14 1q80 -68 178 -68q88 0 142 46t54 120q0 49 -29 74.5t-102 35.5l-29 4q-161 24 -161 156q0 95 64 154t168 59q52 0 100 -16.5t79 -42.5q7 -6 1 -14l-17 -23q-7 -10 -17 -3 q-69 48 -154 48q-75 0 -122 -44.5t-47 -110.5q0 -49 30 -76t103 -37l29 -4q83 -12 120.5 -49.5t37.5 -102.5q0 -94 -58.5 -153.5t-161.5 -69.5l-65 -129q-5 -10 -17 -10z"/>
<glyph glyph-name="scedilla" unicode="ş" horiz-adv-x="462" d="M144 -147h-27q-11 0 -6 10l71 128q-51 3 -92 22t-64 44q-6 6 1 13l23 22q7 6 13 0q61 -55 139 -55q65 0 104 32.5t39 81.5q0 31 -19.5 46.5t-66.5 20.5l-46 5q-119 13 -119 108q0 70 51 113t134 43q84 0 145 -46q6 -6 1 -13l-19 -21q-5 -9 -15 -3q-57 36 -118 36 q-57 0 -92.5 -29t-35.5 -73q0 -31 21 -47t70 -21l46 -5q114 -12 114 -104q0 -72 -45.5 -117t-125.5 -53l-64 -128q-5 -10 -17 -10z"/>
<glyph glyph-name="Scaron" unicode="Š" horiz-adv-x="572" d="M383 754h-20q-9 0 -13 9l-66 122q-2 4 -0.5 7t5.5 3h19q10 0 15 -9l53 -90h2l86 90q8 9 18 9h22q5 0 6 -3t-3 -7l-107 -122q-8 -9 -17 -9zM240 -10q-60 0 -117 23.5t-86 55.5q-5 6 1 13l23 26q7 7 14 1q80 -68 178 -68q88 0 142 46t54 120q0 49 -29 74.5t-102 35.5l-29 4 q-161 24 -161 156q0 95 64 154t168 59q52 0 100 -16.5t79 -42.5q7 -6 1 -14l-17 -23q-7 -10 -17 -3q-69 48 -154 48q-75 0 -122 -44.5t-47 -110.5q0 -49 30 -76t103 -37l29 -4q83 -12 120.5 -49.5t37.5 -102.5q0 -103 -70.5 -164t-192.5 -61z"/>
<glyph glyph-name="scaron" unicode="š" horiz-adv-x="462" d="M197 -10q-56 0 -101 20t-70 47q-6 6 1 13l23 22q7 6 13 0q61 -55 139 -55q65 0 104 32.5t39 81.5q0 31 -19.5 46.5t-66.5 20.5l-46 5q-119 13 -119 108q0 70 51 113t134 43q84 0 145 -46q6 -6 1 -13l-19 -21q-5 -9 -15 -3q-57 36 -118 36q-57 0 -92.5 -29t-35.5 -73 q0 -31 21 -47t70 -21l46 -5q114 -12 114 -104q0 -78 -54 -124.5t-145 -46.5zM306 559h-20q-9 0 -13 9l-65 122q-6 10 4 10h20q9 0 15 -10l52 -90h2l86 90q9 10 19 10h22q4 0 5 -3t-3 -7l-107 -122q-8 -9 -17 -9z"/>
<glyph glyph-name="Tcommaaccent" unicode="Ţ" horiz-adv-x="501" d="M229 0h-33q-10 0 -8 10l108 613q2 6 -4 6h-189q-9 0 -7 10l5 31q2 10 11 10h441q10 0 8 -10l-6 -31q-2 -10 -11 -10h-189q-5 0 -6 -6l-109 -613q-2 -10 -11 -10zM161 -196q-10 0 -8 10l21 121q2 10 12 10h35q10 0 8 -10l-7 -45q-2 -9 -9 -22l-40 -56q-6 -8 -12 -8z"/>
<glyph glyph-name="tcommaaccent" unicode="ţ" horiz-adv-x="295" d="M203 -3h-24q-52 0 -76 19.5t-24 63.5q0 22 4 45l57 302q2 6 -5 6h-48q-10 0 -8 10l4 24q2 10 11 10h49q7 0 8 6l23 137q2 10 11 10h32q10 0 8 -10l-24 -137q-1 -6 4 -6h86q10 0 8 -10l-4 -24q-1 -10 -11 -10h-86q-6 0 -7 -6l-57 -298q-4 -19 -4 -36q0 -28 14.5 -38 t49.5 -10h17q10 0 8 -10l-4 -28q-1 -10 -12 -10zM80 -196q-10 0 -8 10l21 121q2 10 12 10h35q10 0 8 -10l-7 -45q-2 -9 -9 -22l-40 -56q-6 -8 -12 -8z"/>
<glyph glyph-name="Tcaron" unicode="Ť" horiz-adv-x="501" d="M229 0h-33q-10 0 -8 10l108 613q2 6 -4 6h-189q-9 0 -7 10l5 31q2 10 11 10h441q10 0 8 -10l-6 -31q-2 -10 -11 -10h-189q-5 0 -6 -6l-109 -613q-2 -10 -11 -10zM351 754h-20q-9 0 -13 9l-66 122q-2 4 -0.5 7t5.5 3h19q10 0 15 -9l53 -90h2l86 90q8 9 18 9h22q5 0 6 -3 t-3 -7l-107 -122q-8 -9 -17 -9z"/>
<glyph glyph-name="tcaron" unicode="ť" horiz-adv-x="295" d="M203 -3h-24q-52 0 -76 19.5t-24 63.5q0 22 4 45l57 302q2 6 -5 6h-48q-10 0 -8 10l4 24q2 10 11 10h49q7 0 8 6l23 137q2 10 11 10h32q10 0 8 -10l-24 -137q-1 -6 4 -6h86q10 0 8 -10l-4 -24q-1 -10 -11 -10h-86q-6 0 -7 -6l-57 -298q-4 -19 -4 -36q0 -28 14.5 -38 t49.5 -10h17q10 0 8 -10l-4 -28q-1 -10 -12 -10zM320 538q-9 0 -7 10l21 122q2 10 11 10h36q10 0 8 -10l-8 -46q-3 -14 -8 -21l-40 -57q-6 -8 -13 -8z"/>
<glyph glyph-name="Tbar" unicode="Ŧ" horiz-adv-x="501" d="M229 0h-33q-10 0 -8 10l68 388q2 6 -5 6h-100q-10 0 -8 10l5 28q2 10 12 10h100q6 0 7 6l29 165q2 6 -4 6h-189q-9 0 -7 10l5 31q2 10 11 10h441q10 0 8 -10l-6 -31q-2 -10 -11 -10h-189q-5 0 -6 -6l-30 -165q-1 -6 5 -6h101q10 0 8 -10l-5 -28q-1 -10 -11 -10h-101 q-6 0 -7 -6l-69 -388q-2 -10 -11 -10z"/>
<glyph glyph-name="tbar" unicode="ŧ" horiz-adv-x="295" d="M203 -3h-24q-52 0 -76.5 19t-24.5 63q0 18 5 46l34 176q1 6 -5 6h-38q-10 0 -8 10l4 22q2 9 12 9h38q6 0 7 6l13 73q2 6 -5 6h-48q-10 0 -8 10l4 24q2 10 11 10h49q7 0 8 6l23 137q2 10 11 10h32q10 0 8 -10l-24 -137q-1 -6 4 -6h86q10 0 8 -10l-4 -24q-1 -10 -11 -10 h-86q-6 0 -7 -6l-13 -73q-2 -6 4 -6h75q10 0 8 -10l-4 -22q-1 -9 -11 -9h-75q-5 0 -7 -6l-34 -172q-4 -19 -4 -36q0 -28 14.5 -38t49.5 -10h17q10 0 8 -10l-4 -28q-1 -10 -12 -10z"/>
<glyph glyph-name="Utilde" unicode="Ũ" horiz-adv-x="610" d="M276 -10q-91 0 -142.5 46.5t-51.5 135.5q0 30 6 64l76 434q2 10 11 10h34q10 0 8 -10l-77 -436q-5 -33 -5 -55q0 -138 145 -138q83 0 130 44t66 149l77 436q2 10 11 10h33q10 0 8 -10l-77 -439q-22 -129 -83 -185t-169 -56zM462 784q-27 0 -54 20q-23 18 -44 18 q-28 0 -61 -33q-3 -3 -6 -1.5t-2 4.5l4 30q1 8 10 15q28 28 64 28q26 0 54 -21q25 -18 44 -18q27 0 62 33q3 3 6 2t2 -5l-5 -29q-1 -9 -10 -16q-29 -27 -64 -27z"/>
<glyph glyph-name="utilde" unicode="ũ" horiz-adv-x="513" d="M368 598q-26 0 -54 21q-27 18 -44 18q-27 0 -62 -33q-3 -3 -6 -2t-2 5l5 29q1 8 9 16q30 27 65 27q27 0 54 -20q23 -18 44 -18q28 0 61 33q3 3 6 1.5t2 -4.5l-4 -30q-3 -9 -10 -15q-30 -28 -64 -28zM137 477h32q9 0 7 -10l-51 -283q-5 -30 -5 -48q0 -98 97 -98 q51 0 94.5 37.5t53.5 97.5l52 294q2 10 11 10h32q10 0 8 -10l-81 -457q-2 -10 -11 -10h-31q-10 0 -8 10l10 55h-1q-54 -75 -147 -75q-63 0 -97 33.5t-34 96.5q0 21 5 51l53 296q2 10 11 10z"/>
<glyph glyph-name="Umacron" unicode="Ū" horiz-adv-x="610" d="M276 -10q-91 0 -142.5 46.5t-51.5 135.5q0 30 6 64l76 434q2 10 11 10h34q10 0 8 -10l-77 -436q-5 -33 -5 -55q0 -138 145 -138q83 0 130 44t66 149l77 436q2 10 11 10h33q10 0 8 -10l-77 -439q-22 -129 -83 -185t-169 -56zM531 802h-234q-10 0 -8 10l4 23q1 10 11 10 h233q10 0 8 -10l-3 -23q-2 -10 -11 -10z"/>
<glyph glyph-name="umacron" unicode="ū" horiz-adv-x="513" d="M436 622h-234q-10 0 -8 10l4 22q1 10 11 10h234q10 0 8 -10l-4 -22q-1 -10 -11 -10zM137 477h32q9 0 7 -10l-51 -283q-5 -30 -5 -48q0 -98 97 -98q51 0 94.5 37.5t53.5 97.5l52 294q2 10 11 10h32q10 0 8 -10l-81 -457q-2 -10 -11 -10h-31q-10 0 -8 10l10 55h-1 q-54 -75 -147 -75q-63 0 -97 33.5t-34 96.5q0 21 5 51l53 296q2 10 11 10z"/>
<glyph glyph-name="Ubreve" unicode="Ŭ" horiz-adv-x="610" d="M276 -10q-91 0 -142.5 46.5t-51.5 135.5q0 30 6 64l76 434q2 10 11 10h34q10 0 8 -10l-77 -436q-5 -33 -5 -55q0 -138 145 -138q83 0 130 44t66 149l77 436q2 10 11 10h33q10 0 8 -10l-77 -439q-22 -129 -83 -185t-169 -56zM409 769q-47 0 -74 27.5t-27 72.5q0 12 10 12 h16q9 0 11 -10q5 -62 70 -62q64 0 93 62q5 10 13 10h17q10 0 7 -10q-15 -46 -51.5 -74t-84.5 -28z"/>
<glyph glyph-name="ubreve" unicode="ŭ" horiz-adv-x="513" d="M312 572q-47 0 -74 27.5t-27 72.5q0 12 10 12h16q9 0 11 -10q5 -62 70 -62q64 0 93 62q5 10 13 10h17q10 0 7 -10q-15 -46 -51.5 -74t-84.5 -28zM137 477h32q9 0 7 -10l-51 -283q-5 -30 -5 -48q0 -98 97 -98q51 0 94.5 37.5t53.5 97.5l52 294q2 10 11 10h32q10 0 8 -10 l-81 -457q-2 -10 -11 -10h-31q-10 0 -8 10l10 55h-1q-54 -75 -147 -75q-63 0 -97 33.5t-34 96.5q0 21 5 51l53 296q2 10 11 10z"/>
<glyph glyph-name="Uring" unicode="Ů" horiz-adv-x="610" d="M409 769q26 0 44.5 20t18.5 48q0 21 -12 33.5t-33 12.5q-26 0 -44.5 -20t-18.5 -48q0 -21 12 -33.5t33 -12.5zM403 739q-31 0 -50.5 20t-19.5 51q0 43 28.5 73t71.5 30q31 0 51 -20t20 -51q0 -43 -28.5 -73t-72.5 -30zM276 -10q-91 0 -142.5 46.5t-51.5 135.5q0 30 6 64 l76 434q2 10 11 10h34q10 0 8 -10l-77 -436q-5 -33 -5 -55q0 -138 145 -138q83 0 130 44t66 149l77 436q2 10 11 10h33q10 0 8 -10l-77 -439q-22 -129 -83 -185t-169 -56z"/>
<glyph glyph-name="uring" unicode="ů" horiz-adv-x="513" d="M137 477h32q9 0 7 -10l-51 -283q-5 -30 -5 -48q0 -98 97 -98q51 0 94.5 37.5t53.5 97.5l52 294q2 10 11 10h32q10 0 8 -10l-81 -457q-2 -10 -11 -10h-31q-10 0 -8 10l10 55h-1q-54 -75 -147 -75q-63 0 -97 33.5t-34 96.5q0 21 5 51l53 296q2 10 11 10zM317 572 q26 0 45 20t19 48q0 21 -12 33.5t-33 12.5q-26 0 -44.5 -20t-18.5 -48q0 -21 11.5 -33.5t32.5 -12.5zM311 542q-31 0 -50.5 20t-19.5 51q0 43 28.5 73t72.5 30q31 0 50.5 -20t19.5 -51q0 -43 -28.5 -73t-72.5 -30z"/>
<glyph glyph-name="Uhungarumlaut" unicode="Ű" horiz-adv-x="610" d="M347 765h-21q-4 0 -5.5 2.5t1.5 7.5l83 104q8 10 18 10h28q5 0 6 -3t-2 -7l-92 -105q-6 -9 -16 -9zM465 765h-21q-4 0 -5.5 2.5t1.5 7.5l83 104q8 10 18 10h27q4 0 5.5 -3t-1.5 -7l-91 -105q-6 -9 -16 -9zM276 -10q-91 0 -142.5 46.5t-51.5 135.5q0 30 6 64l76 434 q2 10 11 10h34q10 0 8 -10l-77 -436q-5 -33 -5 -55q0 -138 145 -138q83 0 130 44t66 149l77 436q2 10 11 10h33q10 0 8 -10l-77 -439q-22 -129 -83 -185t-169 -56z"/>
<glyph glyph-name="uhungarumlaut" unicode="ű" horiz-adv-x="513" d="M263 559h-21q-11 0 -4 10l86 121q6 10 17 10h28q5 0 6 -3t-2 -7l-94 -122q-6 -9 -16 -9zM381 559h-21q-11 0 -4 10l86 121q6 10 17 10h28q5 0 6 -3t-2 -7l-95 -122q-6 -9 -15 -9zM137 477h32q9 0 7 -10l-51 -283q-5 -30 -5 -48q0 -98 97 -98q51 0 94.5 37.5t53.5 97.5 l52 294q2 10 11 10h32q10 0 8 -10l-81 -457q-2 -10 -11 -10h-31q-10 0 -8 10l10 55h-1q-54 -75 -147 -75q-63 0 -97 33.5t-34 96.5q0 21 5 51l53 296q2 10 11 10z"/>
<glyph glyph-name="Uogonek" unicode="Ų" horiz-adv-x="610" d="M242 -170q-25 0 -40.5 14.5t-15.5 39.5q0 47 64 108q-80 7 -124 52.5t-44 127.5q0 30 6 64l76 434q2 10 11 10h34q10 0 8 -10l-77 -436q-5 -33 -5 -55q0 -138 145 -138q83 0 130 44t66 149l77 436q2 10 11 10h33q10 0 8 -10l-77 -439q-21 -122 -76 -178.5t-151 -61.5 q-70 -62 -70 -95q0 -23 25 -23q12 0 29 9q8 5 11 -2l7 -20q2 -6 -6 -13q-25 -17 -55 -17z"/>
<glyph glyph-name="uogonek" unicode="ų" horiz-adv-x="513" d="M294 -170q-25 0 -40.5 14.5t-15.5 39.5q0 31 22.5 57.5t76.5 64.5q-1 2 0 3l10 56h-1q-54 -75 -147 -75q-63 0 -97 33.5t-34 96.5q0 21 5 51l53 296q2 10 11 10h32q9 0 7 -10l-51 -283q-5 -30 -5 -48q0 -98 97 -98q51 0 94.5 37.5t53.5 97.5l52 294q2 10 11 10h32 q10 0 8 -10l-81 -457q-1 -6 -6 -11q-56 -38 -76.5 -60.5t-20.5 -42.5q0 -23 24 -23q14 0 29 9q8 5 12 -2l6 -20q2 -6 -6 -13q-25 -17 -55 -17z"/>
<glyph glyph-name="Wcircumflex" unicode="Ŵ" horiz-adv-x="788" d="M602 755h-19q-10 0 -16 9l-52 91h-2l-86 -91q-8 -9 -18 -9h-23q-4 0 -5 3t3 7l107 122q8 9 17 9h20q8 0 13 -9l65 -122q6 -10 -4 -10zM550 0h-28q-9 0 -10 10l-53 565h-2l-255 -565q-4 -10 -14 -10h-27q-9 0 -10 10l-39 659q0 11 10 11h31q11 0 11 -11l29 -562h2l252 563 q4 10 14 10h25q10 0 11 -10l53 -563h2l228 563q4 10 14 10h34q12 0 7 -11l-272 -659q-4 -10 -13 -10z"/>
<glyph glyph-name="wcircumflex" unicode="ŵ" horiz-adv-x="706" d="M474 0h-27q-10 0 -10 10l-52 388h-1l-191 -388q-4 -10 -13 -10h-27q-10 0 -10 10l-63 457q-2 10 9 10h29q11 0 12 -10l49 -387h1l188 387q5 10 13 10h26q9 0 11 -10l54 -387h1l184 387q6 10 14 10h33q11 0 6 -10l-223 -457q-6 -10 -13 -10zM526 559h-20q-9 0 -15 9 l-52 91h-2l-86 -91q-9 -9 -19 -9h-22q-4 0 -5 3t3 7l107 122q8 9 17 9h20q8 0 13 -9l65 -122q6 -10 -4 -10z"/>
<glyph glyph-name="Ycircumflex" unicode="Ŷ" horiz-adv-x="496" d="M450 755h-19q-10 0 -16 9l-52 91h-2l-86 -91q-8 -9 -18 -9h-23q-4 0 -5 3t3 7l107 122q8 9 17 9h20q8 0 13 -9l65 -122q6 -10 -4 -10zM226 0h-33q-10 0 -8 10l47 269l-126 390q-4 11 8 11h32q10 0 13 -10l107 -327h3l224 327q6 10 16 10h34q6 0 7.5 -3.5t-1.5 -7.5 l-264 -390l-48 -269q-2 -10 -11 -10z"/>
<glyph glyph-name="ycircumflex" unicode="ŷ" horiz-adv-x="449" d="M394 559h-20q-9 0 -15 9l-52 91h-2l-86 -91q-9 -9 -19 -9h-22q-4 0 -5 3t3 7l107 122q8 9 17 9h20q8 0 13 -9l65 -122q6 -10 -4 -10zM27 -180h-19q-10 0 -8 10l4 28q1 10 12 10h17q31 0 53 19t51 74l27 49l-89 457q-2 10 8 10h33q10 0 11 -10l71 -387h1l207 387 q4 10 13 10h35q11 0 6 -10l-278 -514q-43 -79 -76 -106t-79 -27z"/>
<glyph glyph-name="Ydieresis" unicode="Ÿ" horiz-adv-x="496" d="M270 787h-37q-10 0 -8 10l9 54q2 10 11 10h37q10 0 8 -10l-9 -54q-2 -10 -11 -10zM462 787h-37q-10 0 -8 10l9 54q2 10 11 10h37q10 0 8 -10l-9 -54q-2 -10 -11 -10zM226 0h-33q-10 0 -8 10l47 269l-126 390q-4 11 8 11h32q10 0 13 -10l107 -327h3l224 327q6 10 16 10h34 q6 0 7.5 -3.5t-1.5 -7.5l-264 -390l-48 -269q-2 -10 -11 -10z"/>
<glyph glyph-name="Zacute" unicode="Ź" horiz-adv-x="518" d="M353 764h-24q-11 0 -2 11l94 103q10 10 19 10h36q5 0 6 -3t-3 -7l-107 -104q-10 -10 -19 -10zM419 0h-396q-10 0 -8 10l5 32q2 8 8 14l448 572v1h-329q-10 0 -8 10l5 31q2 10 11 10h384q10 0 8 -10l-5 -30q-1 -7 -7 -14l-450 -574v-1h343q10 0 8 -10l-5 -31 q-1 -10 -12 -10z"/>
<glyph glyph-name="zacute" unicode="ź" horiz-adv-x="447" d="M346 0h-319q-10 0 -8 10l4 27q2 6 7 13l337 378v1h-253q-10 0 -8 10l5 28q2 10 11 10h307q10 0 8 -10l-4 -28q-1 -5 -8 -14l-336 -376v-1h265q10 0 8 -10l-5 -28q-2 -10 -11 -10zM281 558h-22q-11 0 -3 10l92 122q8 10 19 10h34q5 0 6 -3t-2 -7l-106 -122 q-10 -10 -18 -10z"/>
<glyph glyph-name="Zdotaccent" unicode="Ż" horiz-adv-x="518" d="M419 0h-396q-10 0 -8 10l5 32q2 8 8 14l448 572v1h-329q-10 0 -8 10l5 31q2 10 11 10h384q10 0 8 -10l-5 -30q-1 -7 -7 -14l-450 -574v-1h343q10 0 8 -10l-5 -31q-1 -10 -12 -10zM381 787h-42q-10 0 -8 10l9 54q2 10 11 10h42q10 0 8 -10l-9 -54q-2 -10 -11 -10z"/>
<glyph glyph-name="zdotaccent" unicode="ż" horiz-adv-x="447" d="M314 607h-42q-10 0 -8 10l10 53q2 10 11 10h41q10 0 8 -10l-9 -53q-2 -10 -11 -10zM346 0h-319q-10 0 -8 10l4 27q2 6 7 13l337 378v1h-253q-10 0 -8 10l5 28q2 10 11 10h307q10 0 8 -10l-4 -28q-1 -5 -8 -14l-336 -376v-1h265q10 0 8 -10l-5 -28q-2 -10 -11 -10z"/>
<glyph glyph-name="Zcaron" unicode="Ž" horiz-adv-x="518" d="M419 0h-396q-10 0 -8 10l5 32q2 8 8 14l448 572v1h-329q-10 0 -8 10l5 31q2 10 11 10h384q10 0 8 -10l-5 -30q-1 -7 -7 -14l-450 -574v-1h343q10 0 8 -10l-5 -31q-1 -10 -12 -10zM372 754h-20q-8 0 -13 9l-66 122q-2 4 -0.5 7t5.5 3h19q10 0 15 -9l53 -90h2l86 90 q8 9 18 9h22q5 0 6 -3t-3 -7l-107 -122q-8 -9 -17 -9z"/>
<glyph glyph-name="zcaron" unicode="ž" horiz-adv-x="447" d="M346 0h-319q-10 0 -8 10l4 27q2 6 7 13l337 378v1h-253q-10 0 -8 10l5 28q2 10 11 10h307q10 0 8 -10l-4 -28q-1 -5 -8 -14l-336 -376v-1h265q10 0 8 -10l-5 -28q-2 -10 -11 -10zM294 559h-20q-9 0 -13 9l-65 122q-6 10 4 10h20q9 0 15 -10l52 -90h2l86 90q9 10 19 10h22 q4 0 5 -3t-3 -7l-107 -122q-8 -9 -17 -9z"/>
<glyph glyph-name="florin" unicode="ƒ" d="M414 350h-103l-126 -390q-25 -77 -61.5 -108.5t-100.5 -31.5h-21q-10 0 -8 10l4 27q1 10 12 10h19q40 0 64 20.5t41 70.5l127 392h-82q-10 0 -8 10l4 24q2 10 12 10h88l48 146q25 77 62 108.5t100 31.5h21q11 0 9 -10l-5 -27q-1 -10 -12 -10h-19q-40 0 -64 -20.5 t-41 -70.5l-48 -148h96q10 0 8 -10l-4 -24q-2 -10 -12 -10z"/>
<glyph glyph-name="Aringacute" unicode="Ǻ" horiz-adv-x="575" d="M356 583l-187 -353h249l-59 353h-3zM363 622q26 0 44.5 19.5t18.5 47.5q0 21 -11.5 33.5t-32.5 12.5q-27 0 -45.5 -19.5t-18.5 -48.5q0 -20 12 -32.5t33 -12.5zM499 0h-33q-10 0 -11 10l-29 170h-283l-90 -170q-5 -10 -13 -10h-38q-11 0 -6 10l316 596q-25 20 -25 57 q0 43 28.5 72.5t72.5 29.5q31 0 50.5 -20t19.5 -51q0 -29 -14.5 -53.5t-38.5 -37.5l102 -593q2 -10 -8 -10zM399 788h-25q-5 0 -5 3.5t4 6.5l94 80q13 10 22 10h36q2 0 3.5 -1.5t0.5 -4t-3 -4.5l-105 -80q-14 -10 -22 -10z"/>
<glyph glyph-name="aringacute" unicode="ǻ" horiz-adv-x="492" d="M319 572q26 0 45 20t19 48q0 21 -12 33.5t-33 12.5q-26 0 -44.5 -20t-18.5 -48q0 -21 11.5 -33.5t32.5 -12.5zM313 542q-31 0 -50.5 20t-19.5 51q0 43 28.5 73t72.5 30q31 0 50.5 -20t19.5 -51q0 -43 -28.5 -73t-72.5 -30zM195 35q59 0 101.5 31t50.5 81l13 74q2 6 -4 6 h-109q-151 0 -151 -114q0 -78 99 -78zM361 0h-29q-10 0 -8 10l9 50h-1q-46 -70 -155 -70q-61 0 -96 31.5t-35 85.5q0 80 51.5 121.5t148.5 41.5h116q6 0 8 6l9 52q5 27 5 42q0 38 -23.5 54t-79.5 16q-74 0 -122 -38q-10 -8 -15 2l-13 22q-4 7 3 13q62 48 158 48 q74 0 108 -25t34 -83q0 -19 -5 -49l-57 -320q-2 -10 -11 -10zM349 764h-22q-11 0 -2 11l97 103q9 10 19 10h33q5 0 6 -3t-3 -7l-108 -104q-10 -10 -20 -10z"/>
<glyph glyph-name="AEacute" unicode="Ǽ" horiz-adv-x="909" d="M534 627l-306 -397h232q6 0 7 6l70 391h-3zM809 0h-373q-10 0 -8 10l29 164q1 6 -5 6h-262l-131 -170q-8 -10 -16 -10h-42q-5 0 -6 3t2 7l507 661q8 9 17 9h407q11 0 9 -10l-6 -31q-1 -10 -12 -10h-323q-6 0 -7 -6l-43 -246q-1 -7 5 -7h277q10 0 8 -10l-5 -30 q-1 -10 -12 -10h-277q-6 0 -7 -6l-46 -257q-1 -6 5 -6h323q10 0 8 -10l-5 -31q-1 -10 -11 -10zM610 764h-24q-11 0 -2 11l94 103q10 10 19 10h36q5 0 6 -3t-3 -7l-107 -104q-10 -10 -19 -10z"/>
<glyph glyph-name="aeacute" unicode="ǽ" horiz-adv-x="778" d="M195 35q59 0 101.5 31t50.5 81l13 74q2 6 -4 6h-109q-151 0 -151 -114q0 -78 99 -78zM423 270h252q5 0 7 6q6 27 6 51q0 113 -106 113q-95 0 -142 -92q-12 -28 -21 -72q-1 -6 4 -6zM281 440q-74 0 -122 -38q-10 -8 -15 2l-13 22q-4 7 3 13q62 48 158 48q124 0 134 -82h1 q59 82 161 82q67 0 107.5 -41t40.5 -116q0 -38 -10 -93q-2 -10 -12 -10h-297q-7 0 -8 -6q-7 -36 -7 -66q0 -117 113 -117q81 0 141 64q7 7 14 2l17 -19q7 -7 -1 -15q-71 -80 -178 -80q-115 0 -144 93h-1q-55 -93 -182 -93q-65 0 -100 31.5t-35 85.5q0 80 51.5 121.5 t148.5 41.5h116q6 0 8 6l9 52q5 27 5 42q0 38 -23.5 54t-79.5 16zM473 558h-22q-11 0 -3 10l92 122q8 10 19 10h34q5 0 6 -3t-2 -7l-106 -122q-10 -10 -18 -10z"/>
<glyph glyph-name="Oslashacute" unicode="Ǿ" horiz-adv-x="586" d="M392 764h-24q-11 0 -2 11l94 103q10 10 19 10h36q5 0 6 -3t-3 -7l-107 -104q-10 -10 -19 -10zM259 40q122 0 180 117q26 52 47 163t21 171q0 41 -12 71l-346 -478q36 -44 110 -44zM118 189q0 -44 13 -74l345 478q-38 47 -110 47q-122 0 -180 -117q-26 -51 -47 -162.5 t-21 -171.5zM58 -30h-22q-10 0 -3 10l61 86q-29 46 -29 117q0 64 22.5 183.5t49.5 173.5q72 150 237 150q86 0 136 -50l43 60q7 10 16 10h22q11 0 4 -10l-64 -88q29 -46 29 -115q0 -64 -22.5 -183.5t-49.5 -173.5q-72 -150 -237 -150q-87 0 -135 48l-42 -58q-7 -10 -16 -10z "/>
<glyph glyph-name="oslashacute" unicode="ǿ" horiz-adv-x="486" d="M308 558h-22q-11 0 -3 10l92 122q8 10 19 10h34q4 0 5.5 -3t-1.5 -7l-106 -122q-10 -10 -18 -10zM212 37q92 0 139 92q14 28 27 87.5t13 99.5q0 37 -11 65l-253 -312q27 -32 85 -32zM102 160q0 -38 10 -64l253 311q-27 32 -84 32q-93 0 -139 -92q-14 -29 -27 -88t-13 -99 zM36 -30h-15q-11 0 -3 10l57 71q-24 39 -24 99q0 51 14.5 116t32.5 103q58 118 191 118q71 0 110 -39l40 48q7 10 17 10h15q10 0 4 -10l-58 -71q25 -41 25 -99q0 -51 -14.5 -116t-32.5 -102q-56 -118 -191 -118q-70 0 -111 39l-40 -49q-8 -10 -17 -10z"/>
<glyph glyph-name="Scommaaccent" unicode="Ș" horiz-adv-x="572" d="M240 -10q-60 0 -117 23.5t-86 55.5q-5 6 1 13l23 26q7 7 14 1q80 -68 178 -68q88 0 142 46t54 120q0 49 -29 74.5t-102 35.5l-29 4q-161 24 -161 156q0 95 64 154t168 59q52 0 100 -16.5t79 -42.5q7 -6 1 -14l-17 -23q-7 -10 -17 -3q-69 48 -154 48q-75 0 -122 -44.5 t-47 -110.5q0 -49 30 -76t103 -37l29 -4q83 -12 120.5 -49.5t37.5 -102.5q0 -103 -70.5 -164t-192.5 -61zM203 -196q-10 0 -8 10l21 121q2 10 12 10h35q10 0 8 -10l-7 -45q-2 -9 -9 -22l-40 -56q-6 -8 -12 -8z"/>
<glyph glyph-name="scommaaccent" unicode="ș" horiz-adv-x="462" d="M197 -10q-56 0 -101 20t-70 47q-6 6 1 13l23 22q7 6 13 0q61 -55 139 -55q65 0 104 32.5t39 81.5q0 31 -19.5 46.5t-66.5 20.5l-46 5q-119 13 -119 108q0 70 51 113t134 43q84 0 145 -46q6 -6 1 -13l-19 -21q-5 -9 -15 -3q-57 36 -118 36q-57 0 -92.5 -29t-35.5 -73 q0 -31 21 -47t70 -21l46 -5q114 -12 114 -104q0 -78 -54 -124.5t-145 -46.5zM144 -196q-10 0 -8 10l21 121q2 10 12 10h35q10 0 8 -10l-7 -45q-2 -9 -9 -22l-40 -56q-6 -8 -12 -8z"/>
<glyph glyph-name="uni021A" unicode="Ț" horiz-adv-x="501" d="M229 0h-33q-10 0 -8 10l108 613q2 6 -4 6h-189q-9 0 -7 10l5 31q2 10 11 10h441q10 0 8 -10l-6 -31q-2 -10 -11 -10h-189q-5 0 -6 -6l-109 -613q-2 -10 -11 -10zM161 -196q-10 0 -8 10l21 121q2 10 12 10h35q10 0 8 -10l-7 -45q-2 -9 -9 -22l-40 -56q-6 -8 -12 -8z"/>
<glyph glyph-name="uni021B" unicode="ț" horiz-adv-x="295" d="M203 -3h-24q-52 0 -76 19.5t-24 63.5q0 22 4 45l57 302q2 6 -5 6h-48q-10 0 -8 10l4 24q2 10 11 10h49q7 0 8 6l23 137q2 10 11 10h32q10 0 8 -10l-24 -137q-1 -6 4 -6h86q10 0 8 -10l-4 -24q-1 -10 -11 -10h-86q-6 0 -7 -6l-57 -298q-4 -19 -4 -36q0 -28 14.5 -38 t49.5 -10h17q10 0 8 -10l-4 -28q-1 -10 -12 -10zM80 -196q-10 0 -8 10l21 121q2 10 12 10h35q10 0 8 -10l-7 -45q-2 -9 -9 -22l-40 -56q-6 -8 -12 -8z"/>
<glyph glyph-name="dotlessj" unicode="ȷ" horiz-adv-x="228" d="M-48 -180h-10q-10 0 -8 10l4 28q1 10 12 10h8q40 0 57 15.5t25 60.5l92 523q2 10 11 10h32q10 0 8 -10l-92 -523q-13 -72 -42.5 -98t-96.5 -26z"/>
<glyph glyph-name="circumflex" unicode="ˆ" horiz-adv-x="404" d="M368 559h-20q-9 0 -15 9l-52 91h-2l-86 -91q-9 -9 -19 -9h-22q-4 0 -5 3t3 7l107 122q8 9 17 9h20q8 0 13 -9l65 -122q6 -10 -4 -10z"/>
<glyph glyph-name="caron" unicode="ˇ" horiz-adv-x="404" d="M269 559h-20q-9 0 -13 9l-65 122q-6 10 4 10h20q9 0 15 -10l52 -90h2l86 90q9 10 19 10h22q4 0 5 -3t-3 -7l-107 -122q-8 -9 -17 -9z"/>
<glyph glyph-name="uni02C9" unicode="ˉ" horiz-adv-x="404" d="M422 802h-234q-10 0 -8 10l4 23q1 10 11 10h233q10 0 8 -10l-3 -23q-2 -10 -11 -10z"/>
<glyph glyph-name="breve" unicode="˘" horiz-adv-x="404" d="M264 572q-47 0 -74 27.5t-27 72.5q0 12 10 12h16q9 0 11 -10q5 -62 70 -62q64 0 93 62q5 10 13 10h17q10 0 7 -10q-15 -46 -51.5 -74t-84.5 -28z"/>
<glyph glyph-name="dotaccent" unicode="˙" horiz-adv-x="404" d="M292 607h-42q-10 0 -8 10l10 53q2 10 11 10h41q10 0 8 -10l-9 -53q-2 -10 -11 -10z"/>
<glyph glyph-name="ring" unicode="˚" horiz-adv-x="404" d="M264 572q26 0 45 20t19 48q0 21 -12 33.5t-33 12.5q-26 0 -44.5 -20t-18.5 -48q0 -21 11.5 -33.5t32.5 -12.5zM258 542q-31 0 -50.5 20t-19.5 51q0 43 28.5 73t72.5 30q31 0 50.5 -20t19.5 -51q0 -43 -28.5 -73t-72.5 -30z"/>
<glyph glyph-name="ogonek" unicode="˛" horiz-adv-x="404" d="M133 -170q-25 0 -40.5 14.5t-15.5 39.5q0 30 20.5 56.5t68.5 59.5q14 10 24 10h30q4 0 5 -3.5t-3 -6.5q-57 -38 -78 -61t-21 -43q0 -23 24 -23q13 0 29 9q8 5 11 -2l7 -20q2 -6 -6 -13q-25 -17 -55 -17z"/>
<glyph glyph-name="tilde" unicode="˜" horiz-adv-x="404" d="M320 598q-26 0 -54 21q-27 18 -44 18q-27 0 -62 -33q-3 -3 -6 -2t-2 5l5 29q1 8 9 16q30 27 65 27q27 0 54 -20q23 -18 44 -18q28 0 61 33q3 3 6 1.5t2 -4.5l-4 -30q-3 -9 -10 -15q-30 -28 -64 -28z"/>
<glyph glyph-name="hungarumlaut" unicode="˝" horiz-adv-x="404" d="M173 559h-21q-11 0 -4 10l86 121q6 10 17 10h28q5 0 6 -3t-2 -7l-94 -122q-6 -9 -16 -9zM291 559h-21q-11 0 -4 10l86 121q6 10 17 10h28q5 0 6 -3t-2 -7l-95 -122q-6 -9 -15 -9z"/>
<glyph glyph-name="Delta" unicode="Δ" horiz-adv-x="574" d="M443 47q7 0 5 6l-89 541h-2l-283 -541q-3 -6 3 -6h366zM498 0h-497q-10 0 -5 10l345 660q5 10 13 10h33q7 0 9 -10l110 -660q2 -10 -8 -10z"/>
<glyph glyph-name="Delta" unicode="∆" horiz-adv-x="574" d="M443 47q7 0 5 6l-89 541h-2l-283 -541q-3 -6 3 -6h366zM498 0h-497q-10 0 -5 10l345 660q5 10 13 10h33q7 0 9 -10l110 -660q2 -10 -8 -10z"/>
<glyph glyph-name="Omega" unicode="Ω" horiz-adv-x="584" d="M467 0h-166q-10 0 -8 10l5 33q1 8 11 11q82 28 119 87.5t63 198.5q17 96 17 149q0 73 -36 111.5t-105 38.5q-123 0 -180 -115q-29 -57 -52 -184q-16 -90 -16 -137q0 -62 22.5 -96t74.5 -53q8 -3 7 -11l-5 -33q-2 -10 -11 -10h-165q-10 0 -8 10l5 30q2 10 10 10h90l1 2 q-38 23 -56 57t-18 90q0 46 17 141q24 137 53 198q74 152 239 152q88 0 137.5 -50.5t49.5 -143.5q0 -51 -18 -156q-23 -133 -57.5 -194.5t-99.5 -93.5v-2h87q9 0 7 -10l-4 -30q-2 -10 -10 -10z"/>
<glyph glyph-name="Omega" unicode="Ω" horiz-adv-x="584" d="M467 0h-166q-10 0 -8 10l5 33q1 8 11 11q82 28 119 87.5t63 198.5q17 96 17 149q0 73 -36 111.5t-105 38.5q-123 0 -180 -115q-29 -57 -52 -184q-16 -90 -16 -137q0 -62 22.5 -96t74.5 -53q8 -3 7 -11l-5 -33q-2 -10 -11 -10h-165q-10 0 -8 10l5 30q2 10 10 10h90l1 2 q-38 23 -56 57t-18 90q0 46 17 141q24 137 53 198q74 152 239 152q88 0 137.5 -50.5t49.5 -143.5q0 -51 -18 -156q-23 -133 -57.5 -194.5t-99.5 -93.5v-2h87q9 0 7 -10l-4 -30q-2 -10 -10 -10z"/>
<glyph glyph-name="pi" unicode="π" horiz-adv-x="537" d="M423 -6h-11q-59 0 -59 56q0 6 2 24l62 349q1 6 -4 6h-215q-6 0 -7 -6l-73 -413q-2 -10 -10 -10h-32q-11 0 -9 10l73 413q2 6 -4 6h-36q-10 0 -8 10l4 28q2 10 12 10h411q10 0 8 -10l-5 -28q-1 -10 -11 -10h-36q-5 0 -7 -6l-63 -348q0 -2 -0.5 -6t-0.5 -5q0 -22 20 -22h7 q10 0 8 -10l-4 -28q-1 -10 -12 -10z"/>
<glyph glyph-name="Wgrave" unicode="Ẁ" horiz-adv-x="788" d="M550 0h-28q-9 0 -10 10l-53 565h-2l-255 -565q-4 -10 -14 -10h-27q-9 0 -10 10l-39 659q0 11 10 11h31q11 0 11 -11l29 -562h2l252 563q4 10 14 10h25q10 0 11 -10l53 -563h2l228 563q4 10 14 10h34q12 0 7 -11l-272 -659q-4 -10 -13 -10zM487 764h-22q-9 0 -16 10 l-72 104q-2 4 -0.5 7t5.5 3h33q10 0 17 -10l60 -104q3 -4 1.5 -7t-6.5 -3z"/>
<glyph glyph-name="wgrave" unicode="ẁ" horiz-adv-x="706" d="M410 558h-20q-8 0 -15 10l-62 122q-2 4 0 7t7 3h31q9 0 13 -10l53 -122q5 -10 -7 -10zM474 0h-27q-10 0 -10 10l-52 388h-1l-191 -388q-4 -10 -13 -10h-27q-10 0 -10 10l-63 457q-2 10 9 10h29q11 0 12 -10l49 -387h1l188 387q5 10 13 10h26q9 0 11 -10l54 -387h1 l184 387q6 10 14 10h33q11 0 6 -10l-223 -457q-6 -10 -13 -10z"/>
<glyph glyph-name="Wacute" unicode="Ẃ" horiz-adv-x="788" d="M550 0h-28q-9 0 -10 10l-53 565h-2l-255 -565q-4 -10 -14 -10h-27q-9 0 -10 10l-39 659q0 11 10 11h31q11 0 11 -11l29 -562h2l252 563q4 10 14 10h25q10 0 11 -10l53 -563h2l228 563q4 10 14 10h34q12 0 7 -11l-272 -659q-4 -10 -13 -10zM502 764h-24q-11 0 -2 11 l94 103q10 10 19 10h36q5 0 6 -3t-3 -7l-107 -104q-10 -10 -19 -10z"/>
<glyph glyph-name="wacute" unicode="ẃ" horiz-adv-x="706" d="M474 0h-27q-10 0 -10 10l-52 388h-1l-191 -388q-4 -10 -13 -10h-27q-10 0 -10 10l-63 457q-2 10 9 10h29q11 0 12 -10l49 -387h1l188 387q5 10 13 10h26q9 0 11 -10l54 -387h1l184 387q6 10 14 10h33q11 0 6 -10l-223 -457q-6 -10 -13 -10zM428 558h-22q-11 0 -3 10 l92 122q8 10 19 10h34q4 0 5.5 -3t-1.5 -7l-106 -122q-10 -10 -18 -10z"/>
<glyph glyph-name="Wdieresis" unicode="Ẅ" horiz-adv-x="788" d="M550 0h-28q-9 0 -10 10l-53 565h-2l-255 -565q-4 -10 -14 -10h-27q-9 0 -10 10l-39 659q0 11 10 11h31q11 0 11 -11l29 -562h2l252 563q4 10 14 10h25q10 0 11 -10l53 -563h2l228 563q4 10 14 10h34q12 0 7 -11l-272 -659q-4 -10 -13 -10zM417 787h-37q-10 0 -8 10l9 54 q2 10 11 10h37q10 0 8 -10l-9 -54q-2 -10 -11 -10zM609 787h-37q-10 0 -8 10l9 54q2 10 11 10h37q10 0 8 -10l-9 -54q-2 -10 -11 -10z"/>
<glyph glyph-name="wdieresis" unicode="ẅ" horiz-adv-x="706" d="M474 0h-27q-10 0 -10 10l-52 388h-1l-191 -388q-4 -10 -13 -10h-27q-10 0 -10 10l-63 457q-2 10 9 10h29q11 0 12 -10l49 -387h1l188 387q5 10 13 10h26q9 0 11 -10l54 -387h1l184 387q6 10 14 10h33q11 0 6 -10l-223 -457q-6 -10 -13 -10zM349 607h-37q-10 0 -8 10l9 53 q2 10 11 10h37q10 0 8 -10l-9 -53q-2 -10 -11 -10zM541 607h-37q-10 0 -8 10l9 53q2 10 11 10h37q10 0 8 -10l-9 -53q-2 -10 -11 -10z"/>
<glyph glyph-name="Ygrave" unicode="Ỳ" horiz-adv-x="496" d="M345 764h-22q-9 0 -16 10l-72 104q-2 4 -0.5 7t5.5 3h33q10 0 17 -10l60 -104q3 -4 1.5 -7t-6.5 -3zM226 0h-33q-10 0 -8 10l47 269l-126 390q-4 11 8 11h32q10 0 13 -10l107 -327h3l224 327q6 10 16 10h34q6 0 7.5 -3.5t-1.5 -7.5l-264 -390l-48 -269q-2 -10 -11 -10z "/>
<glyph glyph-name="ygrave" unicode="ỳ" horiz-adv-x="449" d="M285 558h-20q-8 0 -15 10l-62 122q-2 4 0 7t7 3h31q9 0 13 -10l53 -122q5 -10 -7 -10zM27 -180h-19q-10 0 -8 10l4 28q1 10 12 10h17q31 0 53 19t51 74l27 49l-89 457q-2 10 8 10h33q10 0 11 -10l71 -387h1l207 387q4 10 13 10h35q11 0 6 -10l-278 -514q-43 -79 -76 -106 t-79 -27z"/>
<glyph glyph-name="endash" unicode="–" horiz-adv-x="484" d="M452 244h-411q-9 0 -7 10l4 27q1 8 11 8h410q10 0 8 -10l-4 -26q-1 -9 -11 -9z"/>
<glyph glyph-name="emdash" unicode="—" horiz-adv-x="796" d="M764 244h-723q-9 0 -7 10l4 27q1 8 11 8h722q10 0 8 -10l-4 -26q-1 -9 -11 -9z"/>
<glyph glyph-name="quoteleft" unicode="‘" horiz-adv-x="199" d="M171 523h-36q-9 0 -7 10l12 68q3 14 8 22l39 50q4 8 12 8q9 0 7 -9l-24 -139q-2 -10 -11 -10z"/>
<glyph glyph-name="quoteright" unicode="’" horiz-adv-x="199" d="M135 522q-9 0 -7 9l23 139q2 10 11 10h37q9 0 7 -10l-12 -67q-3 -16 -8 -22l-39 -51q-6 -8 -12 -8z"/>
<glyph glyph-name="quotesinglbase" unicode="‚" horiz-adv-x="199" d="M28 -83q-8 0 -7 9l23 139q2 10 11 10h37q9 0 7 -10l-12 -67q-3 -16 -8 -22l-39 -51q-6 -8 -12 -8z"/>
<glyph glyph-name="quotedblleft" unicode="“" horiz-adv-x="330" d="M171 523h-36q-9 0 -7 10l12 68q3 14 8 22l39 50q4 8 12 8q9 0 7 -9l-24 -139q-2 -10 -11 -10zM302 523h-36q-9 0 -7 10l12 68q3 14 8 22l39 50q4 8 12 8t7 -9l-24 -139q-2 -10 -11 -10z"/>
<glyph glyph-name="quotedblright" unicode="”" horiz-adv-x="330" d="M135 522q-9 0 -7 9l23 139q2 10 11 10h37q9 0 7 -10l-12 -67q-3 -16 -8 -22l-39 -51q-6 -8 -12 -8zM266 522q-8 0 -7 9l24 139q2 10 11 10h36q9 0 7 -10l-12 -67q-3 -16 -8 -22l-39 -51q-6 -8 -12 -8z"/>
<glyph glyph-name="quotedblbase" unicode="„" horiz-adv-x="330" d="M28 -83q-8 0 -7 9l23 139q2 10 11 10h37q9 0 7 -10l-12 -67q-3 -16 -8 -22l-39 -51q-6 -8 -12 -8zM159 -83q-9 0 -7 9l24 139q2 10 11 10h36q9 0 7 -10l-12 -67q-3 -16 -8 -22l-39 -51q-5 -8 -12 -8z"/>
<glyph glyph-name="dagger" unicode="†" horiz-adv-x="424" d="M157 -180h-29q-10 0 -8 10l96 545q2 6 -4 6h-131q-10 0 -8 10l4 27q1 9 12 9h129q6 0 8 6l42 237q1 10 11 10h29q11 0 9 -10l-43 -237q-2 -6 5 -6h130q10 0 8 -10l-4 -27q-1 -9 -11 -9h-130q-6 0 -7 -6l-96 -545q-3 -10 -12 -10z"/>
<glyph glyph-name="daggerdbl" unicode="‡" horiz-adv-x="424" d="M152 -180h-29q-11 0 -8 10l37 210q2 6 -4 6h-131q-10 0 -8 10l4 27q1 9 11 9h130q6 0 8 6l54 306q2 6 -4 6h-131q-10 0 -8 10l4 27q1 9 11 9h130q6 0 8 6l37 208q1 10 11 10h29q11 0 9 -10l-38 -208q-2 -6 5 -6h130q10 0 8 -10l-4 -27q-1 -9 -11 -9h-130q-6 0 -7 -6 l-55 -306q-2 -6 5 -6h130q10 0 8 -10l-4 -27q-1 -9 -11 -9h-130q-6 0 -7 -6l-37 -210q-3 -10 -12 -10z"/>
<glyph glyph-name="bullet" unicode="•" horiz-adv-x="360" d="M198 192q-50 0 -82.5 33t-32.5 83t32.5 83t82.5 33q49 0 81.5 -33t32.5 -83t-32.5 -83t-81.5 -33z"/>
<glyph glyph-name="ellipsis" unicode="…" horiz-adv-x="625" d="M97 75l-10 -65q-2 -10 -11 -10h-46q-10 0 -8 10l10 65q2 10 11 10h46q10 0 8 -10zM305 75l-10 -65q-2 -10 -11 -10h-46q-10 0 -8 10l11 65q2 10 11 10h45q10 0 8 -10zM514 75l-11 -65q-2 -10 -11 -10h-45q-11 0 -9 10l11 65q2 10 11 10h45q11 0 9 -10z"/>
<glyph glyph-name="perthousand" unicode="‰" horiz-adv-x="1023" d="M509 30q46 0 70 45q13 24 25 86.5t12 92.5q0 27 -15 42t-42 15q-46 0 -71 -45q-12 -24 -24 -86t-12 -92q0 -27 14.5 -42.5t42.5 -15.5zM799 30q47 0 71 45q12 24 24 86.5t12 92.5q0 57 -57 57q-47 0 -70 -45q-13 -24 -25 -86t-12 -92q0 -27 15 -42.5t42 -15.5zM505 -8 q-42 0 -68 24.5t-26 67.5q0 31 13 98.5t26 93.5q36 74 113 74q42 0 68 -24.5t26 -68.5q0 -31 -13 -98.5t-26 -93.5q-36 -73 -113 -73zM795 -8q-42 0 -67.5 24.5t-25.5 67.5q0 31 12.5 98.5t25.5 93.5q36 74 114 74q42 0 67.5 -24.5t25.5 -68.5q0 -31 -12.5 -98.5 t-25.5 -93.5q-36 -73 -114 -73zM221 368q46 0 70 46q12 24 24 86t12 92q0 27 -14.5 42.5t-41.5 15.5q-47 0 -71 -46q-12 -24 -24 -86t-12 -92q0 -27 14.5 -42.5t42.5 -15.5zM217 330q-43 0 -68.5 24.5t-25.5 68.5q0 31 13 98t26 93q36 74 113 74q42 0 67.5 -24.5t25.5 -68.5 q0 -31 -12.5 -98t-25.5 -93q-36 -74 -113 -74zM147 -10h-25q-11 0 -4 10l499 680q7 10 15 10h25q9 0 4 -10l-498 -680q-7 -10 -16 -10z"/>
<glyph glyph-name="guilsinglleft" unicode="‹" horiz-adv-x="297" d="M188 84l-132 173q-6 8 2 14l193 173q3 3 6.5 1.5t2.5 -5.5l-6 -42q-3 -10 -10 -19l-130 -114q-5 -4 -2 -8l88 -114q6 -8 5 -19l-6 -37q0 -3 -2 -4.5t-4.5 -1t-4.5 2.5z"/>
<glyph glyph-name="guilsinglright" unicode="›" horiz-adv-x="297" d="M60 84q-3 -3 -6.5 -1.5t-2.5 5.5l7 42q1 9 10 18l130 114q4 4 2 8l-89 115q-5 8 -4 18l6 37q1 4 4.5 5.5t5.5 -1.5l133 -174q7 -7 -2 -14z"/>
<glyph glyph-name="fraction" unicode="⁄" horiz-adv-x="201" d="M-121 -10h-25q-12 0 -4 10l497 680q7 10 16 10h25q9 0 4 -10l-497 -680q-9 -10 -16 -10z"/>
<glyph glyph-name="zero.superior" unicode="⁰" horiz-adv-x="317" d="M200 464q54 0 79 51q12 24 27.5 109t15.5 116q0 62 -61 62q-53 0 -78 -50q-12 -24 -28 -110t-16 -116q0 -62 61 -62zM194 423q-46 0 -72 26t-26 72q0 34 17 126t30 118q36 78 124 78q46 0 72.5 -26t26.5 -72q0 -33 -17.5 -125t-30.5 -119q-36 -78 -124 -78z"/>
<glyph glyph-name="four.superior" unicode="⁴" horiz-adv-x="317" d="M265 430h-22q-9 0 -7 10l10 61q2 6 -5 6h-155q-10 0 -8 10l3 21q1 6 7 15l177 273q6 10 14 10h27q4 0 5.5 -3t-1.5 -7l-178 -278v-1h116q6 0 7 6l18 100q2 10 11 10h22q10 0 8 -10l-17 -100q-1 -6 5 -6h35q9 0 7 -10l-3 -21q-1 -9 -10 -9h-37q-4 0 -6 -6l-11 -61 q-2 -10 -12 -10z"/>
<glyph glyph-name="five.superior" unicode="⁵" horiz-adv-x="317" d="M198 423q-45 0 -68.5 22.5t-27.5 58.5q-2 10 6 13l24 8q8 1 9 -6q10 -55 64 -55q52 0 76 47q7 14 13 43t6 46q0 56 -59 56q-47 0 -71 -38q-5 -9 -13 -9h-22q-10 0 -8 10l36 207q2 10 11 10h195q10 0 8 -10l-4 -21q-1 -9 -10 -9h-158q-5 0 -7 -6l-23 -125h1q26 32 78 32 q40 0 64.5 -22.5t24.5 -63.5q0 -23 -7.5 -60.5t-17.5 -56.5q-35 -71 -120 -71z"/>
<glyph glyph-name="six.superior" unicode="⁶" horiz-adv-x="317" d="M201 464q41 0 69 29.5t28 72.5q0 30 -18 47.5t-49 17.5q-41 0 -69 -30t-28 -73q0 -29 18 -46.5t49 -17.5zM194 423q-47 0 -75 27t-28 72q0 53 46 120l132 185q5 9 13 9h29q5 0 6 -3t-2 -7l-119 -167l1 -1q19 12 47 12q44 0 70 -26t26 -69q0 -64 -40.5 -108t-105.5 -44z "/>
<glyph glyph-name="seven.superior" unicode="⁷" horiz-adv-x="317" d="M156 430h-25q-11 0 -4 11l208 353v2h-138q-5 0 -7 -6l-8 -42q-2 -10 -10 -10h-22q-10 0 -8 10l13 78q2 10 11 10h210q10 0 8 -10l-4 -25q-1 -7 -6 -15l-205 -348q-5 -8 -13 -8z"/>
<glyph glyph-name="eight.superior" unicode="⁸" horiz-adv-x="317" d="M200 463q39 0 68.5 28t29.5 67q0 29 -19 47t-50 18q-39 0 -68.5 -28t-29.5 -67q0 -29 19 -47t50 -18zM237 662q32 0 58.5 25t26.5 59q0 25 -17 41t-45 16q-32 0 -58.5 -25t-26.5 -59q0 -25 17 -41t45 -16zM194 423q-48 0 -76.5 26.5t-28.5 70.5q0 40 21 73t59 51v2 q-36 22 -36 68q0 52 39 90.5t95 38.5q44 0 70.5 -25.5t26.5 -65.5q0 -70 -67 -108v-1q19 -10 31 -31t12 -46q0 -61 -41.5 -102t-104.5 -41z"/>
<glyph glyph-name="nine.superior" unicode="⁹" horiz-adv-x="317" d="M231 635q41 0 69 30t28 73q0 29 -18 46.5t-49 17.5q-41 0 -69 -29.5t-28 -72.5q0 -30 18 -47.5t49 -17.5zM180 430h-29q-5 0 -6 3t2 7l118 167v1q-19 -12 -47 -12q-44 0 -70.5 26t-26.5 69q0 64 41 108t106 44q47 0 75 -27t28 -72q0 -53 -46 -120l-132 -185q-5 -9 -13 -9 z"/>
<glyph glyph-name="zero.inferior" unicode="₀" horiz-adv-x="317" d="M99 -122q53 0 79 51q12 24 27.5 109t15.5 116q0 62 -61 62q-53 0 -78 -50q-12 -24 -28 -110t-16 -116q0 -62 61 -62zM93 -163q-46 0 -72 26t-26 72q0 34 17 126t30 118q36 78 124 78q46 0 72.5 -26t26.5 -72q0 -33 -17.5 -125t-30.5 -119q-36 -78 -124 -78z"/>
<glyph glyph-name="one.inferior" unicode="₁" horiz-adv-x="317" d="M118 -156h-22q-10 0 -8 10l60 341h-2l-74 -46q-4 -3 -7 -1.5t-2 6.5l4 28q1 8 10 14l74 48q9 6 16 6h22q11 0 9 -10l-68 -386q-2 -10 -12 -10z"/>
<glyph glyph-name="two.inferior" unicode="₂" horiz-adv-x="317" d="M200 -156h-215q-10 0 -8 10l4 20q1 8 8 14l182 183q49 49 49 90q0 26 -15.5 40.5t-42.5 14.5q-58 0 -84 -61q-3 -9 -12 -8l-21 5q-8 2 -5 12q13 39 47 66t80 27q45 0 70 -25.5t25 -63.5q0 -61 -61 -122l-162 -161v-1h168q10 0 8 -10l-3 -20q-2 -10 -12 -10z"/>
<glyph glyph-name="three.inferior" unicode="₃" horiz-adv-x="317" d="M94 -163q-45 0 -72 23t-33 60q-2 9 8 12l22 6q8 2 11 -7q9 -53 68 -53q40 0 66.5 27t26.5 67q0 28 -17.5 45t-48.5 17h-17q-9 0 -7 10l3 21q2 10 12 10h13q36 0 61.5 25t25.5 62q0 25 -15.5 39.5t-43.5 14.5q-56 0 -80 -48q-5 -9 -12 -8l-20 6q-8 1 -5 11q14 34 45.5 57 t77.5 23q45 0 70.5 -24.5t25.5 -62.5q0 -77 -69 -112v-1q44 -23 44 -78q0 -62 -39 -102t-101 -40z"/>
<glyph glyph-name="four.inferior" unicode="₄" horiz-adv-x="317" d="M164 -156h-22q-9 0 -7 10l10 61q1 6 -5 6h-155q-10 0 -8 10l3 21q1 6 7 15l177 273q6 10 14 10h27q4 0 5.5 -3t-1.5 -7l-178 -278v-1h116q5 0 7 6l18 100q2 10 11 10h22q10 0 8 -10l-17 -100q-2 -6 5 -6h35q9 0 7 -10l-3 -21q-2 -9 -10 -9h-37q-5 0 -6 -6l-11 -61 q-2 -10 -12 -10z"/>
<glyph glyph-name="five.inferior" unicode="₅" horiz-adv-x="317" d="M96 -163q-45 0 -68.5 22.5t-27.5 58.5q-2 10 6 13l24 8q8 1 9 -6q10 -55 64 -55q52 0 76 47q7 14 13 43t6 46q0 56 -59 56q-47 0 -71 -38q-5 -9 -13 -9h-22q-10 0 -8 10l36 207q2 10 11 10h195q10 0 8 -10l-4 -21q-1 -9 -10 -9h-158q-5 0 -7 -6l-23 -125h1q26 32 78 32 q40 0 64.5 -22.5t24.5 -63.5q0 -23 -7.5 -60.5t-17.5 -56.5q-35 -71 -120 -71z"/>
<glyph glyph-name="six.inferior" unicode="₆" horiz-adv-x="317" d="M100 -122q41 0 69 29.5t28 72.5q0 30 -18 47.5t-49 17.5q-41 0 -69 -30t-28 -73q0 -29 18 -46.5t49 -17.5zM93 -163q-47 0 -75 27t-28 72q0 53 46 120l132 185q5 9 13 9h29q4 0 5.5 -3t-1.5 -7l-119 -167l1 -1q19 12 47 12q44 0 70 -26t26 -69q0 -64 -40.5 -108 t-105.5 -44z"/>
<glyph glyph-name="seven.inferior" unicode="₇" horiz-adv-x="317" d="M54 -156h-25q-11 0 -4 11l208 353v2h-138q-5 0 -7 -6l-8 -42q-2 -10 -10 -10h-22q-10 0 -8 10l13 78q2 10 11 10h210q10 0 8 -10l-4 -25q-1 -7 -6 -15l-205 -348q-5 -8 -13 -8z"/>
<glyph glyph-name="eight.inferior" unicode="₈" horiz-adv-x="317" d="M99 -123q39 0 68.5 28t29.5 67q0 29 -19 47t-50 18q-39 0 -68.5 -28t-29.5 -67q0 -29 19 -47t50 -18zM136 76q32 0 58.5 25t26.5 59q0 25 -17 41t-45 16q-32 0 -58.5 -25t-26.5 -59q0 -25 17 -41t45 -16zM93 -163q-48 0 -76.5 26.5t-28.5 70.5q0 40 21 73t59 51v2 q-36 22 -36 68q0 52 39 90.5t95 38.5q44 0 70.5 -25.5t26.5 -65.5q0 -70 -67 -108v-1q19 -10 31 -31t12 -46q0 -61 -41.5 -102t-104.5 -41z"/>
<glyph glyph-name="nine.inferior" unicode="₉" horiz-adv-x="317" d="M130 49q41 0 69 30t28 73q0 29 -18 46.5t-49 17.5q-41 0 -69 -29.5t-28 -72.5q0 -30 18 -47.5t49 -17.5zM79 -156h-29q-4 0 -5.5 3t1.5 7l118 167v1q-19 -12 -47 -12q-44 0 -70.5 26t-26.5 69q0 64 41 108t106 44q47 0 75 -27t28 -72q0 -53 -46 -120l-132 -185 q-5 -9 -13 -9z"/>
<glyph glyph-name="Euro" unicode="€" d="M241 -10q-72 0 -111.5 40.5t-39.5 116.5q0 34 13 107q1 6 -5 6h-45q-10 0 -8 10l4 23q2 10 11 10h45q5 0 7 6l13 69q2 6 -5 6h-45q-10 0 -8 10l3 22q2 10 12 10h44q6 0 7 5q20 97 39 137q58 122 192 122q63 0 99 -32.5t48 -84.5q3 -8 -6 -12l-26 -13q-9 -4 -12 6 q-13 44 -38.5 66t-72.5 22q-94 0 -137 -87q-22 -46 -35 -123q-2 -6 5 -6h197q4 0 5.5 -3.5t-0.5 -7.5l-11 -22q-5 -9 -13 -9h-186q-5 0 -7 -6l-12 -69q-2 -6 5 -6h178q4 0 5.5 -3.5t-0.5 -7.5l-12 -23q-5 -9 -13 -9h-165q-6 0 -7 -6q-13 -74 -13 -99q0 -117 108 -117 q85 0 143 88q5 9 13 6l24 -13q8 -4 3 -13q-68 -116 -190 -116z"/>
<glyph glyph-name="afii61289" unicode="ℓ" horiz-adv-x="353" d="M214 519l-31 -172q134 132 134 249q0 50 -33 50q-48 0 -70 -127zM80 214q-8 -7 -13 1l-11 21q-5 9 3 14l66 53l38 213q16 90 46.5 132t79.5 42q34 0 54.5 -24t20.5 -67q0 -149 -193 -316l-32 -183q-2 -8 -2 -21q0 -41 36 -41q29 0 64 33q8 6 13 -1l11 -20q4 -8 -2 -14 q-46 -46 -98 -46q-75 0 -75 79q0 14 3 32l25 140z"/>
<glyph glyph-name="trademark" unicode="™" horiz-adv-x="816" d="M232 286h-21q-10 0 -10 10v340q0 6 -6 6h-111q-10 0 -10 10v18q0 10 10 10h275q10 0 10 -10v-18q0 -10 -10 -10h-111q-6 0 -6 -6v-340q0 -10 -10 -10zM788 286h-20q-10 0 -10 10v289h-2l-115 -235q-4 -8 -12 -8h-18q-7 0 -11 8l-115 235h-2v-289q0 -10 -10 -10h-20 q-10 0 -10 10v374q0 10 10 10h21q8 0 13 -9l134 -277h2l131 277q4 9 12 9h22q10 0 10 -10v-374q0 -10 -10 -10z"/>
<glyph glyph-name="estimated" unicode="℮" horiz-adv-x="646" d="M454 272v130q-60 54 -132 54q-78 0 -130 -54v-130h262zM322 -10q-104 0 -167.5 71.5t-63.5 177.5t63.5 177t167.5 71t168 -69t65 -179h-363v-164q53 -51 130 -51q110 0 173 108l32 -21q-42 -64 -89 -92.5t-116 -28.5z"/>
<glyph glyph-name="onethird" unicode="⅓" horiz-adv-x="830" d="M596 -7q-45 0 -72 23t-33 60q-2 9 8 12l22 6q8 2 11 -7q9 -53 68 -53q40 0 66.5 27t26.5 67q0 28 -17.5 45t-48.5 17h-17q-9 0 -7 10l3 21q2 10 12 10h13q36 0 61.5 25t25.5 62q0 25 -15.5 39.5t-43.5 14.5q-56 0 -80 -48q-5 -9 -12 -8l-20 6q-8 1 -5 11q14 34 45.5 57 t77.5 23q45 0 70.5 -24.5t25.5 -62.5q0 -77 -69 -112v-1q44 -23 44 -78q0 -62 -39 -102t-101 -40zM213 274h-22q-10 0 -8 10l60 341h-2l-74 -46q-4 -3 -7 -1.5t-2 6.5l4 28q1 8 10 14l74 48q9 6 16 6h22q11 0 9 -10l-68 -386q-2 -10 -12 -10zM173 -10h-25q-12 0 -4 10 l497 680q7 10 16 10h25q9 0 4 -10l-497 -680q-9 -10 -16 -10z"/>
<glyph glyph-name="twothirds" unicode="⅔" horiz-adv-x="925" d="M691 -7q-45 0 -72 23t-33 60q-2 9 8 12l22 6q8 2 11 -7q9 -53 68 -53q40 0 66.5 27t26.5 67q0 28 -17.5 45t-48.5 17h-17q-9 0 -7 10l3 21q2 10 12 10h13q36 0 61.5 25t25.5 62q0 25 -15.5 39.5t-43.5 14.5q-56 0 -80 -48q-5 -9 -12 -8l-20 6q-8 1 -5 11q14 34 45.5 57 t77.5 23q45 0 70.5 -24.5t25.5 -62.5q0 -77 -69 -112v-1q44 -23 44 -78q0 -62 -39 -102t-101 -40zM332 274h-215q-10 0 -8 10l4 20q1 7 8 14l182 183q49 49 49 90q0 26 -15.5 40.5t-42.5 14.5q-58 0 -84 -61q-3 -9 -12 -8l-21 5q-8 2 -5 12q13 39 47 66t80 27q45 0 70 -25.5 t25 -63.5q0 -61 -61 -122l-162 -161v-1h168q10 0 8 -10l-3 -20q-2 -10 -12 -10zM267 -10h-25q-12 0 -4 10l497 680q7 10 16 10h25q9 0 4 -10l-497 -680q-9 -10 -16 -10z"/>
<glyph glyph-name="oneeighth" unicode="⅛" horiz-adv-x="829" d="M596 33q39 0 68.5 28t29.5 67q0 29 -19 47t-50 18q-39 0 -68.5 -28t-29.5 -67q0 -29 19 -47t50 -18zM633 232q32 0 58.5 25t26.5 59q0 25 -17 41t-45 16q-32 0 -58.5 -25t-26.5 -59q0 -25 17 -41t45 -16zM590 -7q-48 0 -76.5 26.5t-28.5 70.5q0 40 21 73t59 51v2 q-36 22 -36 68q0 52 39 90.5t95 38.5q44 0 70.5 -25.5t26.5 -65.5q0 -70 -67 -108v-1q19 -10 31 -31t12 -46q0 -61 -41.5 -102t-104.5 -41zM213 274h-22q-10 0 -8 10l60 341h-2l-74 -46q-4 -3 -7 -1.5t-2 6.5l4 28q1 8 10 14l74 48q9 6 16 6h22q11 0 9 -10l-68 -386 q-2 -10 -12 -10zM173 -10h-25q-12 0 -4 10l497 680q7 10 16 10h25q9 0 4 -10l-497 -680q-9 -10 -16 -10z"/>
<glyph glyph-name="threeeighths" unicode="⅜" horiz-adv-x="894" d="M222 267q-45 0 -72 23t-33 60q-2 9 8 12l22 6q8 2 11 -7q9 -53 68 -53q40 0 66.5 27t26.5 67q0 28 -17.5 45t-48.5 17h-17q-9 0 -7 10l3 21q2 10 12 10h13q36 0 61.5 25t25.5 62q0 25 -15.5 39.5t-43.5 14.5q-56 0 -80 -48q-5 -9 -12 -8l-20 6q-8 1 -5 11q14 34 45.5 57 t77.5 23q45 0 70.5 -24.5t25.5 -62.5q0 -77 -69 -112v-1q44 -23 44 -78q0 -62 -39 -102t-101 -40zM661 33q39 0 68.5 28t29.5 67q0 29 -19 47t-50 18q-39 0 -68.5 -28t-29.5 -67q0 -29 19 -47t50 -18zM698 232q32 0 58.5 25t26.5 59q0 25 -17 41t-45 16q-32 0 -58.5 -25 t-26.5 -59q0 -25 17 -41t45 -16zM655 -7q-48 0 -76.5 26.5t-28.5 70.5q0 40 21 73t59 51v2q-36 22 -36 68q0 52 39 90.5t95 38.5q44 0 70.5 -25.5t26.5 -65.5q0 -70 -67 -108v-1q19 -10 31 -31t12 -46q0 -61 -41.5 -102t-104.5 -41zM237 -10h-25q-12 0 -4 10l497 680 q7 10 16 10h25q9 0 4 -10l-497 -680q-9 -10 -16 -10z"/>
<glyph glyph-name="fiveeighths" unicode="⅝" horiz-adv-x="890" d="M218 267q-45 0 -68.5 22.5t-27.5 58.5q-2 10 6 13l24 8q8 1 9 -6q10 -55 64 -55q52 0 76 47q7 14 13 43t6 46q0 56 -59 56q-47 0 -71 -38q-5 -9 -13 -9h-22q-10 0 -8 10l36 207q2 10 11 10h195q10 0 8 -10l-4 -21q-1 -9 -10 -9h-158q-5 0 -7 -6l-23 -125h1q26 32 78 32 q40 0 64.5 -22.5t24.5 -63.5q0 -23 -7.5 -60.5t-17.5 -56.5q-35 -71 -120 -71zM657 33q39 0 68.5 28t29.5 67q0 29 -19 47t-50 18q-39 0 -68.5 -28t-29.5 -67q0 -29 19 -47t50 -18zM694 232q32 0 58.5 25t26.5 59q0 25 -17 41t-45 16q-32 0 -58.5 -25t-26.5 -59 q0 -25 17 -41t45 -16zM651 -7q-48 0 -76.5 26.5t-28.5 70.5q0 40 21 73t59 51v2q-36 22 -36 68q0 52 39 90.5t95 38.5q44 0 70.5 -25.5t26.5 -65.5q0 -70 -67 -108v-1q19 -10 31 -31t12 -46q0 -61 -41.5 -102t-104.5 -41zM233 -10h-25q-12 0 -4 10l497 680q7 10 16 10h25 q9 0 4 -10l-497 -680q-9 -10 -16 -10z"/>
<glyph glyph-name="seveneighths" unicode="⅞" horiz-adv-x="813" d="M175 274h-25q-11 0 -4 11l208 353v2h-138q-6 0 -7 -6l-8 -42q-2 -10 -10 -10h-22q-10 0 -8 10l13 78q2 10 11 10h210q10 0 8 -10l-4 -25q-1 -7 -6 -15l-205 -348q-5 -8 -13 -8zM580 33q39 0 68.5 28t29.5 67q0 29 -19 47t-50 18q-39 0 -68.5 -28t-29.5 -67q0 -29 19 -47 t50 -18zM617 232q32 0 58.5 25t26.5 59q0 25 -17 41t-45 16q-32 0 -58.5 -25t-26.5 -59q0 -25 17 -41t45 -16zM574 -7q-48 0 -76.5 26.5t-28.5 70.5q0 40 21 73t59 51v2q-36 22 -36 68q0 52 39 90.5t95 38.5q44 0 70.5 -25.5t26.5 -65.5q0 -70 -67 -108v-1q19 -10 31 -31 t12 -46q0 -61 -41.5 -102t-104.5 -41zM157 -10h-25q-12 0 -4 10l497 680q7 10 16 10h25q9 0 4 -10l-497 -680q-9 -10 -16 -10z"/>
<glyph glyph-name="partialdiff" unicode="∂" horiz-adv-x="509" d="M222 38q72 0 124 62.5t80 172.5q-43 95 -135 95q-80 0 -130.5 -61.5t-50.5 -145.5q0 -57 30 -90t82 -33zM211 -10q-71 0 -110.5 45.5t-39.5 119.5q0 103 63.5 181t165.5 78q100 0 147 -90h1q14 75 14 131q0 88 -32 138t-97 50q-55 0 -121 -45q-7 -6 -11 3l-11 24 q-3 7 5 14q71 51 146 51q86 0 127.5 -61t41.5 -166q0 -74 -18.5 -160t-49.5 -151q-79 -162 -221 -162z"/>
<glyph glyph-name="product" unicode="∏" horiz-adv-x="637" d="M538 -180h-37q-10 0 -10 10v849q0 6 -6 6h-333q-6 0 -6 -6v-849q0 -10 -10 -10h-37q-10 0 -10 10v900q0 10 10 10h439q10 0 10 -10v-900q0 -10 -10 -10z"/>
<glyph glyph-name="summation" unicode="∑" horiz-adv-x="531" d="M474 -180h-403q-10 0 -10 10v31q0 5 2 9l195 452l-190 362q-3 6 -3 11v35q0 10 10 10h389q10 0 10 -10v-35q0 -10 -10 -10h-333l186 -352q3 -7 0 -14l-192 -444h349q10 0 10 -10v-35q0 -10 -10 -10z"/>
<glyph glyph-name="minus" unicode="−" d="M447 253h-376q-10 0 -10 10v27q0 10 10 10h376q10 0 10 -10v-27q0 -10 -10 -10z"/>
<glyph glyph-name="uni2215" unicode="∕" horiz-adv-x="201" d="M-121 -10h-25q-12 0 -4 10l497 680q7 10 16 10h25q9 0 4 -10l-497 -680q-9 -10 -16 -10z"/>
<glyph glyph-name="uni2219" unicode="∙" horiz-adv-x="209" d="M129 223h-46q-10 0 -8 10l11 65q2 10 11 10h45q10 0 8 -10l-10 -65q-2 -10 -11 -10z"/>
<glyph glyph-name="radical" unicode="√" horiz-adv-x="600" d="M244 -180h-25q-8 0 -11 10l-88 302q-2 6 -8 3l-76 -35q-10 -4 -12 4l-7 24q-3 10 5 13l118 54q10 5 12 -4l84 -297h3l370 836q4 10 13 10h28q11 0 6 -10l-399 -900q-4 -10 -13 -10z"/>
<glyph glyph-name="infinity" unicode="∞" horiz-adv-x="770" d="M200 131q37 0 72 26.5t85 89.5q-51 63 -85.5 89t-71.5 26q-51 0 -80.5 -32t-29.5 -82t31 -83.5t79 -33.5zM569 131q50 0 80.5 35t30.5 82q0 50 -29.5 82t-81.5 32q-37 0 -71.5 -26t-85.5 -90q53 -66 86 -90.5t71 -24.5zM571 90q-48 0 -91.5 29t-94.5 92q-52 -63 -95 -92 t-92 -29q-66 0 -108 43.5t-42 113.5t41.5 113t109.5 43q47 0 90 -29.5t95 -92.5q54 65 97 93.5t89 28.5q68 0 110 -42.5t42 -113.5q0 -69 -42 -113t-109 -44z"/>
<glyph glyph-name="integral" unicode="∫" horiz-adv-x="364" d="M19 -180q-22 0 -30 2t-7 10l4 27q2 12 11 10q9 -1 25 -1q71 0 93 115l103 581q16 94 51.5 134.5t96.5 42.5q14 0 30 -2q8 -2 7 -10l-4 -28q-2 -12 -11 -10q-18 2 -25 2q-71 0 -93 -116l-103 -580q-16 -94 -51.5 -134.5t-96.5 -42.5z"/>
<glyph glyph-name="approxequal" unicode="≈" d="M348 123q-42 0 -97 40q-45 31 -75 31q-46 0 -82 -56q-5 -8 -13 -3l-18 11q-7 4 -3 14q40 79 118 79q44 0 97 -39q46 -32 75 -32q47 0 81 57q5 9 14 2l17 -11q9 -4 3 -14q-39 -79 -117 -79zM348 313q-44 0 -97 39q-46 32 -75 32q-26 0 -44.5 -13t-37.5 -44q-5 -8 -13 -2 l-18 11q-7 4 -3 14q40 79 118 79q42 0 97 -40q45 -31 75 -31q47 0 81 56q5 8 14 3l17 -11q9 -4 3 -14q-39 -79 -117 -79z"/>
<glyph glyph-name="notequal" unicode="≠" d="M137 45h-25q-11 0 -5 10l57 100h-97q-10 0 -10 10v28q0 10 10 10h124l83 146h-207q-10 0 -10 10v28q0 10 10 10h235l57 100q4 10 14 10h25q11 0 5 -10l-57 -100h97q10 0 10 -10v-28q0 -10 -10 -10h-125l-83 -146h208q10 0 10 -10v-28q0 -10 -10 -10h-235l-57 -100 q-4 -10 -14 -10z"/>
<glyph glyph-name="lessequal" unicode="≤" d="M449 0h-376q-10 0 -10 10v28q0 10 10 10h376q10 0 10 -10v-28q0 -10 -10 -10zM449 128l-376 154q-10 4 -10 13v23q0 9 10 13l376 154q10 3 10 -7v-32q0 -9 -10 -13l-319 -125v-2l319 -126q10 -4 10 -13v-32q0 -10 -10 -7z"/>
<glyph glyph-name="greaterequal" unicode="≥" d="M445 0h-376q-10 0 -10 10v28q0 10 10 10h376q10 0 10 -10v-28q0 -10 -10 -10zM445 282l-376 -154q-10 -3 -10 7v32q0 9 10 13l318 126v2l-318 125q-10 4 -10 13v32q0 10 10 7l376 -154q10 -4 10 -13v-23q0 -9 -10 -13z"/>
<glyph glyph-name="lozenge" unicode="◊" horiz-adv-x="535" d="M230 10l208 324l-91 313h-2l-210 -324l93 -313h2zM233 -52h-28q-7 0 -9 10l-109 364q-1 7 3 14l236 364q7 10 14 10h27q8 0 11 -10l107 -364q1 -7 -3 -14l-235 -364q-7 -10 -14 -10z"/>
<glyph glyph-name="uniF8FF" unicode="" horiz-adv-x="470" d="M241 113h-31q-10 0 -10 10v39q0 10 10 10h31q10 0 10 -10v-39q0 -10 -10 -10zM237 224h-22q-10 0 -10 10v24q0 40 22 67l37 48q37 44 37 80q0 31 -20 50.5t-52 19.5q-62 0 -77 -67q-2 -9 -12 -8l-21 4q-10 2 -8 11q8 44 40 71.5t79 27.5q50 0 81 -31t31 -78 q0 -49 -38 -94l-37 -48q-20 -25 -20 -55v-22q0 -10 -10 -10zM425 37q6 0 6 6v594q0 6 -6 6h-380q-6 0 -6 -6v-594q0 -6 6 -6h380zM460 0h-450q-10 0 -10 10v660q0 10 10 10h450q10 0 10 -10v-660q0 -10 -10 -10z"/>
<glyph glyph-name="CR" horiz-adv-x="0"/>
<glyph glyph-name="grave.cap" horiz-adv-x="404" d="M360 764h-22q-9 0 -16 10l-72 104q-2 4 -0.5 7t5.5 3h33q10 0 17 -10l60 -104q3 -4 1.5 -7t-6.5 -3z"/>
<glyph glyph-name="acute.cap" horiz-adv-x="404" d="M258 764h-24q-11 0 -2 11l94 103q10 10 19 10h36q5 0 6 -3t-3 -7l-107 -104q-10 -10 -19 -10z"/>
<glyph glyph-name="circumflex.cap" horiz-adv-x="404" d="M402 755h-19q-10 0 -16 9l-52 91h-2l-86 -91q-8 -9 -18 -9h-23q-4 0 -5 3t3 7l107 122q8 9 17 9h20q8 0 13 -9l65 -122q6 -10 -4 -10z"/>
<glyph glyph-name="caron.cap" horiz-adv-x="404" d="M304 754h-20q-8 0 -13 9l-66 122q-2 4 -0.5 7t5.5 3h19q10 0 15 -9l53 -90h2l86 90q8 9 18 9h22q5 0 6 -3t-3 -7l-107 -122q-8 -9 -17 -9z"/>
<glyph glyph-name="caron.alt" horiz-adv-x="404" d="M240 538q-9 0 -7 10l21 122q2 10 11 10h36q10 0 8 -10l-8 -46q-3 -14 -8 -21l-40 -57q-6 -8 -13 -8z"/>
<glyph glyph-name="tilde.cap" horiz-adv-x="404" d="M353 784q-27 0 -54 20q-23 18 -44 18q-28 0 -61 -33q-3 -3 -6 -1.5t-2 4.5l4 30q1 8 10 15q28 28 64 28q26 0 54 -21q25 -18 44 -18q27 0 62 33q3 3 6 2t2 -5l-5 -29q-1 -9 -10 -16q-29 -27 -64 -27z"/>
<glyph glyph-name="dieresis.cap" horiz-adv-x="404" d="M225 787h-37q-10 0 -8 10l9 54q2 10 11 10h37q10 0 8 -10l-9 -54q-2 -10 -11 -10zM417 787h-37q-10 0 -8 10l9 54q2 10 11 10h37q10 0 8 -10l-9 -54q-2 -10 -11 -10z"/>
<glyph glyph-name="macron.cap" horiz-adv-x="404" d="M422 802h-234q-10 0 -8 10l4 23q1 10 11 10h233q10 0 8 -10l-3 -23q-2 -10 -11 -10z"/>
<glyph glyph-name="breve.cap" horiz-adv-x="404" d="M299 769q-47 0 -74 27.5t-27 72.5q0 12 10 12h16q9 0 11 -10q5 -62 70 -62q64 0 93 62q5 10 13 10h17q10 0 7 -10q-15 -46 -51.5 -74t-84.5 -28z"/>
<glyph glyph-name="ring.cap" horiz-adv-x="404" d="M300 769q26 0 44.5 20t18.5 48q0 21 -12 33.5t-33 12.5q-26 0 -44.5 -20t-18.5 -48q0 -21 12 -33.5t33 -12.5zM294 739q-31 0 -50.5 20t-19.5 51q0 43 28.5 73t71.5 30q31 0 51 -20t20 -51q0 -43 -28.5 -73t-72.5 -30z"/>
<glyph glyph-name="hungarumlaut.cap" horiz-adv-x="404" d="M222 765h-21q-4 0 -5.5 2.5t1.5 7.5l83 104q8 10 18 10h28q4 0 5.5 -3t-1.5 -7l-92 -105q-6 -9 -16 -9zM340 765h-21q-4 0 -5.5 2.5t1.5 7.5l83 104q8 10 18 10h27q5 0 6 -3t-2 -7l-91 -105q-6 -9 -16 -9z"/>
<glyph glyph-name="dotaccent.cap" horiz-adv-x="404" d="M323 787h-42q-10 0 -8 10l9 54q2 10 11 10h42q10 0 8 -10l-9 -54q-2 -10 -11 -10z"/>
<glyph glyph-name="commaaccent" horiz-adv-x="404" d="M111 -196q-10 0 -8 10l21 121q2 10 12 10h35q10 0 8 -10l-7 -45q-2 -9 -9 -22l-40 -56q-6 -8 -12 -8z"/>
<glyph glyph-name="commaaccent.alt" horiz-adv-x="404" d="M282 573h-36q-10 0 -8 10l8 45q3 13 8 21l41 56q5 8 12 8q9 0 7 -9l-21 -121q-2 -10 -11 -10z"/>
<glyph glyph-name="uni0394" horiz-adv-x="574" d="M443 47q7 0 5 6l-89 541h-2l-283 -541q-3 -6 3 -6h366zM498 0h-497q-10 0 -5 10l345 660q5 10 13 10h33q7 0 9 -10l110 -660q2 -10 -8 -10z"/>
<glyph glyph-name="uni03A9" horiz-adv-x="584" d="M467 0h-166q-10 0 -8 10l5 33q1 8 11 11q82 28 119 87.5t63 198.5q17 96 17 149q0 73 -36 111.5t-105 38.5q-123 0 -180 -115q-29 -57 -52 -184q-16 -90 -16 -137q0 -62 22.5 -96t74.5 -53q8 -3 7 -11l-5 -33q-2 -10 -11 -10h-165q-10 0 -8 10l5 30q2 10 10 10h90l1 2 q-38 23 -56 57t-18 90q0 46 17 141q24 137 53 198q74 152 239 152q88 0 137.5 -50.5t49.5 -143.5q0 -51 -18 -156q-23 -133 -57.5 -194.5t-99.5 -93.5v-2h87q9 0 7 -10l-4 -30q-2 -10 -10 -10z"/>
<glyph glyph-name="uni03BC" horiz-adv-x="521" d="M384 0h-32q-10 0 -8 10l11 56h-1q-51 -76 -143 -76q-78 0 -101 53h-2l-37 -213q-2 -10 -11 -10h-32q-10 0 -8 10l112 637q2 10 11 10h31q10 0 8 -10l-51 -293q-4 -20 -4 -42q0 -94 98 -94q53 0 95.5 38t52.5 97l52 294q2 10 11 10h32q10 0 8 -10l-81 -457q-2 -10 -11 -10 z"/>
<glyph glyph-name="zero.onum" d="M222 39q93 0 154.5 72t61.5 169q0 71 -38 114.5t-107 43.5q-93 0 -155 -72.5t-62 -169.5q0 -71 38 -114t108 -43zM214 -10q-87 0 -137.5 54.5t-50.5 143.5q0 124 76 211.5t198 87.5q87 0 137.5 -55t50.5 -143q0 -124 -76 -211.5t-198 -87.5z"/>
<glyph glyph-name="one.onum" d="M265 0h-31q-10 0 -8 10l72 406h-2l-147 -63q-4 -2 -7 0t-2 7l5 34q2 9 10 13l147 65q9 5 17 5h30q10 0 8 -10l-81 -457q-2 -10 -11 -10z"/>
<glyph glyph-name="two.onum" d="M385 0h-336q-11 0 -9 9l3 25q2 8 9 13l218 130q74 43 104 80.5t30 85.5q0 45 -27.5 70.5t-80.5 25.5q-105 0 -152 -109q-3 -9 -14 -7l-26 6q-9 2 -6 12q23 62 77.5 104t128.5 42q72 0 111 -38t39 -97q0 -64 -35 -112t-118 -97l-162 -93v-2h254q10 0 8 -10l-5 -28 q-2 -10 -11 -10z"/>
<glyph glyph-name="three.onum" d="M181 -190q-69 0 -109.5 38.5t-45.5 101.5q-2 9 8 12l27 8q9 2 10 -7q6 -48 35.5 -76.5t82.5 -28.5q72 0 120 56.5t48 132.5q0 115 -131 115h-24q-10 0 -8 10l4 28q2 8 9 15l188 211v2h-265q-11 0 -9 10l5 28q2 10 12 10h319q10 0 8 -9l-4 -27q-1 -7 -8 -14l-195 -218v-2 q71 -2 109 -40.5t38 -106.5q0 -103 -62 -176t-162 -73z"/>
<glyph glyph-name="four.onum" d="M289 -180h-30q-10 0 -8 10l29 164q2 6 -4 6h-249q-9 0 -7 10l4 27q1 6 4 10l265 421q4 8 14 8h33q11 0 6 -9l-262 -417v-2h199q5 0 7 6l33 184q2 10 11 10h31q10 0 8 -10l-32 -184q-1 -6 5 -6h72q10 0 8 -10l-4 -28q-2 -10 -10 -10h-74q-6 0 -8 -6l-29 -164 q-2 -10 -12 -10z"/>
<glyph glyph-name="five.onum" d="M192 -190q-73 0 -112 39.5t-39 104.5q0 10 9 11l29 7q10 1 10 -8q1 -49 28 -77.5t80 -28.5q87 0 127 80q32 65 32 157q0 106 -97 106q-45 0 -80.5 -24t-51.5 -60q-5 -10 -12 -10h-29q-9 0 -7 10l61 350q2 10 11 10h306q11 0 9 -10l-5 -29q-2 -10 -12 -10h-262q-5 0 -7 -6 l-42 -234h1q45 61 132 61q65 0 100.5 -36t35.5 -106q0 -41 -10 -96t-28 -94q-53 -107 -177 -107z"/>
<glyph glyph-name="six.onum" d="M222 38q74 0 122.5 57.5t48.5 134.5q0 55 -31 87.5t-84 32.5q-73 0 -121.5 -57.5t-48.5 -134.5q0 -54 30.5 -87t83.5 -33zM218 -10q-74 0 -117.5 43t-43.5 119q0 91 70 195l221 326q6 7 14 7h35q12 0 5 -9l-200 -296l2 -1q30 24 88 24q69 0 111 -43t42 -115 q0 -102 -63 -176t-164 -74z"/>
<glyph glyph-name="seven.onum" d="M121 -180h-33q-11 0 -5 11l332 595v2h-239q-6 0 -7 -6l-17 -95q-2 -10 -12 -10h-29q-10 0 -8 10l24 140q2 10 11 10h330q10 0 8 -10l-6 -33q-2 -10 -5 -13l-330 -592q-5 -9 -14 -9z"/>
<glyph glyph-name="eight.onum" d="M224 38q70 0 120.5 52t50.5 127q0 52 -32 84.5t-87 32.5q-70 0 -120.5 -52.5t-50.5 -126.5q0 -52 32 -84.5t87 -32.5zM285 382q64 0 107 45.5t43 111.5q0 46 -28 74.5t-76 28.5q-63 0 -106.5 -45.5t-43.5 -111.5q0 -46 28.5 -74.5t75.5 -28.5zM217 -10q-74 0 -118 43 t-44 112q0 70 37 128t102 86v2q-63 34 -63 117q0 85 57 148.5t150 63.5q68 0 107.5 -40t39.5 -104q0 -61 -31.5 -111.5t-85.5 -75.5l-1 -2q78 -40 78 -134q0 -97 -64.5 -165t-163.5 -68z"/>
<glyph glyph-name="nine.onum" d="M238 127q73 0 121.5 57.5t48.5 134.5q0 55 -31 87.5t-84 32.5q-73 0 -122 -57.5t-49 -134.5q0 -54 31 -87t85 -33zM170 -180h-35q-5 0 -6.5 3t1.5 6l184 272l-2 1q-31 -23 -88 -23q-70 0 -111.5 43t-41.5 115q0 102 63 176t164 74q74 0 117.5 -43.5t43.5 -119.5 q0 -90 -70 -194l-206 -303q-6 -7 -13 -7z"/>
<glyph glyph-name="zero.prop" d="M117 143q0 -49 27 -77t78 -28q91 0 133 86q21 43 50 199t29 214q0 49 -26.5 77t-77.5 28q-91 0 -133 -86q-21 -43 -50.5 -199t-29.5 -214zM66 136q0 65 30 226t53 208q57 120 187 120q70 0 110 -39t40 -107q0 -65 -30 -226t-53 -208q-57 -120 -187 -120q-70 0 -110 39 t-40 107z"/>
<glyph glyph-name="one.prop" horiz-adv-x="340" d="M125 10l107 602h-2l-134 -89q-5 -3 -8 -1t-2 8l6 40q1 8 9 13l138 91q9 6 15 6h29q11 0 9 -10l-116 -660q-2 -10 -11 -10h-31q-11 0 -9 10z"/>
<glyph glyph-name="two.prop" horiz-adv-x="480" d="M29 9l4 25q0 7 7 14l297 329q82 88 82 160q0 48 -28.5 76.5t-76.5 28.5q-52 0 -90 -32t-57 -87q-3 -10 -12 -8l-29 6q-8 2 -5 12q20 67 72 112t126 45q69 0 110 -41t41 -105q0 -53 -23.5 -98.5t-74.5 -101.5l-269 -294v-2h271q11 0 9 -10l-5 -28q-2 -10 -12 -10h-329 q-8 0 -8 9z"/>
<glyph glyph-name="three.prop" horiz-adv-x="492" d="M49 129q-2 10 8 13l30 8q9 2 10 -7q15 -105 118 -105q69 0 115.5 51.5t46.5 125.5q0 52 -30 84t-83 32h-30q-9 0 -7 10l4 29q3 9 11 9h29q64 0 108 46.5t44 111.5q0 48 -27.5 76.5t-77.5 28.5q-53 0 -88.5 -28.5t-52.5 -71.5q-3 -10 -12 -8l-28 8q-9 2 -6 12 q19 57 71 96.5t125 39.5q69 0 108 -39.5t39 -104.5q0 -64 -32.5 -113t-87.5 -75v-2q33 -14 54 -49t21 -83q0 -101 -61 -167.5t-158 -66.5q-76 0 -116 40.5t-45 98.5z"/>
<glyph glyph-name="four.prop" horiz-adv-x="511" d="M57 138q-9 0 -8 9l5 27q1 7 4 12l298 486q5 8 14 8h34q10 0 5 -9l-295 -484v-1h201q5 0 7 6l33 188q2 10 11 10h32q10 0 8 -10l-33 -188q-1 -6 5 -6h72q10 0 8 -10l-5 -29q-1 -9 -11 -9h-73q-5 0 -7 -6l-21 -122q-2 -10 -11 -10h-32q-10 0 -8 10l23 122q1 6 -5 6h-251z "/>
<glyph glyph-name="five.prop" horiz-adv-x="493" d="M74 145l30 7q10 1 10 -8q1 -49 28 -77.5t80 -28.5q86 0 126 80q16 32 27 85t11 89q0 106 -98 106q-44 0 -79.5 -24.5t-51.5 -59.5q-4 -10 -12 -10h-29q-9 0 -8 10l63 356q2 10 11 10h306q11 0 9 -10l-5 -28q-2 -10 -12 -10h-262q-6 0 -7 -6l-43 -241h1q45 61 132 61 q65 0 100.5 -36t35.5 -106q0 -43 -12 -105t-32 -102q-52 -107 -177 -107q-72 0 -111 39t-39 103q0 12 8 13z"/>
<glyph glyph-name="six.prop" horiz-adv-x="504" d="M109 158q0 -55 31 -87.5t84 -32.5q73 0 122 57.5t49 134.5q0 54 -31 87t-85 33q-73 0 -121.5 -57.5t-48.5 -134.5zM58 152q0 92 71 195l221 326q6 7 13 7h35q12 0 5 -9l-200 -296l2 -1q30 24 88 24q70 0 111.5 -43t41.5 -115q0 -102 -63 -176t-164 -74q-74 0 -117.5 43 t-43.5 119z"/>
<glyph glyph-name="seven.prop" horiz-adv-x="464" d="M86 11l345 619v2h-240q-5 0 -7 -6l-17 -95q-2 -10 -11 -10h-30q-9 0 -7 10l24 139q2 10 11 10h329q11 0 9 -10l-6 -33q-1 -4 -5 -12l-343 -616q-5 -9 -15 -9h-33q-10 0 -4 11z"/>
<glyph glyph-name="eight.prop" horiz-adv-x="514" d="M114 155q0 -52 32 -84.5t87 -32.5q70 0 120.5 52t50.5 127q0 52 -32 84.5t-87 32.5q-70 0 -120.5 -52.5t-50.5 -126.5zM294 382q64 0 107 45.5t43 111.5q0 46 -28 74.5t-76 28.5q-64 0 -107 -45.5t-43 -111.5q0 -46 28.5 -74.5t75.5 -28.5zM64 145q0 70 37 128t102 86v2 q-63 34 -63 117q0 85 57 148.5t150 63.5q68 0 107.5 -40t39.5 -104q0 -61 -32 -111.5t-86 -75.5v-2q78 -40 78 -134q0 -97 -64.5 -165t-163.5 -68q-74 0 -118 43t-44 112z"/>
<glyph glyph-name="nine.prop" horiz-adv-x="504" d="M270 330q74 0 122.5 57.5t48.5 133.5q0 55 -30.5 88t-84.5 33q-74 0 -122.5 -57.5t-48.5 -133.5q0 -55 30.5 -88t84.5 -33zM146 9l200 296l-2 1q-30 -24 -87 -24q-70 0 -112 44.5t-42 116.5q0 100 63 173.5t165 73.5q74 0 117.5 -43t43.5 -119q0 -89 -71 -195l-221 -326 q-6 -7 -14 -7h-35q-12 0 -5 9z"/>
<glyph glyph-name="Euro.prop" horiz-adv-x="518" d="M253 -10q-72 0 -111.5 40.5t-39.5 116.5q0 34 13 107q1 6 -5 6h-45q-10 0 -8 10l4 23q2 10 11 10h45q5 0 7 6l13 69q2 6 -5 6h-45q-10 0 -8 10l3 22q2 10 12 10h44q6 0 7 5q20 97 39 137q58 122 192 122q63 0 99 -32.5t48 -84.5q3 -8 -6 -12l-26 -13q-9 -4 -12 6 q-13 44 -38.5 66t-72.5 22q-94 0 -137 -87q-22 -46 -35 -123q-2 -6 5 -6h197q4 0 5.5 -3.5t-0.5 -7.5l-11 -22q-5 -9 -13 -9h-186q-5 0 -7 -6l-12 -69q-2 -6 5 -6h178q4 0 5.5 -3.5t-0.5 -7.5l-12 -23q-5 -9 -13 -9h-165q-6 0 -7 -6q-13 -74 -13 -99q0 -117 108 -117 q85 0 143 88q5 9 13 6l24 -13q8 -4 3 -13q-68 -116 -190 -116z"/>
<glyph glyph-name="cent.prop" horiz-adv-x="465" d="M113 159q0 -109 89 -120l70 398q-36 -5 -67.5 -28.5t-49.5 -61.5q-42 -85 -42 -188zM200 -102h-13q-10 0 -8 10l14 83q-64 6 -97.5 46.5t-33.5 112.5q0 117 44 213q55 114 174 123l15 82q2 10 11 10h13q10 0 8 -10l-14 -81q96 -6 127 -92q3 -10 -4 -14l-25 -14 q-10 -6 -13 4q-25 64 -94 68l-70 -401q68 6 118 69q7 9 15 2l20 -18q7 -6 0 -15q-64 -81 -162 -86l-14 -82q-2 -10 -11 -10z"/>
<glyph glyph-name="dollar.prop" horiz-adv-x="529" d="M252 40q68 7 110 55t42 115q0 86 -104 105zM275 372l47 268q-64 -5 -105 -50.5t-41 -111.5q0 -43 23 -69.5t76 -36.5zM39 51q-6 6 1 13l21 24q7 7 14 1q62 -47 141 -50l50 282q-141 23 -141 151q0 92 58 152.5t148 65.5l9 51q2 10 11 10h17q10 0 7 -10l-9 -52 q74 -6 130 -46q6 -6 1 -14l-18 -23q-6 -8 -14 -2q-56 33 -108 36l-48 -273q146 -21 146 -148q0 -96 -57.5 -158t-153.5 -70l-9 -52q-2 -10 -12 -10h-16q-10 0 -8 10l9 51q-104 3 -169 61z"/>
<glyph glyph-name="sterling.prop" horiz-adv-x="454" d="M368 0h-314q-10 0 -8 10l4 29q1 4 7 10q25 22 37.5 45t20.5 64l24 135q1 6 -5 6h-47q-10 0 -8 10l4 23q2 10 12 10h47q6 0 7 6l30 169q15 87 59 130t111 43q54 0 85.5 -32t34.5 -87q0 -10 -8 -12l-29 -8q-10 -3 -10 7q-2 40 -23 62t-56 22q-44 0 -73.5 -31t-39.5 -88 l-31 -175q-1 -6 4 -6h132q10 0 8 -10l-4 -23q-2 -10 -12 -10h-131q-6 0 -7 -6l-23 -129q-13 -80 -53 -114v-2h262q10 0 8 -10l-4 -28q-2 -10 -11 -10z"/>
<glyph glyph-name="florin.prop" horiz-adv-x="434" d="M396 350h-103l-126 -390q-25 -77 -61.5 -108.5t-100.5 -31.5h-21q-10 0 -8 10l4 27q1 10 12 10h19q40 0 64 20.5t41 70.5l127 392h-82q-10 0 -8 10l4 24q2 10 12 10h88l48 146q25 77 62 108.5t100 31.5h21q11 0 9 -10l-5 -27q-1 -10 -12 -10h-19q-40 0 -64 -20.5 t-41 -70.5l-48 -148h96q10 0 8 -10l-4 -24q-2 -10 -12 -10z"/>
<glyph glyph-name="yen.prop" horiz-adv-x="488" d="M231 0h-31q-10 0 -8 10l26 145q2 6 -5 6h-127q-10 0 -8 10l4 22q2 10 11 10h127q6 0 7 6l11 63q2 6 -5 6h-127q-10 0 -8 10l4 22q2 10 12 10h115v2l-94 347q-4 11 8 11h33q9 0 12 -10l85 -330h2l201 330q7 10 17 10h31q5 0 7 -4t-2 -9l-215 -345v-2h116q10 0 8 -10 l-3 -22q-2 -10 -12 -10h-128q-5 0 -7 -6l-11 -63q-1 -6 5 -6h128q10 0 8 -10l-4 -22q-2 -10 -11 -10h-129q-4 0 -6 -6l-26 -145q-2 -10 -11 -10z"/>
<glyph glyph-name="zero.onumprop" horiz-adv-x="557" d="M247 39q93 0 154.5 72t61.5 169q0 71 -38 114.5t-107 43.5q-93 0 -155 -72.5t-62 -169.5q0 -71 38 -114t108 -43zM239 -10q-87 0 -137.5 54.5t-50.5 143.5q0 124 76 211.5t198 87.5q87 0 137.5 -55t50.5 -143q0 -124 -76 -211.5t-198 -87.5z"/>
<glyph glyph-name="one.onumprop" horiz-adv-x="340" d="M178 0h-31q-10 0 -8 10l72 406h-2l-147 -63q-4 -2 -7 0t-2 7l5 34q2 9 10 13l147 65q9 5 17 5h30q10 0 8 -10l-81 -457q-2 -10 -11 -10z"/>
<glyph glyph-name="two.onumprop" horiz-adv-x="500" d="M382 0h-336q-10 0 -9 9l3 25q2 8 9 13l218 130q74 43 104 80.5t30 85.5q0 45 -27.5 70.5t-80.5 25.5q-105 0 -152 -109q-3 -9 -14 -7l-26 6q-9 2 -6 12q23 62 77.5 104t128.5 42q72 0 111 -38t39 -97q0 -64 -35 -112t-118 -97l-162 -93v-2h254q10 0 8 -10l-5 -28 q-2 -10 -11 -10z"/>
<glyph glyph-name="three.onumprop" horiz-adv-x="490" d="M170 -190q-69 0 -109.5 38.5t-45.5 101.5q-2 9 8 12l27 8q9 2 10 -7q6 -48 35.5 -76.5t82.5 -28.5q72 0 120 56.5t48 132.5q0 115 -131 115h-24q-10 0 -8 10l4 28q1 8 9 15l188 211v2h-265q-11 0 -9 10l5 28q2 10 12 10h319q10 0 8 -9l-4 -27q-1 -7 -8 -14l-195 -218v-2 q71 -2 109 -40.5t38 -106.5q0 -103 -62 -176t-162 -73z"/>
<glyph glyph-name="four.onumprop" horiz-adv-x="504" d="M302 -180h-30q-10 0 -8 10l29 164q1 6 -4 6h-249q-9 0 -7 10l4 27q1 6 4 10l265 421q4 8 14 8h33q11 0 6 -9l-262 -417v-2h199q6 0 7 6l33 184q2 10 11 10h31q10 0 8 -10l-32 -184q-2 -6 5 -6h72q10 0 8 -10l-4 -28q-2 -10 -10 -10h-74q-7 0 -8 -6l-29 -164 q-2 -10 -12 -10z"/>
<glyph glyph-name="five.onumprop" horiz-adv-x="483" d="M197 -190q-73 0 -112 39.5t-39 104.5q0 10 9 11l29 7q10 1 10 -8q1 -49 28 -77.5t80 -28.5q87 0 127 80q32 65 32 157q0 106 -97 106q-45 0 -80.5 -24t-51.5 -60q-5 -10 -12 -10h-29q-9 0 -7 10l61 350q2 10 11 10h306q11 0 9 -10l-5 -29q-2 -10 -12 -10h-262q-6 0 -7 -6 l-42 -234h1q45 61 132 61q65 0 100.5 -36t35.5 -106q0 -41 -10 -96t-28 -94q-54 -107 -177 -107z"/>
<glyph glyph-name="six.onumprop" horiz-adv-x="504" d="M223 38q74 0 122.5 57.5t48.5 134.5q0 55 -31 87.5t-84 32.5q-73 0 -121.5 -57.5t-48.5 -134.5q0 -54 30.5 -87t83.5 -33zM219 -10q-74 0 -117.5 43t-43.5 119q0 91 70 195l221 326q6 7 14 7h35q12 0 5 -9l-200 -296l2 -1q30 24 88 24q69 0 111 -43t42 -115 q0 -102 -63 -176t-164 -74z"/>
<glyph glyph-name="seven.onumprop" horiz-adv-x="456" d="M108 -180h-33q-11 0 -5 11l332 595v2h-239q-5 0 -7 -6l-17 -95q-2 -10 -12 -10h-29q-10 0 -8 10l24 140q2 10 11 10h330q10 0 8 -10l-6 -33q-2 -10 -5 -13l-330 -592q-5 -9 -14 -9z"/>
<glyph glyph-name="eight.onumprop" horiz-adv-x="508" d="M236 38q70 0 120.5 52t50.5 127q0 52 -32 84.5t-87 32.5q-70 0 -120.5 -52.5t-50.5 -126.5q0 -52 32 -84.5t87 -32.5zM297 382q64 0 107 45.5t43 111.5q0 46 -28 74.5t-76 28.5q-63 0 -106.5 -45.5t-43.5 -111.5q0 -46 28.5 -74.5t75.5 -28.5zM229 -10q-74 0 -118 43 t-44 112q0 70 37 128t102 86v2q-63 34 -63 117q0 85 57 148.5t150 63.5q68 0 107.5 -40t39.5 -104q0 -61 -31.5 -111.5t-85.5 -75.5l-1 -2q78 -40 78 -134q0 -97 -64.5 -165t-163.5 -68z"/>
<glyph glyph-name="nine.onumprop" horiz-adv-x="504" d="M239 127q73 0 121.5 57.5t48.5 134.5q0 55 -31 87.5t-84 32.5q-73 0 -122 -57.5t-49 -134.5q0 -54 31 -87t85 -33zM171 -180h-35q-5 0 -6.5 3t1.5 6l184 272l-2 1q-31 -23 -88 -23q-70 0 -111.5 43t-41.5 115q0 102 63 176t164 74q74 0 117.5 -43.5t43.5 -119.5 q0 -90 -70 -194l-206 -303q-6 -7 -13 -7z"/>
<glyph glyph-name="one.superior" horiz-adv-x="317" d="M219 430h-22q-10 0 -8 10l60 341h-2l-74 -46q-4 -3 -7 -1.5t-2 6.5l4 28q1 8 10 14l74 48q9 6 16 6h22q11 0 9 -10l-68 -386q-2 -10 -12 -10z"/>
<glyph glyph-name="two.superior" horiz-adv-x="317" d="M302 430h-215q-10 0 -8 10l4 20q1 8 8 14l182 183q49 49 49 90q0 26 -15.5 40.5t-42.5 14.5q-58 0 -84 -61q-3 -9 -12 -8l-21 5q-8 2 -5 12q13 39 47 66t80 27q45 0 70 -25.5t25 -63.5q0 -61 -61 -122l-162 -161v-1h168q10 0 8 -10l-3 -20q-2 -10 -12 -10z"/>
<glyph glyph-name="three.superior" horiz-adv-x="317" d="M195 423q-45 0 -72 23t-33 60q-2 9 8 12l22 6q8 2 11 -7q9 -53 68 -53q40 0 66.5 27t26.5 67q0 28 -17.5 45t-48.5 17h-17q-9 0 -7 10l3 21q2 10 12 10h13q36 0 61.5 25t25.5 62q0 25 -15.5 39.5t-43.5 14.5q-56 0 -80 -48q-5 -9 -12 -8l-20 6q-8 1 -5 11q14 34 45.5 57 t77.5 23q45 0 70.5 -24.5t25.5 -62.5q0 -77 -69 -112v-1q44 -23 44 -78q0 -62 -39 -102t-101 -40z"/>
<glyph glyph-name="a.alt01" d="M207 38q92 0 138 92q12 23 25.5 91t13.5 107q0 51 -27.5 81t-78.5 30q-89 0 -133 -88q-18 -36 -30 -95t-12 -103q0 -115 104 -115zM373 0h-32q-10 0 -8 10l10 57h-1q-54 -77 -151 -77q-68 0 -103.5 41t-35.5 114q0 55 15.5 124t33.5 106q55 112 174 112q50 0 82 -22.5 t45 -58.5h1l11 61q2 10 10 10h32q10 0 8 -10l-80 -457q-2 -10 -11 -10z"/>
<glyph glyph-name="agrave.alt01" horiz-adv-x="509" d="M309 558h-20q-8 0 -15 10l-62 122q-2 4 0 7t7 3h31q9 0 13 -10l53 -122q5 -10 -7 -10zM207 38q92 0 138 92q12 23 25.5 91t13.5 107q0 51 -27.5 81t-78.5 30q-89 0 -133 -88q-18 -36 -30 -95t-12 -103q0 -115 104 -115zM373 0h-32q-10 0 -8 10l10 57h-1q-54 -77 -151 -77 q-68 0 -103.5 41t-35.5 114q0 55 15.5 124t33.5 106q55 112 174 112q50 0 82 -22.5t45 -58.5h1l11 61q2 10 10 10h32q10 0 8 -10l-80 -457q-2 -10 -11 -10z"/>
<glyph glyph-name="aacute.alt01" horiz-adv-x="509" d="M297 558h-22q-11 0 -3 10l92 122q8 10 19 10h34q5 0 6 -3t-2 -7l-106 -122q-10 -10 -18 -10zM207 38q92 0 138 92q12 23 25.5 91t13.5 107q0 51 -27.5 81t-78.5 30q-89 0 -133 -88q-18 -36 -30 -95t-12 -103q0 -115 104 -115zM373 0h-32q-10 0 -8 10l10 57h-1 q-54 -77 -151 -77q-68 0 -103.5 41t-35.5 114q0 55 15.5 124t33.5 106q55 112 174 112q50 0 82 -22.5t45 -58.5h1l11 61q2 10 10 10h32q10 0 8 -10l-80 -457q-2 -10 -11 -10z"/>
<glyph glyph-name="acircumflex.alt01" horiz-adv-x="509" d="M408 559h-20q-9 0 -15 9l-52 91h-2l-86 -91q-9 -9 -19 -9h-22q-4 0 -5 3t3 7l107 122q8 9 17 9h20q8 0 13 -9l65 -122q6 -10 -4 -10zM207 38q92 0 138 92q12 23 25.5 91t13.5 107q0 51 -27.5 81t-78.5 30q-89 0 -133 -88q-18 -36 -30 -95t-12 -103q0 -115 104 -115z M373 0h-32q-10 0 -8 10l10 57h-1q-54 -77 -151 -77q-68 0 -103.5 41t-35.5 114q0 55 15.5 124t33.5 106q55 112 174 112q50 0 82 -22.5t45 -58.5h1l11 61q2 10 10 10h32q10 0 8 -10l-80 -457q-2 -10 -11 -10z"/>
<glyph glyph-name="atilde.alt01" horiz-adv-x="509" d="M355 598q-26 0 -54 21q-27 18 -44 18q-27 0 -62 -33q-3 -3 -6 -2t-2 5l5 29q1 8 9 16q30 27 65 27q27 0 54 -20q23 -18 44 -18q28 0 61 33q3 3 6 1.5t2 -4.5l-4 -30q-3 -9 -10 -15q-30 -28 -64 -28zM207 38q92 0 138 92q12 23 25.5 91t13.5 107q0 51 -27.5 81t-78.5 30 q-89 0 -133 -88q-18 -36 -30 -95t-12 -103q0 -115 104 -115zM373 0h-32q-10 0 -8 10l10 57h-1q-54 -77 -151 -77q-68 0 -103.5 41t-35.5 114q0 55 15.5 124t33.5 106q55 112 174 112q50 0 82 -22.5t45 -58.5h1l11 61q2 10 10 10h32q10 0 8 -10l-80 -457q-2 -10 -11 -10z"/>
<glyph glyph-name="adieresis.alt01" horiz-adv-x="509" d="M233 607h-37q-10 0 -8 10l9 53q2 10 11 10h37q10 0 8 -10l-9 -53q-2 -10 -11 -10zM425 607h-37q-10 0 -8 10l9 53q2 10 11 10h37q10 0 8 -10l-9 -53q-2 -10 -11 -10zM207 38q92 0 138 92q12 23 25.5 91t13.5 107q0 51 -27.5 81t-78.5 30q-89 0 -133 -88q-18 -36 -30 -95 t-12 -103q0 -115 104 -115zM373 0h-32q-10 0 -8 10l10 57h-1q-54 -77 -151 -77q-68 0 -103.5 41t-35.5 114q0 55 15.5 124t33.5 106q55 112 174 112q50 0 82 -22.5t45 -58.5h1l11 61q2 10 10 10h32q10 0 8 -10l-80 -457q-2 -10 -11 -10z"/>
<glyph glyph-name="amacron.alt01" horiz-adv-x="509" d="M425 622h-234q-10 0 -8 10l4 22q1 10 11 10h234q10 0 8 -10l-4 -22q-1 -10 -11 -10zM207 38q92 0 138 92q12 23 25.5 91t13.5 107q0 51 -27.5 81t-78.5 30q-89 0 -133 -88q-18 -36 -30 -95t-12 -103q0 -115 104 -115zM373 0h-32q-10 0 -8 10l10 57h-1q-54 -77 -151 -77 q-68 0 -103.5 41t-35.5 114q0 55 15.5 124t33.5 106q55 112 174 112q50 0 82 -22.5t45 -58.5h1l11 61q2 10 10 10h32q10 0 8 -10l-80 -457q-2 -10 -11 -10z"/>
<glyph glyph-name="abreve.alt01" horiz-adv-x="509" d="M306 572q-47 0 -74 27.5t-27 72.5q0 12 10 12h16q9 0 11 -10q5 -62 70 -62q64 0 93 62q5 10 13 10h17q10 0 7 -10q-15 -46 -51.5 -74t-84.5 -28zM207 38q92 0 138 92q12 23 25.5 91t13.5 107q0 51 -27.5 81t-78.5 30q-89 0 -133 -88q-18 -36 -30 -95t-12 -103 q0 -115 104 -115zM373 0h-32q-10 0 -8 10l10 57h-1q-54 -77 -151 -77q-68 0 -103.5 41t-35.5 114q0 55 15.5 124t33.5 106q55 112 174 112q50 0 82 -22.5t45 -58.5h1l11 61q2 10 10 10h32q10 0 8 -10l-80 -457q-2 -10 -11 -10z"/>
<glyph glyph-name="aring.alt01" horiz-adv-x="509" d="M300 572q26 0 45 20t19 48q0 21 -12 33.5t-33 12.5q-26 0 -44.5 -20t-18.5 -48q0 -21 11.5 -33.5t32.5 -12.5zM294 542q-31 0 -50.5 20t-19.5 51q0 43 28.5 73t72.5 30q31 0 50.5 -20t19.5 -51q0 -43 -28.5 -73t-72.5 -30zM207 38q92 0 138 92q12 23 25.5 91t13.5 107 q0 51 -27.5 81t-78.5 30q-89 0 -133 -88q-18 -36 -30 -95t-12 -103q0 -115 104 -115zM373 0h-32q-10 0 -8 10l10 57h-1q-54 -77 -151 -77q-68 0 -103.5 41t-35.5 114q0 55 15.5 124t33.5 106q55 112 174 112q50 0 82 -22.5t45 -58.5h1l11 61q2 10 10 10h32q10 0 8 -10 l-80 -457q-2 -10 -11 -10z"/>
<glyph glyph-name="aringacute.alt01" horiz-adv-x="509" d="M300 572q26 0 45 20t19 48q0 21 -12 33.5t-33 12.5q-26 0 -44.5 -20t-18.5 -48q0 -21 11.5 -33.5t32.5 -12.5zM294 542q-31 0 -50.5 20t-19.5 51q0 43 28.5 73t72.5 30q31 0 50.5 -20t19.5 -51q0 -43 -28.5 -73t-72.5 -30zM207 38q92 0 138 92q12 23 25.5 91t13.5 107 q0 51 -27.5 81t-78.5 30q-89 0 -133 -88q-18 -36 -30 -95t-12 -103q0 -115 104 -115zM373 0h-32q-10 0 -8 10l10 57h-1q-54 -77 -151 -77q-68 0 -103.5 41t-35.5 114q0 55 15.5 124t33.5 106q55 112 174 112q50 0 82 -22.5t45 -58.5h1l11 61q2 10 10 10h32q10 0 8 -10 l-80 -457q-2 -10 -11 -10zM330 764h-22q-11 0 -2 11l97 103q9 10 19 10h33q5 0 6 -3t-3 -7l-108 -104q-10 -10 -20 -10z"/>
<glyph glyph-name="aogonek.alt01" d="M207 38q92 0 138 92q12 23 25.5 91t13.5 107q0 51 -27.5 81t-78.5 30q-89 0 -133 -88q-18 -36 -30 -95t-12 -103q0 -115 104 -115zM290 -170q-25 0 -40.5 14.5t-15.5 39.5q0 31 22.5 57.5t76.5 64.5q-1 2 0 3l10 58h-1q-54 -77 -152 -77q-67 0 -103 41t-36 114 q0 55 15.5 124t33.5 106q55 112 175 112q50 0 82 -22.5t45 -58.5h1l10 61q2 10 11 10h32q10 0 8 -10l-81 -457q-1 -6 -6 -11q-56 -38 -76.5 -60.5t-20.5 -42.5q0 -23 24 -23q14 0 29 9q8 5 12 -2l6 -20q2 -6 -6 -13q-25 -17 -55 -17z"/>
<glyph glyph-name="ae.alt01" horiz-adv-x="781" d="M195 35q59 0 101.5 31t50.5 81l13 74q2 6 -4 6h-109q-151 0 -151 -114q0 -78 99 -78zM423 270h252q5 0 7 6q6 27 6 51q0 113 -106 113q-95 0 -142 -92q-12 -28 -21 -72q-1 -6 4 -6zM281 440q-74 0 -122 -38q-10 -8 -15 2l-13 22q-4 7 3 13q62 48 158 48q124 0 134 -82h1 q59 82 161 82q67 0 107.5 -41t40.5 -116q0 -38 -10 -93q-2 -10 -12 -10h-297q-7 0 -8 -6q-7 -36 -7 -66q0 -117 113 -117q81 0 141 64q7 7 14 2l17 -19q7 -7 -1 -15q-71 -80 -178 -80q-115 0 -144 93h-1q-55 -93 -182 -93q-65 0 -100 31.5t-35 85.5q0 80 51.5 121.5 t148.5 41.5h116q6 0 8 6l9 52q5 27 5 42q0 38 -23.5 54t-79.5 16z"/>
<glyph glyph-name="aeacute.alt01" horiz-adv-x="781" d="M195 35q59 0 101.5 31t50.5 81l13 74q2 6 -4 6h-109q-151 0 -151 -114q0 -78 99 -78zM423 270h252q5 0 7 6q6 27 6 51q0 113 -106 113q-95 0 -142 -92q-12 -28 -21 -72q-1 -6 4 -6zM281 440q-74 0 -122 -38q-10 -8 -15 2l-13 22q-4 7 3 13q62 48 158 48q124 0 134 -82h1 q59 82 161 82q67 0 107.5 -41t40.5 -116q0 -38 -10 -93q-2 -10 -12 -10h-297q-7 0 -8 -6q-7 -36 -7 -66q0 -117 113 -117q81 0 141 64q7 7 14 2l17 -19q7 -7 -1 -15q-71 -80 -178 -80q-115 0 -144 93h-1q-55 -93 -182 -93q-65 0 -100 31.5t-35 85.5q0 80 51.5 121.5 t148.5 41.5h116q6 0 8 6l9 52q5 27 5 42q0 38 -23.5 54t-79.5 16zM473 558h-22q-11 0 -3 10l92 122q8 10 19 10h34q5 0 6 -3t-2 -7l-106 -122q-10 -10 -18 -10z"/>
<glyph glyph-name="germandbls.alt01" horiz-adv-x="525" d="M157 -181q-10 0 -8 10l4 29q2 10 11 10q94 0 157 62t63 158q0 106 -106 129q-10 2 -9 10l5 30q1 7 8 15l141 155v2h-241q-4 0 -6 -6l-74 -413q-2 -10 -10 -10h-32q-10 0 -8 10l93 527q15 84 47.5 113.5t103.5 29.5h28q10 0 8 -10l-5 -28q-2 -10 -11 -10h-22 q-50 0 -69 -17t-29 -73l-11 -59q-1 -6 5 -6h295q10 0 8 -10l-4 -27q-1 -7 -7 -16l-154 -170v-2q51 -18 79 -59t28 -99q0 -117 -76.5 -196t-201.5 -79z"/>
<glyph glyph-name="q.alt01" horiz-adv-x="512" d="M208 38q92 0 138 92q12 23 25.5 91t13.5 107q0 51 -27.5 81t-78.5 30q-89 0 -133 -88q-18 -36 -30 -95t-12 -103q0 -115 104 -115zM340 -180h-30q-10 0 -8 10l42 237h-1q-54 -77 -152 -77q-67 0 -103 41t-36 114q0 55 15.5 124t33.5 106q55 112 175 112q50 0 82 -22.5 t45 -58.5h1l10 61q2 10 11 10h31q11 0 9 -10l-104 -585h1l81 62q8 6 13 -1l11 -18q7 -7 -3 -14l-110 -85q-7 -6 -14 -6z"/>
<glyph glyph-name="C.alt01" horiz-adv-x="559" d="M254 -10q-87 0 -136.5 50.5t-49.5 142.5q0 63 23 182.5t50 174.5q72 150 226 150q82 0 132 -48.5t51 -136.5q0 -10 -9 -10h-32q-10 0 -10 10q-4 65 -39.5 99.5t-97.5 34.5q-115 0 -172 -116q-26 -52 -47 -163t-21 -171q0 -71 35.5 -109.5t104.5 -38.5q59 0 108 35.5 t74 98.5q3 10 12 10h34q11 0 7 -11q-30 -89 -94 -136.5t-149 -47.5z"/>
<glyph glyph-name="Cacute.alt01" horiz-adv-x="558" d="M387 764h-24q-11 0 -2 11l94 103q10 10 19 10h36q5 0 6 -3t-3 -7l-107 -104q-10 -10 -19 -10zM254 -10q-87 0 -136.5 50.5t-49.5 142.5q0 63 23 182.5t50 174.5q72 150 226 150q82 0 132 -48.5t51 -136.5q0 -10 -9 -10h-32q-10 0 -10 10q-4 65 -39.5 99.5t-97.5 34.5 q-115 0 -172 -116q-26 -52 -47 -163t-21 -171q0 -71 35.5 -109.5t104.5 -38.5q59 0 108 35.5t74 98.5q3 10 12 10h34q11 0 7 -11q-30 -89 -94 -136.5t-149 -47.5z"/>
<glyph glyph-name="Ccircumflex.alt01" horiz-adv-x="558" d="M489 755h-19q-10 0 -16 9l-52 91h-2l-86 -91q-8 -9 -18 -9h-23q-4 0 -5 3t3 7l107 122q8 9 17 9h20q9 0 13 -9l65 -122q6 -10 -4 -10zM254 -10q-87 0 -136.5 50.5t-49.5 142.5q0 63 23 182.5t50 174.5q72 150 226 150q82 0 132 -48.5t51 -136.5q0 -10 -9 -10h-32 q-10 0 -10 10q-4 65 -39.5 99.5t-97.5 34.5q-115 0 -172 -116q-26 -52 -47 -163t-21 -171q0 -71 35.5 -109.5t104.5 -38.5q59 0 108 35.5t74 98.5q3 10 12 10h34q11 0 7 -11q-30 -89 -94 -136.5t-149 -47.5z"/>
<glyph glyph-name="Ccaron.alt01" horiz-adv-x="558" d="M392 754h-20q-8 0 -13 9l-66 122q-2 4 -0.5 7t5.5 3h19q10 0 15 -9l53 -90h2l86 90q8 9 18 9h22q5 0 6 -3t-3 -7l-107 -122q-8 -9 -17 -9zM254 -10q-87 0 -136.5 50.5t-49.5 142.5q0 63 23 182.5t50 174.5q72 150 226 150q82 0 132 -48.5t51 -136.5q0 -10 -9 -10h-32 q-10 0 -10 10q-4 65 -39.5 99.5t-97.5 34.5q-115 0 -172 -116q-26 -52 -47 -163t-21 -171q0 -71 35.5 -109.5t104.5 -38.5q59 0 108 35.5t74 98.5q3 10 12 10h34q11 0 7 -11q-30 -89 -94 -136.5t-149 -47.5z"/>
<glyph glyph-name="Cdotaccent.alt01" horiz-adv-x="558" d="M254 -10q-87 0 -136.5 50.5t-49.5 142.5q0 63 23 182.5t50 174.5q72 150 226 150q82 0 132 -48.5t51 -136.5q0 -10 -9 -10h-32q-10 0 -10 10q-4 65 -39.5 99.5t-97.5 34.5q-115 0 -172 -116q-26 -52 -47 -163t-21 -171q0 -71 35.5 -109.5t104.5 -38.5q59 0 108 35.5 t74 98.5q3 10 12 10h34q11 0 7 -11q-30 -89 -94 -136.5t-149 -47.5zM408 787h-42q-10 0 -8 10l9 54q2 10 11 10h42q10 0 8 -10l-9 -54q-2 -10 -11 -10z"/>
<glyph glyph-name="Ccedilla.alt01" horiz-adv-x="558" d="M186 -147h-27q-11 0 -6 10l72 129q-74 8 -115.5 57.5t-41.5 133.5q0 63 23 182.5t50 174.5q72 150 226 150q82 0 132 -48.5t51 -136.5q0 -10 -9 -10h-32q-10 0 -10 10q-4 65 -39.5 99.5t-97.5 34.5q-115 0 -172 -116q-26 -52 -47 -163t-21 -171q0 -71 35.5 -109.5 t104.5 -38.5q59 0 108 35.5t74 98.5q3 10 12 10h34q11 0 7 -11q-30 -86 -90 -133t-140 -50l-64 -128q-5 -10 -17 -10z"/>
<glyph glyph-name="G.alt01" horiz-adv-x="583" d="M254 -10q-88 0 -138 50.5t-50 142.5q0 63 22.5 183t49.5 174q74 150 239 150q83 0 133.5 -48.5t51.5 -136.5q0 -10 -10 -10h-31q-10 0 -10 10q-4 65 -41 99.5t-100 34.5q-125 0 -182 -116q-26 -52 -47 -163t-21 -171q0 -71 36.5 -109.5t105.5 -38.5q122 0 179 115 q26 53 41 133q2 6 -5 6h-150q-9 0 -7 10l5 30q1 9 10 9h199q9 0 7 -10l-6 -40q-15 -92 -44 -154q-38 -78 -95.5 -114t-141.5 -36z"/>
<glyph glyph-name="Gcircumflex.alt01" horiz-adv-x="583" d="M496 755h-19q-10 0 -16 9l-52 91h-2l-86 -91q-8 -9 -18 -9h-23q-4 0 -5 3t3 7l107 122q8 9 17 9h20q8 0 13 -9l65 -122q6 -10 -4 -10zM254 -10q-88 0 -138 50.5t-50 142.5q0 63 22.5 183t49.5 174q74 150 239 150q83 0 133.5 -48.5t51.5 -136.5q0 -10 -10 -10h-31 q-10 0 -10 10q-4 65 -41 99.5t-100 34.5q-125 0 -182 -116q-26 -52 -47 -163t-21 -171q0 -71 36.5 -109.5t105.5 -38.5q122 0 179 115q26 53 41 133q2 6 -5 6h-150q-9 0 -7 10l5 30q1 9 10 9h199q9 0 7 -10l-6 -40q-15 -92 -44 -154q-38 -78 -95.5 -114t-141.5 -36z"/>
<glyph glyph-name="Gbreve.alt01" horiz-adv-x="583" d="M254 -10q-88 0 -138 50.5t-50 142.5q0 63 22.5 183t49.5 174q74 150 239 150q83 0 133.5 -48.5t51.5 -136.5q0 -10 -10 -10h-31q-10 0 -10 10q-4 65 -41 99.5t-100 34.5q-125 0 -182 -116q-26 -52 -47 -163t-21 -171q0 -71 36.5 -109.5t105.5 -38.5q122 0 179 115 q26 53 41 133q2 6 -5 6h-150q-9 0 -7 10l5 30q1 9 10 9h199q9 0 7 -10l-6 -40q-15 -92 -44 -154q-38 -78 -95.5 -114t-141.5 -36zM388 769q-47 0 -74 27.5t-27 72.5q0 12 10 12h16q9 0 11 -10q5 -62 70 -62q64 0 93 62q5 10 13 10h17q10 0 7 -10q-15 -46 -51.5 -74 t-84.5 -28z"/>
<glyph glyph-name="Gdotaccent.alt01" horiz-adv-x="583" d="M254 -10q-88 0 -138 50.5t-50 142.5q0 63 22.5 183t49.5 174q74 150 239 150q83 0 133.5 -48.5t51.5 -136.5q0 -10 -10 -10h-31q-10 0 -10 10q-4 65 -41 99.5t-100 34.5q-125 0 -182 -116q-26 -52 -47 -163t-21 -171q0 -71 36.5 -109.5t105.5 -38.5q122 0 179 115 q26 53 41 133q2 6 -5 6h-150q-9 0 -7 10l5 30q1 9 10 9h199q9 0 7 -10l-6 -40q-15 -92 -44 -154q-38 -78 -95.5 -114t-141.5 -36zM413 787h-42q-10 0 -8 10l9 54q2 10 11 10h42q10 0 8 -10l-9 -54q-2 -10 -11 -10z"/>
<glyph glyph-name="Gcommaaccent.alt01" horiz-adv-x="583" d="M254 -10q-88 0 -138 50.5t-50 142.5q0 63 22.5 183t49.5 174q74 150 239 150q83 0 133.5 -48.5t51.5 -136.5q0 -10 -10 -10h-31q-10 0 -10 10q-4 65 -41 99.5t-100 34.5q-125 0 -182 -116q-26 -52 -47 -163t-21 -171q0 -71 36.5 -109.5t105.5 -38.5q122 0 179 115 q26 53 41 133q2 6 -5 6h-150q-9 0 -7 10l5 30q1 9 10 9h199q9 0 7 -10l-6 -40q-15 -92 -44 -154q-38 -78 -95.5 -114t-141.5 -36zM204 -196q-10 0 -8 10l21 121q2 10 12 10h35q10 0 8 -10l-7 -45q-2 -9 -9 -22l-40 -56q-6 -8 -12 -8z"/>
<glyph glyph-name="I.alt01" horiz-adv-x="300" d="M198 0h-175q-9 0 -7 10l5 29q2 10 11 10h54q6 0 7 6l102 570q1 6 -5 6h-55q-10 0 -8 10l5 29q2 10 11 10h175q9 0 7 -10l-5 -29q-2 -10 -11 -10h-54q-5 0 -7 -6l-102 -570q-2 -6 5 -6h55q10 0 8 -10l-5 -29q-2 -10 -11 -10z"/>
<glyph glyph-name="Igrave.alt01" horiz-adv-x="299" d="M251 764h-22q-9 0 -16 10l-72 104q-2 4 -0.5 7t5.5 3h33q10 0 17 -10l60 -104q3 -4 1.5 -7t-6.5 -3zM198 0h-175q-9 0 -7 10l5 29q2 10 11 10h54q6 0 7 6l102 570q1 6 -5 6h-55q-10 0 -8 10l5 29q2 10 11 10h175q9 0 7 -10l-5 -29q-2 -10 -11 -10h-54q-5 0 -7 -6 l-102 -570q-2 -6 5 -6h55q10 0 8 -10l-5 -29q-2 -10 -11 -10z"/>
<glyph glyph-name="Iacute.alt01" horiz-adv-x="299" d="M256 764h-24q-11 0 -2 11l94 103q10 10 19 10h36q5 0 6 -3t-3 -7l-107 -104q-10 -10 -19 -10zM198 0h-175q-9 0 -7 10l5 29q2 10 11 10h54q6 0 7 6l102 570q1 6 -5 6h-55q-10 0 -8 10l5 29q2 10 11 10h175q9 0 7 -10l-5 -29q-2 -10 -11 -10h-54q-5 0 -7 -6l-102 -570 q-2 -6 5 -6h55q10 0 8 -10l-5 -29q-2 -10 -11 -10z"/>
<glyph glyph-name="Ibreve.alt01" horiz-adv-x="299" d="M245 769q-47 0 -74 27.5t-27 72.5q0 12 10 12h16q9 0 11 -10q5 -62 70 -62q64 0 93 62q5 10 13 10h17q10 0 7 -10q-15 -46 -51.5 -74t-84.5 -28zM198 0h-175q-9 0 -7 10l5 29q2 10 11 10h54q6 0 7 6l102 570q1 6 -5 6h-55q-10 0 -8 10l5 29q2 10 11 10h175q9 0 7 -10 l-5 -29q-2 -10 -11 -10h-54q-5 0 -7 -6l-102 -570q-2 -6 5 -6h55q10 0 8 -10l-5 -29q-2 -10 -11 -10z"/>
<glyph glyph-name="Icircumflex.alt01" horiz-adv-x="299" d="M350 755h-19q-10 0 -16 9l-52 91h-2l-86 -91q-8 -9 -18 -9h-23q-4 0 -5 3t3 7l107 122q8 9 17 9h20q8 0 13 -9l65 -122q6 -10 -4 -10zM198 0h-175q-9 0 -7 10l5 29q2 10 11 10h54q6 0 7 6l102 570q1 6 -5 6h-55q-10 0 -8 10l5 29q2 10 11 10h175q9 0 7 -10l-5 -29 q-2 -10 -11 -10h-54q-5 0 -7 -6l-102 -570q-2 -6 5 -6h55q10 0 8 -10l-5 -29q-2 -10 -11 -10z"/>
<glyph glyph-name="Itilde.alt01" horiz-adv-x="299" d="M299 784q-27 0 -54 20q-23 18 -44 18q-28 0 -61 -33q-3 -3 -6 -1.5t-2 4.5l4 30q1 8 10 15q28 28 64 28q26 0 54 -21q25 -18 44 -18q27 0 62 33q3 3 6 2t2 -5l-5 -29q-1 -9 -10 -16q-29 -27 -64 -27zM198 0h-175q-9 0 -7 10l5 29q2 10 11 10h54q6 0 7 6l102 570q1 6 -5 6 h-55q-10 0 -8 10l5 29q2 10 11 10h175q9 0 7 -10l-5 -29q-2 -10 -11 -10h-54q-5 0 -7 -6l-102 -570q-2 -6 5 -6h55q10 0 8 -10l-5 -29q-2 -10 -11 -10z"/>
<glyph glyph-name="Idieresis.alt01" horiz-adv-x="299" d="M170 787h-37q-10 0 -8 10l9 54q2 10 11 10h37q10 0 8 -10l-9 -54q-2 -10 -11 -10zM362 787h-37q-10 0 -8 10l9 54q2 10 11 10h37q10 0 8 -10l-9 -54q-2 -10 -11 -10zM198 0h-175q-9 0 -7 10l5 29q2 10 11 10h54q6 0 7 6l102 570q1 6 -5 6h-55q-10 0 -8 10l5 29 q2 10 11 10h175q9 0 7 -10l-5 -29q-2 -10 -11 -10h-54q-5 0 -7 -6l-102 -570q-2 -6 5 -6h55q10 0 8 -10l-5 -29q-2 -10 -11 -10z"/>
<glyph glyph-name="Imacron.alt01" horiz-adv-x="299" d="M367 802h-234q-10 0 -8 10l4 23q1 10 11 10h233q10 0 8 -10l-3 -23q-2 -10 -11 -10zM198 0h-175q-9 0 -7 10l5 29q2 10 11 10h54q6 0 7 6l102 570q1 6 -5 6h-55q-10 0 -8 10l5 29q2 10 11 10h175q9 0 7 -10l-5 -29q-2 -10 -11 -10h-54q-5 0 -7 -6l-102 -570q-2 -6 5 -6 h55q10 0 8 -10l-5 -29q-2 -10 -11 -10z"/>
<glyph glyph-name="Idotaccent.alt01" horiz-adv-x="299" d="M269 787h-42q-10 0 -8 10l9 54q2 10 11 10h42q10 0 8 -10l-9 -54q-2 -10 -11 -10zM198 0h-175q-9 0 -7 10l5 29q2 10 11 10h54q6 0 7 6l102 570q1 6 -5 6h-55q-10 0 -8 10l5 29q2 10 11 10h175q9 0 7 -10l-5 -29q-2 -10 -11 -10h-54q-5 0 -7 -6l-102 -570q-2 -6 5 -6h55 q10 0 8 -10l-5 -29q-2 -10 -11 -10z"/>
<glyph glyph-name="Iogonek.alt01" horiz-adv-x="300" d="M72 -170q-25 0 -40.5 14.5t-15.5 39.5q0 44 66 116h-59q-9 0 -7 10l5 29q2 10 11 10h54q6 0 7 6l102 570q1 6 -5 6h-55q-10 0 -8 10l5 29q2 10 11 10h175q9 0 7 -10l-5 -29q-2 -10 -11 -10h-54q-5 0 -7 -6l-102 -570q-2 -6 5 -6h55q10 0 8 -10l-5 -29q-2 -10 -11 -10h-67 q-40 -43 -54.5 -64.5t-14.5 -39.5q0 -23 24 -23q12 0 29 9q8 5 11 -2l7 -20q2 -6 -6 -13q-25 -17 -55 -17z"/>
<glyph glyph-name="Z.alt01" horiz-adv-x="518" d="M427 322h-132l-211 -270v-1h343q10 0 8 -10l-5 -31q-1 -10 -12 -10h-396q-10 0 -8 10l5 31q2 9 8 15l209 266h-97q-10 0 -8 10l5 27q2 10 11 10h126l203 259v1h-329q-10 0 -8 10l5 31q2 10 11 10h383q10 0 8 -10l-5 -30q-1 -7 -7 -14l-202 -257h102q10 0 8 -10l-4 -27 q-2 -10 -11 -10z"/>
<glyph glyph-name="Zacute.alt01" horiz-adv-x="519" d="M427 322h-132l-211 -270v-1h343q10 0 8 -10l-5 -31q-1 -10 -12 -10h-396q-10 0 -8 10l5 31q2 9 8 15l209 266h-97q-10 0 -8 10l5 27q2 10 11 10h126l203 259v1h-329q-10 0 -8 10l5 31q2 10 11 10h383q10 0 8 -10l-5 -30q-1 -7 -7 -14l-202 -257h102q10 0 8 -10l-4 -27 q-2 -10 -11 -10zM353 764h-24q-11 0 -2 11l94 103q10 10 19 10h36q5 0 6 -3t-3 -7l-107 -104q-10 -10 -19 -10z"/>
<glyph glyph-name="Zcaron.alt01" horiz-adv-x="519" d="M427 322h-132l-211 -270v-1h343q10 0 8 -10l-5 -31q-1 -10 -12 -10h-396q-10 0 -8 10l5 31q2 9 8 15l209 266h-97q-10 0 -8 10l5 27q2 10 11 10h126l203 259v1h-329q-10 0 -8 10l5 31q2 10 11 10h383q10 0 8 -10l-5 -30q-1 -7 -7 -14l-202 -257h102q10 0 8 -10l-4 -27 q-2 -10 -11 -10zM364 754h-20q-8 0 -13 9l-66 122q-2 4 -0.5 7t5.5 3h19q10 0 15 -9l53 -90h2l86 90q8 9 18 9h22q5 0 6 -3t-3 -7l-107 -122q-8 -9 -17 -9z"/>
<glyph glyph-name="Zdotaccent.alt01" horiz-adv-x="519" d="M427 322h-132l-211 -270v-1h343q10 0 8 -10l-5 -31q-1 -10 -12 -10h-396q-10 0 -8 10l5 31q2 9 8 15l209 266h-97q-10 0 -8 10l5 27q2 10 11 10h126l203 259v1h-329q-10 0 -8 10l5 31q2 10 11 10h383q10 0 8 -10l-5 -30q-1 -7 -7 -14l-202 -257h102q10 0 8 -10l-4 -27 q-2 -10 -11 -10zM380 787h-42q-10 0 -8 10l9 54q2 10 11 10h42q10 0 8 -10l-9 -54q-2 -10 -11 -10z"/>
<glyph glyph-name="zero.alt01" d="M222 38q91 0 133 86q21 43 50 199t29 214q0 10 -2 26l-300 -481q25 -44 90 -44zM117 143q0 -17 2 -25l300 481q-27 43 -89 43q-91 0 -133 -86q-21 -43 -50.5 -199t-29.5 -214zM216 -10q-70 0 -110 39t-40 107q0 65 30 226t53 208q57 120 187 120q70 0 110 -39t40 -107 q0 -65 -30 -226t-53 -208q-57 -120 -187 -120z"/>
<glyph glyph-name="one.alt01" d="M379 0h-288q-10 0 -8 10l5 28q1 10 11 10h113q6 0 7 6l98 557h-1l-137 -88q-5 -3 -8 -1t-2 8l7 40q2 9 8 13l140 91q9 6 17 6h28q11 0 9 -10l-109 -616q-1 -6 4 -6h114q10 0 8 -10l-5 -28q-1 -10 -11 -10z"/>
<glyph glyph-name="six.alt01" horiz-adv-x="511" d="M232 38q92 0 134 85q14 29 24.5 83t10.5 89q0 48 -26.5 75t-77.5 27q-93 0 -136 -85q-13 -25 -23 -81.5t-10 -90.5q0 -48 27 -75t77 -27zM224 -10q-68 0 -107.5 36.5t-39.5 106.5q0 31 9 84l46 263q36 210 224 210q78 0 127 -40q7 -5 1 -13l-17 -24q-6 -8 -15 -3 q-49 32 -103 32q-139 0 -166 -160l-18 -107h1q50 70 142 70q69 0 107 -36.5t38 -103.5q0 -41 -12 -103t-30 -98q-56 -114 -187 -114z"/>
<glyph glyph-name="seven.alt01" d="M413 324h-84l-175 -315q-5 -9 -15 -9h-33q-10 0 -4 11l174 313h-106q-10 0 -8 10l5 28q1 9 11 9h124l144 258v3h-283q-11 0 -9 10l5 29q1 9 12 9h328q10 0 8 -10l-5 -33q-1 -4 -5 -12l-142 -254h67q10 0 8 -10l-5 -28q-1 -9 -12 -9z"/>
<glyph glyph-name="nine.alt01" horiz-adv-x="511" d="M259 283q93 0 135 85q13 25 23 81.5t10 90.5q0 48 -26.5 75t-77.5 27q-91 0 -134 -85q-14 -29 -24.5 -83t-10.5 -89q0 -47 27 -74.5t78 -27.5zM199 -10q-76 0 -127 40q-7 5 -1 13l17 24q8 7 15 3q51 -32 104 -32q138 0 165 160l19 107h-1q-52 -70 -143 -70 q-69 0 -106.5 36.5t-37.5 103.5q0 41 11.5 103t29.5 98q56 114 187 114q68 0 107.5 -36.5t39.5 -106.5q0 -31 -9 -84l-46 -263q-36 -210 -224 -210z"/>
<glyph glyph-name="zero.alt02" d="M222 38q91 0 133 86q21 43 50 199t29 214q0 10 -2 26l-300 -481q25 -44 90 -44zM117 143q0 -17 2 -25l300 481q-27 43 -89 43q-91 0 -133 -86q-21 -43 -50.5 -199t-29.5 -214zM216 -10q-70 0 -110 39t-40 107q0 65 30 226t53 208q57 120 187 120q70 0 110 -39t40 -107 q0 -65 -30 -226t-53 -208q-57 -120 -187 -120z"/>
<glyph glyph-name="one.alt02" horiz-adv-x="380" d="M316 0h-288q-10 0 -8 10l5 28q1 10 11 10h113q5 0 7 6l98 557h-1l-137 -88q-5 -3 -8 -1t-2 8l7 40q2 9 8 13l140 91q9 6 17 6h28q11 0 9 -10l-109 -616q-2 -6 4 -6h114q10 0 8 -10l-5 -28q-1 -10 -11 -10z"/>
<glyph glyph-name="six.alt02" horiz-adv-x="494" d="M227 38q91 0 134 85q14 29 24.5 83t10.5 89q0 48 -26.5 75t-77.5 27q-93 0 -136 -85q-13 -25 -23 -81.5t-10 -90.5q0 -48 26.5 -75t77.5 -27zM219 -10q-68 0 -107.5 36.5t-39.5 106.5q0 31 9 84l46 263q36 210 224 210q78 0 127 -40q7 -5 1 -13l-17 -24q-6 -8 -15 -3 q-49 32 -103 32q-139 0 -166 -160l-18 -107h1q50 70 142 70q69 0 107 -36.5t38 -103.5q0 -41 -12 -103t-30 -98q-56 -114 -187 -114z"/>
<glyph glyph-name="seven.alt02" horiz-adv-x="463" d="M387 324h-84l-175 -315q-5 -9 -15 -9h-33q-10 0 -4 11l174 313h-106q-10 0 -8 10l5 28q1 9 11 9h124l144 258v3h-283q-11 0 -9 10l5 29q1 9 12 9h328q10 0 8 -10l-5 -33q-1 -4 -5 -12l-142 -254h67q10 0 8 -10l-5 -28q-1 -9 -12 -9z"/>
<glyph glyph-name="nine.alt02" horiz-adv-x="502" d="M253 283q93 0 135 85q13 25 23 81.5t10 90.5q0 48 -26.5 75t-77.5 27q-91 0 -134 -85q-14 -29 -24.5 -83t-10.5 -89q0 -47 27 -74.5t78 -27.5zM193 -10q-76 0 -127 40q-7 5 -1 13l17 24q8 7 15 3q51 -32 104 -32q138 0 165 160l19 107h-1q-52 -70 -143 -70 q-69 0 -106.5 36.5t-37.5 103.5q0 41 11.5 103t29.5 98q56 114 187 114q68 0 107.5 -36.5t39.5 -106.5q0 -31 -9 -84l-46 -263q-36 -210 -224 -210z"/>
<glyph glyph-name="zero.nominator" horiz-adv-x="317" d="M173 308q53 0 79 51q12 24 27.5 109t15.5 116q0 62 -61 62q-53 0 -78 -50q-12 -24 -28 -110t-16 -116q0 -62 61 -62zM167 267q-46 0 -72 26t-26 72q0 34 17 126t30 118q36 78 124 78q46 0 72.5 -26t26.5 -72q0 -33 -17.5 -125t-30.5 -119q-36 -78 -124 -78z"/>
<glyph glyph-name="one.nominator" horiz-adv-x="317" d="M192 274h-22q-10 0 -8 10l60 341h-2l-74 -46q-4 -3 -7 -1.5t-2 6.5l4 28q1 8 10 14l74 48q9 6 16 6h22q11 0 9 -10l-68 -386q-2 -10 -12 -10z"/>
<glyph glyph-name="two.nominator" horiz-adv-x="317" d="M275 274h-215q-10 0 -8 10l4 20q2 7 8 14l182 183q49 49 49 90q0 26 -15.5 40.5t-42.5 14.5q-58 0 -84 -61q-3 -9 -12 -8l-21 5q-8 2 -5 12q13 39 47 66t80 27q45 0 70 -25.5t25 -63.5q0 -61 -61 -122l-162 -161v-1h168q10 0 8 -10l-3 -20q-2 -10 -12 -10z"/>
<glyph glyph-name="three.nominator" horiz-adv-x="317" d="M168 267q-45 0 -72 23t-33 60q-2 9 8 12l22 6q8 2 11 -7q9 -53 68 -53q40 0 66.5 27t26.5 67q0 28 -17.5 45t-48.5 17h-17q-9 0 -7 10l3 21q2 10 12 10h13q36 0 61.5 25t25.5 62q0 25 -15.5 39.5t-43.5 14.5q-56 0 -80 -48q-5 -9 -12 -8l-20 6q-8 1 -5 11q14 34 45.5 57 t77.5 23q45 0 70.5 -24.5t25.5 -62.5q0 -77 -69 -112v-1q44 -23 44 -78q0 -62 -39 -102t-101 -40z"/>
<glyph glyph-name="four.nominator" horiz-adv-x="317" d="M237 274h-22q-9 0 -7 10l10 61q2 6 -5 6h-155q-10 0 -8 10l3 21q1 6 7 15l177 273q6 10 14 10h27q4 0 5.5 -3t-1.5 -7l-178 -278v-1h116q6 0 7 6l18 100q2 10 11 10h22q10 0 8 -10l-17 -100q-1 -6 5 -6h35q9 0 7 -10l-3 -21q-1 -9 -10 -9h-37q-4 0 -6 -6l-11 -61 q-2 -10 -12 -10z"/>
<glyph glyph-name="five.nominator" horiz-adv-x="317" d="M171 267q-45 0 -68.5 22.5t-27.5 58.5q-2 10 6 13l24 8q7 1 9 -6q10 -55 64 -55q52 0 76 47q7 14 13 43t6 46q0 56 -59 56q-47 0 -71 -38q-5 -9 -13 -9h-22q-10 0 -8 10l36 207q2 10 11 10h195q10 0 8 -10l-4 -21q-2 -9 -10 -9h-158q-6 0 -7 -6l-23 -125h1q26 32 78 32 q40 0 64.5 -22.5t24.5 -63.5q0 -23 -7.5 -60.5t-17.5 -56.5q-35 -71 -120 -71z"/>
<glyph glyph-name="six.nominator" horiz-adv-x="317" d="M174 308q41 0 69 29.5t28 72.5q0 30 -18 47.5t-49 17.5q-41 0 -69 -30t-28 -73q0 -29 18 -46.5t49 -17.5zM167 267q-47 0 -75 27t-28 72q0 53 46 120l132 185q5 9 13 9h29q4 0 5.5 -3t-1.5 -7l-119 -167l1 -1q19 12 47 12q44 0 70 -26t26 -69q0 -64 -40.5 -108 t-105.5 -44z"/>
<glyph glyph-name="seven.nominator" horiz-adv-x="317" d="M129 274h-25q-11 0 -4 11l208 353v2h-138q-6 0 -7 -6l-8 -42q-2 -10 -10 -10h-22q-10 0 -8 10l13 78q2 10 11 10h210q10 0 8 -10l-4 -25q-1 -7 -6 -15l-205 -348q-5 -8 -13 -8z"/>
<glyph glyph-name="eight.nominator" horiz-adv-x="317" d="M173 307q39 0 68.5 28t29.5 67q0 29 -19 47t-50 18q-39 0 -68.5 -28t-29.5 -67q0 -29 19 -47t50 -18zM210 506q32 0 58.5 25t26.5 59q0 25 -17 41t-45 16q-32 0 -58.5 -25t-26.5 -59q0 -25 17 -41t45 -16zM167 267q-48 0 -76.5 26.5t-28.5 70.5q0 40 21 73t59 51v2 q-36 22 -36 68q0 52 39 90.5t95 38.5q44 0 70.5 -25.5t26.5 -65.5q0 -70 -67 -108v-1q19 -10 31 -31t12 -46q0 -61 -41.5 -102t-104.5 -41z"/>
<glyph glyph-name="nine.nominator" horiz-adv-x="317" d="M204 479q41 0 69 30t28 73q0 29 -18 46.5t-49 17.5q-41 0 -69 -29.5t-28 -72.5q0 -30 18 -47.5t49 -17.5zM153 274h-29q-4 0 -5.5 3t1.5 7l118 167v1q-19 -12 -47 -12q-44 0 -70.5 26t-26.5 69q0 64 41 108t106 44q47 0 75 -27t28 -72q0 -53 -46 -120l-132 -185 q-5 -9 -13 -9z"/>
<glyph glyph-name="zero.denominator" horiz-adv-x="317" d="M126 34q54 0 79 51q12 24 27.5 109t15.5 116q0 62 -61 62q-53 0 -78 -50q-12 -24 -28 -110t-16 -116q0 -62 61 -62zM120 -7q-46 0 -72 26t-26 72q0 34 17 126t30 118q36 78 124 78q46 0 72.5 -26t26.5 -72q0 -33 -17.5 -125t-30.5 -119q-36 -78 -124 -78z"/>
<glyph glyph-name="one.denominator" horiz-adv-x="317" d="M145 0h-22q-10 0 -8 10l60 341h-2l-74 -46q-4 -3 -7 -1.5t-2 6.5l4 28q1 8 10 14l74 48q9 6 16 6h22q11 0 9 -10l-68 -386q-2 -10 -12 -10z"/>
<glyph glyph-name="two.denominator" horiz-adv-x="317" d="M227 0h-215q-10 0 -8 10l4 20q2 8 8 14l182 183q49 49 49 90q0 26 -15.5 40.5t-42.5 14.5q-58 0 -84 -61q-3 -9 -12 -8l-21 5q-8 2 -5 12q13 39 47 66t80 27q45 0 70 -25.5t25 -63.5q0 -61 -61 -122l-162 -161v-1h168q10 0 8 -10l-3 -20q-2 -10 -12 -10z"/>
<glyph glyph-name="three.denominator" horiz-adv-x="317" d="M121 -7q-45 0 -72 23t-33 60q-2 9 8 12l22 6q8 2 11 -7q9 -53 68 -53q40 0 66.5 27t26.5 67q0 28 -17.5 45t-48.5 17h-17q-9 0 -7 10l3 21q2 10 12 10h13q36 0 61.5 25t25.5 62q0 25 -15.5 39.5t-43.5 14.5q-56 0 -80 -48q-5 -9 -12 -8l-20 6q-8 1 -5 11q14 34 45.5 57 t77.5 23q45 0 70.5 -24.5t25.5 -62.5q0 -77 -69 -112v-1q44 -23 44 -78q0 -62 -39 -102t-101 -40z"/>
<glyph glyph-name="four.denominator" horiz-adv-x="317" d="M191 0h-22q-9 0 -7 10l10 61q2 6 -5 6h-155q-10 0 -8 10l3 21q1 6 7 15l177 273q6 10 14 10h27q4 0 5.5 -3t-1.5 -7l-178 -278v-1h116q6 0 7 6l18 100q2 10 11 10h22q10 0 8 -10l-17 -100q-1 -6 5 -6h35q9 0 7 -10l-3 -21q-1 -9 -10 -9h-37q-4 0 -6 -6l-11 -61 q-2 -10 -12 -10z"/>
<glyph glyph-name="five.denominator" horiz-adv-x="317" d="M123 -7q-45 0 -68.5 22.5t-27.5 58.5q-2 10 6 13l24 8q7 1 9 -6q10 -55 64 -55q52 0 76 47q7 14 13 43t6 46q0 56 -59 56q-47 0 -71 -38q-5 -9 -13 -9h-22q-10 0 -8 10l36 207q2 10 11 10h195q10 0 8 -10l-4 -21q-2 -9 -10 -9h-158q-6 0 -7 -6l-23 -125h1q26 32 78 32 q40 0 64.5 -22.5t24.5 -63.5q0 -23 -7.5 -60.5t-17.5 -56.5q-35 -71 -120 -71z"/>
<glyph glyph-name="six.denominator" horiz-adv-x="317" d="M127 34q41 0 69 29.5t28 72.5q0 30 -18 47.5t-49 17.5q-41 0 -69 -30t-28 -73q0 -29 18 -46.5t49 -17.5zM120 -7q-47 0 -75 27t-28 72q0 53 46 120l132 185q5 9 13 9h29q5 0 6 -3t-2 -7l-119 -167l1 -1q19 12 47 12q44 0 70 -26t26 -69q0 -64 -40.5 -108t-105.5 -44z"/>
<glyph glyph-name="seven.denominator" horiz-adv-x="317" d="M81 0h-25q-11 0 -4 11l208 353v2h-138q-6 0 -7 -6l-8 -42q-2 -10 -10 -10h-22q-10 0 -8 10l13 78q2 10 11 10h210q10 0 8 -10l-4 -25q-1 -7 -6 -15l-205 -348q-5 -8 -13 -8z"/>
<glyph glyph-name="eight.denominator" horiz-adv-x="317" d="M126 33q39 0 68.5 28t29.5 67q0 29 -19 47t-50 18q-39 0 -68.5 -28t-29.5 -67q0 -29 19 -47t50 -18zM163 232q32 0 58.5 25t26.5 59q0 25 -17 41t-45 16q-32 0 -58.5 -25t-26.5 -59q0 -25 17 -41t45 -16zM120 -7q-48 0 -76.5 26.5t-28.5 70.5q0 40 21 73t59 51v2 q-36 22 -36 68q0 52 39 90.5t95 38.5q44 0 70.5 -25.5t26.5 -65.5q0 -70 -67 -108v-1q19 -10 31 -31t12 -46q0 -61 -41.5 -102t-104.5 -41z"/>
<glyph glyph-name="nine.denominator" horiz-adv-x="317" d="M157 205q41 0 69 30t28 73q0 29 -18 46.5t-49 17.5q-41 0 -69 -29.5t-28 -72.5q0 -30 18 -47.5t49 -17.5zM106 0h-29q-5 0 -6 3t2 7l118 167v1q-19 -12 -47 -12q-44 0 -70.5 26t-26.5 69q0 64 41 108t106 44q47 0 75 -27t28 -72q0 -53 -46 -120l-132 -185q-5 -9 -13 -9z "/>
</font>
</defs>
</svg>
